<svg width="600" height="400" viewBox="0 0 600 400" xmlns="http://www.w3.org/2000/svg"><rect width="100%" height="100%" fill="rgba(255,255,255,1.000)" /><text x="300.00" y="10.00" text-anchor="middle" dominant-baseline="middle" font-family="Inter, -apple-system, BlinkMacSystemFont, 'Segoe UI', Roboto, Helvetica, Arial, 'PingFang SC', 'Microsoft YaHei', Ubuntu, Cantarell, 'Noto Sans', sans-serif" font-size="18" fill="rgba(51,51,51,1.000)" font-weight="bold">Cumulative Density Estimation</text>
<line x1="98.20" y1="311.00" x2="582.00" y2="311.00" stroke="rgba(51,51,51,1.000)" stroke-width="1" stroke-linecap="square"/>
<line x1="144.91" y1="311.00" x2="144.91" y2="317.00" stroke="rgba(51,51,51,1.000)" stroke-width="1.0"/>
<text x="144.91" y="320.00" font-size="13" font-family="Inter, -apple-system, BlinkMacSystemFont, 'Segoe UI', Roboto, Helvetica, Arial, 'PingFang SC', 'Microsoft YaHei', Ubuntu, Cantarell, 'Noto Sans', sans-serif" fill="rgba(51,51,51,1.000)" text-anchor="middle" dominant-baseline="hanging">6.0</text>
<line x1="217.61" y1="311.00" x2="217.61" y2="317.00" stroke="rgba(51,51,51,1.000)" stroke-width="1.0"/>
<text x="217.61" y="320.00" font-size="13" font-family="Inter, -apple-system, BlinkMacSystemFont, 'Segoe UI', Roboto, Helvetica, Arial, 'PingFang SC', 'Microsoft YaHei', Ubuntu, Cantarell, 'Noto Sans', sans-serif" fill="rgba(51,51,51,1.000)" text-anchor="middle" dominant-baseline="hanging">6.5</text>
<line x1="290.31" y1="311.00" x2="290.31" y2="317.00" stroke="rgba(51,51,51,1.000)" stroke-width="1.0"/>
<text x="290.31" y="320.00" font-size="13" font-family="Inter, -apple-system, BlinkMacSystemFont, 'Segoe UI', Roboto, Helvetica, Arial, 'PingFang SC', 'Microsoft YaHei', Ubuntu, Cantarell, 'Noto Sans', sans-serif" fill="rgba(51,51,51,1.000)" text-anchor="middle" dominant-baseline="hanging">7.0</text>
<line x1="363.02" y1="311.00" x2="363.02" y2="317.00" stroke="rgba(51,51,51,1.000)" stroke-width="1.0"/>
<text x="363.02" y="320.00" font-size="13" font-family="Inter, -apple-system, BlinkMacSystemFont, 'Segoe UI', Roboto, Helvetica, Arial, 'PingFang SC', 'Microsoft YaHei', Ubuntu, Cantarell, 'Noto Sans', sans-serif" fill="rgba(51,51,51,1.000)" text-anchor="middle" dominant-baseline="hanging">7.5</text>
<line x1="435.72" y1="311.00" x2="435.72" y2="317.00" stroke="rgba(51,51,51,1.000)" stroke-width="1.0"/>
<text x="435.72" y="320.00" font-size="13" font-family="Inter, -apple-system, BlinkMacSystemFont, 'Segoe UI', Roboto, Helvetica, Arial, 'PingFang SC', 'Microsoft YaHei', Ubuntu, Cantarell, 'Noto Sans', sans-serif" fill="rgba(51,51,51,1.000)" text-anchor="middle" dominant-baseline="hanging">8.0</text>
<line x1="508.42" y1="311.00" x2="508.42" y2="317.00" stroke="rgba(51,51,51,1.000)" stroke-width="1.0"/>
<text x="508.42" y="320.00" font-size="13" font-family="Inter, -apple-system, BlinkMacSystemFont, 'Segoe UI', Roboto, Helvetica, Arial, 'PingFang SC', 'Microsoft YaHei', Ubuntu, Cantarell, 'Noto Sans', sans-serif" fill="rgba(51,51,51,1.000)" text-anchor="middle" dominant-baseline="hanging">8.5</text>
<line x1="581.12" y1="311.00" x2="581.12" y2="317.00" stroke="rgba(51,51,51,1.000)" stroke-width="1.0"/>
<text x="581.12" y="320.00" font-size="13" font-family="Inter, -apple-system, BlinkMacSystemFont, 'Segoe UI', Roboto, Helvetica, Arial, 'PingFang SC', 'Microsoft YaHei', Ubuntu, Cantarell, 'Noto Sans', sans-serif" fill="rgba(51,51,51,1.000)" text-anchor="middle" dominant-baseline="hanging">9.0</text>
<text x="340.10" y="340.00" text-anchor="middle" font-size="15" font-family="Inter, -apple-system, BlinkMacSystemFont, 'Segoe UI', Roboto, Helvetica, Arial, 'PingFang SC', 'Microsoft YaHei', Ubuntu, Cantarell, 'Noto Sans', sans-serif" fill="rgba(51,51,51,1.000)" font-weight="bold" dominant-baseline="hanging">IMDB Rating</text>
<line x1="98.20" y1="40.00" x2="98.20" y2="311.00" stroke="rgba(51,51,51,1.000)" stroke-width="1" stroke-linecap="square"/>
<line x1="98.20" y1="311.00" x2="92.20" y2="311.00" stroke="rgba(51,51,51,1.000)" stroke-width="1.0"/>
<text x="88.20" y="311.00" font-size="13" font-family="Inter, -apple-system, BlinkMacSystemFont, 'Segoe UI', Roboto, Helvetica, Arial, 'PingFang SC', 'Microsoft YaHei', Ubuntu, Cantarell, 'Noto Sans', sans-serif" fill="rgba(51,51,51,1.000)" text-anchor="end" dominant-baseline="central">0.0</text>
<line x1="98.20" y1="259.38" x2="92.20" y2="259.38" stroke="rgba(51,51,51,1.000)" stroke-width="1.0"/>
<text x="88.20" y="259.38" font-size="13" font-family="Inter, -apple-system, BlinkMacSystemFont, 'Segoe UI', Roboto, Helvetica, Arial, 'PingFang SC', 'Microsoft YaHei', Ubuntu, Cantarell, 'Noto Sans', sans-serif" fill="rgba(51,51,51,1.000)" text-anchor="end" dominant-baseline="central">0.2</text>
<line x1="98.20" y1="207.76" x2="92.20" y2="207.76" stroke="rgba(51,51,51,1.000)" stroke-width="1.0"/>
<text x="88.20" y="207.76" font-size="13" font-family="Inter, -apple-system, BlinkMacSystemFont, 'Segoe UI', Roboto, Helvetica, Arial, 'PingFang SC', 'Microsoft YaHei', Ubuntu, Cantarell, 'Noto Sans', sans-serif" fill="rgba(51,51,51,1.000)" text-anchor="end" dominant-baseline="central">0.4</text>
<line x1="98.20" y1="156.14" x2="92.20" y2="156.14" stroke="rgba(51,51,51,1.000)" stroke-width="1.0"/>
<text x="88.20" y="156.14" font-size="13" font-family="Inter, -apple-system, BlinkMacSystemFont, 'Segoe UI', Roboto, Helvetica, Arial, 'PingFang SC', 'Microsoft YaHei', Ubuntu, Cantarell, 'Noto Sans', sans-serif" fill="rgba(51,51,51,1.000)" text-anchor="end" dominant-baseline="central">0.6</text>
<line x1="98.20" y1="104.52" x2="92.20" y2="104.52" stroke="rgba(51,51,51,1.000)" stroke-width="1.0"/>
<text x="88.20" y="104.52" font-size="13" font-family="Inter, -apple-system, BlinkMacSystemFont, 'Segoe UI', Roboto, Helvetica, Arial, 'PingFang SC', 'Microsoft YaHei', Ubuntu, Cantarell, 'Noto Sans', sans-serif" fill="rgba(51,51,51,1.000)" text-anchor="end" dominant-baseline="central">0.8</text>
<line x1="98.20" y1="52.90" x2="92.20" y2="52.90" stroke="rgba(51,51,51,1.000)" stroke-width="1.0"/>
<text x="88.20" y="52.90" font-size="13" font-family="Inter, -apple-system, BlinkMacSystemFont, 'Segoe UI', Roboto, Helvetica, Arial, 'PingFang SC', 'Microsoft YaHei', Ubuntu, Cantarell, 'Noto Sans', sans-serif" fill="rgba(51,51,51,1.000)" text-anchor="end" dominant-baseline="central">1.0</text>
<text x="53.50" y="175.50" text-anchor="middle" font-size="15" font-family="Inter, -apple-system, BlinkMacSystemFont, 'Segoe UI', Roboto, Helvetica, Arial, 'PingFang SC', 'Microsoft YaHei', Ubuntu, Cantarell, 'Noto Sans', sans-serif" fill="rgba(51,51,51,1.000)" font-weight="bold" transform="rotate(-90, 53.50, 175.50)" dominant-baseline="middle">Cumulative Density</text>
<defs><clipPath id="plot-clip-area"><rect x="98.200" y="40.000" width="483.800" height="271.000" /></clipPath></defs>
<line x1="98.200" y1="311.000" x2="582.000" y2="311.000" stroke="rgba(136,136,136,1.000)" stroke-width="1.000" stroke-opacity="0.500" stroke-dasharray="4.0,4.0" />
<polygon points="120.191,310.973 122.401,310.942 124.611,310.906 126.821,310.865 129.031,310.819 131.242,310.766 133.452,310.707 135.662,310.639 137.872,310.564 140.082,310.478 142.292,310.383 144.502,310.276 146.713,310.157 148.923,310.024 151.133,309.877 153.343,309.715 155.553,309.535 157.763,309.338 159.973,309.121 162.184,308.884 164.394,308.624 166.604,308.341 168.814,308.034 171.024,307.700 173.234,307.339 175.444,306.948 177.655,306.528 179.865,306.076 182.075,305.591 184.285,305.072 186.495,304.518 188.705,303.928 190.915,303.300 193.126,302.634 195.336,301.928 197.546,301.182 199.756,300.395 201.966,299.567 204.176,298.696 206.386,297.783 208.597,296.828 210.807,295.829 213.017,294.787 215.227,293.702 217.437,292.575 219.647,291.404 221.857,290.191 224.068,288.936 226.278,287.639 228.488,286.301 230.698,284.923 232.908,283.506 235.118,282.050 237.328,280.556 239.539,279.025 241.749,277.459 243.959,275.858 246.169,274.222 248.379,272.555 250.589,270.855 252.799,269.126 255.010,267.366 257.220,265.579 259.430,263.765 261.640,261.925 263.850,260.060 266.060,258.172 268.270,256.261 270.480,254.328 272.691,252.375 274.901,250.403 277.111,248.412 279.321,246.404 281.531,244.379 283.741,242.339 285.952,240.284 288.162,238.215 290.372,236.133 292.582,234.038 294.792,231.932 297.002,229.815 299.212,227.687 301.422,225.549 303.633,223.402 305.843,221.246 308.053,219.082 310.263,216.910 312.473,214.731 314.683,212.544 316.893,210.350 319.104,208.149 321.314,205.942 323.524,203.728 325.734,201.509 327.944,199.283 330.154,197.052 332.364,194.814 334.575,192.571 336.785,190.322 338.995,188.068 341.205,185.808 343.415,183.543 345.625,181.273 347.835,178.998 350.046,176.718 352.256,174.433 354.466,172.143 356.676,169.850 358.886,167.552 361.096,165.251 363.306,162.947 365.517,160.641 367.727,158.333 369.937,156.023 372.147,153.713 374.357,151.403 376.567,149.094 378.777,146.787 380.988,144.483 383.198,142.182 385.408,139.887 387.618,137.597 389.828,135.315 392.038,133.042 394.248,130.778 396.459,128.526 398.669,126.286 400.879,124.060 403.089,121.850 405.299,119.657 407.509,117.482 409.719,115.327 411.930,113.193 414.140,111.083 416.350,108.997 418.560,106.937 420.770,104.905 422.980,102.902 425.190,100.930 427.401,98.989 429.611,97.082 431.821,95.209 434.031,93.372 436.241,91.573 438.451,89.812 440.661,88.090 442.872,86.409 445.082,84.770 447.292,83.173 449.502,81.619 451.712,80.110 453.922,78.646 456.132,77.226 458.342,75.853 460.553,74.526 462.763,73.246 464.973,72.012 467.183,70.825 469.393,69.685 471.603,68.592 473.814,67.546 476.024,66.545 478.234,65.591 480.444,64.682 482.654,63.818 484.864,62.998 487.074,62.221 489.284,61.487 491.495,60.794 493.705,60.142 495.915,59.528 498.125,58.954 500.335,58.416 502.545,57.913 504.756,57.445 506.966,57.010 509.176,56.606 511.386,56.233 513.596,55.888 515.806,55.570 518.016,55.278 520.226,55.011 522.437,54.766 524.647,54.543 526.857,54.340 529.067,54.156 531.277,53.989 533.487,53.838 535.698,53.703 537.908,53.581 540.118,53.472 542.328,53.374 544.538,53.288 546.748,53.210 548.958,53.142 551.168,53.082 553.379,53.028 555.589,52.982 557.799,52.941 560.009,52.905 560.009,311.000 557.799,311.000 555.589,311.000 553.379,311.000 551.168,311.000 548.958,311.000 546.748,311.000 544.538,311.000 542.328,311.000 540.118,311.000 537.908,311.000 535.698,311.000 533.487,311.000 531.277,311.000 529.067,311.000 526.857,311.000 524.647,311.000 522.437,311.000 520.226,311.000 518.016,311.000 515.806,311.000 513.596,311.000 511.386,311.000 509.176,311.000 506.966,311.000 504.756,311.000 502.545,311.000 500.335,311.000 498.125,311.000 495.915,311.000 493.705,311.000 491.495,311.000 489.284,311.000 487.074,311.000 484.864,311.000 482.654,311.000 480.444,311.000 478.234,311.000 476.024,311.000 473.814,311.000 471.603,311.000 469.393,311.000 467.183,311.000 464.973,311.000 462.763,311.000 460.553,311.000 458.342,311.000 456.132,311.000 453.922,311.000 451.712,311.000 449.502,311.000 447.292,311.000 445.082,311.000 442.872,311.000 440.661,311.000 438.451,311.000 436.241,311.000 434.031,311.000 431.821,311.000 429.611,311.000 427.401,311.000 425.190,311.000 422.980,311.000 420.770,311.000 418.560,311.000 416.350,311.000 414.140,311.000 411.930,311.000 409.719,311.000 407.509,311.000 405.299,311.000 403.089,311.000 400.879,311.000 398.669,311.000 396.459,311.000 394.248,311.000 392.038,311.000 389.828,311.000 387.618,311.000 385.408,311.000 383.198,311.000 380.988,311.000 378.777,311.000 376.567,311.000 374.357,311.000 372.147,311.000 369.937,311.000 367.727,311.000 365.517,311.000 363.306,311.000 361.096,311.000 358.886,311.000 356.676,311.000 354.466,311.000 352.256,311.000 350.046,311.000 347.835,311.000 345.625,311.000 343.415,311.000 341.205,311.000 338.995,311.000 336.785,311.000 334.575,311.000 332.364,311.000 330.154,311.000 327.944,311.000 325.734,311.000 323.524,311.000 321.314,311.000 319.104,311.000 316.893,311.000 314.683,311.000 312.473,311.000 310.263,311.000 308.053,311.000 305.843,311.000 303.633,311.000 301.422,311.000 299.212,311.000 297.002,311.000 294.792,311.000 292.582,311.000 290.372,311.000 288.162,311.000 285.952,311.000 283.741,311.000 281.531,311.000 279.321,311.000 277.111,311.000 274.901,311.000 272.691,311.000 270.480,311.000 268.270,311.000 266.060,311.000 263.850,311.000 261.640,311.000 259.430,311.000 257.220,311.000 255.010,311.000 252.799,311.000 250.589,311.000 248.379,311.000 246.169,311.000 243.959,311.000 241.749,311.000 239.539,311.000 237.328,311.000 235.118,311.000 232.908,311.000 230.698,311.000 228.488,311.000 226.278,311.000 224.068,311.000 221.857,311.000 219.647,311.000 217.437,311.000 215.227,311.000 213.017,311.000 210.807,311.000 208.597,311.000 206.386,311.000 204.176,311.000 201.966,311.000 199.756,311.000 197.546,311.000 195.336,311.000 193.126,311.000 190.915,311.000 188.705,311.000 186.495,311.000 184.285,311.000 182.075,311.000 179.865,311.000 177.655,311.000 175.444,311.000 173.234,311.000 171.024,311.000 168.814,311.000 166.604,311.000 164.394,311.000 162.184,311.000 159.973,311.000 157.763,311.000 155.553,311.000 153.343,311.000 151.133,311.000 148.923,311.000 146.713,311.000 144.502,311.000 142.292,311.000 140.082,311.000 137.872,311.000 135.662,311.000 133.452,311.000 131.242,311.000 129.031,311.000 126.821,311.000 124.611,311.000 122.401,311.000 120.191,311.000" fill="rgba(128,0,128,1.000)" stroke="none" stroke-width="0.000" fill-opacity="0.300" stroke-opacity="0.000" clip-path="url(#plot-clip-area)" />
<path d="M 120.191 310.973 L 122.401 310.942 L 124.611 310.906 L 126.821 310.865 L 129.031 310.819 L 131.242 310.766 L 133.452 310.707 L 135.662 310.639 L 137.872 310.564 L 140.082 310.478 L 142.292 310.383 L 144.502 310.276 L 146.713 310.157 L 148.923 310.024 L 151.133 309.877 L 153.343 309.715 L 155.553 309.535 L 157.763 309.338 L 159.973 309.121 L 162.184 308.884 L 164.394 308.624 L 166.604 308.341 L 168.814 308.034 L 171.024 307.700 L 173.234 307.339 L 175.444 306.948 L 177.655 306.528 L 179.865 306.076 L 182.075 305.591 L 184.285 305.072 L 186.495 304.518 L 188.705 303.928 L 190.915 303.300 L 193.126 302.634 L 195.336 301.928 L 197.546 301.182 L 199.756 300.395 L 201.966 299.567 L 204.176 298.696 L 206.386 297.783 L 208.597 296.828 L 210.807 295.829 L 213.017 294.787 L 215.227 293.702 L 217.437 292.575 L 219.647 291.404 L 221.857 290.191 L 224.068 288.936 L 226.278 287.639 L 228.488 286.301 L 230.698 284.923 L 232.908 283.506 L 235.118 282.050 L 237.328 280.556 L 239.539 279.025 L 241.749 277.459 L 243.959 275.858 L 246.169 274.222 L 248.379 272.555 L 250.589 270.855 L 252.799 269.126 L 255.010 267.366 L 257.220 265.579 L 259.430 263.765 L 261.640 261.925 L 263.850 260.060 L 266.060 258.172 L 268.270 256.261 L 270.480 254.328 L 272.691 252.375 L 274.901 250.403 L 277.111 248.412 L 279.321 246.404 L 281.531 244.379 L 283.741 242.339 L 285.952 240.284 L 288.162 238.215 L 290.372 236.133 L 292.582 234.038 L 294.792 231.932 L 297.002 229.815 L 299.212 227.687 L 301.422 225.549 L 303.633 223.402 L 305.843 221.246 L 308.053 219.082 L 310.263 216.910 L 312.473 214.731 L 314.683 212.544 L 316.893 210.350 L 319.104 208.149 L 321.314 205.942 L 323.524 203.728 L 325.734 201.509 L 327.944 199.283 L 330.154 197.052 L 332.364 194.814 L 334.575 192.571 L 336.785 190.322 L 338.995 188.068 L 341.205 185.808 L 343.415 183.543 L 345.625 181.273 L 347.835 178.998 L 350.046 176.718 L 352.256 174.433 L 354.466 172.143 L 356.676 169.850 L 358.886 167.552 L 361.096 165.251 L 363.306 162.947 L 365.517 160.641 L 367.727 158.333 L 369.937 156.023 L 372.147 153.713 L 374.357 151.403 L 376.567 149.094 L 378.777 146.787 L 380.988 144.483 L 383.198 142.182 L 385.408 139.887 L 387.618 137.597 L 389.828 135.315 L 392.038 133.042 L 394.248 130.778 L 396.459 128.526 L 398.669 126.286 L 400.879 124.060 L 403.089 121.850 L 405.299 119.657 L 407.509 117.482 L 409.719 115.327 L 411.930 113.193 L 414.140 111.083 L 416.350 108.997 L 418.560 106.937 L 420.770 104.905 L 422.980 102.902 L 425.190 100.930 L 427.401 98.989 L 429.611 97.082 L 431.821 95.209 L 434.031 93.372 L 436.241 91.573 L 438.451 89.812 L 440.661 88.090 L 442.872 86.409 L 445.082 84.770 L 447.292 83.173 L 449.502 81.619 L 451.712 80.110 L 453.922 78.646 L 456.132 77.226 L 458.342 75.853 L 460.553 74.526 L 462.763 73.246 L 464.973 72.012 L 467.183 70.825 L 469.393 69.685 L 471.603 68.592 L 473.814 67.546 L 476.024 66.545 L 478.234 65.591 L 480.444 64.682 L 482.654 63.818 L 484.864 62.998 L 487.074 62.221 L 489.284 61.487 L 491.495 60.794 L 493.705 60.142 L 495.915 59.528 L 498.125 58.954 L 500.335 58.416 L 502.545 57.913 L 504.756 57.445 L 506.966 57.010 L 509.176 56.606 L 511.386 56.233 L 513.596 55.888 L 515.806 55.570 L 518.016 55.278 L 520.226 55.011 L 522.437 54.766 L 524.647 54.543 L 526.857 54.340 L 529.067 54.156 L 531.277 53.989 L 533.487 53.838 L 535.698 53.703 L 537.908 53.581 L 540.118 53.472 L 542.328 53.374 L 544.538 53.288 L 546.748 53.210 L 548.958 53.142 L 551.168 53.082 L 553.379 53.028 L 555.589 52.982 L 557.799 52.941 L 560.009 52.905" stroke="rgba(128,0,128,1.000)" stroke-width="1.000" stroke-opacity="1.000" fill="none" stroke-linejoin="round" stroke-linecap="round" clip-path="url(#plot-clip-area)" />
</svg>