<svg width="600" height="400" viewBox="0 0 600 400" xmlns="http://www.w3.org/2000/svg"><rect x="0.000" y="0.000" width="600.000" height="400.000" fill="rgba(255,255,255,1.000)" stroke="none" stroke-width="0.000" fill-opacity="1.000" stroke-opacity="1.000" />
<text x="300.000" y="13.333" font-size="18.0" font-family="Inter, -apple-system, BlinkMacSystemFont, 'Segoe UI', Roboto, Helvetica, Arial, 'PingFang SC', 'Microsoft YaHei', Ubuntu, Cantarell, 'Noto Sans', sans-serif" fill="rgba(51,51,51,1.000)" fill-opacity="1.000" text-anchor="middle" font-weight="bold" dominant-baseline="middle" transform="rotate(0 300.000 13.333)">Empirical Cumulative Distribution</text>
<path d="M 94.300 311.000 L 487.000 311.000" stroke="rgba(51,51,51,1.000)" stroke-width="1.000" stroke-opacity="1.000" fill="none" stroke-linejoin="round" stroke-linecap="round" />
<path d="M 131.983 311.000 L 131.983 317.000" stroke="rgba(51,51,51,1.000)" stroke-width="1.000" stroke-opacity="1.000" fill="none" stroke-linejoin="round" stroke-linecap="round" />
<text x="131.983" y="320.000" font-size="13.0" font-family="Inter, -apple-system, BlinkMacSystemFont, 'Segoe UI', Roboto, Helvetica, Arial, 'PingFang SC', 'Microsoft YaHei', Ubuntu, Cantarell, 'Noto Sans', sans-serif" fill="rgba(51,51,51,1.000)" fill-opacity="1.000" text-anchor="middle" font-weight="normal" dominant-baseline="hanging" transform="rotate(0 131.983 320.000)">4.5</text>
<path d="M 181.567 311.000 L 181.567 317.000" stroke="rgba(51,51,51,1.000)" stroke-width="1.000" stroke-opacity="1.000" fill="none" stroke-linejoin="round" stroke-linecap="round" />
<text x="181.567" y="320.000" font-size="13.0" font-family="Inter, -apple-system, BlinkMacSystemFont, 'Segoe UI', Roboto, Helvetica, Arial, 'PingFang SC', 'Microsoft YaHei', Ubuntu, Cantarell, 'Noto Sans', sans-serif" fill="rgba(51,51,51,1.000)" fill-opacity="1.000" text-anchor="middle" font-weight="normal" dominant-baseline="hanging" transform="rotate(0 181.567 320.000)">5.0</text>
<path d="M 231.150 311.000 L 231.150 317.000" stroke="rgba(51,51,51,1.000)" stroke-width="1.000" stroke-opacity="1.000" fill="none" stroke-linejoin="round" stroke-linecap="round" />
<text x="231.150" y="320.000" font-size="13.0" font-family="Inter, -apple-system, BlinkMacSystemFont, 'Segoe UI', Roboto, Helvetica, Arial, 'PingFang SC', 'Microsoft YaHei', Ubuntu, Cantarell, 'Noto Sans', sans-serif" fill="rgba(51,51,51,1.000)" fill-opacity="1.000" text-anchor="middle" font-weight="normal" dominant-baseline="hanging" transform="rotate(0 231.150 320.000)">5.5</text>
<path d="M 280.733 311.000 L 280.733 317.000" stroke="rgba(51,51,51,1.000)" stroke-width="1.000" stroke-opacity="1.000" fill="none" stroke-linejoin="round" stroke-linecap="round" />
<text x="280.733" y="320.000" font-size="13.0" font-family="Inter, -apple-system, BlinkMacSystemFont, 'Segoe UI', Roboto, Helvetica, Arial, 'PingFang SC', 'Microsoft YaHei', Ubuntu, Cantarell, 'Noto Sans', sans-serif" fill="rgba(51,51,51,1.000)" fill-opacity="1.000" text-anchor="middle" font-weight="normal" dominant-baseline="hanging" transform="rotate(0 280.733 320.000)">6.0</text>
<path d="M 330.317 311.000 L 330.317 317.000" stroke="rgba(51,51,51,1.000)" stroke-width="1.000" stroke-opacity="1.000" fill="none" stroke-linejoin="round" stroke-linecap="round" />
<text x="330.317" y="320.000" font-size="13.0" font-family="Inter, -apple-system, BlinkMacSystemFont, 'Segoe UI', Roboto, Helvetica, Arial, 'PingFang SC', 'Microsoft YaHei', Ubuntu, Cantarell, 'Noto Sans', sans-serif" fill="rgba(51,51,51,1.000)" fill-opacity="1.000" text-anchor="middle" font-weight="normal" dominant-baseline="hanging" transform="rotate(0 330.317 320.000)">6.5</text>
<path d="M 379.900 311.000 L 379.900 317.000" stroke="rgba(51,51,51,1.000)" stroke-width="1.000" stroke-opacity="1.000" fill="none" stroke-linejoin="round" stroke-linecap="round" />
<text x="379.900" y="320.000" font-size="13.0" font-family="Inter, -apple-system, BlinkMacSystemFont, 'Segoe UI', Roboto, Helvetica, Arial, 'PingFang SC', 'Microsoft YaHei', Ubuntu, Cantarell, 'Noto Sans', sans-serif" fill="rgba(51,51,51,1.000)" fill-opacity="1.000" text-anchor="middle" font-weight="normal" dominant-baseline="hanging" transform="rotate(0 379.900 320.000)">7.0</text>
<path d="M 429.483 311.000 L 429.483 317.000" stroke="rgba(51,51,51,1.000)" stroke-width="1.000" stroke-opacity="1.000" fill="none" stroke-linejoin="round" stroke-linecap="round" />
<text x="429.483" y="320.000" font-size="13.0" font-family="Inter, -apple-system, BlinkMacSystemFont, 'Segoe UI', Roboto, Helvetica, Arial, 'PingFang SC', 'Microsoft YaHei', Ubuntu, Cantarell, 'Noto Sans', sans-serif" fill="rgba(51,51,51,1.000)" fill-opacity="1.000" text-anchor="middle" font-weight="normal" dominant-baseline="hanging" transform="rotate(0 429.483 320.000)">7.5</text>
<path d="M 479.067 311.000 L 479.067 317.000" stroke="rgba(51,51,51,1.000)" stroke-width="1.000" stroke-opacity="1.000" fill="none" stroke-linejoin="round" stroke-linecap="round" />
<text x="479.067" y="320.000" font-size="13.0" font-family="Inter, -apple-system, BlinkMacSystemFont, 'Segoe UI', Roboto, Helvetica, Arial, 'PingFang SC', 'Microsoft YaHei', Ubuntu, Cantarell, 'Noto Sans', sans-serif" fill="rgba(51,51,51,1.000)" fill-opacity="1.000" text-anchor="middle" font-weight="normal" dominant-baseline="hanging" transform="rotate(0 479.067 320.000)">8.0</text>
<text x="290.650" y="340.000" font-size="15.0" font-family="Inter, -apple-system, BlinkMacSystemFont, 'Segoe UI', Roboto, Helvetica, Arial, 'PingFang SC', 'Microsoft YaHei', Ubuntu, Cantarell, 'Noto Sans', sans-serif" fill="rgba(51,51,51,1.000)" fill-opacity="1.000" text-anchor="middle" font-weight="bold" dominant-baseline="hanging" transform="rotate(0 290.650 340.000)">sepal_length</text>
<path d="M 94.300 40.000 L 94.300 311.000" stroke="rgba(51,51,51,1.000)" stroke-width="1.000" stroke-opacity="1.000" fill="none" stroke-linejoin="round" stroke-linecap="round" />
<path d="M 94.300 298.682 L 88.300 298.682" stroke="rgba(51,51,51,1.000)" stroke-width="1.000" stroke-opacity="1.000" fill="none" stroke-linejoin="round" stroke-linecap="round" />
<text x="84.300" y="298.682" font-size="13.0" font-family="Inter, -apple-system, BlinkMacSystemFont, 'Segoe UI', Roboto, Helvetica, Arial, 'PingFang SC', 'Microsoft YaHei', Ubuntu, Cantarell, 'Noto Sans', sans-serif" fill="rgba(51,51,51,1.000)" fill-opacity="1.000" text-anchor="end" font-weight="normal" dominant-baseline="central" transform="rotate(0 84.300 298.682)">0</text>
<path d="M 94.300 249.409 L 88.300 249.409" stroke="rgba(51,51,51,1.000)" stroke-width="1.000" stroke-opacity="1.000" fill="none" stroke-linejoin="round" stroke-linecap="round" />
<text x="84.300" y="249.409" font-size="13.0" font-family="Inter, -apple-system, BlinkMacSystemFont, 'Segoe UI', Roboto, Helvetica, Arial, 'PingFang SC', 'Microsoft YaHei', Ubuntu, Cantarell, 'Noto Sans', sans-serif" fill="rgba(51,51,51,1.000)" fill-opacity="1.000" text-anchor="end" font-weight="normal" dominant-baseline="central" transform="rotate(0 84.300 249.409)">10</text>
<path d="M 94.300 200.136 L 88.300 200.136" stroke="rgba(51,51,51,1.000)" stroke-width="1.000" stroke-opacity="1.000" fill="none" stroke-linejoin="round" stroke-linecap="round" />
<text x="84.300" y="200.136" font-size="13.0" font-family="Inter, -apple-system, BlinkMacSystemFont, 'Segoe UI', Roboto, Helvetica, Arial, 'PingFang SC', 'Microsoft YaHei', Ubuntu, Cantarell, 'Noto Sans', sans-serif" fill="rgba(51,51,51,1.000)" fill-opacity="1.000" text-anchor="end" font-weight="normal" dominant-baseline="central" transform="rotate(0 84.300 200.136)">20</text>
<path d="M 94.300 150.864 L 88.300 150.864" stroke="rgba(51,51,51,1.000)" stroke-width="1.000" stroke-opacity="1.000" fill="none" stroke-linejoin="round" stroke-linecap="round" />
<text x="84.300" y="150.864" font-size="13.0" font-family="Inter, -apple-system, BlinkMacSystemFont, 'Segoe UI', Roboto, Helvetica, Arial, 'PingFang SC', 'Microsoft YaHei', Ubuntu, Cantarell, 'Noto Sans', sans-serif" fill="rgba(51,51,51,1.000)" fill-opacity="1.000" text-anchor="end" font-weight="normal" dominant-baseline="central" transform="rotate(0 84.300 150.864)">30</text>
<path d="M 94.300 101.591 L 88.300 101.591" stroke="rgba(51,51,51,1.000)" stroke-width="1.000" stroke-opacity="1.000" fill="none" stroke-linejoin="round" stroke-linecap="round" />
<text x="84.300" y="101.591" font-size="13.0" font-family="Inter, -apple-system, BlinkMacSystemFont, 'Segoe UI', Roboto, Helvetica, Arial, 'PingFang SC', 'Microsoft YaHei', Ubuntu, Cantarell, 'Noto Sans', sans-serif" fill="rgba(51,51,51,1.000)" fill-opacity="1.000" text-anchor="end" font-weight="normal" dominant-baseline="central" transform="rotate(0 84.300 101.591)">40</text>
<path d="M 94.300 52.318 L 88.300 52.318" stroke="rgba(51,51,51,1.000)" stroke-width="1.000" stroke-opacity="1.000" fill="none" stroke-linejoin="round" stroke-linecap="round" />
<text x="84.300" y="52.318" font-size="13.0" font-family="Inter, -apple-system, BlinkMacSystemFont, 'Segoe UI', Roboto, Helvetica, Arial, 'PingFang SC', 'Microsoft YaHei', Ubuntu, Cantarell, 'Noto Sans', sans-serif" fill="rgba(51,51,51,1.000)" fill-opacity="1.000" text-anchor="end" font-weight="normal" dominant-baseline="central" transform="rotate(0 84.300 52.318)">50</text>
<text x="53.500" y="175.500" font-size="15.0" font-family="Inter, -apple-system, BlinkMacSystemFont, 'Segoe UI', Roboto, Helvetica, Arial, 'PingFang SC', 'Microsoft YaHei', Ubuntu, Cantarell, 'Noto Sans', sans-serif" fill="rgba(51,51,51,1.000)" fill-opacity="1.000" text-anchor="middle" font-weight="bold" dominant-baseline="middle" transform="rotate(-90 53.500 175.500)">ecdf</text>
<path d="M 112.150 298.682 L 112.150 298.682 L 112.150 293.755 L 122.067 293.755 L 122.067 288.827 L 122.067 288.827 L 122.067 283.900 L 122.067 283.900 L 122.067 278.973 L 131.983 278.973 L 131.983 274.045 L 141.900 274.045 L 141.900 269.118 L 141.900 269.118 L 141.900 264.191 L 141.900 264.191 L 141.900 259.264 L 141.900 259.264 L 141.900 254.336 L 151.817 254.336 L 151.817 249.409 L 151.817 249.409 L 151.817 244.482 L 161.733 244.482 L 161.733 239.555 L 161.733 239.555 L 161.733 234.627 L 161.733 234.627 L 161.733 229.700 L 161.733 229.700 L 161.733 224.773 L 161.733 224.773 L 161.733 219.845 L 171.650 219.845 L 171.650 214.918 L 171.650 214.918 L 171.650 209.991 L 171.650 209.991 L 171.650 205.064 L 171.650 205.064 L 171.650 200.136 L 181.567 200.136 L 181.567 195.209 L 181.567 195.209 L 181.567 190.282 L 181.567 190.282 L 181.567 185.355 L 181.567 185.355 L 181.567 180.427 L 181.567 180.427 L 181.567 175.500 L 181.567 175.500 L 181.567 170.573 L 181.567 170.573 L 181.567 165.645 L 181.567 165.645 L 181.567 160.718 L 191.483 160.718 L 191.483 155.791 L 191.483 155.791 L 191.483 150.864 L 191.483 150.864 L 191.483 145.936 L 191.483 145.936 L 191.483 141.009 L 191.483 141.009 L 191.483 136.082 L 191.483 136.082 L 191.483 131.155 L 191.483 131.155 L 191.483 126.227 L 191.483 126.227 L 191.483 121.300 L 201.400 121.300 L 201.400 116.373 L 201.400 116.373 L 201.400 111.445 L 201.400 111.445 L 201.400 106.518 L 211.317 106.518 L 211.317 101.591 L 221.233 101.591 L 221.233 96.664 L 221.233 96.664 L 221.233 91.736 L 221.233 91.736 L 221.233 86.809 L 221.233 86.809 L 221.233 81.882 L 221.233 81.882 L 221.233 76.955 L 231.150 76.955 L 231.150 72.027 L 231.150 72.027 L 231.150 67.100 L 250.983 67.100 L 250.983 62.173 L 250.983 62.173 L 250.983 57.245 L 260.900 57.245 L 260.900 52.318 L 469.150 52.318 L 469.150 52.318" stroke="rgba(31,119,180,1.000)" stroke-width="1.000" stroke-opacity="1.000" fill="none" stroke-linejoin="round" stroke-linecap="round" />
<path d="M 112.150 298.682 L 171.650 298.682 L 171.650 293.755 L 181.567 293.755 L 181.567 288.827 L 181.567 288.827 L 181.567 283.900 L 191.483 283.900 L 191.483 278.973 L 201.400 278.973 L 201.400 274.045 L 221.233 274.045 L 221.233 269.118 L 231.150 269.118 L 231.150 264.191 L 231.150 264.191 L 231.150 259.264 L 231.150 259.264 L 231.150 254.336 L 231.150 254.336 L 231.150 249.409 L 231.150 249.409 L 231.150 244.482 L 241.067 244.482 L 241.067 239.555 L 241.067 239.555 L 241.067 234.627 L 241.067 234.627 L 241.067 229.700 L 241.067 229.700 L 241.067 224.773 L 241.067 224.773 L 241.067 219.845 L 250.983 219.845 L 250.983 214.918 L 250.983 214.918 L 250.983 209.991 L 250.983 209.991 L 250.983 205.064 L 250.983 205.064 L 250.983 200.136 L 250.983 200.136 L 250.983 195.209 L 260.900 195.209 L 260.900 190.282 L 260.900 190.282 L 260.900 185.355 L 260.900 185.355 L 260.900 180.427 L 270.817 180.427 L 270.817 175.500 L 270.817 175.500 L 270.817 170.573 L 280.733 170.573 L 280.733 165.645 L 280.733 165.645 L 280.733 160.718 L 280.733 160.718 L 280.733 155.791 L 280.733 155.791 L 280.733 150.864 L 290.650 150.864 L 290.650 145.936 L 290.650 145.936 L 290.650 141.009 L 290.650 141.009 L 290.650 136.082 L 290.650 136.082 L 290.650 131.155 L 300.567 131.155 L 300.567 126.227 L 300.567 126.227 L 300.567 121.300 L 310.483 121.300 L 310.483 116.373 L 310.483 116.373 L 310.483 111.445 L 310.483 111.445 L 310.483 106.518 L 320.400 106.518 L 320.400 101.591 L 320.400 101.591 L 320.400 96.664 L 330.317 96.664 L 330.317 91.736 L 340.233 91.736 L 340.233 86.809 L 340.233 86.809 L 340.233 81.882 L 350.150 81.882 L 350.150 76.955 L 350.150 76.955 L 350.150 72.027 L 350.150 72.027 L 350.150 67.100 L 360.067 67.100 L 360.067 62.173 L 369.983 62.173 L 369.983 57.245 L 379.900 57.245 L 379.900 52.318 L 469.150 52.318 L 469.150 52.318" stroke="rgba(255,127,14,1.000)" stroke-width="1.000" stroke-opacity="1.000" fill="none" stroke-linejoin="round" stroke-linecap="round" />
<path d="M 112.150 298.682 L 171.650 298.682 L 171.650 293.755 L 241.067 293.755 L 241.067 288.827 L 250.983 288.827 L 250.983 283.900 L 260.900 283.900 L 260.900 278.973 L 260.900 278.973 L 260.900 274.045 L 260.900 274.045 L 260.900 269.118 L 270.817 269.118 L 270.817 264.191 L 280.733 264.191 L 280.733 259.264 L 280.733 259.264 L 280.733 254.336 L 290.650 254.336 L 290.650 249.409 L 290.650 249.409 L 290.650 244.482 L 300.567 244.482 L 300.567 239.555 L 300.567 239.555 L 300.567 234.627 L 310.483 234.627 L 310.483 229.700 L 310.483 229.700 L 310.483 224.773 L 310.483 224.773 L 310.483 219.845 L 310.483 219.845 L 310.483 214.918 L 310.483 214.918 L 310.483 209.991 L 310.483 209.991 L 310.483 205.064 L 320.400 205.064 L 320.400 200.136 L 320.400 200.136 L 320.400 195.209 L 320.400 195.209 L 320.400 190.282 L 320.400 190.282 L 320.400 185.355 L 320.400 185.355 L 320.400 180.427 L 330.317 180.427 L 330.317 175.500 L 330.317 175.500 L 330.317 170.573 L 330.317 170.573 L 330.317 165.645 L 330.317 165.645 L 330.317 160.718 L 350.150 160.718 L 350.150 155.791 L 350.150 155.791 L 350.150 150.864 L 350.150 150.864 L 350.150 145.936 L 350.150 145.936 L 350.150 141.009 L 350.150 141.009 L 350.150 136.082 L 360.067 136.082 L 360.067 131.155 L 360.067 131.155 L 360.067 126.227 L 369.983 126.227 L 369.983 121.300 L 369.983 121.300 L 369.983 116.373 L 369.983 116.373 L 369.983 111.445 L 389.817 111.445 L 389.817 106.518 L 399.733 106.518 L 399.733 101.591 L 399.733 101.591 L 399.733 96.664 L 399.733 96.664 L 399.733 91.736 L 409.650 91.736 L 409.650 86.809 L 419.567 86.809 L 419.567 81.882 L 439.400 81.882 L 439.400 76.955 L 449.317 76.955 L 449.317 72.027 L 449.317 72.027 L 449.317 67.100 L 449.317 67.100 L 449.317 62.173 L 449.317 62.173 L 449.317 57.245 L 469.150 57.245 L 469.150 52.318 L 469.150 52.318 L 469.150 52.318" stroke="rgba(44,160,44,1.000)" stroke-width="1.000" stroke-opacity="1.000" fill="none" stroke-linejoin="round" stroke-linecap="round" />
<text x="502.000" y="49.600" font-size="13.2" font-family="Inter, -apple-system, BlinkMacSystemFont, 'Segoe UI', Roboto, Helvetica, Arial, 'PingFang SC', 'Microsoft YaHei', Ubuntu, Cantarell, 'Noto Sans', sans-serif" fill="rgba(51,51,51,1.000)" fill-opacity="1.000" text-anchor="start" font-weight="bold" dominant-baseline="middle" transform="rotate(0 502.000 49.600)">species</text>
<circle cx="511.000" cy="69.200" r="5.000" fill="rgba(31,119,180,1.000)" stroke="none" stroke-width="0.000" fill-opacity="1.000" stroke-opacity="1.000" />
<text x="528.000" y="73.700" font-size="12.0" font-family="Inter, -apple-system, BlinkMacSystemFont, 'Segoe UI', Roboto, Helvetica, Arial, 'PingFang SC', 'Microsoft YaHei', Ubuntu, Cantarell, 'Noto Sans', sans-serif" fill="rgba(51,51,51,1.000)" fill-opacity="1.000" text-anchor="start" font-weight="normal" dominant-baseline="middle" transform="rotate(0 528.000 73.700)">setosa</text>
<circle cx="511.000" cy="90.200" r="5.000" fill="rgba(255,127,14,1.000)" stroke="none" stroke-width="0.000" fill-opacity="1.000" stroke-opacity="1.000" />
<text x="528.000" y="94.700" font-size="12.0" font-family="Inter, -apple-system, BlinkMacSystemFont, 'Segoe UI', Roboto, Helvetica, Arial, 'PingFang SC', 'Microsoft YaHei', Ubuntu, Cantarell, 'Noto Sans', sans-serif" fill="rgba(51,51,51,1.000)" fill-opacity="1.000" text-anchor="start" font-weight="normal" dominant-baseline="middle" transform="rotate(0 528.000 94.700)">versicolor</text>
<circle cx="511.000" cy="111.200" r="5.000" fill="rgba(44,160,44,1.000)" stroke="none" stroke-width="0.000" fill-opacity="1.000" stroke-opacity="1.000" />
<text x="528.000" y="115.700" font-size="12.0" font-family="Inter, -apple-system, BlinkMacSystemFont, 'Segoe UI', Roboto, Helvetica, Arial, 'PingFang SC', 'Microsoft YaHei', Ubuntu, Cantarell, 'Noto Sans', sans-serif" fill="rgba(51,51,51,1.000)" fill-opacity="1.000" text-anchor="start" font-weight="normal" dominant-baseline="middle" transform="rotate(0 528.000 115.700)">virginica</text>
</svg>