<svg width="500" height="400" viewBox="0 0 500 400" xmlns="http://www.w3.org/2000/svg"><rect width="100%" height="100%" fill="rgba(255,255,255,1.000)" /><text x="250.00" y="8.00" text-anchor="middle" dominant-baseline="middle" font-family="Inter, -apple-system, BlinkMacSystemFont, 'Segoe UI', Roboto, Helvetica, Arial, 'PingFang SC', 'Microsoft YaHei', Ubuntu, Cantarell, 'Noto Sans', sans-serif" font-size="18" fill="rgba(51,51,51,1.000)" font-weight="bold">Electricity Generation</text>
<line x1="91.10" y1="316.00" x2="402.60" y2="316.00" stroke="rgba(51,51,51,1.000)" stroke-width="1" stroke-linecap="square"/>
<line x1="131.00" y1="316.00" x2="131.00" y2="322.00" stroke="rgba(51,51,51,1.000)" stroke-width="1.0"/>
<text x="131.00" y="325.00" font-size="13" font-family="Inter, -apple-system, BlinkMacSystemFont, 'Segoe UI', Roboto, Helvetica, Arial, 'PingFang SC', 'Microsoft YaHei', Ubuntu, Cantarell, 'Noto Sans', sans-serif" fill="rgba(51,51,51,1.000)" text-anchor="middle" dominant-baseline="hanging">2002</text>
<line x1="182.49" y1="316.00" x2="182.49" y2="322.00" stroke="rgba(51,51,51,1.000)" stroke-width="1.0"/>
<text x="182.49" y="325.00" font-size="13" font-family="Inter, -apple-system, BlinkMacSystemFont, 'Segoe UI', Roboto, Helvetica, Arial, 'PingFang SC', 'Microsoft YaHei', Ubuntu, Cantarell, 'Noto Sans', sans-serif" fill="rgba(51,51,51,1.000)" text-anchor="middle" dominant-baseline="hanging">2004</text>
<line x1="233.98" y1="316.00" x2="233.98" y2="322.00" stroke="rgba(51,51,51,1.000)" stroke-width="1.0"/>
<text x="233.98" y="325.00" font-size="13" font-family="Inter, -apple-system, BlinkMacSystemFont, 'Segoe UI', Roboto, Helvetica, Arial, 'PingFang SC', 'Microsoft YaHei', Ubuntu, Cantarell, 'Noto Sans', sans-serif" fill="rgba(51,51,51,1.000)" text-anchor="middle" dominant-baseline="hanging">2006</text>
<line x1="285.47" y1="316.00" x2="285.47" y2="322.00" stroke="rgba(51,51,51,1.000)" stroke-width="1.0"/>
<text x="285.47" y="325.00" font-size="13" font-family="Inter, -apple-system, BlinkMacSystemFont, 'Segoe UI', Roboto, Helvetica, Arial, 'PingFang SC', 'Microsoft YaHei', Ubuntu, Cantarell, 'Noto Sans', sans-serif" fill="rgba(51,51,51,1.000)" text-anchor="middle" dominant-baseline="hanging">2008</text>
<line x1="336.95" y1="316.00" x2="336.95" y2="322.00" stroke="rgba(51,51,51,1.000)" stroke-width="1.0"/>
<text x="336.95" y="325.00" font-size="13" font-family="Inter, -apple-system, BlinkMacSystemFont, 'Segoe UI', Roboto, Helvetica, Arial, 'PingFang SC', 'Microsoft YaHei', Ubuntu, Cantarell, 'Noto Sans', sans-serif" fill="rgba(51,51,51,1.000)" text-anchor="middle" dominant-baseline="hanging">2010</text>
<line x1="388.44" y1="316.00" x2="388.44" y2="322.00" stroke="rgba(51,51,51,1.000)" stroke-width="1.0"/>
<text x="388.44" y="325.00" font-size="13" font-family="Inter, -apple-system, BlinkMacSystemFont, 'Segoe UI', Roboto, Helvetica, Arial, 'PingFang SC', 'Microsoft YaHei', Ubuntu, Cantarell, 'Noto Sans', sans-serif" fill="rgba(51,51,51,1.000)" text-anchor="middle" dominant-baseline="hanging">2012</text>
<text x="246.85" y="340.00" text-anchor="middle" font-size="15" font-family="Inter, -apple-system, BlinkMacSystemFont, 'Segoe UI', Roboto, Helvetica, Arial, 'PingFang SC', 'Microsoft YaHei', Ubuntu, Cantarell, 'Noto Sans', sans-serif" fill="rgba(51,51,51,1.000)" font-weight="bold" dominant-baseline="hanging">Depth</text>
<line x1="91.10" y1="40.00" x2="91.10" y2="316.00" stroke="rgba(51,51,51,1.000)" stroke-width="1" stroke-linecap="square"/>
<line x1="91.10" y1="255.99" x2="85.10" y2="255.99" stroke="rgba(51,51,51,1.000)" stroke-width="1.0"/>
<text x="81.10" y="255.99" font-size="13" font-family="Inter, -apple-system, BlinkMacSystemFont, 'Segoe UI', Roboto, Helvetica, Arial, 'PingFang SC', 'Microsoft YaHei', Ubuntu, Cantarell, 'Noto Sans', sans-serif" fill="rgba(51,51,51,1.000)" text-anchor="end" dominant-baseline="central">-100</text>
<line x1="91.10" y1="188.17" x2="85.10" y2="188.17" stroke="rgba(51,51,51,1.000)" stroke-width="1.0"/>
<text x="81.10" y="188.17" font-size="13" font-family="Inter, -apple-system, BlinkMacSystemFont, 'Segoe UI', Roboto, Helvetica, Arial, 'PingFang SC', 'Microsoft YaHei', Ubuntu, Cantarell, 'Noto Sans', sans-serif" fill="rgba(51,51,51,1.000)" text-anchor="end" dominant-baseline="central">0</text>
<line x1="91.10" y1="120.36" x2="85.10" y2="120.36" stroke="rgba(51,51,51,1.000)" stroke-width="1.0"/>
<text x="81.10" y="120.36" font-size="13" font-family="Inter, -apple-system, BlinkMacSystemFont, 'Segoe UI', Roboto, Helvetica, Arial, 'PingFang SC', 'Microsoft YaHei', Ubuntu, Cantarell, 'Noto Sans', sans-serif" fill="rgba(51,51,51,1.000)" text-anchor="end" dominant-baseline="central">100</text>
<line x1="91.10" y1="52.55" x2="85.10" y2="52.55" stroke="rgba(51,51,51,1.000)" stroke-width="1.0"/>
<text x="81.10" y="52.55" font-size="13" font-family="Inter, -apple-system, BlinkMacSystemFont, 'Segoe UI', Roboto, Helvetica, Arial, 'PingFang SC', 'Microsoft YaHei', Ubuntu, Cantarell, 'Noto Sans', sans-serif" fill="rgba(51,51,51,1.000)" text-anchor="end" dominant-baseline="central">200</text>
<text x="47.50" y="178.00" text-anchor="middle" font-size="15" font-family="Inter, -apple-system, BlinkMacSystemFont, 'Segoe UI', Roboto, Helvetica, Arial, 'PingFang SC', 'Microsoft YaHei', Ubuntu, Cantarell, 'Noto Sans', sans-serif" fill="rgba(51,51,51,1.000)" font-weight="bold" transform="rotate(-90, 47.50, 178.00)" dominant-baseline="middle">Net Generation</text>
<defs><clipPath id="plot-clip-area"><rect x="91.100" y="40.000" width="311.500" height="276.000" /></clipPath></defs>
<line x1="91.100" y1="188.172" x2="402.600" y2="188.172" stroke="rgba(136,136,136,1.000)" stroke-width="1.000" stroke-opacity="0.500" stroke-dasharray="4.0,4.0" />
<polygon points="105.259,154.265 131.003,140.703 156.747,276.329 182.490,79.671 208.234,66.108 233.978,52.545 259.722,303.455 285.466,93.233 311.210,127.140 336.953,147.484 336.953,188.172 311.210,188.172 285.466,188.172 259.722,188.172 233.978,188.172 208.234,188.172 182.490,188.172 156.747,188.172 131.003,188.172 105.259,188.172" fill="rgba(31,119,180,1.000)" stroke="none" stroke-width="0.000" fill-opacity="0.300" stroke-opacity="0.000" clip-path="url(#plot-clip-area)" />
<path d="M 105.259 154.265 L 131.003 140.703 L 156.747 276.329 L 182.490 79.671 L 208.234 66.108 L 233.978 52.545 L 259.722 303.455 L 285.466 93.233 L 311.210 127.140 L 336.953 147.484" stroke="rgba(31,119,180,1.000)" stroke-width="1.000" stroke-opacity="1.000" fill="none" stroke-linejoin="round" stroke-linecap="round" clip-path="url(#plot-clip-area)" />
<polygon points="156.747,133.921 182.490,127.140 208.234,120.359 233.978,113.577 259.722,106.796 285.466,100.015 311.210,93.233 336.953,106.796 362.697,127.140 388.441,140.703 388.441,188.172 362.697,188.172 336.953,188.172 311.210,188.172 285.466,188.172 259.722,188.172 233.978,188.172 208.234,188.172 182.490,188.172 156.747,188.172" fill="rgba(255,127,14,1.000)" stroke="none" stroke-width="0.000" fill-opacity="0.300" stroke-opacity="0.000" clip-path="url(#plot-clip-area)" />
<path d="M 156.747 133.921 L 182.490 127.140 L 208.234 120.359 L 233.978 113.577 L 259.722 106.796 L 285.466 100.015 L 311.210 93.233 L 336.953 106.796 L 362.697 127.140 L 388.441 140.703" stroke="rgba(255,127,14,1.000)" stroke-width="1.000" stroke-opacity="1.000" fill="none" stroke-linejoin="round" stroke-linecap="round" clip-path="url(#plot-clip-area)" />
<text x="417.600" y="49.600" font-size="13.2" font-family="Inter, -apple-system, BlinkMacSystemFont, 'Segoe UI', Roboto, Helvetica, Arial, 'PingFang SC', 'Microsoft YaHei', Ubuntu, Cantarell, 'Noto Sans', sans-serif" fill="rgba(51,51,51,1.000)" fill-opacity="1.000" text-anchor="start" font-weight="bold">source</text>
<circle cx="426.600" cy="69.200" r="5.000" fill="rgba(31,119,180,1.000)" stroke="none" stroke-width="0.000" fill-opacity="1.000" stroke-opacity="1.000" />
<text x="443.600" y="73.700" font-size="12.0" font-family="Inter, -apple-system, BlinkMacSystemFont, 'Segoe UI', Roboto, Helvetica, Arial, 'PingFang SC', 'Microsoft YaHei', Ubuntu, Cantarell, 'Noto Sans', sans-serif" fill="rgba(51,51,51,1.000)" fill-opacity="1.000" text-anchor="start" font-weight="normal">Coal</text>
<circle cx="426.600" cy="90.200" r="5.000" fill="rgba(255,127,14,1.000)" stroke="none" stroke-width="0.000" fill-opacity="1.000" stroke-opacity="1.000" />
<text x="443.600" y="94.700" font-size="12.0" font-family="Inter, -apple-system, BlinkMacSystemFont, 'Segoe UI', Roboto, Helvetica, Arial, 'PingFang SC', 'Microsoft YaHei', Ubuntu, Cantarell, 'Noto Sans', sans-serif" fill="rgba(51,51,51,1.000)" fill-opacity="1.000" text-anchor="start" font-weight="normal">Nuclear</text>
</svg>