<svg width="500" height="400" viewBox="0 0 500 400" xmlns="http://www.w3.org/2000/svg"><rect width="100%" height="100%" fill="rgba(255,255,255,1.000)" /><text x="250.00" y="8.00" text-anchor="middle" dominant-baseline="middle" font-family="Inter, -apple-system, BlinkMacSystemFont, 'Segoe UI', Roboto, Helvetica, Arial, 'PingFang SC', 'Microsoft YaHei', Ubuntu, Cantarell, 'Noto Sans', sans-serif" font-size="18" fill="rgba(51,51,51,1.000)" font-weight="bold">Empirical Cumulative Distribution</text>
<line x1="83.30" y1="316.00" x2="364.80" y2="316.00" stroke="rgba(51,51,51,1.000)" stroke-width="1" stroke-linecap="square"/>
<line x1="145.86" y1="316.00" x2="145.86" y2="322.00" stroke="rgba(51,51,51,1.000)" stroke-width="1.0"/>
<text x="145.86" y="325.00" font-size="13" font-family="Inter, -apple-system, BlinkMacSystemFont, 'Segoe UI', Roboto, Helvetica, Arial, 'PingFang SC', 'Microsoft YaHei', Ubuntu, Cantarell, 'Noto Sans', sans-serif" fill="rgba(51,51,51,1.000)" text-anchor="middle" dominant-baseline="hanging">5</text>
<line x1="216.94" y1="316.00" x2="216.94" y2="322.00" stroke="rgba(51,51,51,1.000)" stroke-width="1.0"/>
<text x="216.94" y="325.00" font-size="13" font-family="Inter, -apple-system, BlinkMacSystemFont, 'Segoe UI', Roboto, Helvetica, Arial, 'PingFang SC', 'Microsoft YaHei', Ubuntu, Cantarell, 'Noto Sans', sans-serif" fill="rgba(51,51,51,1.000)" text-anchor="middle" dominant-baseline="hanging">6</text>
<line x1="288.03" y1="316.00" x2="288.03" y2="322.00" stroke="rgba(51,51,51,1.000)" stroke-width="1.0"/>
<text x="288.03" y="325.00" font-size="13" font-family="Inter, -apple-system, BlinkMacSystemFont, 'Segoe UI', Roboto, Helvetica, Arial, 'PingFang SC', 'Microsoft YaHei', Ubuntu, Cantarell, 'Noto Sans', sans-serif" fill="rgba(51,51,51,1.000)" text-anchor="middle" dominant-baseline="hanging">7</text>
<line x1="359.11" y1="316.00" x2="359.11" y2="322.00" stroke="rgba(51,51,51,1.000)" stroke-width="1.0"/>
<text x="359.11" y="325.00" font-size="13" font-family="Inter, -apple-system, BlinkMacSystemFont, 'Segoe UI', Roboto, Helvetica, Arial, 'PingFang SC', 'Microsoft YaHei', Ubuntu, Cantarell, 'Noto Sans', sans-serif" fill="rgba(51,51,51,1.000)" text-anchor="middle" dominant-baseline="hanging">8</text>
<text x="224.05" y="340.00" text-anchor="middle" font-size="15" font-family="Inter, -apple-system, BlinkMacSystemFont, 'Segoe UI', Roboto, Helvetica, Arial, 'PingFang SC', 'Microsoft YaHei', Ubuntu, Cantarell, 'Noto Sans', sans-serif" fill="rgba(51,51,51,1.000)" font-weight="bold" dominant-baseline="hanging">sepal_length</text>
<line x1="83.30" y1="40.00" x2="83.30" y2="316.00" stroke="rgba(51,51,51,1.000)" stroke-width="1" stroke-linecap="square"/>
<line x1="83.30" y1="308.58" x2="77.30" y2="308.58" stroke="rgba(51,51,51,1.000)" stroke-width="1.0"/>
<text x="73.30" y="308.58" font-size="13" font-family="Inter, -apple-system, BlinkMacSystemFont, 'Segoe UI', Roboto, Helvetica, Arial, 'PingFang SC', 'Microsoft YaHei', Ubuntu, Cantarell, 'Noto Sans', sans-serif" fill="rgba(51,51,51,1.000)" text-anchor="end" dominant-baseline="central">0</text>
<line x1="83.30" y1="257.37" x2="77.30" y2="257.37" stroke="rgba(51,51,51,1.000)" stroke-width="1.0"/>
<text x="73.30" y="257.37" font-size="13" font-family="Inter, -apple-system, BlinkMacSystemFont, 'Segoe UI', Roboto, Helvetica, Arial, 'PingFang SC', 'Microsoft YaHei', Ubuntu, Cantarell, 'Noto Sans', sans-serif" fill="rgba(51,51,51,1.000)" text-anchor="end" dominant-baseline="central">10</text>
<line x1="83.30" y1="206.16" x2="77.30" y2="206.16" stroke="rgba(51,51,51,1.000)" stroke-width="1.0"/>
<text x="73.30" y="206.16" font-size="13" font-family="Inter, -apple-system, BlinkMacSystemFont, 'Segoe UI', Roboto, Helvetica, Arial, 'PingFang SC', 'Microsoft YaHei', Ubuntu, Cantarell, 'Noto Sans', sans-serif" fill="rgba(51,51,51,1.000)" text-anchor="end" dominant-baseline="central">20</text>
<line x1="83.30" y1="154.96" x2="77.30" y2="154.96" stroke="rgba(51,51,51,1.000)" stroke-width="1.0"/>
<text x="73.30" y="154.96" font-size="13" font-family="Inter, -apple-system, BlinkMacSystemFont, 'Segoe UI', Roboto, Helvetica, Arial, 'PingFang SC', 'Microsoft YaHei', Ubuntu, Cantarell, 'Noto Sans', sans-serif" fill="rgba(51,51,51,1.000)" text-anchor="end" dominant-baseline="central">30</text>
<line x1="83.30" y1="103.75" x2="77.30" y2="103.75" stroke="rgba(51,51,51,1.000)" stroke-width="1.0"/>
<text x="73.30" y="103.75" font-size="13" font-family="Inter, -apple-system, BlinkMacSystemFont, 'Segoe UI', Roboto, Helvetica, Arial, 'PingFang SC', 'Microsoft YaHei', Ubuntu, Cantarell, 'Noto Sans', sans-serif" fill="rgba(51,51,51,1.000)" text-anchor="end" dominant-baseline="central">40</text>
<line x1="83.30" y1="52.55" x2="77.30" y2="52.55" stroke="rgba(51,51,51,1.000)" stroke-width="1.0"/>
<text x="73.30" y="52.55" font-size="13" font-family="Inter, -apple-system, BlinkMacSystemFont, 'Segoe UI', Roboto, Helvetica, Arial, 'PingFang SC', 'Microsoft YaHei', Ubuntu, Cantarell, 'Noto Sans', sans-serif" fill="rgba(51,51,51,1.000)" text-anchor="end" dominant-baseline="central">50</text>
<text x="47.50" y="178.00" text-anchor="middle" font-size="15" font-family="Inter, -apple-system, BlinkMacSystemFont, 'Segoe UI', Roboto, Helvetica, Arial, 'PingFang SC', 'Microsoft YaHei', Ubuntu, Cantarell, 'Noto Sans', sans-serif" fill="rgba(51,51,51,1.000)" font-weight="bold" transform="rotate(-90, 47.50, 178.00)" dominant-baseline="middle">ecdf</text>
<defs><clipPath id="plot-clip-area"><rect x="83.300" y="40.000" width="281.500" height="276.000" /></clipPath></defs>
<path d="M 138.747 303.455 L 188.507 303.455 L 188.507 298.334 L 195.616 298.334 L 195.616 293.213 L 202.724 293.213 L 202.724 277.852 L 209.833 277.852 L 209.833 272.731 L 216.941 272.731 L 216.941 262.490 L 224.050 262.490 L 224.050 252.249 L 231.159 252.249 L 231.159 242.007 L 238.267 242.007 L 238.267 211.284 L 245.376 211.284 L 245.376 185.681 L 252.484 185.681 L 252.484 165.199 L 266.702 165.199 L 266.702 139.596 L 273.810 139.596 L 273.810 129.354 L 280.919 129.354 L 280.919 113.993 L 295.136 113.993 L 295.136 108.872 L 302.244 108.872 L 302.244 93.510 L 309.353 93.510 L 309.353 88.390 L 316.462 88.390 L 316.462 83.269 L 330.679 83.269 L 330.679 78.148 L 337.787 78.148 L 337.787 57.666 L 352.005 57.666 L 352.005 52.545" stroke="rgba(44,160,44,1.000)" stroke-width="2.000" stroke-opacity="1.000" fill="none" stroke-linejoin="round" stroke-linecap="round" clip-path="url(#plot-clip-area)" />
<path d="M 96.095 303.455 L 103.204 303.455 L 103.204 288.093 L 110.313 288.093 L 110.313 282.972 L 117.421 282.972 L 117.421 262.490 L 124.530 262.490 L 124.530 252.249 L 131.638 252.249 L 131.638 226.646 L 138.747 226.646 L 138.747 206.163 L 145.856 206.163 L 145.856 165.199 L 152.964 165.199 L 152.964 124.234 L 160.073 124.234 L 160.073 108.872 L 167.181 108.872 L 167.181 103.751 L 174.290 103.751 L 174.290 78.148 L 181.398 78.148 L 181.398 67.907 L 195.616 67.907 L 195.616 57.666 L 202.724 57.666 L 202.724 52.545" stroke="rgba(31,119,180,1.000)" stroke-width="2.000" stroke-opacity="1.000" fill="none" stroke-linejoin="round" stroke-linecap="round" clip-path="url(#plot-clip-area)" />
<path d="M 138.747 303.455 L 145.856 303.455 L 145.856 293.213 L 152.964 293.213 L 152.964 288.093 L 160.073 288.093 L 160.073 282.972 L 174.290 282.972 L 174.290 277.852 L 181.398 277.852 L 181.398 252.249 L 188.507 252.249 L 188.507 226.646 L 195.616 226.646 L 195.616 201.043 L 202.724 201.043 L 202.724 185.681 L 209.833 185.681 L 209.833 175.440 L 216.941 175.440 L 216.941 154.957 L 224.050 154.957 L 224.050 134.475 L 231.159 134.475 L 231.159 124.234 L 238.267 124.234 L 238.267 108.872 L 245.376 108.872 L 245.376 98.631 L 252.484 98.631 L 252.484 93.510 L 259.593 93.510 L 259.593 83.269 L 266.702 83.269 L 266.702 67.907 L 273.810 67.907 L 273.810 62.787 L 280.919 62.787 L 280.919 57.666 L 288.027 57.666 L 288.027 52.545" stroke="rgba(255,127,14,1.000)" stroke-width="2.000" stroke-opacity="1.000" fill="none" stroke-linejoin="round" stroke-linecap="round" clip-path="url(#plot-clip-area)" />
<text x="379.800" y="49.600" font-size="13.2" font-family="Inter, -apple-system, BlinkMacSystemFont, 'Segoe UI', Roboto, Helvetica, Arial, 'PingFang SC', 'Microsoft YaHei', Ubuntu, Cantarell, 'Noto Sans', sans-serif" fill="rgba(51,51,51,1.000)" fill-opacity="1.000" text-anchor="start" font-weight="bold">species</text>
<circle cx="388.800" cy="69.200" r="5.000" fill="rgba(31,119,180,1.000)" stroke="none" stroke-width="0.000" fill-opacity="1.000" stroke-opacity="1.000" />
<text x="405.800" y="73.700" font-size="12.0" font-family="Inter, -apple-system, BlinkMacSystemFont, 'Segoe UI', Roboto, Helvetica, Arial, 'PingFang SC', 'Microsoft YaHei', Ubuntu, Cantarell, 'Noto Sans', sans-serif" fill="rgba(51,51,51,1.000)" fill-opacity="1.000" text-anchor="start" font-weight="normal">Iris-setosa</text>
<circle cx="388.800" cy="90.200" r="5.000" fill="rgba(255,127,14,1.000)" stroke="none" stroke-width="0.000" fill-opacity="1.000" stroke-opacity="1.000" />
<text x="405.800" y="94.700" font-size="12.0" font-family="Inter, -apple-system, BlinkMacSystemFont, 'Segoe UI', Roboto, Helvetica, Arial, 'PingFang SC', 'Microsoft YaHei', Ubuntu, Cantarell, 'Noto Sans', sans-serif" fill="rgba(51,51,51,1.000)" fill-opacity="1.000" text-anchor="start" font-weight="normal">Iris-versicolor</text>
<circle cx="388.800" cy="111.200" r="5.000" fill="rgba(44,160,44,1.000)" stroke="none" stroke-width="0.000" fill-opacity="1.000" stroke-opacity="1.000" />
<text x="405.800" y="115.700" font-size="12.0" font-family="Inter, -apple-system, BlinkMacSystemFont, 'Segoe UI', Roboto, Helvetica, Arial, 'PingFang SC', 'Microsoft YaHei', Ubuntu, Cantarell, 'Noto Sans', sans-serif" fill="rgba(51,51,51,1.000)" fill-opacity="1.000" text-anchor="start" font-weight="normal">Iris-virginica</text>
</svg>