<svg width="500" height="400" viewBox="0 0 500 400" xmlns="http://www.w3.org/2000/svg"><rect width="100%" height="100%" fill="rgba(255,255,255,1.000)" /><text x="250.00" y="8.00" text-anchor="middle" dominant-baseline="middle" font-family="Inter, -apple-system, BlinkMacSystemFont, 'Segoe UI', Roboto, Helvetica, Arial, 'PingFang SC', 'Microsoft YaHei', Ubuntu, Cantarell, 'Noto Sans', sans-serif" font-size="18" fill="rgba(51,51,51,1.000)" font-weight="bold">Empirical Cumulative Distribution</text>
<line x1="87.20" y1="316.00" x2="485.00" y2="316.00" stroke="rgba(51,51,51,1.000)" stroke-width="1" stroke-linecap="square"/>
<line x1="125.37" y1="316.00" x2="125.37" y2="322.00" stroke="rgba(51,51,51,1.000)" stroke-width="1.0"/>
<text x="125.37" y="325.00" font-size="13" font-family="Inter, -apple-system, BlinkMacSystemFont, 'Segoe UI', Roboto, Helvetica, Arial, 'PingFang SC', 'Microsoft YaHei', Ubuntu, Cantarell, 'Noto Sans', sans-serif" fill="rgba(51,51,51,1.000)" text-anchor="middle" dominant-baseline="hanging">4.5</text>
<line x1="175.60" y1="316.00" x2="175.60" y2="322.00" stroke="rgba(51,51,51,1.000)" stroke-width="1.0"/>
<text x="175.60" y="325.00" font-size="13" font-family="Inter, -apple-system, BlinkMacSystemFont, 'Segoe UI', Roboto, Helvetica, Arial, 'PingFang SC', 'Microsoft YaHei', Ubuntu, Cantarell, 'Noto Sans', sans-serif" fill="rgba(51,51,51,1.000)" text-anchor="middle" dominant-baseline="hanging">5.0</text>
<line x1="225.83" y1="316.00" x2="225.83" y2="322.00" stroke="rgba(51,51,51,1.000)" stroke-width="1.0"/>
<text x="225.83" y="325.00" font-size="13" font-family="Inter, -apple-system, BlinkMacSystemFont, 'Segoe UI', Roboto, Helvetica, Arial, 'PingFang SC', 'Microsoft YaHei', Ubuntu, Cantarell, 'Noto Sans', sans-serif" fill="rgba(51,51,51,1.000)" text-anchor="middle" dominant-baseline="hanging">5.5</text>
<line x1="276.05" y1="316.00" x2="276.05" y2="322.00" stroke="rgba(51,51,51,1.000)" stroke-width="1.0"/>
<text x="276.05" y="325.00" font-size="13" font-family="Inter, -apple-system, BlinkMacSystemFont, 'Segoe UI', Roboto, Helvetica, Arial, 'PingFang SC', 'Microsoft YaHei', Ubuntu, Cantarell, 'Noto Sans', sans-serif" fill="rgba(51,51,51,1.000)" text-anchor="middle" dominant-baseline="hanging">6.0</text>
<line x1="326.28" y1="316.00" x2="326.28" y2="322.00" stroke="rgba(51,51,51,1.000)" stroke-width="1.0"/>
<text x="326.28" y="325.00" font-size="13" font-family="Inter, -apple-system, BlinkMacSystemFont, 'Segoe UI', Roboto, Helvetica, Arial, 'PingFang SC', 'Microsoft YaHei', Ubuntu, Cantarell, 'Noto Sans', sans-serif" fill="rgba(51,51,51,1.000)" text-anchor="middle" dominant-baseline="hanging">6.5</text>
<line x1="376.51" y1="316.00" x2="376.51" y2="322.00" stroke="rgba(51,51,51,1.000)" stroke-width="1.0"/>
<text x="376.51" y="325.00" font-size="13" font-family="Inter, -apple-system, BlinkMacSystemFont, 'Segoe UI', Roboto, Helvetica, Arial, 'PingFang SC', 'Microsoft YaHei', Ubuntu, Cantarell, 'Noto Sans', sans-serif" fill="rgba(51,51,51,1.000)" text-anchor="middle" dominant-baseline="hanging">7.0</text>
<line x1="426.74" y1="316.00" x2="426.74" y2="322.00" stroke="rgba(51,51,51,1.000)" stroke-width="1.0"/>
<text x="426.74" y="325.00" font-size="13" font-family="Inter, -apple-system, BlinkMacSystemFont, 'Segoe UI', Roboto, Helvetica, Arial, 'PingFang SC', 'Microsoft YaHei', Ubuntu, Cantarell, 'Noto Sans', sans-serif" fill="rgba(51,51,51,1.000)" text-anchor="middle" dominant-baseline="hanging">7.5</text>
<line x1="476.96" y1="316.00" x2="476.96" y2="322.00" stroke="rgba(51,51,51,1.000)" stroke-width="1.0"/>
<text x="476.96" y="325.00" font-size="13" font-family="Inter, -apple-system, BlinkMacSystemFont, 'Segoe UI', Roboto, Helvetica, Arial, 'PingFang SC', 'Microsoft YaHei', Ubuntu, Cantarell, 'Noto Sans', sans-serif" fill="rgba(51,51,51,1.000)" text-anchor="middle" dominant-baseline="hanging">8.0</text>
<text x="286.10" y="340.00" text-anchor="middle" font-size="15" font-family="Inter, -apple-system, BlinkMacSystemFont, 'Segoe UI', Roboto, Helvetica, Arial, 'PingFang SC', 'Microsoft YaHei', Ubuntu, Cantarell, 'Noto Sans', sans-serif" fill="rgba(51,51,51,1.000)" font-weight="bold" dominant-baseline="hanging">sepal_length</text>
<line x1="87.20" y1="40.00" x2="87.20" y2="316.00" stroke="rgba(51,51,51,1.000)" stroke-width="1" stroke-linecap="square"/>
<line x1="87.20" y1="303.45" x2="81.20" y2="303.45" stroke="rgba(51,51,51,1.000)" stroke-width="1.0"/>
<text x="77.20" y="303.45" font-size="13" font-family="Inter, -apple-system, BlinkMacSystemFont, 'Segoe UI', Roboto, Helvetica, Arial, 'PingFang SC', 'Microsoft YaHei', Ubuntu, Cantarell, 'Noto Sans', sans-serif" fill="rgba(51,51,51,1.000)" text-anchor="end" dominant-baseline="central">0</text>
<line x1="87.20" y1="219.82" x2="81.20" y2="219.82" stroke="rgba(51,51,51,1.000)" stroke-width="1.0"/>
<text x="77.20" y="219.82" font-size="13" font-family="Inter, -apple-system, BlinkMacSystemFont, 'Segoe UI', Roboto, Helvetica, Arial, 'PingFang SC', 'Microsoft YaHei', Ubuntu, Cantarell, 'Noto Sans', sans-serif" fill="rgba(51,51,51,1.000)" text-anchor="end" dominant-baseline="central">50</text>
<line x1="87.20" y1="136.18" x2="81.20" y2="136.18" stroke="rgba(51,51,51,1.000)" stroke-width="1.0"/>
<text x="77.20" y="136.18" font-size="13" font-family="Inter, -apple-system, BlinkMacSystemFont, 'Segoe UI', Roboto, Helvetica, Arial, 'PingFang SC', 'Microsoft YaHei', Ubuntu, Cantarell, 'Noto Sans', sans-serif" fill="rgba(51,51,51,1.000)" text-anchor="end" dominant-baseline="central">100</text>
<line x1="87.20" y1="52.55" x2="81.20" y2="52.55" stroke="rgba(51,51,51,1.000)" stroke-width="1.0"/>
<text x="77.20" y="52.55" font-size="13" font-family="Inter, -apple-system, BlinkMacSystemFont, 'Segoe UI', Roboto, Helvetica, Arial, 'PingFang SC', 'Microsoft YaHei', Ubuntu, Cantarell, 'Noto Sans', sans-serif" fill="rgba(51,51,51,1.000)" text-anchor="end" dominant-baseline="central">150</text>
<text x="47.50" y="178.00" text-anchor="middle" font-size="15" font-family="Inter, -apple-system, BlinkMacSystemFont, 'Segoe UI', Roboto, Helvetica, Arial, 'PingFang SC', 'Microsoft YaHei', Ubuntu, Cantarell, 'Noto Sans', sans-serif" fill="rgba(51,51,51,1.000)" font-weight="bold" transform="rotate(-90, 47.50, 178.00)" dominant-baseline="middle">ecdf</text>
<defs><clipPath id="plot-clip-area"><rect x="87.200" y="40.000" width="397.800" height="276.000" /></clipPath></defs>
<path d="M 105.282 303.455 L 105.282 303.455 L 105.282 301.782 L 115.327 301.782 L 115.327 296.764 L 125.373 296.764 L 125.373 295.091 L 135.418 295.091 L 135.418 288.400 L 145.464 288.400 L 145.464 285.055 L 155.509 285.055 L 155.509 276.691 L 165.555 276.691 L 165.555 266.655 L 175.600 266.655 L 175.600 249.927 L 185.645 249.927 L 185.645 234.873 L 195.691 234.873 L 195.691 228.182 L 205.736 228.182 L 205.736 226.509 L 215.782 226.509 L 215.782 216.473 L 225.827 216.473 L 225.827 204.764 L 235.873 204.764 L 235.873 194.727 L 245.918 194.727 L 245.918 181.345 L 255.964 181.345 L 255.964 169.636 L 266.009 169.636 L 266.009 164.618 L 276.055 164.618 L 276.055 154.582 L 286.100 154.582 L 286.100 144.545 L 296.145 144.545 L 296.145 137.855 L 306.191 137.855 L 306.191 122.800 L 316.236 122.800 L 316.236 111.091 L 326.282 111.091 L 326.282 102.727 L 336.327 102.727 L 336.327 99.382 L 346.373 99.382 L 346.373 86.000 L 356.418 86.000 L 356.418 80.982 L 366.464 80.982 L 366.464 74.291 L 376.509 74.291 L 376.509 72.618 L 386.555 72.618 L 386.555 70.945 L 396.600 70.945 L 396.600 65.927 L 406.645 65.927 L 406.645 64.255 L 416.691 64.255 L 416.691 62.582 L 436.782 62.582 L 436.782 60.909 L 446.827 60.909 L 446.827 54.218 L 466.918 54.218 L 466.918 52.545" stroke="rgba(0,0,0,1.000)" stroke-width="2.000" stroke-opacity="1.000" fill="none" stroke-linejoin="round" stroke-linecap="round" clip-path="url(#plot-clip-area)" />
</svg>