<svg width="500" height="400" viewBox="0 0 500 400" xmlns="http://www.w3.org/2000/svg"><rect width="100%" height="100%" fill="rgba(255,255,255,1.000)" /><text x="250.00" y="8.00" text-anchor="middle" dominant-baseline="middle" font-family="Inter, -apple-system, BlinkMacSystemFont, 'Segoe UI', Roboto, Helvetica, Arial, 'PingFang SC', 'Microsoft YaHei', Ubuntu, Cantarell, 'Noto Sans', sans-serif" font-size="18" fill="rgba(51,51,51,1.000)" font-weight="bold">Empirical Cumulative Distribution</text>
<line x1="83.30" y1="316.00" x2="364.80" y2="316.00" stroke="rgba(51,51,51,1.000)" stroke-width="1" stroke-linecap="square"/>
<line x1="145.86" y1="316.00" x2="145.86" y2="322.00" stroke="rgba(51,51,51,1.000)" stroke-width="1.0"/>
<text x="145.86" y="325.00" font-size="13" font-family="Inter, -apple-system, BlinkMacSystemFont, 'Segoe UI', Roboto, Helvetica, Arial, 'PingFang SC', 'Microsoft YaHei', Ubuntu, Cantarell, 'Noto Sans', sans-serif" fill="rgba(51,51,51,1.000)" text-anchor="middle" dominant-baseline="hanging">5</text>
<line x1="216.94" y1="316.00" x2="216.94" y2="322.00" stroke="rgba(51,51,51,1.000)" stroke-width="1.0"/>
<text x="216.94" y="325.00" font-size="13" font-family="Inter, -apple-system, BlinkMacSystemFont, 'Segoe UI', Roboto, Helvetica, Arial, 'PingFang SC', 'Microsoft YaHei', Ubuntu, Cantarell, 'Noto Sans', sans-serif" fill="rgba(51,51,51,1.000)" text-anchor="middle" dominant-baseline="hanging">6</text>
<line x1="288.03" y1="316.00" x2="288.03" y2="322.00" stroke="rgba(51,51,51,1.000)" stroke-width="1.0"/>
<text x="288.03" y="325.00" font-size="13" font-family="Inter, -apple-system, BlinkMacSystemFont, 'Segoe UI', Roboto, Helvetica, Arial, 'PingFang SC', 'Microsoft YaHei', Ubuntu, Cantarell, 'Noto Sans', sans-serif" fill="rgba(51,51,51,1.000)" text-anchor="middle" dominant-baseline="hanging">7</text>
<line x1="359.11" y1="316.00" x2="359.11" y2="322.00" stroke="rgba(51,51,51,1.000)" stroke-width="1.0"/>
<text x="359.11" y="325.00" font-size="13" font-family="Inter, -apple-system, BlinkMacSystemFont, 'Segoe UI', Roboto, Helvetica, Arial, 'PingFang SC', 'Microsoft YaHei', Ubuntu, Cantarell, 'Noto Sans', sans-serif" fill="rgba(51,51,51,1.000)" text-anchor="middle" dominant-baseline="hanging">8</text>
<text x="224.05" y="340.00" text-anchor="middle" font-size="15" font-family="Inter, -apple-system, BlinkMacSystemFont, 'Segoe UI', Roboto, Helvetica, Arial, 'PingFang SC', 'Microsoft YaHei', Ubuntu, Cantarell, 'Noto Sans', sans-serif" fill="rgba(51,51,51,1.000)" font-weight="bold" dominant-baseline="hanging">sepal_length</text>
<line x1="83.30" y1="40.00" x2="83.30" y2="316.00" stroke="rgba(51,51,51,1.000)" stroke-width="1" stroke-linecap="square"/>
<line x1="83.30" y1="303.45" x2="77.30" y2="303.45" stroke="rgba(51,51,51,1.000)" stroke-width="1.0"/>
<text x="73.30" y="303.45" font-size="13" font-family="Inter, -apple-system, BlinkMacSystemFont, 'Segoe UI', Roboto, Helvetica, Arial, 'PingFang SC', 'Microsoft YaHei', Ubuntu, Cantarell, 'Noto Sans', sans-serif" fill="rgba(51,51,51,1.000)" text-anchor="end" dominant-baseline="central">0</text>
<line x1="83.30" y1="253.27" x2="77.30" y2="253.27" stroke="rgba(51,51,51,1.000)" stroke-width="1.0"/>
<text x="73.30" y="253.27" font-size="13" font-family="Inter, -apple-system, BlinkMacSystemFont, 'Segoe UI', Roboto, Helvetica, Arial, 'PingFang SC', 'Microsoft YaHei', Ubuntu, Cantarell, 'Noto Sans', sans-serif" fill="rgba(51,51,51,1.000)" text-anchor="end" dominant-baseline="central">10</text>
<line x1="83.30" y1="203.09" x2="77.30" y2="203.09" stroke="rgba(51,51,51,1.000)" stroke-width="1.0"/>
<text x="73.30" y="203.09" font-size="13" font-family="Inter, -apple-system, BlinkMacSystemFont, 'Segoe UI', Roboto, Helvetica, Arial, 'PingFang SC', 'Microsoft YaHei', Ubuntu, Cantarell, 'Noto Sans', sans-serif" fill="rgba(51,51,51,1.000)" text-anchor="end" dominant-baseline="central">20</text>
<line x1="83.30" y1="152.91" x2="77.30" y2="152.91" stroke="rgba(51,51,51,1.000)" stroke-width="1.0"/>
<text x="73.30" y="152.91" font-size="13" font-family="Inter, -apple-system, BlinkMacSystemFont, 'Segoe UI', Roboto, Helvetica, Arial, 'PingFang SC', 'Microsoft YaHei', Ubuntu, Cantarell, 'Noto Sans', sans-serif" fill="rgba(51,51,51,1.000)" text-anchor="end" dominant-baseline="central">30</text>
<line x1="83.30" y1="102.73" x2="77.30" y2="102.73" stroke="rgba(51,51,51,1.000)" stroke-width="1.0"/>
<text x="73.30" y="102.73" font-size="13" font-family="Inter, -apple-system, BlinkMacSystemFont, 'Segoe UI', Roboto, Helvetica, Arial, 'PingFang SC', 'Microsoft YaHei', Ubuntu, Cantarell, 'Noto Sans', sans-serif" fill="rgba(51,51,51,1.000)" text-anchor="end" dominant-baseline="central">40</text>
<line x1="83.30" y1="52.55" x2="77.30" y2="52.55" stroke="rgba(51,51,51,1.000)" stroke-width="1.0"/>
<text x="73.30" y="52.55" font-size="13" font-family="Inter, -apple-system, BlinkMacSystemFont, 'Segoe UI', Roboto, Helvetica, Arial, 'PingFang SC', 'Microsoft YaHei', Ubuntu, Cantarell, 'Noto Sans', sans-serif" fill="rgba(51,51,51,1.000)" text-anchor="end" dominant-baseline="central">50</text>
<text x="47.50" y="178.00" text-anchor="middle" font-size="15" font-family="Inter, -apple-system, BlinkMacSystemFont, 'Segoe UI', Roboto, Helvetica, Arial, 'PingFang SC', 'Microsoft YaHei', Ubuntu, Cantarell, 'Noto Sans', sans-serif" fill="rgba(51,51,51,1.000)" font-weight="bold" transform="rotate(-90, 47.50, 178.00)" dominant-baseline="middle">ecdf</text>
<defs><clipPath id="plot-clip-area"><rect x="83.300" y="40.000" width="281.500" height="276.000" /></clipPath></defs>
<path d="M 96.095 303.455 L 96.095 303.455 L 96.095 298.436 L 103.204 298.436 L 103.204 283.382 L 110.313 283.382 L 110.313 278.364 L 117.421 278.364 L 117.421 258.291 L 124.530 258.291 L 124.530 248.255 L 131.638 248.255 L 131.638 223.164 L 138.747 223.164 L 138.747 203.091 L 145.856 203.091 L 145.856 162.945 L 152.964 162.945 L 152.964 122.800 L 160.073 122.800 L 160.073 107.745 L 167.181 107.745 L 167.181 102.727 L 174.290 102.727 L 174.290 77.636 L 181.398 77.636 L 181.398 67.600 L 195.616 67.600 L 195.616 57.564 L 202.724 57.564 L 202.724 52.545 L 352.005 52.545 L 352.005 52.545" stroke="rgba(31,119,180,1.000)" stroke-width="2.000" stroke-opacity="1.000" fill="none" stroke-linejoin="round" stroke-linecap="round" clip-path="url(#plot-clip-area)" />
<path d="M 96.095 303.455 L 138.747 303.455 L 138.747 298.436 L 145.856 298.436 L 145.856 288.400 L 152.964 288.400 L 152.964 283.382 L 160.073 283.382 L 160.073 278.364 L 174.290 278.364 L 174.290 273.345 L 181.398 273.345 L 181.398 248.255 L 188.507 248.255 L 188.507 223.164 L 195.616 223.164 L 195.616 198.073 L 202.724 198.073 L 202.724 183.018 L 209.833 183.018 L 209.833 172.982 L 216.941 172.982 L 216.941 152.909 L 224.050 152.909 L 224.050 132.836 L 231.159 132.836 L 231.159 122.800 L 238.267 122.800 L 238.267 107.745 L 245.376 107.745 L 245.376 97.709 L 252.484 97.709 L 252.484 92.691 L 259.593 92.691 L 259.593 82.655 L 266.702 82.655 L 266.702 67.600 L 273.810 67.600 L 273.810 62.582 L 280.919 62.582 L 280.919 57.564 L 288.027 57.564 L 288.027 52.545 L 352.005 52.545 L 352.005 52.545" stroke="rgba(255,127,14,1.000)" stroke-width="2.000" stroke-opacity="1.000" fill="none" stroke-linejoin="round" stroke-linecap="round" clip-path="url(#plot-clip-area)" />
<path d="M 96.095 303.455 L 138.747 303.455 L 138.747 298.436 L 188.507 298.436 L 188.507 293.418 L 195.616 293.418 L 195.616 288.400 L 202.724 288.400 L 202.724 273.345 L 209.833 273.345 L 209.833 268.327 L 216.941 268.327 L 216.941 258.291 L 224.050 258.291 L 224.050 248.255 L 231.159 248.255 L 231.159 238.218 L 238.267 238.218 L 238.267 208.109 L 245.376 208.109 L 245.376 183.018 L 252.484 183.018 L 252.484 162.945 L 266.702 162.945 L 266.702 137.855 L 273.810 137.855 L 273.810 127.818 L 280.919 127.818 L 280.919 112.764 L 295.136 112.764 L 295.136 107.745 L 302.244 107.745 L 302.244 92.691 L 309.353 92.691 L 309.353 87.673 L 316.462 87.673 L 316.462 82.655 L 330.679 82.655 L 330.679 77.636 L 337.787 77.636 L 337.787 57.564 L 352.005 57.564 L 352.005 52.545" stroke="rgba(44,160,44,1.000)" stroke-width="2.000" stroke-opacity="1.000" fill="none" stroke-linejoin="round" stroke-linecap="round" clip-path="url(#plot-clip-area)" />
<text x="379.800" y="49.600" font-size="13.2" font-family="Inter, -apple-system, BlinkMacSystemFont, 'Segoe UI', Roboto, Helvetica, Arial, 'PingFang SC', 'Microsoft YaHei', Ubuntu, Cantarell, 'Noto Sans', sans-serif" fill="rgba(51,51,51,1.000)" fill-opacity="1.000" text-anchor="start" font-weight="bold">species</text>
<circle cx="388.800" cy="69.200" r="5.000" fill="rgba(31,119,180,1.000)" stroke="none" stroke-width="0.000" fill-opacity="1.000" stroke-opacity="1.000" />
<text x="405.800" y="73.700" font-size="12.0" font-family="Inter, -apple-system, BlinkMacSystemFont, 'Segoe UI', Roboto, Helvetica, Arial, 'PingFang SC', 'Microsoft YaHei', Ubuntu, Cantarell, 'Noto Sans', sans-serif" fill="rgba(51,51,51,1.000)" fill-opacity="1.000" text-anchor="start" font-weight="normal">Iris-setosa</text>
<circle cx="388.800" cy="90.200" r="5.000" fill="rgba(255,127,14,1.000)" stroke="none" stroke-width="0.000" fill-opacity="1.000" stroke-opacity="1.000" />
<text x="405.800" y="94.700" font-size="12.0" font-family="Inter, -apple-system, BlinkMacSystemFont, 'Segoe UI', Roboto, Helvetica, Arial, 'PingFang SC', 'Microsoft YaHei', Ubuntu, Cantarell, 'Noto Sans', sans-serif" fill="rgba(51,51,51,1.000)" fill-opacity="1.000" text-anchor="start" font-weight="normal">Iris-versicolor</text>
<circle cx="388.800" cy="111.200" r="5.000" fill="rgba(44,160,44,1.000)" stroke="none" stroke-width="0.000" fill-opacity="1.000" stroke-opacity="1.000" />
<text x="405.800" y="115.700" font-size="12.0" font-family="Inter, -apple-system, BlinkMacSystemFont, 'Segoe UI', Roboto, Helvetica, Arial, 'PingFang SC', 'Microsoft YaHei', Ubuntu, Cantarell, 'Noto Sans', sans-serif" fill="rgba(51,51,51,1.000)" fill-opacity="1.000" text-anchor="start" font-weight="normal">Iris-virginica</text>
</svg>