<svg width="500" height="400" viewBox="0 0 500 400" xmlns="http://www.w3.org/2000/svg"><rect width="100%" height="100%" fill="rgba(255,255,255,1.000)" /><line x1="87.20" y1="316.00" x2="390.00" y2="316.00" stroke="rgba(51,51,51,1.000)" stroke-width="1" stroke-linecap="square"/>
<line x1="90.40" y1="316.00" x2="90.40" y2="322.00" stroke="rgba(51,51,51,1.000)" stroke-width="1.0"/>
<text x="90.40" y="325.00" font-size="13" font-family="Inter, -apple-system, BlinkMacSystemFont, 'Segoe UI', Roboto, Helvetica, Arial, 'PingFang SC', 'Microsoft YaHei', Ubuntu, Cantarell, 'Noto Sans', sans-serif" fill="rgba(51,51,51,1.000)" text-anchor="middle" dominant-baseline="hanging">3</text>
<line x1="138.43" y1="316.00" x2="138.43" y2="322.00" stroke="rgba(51,51,51,1.000)" stroke-width="1.0"/>
<text x="138.43" y="325.00" font-size="13" font-family="Inter, -apple-system, BlinkMacSystemFont, 'Segoe UI', Roboto, Helvetica, Arial, 'PingFang SC', 'Microsoft YaHei', Ubuntu, Cantarell, 'Noto Sans', sans-serif" fill="rgba(51,51,51,1.000)" text-anchor="middle" dominant-baseline="hanging">4</text>
<line x1="186.46" y1="316.00" x2="186.46" y2="322.00" stroke="rgba(51,51,51,1.000)" stroke-width="1.0"/>
<text x="186.46" y="325.00" font-size="13" font-family="Inter, -apple-system, BlinkMacSystemFont, 'Segoe UI', Roboto, Helvetica, Arial, 'PingFang SC', 'Microsoft YaHei', Ubuntu, Cantarell, 'Noto Sans', sans-serif" fill="rgba(51,51,51,1.000)" text-anchor="middle" dominant-baseline="hanging">5</text>
<line x1="234.49" y1="316.00" x2="234.49" y2="322.00" stroke="rgba(51,51,51,1.000)" stroke-width="1.0"/>
<text x="234.49" y="325.00" font-size="13" font-family="Inter, -apple-system, BlinkMacSystemFont, 'Segoe UI', Roboto, Helvetica, Arial, 'PingFang SC', 'Microsoft YaHei', Ubuntu, Cantarell, 'Noto Sans', sans-serif" fill="rgba(51,51,51,1.000)" text-anchor="middle" dominant-baseline="hanging">6</text>
<line x1="282.52" y1="316.00" x2="282.52" y2="322.00" stroke="rgba(51,51,51,1.000)" stroke-width="1.0"/>
<text x="282.52" y="325.00" font-size="13" font-family="Inter, -apple-system, BlinkMacSystemFont, 'Segoe UI', Roboto, Helvetica, Arial, 'PingFang SC', 'Microsoft YaHei', Ubuntu, Cantarell, 'Noto Sans', sans-serif" fill="rgba(51,51,51,1.000)" text-anchor="middle" dominant-baseline="hanging">7</text>
<line x1="330.55" y1="316.00" x2="330.55" y2="322.00" stroke="rgba(51,51,51,1.000)" stroke-width="1.0"/>
<text x="330.55" y="325.00" font-size="13" font-family="Inter, -apple-system, BlinkMacSystemFont, 'Segoe UI', Roboto, Helvetica, Arial, 'PingFang SC', 'Microsoft YaHei', Ubuntu, Cantarell, 'Noto Sans', sans-serif" fill="rgba(51,51,51,1.000)" text-anchor="middle" dominant-baseline="hanging">8</text>
<line x1="378.58" y1="316.00" x2="378.58" y2="322.00" stroke="rgba(51,51,51,1.000)" stroke-width="1.0"/>
<text x="378.58" y="325.00" font-size="13" font-family="Inter, -apple-system, BlinkMacSystemFont, 'Segoe UI', Roboto, Helvetica, Arial, 'PingFang SC', 'Microsoft YaHei', Ubuntu, Cantarell, 'Noto Sans', sans-serif" fill="rgba(51,51,51,1.000)" text-anchor="middle" dominant-baseline="hanging">9</text>
<text x="238.60" y="340.00" text-anchor="middle" font-size="15" font-family="Inter, -apple-system, BlinkMacSystemFont, 'Segoe UI', Roboto, Helvetica, Arial, 'PingFang SC', 'Microsoft YaHei', Ubuntu, Cantarell, 'Noto Sans', sans-serif" fill="rgba(51,51,51,1.000)" font-weight="bold" dominant-baseline="hanging">sepal_length</text>
<line x1="87.20" y1="40.00" x2="87.20" y2="316.00" stroke="rgba(51,51,51,1.000)" stroke-width="1" stroke-linecap="square"/>
<line x1="87.20" y1="316.00" x2="81.20" y2="316.00" stroke="rgba(51,51,51,1.000)" stroke-width="1.0"/>
<text x="77.20" y="316.00" font-size="13" font-family="Inter, -apple-system, BlinkMacSystemFont, 'Segoe UI', Roboto, Helvetica, Arial, 'PingFang SC', 'Microsoft YaHei', Ubuntu, Cantarell, 'Noto Sans', sans-serif" fill="rgba(51,51,51,1.000)" text-anchor="end" dominant-baseline="central">0.0</text>
<line x1="87.20" y1="267.95" x2="81.20" y2="267.95" stroke="rgba(51,51,51,1.000)" stroke-width="1.0"/>
<text x="77.20" y="267.95" font-size="13" font-family="Inter, -apple-system, BlinkMacSystemFont, 'Segoe UI', Roboto, Helvetica, Arial, 'PingFang SC', 'Microsoft YaHei', Ubuntu, Cantarell, 'Noto Sans', sans-serif" fill="rgba(51,51,51,1.000)" text-anchor="end" dominant-baseline="central">0.2</text>
<line x1="87.20" y1="219.90" x2="81.20" y2="219.90" stroke="rgba(51,51,51,1.000)" stroke-width="1.0"/>
<text x="77.20" y="219.90" font-size="13" font-family="Inter, -apple-system, BlinkMacSystemFont, 'Segoe UI', Roboto, Helvetica, Arial, 'PingFang SC', 'Microsoft YaHei', Ubuntu, Cantarell, 'Noto Sans', sans-serif" fill="rgba(51,51,51,1.000)" text-anchor="end" dominant-baseline="central">0.4</text>
<line x1="87.20" y1="171.85" x2="81.20" y2="171.85" stroke="rgba(51,51,51,1.000)" stroke-width="1.0"/>
<text x="77.20" y="171.85" font-size="13" font-family="Inter, -apple-system, BlinkMacSystemFont, 'Segoe UI', Roboto, Helvetica, Arial, 'PingFang SC', 'Microsoft YaHei', Ubuntu, Cantarell, 'Noto Sans', sans-serif" fill="rgba(51,51,51,1.000)" text-anchor="end" dominant-baseline="central">0.6</text>
<line x1="87.20" y1="123.80" x2="81.20" y2="123.80" stroke="rgba(51,51,51,1.000)" stroke-width="1.0"/>
<text x="77.20" y="123.80" font-size="13" font-family="Inter, -apple-system, BlinkMacSystemFont, 'Segoe UI', Roboto, Helvetica, Arial, 'PingFang SC', 'Microsoft YaHei', Ubuntu, Cantarell, 'Noto Sans', sans-serif" fill="rgba(51,51,51,1.000)" text-anchor="end" dominant-baseline="central">0.8</text>
<line x1="87.20" y1="75.75" x2="81.20" y2="75.75" stroke="rgba(51,51,51,1.000)" stroke-width="1.0"/>
<text x="77.20" y="75.75" font-size="13" font-family="Inter, -apple-system, BlinkMacSystemFont, 'Segoe UI', Roboto, Helvetica, Arial, 'PingFang SC', 'Microsoft YaHei', Ubuntu, Cantarell, 'Noto Sans', sans-serif" fill="rgba(51,51,51,1.000)" text-anchor="end" dominant-baseline="central">1.0</text>
<text x="47.50" y="178.00" text-anchor="middle" font-size="15" font-family="Inter, -apple-system, BlinkMacSystemFont, 'Segoe UI', Roboto, Helvetica, Arial, 'PingFang SC', 'Microsoft YaHei', Ubuntu, Cantarell, 'Noto Sans', sans-serif" fill="rgba(51,51,51,1.000)" font-weight="bold" transform="rotate(-90, 47.50, 178.00)" dominant-baseline="middle">density</text>
<defs><clipPath id="plot-clip-area"><rect x="87.200" y="40.000" width="302.800" height="276.000" /></clipPath></defs>
<line x1="87.200" y1="316.000" x2="390.000" y2="316.000" stroke="rgba(136,136,136,1.000)" stroke-width="1.000" stroke-opacity="0.500" stroke-dasharray="4.0,4.0" />
<polygon points="100.964,316.000 102.347,316.000 103.730,316.000 105.113,316.000 106.497,316.000 107.880,316.000 109.263,316.000 110.647,316.000 112.030,316.000 113.413,316.000 114.796,316.000 116.180,316.000 117.563,315.999 118.946,315.999 120.330,315.999 121.713,315.998 123.096,315.997 124.479,315.996 125.863,315.995 127.246,315.993 128.629,315.990 130.013,315.986 131.396,315.980 132.779,315.973 134.162,315.964 135.546,315.951 136.929,315.935 138.312,315.914 139.695,315.888 141.079,315.855 142.462,315.813 143.845,315.761 145.229,315.698 146.612,315.622 147.995,315.531 149.378,315.422 150.762,315.294 152.145,315.146 153.528,314.975 154.912,314.781 156.295,314.563 157.678,314.320 159.061,314.052 160.445,313.761 161.828,313.449 163.211,313.117 164.595,312.770 165.978,312.410 167.361,312.043 168.744,311.672 170.128,311.304 171.511,310.942 172.894,310.592 174.277,310.257 175.661,309.940 177.044,309.642 178.427,309.363 179.811,309.100 181.194,308.851 182.577,308.606 183.960,308.358 185.344,308.096 186.727,307.804 188.110,307.468 189.494,307.070 190.877,306.592 192.260,306.014 193.643,305.317 195.027,304.480 196.410,303.485 197.793,302.316 199.177,300.957 200.560,299.395 201.943,297.620 203.326,295.626 204.710,293.408 206.093,290.967 207.476,288.304 208.859,285.426 210.243,282.340 211.626,279.057 213.009,275.589 214.393,271.949 215.776,268.150 217.159,264.206 218.542,260.132 219.926,255.938 221.309,251.639 222.692,247.246 224.076,242.770 225.459,238.221 226.842,233.613 228.225,228.956 229.609,224.266 230.992,219.559 232.375,214.855 233.759,210.177 235.142,205.551 236.525,201.007 237.908,196.581 239.292,192.310 240.675,188.233 242.058,184.393 243.441,180.831 244.825,177.589 246.208,174.705 247.591,172.216 248.975,170.152 250.358,168.538 251.741,167.393 253.124,166.727 254.508,166.544 255.891,166.838 257.274,167.597 258.658,168.801 260.041,170.426 261.424,172.438 262.807,174.804 264.191,177.483 265.574,180.435 266.957,183.616 268.341,186.985 269.724,190.498 271.107,194.116 272.490,197.798 273.874,201.509 275.257,205.215 276.640,208.885 278.023,212.492 279.407,216.011 280.790,219.423 282.173,222.709 283.557,225.856 284.940,228.851 286.323,231.688 287.706,234.360 289.090,236.865 290.473,239.203 291.856,241.377 293.240,243.391 294.623,245.253 296.006,246.973 297.389,248.563 298.773,250.036 300.156,251.409 301.539,252.701 302.923,253.931 304.306,255.120 305.689,256.290 307.072,257.464 308.456,258.665 309.839,259.914 311.222,261.230 312.605,262.632 313.989,264.134 315.372,265.748 316.755,267.480 318.139,269.333 319.522,271.305 320.905,273.390 322.288,275.578 323.672,277.852 325.055,280.195 326.438,282.586 327.822,285.002 329.205,287.420 330.588,289.815 331.971,292.164 333.355,294.446 334.738,296.640 336.121,298.729 337.505,300.699 338.888,302.539 340.271,304.242 341.654,305.802 343.038,307.219 344.421,308.494 345.804,309.630 347.188,310.634 348.571,311.513 349.954,312.276 351.337,312.931 352.721,313.491 354.104,313.963 355.487,314.359 356.870,314.688 358.254,314.959 359.637,315.180 361.020,315.359 362.404,315.503 363.787,315.618 365.170,315.708 366.553,315.779 367.937,315.834 369.320,315.876 370.703,315.908 372.087,315.932 373.470,315.951 374.853,315.964 376.236,315.974 376.236,316.000 374.853,316.000 373.470,316.000 372.087,316.000 370.703,316.000 369.320,316.000 367.937,316.000 366.553,316.000 365.170,316.000 363.787,316.000 362.404,316.000 361.020,316.000 359.637,316.000 358.254,316.000 356.870,316.000 355.487,316.000 354.104,316.000 352.721,316.000 351.337,316.000 349.954,316.000 348.571,316.000 347.188,316.000 345.804,316.000 344.421,316.000 343.038,316.000 341.654,316.000 340.271,316.000 338.888,316.000 337.505,316.000 336.121,316.000 334.738,316.000 333.355,316.000 331.971,316.000 330.588,316.000 329.205,316.000 327.822,316.000 326.438,316.000 325.055,316.000 323.672,316.000 322.288,316.000 320.905,316.000 319.522,316.000 318.139,316.000 316.755,316.000 315.372,316.000 313.989,316.000 312.605,316.000 311.222,316.000 309.839,316.000 308.456,316.000 307.072,316.000 305.689,316.000 304.306,316.000 302.923,316.000 301.539,316.000 300.156,316.000 298.773,316.000 297.389,316.000 296.006,316.000 294.623,316.000 293.240,316.000 291.856,316.000 290.473,316.000 289.090,316.000 287.706,316.000 286.323,316.000 284.940,316.000 283.557,316.000 282.173,316.000 280.790,316.000 279.407,316.000 278.023,316.000 276.640,316.000 275.257,316.000 273.874,316.000 272.490,316.000 271.107,316.000 269.724,316.000 268.341,316.000 266.957,316.000 265.574,316.000 264.191,316.000 262.807,316.000 261.424,316.000 260.041,316.000 258.658,316.000 257.274,316.000 255.891,316.000 254.508,316.000 253.124,316.000 251.741,316.000 250.358,316.000 248.975,316.000 247.591,316.000 246.208,316.000 244.825,316.000 243.441,316.000 242.058,316.000 240.675,316.000 239.292,316.000 237.908,316.000 236.525,316.000 235.142,316.000 233.759,316.000 232.375,316.000 230.992,316.000 229.609,316.000 228.225,316.000 226.842,316.000 225.459,316.000 224.076,316.000 222.692,316.000 221.309,316.000 219.926,316.000 218.542,316.000 217.159,316.000 215.776,316.000 214.393,316.000 213.009,316.000 211.626,316.000 210.243,316.000 208.859,316.000 207.476,316.000 206.093,316.000 204.710,316.000 203.326,316.000 201.943,316.000 200.560,316.000 199.177,316.000 197.793,316.000 196.410,316.000 195.027,316.000 193.643,316.000 192.260,316.000 190.877,316.000 189.494,316.000 188.110,316.000 186.727,316.000 185.344,316.000 183.960,316.000 182.577,316.000 181.194,316.000 179.811,316.000 178.427,316.000 177.044,316.000 175.661,316.000 174.277,316.000 172.894,316.000 171.511,316.000 170.128,316.000 168.744,316.000 167.361,316.000 165.978,316.000 164.595,316.000 163.211,316.000 161.828,316.000 160.445,316.000 159.061,316.000 157.678,316.000 156.295,316.000 154.912,316.000 153.528,316.000 152.145,316.000 150.762,316.000 149.378,316.000 147.995,316.000 146.612,316.000 145.229,316.000 143.845,316.000 142.462,316.000 141.079,316.000 139.695,316.000 138.312,316.000 136.929,316.000 135.546,316.000 134.162,316.000 132.779,316.000 131.396,316.000 130.013,316.000 128.629,316.000 127.246,316.000 125.863,316.000 124.479,316.000 123.096,316.000 121.713,316.000 120.330,316.000 118.946,316.000 117.563,316.000 116.180,316.000 114.796,316.000 113.413,316.000 112.030,316.000 110.647,316.000 109.263,316.000 107.880,316.000 106.497,316.000 105.113,316.000 103.730,316.000 102.347,316.000 100.964,316.000" fill="rgba(44,160,44,1.000)" stroke="none" stroke-width="0.000" fill-opacity="0.500" stroke-opacity="0.000" clip-path="url(#plot-clip-area)" />
<path d="M 100.964 316.000 L 102.347 316.000 L 103.730 316.000 L 105.113 316.000 L 106.497 316.000 L 107.880 316.000 L 109.263 316.000 L 110.647 316.000 L 112.030 316.000 L 113.413 316.000 L 114.796 316.000 L 116.180 316.000 L 117.563 315.999 L 118.946 315.999 L 120.330 315.999 L 121.713 315.998 L 123.096 315.997 L 124.479 315.996 L 125.863 315.995 L 127.246 315.993 L 128.629 315.990 L 130.013 315.986 L 131.396 315.980 L 132.779 315.973 L 134.162 315.964 L 135.546 315.951 L 136.929 315.935 L 138.312 315.914 L 139.695 315.888 L 141.079 315.855 L 142.462 315.813 L 143.845 315.761 L 145.229 315.698 L 146.612 315.622 L 147.995 315.531 L 149.378 315.422 L 150.762 315.294 L 152.145 315.146 L 153.528 314.975 L 154.912 314.781 L 156.295 314.563 L 157.678 314.320 L 159.061 314.052 L 160.445 313.761 L 161.828 313.449 L 163.211 313.117 L 164.595 312.770 L 165.978 312.410 L 167.361 312.043 L 168.744 311.672 L 170.128 311.304 L 171.511 310.942 L 172.894 310.592 L 174.277 310.257 L 175.661 309.940 L 177.044 309.642 L 178.427 309.363 L 179.811 309.100 L 181.194 308.851 L 182.577 308.606 L 183.960 308.358 L 185.344 308.096 L 186.727 307.804 L 188.110 307.468 L 189.494 307.070 L 190.877 306.592 L 192.260 306.014 L 193.643 305.317 L 195.027 304.480 L 196.410 303.485 L 197.793 302.316 L 199.177 300.957 L 200.560 299.395 L 201.943 297.620 L 203.326 295.626 L 204.710 293.408 L 206.093 290.967 L 207.476 288.304 L 208.859 285.426 L 210.243 282.340 L 211.626 279.057 L 213.009 275.589 L 214.393 271.949 L 215.776 268.150 L 217.159 264.206 L 218.542 260.132 L 219.926 255.938 L 221.309 251.639 L 222.692 247.246 L 224.076 242.770 L 225.459 238.221 L 226.842 233.613 L 228.225 228.956 L 229.609 224.266 L 230.992 219.559 L 232.375 214.855 L 233.759 210.177 L 235.142 205.551 L 236.525 201.007 L 237.908 196.581 L 239.292 192.310 L 240.675 188.233 L 242.058 184.393 L 243.441 180.831 L 244.825 177.589 L 246.208 174.705 L 247.591 172.216 L 248.975 170.152 L 250.358 168.538 L 251.741 167.393 L 253.124 166.727 L 254.508 166.544 L 255.891 166.838 L 257.274 167.597 L 258.658 168.801 L 260.041 170.426 L 261.424 172.438 L 262.807 174.804 L 264.191 177.483 L 265.574 180.435 L 266.957 183.616 L 268.341 186.985 L 269.724 190.498 L 271.107 194.116 L 272.490 197.798 L 273.874 201.509 L 275.257 205.215 L 276.640 208.885 L 278.023 212.492 L 279.407 216.011 L 280.790 219.423 L 282.173 222.709 L 283.557 225.856 L 284.940 228.851 L 286.323 231.688 L 287.706 234.360 L 289.090 236.865 L 290.473 239.203 L 291.856 241.377 L 293.240 243.391 L 294.623 245.253 L 296.006 246.973 L 297.389 248.563 L 298.773 250.036 L 300.156 251.409 L 301.539 252.701 L 302.923 253.931 L 304.306 255.120 L 305.689 256.290 L 307.072 257.464 L 308.456 258.665 L 309.839 259.914 L 311.222 261.230 L 312.605 262.632 L 313.989 264.134 L 315.372 265.748 L 316.755 267.480 L 318.139 269.333 L 319.522 271.305 L 320.905 273.390 L 322.288 275.578 L 323.672 277.852 L 325.055 280.195 L 326.438 282.586 L 327.822 285.002 L 329.205 287.420 L 330.588 289.815 L 331.971 292.164 L 333.355 294.446 L 334.738 296.640 L 336.121 298.729 L 337.505 300.699 L 338.888 302.539 L 340.271 304.242 L 341.654 305.802 L 343.038 307.219 L 344.421 308.494 L 345.804 309.630 L 347.188 310.634 L 348.571 311.513 L 349.954 312.276 L 351.337 312.931 L 352.721 313.491 L 354.104 313.963 L 355.487 314.359 L 356.870 314.688 L 358.254 314.959 L 359.637 315.180 L 361.020 315.359 L 362.404 315.503 L 363.787 315.618 L 365.170 315.708 L 366.553 315.779 L 367.937 315.834 L 369.320 315.876 L 370.703 315.908 L 372.087 315.932 L 373.470 315.951 L 374.853 315.964 L 376.236 315.974" stroke="rgba(44,160,44,1.000)" stroke-width="1.000" stroke-opacity="1.000" fill="none" stroke-linejoin="round" stroke-linecap="round" clip-path="url(#plot-clip-area)" />
<polygon points="100.964,316.000 102.347,316.000 103.730,316.000 105.113,316.000 106.497,316.000 107.880,316.000 109.263,316.000 110.647,316.000 112.030,316.000 113.413,316.000 114.796,316.000 116.180,315.999 117.563,315.999 118.946,315.997 120.330,315.994 121.713,315.989 123.096,315.979 124.479,315.961 125.863,315.930 127.246,315.876 128.629,315.787 130.013,315.643 131.396,315.416 132.779,315.068 134.162,314.552 135.546,313.804 136.929,312.751 138.312,311.310 139.695,309.392 141.079,306.907 142.462,303.776 143.845,299.938 145.229,295.359 146.612,290.039 147.995,284.019 149.378,277.377 150.762,270.222 152.145,262.686 153.528,254.910 154.912,247.026 156.295,239.146 157.678,231.347 159.061,223.668 160.445,216.106 161.828,208.621 163.211,201.141 164.595,193.570 165.978,185.800 167.361,177.719 168.744,169.220 170.128,160.216 171.511,150.648 172.894,140.499 174.277,129.811 175.661,118.697 177.044,107.352 178.427,96.059 179.811,85.187 181.194,75.175 182.577,66.506 183.960,59.665 185.344,55.095 186.727,53.143 188.110,54.014 189.494,57.738 190.877,64.155 192.260,72.927 193.643,83.572 195.027,95.519 196.410,108.177 197.793,120.999 199.177,133.543 200.560,145.499 201.943,156.710 203.326,167.148 204.710,176.886 206.093,186.047 207.476,194.766 208.859,203.150 210.243,211.257 211.626,219.097 213.009,226.640 214.393,233.841 215.776,240.658 217.159,247.073 218.542,253.099 219.926,258.778 221.309,264.173 222.692,269.346 224.076,274.350 225.459,279.211 226.842,283.923 228.225,288.455 229.609,292.750 230.992,296.743 232.375,300.373 233.759,303.590 235.142,306.364 236.525,308.691 237.908,310.588 239.292,312.089 240.675,313.244 242.058,314.106 243.441,314.731 244.825,315.172 246.208,315.473 247.591,315.674 248.975,315.803 250.358,315.884 251.741,315.934 253.124,315.963 254.508,315.980 255.891,315.989 257.274,315.995 258.658,315.997 260.041,315.999 261.424,315.999 262.807,316.000 264.191,316.000 265.574,316.000 266.957,316.000 268.341,316.000 269.724,316.000 271.107,316.000 272.490,316.000 273.874,316.000 275.257,316.000 276.640,316.000 278.023,316.000 279.407,316.000 280.790,316.000 282.173,316.000 283.557,316.000 284.940,316.000 286.323,316.000 287.706,316.000 289.090,316.000 290.473,316.000 291.856,316.000 293.240,316.000 294.623,316.000 296.006,316.000 297.389,316.000 298.773,316.000 300.156,316.000 301.539,316.000 302.923,316.000 304.306,316.000 305.689,316.000 307.072,316.000 308.456,316.000 309.839,316.000 311.222,316.000 312.605,316.000 313.989,316.000 315.372,316.000 316.755,316.000 318.139,316.000 319.522,316.000 320.905,316.000 322.288,316.000 323.672,316.000 325.055,316.000 326.438,316.000 327.822,316.000 329.205,316.000 330.588,316.000 331.971,316.000 333.355,316.000 334.738,316.000 336.121,316.000 337.505,316.000 338.888,316.000 340.271,316.000 341.654,316.000 343.038,316.000 344.421,316.000 345.804,316.000 347.188,316.000 348.571,316.000 349.954,316.000 351.337,316.000 352.721,316.000 354.104,316.000 355.487,316.000 356.870,316.000 358.254,316.000 359.637,316.000 361.020,316.000 362.404,316.000 363.787,316.000 365.170,316.000 366.553,316.000 367.937,316.000 369.320,316.000 370.703,316.000 372.087,316.000 373.470,316.000 374.853,316.000 376.236,316.000 376.236,316.000 374.853,316.000 373.470,316.000 372.087,316.000 370.703,316.000 369.320,316.000 367.937,316.000 366.553,316.000 365.170,316.000 363.787,316.000 362.404,316.000 361.020,316.000 359.637,316.000 358.254,316.000 356.870,316.000 355.487,316.000 354.104,316.000 352.721,316.000 351.337,316.000 349.954,316.000 348.571,316.000 347.188,316.000 345.804,316.000 344.421,316.000 343.038,316.000 341.654,316.000 340.271,316.000 338.888,316.000 337.505,316.000 336.121,316.000 334.738,316.000 333.355,316.000 331.971,316.000 330.588,316.000 329.205,316.000 327.822,316.000 326.438,316.000 325.055,316.000 323.672,316.000 322.288,316.000 320.905,316.000 319.522,316.000 318.139,316.000 316.755,316.000 315.372,316.000 313.989,316.000 312.605,316.000 311.222,316.000 309.839,316.000 308.456,316.000 307.072,316.000 305.689,316.000 304.306,316.000 302.923,316.000 301.539,316.000 300.156,316.000 298.773,316.000 297.389,316.000 296.006,316.000 294.623,316.000 293.240,316.000 291.856,316.000 290.473,316.000 289.090,316.000 287.706,316.000 286.323,316.000 284.940,316.000 283.557,316.000 282.173,316.000 280.790,316.000 279.407,316.000 278.023,316.000 276.640,316.000 275.257,316.000 273.874,316.000 272.490,316.000 271.107,316.000 269.724,316.000 268.341,316.000 266.957,316.000 265.574,316.000 264.191,316.000 262.807,316.000 261.424,316.000 260.041,316.000 258.658,316.000 257.274,316.000 255.891,316.000 254.508,316.000 253.124,316.000 251.741,316.000 250.358,316.000 248.975,316.000 247.591,316.000 246.208,316.000 244.825,316.000 243.441,316.000 242.058,316.000 240.675,316.000 239.292,316.000 237.908,316.000 236.525,316.000 235.142,316.000 233.759,316.000 232.375,316.000 230.992,316.000 229.609,316.000 228.225,316.000 226.842,316.000 225.459,316.000 224.076,316.000 222.692,316.000 221.309,316.000 219.926,316.000 218.542,316.000 217.159,316.000 215.776,316.000 214.393,316.000 213.009,316.000 211.626,316.000 210.243,316.000 208.859,316.000 207.476,316.000 206.093,316.000 204.710,316.000 203.326,316.000 201.943,316.000 200.560,316.000 199.177,316.000 197.793,316.000 196.410,316.000 195.027,316.000 193.643,316.000 192.260,316.000 190.877,316.000 189.494,316.000 188.110,316.000 186.727,316.000 185.344,316.000 183.960,316.000 182.577,316.000 181.194,316.000 179.811,316.000 178.427,316.000 177.044,316.000 175.661,316.000 174.277,316.000 172.894,316.000 171.511,316.000 170.128,316.000 168.744,316.000 167.361,316.000 165.978,316.000 164.595,316.000 163.211,316.000 161.828,316.000 160.445,316.000 159.061,316.000 157.678,316.000 156.295,316.000 154.912,316.000 153.528,316.000 152.145,316.000 150.762,316.000 149.378,316.000 147.995,316.000 146.612,316.000 145.229,316.000 143.845,316.000 142.462,316.000 141.079,316.000 139.695,316.000 138.312,316.000 136.929,316.000 135.546,316.000 134.162,316.000 132.779,316.000 131.396,316.000 130.013,316.000 128.629,316.000 127.246,316.000 125.863,316.000 124.479,316.000 123.096,316.000 121.713,316.000 120.330,316.000 118.946,316.000 117.563,316.000 116.180,316.000 114.796,316.000 113.413,316.000 112.030,316.000 110.647,316.000 109.263,316.000 107.880,316.000 106.497,316.000 105.113,316.000 103.730,316.000 102.347,316.000 100.964,316.000" fill="rgba(31,119,180,1.000)" stroke="none" stroke-width="0.000" fill-opacity="0.500" stroke-opacity="0.000" clip-path="url(#plot-clip-area)" />
<path d="M 100.964 316.000 L 102.347 316.000 L 103.730 316.000 L 105.113 316.000 L 106.497 316.000 L 107.880 316.000 L 109.263 316.000 L 110.647 316.000 L 112.030 316.000 L 113.413 316.000 L 114.796 316.000 L 116.180 315.999 L 117.563 315.999 L 118.946 315.997 L 120.330 315.994 L 121.713 315.989 L 123.096 315.979 L 124.479 315.961 L 125.863 315.930 L 127.246 315.876 L 128.629 315.787 L 130.013 315.643 L 131.396 315.416 L 132.779 315.068 L 134.162 314.552 L 135.546 313.804 L 136.929 312.751 L 138.312 311.310 L 139.695 309.392 L 141.079 306.907 L 142.462 303.776 L 143.845 299.938 L 145.229 295.359 L 146.612 290.039 L 147.995 284.019 L 149.378 277.377 L 150.762 270.222 L 152.145 262.686 L 153.528 254.910 L 154.912 247.026 L 156.295 239.146 L 157.678 231.347 L 159.061 223.668 L 160.445 216.106 L 161.828 208.621 L 163.211 201.141 L 164.595 193.570 L 165.978 185.800 L 167.361 177.719 L 168.744 169.220 L 170.128 160.216 L 171.511 150.648 L 172.894 140.499 L 174.277 129.811 L 175.661 118.697 L 177.044 107.352 L 178.427 96.059 L 179.811 85.187 L 181.194 75.175 L 182.577 66.506 L 183.960 59.665 L 185.344 55.095 L 186.727 53.143 L 188.110 54.014 L 189.494 57.738 L 190.877 64.155 L 192.260 72.927 L 193.643 83.572 L 195.027 95.519 L 196.410 108.177 L 197.793 120.999 L 199.177 133.543 L 200.560 145.499 L 201.943 156.710 L 203.326 167.148 L 204.710 176.886 L 206.093 186.047 L 207.476 194.766 L 208.859 203.150 L 210.243 211.257 L 211.626 219.097 L 213.009 226.640 L 214.393 233.841 L 215.776 240.658 L 217.159 247.073 L 218.542 253.099 L 219.926 258.778 L 221.309 264.173 L 222.692 269.346 L 224.076 274.350 L 225.459 279.211 L 226.842 283.923 L 228.225 288.455 L 229.609 292.750 L 230.992 296.743 L 232.375 300.373 L 233.759 303.590 L 235.142 306.364 L 236.525 308.691 L 237.908 310.588 L 239.292 312.089 L 240.675 313.244 L 242.058 314.106 L 243.441 314.731 L 244.825 315.172 L 246.208 315.473 L 247.591 315.674 L 248.975 315.803 L 250.358 315.884 L 251.741 315.934 L 253.124 315.963 L 254.508 315.980 L 255.891 315.989 L 257.274 315.995 L 258.658 315.997 L 260.041 315.999 L 261.424 315.999 L 262.807 316.000 L 264.191 316.000 L 265.574 316.000 L 266.957 316.000 L 268.341 316.000 L 269.724 316.000 L 271.107 316.000 L 272.490 316.000 L 273.874 316.000 L 275.257 316.000 L 276.640 316.000 L 278.023 316.000 L 279.407 316.000 L 280.790 316.000 L 282.173 316.000 L 283.557 316.000 L 284.940 316.000 L 286.323 316.000 L 287.706 316.000 L 289.090 316.000 L 290.473 316.000 L 291.856 316.000 L 293.240 316.000 L 294.623 316.000 L 296.006 316.000 L 297.389 316.000 L 298.773 316.000 L 300.156 316.000 L 301.539 316.000 L 302.923 316.000 L 304.306 316.000 L 305.689 316.000 L 307.072 316.000 L 308.456 316.000 L 309.839 316.000 L 311.222 316.000 L 312.605 316.000 L 313.989 316.000 L 315.372 316.000 L 316.755 316.000 L 318.139 316.000 L 319.522 316.000 L 320.905 316.000 L 322.288 316.000 L 323.672 316.000 L 325.055 316.000 L 326.438 316.000 L 327.822 316.000 L 329.205 316.000 L 330.588 316.000 L 331.971 316.000 L 333.355 316.000 L 334.738 316.000 L 336.121 316.000 L 337.505 316.000 L 338.888 316.000 L 340.271 316.000 L 341.654 316.000 L 343.038 316.000 L 344.421 316.000 L 345.804 316.000 L 347.188 316.000 L 348.571 316.000 L 349.954 316.000 L 351.337 316.000 L 352.721 316.000 L 354.104 316.000 L 355.487 316.000 L 356.870 316.000 L 358.254 316.000 L 359.637 316.000 L 361.020 316.000 L 362.404 316.000 L 363.787 316.000 L 365.170 316.000 L 366.553 316.000 L 367.937 316.000 L 369.320 316.000 L 370.703 316.000 L 372.087 316.000 L 373.470 316.000 L 374.853 316.000 L 376.236 316.000" stroke="rgba(31,119,180,1.000)" stroke-width="1.000" stroke-opacity="1.000" fill="none" stroke-linejoin="round" stroke-linecap="round" clip-path="url(#plot-clip-area)" />
<polygon points="100.964,316.000 102.347,316.000 103.730,316.000 105.113,316.000 106.497,316.000 107.880,316.000 109.263,316.000 110.647,316.000 112.030,316.000 113.413,316.000 114.796,316.000 116.180,316.000 117.563,316.000 118.946,316.000 120.330,316.000 121.713,316.000 123.096,316.000 124.479,316.000 125.863,316.000 127.246,316.000 128.629,315.999 130.013,315.999 131.396,315.998 132.779,315.997 134.162,315.996 135.546,315.993 136.929,315.989 138.312,315.983 139.695,315.974 141.079,315.961 142.462,315.941 143.845,315.913 145.229,315.874 146.612,315.819 147.995,315.742 149.378,315.639 150.762,315.500 152.145,315.315 153.528,315.075 154.912,314.764 156.295,314.370 157.678,313.875 159.061,313.264 160.445,312.519 161.828,311.623 163.211,310.560 164.595,309.318 165.978,307.887 167.361,306.260 168.744,304.438 170.128,302.425 171.511,300.232 172.894,297.875 174.277,295.375 175.661,292.758 177.044,290.049 178.427,287.273 179.811,284.453 181.194,281.606 182.577,278.739 183.960,275.851 185.344,272.927 186.727,269.941 188.110,266.854 189.494,263.617 190.877,260.174 192.260,256.466 193.643,252.434 195.027,248.026 196.410,243.202 197.793,237.939 199.177,232.235 200.560,226.112 201.943,219.616 203.326,212.822 204.710,205.824 206.093,198.738 207.476,191.692 208.859,184.822 210.243,178.264 211.626,172.146 213.009,166.583 214.393,161.669 215.776,157.475 217.159,154.045 218.542,151.394 219.926,149.515 221.309,148.373 222.692,147.919 224.076,148.087 225.459,148.803 226.842,149.993 228.225,151.583 229.609,153.503 230.992,155.696 232.375,158.113 233.759,160.714 235.142,163.471 236.525,166.363 237.908,169.373 239.292,172.490 240.675,175.702 242.058,178.996 243.441,182.358 244.825,185.771 246.208,189.212 247.591,192.660 248.975,196.092 250.358,199.483 251.741,202.815 253.124,206.071 254.508,209.243 255.891,212.329 257.274,215.333 258.658,218.269 260.041,221.157 261.424,224.022 262.807,226.894 264.191,229.803 265.574,232.778 266.957,235.848 268.341,239.034 269.724,242.352 271.107,245.809 272.490,249.403 273.874,253.127 275.257,256.961 276.640,260.881 278.023,264.856 279.407,268.851 280.790,272.827 282.173,276.747 283.557,280.572 284.940,284.266 286.323,287.797 287.706,291.136 289.090,294.261 290.473,297.155 291.856,299.805 293.240,302.207 294.623,304.360 296.006,306.269 297.389,307.942 298.773,309.393 300.156,310.637 301.539,311.690 302.923,312.573 304.306,313.303 305.689,313.901 307.072,314.384 308.456,314.769 309.839,315.073 311.222,315.310 312.605,315.492 313.989,315.631 315.372,315.734 316.755,315.811 318.139,315.868 319.522,315.908 320.905,315.937 322.288,315.957 323.672,315.971 325.055,315.981 326.438,315.988 327.822,315.992 329.205,315.995 330.588,315.997 331.971,315.998 333.355,315.999 334.738,315.999 336.121,316.000 337.505,316.000 338.888,316.000 340.271,316.000 341.654,316.000 343.038,316.000 344.421,316.000 345.804,316.000 347.188,316.000 348.571,316.000 349.954,316.000 351.337,316.000 352.721,316.000 354.104,316.000 355.487,316.000 356.870,316.000 358.254,316.000 359.637,316.000 361.020,316.000 362.404,316.000 363.787,316.000 365.170,316.000 366.553,316.000 367.937,316.000 369.320,316.000 370.703,316.000 372.087,316.000 373.470,316.000 374.853,316.000 376.236,316.000 376.236,316.000 374.853,316.000 373.470,316.000 372.087,316.000 370.703,316.000 369.320,316.000 367.937,316.000 366.553,316.000 365.170,316.000 363.787,316.000 362.404,316.000 361.020,316.000 359.637,316.000 358.254,316.000 356.870,316.000 355.487,316.000 354.104,316.000 352.721,316.000 351.337,316.000 349.954,316.000 348.571,316.000 347.188,316.000 345.804,316.000 344.421,316.000 343.038,316.000 341.654,316.000 340.271,316.000 338.888,316.000 337.505,316.000 336.121,316.000 334.738,316.000 333.355,316.000 331.971,316.000 330.588,316.000 329.205,316.000 327.822,316.000 326.438,316.000 325.055,316.000 323.672,316.000 322.288,316.000 320.905,316.000 319.522,316.000 318.139,316.000 316.755,316.000 315.372,316.000 313.989,316.000 312.605,316.000 311.222,316.000 309.839,316.000 308.456,316.000 307.072,316.000 305.689,316.000 304.306,316.000 302.923,316.000 301.539,316.000 300.156,316.000 298.773,316.000 297.389,316.000 296.006,316.000 294.623,316.000 293.240,316.000 291.856,316.000 290.473,316.000 289.090,316.000 287.706,316.000 286.323,316.000 284.940,316.000 283.557,316.000 282.173,316.000 280.790,316.000 279.407,316.000 278.023,316.000 276.640,316.000 275.257,316.000 273.874,316.000 272.490,316.000 271.107,316.000 269.724,316.000 268.341,316.000 266.957,316.000 265.574,316.000 264.191,316.000 262.807,316.000 261.424,316.000 260.041,316.000 258.658,316.000 257.274,316.000 255.891,316.000 254.508,316.000 253.124,316.000 251.741,316.000 250.358,316.000 248.975,316.000 247.591,316.000 246.208,316.000 244.825,316.000 243.441,316.000 242.058,316.000 240.675,316.000 239.292,316.000 237.908,316.000 236.525,316.000 235.142,316.000 233.759,316.000 232.375,316.000 230.992,316.000 229.609,316.000 228.225,316.000 226.842,316.000 225.459,316.000 224.076,316.000 222.692,316.000 221.309,316.000 219.926,316.000 218.542,316.000 217.159,316.000 215.776,316.000 214.393,316.000 213.009,316.000 211.626,316.000 210.243,316.000 208.859,316.000 207.476,316.000 206.093,316.000 204.710,316.000 203.326,316.000 201.943,316.000 200.560,316.000 199.177,316.000 197.793,316.000 196.410,316.000 195.027,316.000 193.643,316.000 192.260,316.000 190.877,316.000 189.494,316.000 188.110,316.000 186.727,316.000 185.344,316.000 183.960,316.000 182.577,316.000 181.194,316.000 179.811,316.000 178.427,316.000 177.044,316.000 175.661,316.000 174.277,316.000 172.894,316.000 171.511,316.000 170.128,316.000 168.744,316.000 167.361,316.000 165.978,316.000 164.595,316.000 163.211,316.000 161.828,316.000 160.445,316.000 159.061,316.000 157.678,316.000 156.295,316.000 154.912,316.000 153.528,316.000 152.145,316.000 150.762,316.000 149.378,316.000 147.995,316.000 146.612,316.000 145.229,316.000 143.845,316.000 142.462,316.000 141.079,316.000 139.695,316.000 138.312,316.000 136.929,316.000 135.546,316.000 134.162,316.000 132.779,316.000 131.396,316.000 130.013,316.000 128.629,316.000 127.246,316.000 125.863,316.000 124.479,316.000 123.096,316.000 121.713,316.000 120.330,316.000 118.946,316.000 117.563,316.000 116.180,316.000 114.796,316.000 113.413,316.000 112.030,316.000 110.647,316.000 109.263,316.000 107.880,316.000 106.497,316.000 105.113,316.000 103.730,316.000 102.347,316.000 100.964,316.000" fill="rgba(255,127,14,1.000)" stroke="none" stroke-width="0.000" fill-opacity="0.500" stroke-opacity="0.000" clip-path="url(#plot-clip-area)" />
<path d="M 100.964 316.000 L 102.347 316.000 L 103.730 316.000 L 105.113 316.000 L 106.497 316.000 L 107.880 316.000 L 109.263 316.000 L 110.647 316.000 L 112.030 316.000 L 113.413 316.000 L 114.796 316.000 L 116.180 316.000 L 117.563 316.000 L 118.946 316.000 L 120.330 316.000 L 121.713 316.000 L 123.096 316.000 L 124.479 316.000 L 125.863 316.000 L 127.246 316.000 L 128.629 315.999 L 130.013 315.999 L 131.396 315.998 L 132.779 315.997 L 134.162 315.996 L 135.546 315.993 L 136.929 315.989 L 138.312 315.983 L 139.695 315.974 L 141.079 315.961 L 142.462 315.941 L 143.845 315.913 L 145.229 315.874 L 146.612 315.819 L 147.995 315.742 L 149.378 315.639 L 150.762 315.500 L 152.145 315.315 L 153.528 315.075 L 154.912 314.764 L 156.295 314.370 L 157.678 313.875 L 159.061 313.264 L 160.445 312.519 L 161.828 311.623 L 163.211 310.560 L 164.595 309.318 L 165.978 307.887 L 167.361 306.260 L 168.744 304.438 L 170.128 302.425 L 171.511 300.232 L 172.894 297.875 L 174.277 295.375 L 175.661 292.758 L 177.044 290.049 L 178.427 287.273 L 179.811 284.453 L 181.194 281.606 L 182.577 278.739 L 183.960 275.851 L 185.344 272.927 L 186.727 269.941 L 188.110 266.854 L 189.494 263.617 L 190.877 260.174 L 192.260 256.466 L 193.643 252.434 L 195.027 248.026 L 196.410 243.202 L 197.793 237.939 L 199.177 232.235 L 200.560 226.112 L 201.943 219.616 L 203.326 212.822 L 204.710 205.824 L 206.093 198.738 L 207.476 191.692 L 208.859 184.822 L 210.243 178.264 L 211.626 172.146 L 213.009 166.583 L 214.393 161.669 L 215.776 157.475 L 217.159 154.045 L 218.542 151.394 L 219.926 149.515 L 221.309 148.373 L 222.692 147.919 L 224.076 148.087 L 225.459 148.803 L 226.842 149.993 L 228.225 151.583 L 229.609 153.503 L 230.992 155.696 L 232.375 158.113 L 233.759 160.714 L 235.142 163.471 L 236.525 166.363 L 237.908 169.373 L 239.292 172.490 L 240.675 175.702 L 242.058 178.996 L 243.441 182.358 L 244.825 185.771 L 246.208 189.212 L 247.591 192.660 L 248.975 196.092 L 250.358 199.483 L 251.741 202.815 L 253.124 206.071 L 254.508 209.243 L 255.891 212.329 L 257.274 215.333 L 258.658 218.269 L 260.041 221.157 L 261.424 224.022 L 262.807 226.894 L 264.191 229.803 L 265.574 232.778 L 266.957 235.848 L 268.341 239.034 L 269.724 242.352 L 271.107 245.809 L 272.490 249.403 L 273.874 253.127 L 275.257 256.961 L 276.640 260.881 L 278.023 264.856 L 279.407 268.851 L 280.790 272.827 L 282.173 276.747 L 283.557 280.572 L 284.940 284.266 L 286.323 287.797 L 287.706 291.136 L 289.090 294.261 L 290.473 297.155 L 291.856 299.805 L 293.240 302.207 L 294.623 304.360 L 296.006 306.269 L 297.389 307.942 L 298.773 309.393 L 300.156 310.637 L 301.539 311.690 L 302.923 312.573 L 304.306 313.303 L 305.689 313.901 L 307.072 314.384 L 308.456 314.769 L 309.839 315.073 L 311.222 315.310 L 312.605 315.492 L 313.989 315.631 L 315.372 315.734 L 316.755 315.811 L 318.139 315.868 L 319.522 315.908 L 320.905 315.937 L 322.288 315.957 L 323.672 315.971 L 325.055 315.981 L 326.438 315.988 L 327.822 315.992 L 329.205 315.995 L 330.588 315.997 L 331.971 315.998 L 333.355 315.999 L 334.738 315.999 L 336.121 316.000 L 337.505 316.000 L 338.888 316.000 L 340.271 316.000 L 341.654 316.000 L 343.038 316.000 L 344.421 316.000 L 345.804 316.000 L 347.188 316.000 L 348.571 316.000 L 349.954 316.000 L 351.337 316.000 L 352.721 316.000 L 354.104 316.000 L 355.487 316.000 L 356.870 316.000 L 358.254 316.000 L 359.637 316.000 L 361.020 316.000 L 362.404 316.000 L 363.787 316.000 L 365.170 316.000 L 366.553 316.000 L 367.937 316.000 L 369.320 316.000 L 370.703 316.000 L 372.087 316.000 L 373.470 316.000 L 374.853 316.000 L 376.236 316.000" stroke="rgba(255,127,14,1.000)" stroke-width="1.000" stroke-opacity="1.000" fill="none" stroke-linejoin="round" stroke-linecap="round" clip-path="url(#plot-clip-area)" />
<text x="405.000" y="49.600" font-size="13.2" font-family="Inter, -apple-system, BlinkMacSystemFont, 'Segoe UI', Roboto, Helvetica, Arial, 'PingFang SC', 'Microsoft YaHei', Ubuntu, Cantarell, 'Noto Sans', sans-serif" fill="rgba(51,51,51,1.000)" fill-opacity="1.000" text-anchor="start" font-weight="bold">species</text>
<circle cx="414.000" cy="69.200" r="5.000" fill="rgba(31,119,180,1.000)" stroke="none" stroke-width="0.000" fill-opacity="1.000" stroke-opacity="1.000" />
<text x="431.000" y="73.700" font-size="12.0" font-family="Inter, -apple-system, BlinkMacSystemFont, 'Segoe UI', Roboto, Helvetica, Arial, 'PingFang SC', 'Microsoft YaHei', Ubuntu, Cantarell, 'Noto Sans', sans-serif" fill="rgba(51,51,51,1.000)" fill-opacity="1.000" text-anchor="start" font-weight="normal">setosa</text>
<circle cx="414.000" cy="90.200" r="5.000" fill="rgba(255,127,14,1.000)" stroke="none" stroke-width="0.000" fill-opacity="1.000" stroke-opacity="1.000" />
<text x="431.000" y="94.700" font-size="12.0" font-family="Inter, -apple-system, BlinkMacSystemFont, 'Segoe UI', Roboto, Helvetica, Arial, 'PingFang SC', 'Microsoft YaHei', Ubuntu, Cantarell, 'Noto Sans', sans-serif" fill="rgba(51,51,51,1.000)" fill-opacity="1.000" text-anchor="start" font-weight="normal">versicolor</text>
<circle cx="414.000" cy="111.200" r="5.000" fill="rgba(44,160,44,1.000)" stroke="none" stroke-width="0.000" fill-opacity="1.000" stroke-opacity="1.000" />
<text x="431.000" y="115.700" font-size="12.0" font-family="Inter, -apple-system, BlinkMacSystemFont, 'Segoe UI', Roboto, Helvetica, Arial, 'PingFang SC', 'Microsoft YaHei', Ubuntu, Cantarell, 'Noto Sans', sans-serif" fill="rgba(51,51,51,1.000)" fill-opacity="1.000" text-anchor="start" font-weight="normal">virginica</text>
</svg>