<svg width="500" height="400" viewBox="0 0 500 400" xmlns="http://www.w3.org/2000/svg"><rect width="100%" height="100%" fill="white" /><path d="M 95.44512049328712 340 L 95.44512049328712 339.99999997491835 L 96.90037817586035 339.99999992779914 L 98.35563585843359 339.9999997978605 L 99.8108935410068 339.9999994495643 L 101.26615122358004 339.9999985420713 L 102.72140890615327 339.9999962436505 L 104.17666658872649 339.99999058483513 L 105.63192427129972 339.9999770409557 L 107.08718195387294 339.99994552768715 L 108.54242758921214 339.99987424326196 L 109.99768527178537 339.9997174709782 L 111.45294295435859 339.99938225313775 L 112.90820063693182 339.9986853242165 L 114.36345831950506 339.9972764666154 L 115.81871600207828 339.9945070748644 L 117.27397368465151 339.9892134309448 L 118.72923136722474 339.9793734596356 L 120.18448904979796 339.9615858820367 L 121.63974673237118 339.93031528397944 L 123.09500441494441 339.8768509479955 L 124.55026209751765 339.7879491655372 L 126.00551978009088 339.64417514357984 L 127.4607774626641 339.418033546369 L 128.91603514523734 339.07208460748996 L 130.37129282781055 338.5573573387228 L 131.82655051038378 337.812492733023 L 133.28180819295702 336.76412205610956 L 134.73706587553025 335.32898026518524 L 136.19232355810345 333.41810788693175 L 137.6475812406767 330.9432336155857 L 139.10283892324992 327.82503410641635 L 140.55809660582315 324.0024273576481 L 142.01335428839639 319.44165750273635 L 143.46861197096962 314.14362486451864 L 144.92386965354282 308.14783311315944 L 146.37912733611606 301.53180806764533 L 147.8343850186893 294.4053516749825 L 149.2896427012625 286.90001090722427 L 150.74490038383573 279.15531262755394 L 152.20015806640896 271.30337074398994 L 153.6554157489822 263.45468071954593 L 155.11067343155543 255.68702331611087 L 156.56590701966059 248.03887886660442 L 158.02116470223382 240.5074875695365 L 159.47642238480705 233.05253635559762 L 160.93168006738028 225.60222046715873 L 162.3869377499535 218.06174393211091 L 163.84219543252672 210.32287546566556 L 165.29745311509996 202.27392511708396 L 166.75271079767316 193.80946419068746 L 168.2079684802464 184.84153560229709 L 169.66322616281963 175.31143473727363 L 171.11848384539286 165.20331591367722 L 172.5737415279661 154.55831229686737 L 174.02899921053933 143.48879843950274 L 175.48425689311256 132.1891870243209 L 176.9395145756858 120.94176224299841 L 178.39477225825902 110.11362761259079 L 179.8500299408322 100.1420440844127 L 181.30528762340546 91.50733121803827 L 182.7605453059787 84.6938591344016 L 184.2158029885519 80.14219769409726 L 185.67106067112513 78.19804234164104 L 187.12631835369837 79.06571822507044 L 188.5815760362716 82.77486290250505 L 190.03683371884483 89.1663349526269 L 191.49209140141807 97.9030535050801 L 192.94734908399127 108.50492720093047 L 194.4026067665645 120.40402169738499 L 195.85786444913774 133.01106589181083 L 197.31312213171094 145.7821720838547 L 198.76837981428417 158.27501612050193 L 200.2236374968574 170.18379488161634 L 201.67889517943064 181.3495666214398 L 203.13415286200387 191.74584580319268 L 204.5894105445771 201.4439736519541 L 206.04466822715034 210.56859050478255 L 207.49992590972357 219.25280864749635 L 208.9551835922968 227.60269145880426 L 210.41044127487 235.67729298557555 L 211.86569895744324 243.4857269908701 L 213.32095664001648 250.9990262559482 L 214.77621432258968 258.1710372013705 L 216.2314720051629 264.9606979744775 L 217.68672968773615 271.34985949311937 L 219.14198737030938 277.351507799966 L 220.5972450528826 283.00813456731186 L 222.05247864098774 288.38063370968615 L 223.50773632356098 293.53326510105813 L 224.9629940061342 298.5170743720872 L 226.41825168870744 303.35819406168804 L 227.87350937128068 308.0521136415856 L 229.3287670538539 312.56532327405046 L 230.7840247364271 316.84303697730815 L 232.23928241900035 320.82055808710203 L 233.69454010157358 324.4357126259378 L 235.1497977841468 327.6393919943699 L 236.60505546672005 330.4028491516198 L 238.06031314929325 332.7206295675465 L 239.5155708318665 334.6096298950059 L 240.97082851443972 336.105118275487 L 242.42608619701295 337.25501751194577 L 243.88134387958618 338.11371913778464 L 245.33660156215942 338.73651188931296 L 246.79185924473262 339.1752358652385 L 248.24711692730588 339.47544355693805 L 249.7023746098791 339.67500303880246 L 251.1576322924523 339.80388063164094 L 252.61288997502555 339.88474690045615 L 254.06814765759876 339.93404964594185 L 255.523405340172 339.9632582519033 L 256.9786630227452 339.9800735219261 L 258.4339207053184 339.9894808283248 L 259.88917838789166 339.9945953265069 L 261.3444360704649 339.99729758708327 L 262.7996937530381 339.99868511083116 L 264.25495143561136 339.99937749059717 L 265.7102091181846 339.9997132619228 L 267.1654668007578 339.9998715079227 L 268.62072448333106 339.999943987033 L 270.0759821659043 339.99997624843894 L 271.5312398484775 339.9999902036969 L 272.98649753105076 339.9999960701903 L 274.441755213624 339.9999984668001 L 275.8970128961972 339.9999994182672 L 277.3522705787704 339.9999997853537 L 278.8075282613437 339.99999992298376 L 280.26278594391687 339.99999997312915 L 281.7180436264901 339.99999999088396 L 283.17330130906333 339.9999999969929 L 284.62855899163657 339.99999999903554 L 286.08381667420974 339.99999999969924 L 287.53905026231496 339.9999999999088 L 288.9943079448882 339.9999999999731 L 290.4495656274614 339.9999999999923 L 291.90482331003466 339.99999999999784 L 293.36008099260783 339.99999999999943 L 294.8153386751811 339.99999999999983 L 296.2705963577543 339.99999999999994 L 297.72585404032753 340 L 299.18111172290077 340 L 300.636369405474 340 L 302.0916270880472 340 L 303.54688477062047 340 L 305.00214245319364 340 L 306.4574001357669 340 L 307.9126578183401 340 L 309.36791550091334 340 L 310.8231731834866 340 L 312.2784308660598 340 L 313.73368854863304 340 L 315.1889462312063 340 L 316.6442039137795 340 L 318.09946159635274 340 L 319.554719278926 340 L 321.0099769614992 340 L 322.46523464407244 340 L 323.9204923266456 340 L 325.3757500092189 340 L 326.8310076917921 340 L 328.2862653743653 340 L 329.74152305693855 340 L 331.1967807395118 340 L 332.65203842208496 340 L 334.10729610465825 340 L 335.5625537872314 340 L 337.01781146980466 340 L 338.4730691523779 340 L 339.9283268349511 340 L 341.38358451752435 340 L 342.8388422000976 340 L 344.2940998826708 340 L 345.74935756524405 340 L 347.2046152478173 340 L 348.6598729303905 340 L 350.1151306129637 340 L 351.570388295537 340 L 353.02564597811016 340 L 354.4809036606834 340 L 355.93616134325663 340 L 357.39141902582986 340 L 358.8466767084031 340 L 360.3019343909763 340 L 361.75719207354956 340 L 363.2124497561228 340 L 364.667707438696 340 L 366.12296512126926 340 L 367.57822280384244 340 L 369.0334804864157 340 L 370.4887381689889 340 L 371.94399585156214 340 L 373.39925353413537 340 L 374.8545112167086 340 L 376.30976889928183 340 L 377.76502658185507 340 L 379.2202842644283 340 L 380.6755419470015 340 L 382.13079962957477 340 L 383.58605731214794 340 L 385.041266805785 340 L 385.041266805785 340" fill="#1f77b4" stroke="none" stroke-width="1" fill-opacity="0.5" />
<path d="M 95.44512049328712 340 L 95.44512049328712 339.99999999860046 L 96.90037817586035 339.99999999697195 L 98.35563585843359 339.99999999353315 L 99.8108935410068 339.99999998636747 L 101.26615122358004 339.99999997163246 L 102.72140890615327 339.99999994173146 L 104.17666658872649 339.9999998818546 L 105.63192427129972 339.99999976352973 L 107.08718195387294 339.9999995327864 L 108.54242758921214 339.9999990887428 L 109.99768527178537 339.99999824547234 L 111.45294295435859 339.9999966651388 L 112.90820063693182 339.99999374252866 L 114.36345831950506 339.9999884087253 L 115.81871600207828 339.99997880270905 L 117.27397368465151 339.9999617305503 L 118.72923136722474 339.99993178884097 L 120.18448904979796 339.9998799681992 L 121.63974673237118 339.9997914636172 L 123.09500441494441 339.99964229985045 L 124.55026209751765 339.9993942156647 L 126.00551978009088 339.99898705530575 L 127.4607774626641 339.99832763872973 L 128.91603514523734 339.9972737873837 L 130.37129282781055 339.99561180930607 L 131.82655051038378 339.99302546124716 L 133.28180819295702 339.9890538888004 L 134.73706587553025 339.9830359813651 L 136.19232355810345 339.97403829817944 L 137.6475812406767 339.9607640797746 L 139.10283892324992 339.9414411585479 L 140.55809660582315 339.9136879410279 L 142.01335428839639 339.87435826270877 L 143.46861197096962 339.8193687611742 L 144.92386965354282 339.74351426395253 L 146.37912733611606 339.6402840051035 L 147.8343850186893 339.5016902518858 L 149.2896427012625 339.3181328106272 L 150.74490038383573 339.07832101453096 L 152.20015806640896 338.76927662075366 L 153.6554157489822 338.3764532870347 L 155.11067343155543 337.88398861752023 L 156.56590701966059 337.2751241277105 L 158.02116470223382 336.53273641264866 L 159.47642238480705 335.64014119761333 L 160.93168006738028 334.5819240196475 L 162.3869377499535 333.34492679419265 L 163.84219543252672 331.91926112398505 L 165.29745311509996 330.29925764937485 L 166.75271079767316 328.4842727732445 L 168.2079684802464 326.47926629387905 L 169.66322616281963 324.29497522967205 L 171.11848384539286 321.94764283086573 L 172.5737415279661 319.45826801338364 L 174.02899921053933 316.851316381778 L 175.48425689311256 314.15284559662854 L 176.9395145756858 311.38827150421486 L 178.39477225825902 308.57985258102417 L 179.8500299408322 305.74404601539885 L 181.30528762340546 302.8889671925988 L 182.7605453059787 300.0123376718589 L 184.2158029885519 297.10010172000955 L 185.67106067112513 294.1257274470159 L 187.12631835369837 291.0508664484535 L 188.5815760362716 287.8269262505429 L 190.03683371884483 284.39800839338983 L 191.49209140141807 280.70469870099 L 192.94734908399127 276.68881314141413 L 194.4026067665645 272.29863217898776 L 195.85786444913774 267.4942670549665 L 197.31312213171094 262.25251974804064 L 198.76837981428417 256.57133645245005 L 200.2236374968574 250.47247467296464 L 201.67889517943064 244.00327177984374 L 203.13415286200387 237.2361030323165 L 204.5894105445771 230.2664133480617 L 206.04466822715034 223.20863108549798 L 207.49992590972357 216.1909550854138 L 208.9551835922968 209.34861562081747 L 210.41044127487 202.81685722725732 L 211.86569895744324 196.72371472631184 L 213.32095664001648 191.18298892463957 L 214.77621432258968 186.28898373671942 L 216.2314720051629 182.11174249649048 L 217.68672968773615 178.69495136397228 L 219.14198737030938 176.05521193572454 L 220.5972450528826 174.1830538851874 L 222.05247864098774 173.04621534688133 L 223.50773632356098 172.59367921522687 L 224.9629940061342 172.76073634624484 L 226.41825168870744 173.47457647323608 L 227.87350937128068 174.6597364970616 L 229.3287670538539 176.24263597386224 L 230.7840247364271 178.15565620149886 L 232.23928241900035 180.33999272755216 L 233.69454010157358 182.74681061506274 L 235.1497977841468 185.33761526857103 L 236.60505546672005 188.0834965194975 L 238.06031314929325 190.96327449594227 L 239.5155708318665 193.9615456547056 L 240.97082851443972 197.06585879836763 L 242.42608619701295 200.26487520762853 L 243.88134387958618 203.54614368506842 L 245.33660156215942 206.89493102686745 L 246.79185924473262 210.29348037072592 L 248.24711692730588 213.721282184124 L 249.7023746098791 217.15557345322202 L 251.1576322924523 220.5729636124202 L 252.61288997502555 223.95073243549894 L 254.06814765759876 227.26909777947833 L 255.523405340172 230.5126347073487 L 256.9786630227452 233.67200125541007 L 258.4339207053184 236.74510083028247 L 259.88917838789166 239.7372462281159 L 261.3444360704649 242.66158751079016 L 262.7996937530381 245.537942477635 L 264.25495143561136 248.3915843495301 L 265.7102091181846 251.25160157680511 L 267.1654668007578 254.1485231263297 L 268.62072448333106 257.11232885718346 L 270.0759821659043 260.1698822634561 L 271.5312398484775 263.34313339420726 L 272.98649753105076 266.64745013628686 L 274.441755213624 270.0903274544648 L 275.8970128961972 273.670724183321 L 277.3522705787704 277.3791200774057 L 278.8075282613437 281.197854546564 L 280.26278594391687 285.10208224611625 L 281.7180436264901 289.06114941196785 L 283.17330130906333 293.0399274080992 L 284.62855899163657 297.0007346038307 L 286.08381667420974 300.904926647033 L 287.53905026231496 304.71445821225643 L 288.9943079448882 308.3936729495014 L 290.4495656274614 311.91015388816595 L 291.90482331003466 315.2359767577478 L 293.36008099260783 318.34839102412974 L 294.8153386751811 321.23022815478697 L 296.2705963577543 323.87010307716474 L 297.72585404032753 326.26234643161297 L 299.18111172290077 328.4066800986017 L 300.636369405474 330.307753666171 L 302.0916270880472 331.97452222662315 L 303.54688477062047 333.4195274553661 L 305.00214245319364 334.65810202860405 L 306.4574001357669 335.7075949891337 L 307.9126578183401 336.58657839255676 L 309.36791550091334 337.3141361859494 L 310.8231731834866 337.90922796486745 L 312.2784308660598 338.39015033960874 L 313.73368854863304 338.7741116218136 L 315.1889462312063 339.0769218927848 L 316.6442039137795 339.3127944421888 L 318.09946159635274 339.4942482145104 L 319.554719278926 339.6320934907999 L 321.0099769614992 339.73549373015493 L 322.46523464407244 339.8120741962339 L 323.9204923266456 339.8680695271884 L 325.3757500092189 339.90848936358816 L 326.8310076917921 339.93729115636336 L 328.2862653743653 339.95754962151943 L 329.74152305693855 339.9716143453822 L 331.1967807395118 339.9812521941099 L 332.65203842208496 339.98777046216026 L 334.10729610465825 339.99212135688657 L 335.5625537872314 339.9949875250292 L 337.01781146980466 339.99685086790385 L 338.4730691523779 339.9980463445354 L 339.9283268349511 339.99880324555926 L 341.38358451752435 339.99927615416885 L 342.8388422000976 339.9995677299503 L 344.2940998826708 339.9997451309554 L 345.74935756524405 339.99985163880854 L 347.2046152478173 339.99991473856755 L 348.6598729303905 339.99995162722865 L 350.1151306129637 339.9999729070384 L 351.570388295537 339.9999850201035 L 353.02564597811016 339.9999918238222 L 354.4809036606834 339.9999955947541 L 355.93616134325663 339.99999765705326 L 357.39141902582986 339.99999876995753 L 358.8466767084031 339.9999993625667 L 360.3019343909763 339.9999996739372 L 361.75719207354956 339.9999998353686 L 363.2124497561228 339.9999999179523 L 364.667707438696 339.9999999596397 L 366.12296512126926 339.9999999804038 L 367.57822280384244 339.9999999906089 L 369.0334804864157 339.99999999555797 L 370.4887381689889 339.9999999979262 L 371.94399585156214 339.9999999990444 L 373.39925353413537 339.99999999956543 L 374.8545112167086 339.9999999998049 L 376.30976889928183 339.9999999999136 L 377.76502658185507 339.9999999999622 L 379.2202842644283 339.9999999999837 L 380.6755419470015 339.99999999999307 L 382.13079962957477 339.9999999999971 L 383.58605731214794 339.9999999999988 L 385.041266805785 339.9999999999995 L 385.041266805785 340" fill="#ff7f0e" stroke="none" stroke-width="1" fill-opacity="0.5" />
<path d="M 95.44512049328712 340 L 95.44512049328712 339.999997805278 L 96.90037817586035 339.99999636380346 L 98.35563585843359 339.9999940279492 L 99.8108935410068 339.99999027681343 L 101.26615122358004 339.9999843071727 L 102.72140890615327 339.99997489248904 L 104.17666658872649 339.9999601787631 L 105.63192427129972 339.9999373913278 L 107.08718195387294 339.9999024197954 L 108.54242758921214 339.9998492363058 L 109.99768527178537 339.99976909009547 L 111.45294295435859 339.9996494122956 L 112.90820063693182 339.9994723330823 L 114.36345831950506 339.99921271664954 L 115.81871600207828 339.9988355753398 L 117.27397368465151 339.9982927349411 L 118.72923136722474 339.9975185905117 L 120.18448904979796 339.99642475819917 L 121.63974673237118 339.9948935288493 L 123.09500441494441 339.9927698754683 L 124.55026209751765 339.98985202346375 L 126.00551978009088 339.985880393563 L 127.4607774626641 339.9805251231789 L 128.91603514523734 339.9733721094214 L 130.37129282781055 339.9639082629853 L 131.82655051038378 339.9515058144815 L 133.28180819295702 339.93540760967466 L 134.73706587553025 339.91471276163276 L 136.19232355810345 339.8883656648104 L 137.6475812406767 339.8551482370073 L 139.10283892324992 339.8136787876969 L 140.55809660582315 339.7624172271961 L 142.01335428839639 339.69968127219806 L 143.46861197096962 339.623671516643 L 144.92386965354282 339.5325120465298 L 146.37912733611606 339.42430104129016 L 147.8343850186893 339.2971782422891 L 149.2896427012625 339.14940272823776 L 150.74490038383573 338.979443393182 L 152.20015806640896 338.7860771128908 L 153.6554157489822 338.5684903654536 L 155.11067343155543 338.3263791804867 L 156.56590701966059 338.0600436284606 L 158.02116470223382 337.77044787936444 L 159.47642238480705 337.459293632502 L 160.93168006738028 337.12902847344856 L 162.3869377499535 336.7828229202756 L 163.84219543252672 336.4245131505387 L 165.29745311509996 336.05848155250504 L 166.75271079767316 335.6894985001002 L 168.2079684802464 335.32250284350346 L 169.66322616281963 334.9623514232891 L 171.11848384539286 334.61351465433836 L 172.5737415279661 334.27976943552494 L 174.02899921053933 333.9638537288244 L 175.48425689311256 333.6671407494162 L 176.9395145756858 333.3893381152302 L 178.39477225825902 333.12820259614716 L 179.8500299408322 332.87932929582894 L 181.30528762340546 332.63601348336255 L 182.7605453059787 332.3891734864031 L 184.2158029885519 332.12738902175 L 185.67106067112513 331.83701796989357 L 187.12631835369837 331.5024268041764 L 188.5815760362716 331.10630793230877 L 190.03683371884483 330.6300719162183 L 191.49209140141807 330.0543457695416 L 192.94734908399127 329.3594676894801 L 194.4026067665645 328.52606914671406 L 195.85786444913774 327.5356489526374 L 197.31312213171094 326.3711375210966 L 198.76837981428417 325.0174049713782 L 200.2236374968574 323.4617255521672 L 201.67889517943064 321.69415470744883 L 203.13415286200387 319.7078018475856 L 204.5894105445771 317.4989711919001 L 206.04466822715034 315.06720099065984 L 207.49992590972357 312.4151654701148 L 208.9551835922968 309.5484038442373 L 210.41044127487 306.4750439780099 L 211.86569895744324 303.2053245923349 L 213.32095664001648 299.7511335143021 L 214.77621432258968 296.1254710491214 L 216.2314720051629 292.34191870050773 L 217.68672968773615 288.41420416321074 L 219.14198737030938 284.35577701245035 L 220.5972450528826 280.17954128129145 L 222.05247864098774 275.8977984104838 L 223.50773632356098 271.5221081886973 L 224.9629940061342 267.0636310534818 L 226.41825168870744 262.5335203111172 L 227.87350937128068 257.9433143564633 L 229.3287670538539 253.30550717456 L 230.7840247364271 248.63437556794713 L 232.23928241900035 243.94642842667443 L 233.69454010157358 239.26118403673172 L 235.1497977841468 234.6014624621187 L 236.60505546672005 229.99395604644502 L 238.06031314929325 225.46907965626036 L 239.5155708318665 221.06088510581426 L 240.97082851443972 216.80669746228628 L 242.42608619701295 212.7463662624359 L 243.88134387958618 208.9214097602027 L 245.33660156215942 205.3736457228661 L 246.79185924473262 202.14430715356556 L 248.24711692730588 199.27228799888067 L 249.7023746098791 196.79308772087097 L 251.1576322924523 194.7375134059361 L 252.61288997502555 193.13041039875577 L 254.06814765759876 191.98990638766972 L 255.523405340172 191.32671254021784 L 256.9786630227452 191.14389530250006 L 258.4339207053184 191.4366339359965 L 259.88917838789166 192.19249150582723 L 261.3444360704649 193.39219932045256 L 262.7996937530381 195.00994218247277 L 264.25495143561136 197.01461349214827 L 265.7102091181846 199.37065673725945 L 267.1654668007578 202.03917797122685 L 268.62072448333106 204.97898697853088 L 270.0759821659043 208.14778106553214 L 271.5312398484775 211.50278687477112 L 272.98649753105076 215.00204401356834 L 274.441755213624 218.60488998038429 L 275.8970128961972 222.27245935371946 L 277.3522705787704 225.96849675689424 L 278.8075282613437 229.65939251439914 L 280.26278594391687 233.31471036587442 L 281.7180436264901 236.9071589410305 L 283.17330130906333 240.41272725377763 L 284.62855899163657 243.81070609603609 L 286.08381667420974 247.0837807442461 L 287.53905026231496 250.21762447697776 L 288.9943079448882 253.20119095700127 L 290.4495656274614 256.02631488016675 L 291.90482331003466 258.6877262379442 L 293.36008099260783 261.1827508040837 L 294.8153386751811 263.51145276001523 L 296.2705963577543 265.67641362547874 L 297.72585404032753 267.68257537058423 L 299.18111172290077 269.53730459724153 L 300.636369405474 271.2502570450306 L 302.0916270880472 272.83338472247124 L 303.54688477062047 274.3007861503533 L 305.00214245319364 275.6686493115766 L 306.4574001357669 276.95507336940085 L 307.9126578183401 278.1798190729959 L 309.36791550091334 279.3640306379114 L 310.8231731834866 280.5297080320971 L 312.2784308660598 281.69934684676787 L 313.73368854863304 282.8952394319432 L 315.1889462312063 284.138779597623 L 316.6442039137795 285.44988854655196 L 318.09946159635274 286.8461662530899 L 319.554719278926 288.3423066990716 L 321.0099769614992 289.949356221727 L 322.46523464407244 291.67443539415086 L 323.9204923266456 293.52018991751333 L 325.3757500092189 295.4847014801843 L 326.8310076917921 297.5615198484489 L 328.2862653743653 299.73981618881226 L 329.74152305693855 302.0048786912646 L 331.1967807395118 304.33852618294105 L 332.65203842208496 306.7199959712369 L 334.10729610465825 309.1265713955675 L 335.5625537872314 311.53454811445306 L 337.01781146980466 313.9200435046639 L 338.4730691523779 316.25983815108026 L 339.9283268349511 318.53216028639247 L 341.38358451752435 320.7172759036933 L 342.8388422000976 322.79805747526035 L 344.2940998826708 324.76036190986633 L 345.74935756524405 326.59322844552145 L 347.2046152478173 328.2889802700707 L 348.6598729303905 329.8431603397642 L 350.1151306129637 331.25435755455067 L 351.570388295537 332.5239482495402 L 353.02564597811016 333.65573339164257 L 354.4809036606834 334.6555641878928 L 355.93616134325663 335.53091732918153 L 357.39141902582986 336.29048828501254 L 358.8466767084031 336.9437828154436 L 360.3019343909763 337.5007572876556 L 361.75719207354956 337.9714852890798 L 363.2124497561228 338.36588597058187 L 364.667707438696 338.69349673723 L 366.12296512126926 338.9633032120764 L 367.57822280384244 339.18361232183605 L 369.0334804864157 339.36198076133485 L 370.4887381689889 339.5051726515937 L 371.94399585156214 339.61915750630266 L 373.39925353413537 339.7091300099523 L 374.8545112167086 339.7795536272211 L 376.30976889928183 339.8342143521378 L 377.76502658185507 339.8762857391349 L 379.2202842644283 339.9083968451097 L 380.6755419470015 339.93270120217596 L 382.13079962957477 339.95094319279553 L 383.58605731214794 339.96452076177644 L 385.041266805785 339.9745418884101 L 385.041266805785 340" fill="#2ca02c" stroke="none" stroke-width="1" fill-opacity="0.5" />
<line x1="75" y1="340" x2="401.5" y2="340" stroke="black" stroke-dasharray="5,5" />
<line x1="75" y1="340" x2="401.5" y2="340" stroke="black" stroke-width="1"/>
<line x1="84.32857142857142" y1="340" x2="84.32857142857142" y2="345" stroke="black" stroke-width="1"/>
<text x="84.32857142857142" y="358" font-size="13" font-family="sans-serif" fill="#333" text-anchor="middle">3</text>
<line x1="134.85833333333332" y1="340" x2="134.85833333333332" y2="345" stroke="black" stroke-width="1"/>
<text x="134.85833333333332" y="358" font-size="13" font-family="sans-serif" fill="#333" text-anchor="middle">4</text>
<line x1="185.38809523809522" y1="340" x2="185.38809523809522" y2="345" stroke="black" stroke-width="1"/>
<text x="185.38809523809522" y="358" font-size="13" font-family="sans-serif" fill="#333" text-anchor="middle">5</text>
<line x1="235.91785714285714" y1="340" x2="235.91785714285714" y2="345" stroke="black" stroke-width="1"/>
<text x="235.91785714285714" y="358" font-size="13" font-family="sans-serif" fill="#333" text-anchor="middle">6</text>
<line x1="286.447619047619" y1="340" x2="286.447619047619" y2="345" stroke="black" stroke-width="1"/>
<text x="286.447619047619" y="358" font-size="13" font-family="sans-serif" fill="#333" text-anchor="middle">7</text>
<line x1="336.97738095238094" y1="340" x2="336.97738095238094" y2="345" stroke="black" stroke-width="1"/>
<text x="336.97738095238094" y="358" font-size="13" font-family="sans-serif" fill="#333" text-anchor="middle">8</text>
<line x1="387.50714285714287" y1="340" x2="387.50714285714287" y2="345" stroke="black" stroke-width="1"/>
<text x="387.50714285714287" y="358" font-size="13" font-family="sans-serif" fill="#333" text-anchor="middle">9</text>
<text x="238.25" y="363" font-size="15" font-family="sans-serif" fill="#333" text-anchor="middle" dominant-baseline="text-before-edge">sepal_length</text>
<line x1="75" y1="40" x2="75" y2="340" stroke="black" stroke-width="1"/>
<line x1="70" y1="340" x2="75" y2="340" stroke="black" stroke-width="1"/>
<text x="67" y="340" font-size="13" font-family="sans-serif" fill="#333" text-anchor="end" dominant-baseline="middle">0.0</text>
<line x1="70" y1="292.1428571428571" x2="75" y2="292.1428571428571" stroke="black" stroke-width="1"/>
<text x="67" y="292.1428571428571" font-size="13" font-family="sans-serif" fill="#333" text-anchor="end" dominant-baseline="middle">0.2</text>
<line x1="70" y1="244.28571428571428" x2="75" y2="244.28571428571428" stroke="black" stroke-width="1"/>
<text x="67" y="244.28571428571428" font-size="13" font-family="sans-serif" fill="#333" text-anchor="end" dominant-baseline="middle">0.4</text>
<line x1="70" y1="196.42857142857142" x2="75" y2="196.42857142857142" stroke="black" stroke-width="1"/>
<text x="67" y="196.42857142857142" font-size="13" font-family="sans-serif" fill="#333" text-anchor="end" dominant-baseline="middle">0.6</text>
<line x1="70" y1="148.57142857142853" x2="75" y2="148.57142857142853" stroke="black" stroke-width="1"/>
<text x="67" y="148.57142857142853" font-size="13" font-family="sans-serif" fill="#333" text-anchor="end" dominant-baseline="middle">0.8</text>
<line x1="70" y1="100.7142857142857" x2="75" y2="100.7142857142857" stroke="black" stroke-width="1"/>
<text x="67" y="100.7142857142857" font-size="13" font-family="sans-serif" fill="#333" text-anchor="end" dominant-baseline="middle">1.0</text>
<line x1="70" y1="52.85714285714283" x2="75" y2="52.85714285714283" stroke="black" stroke-width="1"/>
<text x="67" y="52.85714285714283" font-size="13" font-family="sans-serif" fill="#333" text-anchor="end" dominant-baseline="middle">1.2</text>
<text x="36.8" y="190" font-size="15" font-family="sans-serif" fill="#333" text-anchor="middle" transform="rotate(-90, 36.8, 190)">density</text>
<text x="416.5" y="55" font-size="15" font-family="sans-serif" text-anchor="start" font-weight="bold">species</text>
<rect x="416.5" y="67.5" width="15" height="15" fill="#1f77b4" stroke="black" stroke-width="0.0" fill-opacity="0.5"/>
<text x="436.5" y="75" font-size="13" font-family="sans-serif" dominant-baseline="middle">setosa</text>
<rect x="416.5" y="87.5" width="15" height="15" fill="#ff7f0e" stroke="black" stroke-width="0.0" fill-opacity="0.5"/>
<text x="436.5" y="95" font-size="13" font-family="sans-serif" dominant-baseline="middle">versicolor</text>
<rect x="416.5" y="107.5" width="15" height="15" fill="#2ca02c" stroke="black" stroke-width="0.0" fill-opacity="0.5"/>
<text x="436.5" y="115" font-size="13" font-family="sans-serif" dominant-baseline="middle">virginica</text>
</svg>