<svg width="500" height="400" viewBox="0 0 500 400" xmlns="http://www.w3.org/2000/svg"><rect width="100%" height="100%" fill="white" /><text x="250" y="18" font-size="18" font-family="sans-serif" fill="#333" text-anchor="middle">Cumulative Density Estimation</text>
<path d="M 142.50001311302185 340 L 142.50001311302185 339.3533410911914 L 143.80626678466797 338.68659706087783 L 145.1125204563141 337.99964574631304 L 146.4187741279602 337.2923843609169 L 147.72502779960632 336.5647304896265 L 149.03128147125244 335.8166220225394 L 150.3374695777893 335.04801781848073 L 151.64372324943542 334.2588950507343 L 152.94997692108154 333.4492510650307 L 154.25623059272766 332.61910550296307 L 155.56248426437378 331.76849499344826 L 156.8687379360199 330.89747739955783 L 158.17499160766602 330.00612810254097 L 159.48124527931213 329.09454371780157 L 160.78749895095825 328.1628357246518 L 162.09375262260437 327.2111368365586 L 163.4000062942505 326.2395935691893 L 164.7062599658966 325.2483715489507 L 166.01251363754272 324.23765232786536 L 167.31876730918884 323.20763126015663 L 168.62502098083496 322.1585175022483 L 169.93127465248108 321.09053932130337 L 171.2375283241272 320.0039302930236 L 172.54378199577332 318.8989409804344 L 173.84997010231018 317.77583468705416 L 175.1562237739563 316.634883210063 L 176.46247744560242 315.4763689637184 L 177.76873111724854 314.3005786091089 L 179.07498478889465 313.10781579464674 L 180.38123846054077 311.8983841687441 L 181.6874921321869 310.672600120306 L 182.993745803833 309.43078216165304 L 184.29999947547913 308.1732551753521 L 185.60625314712524 306.9003461673856 L 186.91250681877136 305.61238426715136 L 188.21876049041748 304.30970922112465 L 189.5250141620636 302.9926607757807 L 190.83126783370972 301.66157230734825 L 192.13752150535583 300.3167835623026 L 193.44377517700195 298.9586342871189 L 194.75002884864807 297.58746422827244 L 196.0562825202942 296.2036173790693 L 197.36247062683105 294.8074249923229 L 198.66872429847717 293.39921832084656 L 199.9749779701233 291.9793413579464 L 201.2812316417694 290.5481168627739 L 202.58748531341553 289.10587184131145 L 203.89373898506165 287.6529332995415 L 205.19999265670776 286.18961974978447 L 206.50624632835388 284.7162412106991 L 207.8125 283.2331161946058 L 209.11875367164612 281.74054622650146 L 210.42500734329224 280.2388285845518 L 211.73126101493835 278.7282647937536 L 213.03751468658447 277.20914363861084 L 214.3437683582306 275.6817411631346 L 215.6500220298767 274.14634615182877 L 216.95627570152283 272.6032219082117 L 218.26252937316895 271.05263598263264 L 219.5687174797058 269.49484318494797 L 220.87497115135193 267.930106818676 L 222.18122482299805 266.35865196585655 L 223.48747849464417 264.78073343634605 L 224.79373216629028 263.1965720653534 L 226.0999858379364 261.60639718174934 L 227.40623950958252 260.0104211270809 L 228.71249318122864 258.40884774923325 L 230.01874685287476 256.80188089609146 L 231.32500052452087 255.18971592187881 L 232.631254196167 253.57253968715668 L 233.9375078678131 251.95052206516266 L 235.24376153945923 250.32383292913437 L 236.55001521110535 248.69263365864754 L 237.85626888275146 247.05709412693977 L 239.16252255439758 245.4173332452774 L 240.4687762260437 243.77350389957428 L 241.77502989768982 242.12571650743484 L 243.08121800422668 240.47411546111107 L 244.3874716758728 238.81881967186928 L 245.69372534751892 237.15991407632828 L 246.99997901916504 235.49750059843063 L 248.30623269081116 233.8316811621189 L 249.61248636245728 232.16252371668818 L 250.9187400341034 230.49013018608096 L 252.2249937057495 228.81455153226855 L 253.53124737739563 227.13586419820788 L 254.83750104904175 225.45411914587024 L 256.14375472068787 223.76938432455066 L 257.450008392334 222.08168521523478 L 258.7562620639801 220.39108127355578 L 260.0625157356262 218.6975979804993 L 261.36876940727234 217.0012862980366 L 262.67502307891846 215.30218020081523 L 263.9812767505646 213.60029667615893 L 265.2875304222107 211.89567819237712 L 266.59371852874756 210.18833324313167 L 267.8999722003937 208.47830429673198 L 269.2062258720398 206.7656083405018 L 270.5124795436859 205.05027085542682 L 271.81873321533203 203.3323258161545 L 273.12498688697815 201.61179021000865 L 274.43124055862427 199.88869801163676 L 275.7374942302704 198.1630747020245 L 277.0437479019165 196.434979736805 L 278.3500015735626 194.7044470906258 L 279.65625524520874 192.9715192317963 L 280.96250891685486 191.23624712228778 L 282.268762588501 189.4986987113953 L 283.5750162601471 187.75890797376636 L 284.8812699317932 186.0169938206673 L 286.18752360343933 184.2730072140694 L 287.49377727508545 182.52705007791522 L 288.80003094673157 180.77919036149981 L 290.10621905326843 179.02958095073703 L 291.41247272491455 177.27832376956943 L 292.71872639656067 175.52553772926333 L 294.0249800682068 173.7713757157326 L 295.3312337398529 172.01597362756732 L 296.637487411499 170.2595013380051 L 297.94374108314514 168.50212872028354 L 299.24999475479126 166.74405962228778 L 300.5562484264374 164.98544692993167 L 301.8625020980835 163.22654545307162 L 303.1687557697296 161.46755903959277 L 304.47500944137573 159.708708524704 L 305.78126311302185 157.9502657055855 L 307.08751678466797 156.19246840476993 L 308.3937704563141 154.4356054067612 L 309.7000241279602 152.67993152141574 L 311.0062777996063 150.92578649520877 L 312.31253147125244 149.17344212532046 L 313.6187195777893 147.42323815822604 L 314.9249732494354 145.6754803657532 L 316.23122692108154 143.93050849437716 L 317.53748059272766 142.18869626522067 L 318.8437342643738 140.45038342475894 L 320.1499879360199 138.71596068143847 L 321.456241607666 136.98580175638202 L 322.76249527931213 135.26029735803607 L 324.06874895095825 133.5398551821709 L 325.37500262260437 131.824865937233 L 326.6812562942505 130.1157543063164 L 327.9875099658966 128.4129109978676 L 329.2937636375427 126.71681165695193 L 330.60001730918884 125.0278469920159 L 331.90627098083496 123.34645867347723 L 333.2125246524811 121.67310535907751 L 334.5187783241272 120.00821173191076 L 335.8250319957733 118.3522534370423 L 337.1312201023102 116.70567214488989 L 338.4374737739563 115.06890952587133 L 339.7437274456024 113.44240725040441 L 341.04998111724854 111.8266579508782 L 342.35623478889465 110.22208631038671 L 343.66248846054077 108.62916797399527 L 344.9687421321869 107.04834461212164 L 346.274995803833 105.48004090785986 L 347.5812494754791 103.92471551895147 L 348.88750314712524 102.38284409046179 L 350.19375681877136 100.85485130548483 L 351.5000104904175 99.34114485979086 L 352.8062641620636 97.84216642379766 L 354.1125178337097 96.35835766792303 L 355.41877150535583 94.89010930061346 L 356.72502517700195 93.43782901763922 L 358.03127884864807 92.00194150209433 L 359.3375325202942 90.58283746242529 L 360.64372062683105 89.18089061975485 L 361.9499742984772 87.79645770788198 L 363.2562279701233 86.4299294352532 L 364.56254720687866 85.08164554834372 L 365.8687353134155 83.75194579362875 L 367.1750545501709 82.44116991758352 L 368.48124265670776 81.14960670471197 L 369.78756189346313 79.87759590148931 L 371.09375 78.62539231777197 L 372.39993810653687 77.39328473806387 L 373.70625734329224 76.18156194686895 L 375.0124454498291 74.99044477939611 L 376.3187646865845 73.820171058178 L 377.62495279312134 72.67094463109976 L 378.9312720298767 71.54298633337027 L 380.2374601364136 70.43646603822714 L 381.54377937316895 69.35157060623175 L 382.8499674797058 68.28841894865042 L 384.1562867164612 67.247163951397 L 385.46247482299805 66.22792452573782 L 386.7687940597534 65.23080259561544 L 388.0749821662903 64.25584912300116 L 389.38130140304565 63.30314904451376 L 390.6874895095825 62.37275332212454 L 391.9938087463379 61.46467894315725 L 393.29999685287476 60.578925907611904 L 394.6061849594116 59.71547722816473 L 395.912504196167 58.87428194284445 L 397.21869230270386 58.05534005165106 L 398.52501153945923 57.25851565599447 L 399.8311996459961 56.48377478122717 L 401.13751888275146 55.73098152875906 L 402.44370698928833 55.00000000000006 L 402.44370698928833 340" fill="purple" stroke="none" stroke-width="1" fill-opacity="0.3" />
<line x1="75" y1="340" x2="450" y2="340" stroke="black" stroke-dasharray="5,5" />
<line x1="75" y1="340" x2="450" y2="340" stroke="black" stroke-width="1"/>
<line x1="87.5" y1="340" x2="87.5" y2="345" stroke="black" stroke-width="1"/>
<text x="87.5" y="358" font-size="13" font-family="sans-serif" fill="#333" text-anchor="middle">6.0</text>
<line x1="156.25" y1="340" x2="156.25" y2="345" stroke="black" stroke-width="1"/>
<text x="156.25" y="358" font-size="13" font-family="sans-serif" fill="#333" text-anchor="middle">6.5</text>
<line x1="225" y1="340" x2="225" y2="345" stroke="black" stroke-width="1"/>
<text x="225" y="358" font-size="13" font-family="sans-serif" fill="#333" text-anchor="middle">7.0</text>
<line x1="293.7500000000001" y1="340" x2="293.7500000000001" y2="345" stroke="black" stroke-width="1"/>
<text x="293.7500000000001" y="358" font-size="13" font-family="sans-serif" fill="#333" text-anchor="middle">7.5</text>
<line x1="362.5" y1="340" x2="362.5" y2="345" stroke="black" stroke-width="1"/>
<text x="362.5" y="358" font-size="13" font-family="sans-serif" fill="#333" text-anchor="middle">8.0</text>
<line x1="431.25" y1="340" x2="431.25" y2="345" stroke="black" stroke-width="1"/>
<text x="431.25" y="358" font-size="13" font-family="sans-serif" fill="#333" text-anchor="middle">8.5</text>
<text x="262.5" y="363" font-size="15" font-family="sans-serif" fill="#333" text-anchor="middle" dominant-baseline="text-before-edge">IMDB Rating</text>
<line x1="75" y1="40" x2="75" y2="340" stroke="black" stroke-width="1"/>
<line x1="70" y1="340" x2="75" y2="340" stroke="black" stroke-width="1"/>
<text x="67" y="340" font-size="13" font-family="sans-serif" fill="#333" text-anchor="end" dominant-baseline="middle">0.0</text>
<line x1="70" y1="283" x2="75" y2="283" stroke="black" stroke-width="1"/>
<text x="67" y="283" font-size="13" font-family="sans-serif" fill="#333" text-anchor="end" dominant-baseline="middle">0.2</text>
<line x1="70" y1="226" x2="75" y2="226" stroke="black" stroke-width="1"/>
<text x="67" y="226" font-size="13" font-family="sans-serif" fill="#333" text-anchor="end" dominant-baseline="middle">0.4</text>
<line x1="70" y1="169" x2="75" y2="169" stroke="black" stroke-width="1"/>
<text x="67" y="169" font-size="13" font-family="sans-serif" fill="#333" text-anchor="end" dominant-baseline="middle">0.6</text>
<line x1="70" y1="112.00000000000003" x2="75" y2="112.00000000000003" stroke="black" stroke-width="1"/>
<text x="67" y="112.00000000000003" font-size="13" font-family="sans-serif" fill="#333" text-anchor="end" dominant-baseline="middle">0.8</text>
<line x1="70" y1="55" x2="75" y2="55" stroke="black" stroke-width="1"/>
<text x="67" y="55" font-size="13" font-family="sans-serif" fill="#333" text-anchor="end" dominant-baseline="middle">1.0</text>
<text x="36.8" y="190" font-size="15" font-family="sans-serif" fill="#333" text-anchor="middle" transform="rotate(-90, 36.8, 190)">Cumulative Density</text>
</svg>