<svg width="500" height="400" viewBox="0 0 500 400" xmlns="http://www.w3.org/2000/svg"><rect width="100%" height="100%" fill="white" /><text x="250" y="18" font-size="18" font-family="sans-serif" fill="#333" text-anchor="middle">Cumulative Density Estimation</text>
<path d="M 117.5223137651171 340 L 117.5223137651171 339.97007826208574 L 119.04911335025514 339.93571743289067 L 120.5759129353932 339.8963681263558 L 122.10266462394169 339.851430276467 L 123.62946420907974 339.8002504062606 L 125.1562637942178 339.7421200000099 L 126.68301548276628 339.6762739645783 L 128.20981506790434 339.60188836499583 L 129.73661465304238 339.5180801092647 L 131.26341423818045 339.42390610231087 L 132.79016592672892 339.3183635280002 L 134.31696551186698 339.2003890196793 L 135.84376509700502 339.0688608167693 L 137.37051678555352 338.9226002909709 L 138.89731637069158 338.76037314068526 L 140.42411595582962 338.5808929079212 L 141.95091554096766 338.38282469427213 L 143.47766722951616 338.16479000495747 L 145.00446681465422 337.925369204022 L 146.53126639979226 337.66310907900333 L 148.05801808834076 337.37653027288616 L 149.58481767347882 337.0641299383715 L 151.11161725861686 336.7243924876675 L 152.63836894716536 336.3557983515784 L 154.1651685323034 335.9568276954815 L 155.69196811744143 335.52597315981984 L 157.2187677025795 335.0617483537644 L 158.745519391128 334.5626958180219 L 160.27231897626604 334.0273960493505 L 161.7991185614041 333.4544762596488 L 163.32587024995257 332.842625239864 L 164.85266983509064 332.19059070572257 L 166.3794694202287 331.4971989393234 L 167.90626900536674 330.7613569125533 L 169.43302069391524 329.98206343501806 L 170.95982027905328 329.15840862318873 L 172.4866198641913 328.2895898260176 L 174.01337155273984 327.374912686646 L 175.54017113787785 326.41379008069634 L 177.0669707230159 325.40575485676527 L 178.59377030815398 324.35045558959246 L 180.12052199670245 323.2476618885994 L 181.64732158184052 322.09726121276617 L 183.17412116697858 320.89926205575466 L 184.70087285552705 319.6537918224931 L 186.22767244066512 318.36108833551407 L 187.75447202580318 317.02150620520115 L 189.2812716109412 315.63550408929586 L 190.80802329948972 314.20364681631327 L 192.33482288462773 312.7265905216336 L 193.8616224697658 311.2050847709179 L 195.38837415831432 309.6399661898613 L 196.91517374345233 308.03214360028505 L 198.4419733285904 306.3825895264745 L 199.96877291372846 304.6923465654254 L 201.49552460227693 302.9625082761049 L 203.022324187415 301.19421280920506 L 204.54912377255306 299.3886386603117 L 206.07587546110153 297.54698768258095 L 207.6026750462396 295.6704914569855 L 209.1294746313776 293.76040279865265 L 210.65622631992613 291.81797452270985 L 212.1830259050642 289.8444679379463 L 213.7098254902022 287.8411401063204 L 215.23662507534027 285.80924808979034 L 216.76337676388877 283.75003196299076 L 218.2901763490268 281.6647148132324 L 219.81697593416487 279.55450274050236 L 221.34372762271335 277.42058485746384 L 222.8705272078514 275.2641078084707 L 224.39732679298947 273.08620549738407 L 225.9241263781275 270.88797360658646 L 227.450878066676 268.67047384381294 L 228.97767765181405 266.43472969532013 L 230.50447723695208 264.1817179322243 L 232.0312289255006 261.91240683197975 L 233.55802851063865 259.6277052164078 L 235.0848280957767 257.3284624516964 L 236.61162768091475 255.0155109167099 L 238.13837936946322 252.6896320283413 L 239.6651789546013 250.35154774785042 L 241.19197853973935 248.0019460618496 L 242.71873022828782 245.64147248864174 L 244.2455298134259 243.2707215845585 L 245.77232939856393 240.8902284502983 L 247.29912898370196 238.50049421191216 L 248.8258806722505 236.10197752714157 L 250.35268025738853 233.69507759809494 L 251.87947984252656 231.28015115857127 L 253.40623153107506 228.85752096772197 L 254.9330311162131 226.4274673163891 L 256.45983070135117 223.99023652076724 L 257.98663028648923 221.5460239350796 L 259.5133819750377 219.09501641988757 L 261.0401815601757 216.6373583674431 L 262.5669811453138 214.17316868901256 L 264.0937328338623 211.702583283186 L 265.62053241900037 209.22567859292033 L 267.14733200413843 206.74256503582004 L 268.67408369268685 204.2533275485039 L 270.2008832778249 201.75807654857638 L 271.727682862963 199.25690546631816 L 273.25448244810104 196.74999266862872 L 274.7812341366496 194.23744857311252 L 276.30803372178764 191.71948552131656 L 277.8348333069256 189.19632434844974 L 279.3615849954741 186.66823685169223 L 280.8883845806122 184.1355457901955 L 282.41518416575025 181.59864187240603 L 283.9419837508883 179.05791580677035 L 285.4687354394367 176.51389420032504 L 286.9955350245748 173.96712064743045 L 288.52233460971286 171.41820669174197 L 290.0490862982614 168.86788278818133 L 291.57588588339945 166.31687939167026 L 293.1026854685375 163.76606285572055 L 294.62948505367547 161.21636748313907 L 296.156236742224 158.66874456405642 L 297.68303632736206 156.12428128719333 L 299.2098359125001 153.58406484127048 L 300.73658760104865 151.04933530092242 L 302.2633871861866 148.52134972810748 L 303.79018677132467 146.00141614675525 L 305.31698635646273 143.49094450473788 L 306.84373804501126 140.99134474992755 L 308.37053763014933 138.50412875413897 L 309.8973372152874 136.0308423638344 L 311.4240889038358 133.57301443815234 L 312.9508884889739 131.1322927474976 L 314.47768807411194 128.71029108762744 L 316.00448765925 126.30869120359424 L 317.53123934779853 123.92914086580282 L 319.0580389329365 121.573355793953 L 320.58483851807455 119.24298375844961 L 322.1115902066231 116.93972349166876 L 323.63838979176114 114.66525673866278 L 325.1651893768992 112.42123126983648 L 326.6919410654476 110.20929485559469 L 328.2187406505857 108.0310612916947 L 329.74554023572375 105.88807642459875 L 331.2723398208618 103.7818861007691 L 332.79909150941035 101.71398520469671 L 334.3258910945484 99.68580067157751 L 335.85269067968636 97.6987254619599 L 337.3794423682349 95.75406759977346 L 338.9062898499625 93.85306715965277 L 340.433041538511 91.99689626693731 L 341.9597932270595 90.18665909767157 L 343.4866407087871 88.42337489128118 L 345.01339239733556 86.70797795057302 L 346.5401440858841 85.04128366708761 L 348.0669915676117 83.42405647039419 L 349.5937432561602 81.85692489147192 L 351.1204949447087 80.34046649932867 L 352.6473424264363 78.87510597705847 L 354.17409411498477 77.46116608381277 L 355.7008458035333 76.09888464212423 L 357.2276932852609 74.78839755058294 L 358.75444497380937 73.52967083454138 L 360.28129245553697 72.3226365447045 L 361.80804414408544 71.16703987121588 L 363.334795832634 70.06255805492407 L 364.8616433143616 69.00874942541128 L 366.3883950029101 68.00507038831716 L 367.9151466914586 67.05082446336752 L 369.4419941731862 66.14528119564062 L 370.96874586173465 65.28757423162466 L 372.4954975502832 64.47670131921774 L 374.0223450320108 63.71162623167044 L 375.54909672055925 62.991193830967006 L 377.0758484091077 62.31419801712042 L 378.6026958908353 61.679330766201076 L 380.12944757938385 61.08525007963186 L 381.65629506111145 60.53051203489309 L 383.18304674966 60.01365572214132 L 384.70979843820845 59.53315228223806 L 386.23664591993605 59.087455868721065 L 387.7633976084845 58.67500364780432 L 389.29014929703305 58.29421579837805 L 390.81699677876065 57.9434615373612 L 392.3437484673091 57.62114405632025 L 393.8705001558576 57.32570052146917 L 395.3973476375852 57.05555111169821 L 396.9240993261337 56.80913299322134 L 398.45085101468226 56.58493429422384 L 399.97769849640986 56.38144314289099 L 401.50445018495833 56.19724959135061 L 403.03129766668593 56.030926704406795 L 404.5580493552344 55.88114947080618 L 406.08480104378293 55.74664384126669 L 407.61164852551053 55.62615275383001 L 409.138400214059 55.5185210704804 L 410.6651519026075 55.4226446151734 L 412.1919993843351 55.33743619918829 L 413.7187510728836 55.261944532394466 L 415.24550276143214 55.195252299308834 L 416.77235024315974 55.13645917177206 L 418.2991019317082 55.0848007202149 L 419.8258536202567 55.03954648971563 L 421.3527011019843 55.00000000000006 L 421.3527011019843 340" fill="purple" stroke="none" stroke-width="1" fill-opacity="0.3" />
<line x1="75" y1="340" x2="450" y2="340" stroke="black" stroke-dasharray="5,5" />
<line x1="75" y1="340" x2="450" y2="340" stroke="black" stroke-width="1"/>
<line x1="84.375" y1="340" x2="84.375" y2="345" stroke="black" stroke-width="1"/>
<text x="84.375" y="358" font-size="13" font-family="sans-serif" fill="#333" text-anchor="middle">5.5</text>
<line x1="134.59821428571428" y1="340" x2="134.59821428571428" y2="345" stroke="black" stroke-width="1"/>
<text x="134.59821428571428" y="358" font-size="13" font-family="sans-serif" fill="#333" text-anchor="middle">6.0</text>
<line x1="184.82142857142856" y1="340" x2="184.82142857142856" y2="345" stroke="black" stroke-width="1"/>
<text x="184.82142857142856" y="358" font-size="13" font-family="sans-serif" fill="#333" text-anchor="middle">6.5</text>
<line x1="235.04464285714286" y1="340" x2="235.04464285714286" y2="345" stroke="black" stroke-width="1"/>
<text x="235.04464285714286" y="358" font-size="13" font-family="sans-serif" fill="#333" text-anchor="middle">7.0</text>
<line x1="285.2678571428572" y1="340" x2="285.2678571428572" y2="345" stroke="black" stroke-width="1"/>
<text x="285.2678571428572" y="358" font-size="13" font-family="sans-serif" fill="#333" text-anchor="middle">7.5</text>
<line x1="335.49107142857144" y1="340" x2="335.49107142857144" y2="345" stroke="black" stroke-width="1"/>
<text x="335.49107142857144" y="358" font-size="13" font-family="sans-serif" fill="#333" text-anchor="middle">8.0</text>
<line x1="385.7142857142857" y1="340" x2="385.7142857142857" y2="345" stroke="black" stroke-width="1"/>
<text x="385.7142857142857" y="358" font-size="13" font-family="sans-serif" fill="#333" text-anchor="middle">8.5</text>
<line x1="435.9375" y1="340" x2="435.9375" y2="345" stroke="black" stroke-width="1"/>
<text x="435.9375" y="358" font-size="13" font-family="sans-serif" fill="#333" text-anchor="middle">9.0</text>
<text x="262.5" y="363" font-size="15" font-family="sans-serif" fill="#333" text-anchor="middle" dominant-baseline="text-before-edge">IMDB Rating</text>
<line x1="75" y1="40" x2="75" y2="340" stroke="black" stroke-width="1"/>
<line x1="70" y1="340" x2="75" y2="340" stroke="black" stroke-width="1"/>
<text x="67" y="340" font-size="13" font-family="sans-serif" fill="#333" text-anchor="end" dominant-baseline="middle">0.0</text>
<line x1="70" y1="283" x2="75" y2="283" stroke="black" stroke-width="1"/>
<text x="67" y="283" font-size="13" font-family="sans-serif" fill="#333" text-anchor="end" dominant-baseline="middle">0.2</text>
<line x1="70" y1="226" x2="75" y2="226" stroke="black" stroke-width="1"/>
<text x="67" y="226" font-size="13" font-family="sans-serif" fill="#333" text-anchor="end" dominant-baseline="middle">0.4</text>
<line x1="70" y1="169" x2="75" y2="169" stroke="black" stroke-width="1"/>
<text x="67" y="169" font-size="13" font-family="sans-serif" fill="#333" text-anchor="end" dominant-baseline="middle">0.6</text>
<line x1="70" y1="112.00000000000003" x2="75" y2="112.00000000000003" stroke="black" stroke-width="1"/>
<text x="67" y="112.00000000000003" font-size="13" font-family="sans-serif" fill="#333" text-anchor="end" dominant-baseline="middle">0.8</text>
<line x1="70" y1="55" x2="75" y2="55" stroke="black" stroke-width="1"/>
<text x="67" y="55" font-size="13" font-family="sans-serif" fill="#333" text-anchor="end" dominant-baseline="middle">1.0</text>
<text x="36.8" y="190" font-size="15" font-family="sans-serif" fill="#333" text-anchor="middle" transform="rotate(-90, 36.8, 190)">Cumulative Density</text>
</svg>