<svg width="500" height="400" viewBox="0 0 500 400" xmlns="http://www.w3.org/2000/svg"><rect width="100%" height="100%" fill="rgba(255,255,255,1.000)" /><line x1="87.20" y1="336.00" x2="418.52" y2="336.00" stroke="rgba(51,51,51,1.000)" stroke-width="1" stroke-linecap="square"/>
<line x1="252.86" y1="336.00" x2="252.86" y2="342.00" stroke="rgba(51,51,51,1.000)" stroke-width="1.0"/>
<text x="252.86" y="345.00" font-size="13" font-family="Inter, -apple-system, BlinkMacSystemFont, 'Segoe UI', Roboto, Helvetica, Arial, 'PingFang SC', 'Microsoft YaHei', Ubuntu, Cantarell, 'Noto Sans', sans-serif" fill="rgba(51,51,51,1.000)" text-anchor="middle" dominant-baseline="hanging"></text>
<line x1="87.20" y1="40.00" x2="87.20" y2="336.00" stroke="rgba(51,51,51,1.000)" stroke-width="1" stroke-linecap="square"/>
<line x1="87.20" y1="336.00" x2="81.20" y2="336.00" stroke="rgba(51,51,51,1.000)" stroke-width="1.0"/>
<text x="77.20" y="336.00" font-size="13" font-family="Inter, -apple-system, BlinkMacSystemFont, 'Segoe UI', Roboto, Helvetica, Arial, 'PingFang SC', 'Microsoft YaHei', Ubuntu, Cantarell, 'Noto Sans', sans-serif" fill="rgba(51,51,51,1.000)" text-anchor="end" dominant-baseline="central">0</text>
<line x1="87.20" y1="290.46" x2="81.20" y2="290.46" stroke="rgba(51,51,51,1.000)" stroke-width="1.0"/>
<text x="77.20" y="290.46" font-size="13" font-family="Inter, -apple-system, BlinkMacSystemFont, 'Segoe UI', Roboto, Helvetica, Arial, 'PingFang SC', 'Microsoft YaHei', Ubuntu, Cantarell, 'Noto Sans', sans-serif" fill="rgba(51,51,51,1.000)" text-anchor="end" dominant-baseline="central">20</text>
<line x1="87.20" y1="244.92" x2="81.20" y2="244.92" stroke="rgba(51,51,51,1.000)" stroke-width="1.0"/>
<text x="77.20" y="244.92" font-size="13" font-family="Inter, -apple-system, BlinkMacSystemFont, 'Segoe UI', Roboto, Helvetica, Arial, 'PingFang SC', 'Microsoft YaHei', Ubuntu, Cantarell, 'Noto Sans', sans-serif" fill="rgba(51,51,51,1.000)" text-anchor="end" dominant-baseline="central">40</text>
<line x1="87.20" y1="199.38" x2="81.20" y2="199.38" stroke="rgba(51,51,51,1.000)" stroke-width="1.0"/>
<text x="77.20" y="199.38" font-size="13" font-family="Inter, -apple-system, BlinkMacSystemFont, 'Segoe UI', Roboto, Helvetica, Arial, 'PingFang SC', 'Microsoft YaHei', Ubuntu, Cantarell, 'Noto Sans', sans-serif" fill="rgba(51,51,51,1.000)" text-anchor="end" dominant-baseline="central">60</text>
<line x1="87.20" y1="153.85" x2="81.20" y2="153.85" stroke="rgba(51,51,51,1.000)" stroke-width="1.0"/>
<text x="77.20" y="153.85" font-size="13" font-family="Inter, -apple-system, BlinkMacSystemFont, 'Segoe UI', Roboto, Helvetica, Arial, 'PingFang SC', 'Microsoft YaHei', Ubuntu, Cantarell, 'Noto Sans', sans-serif" fill="rgba(51,51,51,1.000)" text-anchor="end" dominant-baseline="central">80</text>
<line x1="87.20" y1="108.31" x2="81.20" y2="108.31" stroke="rgba(51,51,51,1.000)" stroke-width="1.0"/>
<text x="77.20" y="108.31" font-size="13" font-family="Inter, -apple-system, BlinkMacSystemFont, 'Segoe UI', Roboto, Helvetica, Arial, 'PingFang SC', 'Microsoft YaHei', Ubuntu, Cantarell, 'Noto Sans', sans-serif" fill="rgba(51,51,51,1.000)" text-anchor="end" dominant-baseline="central">100</text>
<line x1="87.20" y1="62.77" x2="81.20" y2="62.77" stroke="rgba(51,51,51,1.000)" stroke-width="1.0"/>
<text x="77.20" y="62.77" font-size="13" font-family="Inter, -apple-system, BlinkMacSystemFont, 'Segoe UI', Roboto, Helvetica, Arial, 'PingFang SC', 'Microsoft YaHei', Ubuntu, Cantarell, 'Noto Sans', sans-serif" fill="rgba(51,51,51,1.000)" text-anchor="end" dominant-baseline="central">120</text>
<text x="47.50" y="188.00" text-anchor="middle" font-size="15" font-family="Inter, -apple-system, BlinkMacSystemFont, 'Segoe UI', Roboto, Helvetica, Arial, 'PingFang SC', 'Microsoft YaHei', Ubuntu, Cantarell, 'Noto Sans', sans-serif" fill="rgba(51,51,51,1.000)" font-weight="bold" transform="rotate(-90, 47.50, 188.00)" dominant-baseline="middle">value</text>
<defs><clipPath id="plot-clip-area"><rect x="87.200" y="40.000" width="331.320" height="296.000" /></clipPath></defs>
<polygon points="252.860,114.000 252.860,40.000 261.796,40.270 270.699,41.079 279.538,42.424 288.279,44.301 296.890,46.701 305.342,49.618 313.601,53.039 321.639,56.953 329.426,61.344 336.934,66.198 344.134,71.497 351.002,77.220 357.512,83.348 363.640,89.858 369.363,96.726 374.662,103.926 379.516,111.434 383.908,119.221 387.821,127.259 391.242,135.518 322.051,161.759 320.341,157.629 318.384,153.610 316.188,149.717 313.761,145.963 311.112,142.363 308.250,138.929 305.186,135.674 301.931,132.610 298.497,129.748 294.897,127.099 291.143,124.672 287.250,122.476 283.231,120.519 279.101,118.809 274.875,117.351 270.569,116.150 266.199,115.212 261.780,114.540 257.328,114.135" fill="rgba(31,119,180,1.000)" stroke="rgba(255,255,255,1.000)" stroke-width="1.000" fill-opacity="1.000" stroke-opacity="1.000" clip-path="url(#plot-clip-area)" />
<polygon points="322.051,161.759 391.242,135.518 394.159,143.970 396.559,152.581 398.436,161.322 399.781,170.161 400.590,179.064 400.860,188.000 400.590,196.936 399.781,205.839 398.436,214.678 396.559,223.419 394.159,232.030 391.242,240.482 387.821,248.741 383.908,256.779 379.516,264.566 374.662,272.074 369.363,279.274 363.640,286.142 357.512,292.652 351.002,298.780 344.134,304.503 336.934,309.802 329.426,314.656 321.639,319.047 287.250,253.524 291.143,251.328 294.897,248.901 298.497,246.252 301.931,243.390 305.186,240.326 308.250,237.071 311.112,233.637 313.761,230.037 316.188,226.283 318.384,222.390 320.341,218.371 322.051,214.241 323.509,210.015 324.710,205.709 325.648,201.339 326.320,196.920 326.725,192.468 326.860,188.000 326.725,183.532 326.320,179.080 325.648,174.661 324.710,170.291 323.509,165.985" fill="rgba(255,127,14,1.000)" stroke="rgba(255,255,255,1.000)" stroke-width="1.000" fill-opacity="1.000" stroke-opacity="1.000" clip-path="url(#plot-clip-area)" />
<polygon points="287.250,253.524 321.639,319.047 313.601,322.961 305.342,326.382 296.890,329.299 288.279,331.699 279.538,333.576 270.699,334.921 261.796,335.730 252.860,336.000 243.924,335.730 235.021,334.921 226.182,333.576 217.441,331.699 235.151,259.850 239.521,260.788 243.940,261.460 248.392,261.865 252.860,262.000 257.328,261.865 261.780,261.460 266.199,260.788 270.569,259.850 274.875,258.649 279.101,257.191 283.231,255.481" fill="rgba(44,160,44,1.000)" stroke="rgba(255,255,255,1.000)" stroke-width="1.000" fill-opacity="1.000" stroke-opacity="1.000" clip-path="url(#plot-clip-area)" />
<polygon points="235.151,259.850 217.441,331.699 208.554,329.213 199.839,326.177 191.331,322.604 183.061,318.507 175.063,313.904 167.368,308.810 160.005,303.247 153.003,297.236 146.389,290.800 140.189,283.965 134.427,276.756 129.126,269.202 124.305,261.333 119.985,253.178 116.181,244.770 112.909,236.142 110.180,227.326 108.007,218.357 106.396,209.270 105.356,200.101 104.888,190.884 104.996,181.656 105.679,172.453 106.934,163.311 108.756,154.264 111.139,145.348 114.073,136.599 117.546,128.049 121.545,119.732 126.055,111.681 131.058,103.926 191.959,145.963 189.458,149.840 187.203,153.866 185.203,158.025 183.466,162.299 181.999,166.674 180.808,171.132 179.897,175.655 179.269,180.227 178.928,184.828 178.874,189.442 179.108,194.050 179.628,198.635 180.433,203.179 181.520,207.663 182.884,212.071 184.521,216.385 186.422,220.589 188.583,224.666 190.993,228.601 193.644,232.378 196.524,235.982 199.624,239.400 202.931,242.618 206.432,245.624 210.114,248.405 213.962,250.952 217.961,253.254 222.095,255.302 226.350,257.088 230.707,258.606" fill="rgba(214,39,40,1.000)" stroke="rgba(255,255,255,1.000)" stroke-width="1.000" fill-opacity="1.000" stroke-opacity="1.000" clip-path="url(#plot-clip-area)" />
<polygon points="191.959,145.963 131.058,103.926 136.357,96.726 142.080,89.858 148.208,83.348 154.718,77.220 161.586,71.497 168.786,66.198 176.294,61.344 184.081,56.953 192.119,53.039 200.378,49.618 208.830,46.701 217.441,44.301 226.182,42.424 235.021,41.079 243.924,40.270 252.860,40.000 252.860,114.000 248.392,114.135 243.940,114.540 239.521,115.212 235.151,116.150 230.845,117.351 226.619,118.809 222.489,120.519 218.470,122.476 214.577,124.672 210.823,127.099 207.223,129.748 203.789,132.610 200.534,135.674 197.470,138.929 194.608,142.363" fill="rgba(148,103,189,1.000)" stroke="rgba(255,255,255,1.000)" stroke-width="1.000" fill-opacity="1.000" stroke-opacity="1.000" clip-path="url(#plot-clip-area)" />
<text x="433.520" y="49.600" font-size="13.2" font-family="Inter, -apple-system, BlinkMacSystemFont, 'Segoe UI', Roboto, Helvetica, Arial, 'PingFang SC', 'Microsoft YaHei', Ubuntu, Cantarell, 'Noto Sans', sans-serif" fill="rgba(51,51,51,1.000)" fill-opacity="1.000" text-anchor="start" font-weight="bold">category</text>
<circle cx="442.520" cy="69.200" r="5.000" fill="rgba(31,119,180,1.000)" stroke="none" stroke-width="0.000" fill-opacity="1.000" stroke-opacity="1.000" />
<text x="459.520" y="73.700" font-size="12.0" font-family="Inter, -apple-system, BlinkMacSystemFont, 'Segoe UI', Roboto, Helvetica, Arial, 'PingFang SC', 'Microsoft YaHei', Ubuntu, Cantarell, 'Noto Sans', sans-serif" fill="rgba(51,51,51,1.000)" fill-opacity="1.000" text-anchor="start" font-weight="normal">A</text>
<circle cx="442.520" cy="90.200" r="5.000" fill="rgba(255,127,14,1.000)" stroke="none" stroke-width="0.000" fill-opacity="1.000" stroke-opacity="1.000" />
<text x="459.520" y="94.700" font-size="12.0" font-family="Inter, -apple-system, BlinkMacSystemFont, 'Segoe UI', Roboto, Helvetica, Arial, 'PingFang SC', 'Microsoft YaHei', Ubuntu, Cantarell, 'Noto Sans', sans-serif" fill="rgba(51,51,51,1.000)" fill-opacity="1.000" text-anchor="start" font-weight="normal">B</text>
<circle cx="442.520" cy="111.200" r="5.000" fill="rgba(44,160,44,1.000)" stroke="none" stroke-width="0.000" fill-opacity="1.000" stroke-opacity="1.000" />
<text x="459.520" y="115.700" font-size="12.0" font-family="Inter, -apple-system, BlinkMacSystemFont, 'Segoe UI', Roboto, Helvetica, Arial, 'PingFang SC', 'Microsoft YaHei', Ubuntu, Cantarell, 'Noto Sans', sans-serif" fill="rgba(51,51,51,1.000)" fill-opacity="1.000" text-anchor="start" font-weight="normal">C</text>
<circle cx="442.520" cy="132.200" r="5.000" fill="rgba(214,39,40,1.000)" stroke="none" stroke-width="0.000" fill-opacity="1.000" stroke-opacity="1.000" />
<text x="459.520" y="136.700" font-size="12.0" font-family="Inter, -apple-system, BlinkMacSystemFont, 'Segoe UI', Roboto, Helvetica, Arial, 'PingFang SC', 'Microsoft YaHei', Ubuntu, Cantarell, 'Noto Sans', sans-serif" fill="rgba(51,51,51,1.000)" fill-opacity="1.000" text-anchor="start" font-weight="normal">E</text>
<circle cx="442.520" cy="153.200" r="5.000" fill="rgba(148,103,189,1.000)" stroke="none" stroke-width="0.000" fill-opacity="1.000" stroke-opacity="1.000" />
<text x="459.520" y="157.700" font-size="12.0" font-family="Inter, -apple-system, BlinkMacSystemFont, 'Segoe UI', Roboto, Helvetica, Arial, 'PingFang SC', 'Microsoft YaHei', Ubuntu, Cantarell, 'Noto Sans', sans-serif" fill="rgba(51,51,51,1.000)" fill-opacity="1.000" text-anchor="start" font-weight="normal">D</text>
</svg>