<svg width="500" height="400" viewBox="0 0 500 400" xmlns="http://www.w3.org/2000/svg"><rect width="100%" height="100%" fill="white" /><path d="M 243 70 A 120 120 0 0 1 355.2019491222498 147.44741355489575 L 299.1009745611249 168.72370677744786 A 60 60 0 0 0 243 130 L 243 70 Z" fill="#1f77b4" stroke="white" stroke-width="1" opacity="1"/>
<path d="M 355.2019491222498 147.44741355489575 A 120 120 0 0 1 298.76678064525225 296.25472307838515 L 270.8833903226261 243.12736153919258 A 60 60 0 0 0 299.1009745611249 168.72370677744786 L 355.2019491222498 147.44741355489575 Z" fill="#ff7f0e" stroke="white" stroke-width="1" opacity="1"/>
<path d="M 298.76678064525225 296.25472307838515 A 120 120 0 0 1 214.2821202854931 306.51301809112624 L 228.64106014274654 248.25650904556312 A 60 60 0 0 0 270.8833903226261 243.12736153919258 L 298.76678064525225 296.25472307838515 Z" fill="#2ca02c" stroke="white" stroke-width="1" opacity="1"/>
<path d="M 214.2821202854931 306.51301809112624 A 120 120 0 0 1 144.2419360927612 121.83223039226132 L 193.6209680463806 155.91611519613065 A 60 60 0 0 0 228.64106014274654 248.25650904556312 L 214.2821202854931 306.51301809112624 Z" fill="#d62728" stroke="white" stroke-width="1" opacity="1"/>
<path d="M 144.2419360927612 121.83223039226132 A 120 120 0 0 1 242.99999999999997 70 L 243 130 A 60 60 0 0 0 193.6209680463806 155.91611519613065 L 144.2419360927612 121.83223039226132 Z" fill="#9467bd" stroke="white" stroke-width="1" opacity="1"/>
<text x="426.5" y="55" font-size="15" font-family="Inter, -apple-system, BlinkMacSystemFont, 'Segoe UI', Roboto, Helvetica, Arial, 'PingFang SC', 'Microsoft YaHei', sans-serif" text-anchor="start" font-weight="bold">category</text>
<rect x="426.5" y="67.5" width="15" height="15" fill="#1f77b4" stroke="black" stroke-width="0.0" fill-opacity="1"/>
<text x="446.5" y="75" font-size="13" font-family="Inter, -apple-system, BlinkMacSystemFont, 'Segoe UI', Roboto, Helvetica, Arial, 'PingFang SC', 'Microsoft YaHei', sans-serif" dominant-baseline="middle">A</text>
<rect x="426.5" y="87.5" width="15" height="15" fill="#ff7f0e" stroke="black" stroke-width="0.0" fill-opacity="1"/>
<text x="446.5" y="95" font-size="13" font-family="Inter, -apple-system, BlinkMacSystemFont, 'Segoe UI', Roboto, Helvetica, Arial, 'PingFang SC', 'Microsoft YaHei', sans-serif" dominant-baseline="middle">B</text>
<rect x="426.5" y="107.5" width="15" height="15" fill="#2ca02c" stroke="black" stroke-width="0.0" fill-opacity="1"/>
<text x="446.5" y="115" font-size="13" font-family="Inter, -apple-system, BlinkMacSystemFont, 'Segoe UI', Roboto, Helvetica, Arial, 'PingFang SC', 'Microsoft YaHei', sans-serif" dominant-baseline="middle">C</text>
<rect x="426.5" y="127.5" width="15" height="15" fill="#d62728" stroke="black" stroke-width="0.0" fill-opacity="1"/>
<text x="446.5" y="135" font-size="13" font-family="Inter, -apple-system, BlinkMacSystemFont, 'Segoe UI', Roboto, Helvetica, Arial, 'PingFang SC', 'Microsoft YaHei', sans-serif" dominant-baseline="middle">E</text>
<rect x="426.5" y="147.5" width="15" height="15" fill="#9467bd" stroke="black" stroke-width="0.0" fill-opacity="1"/>
<text x="446.5" y="155" font-size="13" font-family="Inter, -apple-system, BlinkMacSystemFont, 'Segoe UI', Roboto, Helvetica, Arial, 'PingFang SC', 'Microsoft YaHei', sans-serif" dominant-baseline="middle">D</text>
</svg>