<svg width="500" height="400" viewBox="0 0 500 400" xmlns="http://www.w3.org/2000/svg"><rect width="100%" height="100%" fill="white" /><line x1="102.43697478991596" y1="181.45" x2="102.43697478991596" y2="167.20000000000002" stroke="black" stroke-width="1" />
<line x1="102.43697478991596" y1="155.79999999999998" x2="102.43697478991596" y2="138.70000000000002" stroke="black" stroke-width="1" />
<rect x="94.43452380952381" y="155.79999999999998" width="16.00490196078431" height="11.400000000000034" fill="#1f77b4" opacity="1" stroke="black" stroke-width="1" />
<line x1="94.43452380952381" y1="161.5" x2="110.43942577030812" y2="161.5" stroke="black" stroke-width="2" />
<line x1="121.64285714285714" y1="164.35" x2="121.64285714285714" y2="144.4" stroke="black" stroke-width="1" />
<line x1="121.64285714285714" y1="124.45000000000002" x2="121.64285714285714" y2="104.5" stroke="black" stroke-width="1" />
<rect x="113.64040616246498" y="124.45000000000002" width="16.00490196078431" height="19.94999999999999" fill="#ff7f0e" opacity="1" stroke="black" stroke-width="1" />
<line x1="113.64040616246498" y1="135.85" x2="129.6453081232493" y2="135.85" stroke="black" stroke-width="2" />
<line x1="140.8487394957983" y1="164.35" x2="140.8487394957983" y2="126.5875" stroke="black" stroke-width="1" />
<line x1="140.8487394957983" y1="107.35" x2="140.8487394957983" y2="78.85" stroke="black" stroke-width="1" />
<rect x="132.84628851540614" y="107.35" width="16.00490196078431" height="19.23750000000001" fill="#2ca02c" opacity="1" stroke="black" stroke-width="1" />
<line x1="132.84628851540614" y1="118.75" x2="148.85119047619045" y2="118.75" stroke="black" stroke-width="2" />
<circle cx="140.8487394957983" cy="164.35" r="3" fill="black" opacity="1" />
<line x1="180.17507002801122" y1="238.45" x2="180.17507002801122" y2="214.9375" stroke="black" stroke-width="1" />
<line x1="180.17507002801122" y1="199.2625" x2="180.17507002801122" y2="178.6" stroke="black" stroke-width="1" />
<rect x="172.17261904761907" y="199.2625" width="16.00490196078431" height="15.675000000000011" fill="#1f77b4" opacity="1" stroke="black" stroke-width="1" />
<line x1="172.17261904761907" y1="207.10000000000002" x2="188.17752100840337" y2="207.10000000000002" stroke="black" stroke-width="2" />
<line x1="199.38095238095238" y1="247" x2="199.38095238095238" y2="232.03750000000002" stroke="black" stroke-width="1" />
<line x1="199.38095238095238" y1="218.5" x2="199.38095238095238" y2="207.10000000000002" stroke="black" stroke-width="1" />
<rect x="191.37850140056022" y="218.5" width="16.00490196078431" height="13.537500000000023" fill="#ff7f0e" opacity="1" stroke="black" stroke-width="1" />
<line x1="191.37850140056022" y1="224.2" x2="207.38340336134453" y2="224.2" stroke="black" stroke-width="2" />
<line x1="218.58683473389354" y1="241.3" x2="218.58683473389354" y2="224.2" stroke="black" stroke-width="1" />
<line x1="218.58683473389354" y1="213.5125" x2="218.58683473389354" y2="195.7" stroke="black" stroke-width="1" />
<rect x="210.58438375350138" y="213.5125" width="16.00490196078431" height="10.6875" fill="#2ca02c" opacity="1" stroke="black" stroke-width="1" />
<line x1="210.58438375350138" y1="218.5" x2="226.5892857142857" y2="218.5" stroke="black" stroke-width="2" />
<circle cx="218.58683473389354" cy="195.7" r="3" fill="black" opacity="1" />
<circle cx="218.58683473389354" cy="241.3" r="3" fill="black" opacity="1" />
<circle cx="218.58683473389354" cy="195.7" r="3" fill="black" opacity="1" />
<line x1="257.91316526610643" y1="275.5" x2="257.91316526610643" y2="264.1" stroke="black" stroke-width="1" />
<line x1="257.91316526610643" y1="259.1125" x2="257.91316526610643" y2="249.85" stroke="black" stroke-width="1" />
<rect x="249.91071428571428" y="259.1125" width="16.00490196078431" height="4.987500000000011" fill="#1f77b4" opacity="1" stroke="black" stroke-width="1" />
<line x1="249.91071428571428" y1="261.25" x2="265.9156162464986" y2="261.25" stroke="black" stroke-width="2" />
<circle cx="257.91316526610643" cy="272.65" r="3" fill="black" opacity="1" />
<circle cx="257.91316526610643" cy="275.5" r="3" fill="black" opacity="1" />
<circle cx="257.91316526610643" cy="249.85" r="3" fill="black" opacity="1" />
<circle cx="257.91316526610643" cy="249.85" r="3" fill="black" opacity="1" />
<line x1="277.1190476190476" y1="218.5" x2="277.1190476190476" y2="190" stroke="black" stroke-width="1" />
<line x1="277.1190476190476" y1="172.9" x2="277.1190476190476" y2="158.65" stroke="black" stroke-width="1" />
<rect x="269.11659663865544" y="172.9" width="16.00490196078431" height="17.099999999999994" fill="#ff7f0e" opacity="1" stroke="black" stroke-width="1" />
<line x1="269.11659663865544" y1="180.025" x2="285.12149859943975" y2="180.025" stroke="black" stroke-width="2" />
<circle cx="277.1190476190476" cy="218.5" r="3" fill="black" opacity="1" />
<line x1="296.32492997198875" y1="175.75" x2="296.32492997198875" y2="158.65" stroke="black" stroke-width="1" />
<line x1="296.32492997198875" y1="136.5625" x2="296.32492997198875" y2="107.35" stroke="black" stroke-width="1" />
<rect x="288.3224789915966" y="136.5625" width="16.00490196078431" height="22.087500000000006" fill="#2ca02c" opacity="1" stroke="black" stroke-width="1" />
<line x1="288.3224789915966" y1="145.82500000000002" x2="304.3273809523809" y2="145.82500000000002" stroke="black" stroke-width="2" />
<line x1="335.6512605042017" y1="301.15" x2="335.6512605042017" y2="298.3" stroke="black" stroke-width="1" />
<line x1="335.6512605042017" y1="295.45" x2="335.6512605042017" y2="286.9" stroke="black" stroke-width="1" />
<rect x="327.6488095238095" y="295.45" width="16.00490196078431" height="2.8500000000000227" fill="#1f77b4" opacity="1" stroke="black" stroke-width="1" />
<line x1="327.6488095238095" y1="298.3" x2="343.6537114845938" y2="298.3" stroke="black" stroke-width="2" />
<circle cx="335.6512605042017" cy="289.75" r="3" fill="black" opacity="1" />
<circle cx="335.6512605042017" cy="286.9" r="3" fill="black" opacity="1" />
<line x1="354.85714285714283" y1="275.5" x2="354.85714285714283" y2="269.8" stroke="black" stroke-width="1" />
<line x1="354.85714285714283" y1="261.25" x2="354.85714285714283" y2="252.7" stroke="black" stroke-width="1" />
<rect x="346.8546918767507" y="261.25" width="16.00490196078431" height="8.550000000000011" fill="#ff7f0e" opacity="1" stroke="black" stroke-width="1" />
<line x1="346.8546918767507" y1="266.95" x2="362.859593837535" y2="266.95" stroke="black" stroke-width="2" />
<line x1="374.063025210084" y1="264.1" x2="374.063025210084" y2="252.7" stroke="black" stroke-width="1" />
<line x1="374.063025210084" y1="238.45" x2="374.063025210084" y2="232.75" stroke="black" stroke-width="1" />
<rect x="366.06057422969184" y="238.45" width="16.00490196078431" height="14.25" fill="#2ca02c" opacity="1" stroke="black" stroke-width="1" />
<line x1="366.06057422969184" y1="247" x2="382.06547619047615" y2="247" stroke="black" stroke-width="2" />
<line x1="75" y1="340" x2="401.5" y2="340" stroke="black" stroke-width="1"/>
<line x1="121.64285714285714" y1="340" x2="121.64285714285714" y2="345" stroke="black" stroke-width="1"/>
<text x="121.64285714285714" y="358" font-size="13" font-family="sans-serif" fill="#333" text-anchor="middle">sepal_length</text>
<line x1="199.38095238095238" y1="340" x2="199.38095238095238" y2="345" stroke="black" stroke-width="1"/>
<text x="199.38095238095238" y="358" font-size="13" font-family="sans-serif" fill="#333" text-anchor="middle">sepal_width</text>
<line x1="277.1190476190476" y1="340" x2="277.1190476190476" y2="345" stroke="black" stroke-width="1"/>
<text x="277.1190476190476" y="358" font-size="13" font-family="sans-serif" fill="#333" text-anchor="middle">petal_length</text>
<line x1="354.85714285714283" y1="340" x2="354.85714285714283" y2="345" stroke="black" stroke-width="1"/>
<text x="354.85714285714283" y="358" font-size="13" font-family="sans-serif" fill="#333" text-anchor="middle">petal_width</text>
<text x="238.25" y="363" font-size="15" font-family="sans-serif" fill="#333" text-anchor="middle" dominant-baseline="text-before-edge">variable</text>
<line x1="75" y1="40" x2="75" y2="340" stroke="black" stroke-width="1"/>
<line x1="70" y1="304" x2="75" y2="304" stroke="black" stroke-width="1"/>
<text x="67" y="304" font-size="13" font-family="sans-serif" fill="#333" text-anchor="end" dominant-baseline="middle">0</text>
<line x1="70" y1="247" x2="75" y2="247" stroke="black" stroke-width="1"/>
<text x="67" y="247" font-size="13" font-family="sans-serif" fill="#333" text-anchor="end" dominant-baseline="middle">2</text>
<line x1="70" y1="190" x2="75" y2="190" stroke="black" stroke-width="1"/>
<text x="67" y="190" font-size="13" font-family="sans-serif" fill="#333" text-anchor="end" dominant-baseline="middle">4</text>
<line x1="70" y1="133" x2="75" y2="133" stroke="black" stroke-width="1"/>
<text x="67" y="133" font-size="13" font-family="sans-serif" fill="#333" text-anchor="end" dominant-baseline="middle">6</text>
<line x1="70" y1="76" x2="75" y2="76" stroke="black" stroke-width="1"/>
<text x="67" y="76" font-size="13" font-family="sans-serif" fill="#333" text-anchor="end" dominant-baseline="middle">8</text>
<text x="47.85" y="190" font-size="15" font-family="sans-serif" fill="#333" text-anchor="middle" transform="rotate(-90, 47.85, 190)">value</text>
<text x="416.5" y="55" font-size="15" font-family="sans-serif" text-anchor="start" font-weight="bold">species</text>
<rect x="416.5" y="67.5" width="15" height="15" fill="#1f77b4" stroke="black" stroke-width="0.0" fill-opacity="1"/>
<text x="436.5" y="75" font-size="13" font-family="sans-serif" dominant-baseline="middle">setosa</text>
<rect x="416.5" y="87.5" width="15" height="15" fill="#ff7f0e" stroke="black" stroke-width="0.0" fill-opacity="1"/>
<text x="436.5" y="95" font-size="13" font-family="sans-serif" dominant-baseline="middle">versicolor</text>
<rect x="416.5" y="107.5" width="15" height="15" fill="#2ca02c" stroke="black" stroke-width="0.0" fill-opacity="1"/>
<text x="436.5" y="115" font-size="13" font-family="sans-serif" dominant-baseline="middle">virginica</text>
</svg>