<svg width="500" height="400" viewBox="0 0 500 400" xmlns="http://www.w3.org/2000/svg"><rect width="100%" height="100%" fill="rgba(255,255,255,1.000)" /><line x1="83.25" y1="316.00" x2="406.20" y2="316.00" stroke="rgba(51,51,51,1.000)" stroke-width="1" stroke-linecap="square"/>
<line x1="97.68" y1="316.00" x2="97.68" y2="322.00" stroke="rgba(51,51,51,1.000)" stroke-width="1.0"/>
<text x="97.68" y="325.00" font-size="13" font-family="Inter, -apple-system, BlinkMacSystemFont, 'Segoe UI', Roboto, Helvetica, Arial, 'PingFang SC', 'Microsoft YaHei', Ubuntu, Cantarell, 'Noto Sans', sans-serif" fill="rgba(51,51,51,1.000)" text-anchor="end" dominant-baseline="hanging" transform="rotate(-45.0, 97.68, 325.00)">-1.0</text>
<line x1="171.14" y1="316.00" x2="171.14" y2="322.00" stroke="rgba(51,51,51,1.000)" stroke-width="1.0"/>
<text x="171.14" y="325.00" font-size="13" font-family="Inter, -apple-system, BlinkMacSystemFont, 'Segoe UI', Roboto, Helvetica, Arial, 'PingFang SC', 'Microsoft YaHei', Ubuntu, Cantarell, 'Noto Sans', sans-serif" fill="rgba(51,51,51,1.000)" text-anchor="end" dominant-baseline="hanging" transform="rotate(-45.0, 171.14, 325.00)">-0.5</text>
<line x1="244.60" y1="316.00" x2="244.60" y2="322.00" stroke="rgba(51,51,51,1.000)" stroke-width="1.0"/>
<text x="244.60" y="325.00" font-size="13" font-family="Inter, -apple-system, BlinkMacSystemFont, 'Segoe UI', Roboto, Helvetica, Arial, 'PingFang SC', 'Microsoft YaHei', Ubuntu, Cantarell, 'Noto Sans', sans-serif" fill="rgba(51,51,51,1.000)" text-anchor="end" dominant-baseline="hanging" transform="rotate(-45.0, 244.60, 325.00)">0.0</text>
<line x1="318.06" y1="316.00" x2="318.06" y2="322.00" stroke="rgba(51,51,51,1.000)" stroke-width="1.0"/>
<text x="318.06" y="325.00" font-size="13" font-family="Inter, -apple-system, BlinkMacSystemFont, 'Segoe UI', Roboto, Helvetica, Arial, 'PingFang SC', 'Microsoft YaHei', Ubuntu, Cantarell, 'Noto Sans', sans-serif" fill="rgba(51,51,51,1.000)" text-anchor="end" dominant-baseline="hanging" transform="rotate(-45.0, 318.06, 325.00)">0.5</text>
<line x1="391.52" y1="316.00" x2="391.52" y2="322.00" stroke="rgba(51,51,51,1.000)" stroke-width="1.0"/>
<text x="391.52" y="325.00" font-size="13" font-family="Inter, -apple-system, BlinkMacSystemFont, 'Segoe UI', Roboto, Helvetica, Arial, 'PingFang SC', 'Microsoft YaHei', Ubuntu, Cantarell, 'Noto Sans', sans-serif" fill="rgba(51,51,51,1.000)" text-anchor="end" dominant-baseline="hanging" transform="rotate(-45.0, 391.52, 325.00)">1.0</text>
<text x="244.72" y="352.10" text-anchor="middle" font-size="15" font-family="Inter, -apple-system, BlinkMacSystemFont, 'Segoe UI', Roboto, Helvetica, Arial, 'PingFang SC', 'Microsoft YaHei', Ubuntu, Cantarell, 'Noto Sans', sans-serif" fill="rgba(51,51,51,1.000)" font-weight="bold" dominant-baseline="hanging">y</text>
<line x1="83.25" y1="40.00" x2="83.25" y2="316.00" stroke="rgba(51,51,51,1.000)" stroke-width="1" stroke-linecap="square"/>
<line x1="83.25" y1="303.45" x2="77.25" y2="303.45" stroke="rgba(51,51,51,1.000)" stroke-width="1.0"/>
<text x="73.25" y="303.45" font-size="13" font-family="Inter, -apple-system, BlinkMacSystemFont, 'Segoe UI', Roboto, Helvetica, Arial, 'PingFang SC', 'Microsoft YaHei', Ubuntu, Cantarell, 'Noto Sans', sans-serif" fill="rgba(51,51,51,1.000)" text-anchor="end" dominant-baseline="central">0</text>
<line x1="83.25" y1="260.19" x2="77.25" y2="260.19" stroke="rgba(51,51,51,1.000)" stroke-width="1.0"/>
<text x="73.25" y="260.19" font-size="13" font-family="Inter, -apple-system, BlinkMacSystemFont, 'Segoe UI', Roboto, Helvetica, Arial, 'PingFang SC', 'Microsoft YaHei', Ubuntu, Cantarell, 'Noto Sans', sans-serif" fill="rgba(51,51,51,1.000)" text-anchor="end" dominant-baseline="central">1</text>
<line x1="83.25" y1="216.93" x2="77.25" y2="216.93" stroke="rgba(51,51,51,1.000)" stroke-width="1.0"/>
<text x="73.25" y="216.93" font-size="13" font-family="Inter, -apple-system, BlinkMacSystemFont, 'Segoe UI', Roboto, Helvetica, Arial, 'PingFang SC', 'Microsoft YaHei', Ubuntu, Cantarell, 'Noto Sans', sans-serif" fill="rgba(51,51,51,1.000)" text-anchor="end" dominant-baseline="central">2</text>
<line x1="83.25" y1="173.67" x2="77.25" y2="173.67" stroke="rgba(51,51,51,1.000)" stroke-width="1.0"/>
<text x="73.25" y="173.67" font-size="13" font-family="Inter, -apple-system, BlinkMacSystemFont, 'Segoe UI', Roboto, Helvetica, Arial, 'PingFang SC', 'Microsoft YaHei', Ubuntu, Cantarell, 'Noto Sans', sans-serif" fill="rgba(51,51,51,1.000)" text-anchor="end" dominant-baseline="central">3</text>
<line x1="83.25" y1="130.41" x2="77.25" y2="130.41" stroke="rgba(51,51,51,1.000)" stroke-width="1.0"/>
<text x="73.25" y="130.41" font-size="13" font-family="Inter, -apple-system, BlinkMacSystemFont, 'Segoe UI', Roboto, Helvetica, Arial, 'PingFang SC', 'Microsoft YaHei', Ubuntu, Cantarell, 'Noto Sans', sans-serif" fill="rgba(51,51,51,1.000)" text-anchor="end" dominant-baseline="central">4</text>
<line x1="83.25" y1="87.15" x2="77.25" y2="87.15" stroke="rgba(51,51,51,1.000)" stroke-width="1.0"/>
<text x="73.25" y="87.15" font-size="13" font-family="Inter, -apple-system, BlinkMacSystemFont, 'Segoe UI', Roboto, Helvetica, Arial, 'PingFang SC', 'Microsoft YaHei', Ubuntu, Cantarell, 'Noto Sans', sans-serif" fill="rgba(51,51,51,1.000)" text-anchor="end" dominant-baseline="central">5</text>
<line x1="83.25" y1="43.89" x2="77.25" y2="43.89" stroke="rgba(51,51,51,1.000)" stroke-width="1.0"/>
<text x="73.25" y="43.89" font-size="13" font-family="Inter, -apple-system, BlinkMacSystemFont, 'Segoe UI', Roboto, Helvetica, Arial, 'PingFang SC', 'Microsoft YaHei', Ubuntu, Cantarell, 'Noto Sans', sans-serif" fill="rgba(51,51,51,1.000)" text-anchor="end" dominant-baseline="central">6</text>
<text x="47.00" y="178.00" text-anchor="middle" font-size="15" font-family="Inter, -apple-system, BlinkMacSystemFont, 'Segoe UI', Roboto, Helvetica, Arial, 'PingFang SC', 'Microsoft YaHei', Ubuntu, Cantarell, 'Noto Sans', sans-serif" fill="rgba(51,51,51,1.000)" font-weight="bold" transform="rotate(-90, 47.00, 178.00)" dominant-baseline="middle">x</text>
<defs><clipPath id="plot-clip-area"><rect x="83.248" y="40.000" width="322.952" height="276.000" /></clipPath></defs>
<path d="M 393.269 303.455 L 386.142 294.803 L 378.378 286.150 L 364.474 277.498 L 345.792 268.846 L 323.075 260.194 L 297.229 251.542 L 269.286 242.890 L 240.358 234.238 L 211.599 225.586 L 184.156 216.934 L 159.122 208.282 L 137.496 199.630 L 120.140 190.978 L 107.746 182.326 L 100.808 173.674 L 99.602 165.022 L 104.177 156.370 L 114.350 147.718 L 129.715 139.066 L 149.661 130.414 L 173.391 121.762 L 199.960 113.110 L 228.309 104.458 L 257.308 95.806 L 285.799 87.154 L 312.648 78.502 L 336.785 69.850 L 356.643 61.197 L 376.034 52.545" stroke="rgba(255,127,14,1.000)" stroke-width="2.000" stroke-opacity="1.000" fill="none" stroke-linejoin="round" stroke-linecap="round" clip-path="url(#plot-clip-area)" />
<path d="M 245.062 303.455 L 273.213 294.803 L 301.160 286.150 L 326.610 277.498 L 348.791 268.846 L 366.818 260.194 L 379.972 251.542 L 387.730 242.890 L 389.781 234.238 L 386.045 225.586 L 376.669 216.934 L 362.029 208.282 L 342.706 199.630 L 319.473 190.978 L 293.254 182.326 L 265.096 173.674 L 236.120 165.022 L 207.483 156.370 L 180.325 147.718 L 155.730 139.066 L 134.677 130.414 L 118.007 121.762 L 106.384 113.110 L 100.271 104.458 L 99.911 95.806 L 105.320 87.154 L 116.282 78.502 L 132.359 69.850 L 153.499 61.197 L 175.116 52.545" stroke="rgba(31,119,180,1.000)" stroke-width="2.000" stroke-opacity="1.000" fill="none" stroke-linejoin="round" stroke-linecap="round" clip-path="url(#plot-clip-area)" />
<text x="421.200" y="49.600" font-size="13.2" font-family="Inter, -apple-system, BlinkMacSystemFont, 'Segoe UI', Roboto, Helvetica, Arial, 'PingFang SC', 'Microsoft YaHei', Ubuntu, Cantarell, 'Noto Sans', sans-serif" fill="rgba(51,51,51,1.000)" fill-opacity="1.000" text-anchor="start" font-weight="bold">category</text>
<circle cx="430.200" cy="69.200" r="5.000" fill="rgba(31,119,180,1.000)" stroke="none" stroke-width="0.000" fill-opacity="1.000" stroke-opacity="1.000" />
<text x="447.200" y="73.700" font-size="12.0" font-family="Inter, -apple-system, BlinkMacSystemFont, 'Segoe UI', Roboto, Helvetica, Arial, 'PingFang SC', 'Microsoft YaHei', Ubuntu, Cantarell, 'Noto Sans', sans-serif" fill="rgba(51,51,51,1.000)" fill-opacity="1.000" text-anchor="start" font-weight="normal">Sine</text>
<circle cx="430.200" cy="90.200" r="5.000" fill="rgba(255,127,14,1.000)" stroke="none" stroke-width="0.000" fill-opacity="1.000" stroke-opacity="1.000" />
<text x="447.200" y="94.700" font-size="12.0" font-family="Inter, -apple-system, BlinkMacSystemFont, 'Segoe UI', Roboto, Helvetica, Arial, 'PingFang SC', 'Microsoft YaHei', Ubuntu, Cantarell, 'Noto Sans', sans-serif" fill="rgba(51,51,51,1.000)" fill-opacity="1.000" text-anchor="start" font-weight="normal">Cosine</text>
</svg>