<svg width="500" height="400" viewBox="0 0 500 400" xmlns="http://www.w3.org/2000/svg"><rect width="100%" height="100%" fill="rgba(255,255,255,1.000)" /><line x1="91.10" y1="314.75" x2="406.20" y2="314.75" stroke="rgba(51,51,51,1.000)" stroke-width="1" stroke-linecap="square"/>
<line x1="105.42" y1="314.75" x2="105.42" y2="320.75" stroke="rgba(51,51,51,1.000)" stroke-width="1.0"/>
<text x="105.42" y="323.75" font-size="13" font-family="Inter, -apple-system, BlinkMacSystemFont, 'Segoe UI', Roboto, Helvetica, Arial, 'PingFang SC', 'Microsoft YaHei', Ubuntu, Cantarell, 'Noto Sans', sans-serif" fill="rgba(51,51,51,1.000)" text-anchor="end" dominant-baseline="hanging" transform="rotate(-45.0, 105.42, 323.75)">0</text>
<line x1="154.81" y1="314.75" x2="154.81" y2="320.75" stroke="rgba(51,51,51,1.000)" stroke-width="1.0"/>
<text x="154.81" y="323.75" font-size="13" font-family="Inter, -apple-system, BlinkMacSystemFont, 'Segoe UI', Roboto, Helvetica, Arial, 'PingFang SC', 'Microsoft YaHei', Ubuntu, Cantarell, 'Noto Sans', sans-serif" fill="rgba(51,51,51,1.000)" text-anchor="end" dominant-baseline="hanging" transform="rotate(-45.0, 154.81, 323.75)">1</text>
<line x1="204.20" y1="314.75" x2="204.20" y2="320.75" stroke="rgba(51,51,51,1.000)" stroke-width="1.0"/>
<text x="204.20" y="323.75" font-size="13" font-family="Inter, -apple-system, BlinkMacSystemFont, 'Segoe UI', Roboto, Helvetica, Arial, 'PingFang SC', 'Microsoft YaHei', Ubuntu, Cantarell, 'Noto Sans', sans-serif" fill="rgba(51,51,51,1.000)" text-anchor="end" dominant-baseline="hanging" transform="rotate(-45.0, 204.20, 323.75)">2</text>
<line x1="253.59" y1="314.75" x2="253.59" y2="320.75" stroke="rgba(51,51,51,1.000)" stroke-width="1.0"/>
<text x="253.59" y="323.75" font-size="13" font-family="Inter, -apple-system, BlinkMacSystemFont, 'Segoe UI', Roboto, Helvetica, Arial, 'PingFang SC', 'Microsoft YaHei', Ubuntu, Cantarell, 'Noto Sans', sans-serif" fill="rgba(51,51,51,1.000)" text-anchor="end" dominant-baseline="hanging" transform="rotate(-45.0, 253.59, 323.75)">3</text>
<line x1="302.98" y1="314.75" x2="302.98" y2="320.75" stroke="rgba(51,51,51,1.000)" stroke-width="1.0"/>
<text x="302.98" y="323.75" font-size="13" font-family="Inter, -apple-system, BlinkMacSystemFont, 'Segoe UI', Roboto, Helvetica, Arial, 'PingFang SC', 'Microsoft YaHei', Ubuntu, Cantarell, 'Noto Sans', sans-serif" fill="rgba(51,51,51,1.000)" text-anchor="end" dominant-baseline="hanging" transform="rotate(-45.0, 302.98, 323.75)">4</text>
<line x1="352.37" y1="314.75" x2="352.37" y2="320.75" stroke="rgba(51,51,51,1.000)" stroke-width="1.0"/>
<text x="352.37" y="323.75" font-size="13" font-family="Inter, -apple-system, BlinkMacSystemFont, 'Segoe UI', Roboto, Helvetica, Arial, 'PingFang SC', 'Microsoft YaHei', Ubuntu, Cantarell, 'Noto Sans', sans-serif" fill="rgba(51,51,51,1.000)" text-anchor="end" dominant-baseline="hanging" transform="rotate(-45.0, 352.37, 323.75)">5</text>
<line x1="401.76" y1="314.75" x2="401.76" y2="320.75" stroke="rgba(51,51,51,1.000)" stroke-width="1.0"/>
<text x="401.76" y="323.75" font-size="13" font-family="Inter, -apple-system, BlinkMacSystemFont, 'Segoe UI', Roboto, Helvetica, Arial, 'PingFang SC', 'Microsoft YaHei', Ubuntu, Cantarell, 'Noto Sans', sans-serif" fill="rgba(51,51,51,1.000)" text-anchor="end" dominant-baseline="hanging" transform="rotate(-45.0, 401.76, 323.75)">6</text>
<text x="248.65" y="340.00" text-anchor="middle" font-size="15" font-family="Inter, -apple-system, BlinkMacSystemFont, 'Segoe UI', Roboto, Helvetica, Arial, 'PingFang SC', 'Microsoft YaHei', Ubuntu, Cantarell, 'Noto Sans', sans-serif" fill="rgba(51,51,51,1.000)" font-weight="bold" dominant-baseline="hanging">x</text>
<line x1="91.10" y1="40.00" x2="91.10" y2="314.75" stroke="rgba(51,51,51,1.000)" stroke-width="1" stroke-linecap="square"/>
<line x1="91.10" y1="302.48" x2="85.10" y2="302.48" stroke="rgba(51,51,51,1.000)" stroke-width="1.0"/>
<text x="81.10" y="302.48" font-size="13" font-family="Inter, -apple-system, BlinkMacSystemFont, 'Segoe UI', Roboto, Helvetica, Arial, 'PingFang SC', 'Microsoft YaHei', Ubuntu, Cantarell, 'Noto Sans', sans-serif" fill="rgba(51,51,51,1.000)" text-anchor="end" dominant-baseline="central">-1.0</text>
<line x1="91.10" y1="239.98" x2="85.10" y2="239.98" stroke="rgba(51,51,51,1.000)" stroke-width="1.0"/>
<text x="81.10" y="239.98" font-size="13" font-family="Inter, -apple-system, BlinkMacSystemFont, 'Segoe UI', Roboto, Helvetica, Arial, 'PingFang SC', 'Microsoft YaHei', Ubuntu, Cantarell, 'Noto Sans', sans-serif" fill="rgba(51,51,51,1.000)" text-anchor="end" dominant-baseline="central">-0.5</text>
<line x1="91.10" y1="177.48" x2="85.10" y2="177.48" stroke="rgba(51,51,51,1.000)" stroke-width="1.0"/>
<text x="81.10" y="177.48" font-size="13" font-family="Inter, -apple-system, BlinkMacSystemFont, 'Segoe UI', Roboto, Helvetica, Arial, 'PingFang SC', 'Microsoft YaHei', Ubuntu, Cantarell, 'Noto Sans', sans-serif" fill="rgba(51,51,51,1.000)" text-anchor="end" dominant-baseline="central">0.0</text>
<line x1="91.10" y1="114.99" x2="85.10" y2="114.99" stroke="rgba(51,51,51,1.000)" stroke-width="1.0"/>
<text x="81.10" y="114.99" font-size="13" font-family="Inter, -apple-system, BlinkMacSystemFont, 'Segoe UI', Roboto, Helvetica, Arial, 'PingFang SC', 'Microsoft YaHei', Ubuntu, Cantarell, 'Noto Sans', sans-serif" fill="rgba(51,51,51,1.000)" text-anchor="end" dominant-baseline="central">0.5</text>
<line x1="91.10" y1="52.49" x2="85.10" y2="52.49" stroke="rgba(51,51,51,1.000)" stroke-width="1.0"/>
<text x="81.10" y="52.49" font-size="13" font-family="Inter, -apple-system, BlinkMacSystemFont, 'Segoe UI', Roboto, Helvetica, Arial, 'PingFang SC', 'Microsoft YaHei', Ubuntu, Cantarell, 'Noto Sans', sans-serif" fill="rgba(51,51,51,1.000)" text-anchor="end" dominant-baseline="central">1.0</text>
<text x="43.00" y="177.38" text-anchor="middle" font-size="15" font-family="Inter, -apple-system, BlinkMacSystemFont, 'Segoe UI', Roboto, Helvetica, Arial, 'PingFang SC', 'Microsoft YaHei', Ubuntu, Cantarell, 'Noto Sans', sans-serif" fill="rgba(51,51,51,1.000)" font-weight="bold" transform="rotate(-90, 43.00, 177.38)" dominant-baseline="middle">y</text>
<defs><clipPath id="plot-clip-area"><rect x="91.100" y="40.000" width="315.100" height="274.752" /></clipPath></defs>
<path d="M 105.423 51.001 L 115.300 57.065 L 125.178 63.670 L 135.056 75.498 L 144.934 91.392 L 154.811 110.719 L 164.689 132.707 L 174.567 156.480 L 184.445 181.091 L 194.322 205.557 L 204.200 228.904 L 214.078 250.202 L 223.956 268.600 L 233.833 283.366 L 243.711 293.910 L 253.589 299.813 L 263.467 300.839 L 273.344 296.947 L 283.222 288.292 L 293.100 275.220 L 302.978 258.251 L 312.855 238.063 L 322.733 215.459 L 332.611 191.341 L 342.489 166.670 L 352.366 142.431 L 362.244 119.589 L 372.122 99.055 L 382.000 82.160 L 391.877 65.664" stroke="rgba(255,127,14,1.000)" stroke-width="2.000" stroke-opacity="1.000" fill="none" stroke-linejoin="round" stroke-linecap="round" clip-path="url(#plot-clip-area)" />
<path d="M 105.423 177.089 L 115.300 153.139 L 125.178 129.363 L 135.056 107.711 L 144.934 88.841 L 154.811 73.504 L 164.689 62.313 L 174.567 55.713 L 184.445 53.968 L 194.322 57.147 L 204.200 65.123 L 214.078 77.579 L 223.956 94.017 L 233.833 113.783 L 243.711 136.089 L 253.589 160.045 L 263.467 184.696 L 273.344 209.059 L 283.222 232.163 L 293.100 253.088 L 302.978 270.998 L 312.855 285.181 L 322.733 295.069 L 332.611 300.270 L 342.489 300.576 L 352.366 295.974 L 362.244 286.648 L 372.122 272.971 L 382.000 254.986 L 391.877 236.595" stroke="rgba(31,119,180,1.000)" stroke-width="2.000" stroke-opacity="1.000" fill="none" stroke-linejoin="round" stroke-linecap="round" clip-path="url(#plot-clip-area)" />
<text x="421.200" y="49.600" font-size="13.2" font-family="Inter, -apple-system, BlinkMacSystemFont, 'Segoe UI', Roboto, Helvetica, Arial, 'PingFang SC', 'Microsoft YaHei', Ubuntu, Cantarell, 'Noto Sans', sans-serif" fill="rgba(51,51,51,1.000)" fill-opacity="1.000" text-anchor="start" font-weight="bold">category</text>
<circle cx="430.200" cy="69.200" r="5.000" fill="rgba(31,119,180,1.000)" stroke="none" stroke-width="0.000" fill-opacity="1.000" stroke-opacity="1.000" />
<text x="447.200" y="73.700" font-size="12.0" font-family="Inter, -apple-system, BlinkMacSystemFont, 'Segoe UI', Roboto, Helvetica, Arial, 'PingFang SC', 'Microsoft YaHei', Ubuntu, Cantarell, 'Noto Sans', sans-serif" fill="rgba(51,51,51,1.000)" fill-opacity="1.000" text-anchor="start" font-weight="normal">Sine</text>
<circle cx="430.200" cy="90.200" r="5.000" fill="rgba(255,127,14,1.000)" stroke="none" stroke-width="0.000" fill-opacity="1.000" stroke-opacity="1.000" />
<text x="447.200" y="94.700" font-size="12.0" font-family="Inter, -apple-system, BlinkMacSystemFont, 'Segoe UI', Roboto, Helvetica, Arial, 'PingFang SC', 'Microsoft YaHei', Ubuntu, Cantarell, 'Noto Sans', sans-serif" fill="rgba(51,51,51,1.000)" fill-opacity="1.000" text-anchor="start" font-weight="normal">Cosine</text>
</svg>