<svg width="500" height="400" viewBox="0 0 500 400" xmlns="http://www.w3.org/2000/svg"><rect width="100%" height="100%" fill="rgba(255,255,255,1.000)" /><line x1="91.10" y1="314.75" x2="406.20" y2="314.75" stroke="rgba(51,51,51,1.000)" stroke-width="1" stroke-linecap="square"/>
<line x1="105.42" y1="314.75" x2="105.42" y2="320.75" stroke="rgba(51,51,51,1.000)" stroke-width="1.0"/>
<text x="105.42" y="323.75" font-size="13" font-family="Inter, -apple-system, BlinkMacSystemFont, 'Segoe UI', Roboto, Helvetica, Arial, 'PingFang SC', 'Microsoft YaHei', Ubuntu, Cantarell, 'Noto Sans', sans-serif" fill="rgba(51,51,51,1.000)" text-anchor="end" dominant-baseline="hanging" transform="rotate(-45.0, 105.42, 323.75)">0</text>
<line x1="154.81" y1="314.75" x2="154.81" y2="320.75" stroke="rgba(51,51,51,1.000)" stroke-width="1.0"/>
<text x="154.81" y="323.75" font-size="13" font-family="Inter, -apple-system, BlinkMacSystemFont, 'Segoe UI', Roboto, Helvetica, Arial, 'PingFang SC', 'Microsoft YaHei', Ubuntu, Cantarell, 'Noto Sans', sans-serif" fill="rgba(51,51,51,1.000)" text-anchor="end" dominant-baseline="hanging" transform="rotate(-45.0, 154.81, 323.75)">1</text>
<line x1="204.20" y1="314.75" x2="204.20" y2="320.75" stroke="rgba(51,51,51,1.000)" stroke-width="1.0"/>
<text x="204.20" y="323.75" font-size="13" font-family="Inter, -apple-system, BlinkMacSystemFont, 'Segoe UI', Roboto, Helvetica, Arial, 'PingFang SC', 'Microsoft YaHei', Ubuntu, Cantarell, 'Noto Sans', sans-serif" fill="rgba(51,51,51,1.000)" text-anchor="end" dominant-baseline="hanging" transform="rotate(-45.0, 204.20, 323.75)">2</text>
<line x1="253.59" y1="314.75" x2="253.59" y2="320.75" stroke="rgba(51,51,51,1.000)" stroke-width="1.0"/>
<text x="253.59" y="323.75" font-size="13" font-family="Inter, -apple-system, BlinkMacSystemFont, 'Segoe UI', Roboto, Helvetica, Arial, 'PingFang SC', 'Microsoft YaHei', Ubuntu, Cantarell, 'Noto Sans', sans-serif" fill="rgba(51,51,51,1.000)" text-anchor="end" dominant-baseline="hanging" transform="rotate(-45.0, 253.59, 323.75)">3</text>
<line x1="302.98" y1="314.75" x2="302.98" y2="320.75" stroke="rgba(51,51,51,1.000)" stroke-width="1.0"/>
<text x="302.98" y="323.75" font-size="13" font-family="Inter, -apple-system, BlinkMacSystemFont, 'Segoe UI', Roboto, Helvetica, Arial, 'PingFang SC', 'Microsoft YaHei', Ubuntu, Cantarell, 'Noto Sans', sans-serif" fill="rgba(51,51,51,1.000)" text-anchor="end" dominant-baseline="hanging" transform="rotate(-45.0, 302.98, 323.75)">4</text>
<line x1="352.37" y1="314.75" x2="352.37" y2="320.75" stroke="rgba(51,51,51,1.000)" stroke-width="1.0"/>
<text x="352.37" y="323.75" font-size="13" font-family="Inter, -apple-system, BlinkMacSystemFont, 'Segoe UI', Roboto, Helvetica, Arial, 'PingFang SC', 'Microsoft YaHei', Ubuntu, Cantarell, 'Noto Sans', sans-serif" fill="rgba(51,51,51,1.000)" text-anchor="end" dominant-baseline="hanging" transform="rotate(-45.0, 352.37, 323.75)">5</text>
<line x1="401.76" y1="314.75" x2="401.76" y2="320.75" stroke="rgba(51,51,51,1.000)" stroke-width="1.0"/>
<text x="401.76" y="323.75" font-size="13" font-family="Inter, -apple-system, BlinkMacSystemFont, 'Segoe UI', Roboto, Helvetica, Arial, 'PingFang SC', 'Microsoft YaHei', Ubuntu, Cantarell, 'Noto Sans', sans-serif" fill="rgba(51,51,51,1.000)" text-anchor="end" dominant-baseline="hanging" transform="rotate(-45.0, 401.76, 323.75)">6</text>
<text x="248.65" y="340.00" text-anchor="middle" font-size="15" font-family="Inter, -apple-system, BlinkMacSystemFont, 'Segoe UI', Roboto, Helvetica, Arial, 'PingFang SC', 'Microsoft YaHei', Ubuntu, Cantarell, 'Noto Sans', sans-serif" fill="rgba(51,51,51,1.000)" font-weight="bold" dominant-baseline="hanging">x</text>
<line x1="91.10" y1="40.00" x2="91.10" y2="314.75" stroke="rgba(51,51,51,1.000)" stroke-width="1" stroke-linecap="square"/>
<line x1="91.10" y1="302.48" x2="85.10" y2="302.48" stroke="rgba(51,51,51,1.000)" stroke-width="1.0"/>
<text x="81.10" y="302.48" font-size="13" font-family="Inter, -apple-system, BlinkMacSystemFont, 'Segoe UI', Roboto, Helvetica, Arial, 'PingFang SC', 'Microsoft YaHei', Ubuntu, Cantarell, 'Noto Sans', sans-serif" fill="rgba(51,51,51,1.000)" text-anchor="end" dominant-baseline="central">-1.0</text>
<line x1="91.10" y1="239.98" x2="85.10" y2="239.98" stroke="rgba(51,51,51,1.000)" stroke-width="1.0"/>
<text x="81.10" y="239.98" font-size="13" font-family="Inter, -apple-system, BlinkMacSystemFont, 'Segoe UI', Roboto, Helvetica, Arial, 'PingFang SC', 'Microsoft YaHei', Ubuntu, Cantarell, 'Noto Sans', sans-serif" fill="rgba(51,51,51,1.000)" text-anchor="end" dominant-baseline="central">-0.5</text>
<line x1="91.10" y1="177.48" x2="85.10" y2="177.48" stroke="rgba(51,51,51,1.000)" stroke-width="1.0"/>
<text x="81.10" y="177.48" font-size="13" font-family="Inter, -apple-system, BlinkMacSystemFont, 'Segoe UI', Roboto, Helvetica, Arial, 'PingFang SC', 'Microsoft YaHei', Ubuntu, Cantarell, 'Noto Sans', sans-serif" fill="rgba(51,51,51,1.000)" text-anchor="end" dominant-baseline="central">0.0</text>
<line x1="91.10" y1="114.99" x2="85.10" y2="114.99" stroke="rgba(51,51,51,1.000)" stroke-width="1.0"/>
<text x="81.10" y="114.99" font-size="13" font-family="Inter, -apple-system, BlinkMacSystemFont, 'Segoe UI', Roboto, Helvetica, Arial, 'PingFang SC', 'Microsoft YaHei', Ubuntu, Cantarell, 'Noto Sans', sans-serif" fill="rgba(51,51,51,1.000)" text-anchor="end" dominant-baseline="central">0.5</text>
<line x1="91.10" y1="52.49" x2="85.10" y2="52.49" stroke="rgba(51,51,51,1.000)" stroke-width="1.0"/>
<text x="81.10" y="52.49" font-size="13" font-family="Inter, -apple-system, BlinkMacSystemFont, 'Segoe UI', Roboto, Helvetica, Arial, 'PingFang SC', 'Microsoft YaHei', Ubuntu, Cantarell, 'Noto Sans', sans-serif" fill="rgba(51,51,51,1.000)" text-anchor="end" dominant-baseline="central">1.0</text>
<text x="43.00" y="177.38" text-anchor="middle" font-size="15" font-family="Inter, -apple-system, BlinkMacSystemFont, 'Segoe UI', Roboto, Helvetica, Arial, 'PingFang SC', 'Microsoft YaHei', Ubuntu, Cantarell, 'Noto Sans', sans-serif" fill="rgba(51,51,51,1.000)" font-weight="bold" transform="rotate(-90, 43.00, 177.38)" dominant-baseline="middle">y</text>
<defs><clipPath id="plot-clip-area"><rect x="91.100" y="40.000" width="315.100" height="274.752" /></clipPath></defs>
<path d="M 105.423 52.489 L 115.300 54.980 L 125.178 62.356 L 135.056 74.321 L 144.934 90.398 L 154.811 109.948 L 164.689 132.190 L 174.567 156.238 L 184.445 181.132 L 194.322 205.881 L 204.200 229.498 L 214.078 251.041 L 223.956 269.652 L 233.833 284.588 L 243.711 295.254 L 253.589 301.225 L 263.467 302.263 L 273.344 298.326 L 283.222 289.572 L 293.100 276.348 L 302.978 259.184 L 312.855 238.762 L 322.733 215.897 L 332.611 191.501 L 342.489 166.546 L 352.366 142.026 L 362.244 118.921 L 372.122 98.150 L 382.000 80.542 L 391.877 66.798" stroke="rgba(255,127,14,1.000)" stroke-width="2.000" stroke-opacity="1.000" fill="none" stroke-linejoin="round" stroke-linecap="round" clip-path="url(#plot-clip-area)" />
<path d="M 105.423 177.482 L 115.300 152.650 L 125.178 128.808 L 135.056 106.906 L 144.934 87.817 L 154.811 72.304 L 164.689 60.983 L 174.567 54.307 L 184.445 52.542 L 194.322 55.758 L 204.200 63.826 L 214.078 76.425 L 223.956 93.054 L 233.833 113.048 L 243.711 135.611 L 253.589 159.843 L 263.467 184.779 L 273.344 209.424 L 283.222 232.795 L 293.100 253.961 L 302.978 272.078 L 312.855 286.424 L 322.733 296.427 L 332.611 301.688 L 342.489 301.997 L 352.366 297.342 L 362.244 287.909 L 372.122 274.073 L 382.000 256.387 L 391.877 235.555" stroke="rgba(31,119,180,1.000)" stroke-width="2.000" stroke-opacity="1.000" fill="none" stroke-linejoin="round" stroke-linecap="round" clip-path="url(#plot-clip-area)" />
<text x="421.200" y="49.600" font-size="13.2" font-family="Inter, -apple-system, BlinkMacSystemFont, 'Segoe UI', Roboto, Helvetica, Arial, 'PingFang SC', 'Microsoft YaHei', Ubuntu, Cantarell, 'Noto Sans', sans-serif" fill="rgba(51,51,51,1.000)" fill-opacity="1.000" text-anchor="start" font-weight="bold">category</text>
<circle cx="430.200" cy="69.200" r="5.000" fill="rgba(31,119,180,1.000)" stroke="none" stroke-width="0.000" fill-opacity="1.000" stroke-opacity="1.000" />
<text x="447.200" y="73.700" font-size="12.0" font-family="Inter, -apple-system, BlinkMacSystemFont, 'Segoe UI', Roboto, Helvetica, Arial, 'PingFang SC', 'Microsoft YaHei', Ubuntu, Cantarell, 'Noto Sans', sans-serif" fill="rgba(51,51,51,1.000)" fill-opacity="1.000" text-anchor="start" font-weight="normal">Sine</text>
<circle cx="430.200" cy="90.200" r="5.000" fill="rgba(255,127,14,1.000)" stroke="none" stroke-width="0.000" fill-opacity="1.000" stroke-opacity="1.000" />
<text x="447.200" y="94.700" font-size="12.0" font-family="Inter, -apple-system, BlinkMacSystemFont, 'Segoe UI', Roboto, Helvetica, Arial, 'PingFang SC', 'Microsoft YaHei', Ubuntu, Cantarell, 'Noto Sans', sans-serif" fill="rgba(51,51,51,1.000)" fill-opacity="1.000" text-anchor="start" font-weight="normal">Cosine</text>
</svg>