<svg width="500" height="400" viewBox="0 0 500 400" xmlns="http://www.w3.org/2000/svg"><rect width="100%" height="100%" fill="rgba(255,255,255,1.000)" /><text x="250.00" y="8.00" text-anchor="middle" dominant-baseline="middle" font-family="Inter, -apple-system, BlinkMacSystemFont, 'Segoe UI', Roboto, Helvetica, Arial, 'PingFang SC', 'Microsoft YaHei', Ubuntu, Cantarell, 'Noto Sans', sans-serif" font-size="18" fill="rgba(51,51,51,1.000)" font-weight="bold">Extreme Seasonal Consumption Variance</text>
<circle cx="240.20" cy="178.00" r="138.00" fill="none" stroke="rgba(189,189,189,1.000)" stroke-width="1.00" opacity="0.5"/>
<text x="240.20" y="35.00" font-size="12" font-family="Inter, -apple-system, BlinkMacSystemFont, 'Segoe UI', Roboto, Helvetica, Arial, 'PingFang SC', 'Microsoft YaHei', Ubuntu, Cantarell, 'Noto Sans', sans-serif" fill="rgba(51,51,51,1.000)" text-anchor="middle" dominant-baseline="auto" opacity="0.9">2258</text>
<line x1="240.20" y1="178.00" x2="275.92" y2="44.70" stroke="rgba(189,189,189,1.000)" stroke-width="1.00" opacity="0.5"/>
<text x="277.21" y="39.87" font-size="13" font-family="Inter, -apple-system, BlinkMacSystemFont, 'Segoe UI', Roboto, Helvetica, Arial, 'PingFang SC', 'Microsoft YaHei', Ubuntu, Cantarell, 'Noto Sans', sans-serif" fill="rgba(51,51,51,1.000)" text-anchor="start" dominant-baseline="auto">Jan</text>
<line x1="240.20" y1="178.00" x2="337.78" y2="80.42" stroke="rgba(189,189,189,1.000)" stroke-width="1.00" opacity="0.5"/>
<text x="341.32" y="76.88" font-size="13" font-family="Inter, -apple-system, BlinkMacSystemFont, 'Segoe UI', Roboto, Helvetica, Arial, 'PingFang SC', 'Microsoft YaHei', Ubuntu, Cantarell, 'Noto Sans', sans-serif" fill="rgba(51,51,51,1.000)" text-anchor="start" dominant-baseline="auto">Feb</text>
<line x1="240.20" y1="178.00" x2="373.50" y2="142.28" stroke="rgba(189,189,189,1.000)" stroke-width="1.00" opacity="0.5"/>
<text x="378.33" y="140.99" font-size="13" font-family="Inter, -apple-system, BlinkMacSystemFont, 'Segoe UI', Roboto, Helvetica, Arial, 'PingFang SC', 'Microsoft YaHei', Ubuntu, Cantarell, 'Noto Sans', sans-serif" fill="rgba(51,51,51,1.000)" text-anchor="start" dominant-baseline="middle">Mar</text>
<line x1="240.20" y1="178.00" x2="373.50" y2="213.72" stroke="rgba(189,189,189,1.000)" stroke-width="1.00" opacity="0.5"/>
<text x="378.33" y="215.01" font-size="13" font-family="Inter, -apple-system, BlinkMacSystemFont, 'Segoe UI', Roboto, Helvetica, Arial, 'PingFang SC', 'Microsoft YaHei', Ubuntu, Cantarell, 'Noto Sans', sans-serif" fill="rgba(51,51,51,1.000)" text-anchor="start" dominant-baseline="middle">Apr</text>
<line x1="240.20" y1="178.00" x2="337.78" y2="275.58" stroke="rgba(189,189,189,1.000)" stroke-width="1.00" opacity="0.5"/>
<text x="341.32" y="279.12" font-size="13" font-family="Inter, -apple-system, BlinkMacSystemFont, 'Segoe UI', Roboto, Helvetica, Arial, 'PingFang SC', 'Microsoft YaHei', Ubuntu, Cantarell, 'Noto Sans', sans-serif" fill="rgba(51,51,51,1.000)" text-anchor="start" dominant-baseline="hanging">May</text>
<line x1="240.20" y1="178.00" x2="275.92" y2="311.30" stroke="rgba(189,189,189,1.000)" stroke-width="1.00" opacity="0.5"/>
<text x="277.21" y="316.13" font-size="13" font-family="Inter, -apple-system, BlinkMacSystemFont, 'Segoe UI', Roboto, Helvetica, Arial, 'PingFang SC', 'Microsoft YaHei', Ubuntu, Cantarell, 'Noto Sans', sans-serif" fill="rgba(51,51,51,1.000)" text-anchor="start" dominant-baseline="hanging">Jun</text>
<line x1="240.20" y1="178.00" x2="204.48" y2="311.30" stroke="rgba(189,189,189,1.000)" stroke-width="1.00" opacity="0.5"/>
<text x="203.19" y="316.13" font-size="13" font-family="Inter, -apple-system, BlinkMacSystemFont, 'Segoe UI', Roboto, Helvetica, Arial, 'PingFang SC', 'Microsoft YaHei', Ubuntu, Cantarell, 'Noto Sans', sans-serif" fill="rgba(51,51,51,1.000)" text-anchor="end" dominant-baseline="hanging">Jul</text>
<line x1="240.20" y1="178.00" x2="142.62" y2="275.58" stroke="rgba(189,189,189,1.000)" stroke-width="1.00" opacity="0.5"/>
<text x="139.08" y="279.12" font-size="13" font-family="Inter, -apple-system, BlinkMacSystemFont, 'Segoe UI', Roboto, Helvetica, Arial, 'PingFang SC', 'Microsoft YaHei', Ubuntu, Cantarell, 'Noto Sans', sans-serif" fill="rgba(51,51,51,1.000)" text-anchor="end" dominant-baseline="hanging">Aug</text>
<line x1="240.20" y1="178.00" x2="106.90" y2="213.72" stroke="rgba(189,189,189,1.000)" stroke-width="1.00" opacity="0.5"/>
<text x="102.07" y="215.01" font-size="13" font-family="Inter, -apple-system, BlinkMacSystemFont, 'Segoe UI', Roboto, Helvetica, Arial, 'PingFang SC', 'Microsoft YaHei', Ubuntu, Cantarell, 'Noto Sans', sans-serif" fill="rgba(51,51,51,1.000)" text-anchor="end" dominant-baseline="middle">Sep</text>
<line x1="240.20" y1="178.00" x2="106.90" y2="142.28" stroke="rgba(189,189,189,1.000)" stroke-width="1.00" opacity="0.5"/>
<text x="102.07" y="140.99" font-size="13" font-family="Inter, -apple-system, BlinkMacSystemFont, 'Segoe UI', Roboto, Helvetica, Arial, 'PingFang SC', 'Microsoft YaHei', Ubuntu, Cantarell, 'Noto Sans', sans-serif" fill="rgba(51,51,51,1.000)" text-anchor="end" dominant-baseline="middle">Oct</text>
<line x1="240.20" y1="178.00" x2="142.62" y2="80.42" stroke="rgba(189,189,189,1.000)" stroke-width="1.00" opacity="0.5"/>
<text x="139.08" y="76.88" font-size="13" font-family="Inter, -apple-system, BlinkMacSystemFont, 'Segoe UI', Roboto, Helvetica, Arial, 'PingFang SC', 'Microsoft YaHei', Ubuntu, Cantarell, 'Noto Sans', sans-serif" fill="rgba(51,51,51,1.000)" text-anchor="end" dominant-baseline="auto">Nov</text>
<line x1="240.20" y1="178.00" x2="204.48" y2="44.70" stroke="rgba(189,189,189,1.000)" stroke-width="1.00" opacity="0.5"/>
<text x="203.19" y="39.87" font-size="13" font-family="Inter, -apple-system, BlinkMacSystemFont, 'Segoe UI', Roboto, Helvetica, Arial, 'PingFang SC', 'Microsoft YaHei', Ubuntu, Cantarell, 'Noto Sans', sans-serif" fill="rgba(51,51,51,1.000)" text-anchor="end" dominant-baseline="auto">Dec</text>
<defs><clipPath id="plot-clip-area"><rect x="97.600" y="40.000" width="285.200" height="276.000" /></clipPath></defs>
<polygon points="240.200,178.000 240.200,146.183 242.050,146.237 243.894,146.398 245.725,146.667 247.537,147.041 249.325,147.520 251.082,148.102 252.802,148.785 254.479,149.568 256.108,150.446 240.200,178.000 240.200,178.000 240.200,178.000 240.200,178.000 240.200,178.000 240.200,178.000 240.200,178.000 240.200,178.000 240.200,178.000" fill="rgba(31,119,180,1.000)" stroke="rgba(224,224,224,1.000)" stroke-width="0.500" fill-opacity="1.000" stroke-opacity="1.000" clip-path="url(#plot-clip-area)" />
<polygon points="240.200,178.000 254.722,152.847 256.160,153.734 257.544,154.703 258.870,155.751 260.132,156.874 261.326,158.068 262.449,159.331 263.497,160.656 264.466,162.040 265.353,163.478 240.200,178.000 240.200,178.000 240.200,178.000 240.200,178.000 240.200,178.000 240.200,178.000 240.200,178.000 240.200,178.000 240.200,178.000" fill="rgba(31,119,180,1.000)" stroke="rgba(224,224,224,1.000)" stroke-width="0.500" fill-opacity="1.000" stroke-opacity="1.000" clip-path="url(#plot-clip-area)" />
<polygon points="240.200,178.000 259.684,166.751 260.305,167.903 260.858,169.089 261.341,170.305 261.753,171.548 262.091,172.812 262.356,174.093 262.546,175.388 262.660,176.692 262.698,178.000 240.200,178.000 240.200,178.000 240.200,178.000 240.200,178.000 240.200,178.000 240.200,178.000 240.200,178.000 240.200,178.000 240.200,178.000" fill="rgba(31,119,180,1.000)" stroke="rgba(224,224,224,1.000)" stroke-width="0.500" fill-opacity="1.000" stroke-opacity="1.000" clip-path="url(#plot-clip-area)" />
<polygon points="240.200,178.000 256.108,178.000 256.081,178.925 256.001,179.847 255.867,180.762 255.680,181.669 255.440,182.563 255.149,183.441 254.807,184.301 254.416,185.140 253.977,185.954 240.200,178.000 240.200,178.000 240.200,178.000 240.200,178.000 240.200,178.000 240.200,178.000 240.200,178.000 240.200,178.000 240.200,178.000" fill="rgba(31,119,180,1.000)" stroke="rgba(224,224,224,1.000)" stroke-width="0.500" fill-opacity="1.000" stroke-opacity="1.000" clip-path="url(#plot-clip-area)" />
<polygon points="240.200,178.000 251.449,184.495 251.052,185.138 250.619,185.757 250.150,186.349 249.648,186.914 249.114,187.448 248.549,187.950 247.957,188.419 247.338,188.852 246.695,189.249 240.200,178.000 240.200,178.000 240.200,178.000 240.200,178.000 240.200,178.000 240.200,178.000 240.200,178.000 240.200,178.000 240.200,178.000" fill="rgba(31,119,180,1.000)" stroke="rgba(224,224,224,1.000)" stroke-width="0.500" fill-opacity="1.000" stroke-opacity="1.000" clip-path="url(#plot-clip-area)" />
<polygon points="240.200,178.000 244.792,185.954 244.322,186.208 243.838,186.434 243.341,186.631 242.834,186.799 242.318,186.937 241.795,187.045 241.266,187.123 240.734,187.169 240.200,187.185 240.200,178.000 240.200,178.000 240.200,178.000 240.200,178.000 240.200,178.000 240.200,178.000 240.200,178.000 240.200,178.000 240.200,178.000" fill="rgba(31,119,180,1.000)" stroke="rgba(224,224,224,1.000)" stroke-width="0.500" fill-opacity="1.000" stroke-opacity="1.000" clip-path="url(#plot-clip-area)" />
<polygon points="240.200,178.000 240.200,184.495 239.822,184.484 239.446,184.451 239.072,184.396 238.702,184.320 238.337,184.222 237.979,184.103 237.628,183.963 237.285,183.804 236.953,183.624 240.200,178.000 240.200,178.000 240.200,178.000 240.200,178.000 240.200,178.000 240.200,178.000 240.200,178.000 240.200,178.000 240.200,178.000" fill="rgba(31,119,180,1.000)" stroke="rgba(224,224,224,1.000)" stroke-width="0.500" fill-opacity="1.000" stroke-opacity="1.000" clip-path="url(#plot-clip-area)" />
<polygon points="240.200,178.000 232.939,190.577 232.220,190.133 231.528,189.649 230.865,189.125 230.234,188.563 229.637,187.966 229.075,187.335 228.551,186.672 228.067,185.980 227.623,185.261 240.200,178.000 240.200,178.000 240.200,178.000 240.200,178.000 240.200,178.000 240.200,178.000 240.200,178.000 240.200,178.000 240.200,178.000" fill="rgba(31,119,180,1.000)" stroke="rgba(224,224,224,1.000)" stroke-width="0.500" fill-opacity="1.000" stroke-opacity="1.000" clip-path="url(#plot-clip-area)" />
<polygon points="240.200,178.000 224.292,187.185 223.785,186.244 223.333,185.276 222.938,184.283 222.602,183.268 222.326,182.236 222.110,181.190 221.955,180.133 221.862,179.068 221.831,178.000 240.200,178.000 240.200,178.000 240.200,178.000 240.200,178.000 240.200,178.000 240.200,178.000 240.200,178.000 240.200,178.000 240.200,178.000" fill="rgba(31,119,180,1.000)" stroke="rgba(224,224,224,1.000)" stroke-width="0.500" fill-opacity="1.000" stroke-opacity="1.000" clip-path="url(#plot-clip-area)" />
<polygon points="240.200,178.000 215.900,178.000 215.941,176.587 216.064,175.179 216.269,173.780 216.555,172.396 216.920,171.031 217.365,169.689 217.887,168.375 218.484,167.094 219.155,165.850 240.200,178.000 240.200,178.000 240.200,178.000 240.200,178.000 240.200,178.000 240.200,178.000 240.200,178.000 240.200,178.000 240.200,178.000" fill="rgba(31,119,180,1.000)" stroke="rgba(224,224,224,1.000)" stroke-width="0.500" fill-opacity="1.000" stroke-opacity="1.000" clip-path="url(#plot-clip-area)" />
<polygon points="240.200,178.000 213.819,162.769 214.749,161.261 215.766,159.809 216.865,158.419 218.043,157.096 219.296,155.843 220.619,154.665 222.009,153.566 223.461,152.549 224.969,151.619 240.200,178.000 240.200,178.000 240.200,178.000 240.200,178.000 240.200,178.000 240.200,178.000 240.200,178.000 240.200,178.000 240.200,178.000" fill="rgba(31,119,180,1.000)" stroke="rgba(224,224,224,1.000)" stroke-width="0.500" fill-opacity="1.000" stroke-opacity="1.000" clip-path="url(#plot-clip-area)" />
<polygon points="240.200,178.000 223.642,149.321 225.338,148.407 227.083,147.592 228.874,146.881 230.702,146.275 232.563,145.777 234.449,145.387 236.355,145.108 238.274,144.940 240.200,144.884 240.200,178.000 240.200,178.000 240.200,178.000 240.200,178.000 240.200,178.000 240.200,178.000 240.200,178.000 240.200,178.000 240.200,178.000" fill="rgba(31,119,180,1.000)" stroke="rgba(224,224,224,1.000)" stroke-width="0.500" fill-opacity="1.000" stroke-opacity="1.000" clip-path="url(#plot-clip-area)" />
<polygon points="240.200,146.183 240.200,127.693 243.125,127.778 246.040,128.033 248.936,128.458 251.802,129.049 254.628,129.807 257.406,130.727 260.125,131.808 262.778,133.044 265.353,134.433 256.108,150.446 254.479,149.568 252.802,148.785 251.082,148.102 249.325,147.520 247.537,147.041 245.725,146.667 243.894,146.398 242.050,146.237" fill="rgba(255,127,14,1.000)" stroke="rgba(224,224,224,1.000)" stroke-width="0.500" fill-opacity="1.000" stroke-opacity="1.000" clip-path="url(#plot-clip-area)" />
<polygon points="254.722,152.847 261.740,140.692 263.873,142.007 265.926,143.444 267.891,144.999 269.763,146.665 271.535,148.437 273.201,150.309 274.756,152.274 276.193,154.327 277.508,156.460 265.353,163.478 264.466,162.040 263.497,160.656 262.449,159.331 261.326,158.068 260.132,156.874 258.870,155.751 257.544,154.703 256.160,153.734" fill="rgba(255,127,14,1.000)" stroke="rgba(224,224,224,1.000)" stroke-width="0.500" fill-opacity="1.000" stroke-opacity="1.000" clip-path="url(#plot-clip-area)" />
<polygon points="259.684,166.751 275.772,157.462 276.906,159.565 277.916,161.731 278.798,163.951 279.550,166.219 280.168,168.527 280.651,170.867 280.998,173.231 281.206,175.612 281.275,178.000 262.698,178.000 262.660,176.692 262.546,175.388 262.356,174.093 262.091,172.812 261.753,171.548 261.341,170.305 260.858,169.089 260.305,167.903" fill="rgba(255,127,14,1.000)" stroke="rgba(224,224,224,1.000)" stroke-width="0.500" fill-opacity="1.000" stroke-opacity="1.000" clip-path="url(#plot-clip-area)" />
<polygon points="256.108,178.000 279.167,178.000 279.101,180.266 278.904,182.524 278.575,184.767 278.117,186.986 277.530,189.176 276.817,191.328 275.980,193.434 275.023,195.489 273.947,197.484 253.977,185.954 254.416,185.140 254.807,184.301 255.149,183.441 255.440,182.563 255.680,181.669 255.867,180.762 256.001,179.847 256.081,178.925" fill="rgba(255,127,14,1.000)" stroke="rgba(224,224,224,1.000)" stroke-width="0.500" fill-opacity="1.000" stroke-opacity="1.000" clip-path="url(#plot-clip-area)" />
<polygon points="251.449,184.495 262.698,190.989 261.905,192.275 261.038,193.513 260.100,194.699 259.096,195.827 258.027,196.896 256.898,197.901 255.713,198.838 254.475,199.705 253.189,200.498 246.695,189.249 247.338,188.852 247.957,188.419 248.549,187.950 249.114,187.448 249.648,186.914 250.150,186.349 250.619,185.757 251.052,185.138" fill="rgba(255,127,14,1.000)" stroke="rgba(224,224,224,1.000)" stroke-width="0.500" fill-opacity="1.000" stroke-opacity="1.000" clip-path="url(#plot-clip-area)" />
<polygon points="244.792,185.954 253.977,201.863 252.566,202.623 251.114,203.301 249.624,203.892 248.103,204.397 246.554,204.811 244.985,205.136 243.399,205.368 241.802,205.507 240.200,205.554 240.200,187.185 240.734,187.169 241.266,187.123 241.795,187.045 242.318,186.937 242.834,186.799 243.341,186.631 243.838,186.434 244.322,186.208" fill="rgba(255,127,14,1.000)" stroke="rgba(224,224,224,1.000)" stroke-width="0.500" fill-opacity="1.000" stroke-opacity="1.000" clip-path="url(#plot-clip-area)" />
<polygon points="240.200,184.495 240.200,201.416 238.838,201.377 237.482,201.258 236.134,201.061 234.800,200.785 233.484,200.433 232.191,200.004 230.925,199.501 229.691,198.926 228.492,198.279 236.953,183.624 237.285,183.804 237.628,183.963 237.979,184.103 238.337,184.222 238.702,184.320 239.072,184.396 239.446,184.451 239.822,184.484" fill="rgba(255,127,14,1.000)" stroke="rgba(224,224,224,1.000)" stroke-width="0.500" fill-opacity="1.000" stroke-opacity="1.000" clip-path="url(#plot-clip-area)" />
<polygon points="232.939,190.577 223.327,207.226 221.656,206.195 220.048,205.069 218.508,203.852 217.042,202.547 215.654,201.158 214.348,199.692 213.131,198.152 212.005,196.544 210.974,194.873 227.623,185.261 228.067,185.980 228.551,186.672 229.075,187.335 229.637,187.966 230.234,188.563 230.865,189.125 231.528,189.649 232.220,190.133" fill="rgba(255,127,14,1.000)" stroke="rgba(224,224,224,1.000)" stroke-width="0.500" fill-opacity="1.000" stroke-opacity="1.000" clip-path="url(#plot-clip-area)" />
<polygon points="224.292,187.185 205.529,198.018 204.423,195.968 203.439,193.857 202.579,191.693 201.847,189.482 201.244,187.233 200.773,184.952 200.436,182.648 200.233,180.328 200.165,178.000 221.831,178.000 221.862,179.068 221.955,180.133 222.110,181.190 222.326,182.236 222.602,183.268 222.938,184.283 223.333,185.276 223.785,186.244" fill="rgba(255,127,14,1.000)" stroke="rgba(224,224,224,1.000)" stroke-width="0.500" fill-opacity="1.000" stroke-opacity="1.000" clip-path="url(#plot-clip-area)" />
<polygon points="215.900,178.000 194.276,178.000 194.354,175.330 194.587,172.669 194.974,170.025 195.514,167.409 196.206,164.829 197.046,162.293 198.032,159.811 199.161,157.390 200.429,155.038 219.155,165.850 218.484,167.094 217.887,168.375 217.365,169.689 216.920,171.031 216.555,172.396 216.269,173.780 216.064,175.179 215.941,176.587" fill="rgba(255,127,14,1.000)" stroke="rgba(224,224,224,1.000)" stroke-width="0.500" fill-opacity="1.000" stroke-opacity="1.000" clip-path="url(#plot-clip-area)" />
<polygon points="213.819,162.769 196.633,152.847 198.169,150.356 199.848,147.959 201.663,145.663 203.608,143.477 205.677,141.408 207.863,139.463 210.159,137.648 212.556,135.969 215.047,134.433 224.969,151.619 223.461,152.549 222.009,153.566 220.619,154.665 219.296,155.843 218.043,157.096 216.865,158.419 215.766,159.809 214.749,161.261" fill="rgba(255,127,14,1.000)" stroke="rgba(224,224,224,1.000)" stroke-width="0.500" fill-opacity="1.000" stroke-opacity="1.000" clip-path="url(#plot-clip-area)" />
<polygon points="223.642,149.321 213.031,130.942 215.813,129.442 218.678,128.106 221.615,126.939 224.616,125.945 227.669,125.127 230.764,124.488 233.892,124.030 237.041,123.754 240.200,123.663 240.200,144.884 238.274,144.940 236.355,145.108 234.449,145.387 232.563,145.777 230.702,146.275 228.874,146.881 227.083,147.592 225.338,148.407" fill="rgba(255,127,14,1.000)" stroke="rgba(224,224,224,1.000)" stroke-width="0.500" fill-opacity="1.000" stroke-opacity="1.000" clip-path="url(#plot-clip-area)" />
<polygon points="240.200,127.693 240.200,54.774 247.365,54.983 254.506,55.607 261.598,56.646 268.618,58.096 275.542,59.951 282.346,62.206 289.007,64.852 295.504,67.881 301.813,71.283 265.353,134.433 262.778,133.044 260.125,131.808 257.406,130.727 254.628,129.807 251.802,129.049 248.936,128.458 246.040,128.033 243.125,127.778" fill="rgba(44,160,44,1.000)" stroke="rgba(224,224,224,1.000)" stroke-width="0.500" fill-opacity="1.000" stroke-opacity="1.000" clip-path="url(#plot-clip-area)" />
<polygon points="261.740,140.692 286.580,97.667 291.173,100.499 295.593,103.594 299.826,106.941 303.856,110.528 307.672,114.344 311.259,118.374 314.606,122.607 317.701,127.027 320.533,131.620 277.508,156.460 276.193,154.327 274.756,152.274 273.201,150.309 271.535,148.437 269.763,146.665 267.891,144.999 265.926,143.444 263.873,142.007" fill="rgba(44,160,44,1.000)" stroke="rgba(224,224,224,1.000)" stroke-width="0.500" fill-opacity="1.000" stroke-opacity="1.000" clip-path="url(#plot-clip-area)" />
<polygon points="275.772,157.462 287.258,150.831 288.758,153.613 290.094,156.478 291.260,159.415 292.255,162.416 293.073,165.469 293.712,168.564 294.170,171.692 294.446,174.841 294.537,178.000 281.275,178.000 281.206,175.612 280.998,173.231 280.651,170.867 280.168,168.527 279.550,166.219 278.798,163.951 277.916,161.731 276.906,159.565" fill="rgba(44,160,44,1.000)" stroke="rgba(224,224,224,1.000)" stroke-width="0.500" fill-opacity="1.000" stroke-opacity="1.000" clip-path="url(#plot-clip-area)" />
<polygon points="279.167,178.000 281.275,178.000 281.206,180.388 280.998,182.769 280.651,185.133 280.168,187.473 279.550,189.781 278.798,192.049 277.916,194.269 276.906,196.435 275.772,198.538 273.947,197.484 275.023,195.489 275.980,193.434 276.817,191.328 277.530,189.176 278.117,186.986 278.575,184.767 278.904,182.524 279.101,180.266" fill="rgba(44,160,44,1.000)" stroke="rgba(224,224,224,1.000)" stroke-width="0.500" fill-opacity="1.000" stroke-opacity="1.000" clip-path="url(#plot-clip-area)" />
<polygon points="262.698,190.989 264.063,191.777 263.221,193.141 262.302,194.454 261.308,195.711 260.242,196.909 259.109,198.042 257.911,199.108 256.654,200.102 255.341,201.021 253.977,201.863 253.189,200.498 254.475,199.705 255.713,198.838 256.898,197.901 258.027,196.896 259.096,195.827 260.100,194.699 261.038,193.513 261.905,192.275" fill="rgba(44,160,44,1.000)" stroke="rgba(224,224,224,1.000)" stroke-width="0.500" fill-opacity="1.000" stroke-opacity="1.000" clip-path="url(#plot-clip-area)" />
<polygon points="253.977,201.863 254.355,202.516 252.905,203.298 251.413,203.994 249.882,204.602 248.319,205.120 246.729,205.546 245.116,205.879 243.486,206.118 241.846,206.261 240.200,206.309 240.200,205.554 241.802,205.507 243.399,205.368 244.985,205.136 246.554,204.811 248.103,204.397 249.624,203.892 251.114,203.301 252.566,202.623" fill="rgba(44,160,44,1.000)" stroke="rgba(224,224,224,1.000)" stroke-width="0.500" fill-opacity="1.000" stroke-opacity="1.000" clip-path="url(#plot-clip-area)" />
<polygon points="240.200,201.416 240.200,201.416 238.838,201.377 237.482,201.258 236.134,201.061 234.800,200.785 233.484,200.433 232.191,200.004 230.925,199.501 229.691,198.926 228.492,198.279 228.492,198.279 229.691,198.926 230.925,199.501 232.191,200.004 233.484,200.433 234.800,200.785 236.134,201.061 237.482,201.258 238.838,201.377" fill="rgba(44,160,44,1.000)" stroke="rgba(224,224,224,1.000)" stroke-width="0.500" fill-opacity="1.000" stroke-opacity="1.000" clip-path="url(#plot-clip-area)" />
<polygon points="223.327,207.226 223.017,207.762 221.316,206.712 219.678,205.566 218.110,204.326 216.617,202.997 215.203,201.583 213.874,200.090 212.634,198.522 211.488,196.884 210.438,195.183 210.974,194.873 212.005,196.544 213.131,198.152 214.348,199.692 215.654,201.158 217.042,202.547 218.508,203.852 220.048,205.069 221.656,206.195" fill="rgba(44,160,44,1.000)" stroke="rgba(224,224,224,1.000)" stroke-width="0.500" fill-opacity="1.000" stroke-opacity="1.000" clip-path="url(#plot-clip-area)" />
<polygon points="205.529,198.018 204.186,198.793 203.038,196.664 202.016,194.471 201.122,192.223 200.362,189.927 199.735,187.590 199.246,185.221 198.896,182.828 198.685,180.418 198.614,178.000 200.165,178.000 200.233,180.328 200.436,182.648 200.773,184.952 201.244,187.233 201.847,189.482 202.579,191.693 203.439,193.857 204.423,195.968" fill="rgba(44,160,44,1.000)" stroke="rgba(224,224,224,1.000)" stroke-width="0.500" fill-opacity="1.000" stroke-opacity="1.000" clip-path="url(#plot-clip-area)" />
<polygon points="194.276,178.000 185.863,178.000 185.954,174.841 186.230,171.692 186.688,168.564 187.327,165.469 188.145,162.416 189.139,159.415 190.306,156.478 191.642,153.613 193.142,150.831 200.429,155.038 199.161,157.390 198.032,159.811 197.046,162.293 196.206,164.829 195.514,167.409 194.974,170.025 194.587,172.669 194.354,175.330" fill="rgba(44,160,44,1.000)" stroke="rgba(224,224,224,1.000)" stroke-width="0.500" fill-opacity="1.000" stroke-opacity="1.000" clip-path="url(#plot-clip-area)" />
<polygon points="196.633,152.847 164.740,134.433 167.401,130.119 170.308,125.967 173.452,121.992 176.821,118.205 180.405,114.621 184.191,111.252 188.167,108.108 192.319,105.201 196.633,102.540 215.047,134.433 212.556,135.969 210.159,137.648 207.863,139.463 205.677,141.408 203.608,143.477 201.663,145.663 199.848,147.959 198.169,150.356" fill="rgba(44,160,44,1.000)" stroke="rgba(224,224,224,1.000)" stroke-width="0.500" fill-opacity="1.000" stroke-opacity="1.000" clip-path="url(#plot-clip-area)" />
<polygon points="213.031,130.942 172.863,61.369 179.758,57.651 186.858,54.340 194.139,51.448 201.575,48.984 209.142,46.956 216.814,45.372 224.565,44.236 232.369,43.554 240.200,43.326 240.200,123.663 237.041,123.754 233.892,124.030 230.764,124.488 227.669,125.127 224.616,125.945 221.615,126.939 218.678,128.106 215.813,129.442" fill="rgba(44,160,44,1.000)" stroke="rgba(224,224,224,1.000)" stroke-width="0.500" fill-opacity="1.000" stroke-opacity="1.000" clip-path="url(#plot-clip-area)" />
<text x="397.800" y="49.600" font-size="13.2" font-family="Inter, -apple-system, BlinkMacSystemFont, 'Segoe UI', Roboto, Helvetica, Arial, 'PingFang SC', 'Microsoft YaHei', Ubuntu, Cantarell, 'Noto Sans', sans-serif" fill="rgba(51,51,51,1.000)" fill-opacity="1.000" text-anchor="start" font-weight="bold">Category</text>
<circle cx="406.800" cy="69.200" r="5.000" fill="rgba(31,119,180,1.000)" stroke="none" stroke-width="0.000" fill-opacity="1.000" stroke-opacity="1.000" />
<text x="423.800" y="73.700" font-size="12.0" font-family="Inter, -apple-system, BlinkMacSystemFont, 'Segoe UI', Roboto, Helvetica, Arial, 'PingFang SC', 'Microsoft YaHei', Ubuntu, Cantarell, 'Noto Sans', sans-serif" fill="rgba(51,51,51,1.000)" fill-opacity="1.000" text-anchor="start" font-weight="normal">Lighting</text>
<circle cx="406.800" cy="90.200" r="5.000" fill="rgba(255,127,14,1.000)" stroke="none" stroke-width="0.000" fill-opacity="1.000" stroke-opacity="1.000" />
<text x="423.800" y="94.700" font-size="12.0" font-family="Inter, -apple-system, BlinkMacSystemFont, 'Segoe UI', Roboto, Helvetica, Arial, 'PingFang SC', 'Microsoft YaHei', Ubuntu, Cantarell, 'Noto Sans', sans-serif" fill="rgba(51,51,51,1.000)" fill-opacity="1.000" text-anchor="start" font-weight="normal">Appliances</text>
<circle cx="406.800" cy="111.200" r="5.000" fill="rgba(44,160,44,1.000)" stroke="none" stroke-width="0.000" fill-opacity="1.000" stroke-opacity="1.000" />
<text x="423.800" y="115.700" font-size="12.0" font-family="Inter, -apple-system, BlinkMacSystemFont, 'Segoe UI', Roboto, Helvetica, Arial, 'PingFang SC', 'Microsoft YaHei', Ubuntu, Cantarell, 'Noto Sans', sans-serif" fill="rgba(51,51,51,1.000)" fill-opacity="1.000" text-anchor="start" font-weight="normal">Heating</text>
</svg>