<svg width="500" height="400" viewBox="0 0 500 400" xmlns="http://www.w3.org/2000/svg"><rect width="100%" height="100%" fill="rgba(255,255,255,1.000)" /><text x="250.00" y="10.00" text-anchor="middle" dominant-baseline="middle" font-family="Inter, -apple-system, BlinkMacSystemFont, 'Segoe UI', Roboto, Helvetica, Arial, 'PingFang SC', 'Microsoft YaHei', Ubuntu, Cantarell, 'Noto Sans', sans-serif" font-size="18" fill="rgba(51,51,51,1.000)" font-weight="bold">Nightingale wind rose</text>
<circle cx="248.60" cy="178.00" r="138.00" fill="none" stroke="rgba(189,189,189,1.000)" stroke-width="1.00" opacity="0.5"/>
<text x="248.60" y="35.00" font-size="12" font-family="Inter, -apple-system, BlinkMacSystemFont, 'Segoe UI', Roboto, Helvetica, Arial, 'PingFang SC', 'Microsoft YaHei', Ubuntu, Cantarell, 'Noto Sans', sans-serif" fill="rgba(51,51,51,1.000)" text-anchor="middle" dominant-baseline="auto" opacity="0.9">3326</text>
<line x1="248.60" y1="178.00" x2="284.32" y2="44.70" stroke="rgba(189,189,189,1.000)" stroke-width="1.00" opacity="0.5"/>
<text x="285.61" y="39.87" font-size="13" font-family="Inter, -apple-system, BlinkMacSystemFont, 'Segoe UI', Roboto, Helvetica, Arial, 'PingFang SC', 'Microsoft YaHei', Ubuntu, Cantarell, 'Noto Sans', sans-serif" fill="rgba(51,51,51,1.000)" text-anchor="start" dominant-baseline="auto">Apr</text>
<line x1="248.60" y1="178.00" x2="346.18" y2="80.42" stroke="rgba(189,189,189,1.000)" stroke-width="1.00" opacity="0.5"/>
<text x="349.72" y="76.88" font-size="13" font-family="Inter, -apple-system, BlinkMacSystemFont, 'Segoe UI', Roboto, Helvetica, Arial, 'PingFang SC', 'Microsoft YaHei', Ubuntu, Cantarell, 'Noto Sans', sans-serif" fill="rgba(51,51,51,1.000)" text-anchor="start" dominant-baseline="auto">May</text>
<line x1="248.60" y1="178.00" x2="381.90" y2="142.28" stroke="rgba(189,189,189,1.000)" stroke-width="1.00" opacity="0.5"/>
<text x="386.73" y="140.99" font-size="13" font-family="Inter, -apple-system, BlinkMacSystemFont, 'Segoe UI', Roboto, Helvetica, Arial, 'PingFang SC', 'Microsoft YaHei', Ubuntu, Cantarell, 'Noto Sans', sans-serif" fill="rgba(51,51,51,1.000)" text-anchor="start" dominant-baseline="middle">Jun</text>
<line x1="248.60" y1="178.00" x2="381.90" y2="213.72" stroke="rgba(189,189,189,1.000)" stroke-width="1.00" opacity="0.5"/>
<text x="386.73" y="215.01" font-size="13" font-family="Inter, -apple-system, BlinkMacSystemFont, 'Segoe UI', Roboto, Helvetica, Arial, 'PingFang SC', 'Microsoft YaHei', Ubuntu, Cantarell, 'Noto Sans', sans-serif" fill="rgba(51,51,51,1.000)" text-anchor="start" dominant-baseline="middle">Jul</text>
<line x1="248.60" y1="178.00" x2="346.18" y2="275.58" stroke="rgba(189,189,189,1.000)" stroke-width="1.00" opacity="0.5"/>
<text x="349.72" y="279.12" font-size="13" font-family="Inter, -apple-system, BlinkMacSystemFont, 'Segoe UI', Roboto, Helvetica, Arial, 'PingFang SC', 'Microsoft YaHei', Ubuntu, Cantarell, 'Noto Sans', sans-serif" fill="rgba(51,51,51,1.000)" text-anchor="start" dominant-baseline="hanging">Aug</text>
<line x1="248.60" y1="178.00" x2="284.32" y2="311.30" stroke="rgba(189,189,189,1.000)" stroke-width="1.00" opacity="0.5"/>
<text x="285.61" y="316.13" font-size="13" font-family="Inter, -apple-system, BlinkMacSystemFont, 'Segoe UI', Roboto, Helvetica, Arial, 'PingFang SC', 'Microsoft YaHei', Ubuntu, Cantarell, 'Noto Sans', sans-serif" fill="rgba(51,51,51,1.000)" text-anchor="start" dominant-baseline="hanging">Sep</text>
<line x1="248.60" y1="178.00" x2="212.88" y2="311.30" stroke="rgba(189,189,189,1.000)" stroke-width="1.00" opacity="0.5"/>
<text x="211.59" y="316.13" font-size="13" font-family="Inter, -apple-system, BlinkMacSystemFont, 'Segoe UI', Roboto, Helvetica, Arial, 'PingFang SC', 'Microsoft YaHei', Ubuntu, Cantarell, 'Noto Sans', sans-serif" fill="rgba(51,51,51,1.000)" text-anchor="end" dominant-baseline="hanging">Oct</text>
<line x1="248.60" y1="178.00" x2="151.02" y2="275.58" stroke="rgba(189,189,189,1.000)" stroke-width="1.00" opacity="0.5"/>
<text x="147.48" y="279.12" font-size="13" font-family="Inter, -apple-system, BlinkMacSystemFont, 'Segoe UI', Roboto, Helvetica, Arial, 'PingFang SC', 'Microsoft YaHei', Ubuntu, Cantarell, 'Noto Sans', sans-serif" fill="rgba(51,51,51,1.000)" text-anchor="end" dominant-baseline="hanging">Nov</text>
<line x1="248.60" y1="178.00" x2="115.30" y2="213.72" stroke="rgba(189,189,189,1.000)" stroke-width="1.00" opacity="0.5"/>
<text x="110.47" y="215.01" font-size="13" font-family="Inter, -apple-system, BlinkMacSystemFont, 'Segoe UI', Roboto, Helvetica, Arial, 'PingFang SC', 'Microsoft YaHei', Ubuntu, Cantarell, 'Noto Sans', sans-serif" fill="rgba(51,51,51,1.000)" text-anchor="end" dominant-baseline="middle">Dec</text>
<line x1="248.60" y1="178.00" x2="115.30" y2="142.28" stroke="rgba(189,189,189,1.000)" stroke-width="1.00" opacity="0.5"/>
<text x="110.47" y="140.99" font-size="13" font-family="Inter, -apple-system, BlinkMacSystemFont, 'Segoe UI', Roboto, Helvetica, Arial, 'PingFang SC', 'Microsoft YaHei', Ubuntu, Cantarell, 'Noto Sans', sans-serif" fill="rgba(51,51,51,1.000)" text-anchor="end" dominant-baseline="middle">Jan</text>
<line x1="248.60" y1="178.00" x2="151.02" y2="80.42" stroke="rgba(189,189,189,1.000)" stroke-width="1.00" opacity="0.5"/>
<text x="147.48" y="76.88" font-size="13" font-family="Inter, -apple-system, BlinkMacSystemFont, 'Segoe UI', Roboto, Helvetica, Arial, 'PingFang SC', 'Microsoft YaHei', Ubuntu, Cantarell, 'Noto Sans', sans-serif" fill="rgba(51,51,51,1.000)" text-anchor="end" dominant-baseline="auto">Feb</text>
<line x1="248.60" y1="178.00" x2="212.88" y2="44.70" stroke="rgba(189,189,189,1.000)" stroke-width="1.00" opacity="0.5"/>
<text x="211.59" y="39.87" font-size="13" font-family="Inter, -apple-system, BlinkMacSystemFont, 'Segoe UI', Roboto, Helvetica, Arial, 'PingFang SC', 'Microsoft YaHei', Ubuntu, Cantarell, 'Noto Sans', sans-serif" fill="rgba(51,51,51,1.000)" text-anchor="end" dominant-baseline="auto">Mar</text>
<defs><clipPath id="plot-clip-area"><rect x="97.600" y="40.000" width="302.000" height="276.000" /></clipPath></defs>
<polygon points="248.600,178.000 248.600,178.000 248.600,178.000 248.600,178.000 248.600,178.000 248.600,178.000 248.600,178.000 248.600,178.000 248.600,178.000 248.600,178.000 248.600,178.000 248.600,178.000 248.600,178.000 248.600,178.000 248.600,178.000 248.600,178.000 248.600,178.000 248.600,178.000 248.600,178.000 248.600,178.000" fill="rgba(31,119,180,1.000)" stroke="rgba(224,224,224,1.000)" stroke-width="0.500" fill-opacity="1.000" stroke-opacity="1.000" clip-path="url(#plot-clip-area)" />
<polygon points="248.600,178.000 248.600,178.000 248.600,178.000 248.600,178.000 248.600,178.000 248.600,178.000 248.600,178.000 248.600,178.000 248.600,178.000 248.600,178.000 248.600,178.000 248.600,178.000 248.600,178.000 248.600,178.000 248.600,178.000 248.600,178.000 248.600,178.000 248.600,178.000 248.600,178.000 248.600,178.000" fill="rgba(31,119,180,1.000)" stroke="rgba(224,224,224,1.000)" stroke-width="0.500" fill-opacity="1.000" stroke-opacity="1.000" clip-path="url(#plot-clip-area)" />
<polygon points="248.600,178.000 248.600,178.000 248.600,178.000 248.600,178.000 248.600,178.000 248.600,178.000 248.600,178.000 248.600,178.000 248.600,178.000 248.600,178.000 248.600,178.000 248.600,178.000 248.600,178.000 248.600,178.000 248.600,178.000 248.600,178.000 248.600,178.000 248.600,178.000 248.600,178.000 248.600,178.000" fill="rgba(31,119,180,1.000)" stroke="rgba(224,224,224,1.000)" stroke-width="0.500" fill-opacity="1.000" stroke-opacity="1.000" clip-path="url(#plot-clip-area)" />
<polygon points="248.600,178.000 248.600,178.000 248.600,178.000 248.600,178.000 248.600,178.000 248.600,178.000 248.600,178.000 248.600,178.000 248.600,178.000 248.600,178.000 248.600,178.000 248.600,178.000 248.600,178.000 248.600,178.000 248.600,178.000 248.600,178.000 248.600,178.000 248.600,178.000 248.600,178.000 248.600,178.000" fill="rgba(31,119,180,1.000)" stroke="rgba(224,224,224,1.000)" stroke-width="0.500" fill-opacity="1.000" stroke-opacity="1.000" clip-path="url(#plot-clip-area)" />
<polygon points="248.600,178.000 250.672,179.196 250.599,179.315 250.519,179.429 250.433,179.538 250.340,179.642 250.242,179.740 250.138,179.833 250.029,179.919 249.915,179.999 249.796,180.072 248.600,178.000 248.600,178.000 248.600,178.000 248.600,178.000 248.600,178.000 248.600,178.000 248.600,178.000 248.600,178.000 248.600,178.000" fill="rgba(31,119,180,1.000)" stroke="rgba(224,224,224,1.000)" stroke-width="0.500" fill-opacity="1.000" stroke-opacity="1.000" clip-path="url(#plot-clip-area)" />
<polygon points="248.600,178.000 259.367,196.649 258.265,197.244 257.129,197.773 255.965,198.236 254.776,198.630 253.566,198.954 252.339,199.207 251.100,199.389 249.852,199.498 248.600,199.534 248.600,178.000 248.600,178.000 248.600,178.000 248.600,178.000 248.600,178.000 248.600,178.000 248.600,178.000 248.600,178.000 248.600,178.000" fill="rgba(31,119,180,1.000)" stroke="rgba(224,224,224,1.000)" stroke-width="0.500" fill-opacity="1.000" stroke-opacity="1.000" clip-path="url(#plot-clip-area)" />
<polygon points="248.600,178.000 248.600,205.490 247.002,205.444 245.409,205.304 243.826,205.073 242.260,204.749 240.716,204.335 239.198,203.832 237.712,203.242 236.262,202.566 234.855,201.807 248.600,178.000 248.600,178.000 248.600,178.000 248.600,178.000 248.600,178.000 248.600,178.000 248.600,178.000 248.600,178.000 248.600,178.000" fill="rgba(31,119,180,1.000)" stroke="rgba(224,224,224,1.000)" stroke-width="0.500" fill-opacity="1.000" stroke-opacity="1.000" clip-path="url(#plot-clip-area)" />
<polygon points="248.600,178.000 228.332,213.105 226.326,211.867 224.394,210.514 222.544,209.052 220.783,207.484 219.116,205.817 217.548,204.056 216.086,202.206 214.733,200.274 213.495,198.268 248.600,178.000 248.600,178.000 248.600,178.000 248.600,178.000 248.600,178.000 248.600,178.000 248.600,178.000 248.600,178.000 248.600,178.000" fill="rgba(31,119,180,1.000)" stroke="rgba(224,224,224,1.000)" stroke-width="0.500" fill-opacity="1.000" stroke-opacity="1.000" clip-path="url(#plot-clip-area)" />
<polygon points="248.600,178.000 226.475,190.774 225.770,189.466 225.142,188.119 224.593,186.738 224.126,185.327 223.741,183.892 223.441,182.436 223.225,180.966 223.096,179.485 223.053,178.000 248.600,178.000 248.600,178.000 248.600,178.000 248.600,178.000 248.600,178.000 248.600,178.000 248.600,178.000 248.600,178.000 248.600,178.000" fill="rgba(31,119,180,1.000)" stroke="rgba(224,224,224,1.000)" stroke-width="0.500" fill-opacity="1.000" stroke-opacity="1.000" clip-path="url(#plot-clip-area)" />
<polygon points="248.600,178.000 226.801,178.000 226.838,176.733 226.949,175.469 227.132,174.215 227.389,172.973 227.717,171.748 228.116,170.544 228.584,169.366 229.120,168.217 229.722,167.101 248.600,178.000 248.600,178.000 248.600,178.000 248.600,178.000 248.600,178.000 248.600,178.000 248.600,178.000 248.600,178.000 248.600,178.000" fill="rgba(31,119,180,1.000)" stroke="rgba(224,224,224,1.000)" stroke-width="0.500" fill-opacity="1.000" stroke-opacity="1.000" clip-path="url(#plot-clip-area)" />
<polygon points="248.600,178.000 235.171,170.247 235.644,169.479 236.162,168.740 236.721,168.033 237.321,167.359 237.959,166.721 238.633,166.121 239.340,165.562 240.079,165.044 240.847,164.571 248.600,178.000 248.600,178.000 248.600,178.000 248.600,178.000 248.600,178.000 248.600,178.000 248.600,178.000 248.600,178.000 248.600,178.000" fill="rgba(31,119,180,1.000)" stroke="rgba(224,224,224,1.000)" stroke-width="0.500" fill-opacity="1.000" stroke-opacity="1.000" clip-path="url(#plot-clip-area)" />
<polygon points="248.600,178.000 241.832,166.278 242.525,165.904 243.239,165.572 243.971,165.281 244.718,165.033 245.479,164.830 246.250,164.670 247.029,164.556 247.813,164.488 248.600,164.465 248.600,178.000 248.600,178.000 248.600,178.000 248.600,178.000 248.600,178.000 248.600,178.000 248.600,178.000 248.600,178.000 248.600,178.000" fill="rgba(31,119,180,1.000)" stroke="rgba(224,224,224,1.000)" stroke-width="0.500" fill-opacity="1.000" stroke-opacity="1.000" clip-path="url(#plot-clip-area)" />
<polygon points="248.600,178.000 248.600,172.650 248.911,172.659 249.221,172.686 249.529,172.731 249.834,172.794 250.134,172.874 250.430,172.972 250.719,173.087 251.001,173.219 251.275,173.367 248.600,178.000 248.600,178.000 248.600,178.000 248.600,178.000 248.600,178.000 248.600,178.000 248.600,178.000 248.600,178.000 248.600,178.000" fill="rgba(255,127,14,1.000)" stroke="rgba(224,224,224,1.000)" stroke-width="0.500" fill-opacity="1.000" stroke-opacity="1.000" clip-path="url(#plot-clip-area)" />
<polygon points="248.600,178.000 252.189,171.784 252.544,172.003 252.887,172.242 253.214,172.501 253.526,172.779 253.821,173.074 254.099,173.386 254.358,173.714 254.597,174.056 254.816,174.411 248.600,178.000 248.600,178.000 248.600,178.000 248.600,178.000 248.600,178.000 248.600,178.000 248.600,178.000 248.600,178.000 248.600,178.000" fill="rgba(255,127,14,1.000)" stroke="rgba(224,224,224,1.000)" stroke-width="0.500" fill-opacity="1.000" stroke-opacity="1.000" clip-path="url(#plot-clip-area)" />
<polygon points="248.600,178.000 253.676,175.070 253.838,175.370 253.982,175.679 254.107,175.995 254.215,176.319 254.303,176.648 254.372,176.982 254.421,177.320 254.451,177.659 254.461,178.000 248.600,178.000 248.600,178.000 248.600,178.000 248.600,178.000 248.600,178.000 248.600,178.000 248.600,178.000 248.600,178.000 248.600,178.000" fill="rgba(255,127,14,1.000)" stroke="rgba(224,224,224,1.000)" stroke-width="0.500" fill-opacity="1.000" stroke-opacity="1.000" clip-path="url(#plot-clip-area)" />
<polygon points="248.600,178.000 260.075,178.000 260.056,178.667 259.997,179.332 259.901,179.993 259.766,180.646 259.593,181.291 259.383,181.925 259.137,182.545 258.854,183.150 258.538,183.738 248.600,178.000 248.600,178.000 248.600,178.000 248.600,178.000 248.600,178.000 248.600,178.000 248.600,178.000 248.600,178.000 248.600,178.000" fill="rgba(255,127,14,1.000)" stroke="rgba(224,224,224,1.000)" stroke-width="0.500" fill-opacity="1.000" stroke-opacity="1.000" clip-path="url(#plot-clip-area)" />
<polygon points="250.672,179.196 260.137,184.661 259.730,185.321 259.286,185.955 258.805,186.563 258.290,187.142 257.742,187.690 257.163,188.205 256.555,188.686 255.921,189.130 255.261,189.537 249.796,180.072 249.915,179.999 250.029,179.919 250.138,179.833 250.242,179.740 250.340,179.642 250.433,179.538 250.519,179.429 250.599,179.315" fill="rgba(255,127,14,1.000)" stroke="rgba(224,224,224,1.000)" stroke-width="0.500" fill-opacity="1.000" stroke-opacity="1.000" clip-path="url(#plot-clip-area)" />
<polygon points="259.367,196.649 263.301,203.463 261.796,204.275 260.246,204.998 258.656,205.629 257.033,206.167 255.381,206.610 253.706,206.956 252.013,207.203 250.310,207.352 248.600,207.402 248.600,199.534 249.852,199.498 251.100,199.389 252.339,199.207 253.566,198.954 254.776,198.630 255.965,198.236 257.129,197.773 258.265,197.244" fill="rgba(255,127,14,1.000)" stroke="rgba(224,224,224,1.000)" stroke-width="0.500" fill-opacity="1.000" stroke-opacity="1.000" clip-path="url(#plot-clip-area)" />
<polygon points="248.600,205.490 248.600,216.581 246.357,216.516 244.121,216.321 241.900,215.995 239.702,215.541 237.535,214.961 235.404,214.255 233.319,213.426 231.285,212.478 229.309,211.413 234.855,201.807 236.262,202.566 237.712,203.242 239.198,203.832 240.716,204.335 242.260,204.749 243.826,205.073 245.409,205.304 247.002,205.444" fill="rgba(255,127,14,1.000)" stroke="rgba(224,224,224,1.000)" stroke-width="0.500" fill-opacity="1.000" stroke-opacity="1.000" clip-path="url(#plot-clip-area)" />
<polygon points="228.332,213.105 224.883,219.079 222.535,217.630 220.274,216.048 218.110,214.336 216.049,212.502 214.098,210.551 212.264,208.490 210.552,206.326 208.970,204.065 207.521,201.717 213.495,198.268 214.733,200.274 216.086,202.206 217.548,204.056 219.116,205.817 220.783,207.484 222.544,209.052 224.394,210.514 226.326,211.867" fill="rgba(255,127,14,1.000)" stroke="rgba(224,224,224,1.000)" stroke-width="0.500" fill-opacity="1.000" stroke-opacity="1.000" clip-path="url(#plot-clip-area)" />
<polygon points="226.475,190.774 216.166,196.726 215.132,194.808 214.211,192.834 213.407,190.809 212.721,188.741 212.158,186.637 211.717,184.503 211.401,182.348 211.211,180.178 211.148,178.000 223.053,178.000 223.096,179.485 223.225,180.966 223.441,182.436 223.741,183.892 224.126,185.327 224.593,186.738 225.142,188.119 225.770,189.466" fill="rgba(255,127,14,1.000)" stroke="rgba(224,224,224,1.000)" stroke-width="0.500" fill-opacity="1.000" stroke-opacity="1.000" clip-path="url(#plot-clip-area)" />
<polygon points="226.801,178.000 200.329,178.000 200.410,175.193 200.655,172.396 201.062,169.618 201.630,166.868 202.357,164.156 203.240,161.490 204.277,158.881 205.463,156.336 206.796,153.864 229.722,167.101 229.120,168.217 228.584,169.366 228.116,170.544 227.717,171.748 227.389,172.973 227.132,174.215 226.949,175.469 226.838,176.733" fill="rgba(255,127,14,1.000)" stroke="rgba(224,224,224,1.000)" stroke-width="0.500" fill-opacity="1.000" stroke-opacity="1.000" clip-path="url(#plot-clip-area)" />
<polygon points="235.171,170.247 207.002,153.983 208.469,151.605 210.071,149.316 211.804,147.125 213.662,145.037 215.637,143.062 217.725,141.204 219.916,139.471 222.205,137.869 224.583,136.402 240.847,164.571 240.079,165.044 239.340,165.562 238.633,166.121 237.959,166.721 237.321,167.359 236.721,168.033 236.162,168.740 235.644,169.479" fill="rgba(255,127,14,1.000)" stroke="rgba(224,224,224,1.000)" stroke-width="0.500" fill-opacity="1.000" stroke-opacity="1.000" clip-path="url(#plot-clip-area)" />
<polygon points="241.832,166.278 231.513,148.404 233.262,147.460 235.064,146.620 236.911,145.886 238.799,145.261 240.719,144.746 242.666,144.344 244.633,144.056 246.613,143.883 248.600,143.825 248.600,164.465 247.813,164.488 247.029,164.556 246.250,164.670 245.479,164.830 244.718,165.033 243.971,165.281 243.239,165.572 242.525,165.904" fill="rgba(255,127,14,1.000)" stroke="rgba(224,224,224,1.000)" stroke-width="0.500" fill-opacity="1.000" stroke-opacity="1.000" clip-path="url(#plot-clip-area)" />
<polygon points="248.600,172.650 248.600,172.139 248.941,172.149 249.280,172.179 249.618,172.228 249.952,172.297 250.281,172.385 250.605,172.493 250.921,172.618 251.230,172.762 251.530,172.924 251.275,173.367 251.001,173.219 250.719,173.087 250.430,172.972 250.134,172.874 249.834,172.794 249.529,172.731 249.221,172.686 248.911,172.659" fill="rgba(44,160,44,1.000)" stroke="rgba(224,224,224,1.000)" stroke-width="0.500" fill-opacity="1.000" stroke-opacity="1.000" clip-path="url(#plot-clip-area)" />
<polygon points="252.189,171.784 254.082,168.504 254.625,168.839 255.148,169.205 255.648,169.600 256.125,170.024 256.576,170.475 257.000,170.952 257.395,171.452 257.761,171.975 258.096,172.518 254.816,174.411 254.597,174.056 254.358,173.714 254.099,173.386 253.821,173.074 253.526,172.779 253.214,172.501 252.887,172.242 252.544,172.003" fill="rgba(44,160,44,1.000)" stroke="rgba(224,224,224,1.000)" stroke-width="0.500" fill-opacity="1.000" stroke-opacity="1.000" clip-path="url(#plot-clip-area)" />
<polygon points="253.676,175.070 257.144,173.067 257.416,173.572 257.659,174.092 257.870,174.626 258.051,175.171 258.200,175.725 258.316,176.287 258.399,176.855 258.449,177.426 258.465,178.000 254.461,178.000 254.451,177.659 254.421,177.320 254.372,176.982 254.303,176.648 254.215,176.319 254.107,175.995 253.982,175.679 253.838,175.370" fill="rgba(44,160,44,1.000)" stroke="rgba(224,224,224,1.000)" stroke-width="0.500" fill-opacity="1.000" stroke-opacity="1.000" clip-path="url(#plot-clip-area)" />
<polygon points="260.075,178.000 295.365,178.000 295.286,180.719 295.049,183.429 294.655,186.121 294.105,188.785 293.401,191.412 292.545,193.995 291.541,196.523 290.391,198.988 289.100,201.383 258.538,183.738 258.854,183.150 259.137,182.545 259.383,181.925 259.593,181.291 259.766,180.646 259.901,179.993 259.997,179.332 260.056,178.667" fill="rgba(44,160,44,1.000)" stroke="rgba(224,224,224,1.000)" stroke-width="0.500" fill-opacity="1.000" stroke-opacity="1.000" clip-path="url(#plot-clip-area)" />
<polygon points="260.137,184.661 309.332,213.064 307.191,216.536 304.851,219.877 302.321,223.077 299.609,226.124 296.724,229.009 293.677,231.721 290.477,234.251 287.136,236.591 283.664,238.732 255.261,189.537 255.921,189.130 256.555,188.686 257.163,188.205 257.742,187.690 258.290,187.142 258.805,186.563 259.286,185.955 259.730,185.321" fill="rgba(44,160,44,1.000)" stroke="rgba(224,224,224,1.000)" stroke-width="0.500" fill-opacity="1.000" stroke-opacity="1.000" clip-path="url(#plot-clip-area)" />
<polygon points="263.301,203.463 285.260,241.497 281.506,243.521 277.641,245.324 273.677,246.899 269.629,248.240 265.509,249.344 261.332,250.206 257.112,250.825 252.863,251.196 248.600,251.320 248.600,207.402 250.310,207.352 252.013,207.203 253.706,206.956 255.381,206.610 257.033,206.167 258.656,205.629 260.246,204.998 261.796,204.275" fill="rgba(44,160,44,1.000)" stroke="rgba(224,224,224,1.000)" stroke-width="0.500" fill-opacity="1.000" stroke-opacity="1.000" clip-path="url(#plot-clip-area)" />
<polygon points="248.600,216.581 248.600,244.093 244.757,243.981 240.927,243.646 237.123,243.089 233.358,242.311 229.644,241.316 225.995,240.107 222.422,238.687 218.938,237.063 215.554,235.238 229.309,211.413 231.285,212.478 233.319,213.426 235.404,214.255 237.535,214.961 239.702,215.541 241.900,215.995 244.121,216.321 246.357,216.516" fill="rgba(44,160,44,1.000)" stroke="rgba(224,224,224,1.000)" stroke-width="0.500" fill-opacity="1.000" stroke-opacity="1.000" clip-path="url(#plot-clip-area)" />
<polygon points="224.883,219.079 206.523,250.880 202.356,248.310 198.346,245.502 194.507,242.466 190.850,239.212 187.388,235.750 184.134,232.093 181.098,228.254 178.290,224.244 175.720,220.077 207.521,201.717 208.970,204.065 210.552,206.326 212.264,208.490 214.098,210.551 216.049,212.502 218.110,214.336 220.274,216.048 222.535,217.630" fill="rgba(44,160,44,1.000)" stroke="rgba(224,224,224,1.000)" stroke-width="0.500" fill-opacity="1.000" stroke-opacity="1.000" clip-path="url(#plot-clip-area)" />
<polygon points="216.166,196.726 156.628,231.100 153.696,225.663 151.085,220.064 148.805,214.323 146.861,208.459 145.263,202.491 144.013,196.441 143.118,190.329 142.580,184.175 142.400,178.000 211.148,178.000 211.211,180.178 211.401,182.348 211.717,184.503 212.158,186.637 212.721,188.741 213.407,190.809 214.211,192.834 215.132,194.808" fill="rgba(44,160,44,1.000)" stroke="rgba(224,224,224,1.000)" stroke-width="0.500" fill-opacity="1.000" stroke-opacity="1.000" clip-path="url(#plot-clip-area)" />
<polygon points="200.329,178.000 113.926,178.000 114.154,170.169 114.836,162.365 115.972,154.614 117.556,146.942 119.584,139.375 122.048,131.939 124.940,124.658 128.251,117.558 131.969,110.663 206.796,153.864 205.463,156.336 204.277,158.881 203.240,161.490 202.357,164.156 201.630,166.868 201.062,169.618 200.655,172.396 200.410,175.193" fill="rgba(44,160,44,1.000)" stroke="rgba(224,224,224,1.000)" stroke-width="0.500" fill-opacity="1.000" stroke-opacity="1.000" clip-path="url(#plot-clip-area)" />
<polygon points="207.002,153.983 144.517,117.907 148.187,111.957 152.197,106.230 156.533,100.747 161.181,95.524 166.124,90.581 171.347,85.933 176.830,81.597 182.557,77.587 188.507,73.917 224.583,136.402 222.205,137.869 219.916,139.471 217.725,141.204 215.637,143.062 213.662,145.037 211.804,147.125 210.071,149.316 208.469,151.605" fill="rgba(44,160,44,1.000)" stroke="rgba(224,224,224,1.000)" stroke-width="0.500" fill-opacity="1.000" stroke-opacity="1.000" clip-path="url(#plot-clip-area)" />
<polygon points="231.513,148.404 203.693,100.218 208.291,97.739 213.026,95.531 217.882,93.602 222.841,91.958 227.887,90.606 233.004,89.550 238.173,88.793 243.378,88.337 248.600,88.185 248.600,143.825 246.613,143.883 244.633,144.056 242.666,144.344 240.719,144.746 238.799,145.261 236.911,145.886 235.064,146.620 233.262,147.460" fill="rgba(44,160,44,1.000)" stroke="rgba(224,224,224,1.000)" stroke-width="0.500" fill-opacity="1.000" stroke-opacity="1.000" clip-path="url(#plot-clip-area)" />
<text x="414.600" y="49.600" font-size="13.2" font-family="Inter, -apple-system, BlinkMacSystemFont, 'Segoe UI', Roboto, Helvetica, Arial, 'PingFang SC', 'Microsoft YaHei', Ubuntu, Cantarell, 'Noto Sans', sans-serif" fill="rgba(51,51,51,1.000)" fill-opacity="1.000" text-anchor="start" font-weight="bold">Cause</text>
<circle cx="423.600" cy="69.200" r="5.000" fill="rgba(31,119,180,1.000)" stroke="none" stroke-width="0.000" fill-opacity="1.000" stroke-opacity="1.000" />
<text x="440.600" y="73.700" font-size="12.0" font-family="Inter, -apple-system, BlinkMacSystemFont, 'Segoe UI', Roboto, Helvetica, Arial, 'PingFang SC', 'Microsoft YaHei', Ubuntu, Cantarell, 'Noto Sans', sans-serif" fill="rgba(51,51,51,1.000)" fill-opacity="1.000" text-anchor="start" font-weight="normal">Wounds</text>
<circle cx="423.600" cy="90.200" r="5.000" fill="rgba(255,127,14,1.000)" stroke="none" stroke-width="0.000" fill-opacity="1.000" stroke-opacity="1.000" />
<text x="440.600" y="94.700" font-size="12.0" font-family="Inter, -apple-system, BlinkMacSystemFont, 'Segoe UI', Roboto, Helvetica, Arial, 'PingFang SC', 'Microsoft YaHei', Ubuntu, Cantarell, 'Noto Sans', sans-serif" fill="rgba(51,51,51,1.000)" fill-opacity="1.000" text-anchor="start" font-weight="normal">Other</text>
<circle cx="423.600" cy="111.200" r="5.000" fill="rgba(44,160,44,1.000)" stroke="none" stroke-width="0.000" fill-opacity="1.000" stroke-opacity="1.000" />
<text x="440.600" y="115.700" font-size="12.0" font-family="Inter, -apple-system, BlinkMacSystemFont, 'Segoe UI', Roboto, Helvetica, Arial, 'PingFang SC', 'Microsoft YaHei', Ubuntu, Cantarell, 'Noto Sans', sans-serif" fill="rgba(51,51,51,1.000)" fill-opacity="1.000" text-anchor="start" font-weight="normal">Disease</text>
</svg>