<svg width="500" height="400" viewBox="0 0 500 400" xmlns="http://www.w3.org/2000/svg"><rect width="100%" height="100%" fill="rgba(255,255,255,1.000)" /><text x="250.00" y="8.00" text-anchor="middle" dominant-baseline="middle" font-family="Inter, -apple-system, BlinkMacSystemFont, 'Segoe UI', Roboto, Helvetica, Arial, 'PingFang SC', 'Microsoft YaHei', Ubuntu, Cantarell, 'Noto Sans', sans-serif" font-size="18" fill="rgba(51,51,51,1.000)" font-weight="bold">Colored Bar Chart Example</text>
<line x1="87.20" y1="316.00" x2="412.80" y2="316.00" stroke="rgba(51,51,51,1.000)" stroke-width="1" stroke-linecap="square"/>
<line x1="141.47" y1="316.00" x2="141.47" y2="322.00" stroke="rgba(51,51,51,1.000)" stroke-width="1.0"/>
<text x="141.47" y="325.00" font-size="13" font-family="Inter, -apple-system, BlinkMacSystemFont, 'Segoe UI', Roboto, Helvetica, Arial, 'PingFang SC', 'Microsoft YaHei', Ubuntu, Cantarell, 'Noto Sans', sans-serif" fill="rgba(51,51,51,1.000)" text-anchor="middle" dominant-baseline="hanging">Jan</text>
<line x1="250.00" y1="316.00" x2="250.00" y2="322.00" stroke="rgba(51,51,51,1.000)" stroke-width="1.0"/>
<text x="250.00" y="325.00" font-size="13" font-family="Inter, -apple-system, BlinkMacSystemFont, 'Segoe UI', Roboto, Helvetica, Arial, 'PingFang SC', 'Microsoft YaHei', Ubuntu, Cantarell, 'Noto Sans', sans-serif" fill="rgba(51,51,51,1.000)" text-anchor="middle" dominant-baseline="hanging">Feb</text>
<line x1="358.53" y1="316.00" x2="358.53" y2="322.00" stroke="rgba(51,51,51,1.000)" stroke-width="1.0"/>
<text x="358.53" y="325.00" font-size="13" font-family="Inter, -apple-system, BlinkMacSystemFont, 'Segoe UI', Roboto, Helvetica, Arial, 'PingFang SC', 'Microsoft YaHei', Ubuntu, Cantarell, 'Noto Sans', sans-serif" fill="rgba(51,51,51,1.000)" text-anchor="middle" dominant-baseline="hanging">Mar</text>
<text x="250.00" y="340.00" text-anchor="middle" font-size="15" font-family="Inter, -apple-system, BlinkMacSystemFont, 'Segoe UI', Roboto, Helvetica, Arial, 'PingFang SC', 'Microsoft YaHei', Ubuntu, Cantarell, 'Noto Sans', sans-serif" fill="rgba(51,51,51,1.000)" font-weight="bold" dominant-baseline="hanging">Month</text>
<line x1="87.20" y1="40.00" x2="87.20" y2="316.00" stroke="rgba(51,51,51,1.000)" stroke-width="1" stroke-linecap="square"/>
<line x1="87.20" y1="316.00" x2="81.20" y2="316.00" stroke="rgba(51,51,51,1.000)" stroke-width="1.0"/>
<text x="77.20" y="316.00" font-size="13" font-family="Inter, -apple-system, BlinkMacSystemFont, 'Segoe UI', Roboto, Helvetica, Arial, 'PingFang SC', 'Microsoft YaHei', Ubuntu, Cantarell, 'Noto Sans', sans-serif" fill="rgba(51,51,51,1.000)" text-anchor="end" dominant-baseline="central">0.0</text>
<line x1="87.20" y1="263.43" x2="81.20" y2="263.43" stroke="rgba(51,51,51,1.000)" stroke-width="1.0"/>
<text x="77.20" y="263.43" font-size="13" font-family="Inter, -apple-system, BlinkMacSystemFont, 'Segoe UI', Roboto, Helvetica, Arial, 'PingFang SC', 'Microsoft YaHei', Ubuntu, Cantarell, 'Noto Sans', sans-serif" fill="rgba(51,51,51,1.000)" text-anchor="end" dominant-baseline="central">0.2</text>
<line x1="87.20" y1="210.86" x2="81.20" y2="210.86" stroke="rgba(51,51,51,1.000)" stroke-width="1.0"/>
<text x="77.20" y="210.86" font-size="13" font-family="Inter, -apple-system, BlinkMacSystemFont, 'Segoe UI', Roboto, Helvetica, Arial, 'PingFang SC', 'Microsoft YaHei', Ubuntu, Cantarell, 'Noto Sans', sans-serif" fill="rgba(51,51,51,1.000)" text-anchor="end" dominant-baseline="central">0.4</text>
<line x1="87.20" y1="158.29" x2="81.20" y2="158.29" stroke="rgba(51,51,51,1.000)" stroke-width="1.0"/>
<text x="77.20" y="158.29" font-size="13" font-family="Inter, -apple-system, BlinkMacSystemFont, 'Segoe UI', Roboto, Helvetica, Arial, 'PingFang SC', 'Microsoft YaHei', Ubuntu, Cantarell, 'Noto Sans', sans-serif" fill="rgba(51,51,51,1.000)" text-anchor="end" dominant-baseline="central">0.6</text>
<line x1="87.20" y1="105.71" x2="81.20" y2="105.71" stroke="rgba(51,51,51,1.000)" stroke-width="1.0"/>
<text x="77.20" y="105.71" font-size="13" font-family="Inter, -apple-system, BlinkMacSystemFont, 'Segoe UI', Roboto, Helvetica, Arial, 'PingFang SC', 'Microsoft YaHei', Ubuntu, Cantarell, 'Noto Sans', sans-serif" fill="rgba(51,51,51,1.000)" text-anchor="end" dominant-baseline="central">0.8</text>
<line x1="87.20" y1="53.14" x2="81.20" y2="53.14" stroke="rgba(51,51,51,1.000)" stroke-width="1.0"/>
<text x="77.20" y="53.14" font-size="13" font-family="Inter, -apple-system, BlinkMacSystemFont, 'Segoe UI', Roboto, Helvetica, Arial, 'PingFang SC', 'Microsoft YaHei', Ubuntu, Cantarell, 'Noto Sans', sans-serif" fill="rgba(51,51,51,1.000)" text-anchor="end" dominant-baseline="central">1.0</text>
<text x="47.50" y="178.00" text-anchor="middle" font-size="15" font-family="Inter, -apple-system, BlinkMacSystemFont, 'Segoe UI', Roboto, Helvetica, Arial, 'PingFang SC', 'Microsoft YaHei', Ubuntu, Cantarell, 'Noto Sans', sans-serif" fill="rgba(51,51,51,1.000)" font-weight="bold" transform="rotate(-90, 47.50, 178.00)" dominant-baseline="middle">Revenue</text>
<defs><clipPath id="plot-clip-area"><rect x="87.200" y="40.000" width="325.600" height="276.000" /></clipPath></defs>
<polygon points="250.000,178.000 288.651,111.055 292.699,113.561 296.585,116.312 300.294,119.297 303.812,122.504 307.127,125.922 310.224,129.538 313.094,133.337 315.723,137.306 318.104,141.429 320.226,145.691 322.082,150.075 323.664,154.566 324.967,159.145 325.986,163.796 326.716,168.501 327.155,173.241 327.302,178.000 250.000,178.000 250.000,178.000 250.000,178.000 250.000,178.000 250.000,178.000 250.000,178.000 250.000,178.000 250.000,178.000 250.000,178.000 250.000,178.000 250.000,178.000 250.000,178.000 250.000,178.000 250.000,178.000 250.000,178.000 250.000,178.000 250.000,178.000" fill="rgba(31,119,180,1.000)" stroke="rgba(0,0,0,1.000)" stroke-width="1.000" fill-opacity="1.000" stroke-opacity="1.000" clip-path="url(#plot-clip-area)" />
<polygon points="250.000,178.000 265.714,205.218 264.009,206.134 262.250,206.943 260.445,207.642 258.601,208.229 256.724,208.701 254.821,209.057 252.900,209.295 250.968,209.414 249.032,209.414 247.100,209.295 245.179,209.057 243.276,208.701 241.399,208.229 239.555,207.642 237.750,206.943 235.991,206.134 234.286,205.218 250.000,178.000 250.000,178.000 250.000,178.000 250.000,178.000 250.000,178.000 250.000,178.000 250.000,178.000 250.000,178.000 250.000,178.000 250.000,178.000 250.000,178.000 250.000,178.000 250.000,178.000 250.000,178.000 250.000,178.000 250.000,178.000 250.000,178.000" fill="rgba(31,119,180,1.000)" stroke="rgba(0,0,0,1.000)" stroke-width="1.000" fill-opacity="1.000" stroke-opacity="1.000" clip-path="url(#plot-clip-area)" />
<polygon points="250.000,178.000 224.833,178.000 224.881,176.451 225.024,174.907 225.261,173.376 225.593,171.861 226.017,170.370 226.532,168.909 227.136,167.481 227.827,166.094 228.602,164.751 229.459,163.459 230.393,162.222 231.401,161.045 232.480,159.932 233.626,158.888 234.833,157.916 236.099,157.021 237.416,156.205 250.000,178.000 250.000,178.000 250.000,178.000 250.000,178.000 250.000,178.000 250.000,178.000 250.000,178.000 250.000,178.000 250.000,178.000 250.000,178.000 250.000,178.000 250.000,178.000 250.000,178.000 250.000,178.000 250.000,178.000 250.000,178.000 250.000,178.000" fill="rgba(31,119,180,1.000)" stroke="rgba(0,0,0,1.000)" stroke-width="1.000" fill-opacity="1.000" stroke-opacity="1.000" clip-path="url(#plot-clip-area)" />
<polygon points="288.651,111.055 297.935,94.974 302.955,98.083 307.774,101.494 312.375,105.196 316.738,109.174 320.849,113.413 324.690,117.897 328.249,122.609 331.510,127.531 334.462,132.645 337.094,137.930 339.396,143.368 341.358,148.937 342.974,154.616 344.237,160.384 345.143,166.219 345.688,172.098 345.870,178.000 327.302,178.000 327.155,173.241 326.716,168.501 325.986,163.796 324.967,159.145 323.664,154.566 322.082,150.075 320.226,145.691 318.104,141.429 315.723,137.306 313.094,133.337 310.224,129.538 307.127,125.922 303.812,122.504 300.294,119.297 296.585,116.312 292.699,113.561" fill="rgba(255,127,14,1.000)" stroke="rgba(0,0,0,1.000)" stroke-width="1.000" fill-opacity="1.000" stroke-opacity="1.000" clip-path="url(#plot-clip-area)" />
<polygon points="265.714,205.218 284.286,237.385 280.565,239.383 276.728,241.148 272.790,242.673 268.765,243.954 264.670,244.984 260.518,245.760 256.327,246.279 252.112,246.539 247.888,246.539 243.673,246.279 239.482,245.760 235.330,244.984 231.235,243.954 227.210,242.673 223.272,241.148 219.435,239.383 215.714,237.385 234.286,205.218 235.991,206.134 237.750,206.943 239.555,207.642 241.399,208.229 243.276,208.701 245.179,209.057 247.100,209.295 249.032,209.414 250.968,209.414 252.900,209.295 254.821,209.057 256.724,208.701 258.601,208.229 260.445,207.642 262.250,206.943 264.009,206.134" fill="rgba(255,127,14,1.000)" stroke="rgba(0,0,0,1.000)" stroke-width="1.000" fill-opacity="1.000" stroke-opacity="1.000" clip-path="url(#plot-clip-area)" />
<polygon points="224.833,178.000 185.684,178.000 185.806,174.041 186.171,170.096 186.779,166.182 187.626,162.312 188.710,158.502 190.027,154.766 191.571,151.118 193.337,147.572 195.317,144.142 197.505,140.840 199.893,137.679 202.470,134.671 205.227,131.827 208.155,129.158 211.241,126.675 214.474,124.386 217.842,122.301 237.416,156.205 236.099,157.021 234.833,157.916 233.626,158.888 232.480,159.932 231.401,161.045 230.393,162.222 229.459,163.459 228.602,164.751 227.827,166.094 227.136,167.481 226.532,168.909 226.017,170.370 225.593,171.861 225.261,173.376 225.024,174.907 224.881,176.451" fill="rgba(255,127,14,1.000)" stroke="rgba(0,0,0,1.000)" stroke-width="1.000" fill-opacity="1.000" stroke-opacity="1.000" clip-path="url(#plot-clip-area)" />
<polygon points="297.935,94.974 304.892,82.924 310.641,86.484 316.160,90.390 321.428,94.629 326.424,99.185 331.131,104.039 335.531,109.174 339.605,114.570 343.340,120.206 346.721,126.062 349.735,132.115 352.371,138.341 354.618,144.719 356.468,151.222 357.915,157.827 358.952,164.509 359.576,171.242 359.784,178.000 345.870,178.000 345.688,172.098 345.143,166.219 344.237,160.384 342.974,154.616 341.358,148.937 339.396,143.368 337.094,137.930 334.462,132.645 331.510,127.531 328.249,122.609 324.690,117.897 320.849,113.413 316.738,109.174 312.375,105.196 307.774,101.494 302.955,98.083" fill="rgba(44,160,44,1.000)" stroke="rgba(0,0,0,1.000)" stroke-width="1.000" fill-opacity="1.000" stroke-opacity="1.000" clip-path="url(#plot-clip-area)" />
<polygon points="284.286,237.385 298.571,262.128 293.300,264.959 287.865,267.459 282.286,269.621 276.584,271.434 270.782,272.894 264.901,273.993 258.963,274.728 252.992,275.097 247.008,275.097 241.037,274.728 235.099,273.993 229.218,272.894 223.416,271.434 217.714,269.621 212.135,267.459 206.700,264.959 201.429,262.128 215.714,237.385 219.435,239.383 223.272,241.148 227.210,242.673 231.235,243.954 235.330,244.984 239.482,245.760 243.673,246.279 247.888,246.539 252.112,246.539 256.327,246.279 260.518,245.760 264.670,244.984 268.765,243.954 272.790,242.673 276.728,241.148 280.565,239.383" fill="rgba(44,160,44,1.000)" stroke="rgba(0,0,0,1.000)" stroke-width="1.000" fill-opacity="1.000" stroke-opacity="1.000" clip-path="url(#plot-clip-area)" />
<polygon points="185.684,178.000 154.924,178.000 155.104,172.147 155.645,166.316 156.543,160.530 157.796,154.810 159.398,149.177 161.344,143.655 163.627,138.262 166.237,133.020 169.165,127.949 172.399,123.068 175.928,118.395 179.738,113.948 183.814,109.744 188.142,105.799 192.704,102.128 197.483,98.744 202.462,95.662 217.842,122.301 214.474,124.386 211.241,126.675 208.155,129.158 205.227,131.827 202.470,134.671 199.893,137.679 197.505,140.840 195.317,144.142 193.337,147.572 191.571,151.118 190.027,154.766 188.710,158.502 187.626,162.312 186.779,166.182 186.171,170.096 185.806,174.041" fill="rgba(44,160,44,1.000)" stroke="rgba(0,0,0,1.000)" stroke-width="1.000" fill-opacity="1.000" stroke-opacity="1.000" clip-path="url(#plot-clip-area)" />
<polygon points="304.892,82.924 315.714,64.180 322.597,68.441 329.203,73.118 335.510,78.192 341.492,83.646 347.127,89.457 352.393,95.604 357.272,102.064 361.743,108.812 365.790,115.822 369.398,123.068 372.553,130.523 375.244,138.157 377.459,145.943 379.191,153.850 380.432,161.849 381.179,169.909 381.429,178.000 359.784,178.000 359.576,171.242 358.952,164.509 357.915,157.827 356.468,151.222 354.618,144.719 352.371,138.341 349.735,132.115 346.721,126.062 343.340,120.206 339.605,114.570 335.531,109.174 331.131,104.039 326.424,99.185 321.428,94.629 316.160,90.390 310.641,86.484" fill="rgba(214,39,40,1.000)" stroke="rgba(0,0,0,1.000)" stroke-width="1.000" fill-opacity="1.000" stroke-opacity="1.000" clip-path="url(#plot-clip-area)" />
<polygon points="298.571,262.128 315.714,291.820 308.583,295.650 301.229,299.033 293.681,301.957 285.967,304.411 278.117,306.386 270.160,307.873 262.127,308.868 254.047,309.366 245.953,309.366 237.873,308.868 229.840,307.873 221.883,306.386 214.033,304.411 206.319,301.957 198.771,299.033 191.417,295.650 184.286,291.820 201.429,262.128 206.700,264.959 212.135,267.459 217.714,269.621 223.416,271.434 229.218,272.894 235.099,273.993 241.037,274.728 247.008,275.097 252.992,275.097 258.963,274.728 264.901,273.993 270.782,272.894 276.584,271.434 282.286,269.621 287.865,267.459 293.300,264.959" fill="rgba(214,39,40,1.000)" stroke="rgba(0,0,0,1.000)" stroke-width="1.000" fill-opacity="1.000" stroke-opacity="1.000" clip-path="url(#plot-clip-area)" />
<polygon points="154.924,178.000 118.571,178.000 118.821,169.909 119.568,161.849 120.809,153.850 122.541,145.943 124.756,138.157 127.447,130.523 130.602,123.068 134.210,115.822 138.257,108.812 142.728,102.064 147.607,95.604 152.873,89.457 158.508,83.646 164.490,78.192 170.797,73.118 177.403,68.441 184.286,64.180 202.462,95.662 197.483,98.744 192.704,102.128 188.142,105.799 183.814,109.744 179.738,113.948 175.928,118.395 172.399,123.068 169.165,127.949 166.237,133.020 163.627,138.262 161.344,143.655 159.398,149.177 157.796,154.810 156.543,160.530 155.645,166.316 155.104,172.147" fill="rgba(214,39,40,1.000)" stroke="rgba(0,0,0,1.000)" stroke-width="1.000" fill-opacity="1.000" stroke-opacity="1.000" clip-path="url(#plot-clip-area)" />
<text x="427.800" y="49.600" font-size="13.2" font-family="Inter, -apple-system, BlinkMacSystemFont, 'Segoe UI', Roboto, Helvetica, Arial, 'PingFang SC', 'Microsoft YaHei', Ubuntu, Cantarell, 'Noto Sans', sans-serif" fill="rgba(51,51,51,1.000)" fill-opacity="1.000" text-anchor="start" font-weight="bold">Region</text>
<circle cx="436.800" cy="69.200" r="5.000" fill="rgba(31,119,180,1.000)" stroke="none" stroke-width="0.000" fill-opacity="1.000" stroke-opacity="1.000" />
<text x="453.800" y="73.700" font-size="12.0" font-family="Inter, -apple-system, BlinkMacSystemFont, 'Segoe UI', Roboto, Helvetica, Arial, 'PingFang SC', 'Microsoft YaHei', Ubuntu, Cantarell, 'Noto Sans', sans-serif" fill="rgba(51,51,51,1.000)" fill-opacity="1.000" text-anchor="start" font-weight="normal">North</text>
<circle cx="436.800" cy="90.200" r="5.000" fill="rgba(255,127,14,1.000)" stroke="none" stroke-width="0.000" fill-opacity="1.000" stroke-opacity="1.000" />
<text x="453.800" y="94.700" font-size="12.0" font-family="Inter, -apple-system, BlinkMacSystemFont, 'Segoe UI', Roboto, Helvetica, Arial, 'PingFang SC', 'Microsoft YaHei', Ubuntu, Cantarell, 'Noto Sans', sans-serif" fill="rgba(51,51,51,1.000)" fill-opacity="1.000" text-anchor="start" font-weight="normal">South</text>
<circle cx="436.800" cy="111.200" r="5.000" fill="rgba(44,160,44,1.000)" stroke="none" stroke-width="0.000" fill-opacity="1.000" stroke-opacity="1.000" />
<text x="453.800" y="115.700" font-size="12.0" font-family="Inter, -apple-system, BlinkMacSystemFont, 'Segoe UI', Roboto, Helvetica, Arial, 'PingFang SC', 'Microsoft YaHei', Ubuntu, Cantarell, 'Noto Sans', sans-serif" fill="rgba(51,51,51,1.000)" fill-opacity="1.000" text-anchor="start" font-weight="normal">East</text>
<circle cx="436.800" cy="132.200" r="5.000" fill="rgba(214,39,40,1.000)" stroke="none" stroke-width="0.000" fill-opacity="1.000" stroke-opacity="1.000" />
<text x="453.800" y="136.700" font-size="12.0" font-family="Inter, -apple-system, BlinkMacSystemFont, 'Segoe UI', Roboto, Helvetica, Arial, 'PingFang SC', 'Microsoft YaHei', Ubuntu, Cantarell, 'Noto Sans', sans-serif" fill="rgba(51,51,51,1.000)" fill-opacity="1.000" text-anchor="start" font-weight="normal">West</text>
</svg>