<svg width="500" height="400" viewBox="0 0 500 400" xmlns="http://www.w3.org/2000/svg"><rect width="100%" height="100%" fill="rgba(255,255,255,1.000)" /><circle cx="252.86" cy="188.00" r="56.92" fill="none" stroke="rgba(229,229,229,1.000)" stroke-width="1.00" stroke-dasharray="2,4" opacity="0.3"/>
<text x="252.86" y="131.08" font-size="11" font-family="Inter, -apple-system, BlinkMacSystemFont, 'Segoe UI', Roboto, Helvetica, Arial, 'PingFang SC', 'Microsoft YaHei', Ubuntu, Cantarell, 'Noto Sans', sans-serif" fill="rgba(51,51,51,1.000)" text-anchor="middle" dominant-baseline="middle" opacity="0.8">50</text>
<circle cx="252.86" cy="188.00" r="113.85" fill="none" stroke="rgba(229,229,229,1.000)" stroke-width="1.00" stroke-dasharray="2,4" opacity="0.3"/>
<text x="252.86" y="74.15" font-size="11" font-family="Inter, -apple-system, BlinkMacSystemFont, 'Segoe UI', Roboto, Helvetica, Arial, 'PingFang SC', 'Microsoft YaHei', Ubuntu, Cantarell, 'Noto Sans', sans-serif" fill="rgba(51,51,51,1.000)" text-anchor="middle" dominant-baseline="middle" opacity="0.8">100</text>
<line x1="252.86" y1="188.00" x2="252.86" y2="336.00" stroke="rgba(229,229,229,1.000)" stroke-width="1.00" opacity="0.3"/>
<text x="252.86" y="341.00" font-size="13" font-family="Inter, -apple-system, BlinkMacSystemFont, 'Segoe UI', Roboto, Helvetica, Arial, 'PingFang SC', 'Microsoft YaHei', Ubuntu, Cantarell, 'Noto Sans', sans-serif" fill="rgba(51,51,51,1.000)" text-anchor="middle" dominant-baseline="middle"></text>
<text x="242.86" y="74.40" font-size="15" font-family="Inter, -apple-system, BlinkMacSystemFont, 'Segoe UI', Roboto, Helvetica, Arial, 'PingFang SC', 'Microsoft YaHei', Ubuntu, Cantarell, 'Noto Sans', sans-serif" fill="rgba(51,51,51,1.000)" font-weight="bold" text-anchor="end">value</text>
<defs><clipPath id="plot-clip-area"><rect x="87.200" y="40.000" width="331.320" height="296.000" /></clipPath></defs>
<polygon points="252.860,188.000 252.860,40.000 261.796,40.270 270.699,41.079 279.538,42.424 288.279,44.301 296.890,46.701 305.342,49.618 313.601,53.039 321.639,56.953 329.426,61.344 336.934,66.198 344.134,71.497 351.002,77.220 357.512,83.348 363.640,89.858 369.363,96.726 374.662,103.926 379.516,111.434 383.908,119.221 387.821,127.259 391.242,135.518 252.860,188.000 252.860,188.000 252.860,188.000 252.860,188.000 252.860,188.000 252.860,188.000 252.860,188.000 252.860,188.000 252.860,188.000 252.860,188.000 252.860,188.000 252.860,188.000 252.860,188.000 252.860,188.000 252.860,188.000 252.860,188.000 252.860,188.000 252.860,188.000 252.860,188.000 252.860,188.000" fill="rgba(31,119,180,1.000)" stroke="rgba(255,255,255,1.000)" stroke-width="1.000" fill-opacity="1.000" stroke-opacity="1.000" clip-path="url(#plot-clip-area)" />
<polygon points="252.860,188.000 391.242,135.518 394.159,143.970 396.559,152.581 398.436,161.322 399.781,170.161 400.590,179.064 400.860,188.000 400.590,196.936 399.781,205.839 398.436,214.678 396.559,223.419 394.159,232.030 391.242,240.482 387.821,248.741 383.908,256.779 379.516,264.566 374.662,272.074 369.363,279.274 363.640,286.142 357.512,292.652 351.002,298.780 344.134,304.503 336.934,309.802 329.426,314.656 321.639,319.047 252.860,188.000 252.860,188.000 252.860,188.000 252.860,188.000 252.860,188.000 252.860,188.000 252.860,188.000 252.860,188.000 252.860,188.000 252.860,188.000 252.860,188.000 252.860,188.000 252.860,188.000 252.860,188.000 252.860,188.000 252.860,188.000 252.860,188.000 252.860,188.000 252.860,188.000 252.860,188.000 252.860,188.000 252.860,188.000 252.860,188.000 252.860,188.000" fill="rgba(255,127,14,1.000)" stroke="rgba(255,255,255,1.000)" stroke-width="1.000" fill-opacity="1.000" stroke-opacity="1.000" clip-path="url(#plot-clip-area)" />
<polygon points="252.860,188.000 321.639,319.047 313.601,322.961 305.342,326.382 296.890,329.299 288.279,331.699 279.538,333.576 270.699,334.921 261.796,335.730 252.860,336.000 243.924,335.730 235.021,334.921 226.182,333.576 217.441,331.699 252.860,188.000 252.860,188.000 252.860,188.000 252.860,188.000 252.860,188.000 252.860,188.000 252.860,188.000 252.860,188.000 252.860,188.000 252.860,188.000 252.860,188.000 252.860,188.000" fill="rgba(44,160,44,1.000)" stroke="rgba(255,255,255,1.000)" stroke-width="1.000" fill-opacity="1.000" stroke-opacity="1.000" clip-path="url(#plot-clip-area)" />
<polygon points="252.860,188.000 217.441,331.699 208.554,329.213 199.839,326.177 191.331,322.604 183.061,318.507 175.063,313.904 167.368,308.810 160.005,303.247 153.003,297.236 146.389,290.800 140.189,283.965 134.427,276.756 129.126,269.202 124.305,261.333 119.985,253.178 116.181,244.770 112.909,236.142 110.180,227.326 108.007,218.357 106.396,209.270 105.356,200.101 104.888,190.884 104.996,181.656 105.679,172.453 106.934,163.311 108.756,154.264 111.139,145.348 114.073,136.599 117.546,128.049 121.545,119.732 126.055,111.681 131.058,103.926 252.860,188.000 252.860,188.000 252.860,188.000 252.860,188.000 252.860,188.000 252.860,188.000 252.860,188.000 252.860,188.000 252.860,188.000 252.860,188.000 252.860,188.000 252.860,188.000 252.860,188.000 252.860,188.000 252.860,188.000 252.860,188.000 252.860,188.000 252.860,188.000 252.860,188.000 252.860,188.000 252.860,188.000 252.860,188.000 252.860,188.000 252.860,188.000 252.860,188.000 252.860,188.000 252.860,188.000 252.860,188.000 252.860,188.000 252.860,188.000 252.860,188.000" fill="rgba(214,39,40,1.000)" stroke="rgba(255,255,255,1.000)" stroke-width="1.000" fill-opacity="1.000" stroke-opacity="1.000" clip-path="url(#plot-clip-area)" />
<polygon points="252.860,188.000 131.058,103.926 136.357,96.726 142.080,89.858 148.208,83.348 154.718,77.220 161.586,71.497 168.786,66.198 176.294,61.344 184.081,56.953 192.119,53.039 200.378,49.618 208.830,46.701 217.441,44.301 226.182,42.424 235.021,41.079 243.924,40.270 252.860,40.000 252.860,188.000 252.860,188.000 252.860,188.000 252.860,188.000 252.860,188.000 252.860,188.000 252.860,188.000 252.860,188.000 252.860,188.000 252.860,188.000 252.860,188.000 252.860,188.000 252.860,188.000 252.860,188.000 252.860,188.000 252.860,188.000" fill="rgba(148,103,189,1.000)" stroke="rgba(255,255,255,1.000)" stroke-width="1.000" fill-opacity="1.000" stroke-opacity="1.000" clip-path="url(#plot-clip-area)" />
<text x="433.520" y="49.600" font-size="13.2" font-family="Inter, -apple-system, BlinkMacSystemFont, 'Segoe UI', Roboto, Helvetica, Arial, 'PingFang SC', 'Microsoft YaHei', Ubuntu, Cantarell, 'Noto Sans', sans-serif" fill="rgba(51,51,51,1.000)" fill-opacity="1.000" text-anchor="start" font-weight="bold">category</text>
<circle cx="442.520" cy="69.200" r="5.000" fill="rgba(31,119,180,1.000)" stroke="none" stroke-width="0.000" fill-opacity="1.000" stroke-opacity="1.000" />
<text x="459.520" y="73.700" font-size="12.0" font-family="Inter, -apple-system, BlinkMacSystemFont, 'Segoe UI', Roboto, Helvetica, Arial, 'PingFang SC', 'Microsoft YaHei', Ubuntu, Cantarell, 'Noto Sans', sans-serif" fill="rgba(51,51,51,1.000)" fill-opacity="1.000" text-anchor="start" font-weight="normal">A</text>
<circle cx="442.520" cy="90.200" r="5.000" fill="rgba(255,127,14,1.000)" stroke="none" stroke-width="0.000" fill-opacity="1.000" stroke-opacity="1.000" />
<text x="459.520" y="94.700" font-size="12.0" font-family="Inter, -apple-system, BlinkMacSystemFont, 'Segoe UI', Roboto, Helvetica, Arial, 'PingFang SC', 'Microsoft YaHei', Ubuntu, Cantarell, 'Noto Sans', sans-serif" fill="rgba(51,51,51,1.000)" fill-opacity="1.000" text-anchor="start" font-weight="normal">B</text>
<circle cx="442.520" cy="111.200" r="5.000" fill="rgba(44,160,44,1.000)" stroke="none" stroke-width="0.000" fill-opacity="1.000" stroke-opacity="1.000" />
<text x="459.520" y="115.700" font-size="12.0" font-family="Inter, -apple-system, BlinkMacSystemFont, 'Segoe UI', Roboto, Helvetica, Arial, 'PingFang SC', 'Microsoft YaHei', Ubuntu, Cantarell, 'Noto Sans', sans-serif" fill="rgba(51,51,51,1.000)" fill-opacity="1.000" text-anchor="start" font-weight="normal">C</text>
<circle cx="442.520" cy="132.200" r="5.000" fill="rgba(214,39,40,1.000)" stroke="none" stroke-width="0.000" fill-opacity="1.000" stroke-opacity="1.000" />
<text x="459.520" y="136.700" font-size="12.0" font-family="Inter, -apple-system, BlinkMacSystemFont, 'Segoe UI', Roboto, Helvetica, Arial, 'PingFang SC', 'Microsoft YaHei', Ubuntu, Cantarell, 'Noto Sans', sans-serif" fill="rgba(51,51,51,1.000)" fill-opacity="1.000" text-anchor="start" font-weight="normal">E</text>
<circle cx="442.520" cy="153.200" r="5.000" fill="rgba(148,103,189,1.000)" stroke="none" stroke-width="0.000" fill-opacity="1.000" stroke-opacity="1.000" />
<text x="459.520" y="157.700" font-size="12.0" font-family="Inter, -apple-system, BlinkMacSystemFont, 'Segoe UI', Roboto, Helvetica, Arial, 'PingFang SC', 'Microsoft YaHei', Ubuntu, Cantarell, 'Noto Sans', sans-serif" fill="rgba(51,51,51,1.000)" fill-opacity="1.000" text-anchor="start" font-weight="normal">D</text>
</svg>