<svg width="500" height="400" viewBox="0 0 500 400" xmlns="http://www.w3.org/2000/svg"><rect width="100%" height="100%" fill="rgba(255,255,255,1.000)" /><line x1="76.15" y1="316.00" x2="437.40" y2="316.00" stroke="rgba(51,51,51,1.000)" stroke-width="1" stroke-linecap="square"/>
<line x1="121.31" y1="316.00" x2="121.31" y2="322.00" stroke="rgba(51,51,51,1.000)" stroke-width="1.0"/>
<text x="121.31" y="325.00" font-size="13" font-family="Inter, -apple-system, BlinkMacSystemFont, 'Segoe UI', Roboto, Helvetica, Arial, 'PingFang SC', 'Microsoft YaHei', Ubuntu, Cantarell, 'Noto Sans', sans-serif" fill="rgba(51,51,51,1.000)" text-anchor="middle" dominant-baseline="hanging">a</text>
<line x1="211.62" y1="316.00" x2="211.62" y2="322.00" stroke="rgba(51,51,51,1.000)" stroke-width="1.0"/>
<text x="211.62" y="325.00" font-size="13" font-family="Inter, -apple-system, BlinkMacSystemFont, 'Segoe UI', Roboto, Helvetica, Arial, 'PingFang SC', 'Microsoft YaHei', Ubuntu, Cantarell, 'Noto Sans', sans-serif" fill="rgba(51,51,51,1.000)" text-anchor="middle" dominant-baseline="hanging">b</text>
<line x1="301.93" y1="316.00" x2="301.93" y2="322.00" stroke="rgba(51,51,51,1.000)" stroke-width="1.0"/>
<text x="301.93" y="325.00" font-size="13" font-family="Inter, -apple-system, BlinkMacSystemFont, 'Segoe UI', Roboto, Helvetica, Arial, 'PingFang SC', 'Microsoft YaHei', Ubuntu, Cantarell, 'Noto Sans', sans-serif" fill="rgba(51,51,51,1.000)" text-anchor="middle" dominant-baseline="hanging">c</text>
<line x1="392.24" y1="316.00" x2="392.24" y2="322.00" stroke="rgba(51,51,51,1.000)" stroke-width="1.0"/>
<text x="392.24" y="325.00" font-size="13" font-family="Inter, -apple-system, BlinkMacSystemFont, 'Segoe UI', Roboto, Helvetica, Arial, 'PingFang SC', 'Microsoft YaHei', Ubuntu, Cantarell, 'Noto Sans', sans-serif" fill="rgba(51,51,51,1.000)" text-anchor="middle" dominant-baseline="hanging">d</text>
<text x="256.77" y="340.00" text-anchor="middle" font-size="15" font-family="Inter, -apple-system, BlinkMacSystemFont, 'Segoe UI', Roboto, Helvetica, Arial, 'PingFang SC', 'Microsoft YaHei', Ubuntu, Cantarell, 'Noto Sans', sans-serif" fill="rgba(51,51,51,1.000)" font-weight="bold" dominant-baseline="hanging">type</text>
<line x1="76.15" y1="40.00" x2="76.15" y2="316.00" stroke="rgba(51,51,51,1.000)" stroke-width="1" stroke-linecap="square"/>
<line x1="76.15" y1="316.00" x2="70.15" y2="316.00" stroke="rgba(51,51,51,1.000)" stroke-width="1.0"/>
<text x="66.15" y="316.00" font-size="13" font-family="Inter, -apple-system, BlinkMacSystemFont, 'Segoe UI', Roboto, Helvetica, Arial, 'PingFang SC', 'Microsoft YaHei', Ubuntu, Cantarell, 'Noto Sans', sans-serif" fill="rgba(51,51,51,1.000)" text-anchor="end" dominant-baseline="central">0</text>
<line x1="76.15" y1="275.56" x2="70.15" y2="275.56" stroke="rgba(51,51,51,1.000)" stroke-width="1.0"/>
<text x="66.15" y="275.56" font-size="13" font-family="Inter, -apple-system, BlinkMacSystemFont, 'Segoe UI', Roboto, Helvetica, Arial, 'PingFang SC', 'Microsoft YaHei', Ubuntu, Cantarell, 'Noto Sans', sans-serif" fill="rgba(51,51,51,1.000)" text-anchor="end" dominant-baseline="central">1</text>
<line x1="76.15" y1="235.12" x2="70.15" y2="235.12" stroke="rgba(51,51,51,1.000)" stroke-width="1.0"/>
<text x="66.15" y="235.12" font-size="13" font-family="Inter, -apple-system, BlinkMacSystemFont, 'Segoe UI', Roboto, Helvetica, Arial, 'PingFang SC', 'Microsoft YaHei', Ubuntu, Cantarell, 'Noto Sans', sans-serif" fill="rgba(51,51,51,1.000)" text-anchor="end" dominant-baseline="central">2</text>
<line x1="76.15" y1="194.68" x2="70.15" y2="194.68" stroke="rgba(51,51,51,1.000)" stroke-width="1.0"/>
<text x="66.15" y="194.68" font-size="13" font-family="Inter, -apple-system, BlinkMacSystemFont, 'Segoe UI', Roboto, Helvetica, Arial, 'PingFang SC', 'Microsoft YaHei', Ubuntu, Cantarell, 'Noto Sans', sans-serif" fill="rgba(51,51,51,1.000)" text-anchor="end" dominant-baseline="central">3</text>
<line x1="76.15" y1="154.24" x2="70.15" y2="154.24" stroke="rgba(51,51,51,1.000)" stroke-width="1.0"/>
<text x="66.15" y="154.24" font-size="13" font-family="Inter, -apple-system, BlinkMacSystemFont, 'Segoe UI', Roboto, Helvetica, Arial, 'PingFang SC', 'Microsoft YaHei', Ubuntu, Cantarell, 'Noto Sans', sans-serif" fill="rgba(51,51,51,1.000)" text-anchor="end" dominant-baseline="central">4</text>
<line x1="76.15" y1="113.80" x2="70.15" y2="113.80" stroke="rgba(51,51,51,1.000)" stroke-width="1.0"/>
<text x="66.15" y="113.80" font-size="13" font-family="Inter, -apple-system, BlinkMacSystemFont, 'Segoe UI', Roboto, Helvetica, Arial, 'PingFang SC', 'Microsoft YaHei', Ubuntu, Cantarell, 'Noto Sans', sans-serif" fill="rgba(51,51,51,1.000)" text-anchor="end" dominant-baseline="central">5</text>
<line x1="76.15" y1="73.36" x2="70.15" y2="73.36" stroke="rgba(51,51,51,1.000)" stroke-width="1.0"/>
<text x="66.15" y="73.36" font-size="13" font-family="Inter, -apple-system, BlinkMacSystemFont, 'Segoe UI', Roboto, Helvetica, Arial, 'PingFang SC', 'Microsoft YaHei', Ubuntu, Cantarell, 'Noto Sans', sans-serif" fill="rgba(51,51,51,1.000)" text-anchor="end" dominant-baseline="central">6</text>
<text x="47.50" y="178.00" text-anchor="middle" font-size="15" font-family="Inter, -apple-system, BlinkMacSystemFont, 'Segoe UI', Roboto, Helvetica, Arial, 'PingFang SC', 'Microsoft YaHei', Ubuntu, Cantarell, 'Noto Sans', sans-serif" fill="rgba(51,51,51,1.000)" font-weight="bold" transform="rotate(-90, 47.50, 178.00)" dominant-baseline="middle">value</text>
<defs><clipPath id="plot-clip-area"><rect x="76.150" y="40.000" width="361.250" height="276.000" /></clipPath></defs>
<polygon points="256.775,178.000 256.775,78.923 262.996,79.119 269.193,79.704 275.340,80.678 281.414,82.036 287.391,83.772 293.248,85.881 298.960,88.353 304.506,91.178 309.863,94.347 315.011,97.845 319.929,101.660 324.598,105.776 328.999,110.177 333.115,114.846 336.930,119.764 340.428,124.912 343.597,130.269 346.422,135.815 348.894,141.527 351.003,147.384 352.739,153.361 354.097,159.435 355.071,165.582 355.656,171.779 355.852,178.000 256.775,178.000 256.775,178.000 256.775,178.000 256.775,178.000 256.775,178.000 256.775,178.000 256.775,178.000 256.775,178.000 256.775,178.000 256.775,178.000 256.775,178.000 256.775,178.000 256.775,178.000 256.775,178.000 256.775,178.000 256.775,178.000 256.775,178.000 256.775,178.000 256.775,178.000 256.775,178.000 256.775,178.000 256.775,178.000 256.775,178.000 256.775,178.000 256.775,178.000" fill="rgba(31,119,180,1.000)" stroke="rgba(255,255,255,1.000)" stroke-width="1.000" fill-opacity="1.000" stroke-opacity="1.000" clip-path="url(#plot-clip-area)" />
<polygon points="256.775,178.000 363.940,178.000 363.728,184.729 363.095,191.431 362.042,198.081 360.573,204.651 358.695,211.116 356.414,217.450 353.741,223.629 350.684,229.627 347.257,235.422 343.473,240.990 339.347,246.309 334.895,251.359 330.134,256.120 325.084,260.572 319.765,264.698 314.197,268.482 308.402,271.909 302.404,274.966 296.225,277.639 289.891,279.920 283.426,281.798 276.856,283.267 270.206,284.320 263.504,284.953 256.775,285.165 256.775,178.000 256.775,178.000 256.775,178.000 256.775,178.000 256.775,178.000 256.775,178.000 256.775,178.000 256.775,178.000 256.775,178.000 256.775,178.000 256.775,178.000 256.775,178.000 256.775,178.000 256.775,178.000 256.775,178.000 256.775,178.000 256.775,178.000 256.775,178.000 256.775,178.000 256.775,178.000 256.775,178.000 256.775,178.000 256.775,178.000 256.775,178.000 256.775,178.000" fill="rgba(255,127,14,1.000)" stroke="rgba(255,255,255,1.000)" stroke-width="1.000" fill-opacity="1.000" stroke-opacity="1.000" clip-path="url(#plot-clip-area)" />
<polygon points="256.775,178.000 256.775,289.209 249.792,288.989 242.837,288.332 235.937,287.239 229.118,285.715 222.410,283.766 215.836,281.399 209.425,278.625 203.200,275.453 197.186,271.897 191.408,267.970 185.888,263.688 180.647,259.068 175.707,254.128 171.087,248.887 166.805,243.367 162.878,237.589 159.322,231.575 156.150,225.350 153.376,218.939 151.009,212.365 149.060,205.656 147.536,198.838 146.443,191.938 145.786,184.983 145.566,178.000 256.775,178.000 256.775,178.000 256.775,178.000 256.775,178.000 256.775,178.000 256.775,178.000 256.775,178.000 256.775,178.000 256.775,178.000 256.775,178.000 256.775,178.000 256.775,178.000 256.775,178.000 256.775,178.000 256.775,178.000 256.775,178.000 256.775,178.000 256.775,178.000 256.775,178.000 256.775,178.000 256.775,178.000 256.775,178.000 256.775,178.000 256.775,178.000 256.775,178.000" fill="rgba(44,160,44,1.000)" stroke="rgba(255,255,255,1.000)" stroke-width="1.000" fill-opacity="1.000" stroke-opacity="1.000" clip-path="url(#plot-clip-area)" />
<polygon points="256.775,178.000 125.346,178.000 125.606,169.748 126.383,161.528 127.674,153.373 129.475,145.315 131.779,137.386 134.576,129.618 137.855,122.040 141.603,114.684 145.806,107.577 150.447,100.748 155.508,94.224 160.968,88.031 166.806,82.193 172.999,76.733 179.523,71.672 186.352,67.031 193.459,62.828 200.815,59.080 208.393,55.801 216.161,53.004 224.090,50.701 232.148,48.899 240.303,47.608 248.523,46.831 256.775,46.571 256.775,178.000 256.775,178.000 256.775,178.000 256.775,178.000 256.775,178.000 256.775,178.000 256.775,178.000 256.775,178.000 256.775,178.000 256.775,178.000 256.775,178.000 256.775,178.000 256.775,178.000 256.775,178.000 256.775,178.000 256.775,178.000 256.775,178.000 256.775,178.000 256.775,178.000 256.775,178.000 256.775,178.000 256.775,178.000 256.775,178.000 256.775,178.000 256.775,178.000" fill="rgba(214,39,40,1.000)" stroke="rgba(255,255,255,1.000)" stroke-width="1.000" fill-opacity="1.000" stroke-opacity="1.000" clip-path="url(#plot-clip-area)" />
<text x="452.400" y="49.600" font-size="13.2" font-family="Inter, -apple-system, BlinkMacSystemFont, 'Segoe UI', Roboto, Helvetica, Arial, 'PingFang SC', 'Microsoft YaHei', Ubuntu, Cantarell, 'Noto Sans', sans-serif" fill="rgba(51,51,51,1.000)" fill-opacity="1.000" text-anchor="start" font-weight="bold">type</text>
<circle cx="461.400" cy="69.200" r="5.000" fill="rgba(31,119,180,1.000)" stroke="none" stroke-width="0.000" fill-opacity="1.000" stroke-opacity="1.000" />
<text x="478.400" y="73.700" font-size="12.0" font-family="Inter, -apple-system, BlinkMacSystemFont, 'Segoe UI', Roboto, Helvetica, Arial, 'PingFang SC', 'Microsoft YaHei', Ubuntu, Cantarell, 'Noto Sans', sans-serif" fill="rgba(51,51,51,1.000)" fill-opacity="1.000" text-anchor="start" font-weight="normal">a</text>
<circle cx="461.400" cy="90.200" r="5.000" fill="rgba(255,127,14,1.000)" stroke="none" stroke-width="0.000" fill-opacity="1.000" stroke-opacity="1.000" />
<text x="478.400" y="94.700" font-size="12.0" font-family="Inter, -apple-system, BlinkMacSystemFont, 'Segoe UI', Roboto, Helvetica, Arial, 'PingFang SC', 'Microsoft YaHei', Ubuntu, Cantarell, 'Noto Sans', sans-serif" fill="rgba(51,51,51,1.000)" fill-opacity="1.000" text-anchor="start" font-weight="normal">b</text>
<circle cx="461.400" cy="111.200" r="5.000" fill="rgba(44,160,44,1.000)" stroke="none" stroke-width="0.000" fill-opacity="1.000" stroke-opacity="1.000" />
<text x="478.400" y="115.700" font-size="12.0" font-family="Inter, -apple-system, BlinkMacSystemFont, 'Segoe UI', Roboto, Helvetica, Arial, 'PingFang SC', 'Microsoft YaHei', Ubuntu, Cantarell, 'Noto Sans', sans-serif" fill="rgba(51,51,51,1.000)" fill-opacity="1.000" text-anchor="start" font-weight="normal">c</text>
<circle cx="461.400" cy="132.200" r="5.000" fill="rgba(214,39,40,1.000)" stroke="none" stroke-width="0.000" fill-opacity="1.000" stroke-opacity="1.000" />
<text x="478.400" y="136.700" font-size="12.0" font-family="Inter, -apple-system, BlinkMacSystemFont, 'Segoe UI', Roboto, Helvetica, Arial, 'PingFang SC', 'Microsoft YaHei', Ubuntu, Cantarell, 'Noto Sans', sans-serif" fill="rgba(51,51,51,1.000)" fill-opacity="1.000" text-anchor="start" font-weight="normal">d</text>
</svg>