<svg width="500" height="400" viewBox="0 0 500 400" xmlns="http://www.w3.org/2000/svg"><rect width="100%" height="100%" fill="rgba(255,255,255,1.000)" /><circle cx="258.12" cy="178.00" r="138.00" fill="none" stroke="rgba(189,189,189,1.000)" stroke-width="1.00" opacity="0.5"/>
<text x="258.12" y="35.00" font-size="12" font-family="Inter, -apple-system, BlinkMacSystemFont, 'Segoe UI', Roboto, Helvetica, Arial, 'PingFang SC', 'Microsoft YaHei', Ubuntu, Cantarell, 'Noto Sans', sans-serif" fill="rgba(51,51,51,1.000)" text-anchor="middle" dominant-baseline="auto" opacity="0.9">12</text>
<line x1="258.12" y1="178.00" x2="327.12" y2="58.49" stroke="rgba(189,189,189,1.000)" stroke-width="1.00" opacity="0.5"/>
<text x="329.62" y="54.16" font-size="13" font-family="Inter, -apple-system, BlinkMacSystemFont, 'Segoe UI', Roboto, Helvetica, Arial, 'PingFang SC', 'Microsoft YaHei', Ubuntu, Cantarell, 'Noto Sans', sans-serif" fill="rgba(51,51,51,1.000)" text-anchor="start" dominant-baseline="auto">A</text>
<line x1="258.12" y1="178.00" x2="396.12" y2="178.00" stroke="rgba(189,189,189,1.000)" stroke-width="1.00" opacity="0.5"/>
<text x="401.12" y="178.00" font-size="13" font-family="Inter, -apple-system, BlinkMacSystemFont, 'Segoe UI', Roboto, Helvetica, Arial, 'PingFang SC', 'Microsoft YaHei', Ubuntu, Cantarell, 'Noto Sans', sans-serif" fill="rgba(51,51,51,1.000)" text-anchor="start" dominant-baseline="middle">B</text>
<line x1="258.12" y1="178.00" x2="327.12" y2="297.51" stroke="rgba(189,189,189,1.000)" stroke-width="1.00" opacity="0.5"/>
<text x="329.62" y="301.84" font-size="13" font-family="Inter, -apple-system, BlinkMacSystemFont, 'Segoe UI', Roboto, Helvetica, Arial, 'PingFang SC', 'Microsoft YaHei', Ubuntu, Cantarell, 'Noto Sans', sans-serif" fill="rgba(51,51,51,1.000)" text-anchor="start" dominant-baseline="hanging">C</text>
<line x1="258.12" y1="178.00" x2="189.12" y2="297.51" stroke="rgba(189,189,189,1.000)" stroke-width="1.00" opacity="0.5"/>
<text x="186.62" y="301.84" font-size="13" font-family="Inter, -apple-system, BlinkMacSystemFont, 'Segoe UI', Roboto, Helvetica, Arial, 'PingFang SC', 'Microsoft YaHei', Ubuntu, Cantarell, 'Noto Sans', sans-serif" fill="rgba(51,51,51,1.000)" text-anchor="end" dominant-baseline="hanging">D</text>
<line x1="258.12" y1="178.00" x2="120.12" y2="178.00" stroke="rgba(189,189,189,1.000)" stroke-width="1.00" opacity="0.5"/>
<text x="115.12" y="178.00" font-size="13" font-family="Inter, -apple-system, BlinkMacSystemFont, 'Segoe UI', Roboto, Helvetica, Arial, 'PingFang SC', 'Microsoft YaHei', Ubuntu, Cantarell, 'Noto Sans', sans-serif" fill="rgba(51,51,51,1.000)" text-anchor="end" dominant-baseline="middle">E</text>
<line x1="258.12" y1="178.00" x2="189.12" y2="58.49" stroke="rgba(189,189,189,1.000)" stroke-width="1.00" opacity="0.5"/>
<text x="186.62" y="54.16" font-size="13" font-family="Inter, -apple-system, BlinkMacSystemFont, 'Segoe UI', Roboto, Helvetica, Arial, 'PingFang SC', 'Microsoft YaHei', Ubuntu, Cantarell, 'Noto Sans', sans-serif" fill="rgba(51,51,51,1.000)" text-anchor="end" dominant-baseline="auto">F</text>
<defs><clipPath id="plot-clip-area"><rect x="80.050" y="40.000" width="356.150" height="276.000" /></clipPath></defs>
<polygon points="258.125,178.000 258.125,109.215 262.359,109.345 266.578,109.736 270.764,110.386 274.903,111.292 278.977,112.452 282.973,113.860 286.875,115.511 290.667,117.399 294.336,119.517 297.867,121.858 301.248,124.411 304.465,127.167 307.507,130.116 310.361,133.247 313.017,136.548 315.465,140.005 317.695,143.607 258.125,178.000 258.125,178.000 258.125,178.000 258.125,178.000 258.125,178.000 258.125,178.000 258.125,178.000 258.125,178.000 258.125,178.000 258.125,178.000 258.125,178.000 258.125,178.000 258.125,178.000 258.125,178.000 258.125,178.000 258.125,178.000 258.125,178.000" fill="rgba(31,119,180,1.000)" stroke="rgba(224,224,224,1.000)" stroke-width="0.500" fill-opacity="1.000" stroke-opacity="1.000" clip-path="url(#plot-clip-area)" />
<polygon points="258.125,178.000 374.756,110.663 378.680,117.971 382.147,125.506 385.144,133.240 387.658,141.145 389.681,149.189 391.205,157.342 392.225,165.574 392.735,173.853 392.735,182.147 392.225,190.426 391.205,198.658 389.681,206.811 387.658,214.855 385.144,222.760 382.147,230.494 378.680,238.029 374.756,245.337 258.125,178.000 258.125,178.000 258.125,178.000 258.125,178.000 258.125,178.000 258.125,178.000 258.125,178.000 258.125,178.000 258.125,178.000 258.125,178.000 258.125,178.000 258.125,178.000 258.125,178.000 258.125,178.000 258.125,178.000 258.125,178.000 258.125,178.000" fill="rgba(255,127,14,1.000)" stroke="rgba(224,224,224,1.000)" stroke-width="0.500" fill-opacity="1.000" stroke-opacity="1.000" clip-path="url(#plot-clip-area)" />
<polygon points="258.125,178.000 328.609,218.694 325.970,222.956 323.074,227.047 319.931,230.952 316.554,234.657 312.956,238.146 309.149,241.408 305.149,244.429 300.970,247.197 296.629,249.704 292.142,251.938 287.526,253.892 282.798,255.558 277.977,256.930 273.080,258.002 268.127,258.771 263.135,259.234 258.125,259.388 258.125,178.000 258.125,178.000 258.125,178.000 258.125,178.000 258.125,178.000 258.125,178.000 258.125,178.000 258.125,178.000 258.125,178.000 258.125,178.000 258.125,178.000 258.125,178.000 258.125,178.000 258.125,178.000 258.125,178.000 258.125,178.000 258.125,178.000" fill="rgba(44,160,44,1.000)" stroke="rgba(224,224,224,1.000)" stroke-width="0.500" fill-opacity="1.000" stroke-opacity="1.000" clip-path="url(#plot-clip-area)" />
<polygon points="258.125,178.000 258.125,302.322 250.472,302.086 242.847,301.380 235.281,300.205 227.801,298.567 220.436,296.472 213.215,293.927 206.163,290.942 199.309,287.529 192.678,283.701 186.295,279.471 180.184,274.857 174.370,269.875 168.873,264.545 163.714,258.886 158.914,252.921 154.490,246.671 150.459,240.161 258.125,178.000 258.125,178.000 258.125,178.000 258.125,178.000 258.125,178.000 258.125,178.000 258.125,178.000 258.125,178.000 258.125,178.000 258.125,178.000 258.125,178.000 258.125,178.000 258.125,178.000 258.125,178.000 258.125,178.000 258.125,178.000 258.125,178.000" fill="rgba(214,39,40,1.000)" stroke="rgba(224,224,224,1.000)" stroke-width="0.500" fill-opacity="1.000" stroke-opacity="1.000" clip-path="url(#plot-clip-area)" />
<polygon points="258.125,178.000 203.745,209.396 201.916,205.989 200.299,202.476 198.902,198.869 197.730,195.184 196.787,191.433 196.076,187.632 195.601,183.794 195.363,179.934 195.363,176.066 195.601,172.206 196.076,168.368 196.787,164.567 197.730,160.816 198.902,157.131 200.299,153.524 201.916,150.011 203.745,146.604 258.125,178.000 258.125,178.000 258.125,178.000 258.125,178.000 258.125,178.000 258.125,178.000 258.125,178.000 258.125,178.000 258.125,178.000 258.125,178.000 258.125,178.000 258.125,178.000 258.125,178.000 258.125,178.000 258.125,178.000 258.125,178.000 258.125,178.000" fill="rgba(148,103,189,1.000)" stroke="rgba(224,224,224,1.000)" stroke-width="0.500" fill-opacity="1.000" stroke-opacity="1.000" clip-path="url(#plot-clip-area)" />
<polygon points="258.125,178.000 167.130,125.464 170.537,119.962 174.276,114.680 178.333,109.639 182.693,104.856 187.339,100.351 192.253,96.141 197.417,92.241 202.812,88.666 208.416,85.431 214.209,82.546 220.169,80.024 226.272,77.873 232.497,76.102 238.818,74.718 245.213,73.725 251.657,73.128 258.125,72.929 258.125,178.000 258.125,178.000 258.125,178.000 258.125,178.000 258.125,178.000 258.125,178.000 258.125,178.000 258.125,178.000 258.125,178.000 258.125,178.000 258.125,178.000 258.125,178.000 258.125,178.000 258.125,178.000 258.125,178.000 258.125,178.000 258.125,178.000" fill="rgba(140,86,75,1.000)" stroke="rgba(224,224,224,1.000)" stroke-width="0.500" fill-opacity="1.000" stroke-opacity="1.000" clip-path="url(#plot-clip-area)" />
<text x="451.200" y="49.600" font-size="13.2" font-family="Inter, -apple-system, BlinkMacSystemFont, 'Segoe UI', Roboto, Helvetica, Arial, 'PingFang SC', 'Microsoft YaHei', Ubuntu, Cantarell, 'Noto Sans', sans-serif" fill="rgba(51,51,51,1.000)" fill-opacity="1.000" text-anchor="start" font-weight="bold">type</text>
<circle cx="460.200" cy="69.200" r="5.000" fill="rgba(31,119,180,1.000)" stroke="none" stroke-width="0.000" fill-opacity="1.000" stroke-opacity="1.000" />
<text x="477.200" y="73.700" font-size="12.0" font-family="Inter, -apple-system, BlinkMacSystemFont, 'Segoe UI', Roboto, Helvetica, Arial, 'PingFang SC', 'Microsoft YaHei', Ubuntu, Cantarell, 'Noto Sans', sans-serif" fill="rgba(51,51,51,1.000)" fill-opacity="1.000" text-anchor="start" font-weight="normal">A</text>
<circle cx="460.200" cy="90.200" r="5.000" fill="rgba(255,127,14,1.000)" stroke="none" stroke-width="0.000" fill-opacity="1.000" stroke-opacity="1.000" />
<text x="477.200" y="94.700" font-size="12.0" font-family="Inter, -apple-system, BlinkMacSystemFont, 'Segoe UI', Roboto, Helvetica, Arial, 'PingFang SC', 'Microsoft YaHei', Ubuntu, Cantarell, 'Noto Sans', sans-serif" fill="rgba(51,51,51,1.000)" fill-opacity="1.000" text-anchor="start" font-weight="normal">B</text>
<circle cx="460.200" cy="111.200" r="5.000" fill="rgba(44,160,44,1.000)" stroke="none" stroke-width="0.000" fill-opacity="1.000" stroke-opacity="1.000" />
<text x="477.200" y="115.700" font-size="12.0" font-family="Inter, -apple-system, BlinkMacSystemFont, 'Segoe UI', Roboto, Helvetica, Arial, 'PingFang SC', 'Microsoft YaHei', Ubuntu, Cantarell, 'Noto Sans', sans-serif" fill="rgba(51,51,51,1.000)" fill-opacity="1.000" text-anchor="start" font-weight="normal">C</text>
<circle cx="460.200" cy="132.200" r="5.000" fill="rgba(214,39,40,1.000)" stroke="none" stroke-width="0.000" fill-opacity="1.000" stroke-opacity="1.000" />
<text x="477.200" y="136.700" font-size="12.0" font-family="Inter, -apple-system, BlinkMacSystemFont, 'Segoe UI', Roboto, Helvetica, Arial, 'PingFang SC', 'Microsoft YaHei', Ubuntu, Cantarell, 'Noto Sans', sans-serif" fill="rgba(51,51,51,1.000)" fill-opacity="1.000" text-anchor="start" font-weight="normal">D</text>
<circle cx="460.200" cy="153.200" r="5.000" fill="rgba(148,103,189,1.000)" stroke="none" stroke-width="0.000" fill-opacity="1.000" stroke-opacity="1.000" />
<text x="477.200" y="157.700" font-size="12.0" font-family="Inter, -apple-system, BlinkMacSystemFont, 'Segoe UI', Roboto, Helvetica, Arial, 'PingFang SC', 'Microsoft YaHei', Ubuntu, Cantarell, 'Noto Sans', sans-serif" fill="rgba(51,51,51,1.000)" fill-opacity="1.000" text-anchor="start" font-weight="normal">E</text>
<circle cx="460.200" cy="174.200" r="5.000" fill="rgba(140,86,75,1.000)" stroke="none" stroke-width="0.000" fill-opacity="1.000" stroke-opacity="1.000" />
<text x="477.200" y="178.700" font-size="12.0" font-family="Inter, -apple-system, BlinkMacSystemFont, 'Segoe UI', Roboto, Helvetica, Arial, 'PingFang SC', 'Microsoft YaHei', Ubuntu, Cantarell, 'Noto Sans', sans-serif" fill="rgba(51,51,51,1.000)" fill-opacity="1.000" text-anchor="start" font-weight="normal">F</text>
</svg>