<svg width="500" height="400" viewBox="0 0 500 400" xmlns="http://www.w3.org/2000/svg"><rect width="100%" height="100%" fill="rgba(255,255,255,1.000)" /><line x1="76.15" y1="316.00" x2="485.00" y2="316.00" stroke="rgba(51,51,51,1.000)" stroke-width="1" stroke-linecap="square"/>
<line x1="127.26" y1="316.00" x2="127.26" y2="322.00" stroke="rgba(51,51,51,1.000)" stroke-width="1.0"/>
<text x="127.26" y="325.00" font-size="13" font-family="Inter, -apple-system, BlinkMacSystemFont, 'Segoe UI', Roboto, Helvetica, Arial, 'PingFang SC', 'Microsoft YaHei', Ubuntu, Cantarell, 'Noto Sans', sans-serif" fill="rgba(51,51,51,1.000)" text-anchor="middle" dominant-baseline="hanging">a</text>
<line x1="229.47" y1="316.00" x2="229.47" y2="322.00" stroke="rgba(51,51,51,1.000)" stroke-width="1.0"/>
<text x="229.47" y="325.00" font-size="13" font-family="Inter, -apple-system, BlinkMacSystemFont, 'Segoe UI', Roboto, Helvetica, Arial, 'PingFang SC', 'Microsoft YaHei', Ubuntu, Cantarell, 'Noto Sans', sans-serif" fill="rgba(51,51,51,1.000)" text-anchor="middle" dominant-baseline="hanging">b</text>
<line x1="331.68" y1="316.00" x2="331.68" y2="322.00" stroke="rgba(51,51,51,1.000)" stroke-width="1.0"/>
<text x="331.68" y="325.00" font-size="13" font-family="Inter, -apple-system, BlinkMacSystemFont, 'Segoe UI', Roboto, Helvetica, Arial, 'PingFang SC', 'Microsoft YaHei', Ubuntu, Cantarell, 'Noto Sans', sans-serif" fill="rgba(51,51,51,1.000)" text-anchor="middle" dominant-baseline="hanging">c</text>
<line x1="433.89" y1="316.00" x2="433.89" y2="322.00" stroke="rgba(51,51,51,1.000)" stroke-width="1.0"/>
<text x="433.89" y="325.00" font-size="13" font-family="Inter, -apple-system, BlinkMacSystemFont, 'Segoe UI', Roboto, Helvetica, Arial, 'PingFang SC', 'Microsoft YaHei', Ubuntu, Cantarell, 'Noto Sans', sans-serif" fill="rgba(51,51,51,1.000)" text-anchor="middle" dominant-baseline="hanging">d</text>
<text x="280.58" y="340.00" text-anchor="middle" font-size="15" font-family="Inter, -apple-system, BlinkMacSystemFont, 'Segoe UI', Roboto, Helvetica, Arial, 'PingFang SC', 'Microsoft YaHei', Ubuntu, Cantarell, 'Noto Sans', sans-serif" fill="rgba(51,51,51,1.000)" font-weight="bold" dominant-baseline="hanging">type</text>
<line x1="76.15" y1="40.00" x2="76.15" y2="316.00" stroke="rgba(51,51,51,1.000)" stroke-width="1" stroke-linecap="square"/>
<line x1="76.15" y1="316.00" x2="70.15" y2="316.00" stroke="rgba(51,51,51,1.000)" stroke-width="1.0"/>
<text x="66.15" y="316.00" font-size="13" font-family="Inter, -apple-system, BlinkMacSystemFont, 'Segoe UI', Roboto, Helvetica, Arial, 'PingFang SC', 'Microsoft YaHei', Ubuntu, Cantarell, 'Noto Sans', sans-serif" fill="rgba(51,51,51,1.000)" text-anchor="end" dominant-baseline="central">0</text>
<line x1="76.15" y1="275.56" x2="70.15" y2="275.56" stroke="rgba(51,51,51,1.000)" stroke-width="1.0"/>
<text x="66.15" y="275.56" font-size="13" font-family="Inter, -apple-system, BlinkMacSystemFont, 'Segoe UI', Roboto, Helvetica, Arial, 'PingFang SC', 'Microsoft YaHei', Ubuntu, Cantarell, 'Noto Sans', sans-serif" fill="rgba(51,51,51,1.000)" text-anchor="end" dominant-baseline="central">1</text>
<line x1="76.15" y1="235.12" x2="70.15" y2="235.12" stroke="rgba(51,51,51,1.000)" stroke-width="1.0"/>
<text x="66.15" y="235.12" font-size="13" font-family="Inter, -apple-system, BlinkMacSystemFont, 'Segoe UI', Roboto, Helvetica, Arial, 'PingFang SC', 'Microsoft YaHei', Ubuntu, Cantarell, 'Noto Sans', sans-serif" fill="rgba(51,51,51,1.000)" text-anchor="end" dominant-baseline="central">2</text>
<line x1="76.15" y1="194.68" x2="70.15" y2="194.68" stroke="rgba(51,51,51,1.000)" stroke-width="1.0"/>
<text x="66.15" y="194.68" font-size="13" font-family="Inter, -apple-system, BlinkMacSystemFont, 'Segoe UI', Roboto, Helvetica, Arial, 'PingFang SC', 'Microsoft YaHei', Ubuntu, Cantarell, 'Noto Sans', sans-serif" fill="rgba(51,51,51,1.000)" text-anchor="end" dominant-baseline="central">3</text>
<line x1="76.15" y1="154.24" x2="70.15" y2="154.24" stroke="rgba(51,51,51,1.000)" stroke-width="1.0"/>
<text x="66.15" y="154.24" font-size="13" font-family="Inter, -apple-system, BlinkMacSystemFont, 'Segoe UI', Roboto, Helvetica, Arial, 'PingFang SC', 'Microsoft YaHei', Ubuntu, Cantarell, 'Noto Sans', sans-serif" fill="rgba(51,51,51,1.000)" text-anchor="end" dominant-baseline="central">4</text>
<line x1="76.15" y1="113.80" x2="70.15" y2="113.80" stroke="rgba(51,51,51,1.000)" stroke-width="1.0"/>
<text x="66.15" y="113.80" font-size="13" font-family="Inter, -apple-system, BlinkMacSystemFont, 'Segoe UI', Roboto, Helvetica, Arial, 'PingFang SC', 'Microsoft YaHei', Ubuntu, Cantarell, 'Noto Sans', sans-serif" fill="rgba(51,51,51,1.000)" text-anchor="end" dominant-baseline="central">5</text>
<line x1="76.15" y1="73.36" x2="70.15" y2="73.36" stroke="rgba(51,51,51,1.000)" stroke-width="1.0"/>
<text x="66.15" y="73.36" font-size="13" font-family="Inter, -apple-system, BlinkMacSystemFont, 'Segoe UI', Roboto, Helvetica, Arial, 'PingFang SC', 'Microsoft YaHei', Ubuntu, Cantarell, 'Noto Sans', sans-serif" fill="rgba(51,51,51,1.000)" text-anchor="end" dominant-baseline="central">6</text>
<text x="47.50" y="178.00" text-anchor="middle" font-size="15" font-family="Inter, -apple-system, BlinkMacSystemFont, 'Segoe UI', Roboto, Helvetica, Arial, 'PingFang SC', 'Microsoft YaHei', Ubuntu, Cantarell, 'Noto Sans', sans-serif" fill="rgba(51,51,51,1.000)" font-weight="bold" transform="rotate(-90, 47.50, 178.00)" dominant-baseline="middle">value</text>
<defs><clipPath id="plot-clip-area"><rect x="76.150" y="40.000" width="408.850" height="276.000" /></clipPath></defs>
<polygon points="280.575,178.000 280.575,78.923 286.796,79.119 292.993,79.704 299.140,80.678 305.214,82.036 311.191,83.772 317.048,85.881 322.760,88.353 328.306,91.178 333.663,94.347 338.811,97.845 343.729,101.660 348.398,105.776 352.799,110.177 356.915,114.846 360.730,119.764 364.228,124.912 367.397,130.269 370.222,135.815 372.694,141.527 374.803,147.384 376.539,153.361 377.897,159.435 378.871,165.582 379.456,171.779 379.652,178.000 280.575,178.000 280.575,178.000 280.575,178.000 280.575,178.000 280.575,178.000 280.575,178.000 280.575,178.000 280.575,178.000 280.575,178.000 280.575,178.000 280.575,178.000 280.575,178.000 280.575,178.000 280.575,178.000 280.575,178.000 280.575,178.000 280.575,178.000 280.575,178.000 280.575,178.000 280.575,178.000 280.575,178.000 280.575,178.000 280.575,178.000 280.575,178.000 280.575,178.000" fill="rgba(70,130,180,1.000)" stroke="rgba(0,0,0,1.000)" stroke-width="1.000" fill-opacity="1.000" stroke-opacity="1.000" clip-path="url(#plot-clip-area)" />
<polygon points="280.575,178.000 387.740,178.000 387.528,184.729 386.895,191.431 385.842,198.081 384.373,204.651 382.495,211.116 380.214,217.450 377.541,223.629 374.484,229.627 371.057,235.422 367.273,240.990 363.147,246.309 358.695,251.359 353.934,256.120 348.884,260.572 343.565,264.698 337.997,268.482 332.202,271.909 326.204,274.966 320.025,277.639 313.691,279.920 307.226,281.798 300.656,283.267 294.006,284.320 287.304,284.953 280.575,285.165 280.575,178.000 280.575,178.000 280.575,178.000 280.575,178.000 280.575,178.000 280.575,178.000 280.575,178.000 280.575,178.000 280.575,178.000 280.575,178.000 280.575,178.000 280.575,178.000 280.575,178.000 280.575,178.000 280.575,178.000 280.575,178.000 280.575,178.000 280.575,178.000 280.575,178.000 280.575,178.000 280.575,178.000 280.575,178.000 280.575,178.000 280.575,178.000 280.575,178.000" fill="rgba(70,130,180,1.000)" stroke="rgba(0,0,0,1.000)" stroke-width="1.000" fill-opacity="1.000" stroke-opacity="1.000" clip-path="url(#plot-clip-area)" />
<polygon points="280.575,178.000 280.575,289.209 273.592,288.989 266.637,288.332 259.737,287.239 252.919,285.715 246.210,283.766 239.636,281.399 233.225,278.625 227.000,275.453 220.986,271.897 215.208,267.970 209.688,263.688 204.447,259.068 199.507,254.128 194.887,248.887 190.605,243.367 186.678,237.589 183.122,231.575 179.950,225.350 177.176,218.939 174.809,212.365 172.860,205.656 171.336,198.838 170.243,191.938 169.586,184.983 169.366,178.000 280.575,178.000 280.575,178.000 280.575,178.000 280.575,178.000 280.575,178.000 280.575,178.000 280.575,178.000 280.575,178.000 280.575,178.000 280.575,178.000 280.575,178.000 280.575,178.000 280.575,178.000 280.575,178.000 280.575,178.000 280.575,178.000 280.575,178.000 280.575,178.000 280.575,178.000 280.575,178.000 280.575,178.000 280.575,178.000 280.575,178.000 280.575,178.000 280.575,178.000" fill="rgba(70,130,180,1.000)" stroke="rgba(0,0,0,1.000)" stroke-width="1.000" fill-opacity="1.000" stroke-opacity="1.000" clip-path="url(#plot-clip-area)" />
<polygon points="280.575,178.000 149.146,178.000 149.406,169.748 150.183,161.528 151.474,153.373 153.275,145.315 155.579,137.386 158.376,129.618 161.655,122.040 165.403,114.684 169.606,107.577 174.247,100.748 179.308,94.224 184.768,88.031 190.606,82.193 196.799,76.733 203.323,71.672 210.152,67.031 217.259,62.828 224.615,59.080 232.193,55.801 239.961,53.004 247.890,50.701 255.948,48.899 264.103,47.608 272.323,46.831 280.575,46.571 280.575,178.000 280.575,178.000 280.575,178.000 280.575,178.000 280.575,178.000 280.575,178.000 280.575,178.000 280.575,178.000 280.575,178.000 280.575,178.000 280.575,178.000 280.575,178.000 280.575,178.000 280.575,178.000 280.575,178.000 280.575,178.000 280.575,178.000 280.575,178.000 280.575,178.000 280.575,178.000 280.575,178.000 280.575,178.000 280.575,178.000 280.575,178.000 280.575,178.000" fill="rgba(70,130,180,1.000)" stroke="rgba(0,0,0,1.000)" stroke-width="1.000" fill-opacity="1.000" stroke-opacity="1.000" clip-path="url(#plot-clip-area)" />
</svg>