<svg width="500" height="400" viewBox="0 0 500 400" xmlns="http://www.w3.org/2000/svg"><rect width="100%" height="100%" fill="white" /><text x="250" y="18" font-size="18" font-family="sans-serif" fill="#333" text-anchor="middle">Rule Chart with Y and Y2</text>
<line x1="89.85" y1="275" x2="89.85" y2="165" stroke="#1f77b4" stroke-width="1" opacity="1"/>
<line x1="173.38124999999997" y1="220" x2="173.38124999999997" y2="110" stroke="#ff7f0e" stroke-width="1" opacity="1"/>
<line x1="256.91249999999997" y1="330" x2="256.91249999999997" y2="220" stroke="#1f77b4" stroke-width="1" opacity="1"/>
<line x1="340.4437499999999" y1="165" x2="340.4437499999999" y2="55" stroke="#ff7f0e" stroke-width="1" opacity="1"/>
<line x1="423.9749999999999" y1="275" x2="423.9749999999999" y2="165" stroke="#1f77b4" stroke-width="1" opacity="1"/>
<line x1="75" y1="340" x2="446.24999999999994" y2="340" stroke="black" stroke-width="1"/>
<line x1="89.85" y1="340" x2="89.85" y2="345" stroke="black" stroke-width="1"/>
<text x="89.85" y="358" font-size="13" font-family="sans-serif" fill="#333" text-anchor="middle">1</text>
<line x1="173.38124999999997" y1="340" x2="173.38124999999997" y2="345" stroke="black" stroke-width="1"/>
<text x="173.38124999999997" y="358" font-size="13" font-family="sans-serif" fill="#333" text-anchor="middle">2</text>
<line x1="256.91249999999997" y1="340" x2="256.91249999999997" y2="345" stroke="black" stroke-width="1"/>
<text x="256.91249999999997" y="358" font-size="13" font-family="sans-serif" fill="#333" text-anchor="middle">3</text>
<line x1="340.4437499999999" y1="340" x2="340.4437499999999" y2="345" stroke="black" stroke-width="1"/>
<text x="340.4437499999999" y="358" font-size="13" font-family="sans-serif" fill="#333" text-anchor="middle">4</text>
<line x1="423.9749999999999" y1="340" x2="423.9749999999999" y2="345" stroke="black" stroke-width="1"/>
<text x="423.9749999999999" y="358" font-size="13" font-family="sans-serif" fill="#333" text-anchor="middle">5</text>
<text x="260.625" y="363" font-size="15" font-family="sans-serif" fill="#333" text-anchor="middle" dominant-baseline="text-before-edge">X Values</text>
<line x1="75" y1="40" x2="75" y2="340" stroke="black" stroke-width="1"/>
<line x1="70" y1="330" x2="75" y2="330" stroke="black" stroke-width="1"/>
<text x="67" y="330" font-size="13" font-family="sans-serif" fill="#333" text-anchor="end" dominant-baseline="middle">1</text>
<line x1="70" y1="275" x2="75" y2="275" stroke="black" stroke-width="1"/>
<text x="67" y="275" font-size="13" font-family="sans-serif" fill="#333" text-anchor="end" dominant-baseline="middle">2</text>
<line x1="70" y1="220" x2="75" y2="220" stroke="black" stroke-width="1"/>
<text x="67" y="220" font-size="13" font-family="sans-serif" fill="#333" text-anchor="end" dominant-baseline="middle">3</text>
<line x1="70" y1="165" x2="75" y2="165" stroke="black" stroke-width="1"/>
<text x="67" y="165" font-size="13" font-family="sans-serif" fill="#333" text-anchor="end" dominant-baseline="middle">4</text>
<line x1="70" y1="110" x2="75" y2="110" stroke="black" stroke-width="1"/>
<text x="67" y="110" font-size="13" font-family="sans-serif" fill="#333" text-anchor="end" dominant-baseline="middle">5</text>
<line x1="70" y1="55" x2="75" y2="55" stroke="black" stroke-width="1"/>
<text x="67" y="55" font-size="13" font-family="sans-serif" fill="#333" text-anchor="end" dominant-baseline="middle">6</text>
<text x="47.85" y="190" font-size="15" font-family="sans-serif" fill="#333" text-anchor="middle" transform="rotate(-90, 47.85, 190)">Y Values</text>
<text x="461.24999999999994" y="55" font-size="15" font-family="sans-serif" text-anchor="start" font-weight="bold">color</text>
<line x1="461.24999999999994" y1="75" x2="476.24999999999994" y2="75" stroke="#1f77b4" stroke-width="2" stroke-linecap="round" fill-opacity="1"/>
<text x="481.24999999999994" y="75" font-size="13" font-family="sans-serif" dominant-baseline="middle">A</text>
<line x1="461.24999999999994" y1="95" x2="476.24999999999994" y2="95" stroke="#ff7f0e" stroke-width="2" stroke-linecap="round" fill-opacity="1"/>
<text x="481.24999999999994" y="95" font-size="13" font-family="sans-serif" dominant-baseline="middle">B</text>
</svg>