<svg xmlns="http://www.w3.org/2000/svg" xmlns:xlink="http://www.w3.org/1999/xlink" version="1.1" class="marks" width="430" height="306.2" viewBox="0 0 430 306.2"><rect width="430" height="306.2" fill="white"/><g fill="none" stroke-miterlimit="10" transform="translate(46,10)"><g class="mark-group role-frame root" role="graphics-object" aria-roledescription="group mark container"><g transform="translate(0,0)"><path class="background" aria-hidden="true" d="M0.5,0.5h324v259.2h-324Z" stroke="#ddd"/><g><g class="mark-group role-axis" aria-hidden="true"><g transform="translate(0.5,259.7)"><path class="background" aria-hidden="true" d="M0,0h0v0h0Z" pointer-events="none"/><g><g class="mark-rule role-axis-grid" pointer-events="none"><line transform="translate(0,-259.2)" x2="0" y2="259.2" stroke="#ddd" stroke-width="1" opacity="1"/><line transform="translate(29,-259.2)" x2="0" y2="259.2" stroke="#ddd" stroke-width="1" opacity="1"/><line transform="translate(59,-259.2)" x2="0" y2="259.2" stroke="#ddd" stroke-width="1" opacity="1"/><line transform="translate(88,-259.2)" x2="0" y2="259.2" stroke="#ddd" stroke-width="1" opacity="1"/><line transform="translate(118,-259.2)" x2="0" y2="259.2" stroke="#ddd" stroke-width="1" opacity="1"/><line transform="translate(147,-259.2)" x2="0" y2="259.2" stroke="#ddd" stroke-width="1" opacity="1"/><line transform="translate(177,-259.2)" x2="0" y2="259.2" stroke="#ddd" stroke-width="1" opacity="1"/><line transform="translate(206,-259.2)" x2="0" y2="259.2" stroke="#ddd" stroke-width="1" opacity="1"/><line transform="translate(236,-259.2)" x2="0" y2="259.2" stroke="#ddd" stroke-width="1" opacity="1"/><line transform="translate(265,-259.2)" x2="0" y2="259.2" stroke="#ddd" stroke-width="1" opacity="1"/><line transform="translate(295,-259.2)" x2="0" y2="259.2" stroke="#ddd" stroke-width="1" opacity="1"/><line transform="translate(324,-259.2)" x2="0" y2="259.2" stroke="#ddd" stroke-width="1" opacity="1"/></g></g><path class="foreground" aria-hidden="true" d="" pointer-events="none" display="none"/></g></g><g class="mark-group role-axis" aria-hidden="true"><g transform="translate(0.5,0.5)"><path class="background" aria-hidden="true" d="M0,0h0v0h0Z" pointer-events="none"/><g><g class="mark-rule role-axis-grid" pointer-events="none"><line transform="translate(0,259)" x2="324" y2="0" stroke="#ddd" stroke-width="1" opacity="1"/><line transform="translate(0,207)" x2="324" y2="0" stroke="#ddd" stroke-width="1" opacity="1"/><line transform="translate(0,156)" x2="324" y2="0" stroke="#ddd" stroke-width="1" opacity="1"/><line transform="translate(0,104)" x2="324" y2="0" stroke="#ddd" stroke-width="1" opacity="1"/><line transform="translate(0,52)" x2="324" y2="0" stroke="#ddd" stroke-width="1" opacity="1"/><line transform="translate(0,0)" x2="324" y2="0" stroke="#ddd" stroke-width="1" opacity="1"/></g></g><path class="foreground" aria-hidden="true" d="" pointer-events="none" display="none"/></g></g><g class="mark-group role-axis" role="graphics-symbol" aria-roledescription="axis" aria-label="X-axis titled 'temperature' for a linear scale with values from 5 to 60"><g transform="translate(0.5,259.7)"><path class="background" aria-hidden="true" d="M0,0h0v0h0Z" pointer-events="none"/><g><g class="mark-rule role-axis-tick" pointer-events="none"><line transform="translate(0,0)" x2="0" y2="5" stroke="#888" stroke-width="1" opacity="1"/><line transform="translate(29,0)" x2="0" y2="5" stroke="#888" stroke-width="1" opacity="1"/><line transform="translate(59,0)" x2="0" y2="5" stroke="#888" stroke-width="1" opacity="1"/><line transform="translate(88,0)" x2="0" y2="5" stroke="#888" stroke-width="1" opacity="1"/><line transform="translate(118,0)" x2="0" y2="5" stroke="#888" stroke-width="1" opacity="1"/><line transform="translate(147,0)" x2="0" y2="5" stroke="#888" stroke-width="1" opacity="1"/><line transform="translate(177,0)" x2="0" y2="5" stroke="#888" stroke-width="1" opacity="1"/><line transform="translate(206,0)" x2="0" y2="5" stroke="#888" stroke-width="1" opacity="1"/><line transform="translate(236,0)" x2="0" y2="5" stroke="#888" stroke-width="1" opacity="1"/><line transform="translate(265,0)" x2="0" y2="5" stroke="#888" stroke-width="1" opacity="1"/><line transform="translate(295,0)" x2="0" y2="5" stroke="#888" stroke-width="1" opacity="1"/><line transform="translate(324,0)" x2="0" y2="5" stroke="#888" stroke-width="1" opacity="1"/></g><g class="mark-text role-axis-label" pointer-events="none"><text text-anchor="start" transform="translate(0,15)" font-family="sans-serif" font-size="10px" fill="#000" opacity="1">5</text><text text-anchor="middle" transform="translate(29.454545454545457,15)" font-family="sans-serif" font-size="10px" fill="#000" opacity="1">10</text><text text-anchor="middle" transform="translate(58.909090909090914,15)" font-family="sans-serif" font-size="10px" fill="#000" opacity="1">15</text><text text-anchor="middle" transform="translate(88.36363636363636,15)" font-family="sans-serif" font-size="10px" fill="#000" opacity="1">20</text><text text-anchor="middle" transform="translate(117.81818181818183,15)" font-family="sans-serif" font-size="10px" fill="#000" opacity="1">25</text><text text-anchor="middle" transform="translate(147.27272727272728,15)" font-family="sans-serif" font-size="10px" fill="#000" opacity="1">30</text><text text-anchor="middle" transform="translate(176.72727272727272,15)" font-family="sans-serif" font-size="10px" fill="#000" opacity="1">35</text><text text-anchor="middle" transform="translate(206.1818181818182,15)" font-family="sans-serif" font-size="10px" fill="#000" opacity="1">40</text><text text-anchor="middle" transform="translate(235.63636363636365,15)" font-family="sans-serif" font-size="10px" fill="#000" opacity="1">45</text><text text-anchor="middle" transform="translate(265.0909090909091,15)" font-family="sans-serif" font-size="10px" fill="#000" opacity="1">50</text><text text-anchor="middle" transform="translate(294.54545454545456,15)" font-family="sans-serif" font-size="10px" fill="#000" opacity="1">55</text><text text-anchor="end" transform="translate(324,15)" font-family="sans-serif" font-size="10px" fill="#000" opacity="1">60</text></g><g class="mark-rule role-axis-domain" pointer-events="none"><line transform="translate(0,0)" x2="324" y2="0" stroke="#888" stroke-width="1" opacity="1"/></g><g class="mark-text role-axis-title" pointer-events="none"><text text-anchor="middle" transform="translate(162,30)" font-family="sans-serif" font-size="12px" font-weight="bold" fill="#000" opacity="1">temperature</text></g></g><path class="foreground" aria-hidden="true" d="" pointer-events="none" display="none"/></g></g><g class="mark-group role-axis" role="graphics-symbol" aria-roledescription="axis" aria-label="Y-axis titled 'growth' for a linear scale with values from 0 to 100"><g transform="translate(0.5,0.5)"><path class="background" aria-hidden="true" d="M0,0h0v0h0Z" pointer-events="none"/><g><g class="mark-rule role-axis-tick" pointer-events="none"><line transform="translate(0,259)" x2="-5" y2="0" stroke="#888" stroke-width="1" opacity="1"/><line transform="translate(0,207)" x2="-5" y2="0" stroke="#888" stroke-width="1" opacity="1"/><line transform="translate(0,156)" x2="-5" y2="0" stroke="#888" stroke-width="1" opacity="1"/><line transform="translate(0,104)" x2="-5" y2="0" stroke="#888" stroke-width="1" opacity="1"/><line transform="translate(0,52)" x2="-5" y2="0" stroke="#888" stroke-width="1" opacity="1"/><line transform="translate(0,0)" x2="-5" y2="0" stroke="#888" stroke-width="1" opacity="1"/></g><g class="mark-text role-axis-label" pointer-events="none"><text text-anchor="end" transform="translate(-7,262.2)" font-family="sans-serif" font-size="10px" fill="#000" opacity="1">0</text><text text-anchor="end" transform="translate(-7,210.36)" font-family="sans-serif" font-size="10px" fill="#000" opacity="1">20</text><text text-anchor="end" transform="translate(-7,158.51999999999998)" font-family="sans-serif" font-size="10px" fill="#000" opacity="1">40</text><text text-anchor="end" transform="translate(-7,106.68)" font-family="sans-serif" font-size="10px" fill="#000" opacity="1">60</text><text text-anchor="end" transform="translate(-7,54.83999999999999)" font-family="sans-serif" font-size="10px" fill="#000" opacity="1">80</text><text text-anchor="end" transform="translate(-7,3)" font-family="sans-serif" font-size="10px" fill="#000" opacity="1">100</text></g><g class="mark-rule role-axis-domain" pointer-events="none"><line transform="translate(0,259.2)" x2="0" y2="-259.2" stroke="#888" stroke-width="1" opacity="1"/></g><g class="mark-text role-axis-title" pointer-events="none"><text text-anchor="middle" transform="translate(-27.6845703125,129.6) rotate(-90) translate(0,-3)" font-family="sans-serif" font-size="12px" font-weight="bold" fill="#000" opacity="1">growth</text></g></g><path class="foreground" aria-hidden="true" d="" pointer-events="none" display="none"/></g></g><g class="mark-rect role-mark layer_0_marks" role="graphics-object" aria-roledescription="rect mark container"><path aria-label="temperature: 10; growth: 0" role="graphics-symbol" aria-roledescription="bar" d="M14.454545454545457,254.016h30v5.1839999999999975h-30Z" fill="rgb(68, 1, 84)" stroke-width="46" opacity="0.8"/><path aria-label="temperature: 15; growth: 0" role="graphics-symbol" aria-roledescription="bar" d="M43.909090909090914,246.23999999999998h30v12.960000000000008h-30Z" fill="rgb(71, 13, 96)" stroke-width="46" opacity="0.8"/><path aria-label="temperature: 20; growth: 0" role="graphics-symbol" aria-roledescription="bar" d="M73.36363636363636,228.096h30v31.103999999999985h-30Z" fill="rgb(72, 38, 118)" stroke-width="46" opacity="0.8"/><path aria-label="temperature: 25; growth: 0" role="graphics-symbol" aria-roledescription="bar" d="M102.81818181818183,194.39999999999998h30v64.80000000000001h-30Z" fill="rgb(61, 79, 138)" stroke-width="46" opacity="0.8"/><path aria-label="temperature: 30; growth: 0" role="graphics-symbol" aria-roledescription="bar" d="M132.27272727272728,155.51999999999998h30v103.68h-30Z" fill="rgb(43, 118, 142)" stroke-width="46" opacity="0.8"/><path aria-label="temperature: 35; growth: 0" role="graphics-symbol" aria-roledescription="bar" d="M161.72727272727272,103.68h30v155.51999999999998h-30Z" fill="rgb(34, 168, 132)" stroke-width="46" opacity="0.8"/><path aria-label="temperature: 40; growth: 0" role="graphics-symbol" aria-roledescription="bar" d="M191.1818181818182,38.88h30v220.32h-30Z" fill="rgb(158, 218, 59)" stroke-width="46" opacity="0.8"/><path aria-label="temperature: 45; growth: 0" role="graphics-symbol" aria-roledescription="bar" d="M220.63636363636365,12.960000000000012h30v246.23999999999998h-30Z" fill="rgb(228, 228, 26)" stroke-width="46" opacity="0.8"/><path aria-label="temperature: 50; growth: 0" role="graphics-symbol" aria-roledescription="bar" d="M250.09090909090912,5.184000000000005h30v254.016h-30Z" fill="rgb(247, 230, 34)" stroke-width="46" opacity="0.8"/><path aria-label="temperature: 55; growth: 0" role="graphics-symbol" aria-roledescription="bar" d="M279.54545454545456,2.5920000000000023h30v256.608h-30Z" fill="rgb(253, 231, 37)" stroke-width="46" opacity="0.8"/></g><g class="mark-symbol role-mark layer_1_marks" role="graphics-object" aria-roledescription="symbol mark container"><path aria-label="temperature: 11; growth: 3" role="graphics-symbol" aria-roledescription="point" transform="translate(35.345454545454544,251.42399999999998)" d="M5.701,0A5.701,5.701,0,1,1,-5.701,0A5.701,5.701,0,1,1,5.701,0" fill="rgb(69, 5, 88)" stroke="white" stroke-width="1" opacity="0.7"/><path aria-label="temperature: 18; growth: 8" role="graphics-symbol" aria-roledescription="point" transform="translate(76.58181818181818,238.464)" d="M5.701,0A5.701,5.701,0,1,1,-5.701,0A5.701,5.701,0,1,1,5.701,0" fill="rgb(72, 24, 106)" stroke="white" stroke-width="1" opacity="0.7"/><path aria-label="temperature: 25; growth: 20" role="graphics-symbol" aria-roledescription="point" transform="translate(117.81818181818183,207.36)" d="M5.701,0A5.701,5.701,0,1,1,-5.701,0A5.701,5.701,0,1,1,5.701,0" fill="rgb(66, 64, 133)" stroke="white" stroke-width="1" opacity="0.7"/><path aria-label="temperature: 30; growth: 41" role="graphics-symbol" aria-roledescription="point" transform="translate(147.27272727272728,152.92800000000003)" d="M5.701,0A5.701,5.701,0,1,1,-5.701,0A5.701,5.701,0,1,1,5.701,0" fill="rgb(42, 121, 142)" stroke="white" stroke-width="1" opacity="0.7"/><path aria-label="temperature: 37; growth: 65" role="graphics-symbol" aria-roledescription="point" transform="translate(188.5090909090909,90.71999999999998)" d="M5.701,0A5.701,5.701,0,1,1,-5.701,0A5.701,5.701,0,1,1,5.701,0" fill="rgb(47, 179, 124)" stroke="white" stroke-width="1" opacity="0.7"/></g><g class="mark-group role-legend" role="graphics-symbol" aria-roledescription="legend" aria-label="Gradient legend titled 'growth' for fill color with values from 2 to 99"><g transform="translate(342,0)"><path class="background" aria-hidden="true" d="M0,0h37v216h-37Z" pointer-events="none"/><g><g class="mark-group role-legend-entry"><g transform="translate(0,16)"><path class="background" aria-hidden="true" d="M0,0h0v0h0Z" pointer-events="none"/><g><g class="mark-rect role-legend-gradient" pointer-events="none"><path d="M0,0h16v200h-16Z" fill="url(#gradient_7)" stroke="#ddd" stroke-width="0" opacity="0.8"/></g><g class="mark-text role-legend-label" pointer-events="none"><text text-anchor="start" transform="translate(18,165.88659793814432)" font-family="sans-serif" font-size="10px" fill="#000" opacity="1">20</text><text text-anchor="start" transform="translate(18,124.64948453608248)" font-family="sans-serif" font-size="10px" fill="#000" opacity="1">40</text><text text-anchor="start" transform="translate(18,83.41237113402062)" font-family="sans-serif" font-size="10px" fill="#000" opacity="1">60</text><text text-anchor="start" transform="translate(18,42.17525773195876)" font-family="sans-serif" font-size="10px" fill="#000" opacity="1">80</text></g></g><path class="foreground" aria-hidden="true" d="" pointer-events="none" display="none"/></g></g><g class="mark-text role-legend-title" pointer-events="none"><text text-anchor="start" transform="translate(0,9)" font-family="sans-serif" font-size="11px" font-weight="bold" fill="#000" opacity="1">growth</text></g></g><path class="foreground" aria-hidden="true" d="" pointer-events="none" display="none"/></g></g></g><path class="foreground" aria-hidden="true" d="" display="none"/></g></g></g><defs><linearGradient id="gradient_7" x1="0" x2="0" y1="1" y2="0"><stop offset="0" stop-color="rgb(68, 1, 84)"/><stop offset="0.030927835051546393" stop-color="rgb(71, 13, 96)"/><stop offset="0.08247422680412371" stop-color="rgb(72, 31, 112)"/><stop offset="0.13402061855670103" stop-color="rgb(71, 47, 125)"/><stop offset="0.18556701030927836" stop-color="rgb(66, 64, 133)"/><stop offset="0.23711340206185566" stop-color="rgb(61, 79, 138)"/><stop offset="0.28865979381443296" stop-color="rgb(54, 93, 141)"/><stop offset="0.3402061855670103" stop-color="rgb(48, 106, 142)"/><stop offset="0.3917525773195876" stop-color="rgb(43, 118, 142)"/><stop offset="0.44329896907216493" stop-color="rgb(38, 131, 142)"/><stop offset="0.4948453608247423" stop-color="rgb(33, 144, 141)"/><stop offset="0.5463917525773195" stop-color="rgb(31, 155, 138)"/><stop offset="0.5979381443298969" stop-color="rgb(34, 168, 132)"/><stop offset="0.6494845360824743" stop-color="rgb(47, 179, 124)"/><stop offset="0.7010309278350515" stop-color="rgb(68, 191, 113)"/><stop offset="0.7525773195876289" stop-color="rgb(94, 201, 98)"/><stop offset="0.8041237113402062" stop-color="rgb(125, 210, 79)"/><stop offset="0.8556701030927835" stop-color="rgb(158, 218, 59)"/><stop offset="0.9072164948453608" stop-color="rgb(193, 224, 36)"/><stop offset="0.9587628865979382" stop-color="rgb(228, 228, 26)"/><stop offset="1" stop-color="rgb(253, 231, 37)"/></linearGradient></defs></svg>