<svg width="500" height="400" viewBox="0 0 500 400" xmlns="http://www.w3.org/2000/svg"><rect width="100%" height="100%" fill="white" /><polyline points="87.5,308.21428571428584 156.24999999999972,261.78571428571433 190.62499999999983,238.57142857142864 259.3749999999999,285.0000000000001 293.74999999999966,145.71428571428584 328.12499999999955,168.92857142857156 431.2499999999997,76.07142857142878" fill="none" stroke="black" stroke-width="2" opacity="1" stroke-linejoin="round" stroke-linecap="round"/>
<circle cx="87.5" cy="308.21428571428584" r="3" fill="black" stroke="none" stroke-width="0" opacity="1"/>
<circle cx="156.24999999999972" cy="261.78571428571433" r="3" fill="black" stroke="none" stroke-width="0" opacity="1"/>
<circle cx="190.62499999999983" cy="238.57142857142864" r="3" fill="black" stroke="none" stroke-width="0" opacity="1"/>
<circle cx="259.3749999999999" cy="285.0000000000001" r="3" fill="black" stroke="none" stroke-width="0" opacity="1"/>
<circle cx="293.74999999999966" cy="145.71428571428584" r="3" fill="black" stroke="none" stroke-width="0" opacity="1"/>
<circle cx="328.12499999999955" cy="168.92857142857156" r="3" fill="black" stroke="none" stroke-width="0" opacity="1"/>
<circle cx="431.2499999999997" cy="76.07142857142878" r="3" fill="black" stroke="none" stroke-width="0" opacity="1"/>
<line x1="75" y1="340" x2="450" y2="340" stroke="black" stroke-width="1"/>
<line x1="87.5" y1="340" x2="87.5" y2="345" stroke="black" stroke-width="1"/>
<text x="87.5" y="358" font-size="13" font-family="sans-serif" fill="#333" text-anchor="middle">4.4</text>
<line x1="156.25" y1="340" x2="156.25" y2="345" stroke="black" stroke-width="1"/>
<text x="156.25" y="358" font-size="13" font-family="sans-serif" fill="#333" text-anchor="middle">4.6</text>
<line x1="225" y1="340" x2="225" y2="345" stroke="black" stroke-width="1"/>
<text x="225" y="358" font-size="13" font-family="sans-serif" fill="#333" text-anchor="middle">4.8</text>
<line x1="293.75" y1="340" x2="293.75" y2="345" stroke="black" stroke-width="1"/>
<text x="293.75" y="358" font-size="13" font-family="sans-serif" fill="#333" text-anchor="middle">5.0</text>
<line x1="362.5" y1="340" x2="362.5" y2="345" stroke="black" stroke-width="1"/>
<text x="362.5" y="358" font-size="13" font-family="sans-serif" fill="#333" text-anchor="middle">5.2</text>
<line x1="431.25" y1="340" x2="431.25" y2="345" stroke="black" stroke-width="1"/>
<text x="431.25" y="358" font-size="13" font-family="sans-serif" fill="#333" text-anchor="middle">5.4</text>
<text x="262.5" y="363" font-size="15" font-family="sans-serif" fill="#333" text-anchor="middle" dominant-baseline="text-before-edge">length</text>
<line x1="75" y1="40" x2="75" y2="340" stroke="black" stroke-width="1"/>
<line x1="70" y1="331.42857142857144" x2="75" y2="331.42857142857144" stroke="black" stroke-width="1"/>
<text x="67" y="331.42857142857144" font-size="13" font-family="sans-serif" fill="#333" text-anchor="end" dominant-baseline="middle">2.8</text>
<line x1="70" y1="285" x2="75" y2="285" stroke="black" stroke-width="1"/>
<text x="67" y="285" font-size="13" font-family="sans-serif" fill="#333" text-anchor="end" dominant-baseline="middle">3.0</text>
<line x1="70" y1="238.57142857142853" x2="75" y2="238.57142857142853" stroke="black" stroke-width="1"/>
<text x="67" y="238.57142857142853" font-size="13" font-family="sans-serif" fill="#333" text-anchor="end" dominant-baseline="middle">3.2</text>
<line x1="70" y1="192.1428571428572" x2="75" y2="192.1428571428572" stroke="black" stroke-width="1"/>
<text x="67" y="192.1428571428572" font-size="13" font-family="sans-serif" fill="#333" text-anchor="end" dominant-baseline="middle">3.4</text>
<line x1="70" y1="145.71428571428575" x2="75" y2="145.71428571428575" stroke="black" stroke-width="1"/>
<text x="67" y="145.71428571428575" font-size="13" font-family="sans-serif" fill="#333" text-anchor="end" dominant-baseline="middle">3.6</text>
<line x1="70" y1="99.28571428571428" x2="75" y2="99.28571428571428" stroke="black" stroke-width="1"/>
<text x="67" y="99.28571428571428" font-size="13" font-family="sans-serif" fill="#333" text-anchor="end" dominant-baseline="middle">3.8</text>
<line x1="70" y1="52.85714285714283" x2="75" y2="52.85714285714283" stroke="black" stroke-width="1"/>
<text x="67" y="52.85714285714283" font-size="13" font-family="sans-serif" fill="#333" text-anchor="end" dominant-baseline="middle">4.0</text>
<text x="36.8" y="190" font-size="15" font-family="sans-serif" fill="#333" text-anchor="middle" transform="rotate(-90, 36.8, 190)">width</text>
</svg>