<svg width="500" height="400" viewBox="0 0 500 400" xmlns="http://www.w3.org/2000/svg"><rect width="100%" height="100%" fill="rgba(255,255,255,1.000)" /><text x="250.00" y="10.00" text-anchor="middle" dominant-baseline="middle" font-family="Inter, -apple-system, BlinkMacSystemFont, 'Segoe UI', Roboto, Helvetica, Arial, 'PingFang SC', 'Microsoft YaHei', Ubuntu, Cantarell, 'Noto Sans', sans-serif" font-size="18" fill="rgba(51,51,51,1.000)" font-weight="bold">Electricity Generation</text>
<line x1="95.45" y1="311.00" x2="402.60" y2="311.00" stroke="rgba(51,51,51,1.000)" stroke-width="1" stroke-linecap="square"/>
<line x1="134.80" y1="311.00" x2="134.80" y2="317.00" stroke="rgba(51,51,51,1.000)" stroke-width="1.0"/>
<text x="134.80" y="320.00" font-size="13" font-family="Inter, -apple-system, BlinkMacSystemFont, 'Segoe UI', Roboto, Helvetica, Arial, 'PingFang SC', 'Microsoft YaHei', Ubuntu, Cantarell, 'Noto Sans', sans-serif" fill="rgba(51,51,51,1.000)" text-anchor="middle" dominant-baseline="hanging">2002</text>
<line x1="185.56" y1="311.00" x2="185.56" y2="317.00" stroke="rgba(51,51,51,1.000)" stroke-width="1.0"/>
<text x="185.56" y="320.00" font-size="13" font-family="Inter, -apple-system, BlinkMacSystemFont, 'Segoe UI', Roboto, Helvetica, Arial, 'PingFang SC', 'Microsoft YaHei', Ubuntu, Cantarell, 'Noto Sans', sans-serif" fill="rgba(51,51,51,1.000)" text-anchor="middle" dominant-baseline="hanging">2004</text>
<line x1="236.33" y1="311.00" x2="236.33" y2="317.00" stroke="rgba(51,51,51,1.000)" stroke-width="1.0"/>
<text x="236.33" y="320.00" font-size="13" font-family="Inter, -apple-system, BlinkMacSystemFont, 'Segoe UI', Roboto, Helvetica, Arial, 'PingFang SC', 'Microsoft YaHei', Ubuntu, Cantarell, 'Noto Sans', sans-serif" fill="rgba(51,51,51,1.000)" text-anchor="middle" dominant-baseline="hanging">2006</text>
<line x1="287.10" y1="311.00" x2="287.10" y2="317.00" stroke="rgba(51,51,51,1.000)" stroke-width="1.0"/>
<text x="287.10" y="320.00" font-size="13" font-family="Inter, -apple-system, BlinkMacSystemFont, 'Segoe UI', Roboto, Helvetica, Arial, 'PingFang SC', 'Microsoft YaHei', Ubuntu, Cantarell, 'Noto Sans', sans-serif" fill="rgba(51,51,51,1.000)" text-anchor="middle" dominant-baseline="hanging">2008</text>
<line x1="337.87" y1="311.00" x2="337.87" y2="317.00" stroke="rgba(51,51,51,1.000)" stroke-width="1.0"/>
<text x="337.87" y="320.00" font-size="13" font-family="Inter, -apple-system, BlinkMacSystemFont, 'Segoe UI', Roboto, Helvetica, Arial, 'PingFang SC', 'Microsoft YaHei', Ubuntu, Cantarell, 'Noto Sans', sans-serif" fill="rgba(51,51,51,1.000)" text-anchor="middle" dominant-baseline="hanging">2010</text>
<line x1="388.64" y1="311.00" x2="388.64" y2="317.00" stroke="rgba(51,51,51,1.000)" stroke-width="1.0"/>
<text x="388.64" y="320.00" font-size="13" font-family="Inter, -apple-system, BlinkMacSystemFont, 'Segoe UI', Roboto, Helvetica, Arial, 'PingFang SC', 'Microsoft YaHei', Ubuntu, Cantarell, 'Noto Sans', sans-serif" fill="rgba(51,51,51,1.000)" text-anchor="middle" dominant-baseline="hanging">2012</text>
<text x="249.02" y="340.00" text-anchor="middle" font-size="15" font-family="Inter, -apple-system, BlinkMacSystemFont, 'Segoe UI', Roboto, Helvetica, Arial, 'PingFang SC', 'Microsoft YaHei', Ubuntu, Cantarell, 'Noto Sans', sans-serif" fill="rgba(51,51,51,1.000)" font-weight="bold" dominant-baseline="hanging">Depth</text>
<line x1="95.45" y1="40.00" x2="95.45" y2="311.00" stroke="rgba(51,51,51,1.000)" stroke-width="1" stroke-linecap="square"/>
<line x1="95.45" y1="311.00" x2="89.45" y2="311.00" stroke="rgba(51,51,51,1.000)" stroke-width="1.0"/>
<text x="85.45" y="311.00" font-size="13" font-family="Inter, -apple-system, BlinkMacSystemFont, 'Segoe UI', Roboto, Helvetica, Arial, 'PingFang SC', 'Microsoft YaHei', Ubuntu, Cantarell, 'Noto Sans', sans-serif" fill="rgba(51,51,51,1.000)" text-anchor="end" dominant-baseline="central">0</text>
<line x1="95.45" y1="269.37" x2="89.45" y2="269.37" stroke="rgba(51,51,51,1.000)" stroke-width="1.0"/>
<text x="85.45" y="269.37" font-size="13" font-family="Inter, -apple-system, BlinkMacSystemFont, 'Segoe UI', Roboto, Helvetica, Arial, 'PingFang SC', 'Microsoft YaHei', Ubuntu, Cantarell, 'Noto Sans', sans-serif" fill="rgba(51,51,51,1.000)" text-anchor="end" dominant-baseline="central">50</text>
<line x1="95.45" y1="227.74" x2="89.45" y2="227.74" stroke="rgba(51,51,51,1.000)" stroke-width="1.0"/>
<text x="85.45" y="227.74" font-size="13" font-family="Inter, -apple-system, BlinkMacSystemFont, 'Segoe UI', Roboto, Helvetica, Arial, 'PingFang SC', 'Microsoft YaHei', Ubuntu, Cantarell, 'Noto Sans', sans-serif" fill="rgba(51,51,51,1.000)" text-anchor="end" dominant-baseline="central">100</text>
<line x1="95.45" y1="186.12" x2="89.45" y2="186.12" stroke="rgba(51,51,51,1.000)" stroke-width="1.0"/>
<text x="85.45" y="186.12" font-size="13" font-family="Inter, -apple-system, BlinkMacSystemFont, 'Segoe UI', Roboto, Helvetica, Arial, 'PingFang SC', 'Microsoft YaHei', Ubuntu, Cantarell, 'Noto Sans', sans-serif" fill="rgba(51,51,51,1.000)" text-anchor="end" dominant-baseline="central">150</text>
<line x1="95.45" y1="144.49" x2="89.45" y2="144.49" stroke="rgba(51,51,51,1.000)" stroke-width="1.0"/>
<text x="85.45" y="144.49" font-size="13" font-family="Inter, -apple-system, BlinkMacSystemFont, 'Segoe UI', Roboto, Helvetica, Arial, 'PingFang SC', 'Microsoft YaHei', Ubuntu, Cantarell, 'Noto Sans', sans-serif" fill="rgba(51,51,51,1.000)" text-anchor="end" dominant-baseline="central">200</text>
<line x1="95.45" y1="102.86" x2="89.45" y2="102.86" stroke="rgba(51,51,51,1.000)" stroke-width="1.0"/>
<text x="85.45" y="102.86" font-size="13" font-family="Inter, -apple-system, BlinkMacSystemFont, 'Segoe UI', Roboto, Helvetica, Arial, 'PingFang SC', 'Microsoft YaHei', Ubuntu, Cantarell, 'Noto Sans', sans-serif" fill="rgba(51,51,51,1.000)" text-anchor="end" dominant-baseline="central">250</text>
<line x1="95.45" y1="61.23" x2="89.45" y2="61.23" stroke="rgba(51,51,51,1.000)" stroke-width="1.0"/>
<text x="85.45" y="61.23" font-size="13" font-family="Inter, -apple-system, BlinkMacSystemFont, 'Segoe UI', Roboto, Helvetica, Arial, 'PingFang SC', 'Microsoft YaHei', Ubuntu, Cantarell, 'Noto Sans', sans-serif" fill="rgba(51,51,51,1.000)" text-anchor="end" dominant-baseline="central">300</text>
<text x="47.50" y="175.50" text-anchor="middle" font-size="15" font-family="Inter, -apple-system, BlinkMacSystemFont, 'Segoe UI', Roboto, Helvetica, Arial, 'PingFang SC', 'Microsoft YaHei', Ubuntu, Cantarell, 'Noto Sans', sans-serif" fill="rgba(51,51,51,1.000)" font-weight="bold" transform="rotate(-90, 47.50, 175.50)" dominant-baseline="middle">Net Generation</text>
<defs><clipPath id="plot-clip-area"><rect x="95.450" y="40.000" width="307.150" height="271.000" /></clipPath></defs>
<line x1="95.450" y1="311.000" x2="402.600" y2="311.000" stroke="rgba(136,136,136,1.000)" stroke-width="1.000" stroke-opacity="0.500" stroke-dasharray="4.0,4.0" />
<polygon points="109.411,311.000 134.796,311.000 160.180,311.000 185.564,311.000 210.949,311.000 236.333,311.000 261.717,311.000 287.101,311.000 312.486,311.000 337.870,311.000 363.254,311.000 388.639,311.000 388.639,311.000 363.254,311.000 337.870,311.000 312.486,311.000 287.101,311.000 261.717,311.000 236.333,311.000 210.949,311.000 185.564,311.000 160.180,311.000 134.796,311.000 109.411,311.000" fill="rgba(31,119,180,1.000)" stroke="none" stroke-width="0.000" fill-opacity="0.300" stroke-opacity="0.000" clip-path="url(#plot-clip-area)" />
<path d="M 109.411 311.000 L 134.796 311.000 L 160.180 311.000 L 185.564 311.000 L 210.949 311.000 L 236.333 311.000 L 261.717 311.000 L 287.101 311.000 L 312.486 311.000 L 337.870 311.000 L 363.254 311.000 L 388.639 311.000" stroke="rgba(31,119,180,1.000)" stroke-width="1.000" stroke-opacity="1.000" fill="none" stroke-linejoin="round" stroke-linecap="round" clip-path="url(#plot-clip-area)" />
<polygon points="109.411,310.167 134.796,310.167 160.180,310.485 185.564,310.467 210.949,310.465 236.333,310.463 261.717,310.512 287.101,310.568 312.486,310.674 337.870,310.722 363.254,311.000 388.639,311.000 388.639,311.000 363.254,311.000 337.870,310.722 312.486,310.674 287.101,310.568 261.717,310.512 236.333,310.463 210.949,310.465 185.564,310.467 160.180,310.485 134.796,310.167 109.411,310.167" fill="rgba(255,127,14,1.000)" stroke="none" stroke-width="0.000" fill-opacity="0.300" stroke-opacity="0.000" clip-path="url(#plot-clip-area)" />
<path d="M 109.411 310.167 L 134.796 310.167 L 160.180 310.485 L 185.564 310.467 L 210.949 310.465 L 236.333 310.463 L 261.717 310.512 L 287.101 310.568 L 312.486 310.674 L 337.870 310.722 L 363.254 311.000 L 388.639 311.000" stroke="rgba(255,127,14,1.000)" stroke-width="1.000" stroke-opacity="1.000" fill="none" stroke-linejoin="round" stroke-linecap="round" clip-path="url(#plot-clip-area)" />
<text x="417.600" y="49.600" font-size="13.2" font-family="Inter, -apple-system, BlinkMacSystemFont, 'Segoe UI', Roboto, Helvetica, Arial, 'PingFang SC', 'Microsoft YaHei', Ubuntu, Cantarell, 'Noto Sans', sans-serif" fill="rgba(51,51,51,1.000)" fill-opacity="1.000" text-anchor="start" font-weight="bold">source</text>
<circle cx="426.600" cy="69.200" r="5.000" fill="rgba(31,119,180,1.000)" stroke="none" stroke-width="0.000" fill-opacity="1.000" stroke-opacity="1.000" />
<text x="443.600" y="73.700" font-size="12.0" font-family="Inter, -apple-system, BlinkMacSystemFont, 'Segoe UI', Roboto, Helvetica, Arial, 'PingFang SC', 'Microsoft YaHei', Ubuntu, Cantarell, 'Noto Sans', sans-serif" fill="rgba(51,51,51,1.000)" fill-opacity="1.000" text-anchor="start" font-weight="normal">Coal</text>
<circle cx="426.600" cy="90.200" r="5.000" fill="rgba(255,127,14,1.000)" stroke="none" stroke-width="0.000" fill-opacity="1.000" stroke-opacity="1.000" />
<text x="443.600" y="94.700" font-size="12.0" font-family="Inter, -apple-system, BlinkMacSystemFont, 'Segoe UI', Roboto, Helvetica, Arial, 'PingFang SC', 'Microsoft YaHei', Ubuntu, Cantarell, 'Noto Sans', sans-serif" fill="rgba(51,51,51,1.000)" fill-opacity="1.000" text-anchor="start" font-weight="normal">Nuclear</text>
</svg>