<svg width="500" height="400" viewBox="0 0 500 400" xmlns="http://www.w3.org/2000/svg"><rect width="100%" height="100%" fill="rgba(255,255,255,1.000)" /><text x="250.00" y="10.00" text-anchor="middle" dominant-baseline="middle" font-family="Inter, -apple-system, BlinkMacSystemFont, 'Segoe UI', Roboto, Helvetica, Arial, 'PingFang SC', 'Microsoft YaHei', Ubuntu, Cantarell, 'Noto Sans', sans-serif" font-size="18" fill="rgba(51,51,51,1.000)" font-weight="bold">Empirical Cumulative Distribution</text>
<line x1="88.30" y1="311.00" x2="390.00" y2="311.00" stroke="rgba(51,51,51,1.000)" stroke-width="1" stroke-linecap="square"/>
<line x1="117.25" y1="311.00" x2="117.25" y2="317.00" stroke="rgba(51,51,51,1.000)" stroke-width="1.0"/>
<text x="117.25" y="320.00" font-size="13" font-family="Inter, -apple-system, BlinkMacSystemFont, 'Segoe UI', Roboto, Helvetica, Arial, 'PingFang SC', 'Microsoft YaHei', Ubuntu, Cantarell, 'Noto Sans', sans-serif" fill="rgba(51,51,51,1.000)" text-anchor="middle" dominant-baseline="hanging">4.5</text>
<line x1="155.34" y1="311.00" x2="155.34" y2="317.00" stroke="rgba(51,51,51,1.000)" stroke-width="1.0"/>
<text x="155.34" y="320.00" font-size="13" font-family="Inter, -apple-system, BlinkMacSystemFont, 'Segoe UI', Roboto, Helvetica, Arial, 'PingFang SC', 'Microsoft YaHei', Ubuntu, Cantarell, 'Noto Sans', sans-serif" fill="rgba(51,51,51,1.000)" text-anchor="middle" dominant-baseline="hanging">5.0</text>
<line x1="193.44" y1="311.00" x2="193.44" y2="317.00" stroke="rgba(51,51,51,1.000)" stroke-width="1.0"/>
<text x="193.44" y="320.00" font-size="13" font-family="Inter, -apple-system, BlinkMacSystemFont, 'Segoe UI', Roboto, Helvetica, Arial, 'PingFang SC', 'Microsoft YaHei', Ubuntu, Cantarell, 'Noto Sans', sans-serif" fill="rgba(51,51,51,1.000)" text-anchor="middle" dominant-baseline="hanging">5.5</text>
<line x1="231.53" y1="311.00" x2="231.53" y2="317.00" stroke="rgba(51,51,51,1.000)" stroke-width="1.0"/>
<text x="231.53" y="320.00" font-size="13" font-family="Inter, -apple-system, BlinkMacSystemFont, 'Segoe UI', Roboto, Helvetica, Arial, 'PingFang SC', 'Microsoft YaHei', Ubuntu, Cantarell, 'Noto Sans', sans-serif" fill="rgba(51,51,51,1.000)" text-anchor="middle" dominant-baseline="hanging">6.0</text>
<line x1="269.62" y1="311.00" x2="269.62" y2="317.00" stroke="rgba(51,51,51,1.000)" stroke-width="1.0"/>
<text x="269.62" y="320.00" font-size="13" font-family="Inter, -apple-system, BlinkMacSystemFont, 'Segoe UI', Roboto, Helvetica, Arial, 'PingFang SC', 'Microsoft YaHei', Ubuntu, Cantarell, 'Noto Sans', sans-serif" fill="rgba(51,51,51,1.000)" text-anchor="middle" dominant-baseline="hanging">6.5</text>
<line x1="307.72" y1="311.00" x2="307.72" y2="317.00" stroke="rgba(51,51,51,1.000)" stroke-width="1.0"/>
<text x="307.72" y="320.00" font-size="13" font-family="Inter, -apple-system, BlinkMacSystemFont, 'Segoe UI', Roboto, Helvetica, Arial, 'PingFang SC', 'Microsoft YaHei', Ubuntu, Cantarell, 'Noto Sans', sans-serif" fill="rgba(51,51,51,1.000)" text-anchor="middle" dominant-baseline="hanging">7.0</text>
<line x1="345.81" y1="311.00" x2="345.81" y2="317.00" stroke="rgba(51,51,51,1.000)" stroke-width="1.0"/>
<text x="345.81" y="320.00" font-size="13" font-family="Inter, -apple-system, BlinkMacSystemFont, 'Segoe UI', Roboto, Helvetica, Arial, 'PingFang SC', 'Microsoft YaHei', Ubuntu, Cantarell, 'Noto Sans', sans-serif" fill="rgba(51,51,51,1.000)" text-anchor="middle" dominant-baseline="hanging">7.5</text>
<line x1="383.91" y1="311.00" x2="383.91" y2="317.00" stroke="rgba(51,51,51,1.000)" stroke-width="1.0"/>
<text x="383.91" y="320.00" font-size="13" font-family="Inter, -apple-system, BlinkMacSystemFont, 'Segoe UI', Roboto, Helvetica, Arial, 'PingFang SC', 'Microsoft YaHei', Ubuntu, Cantarell, 'Noto Sans', sans-serif" fill="rgba(51,51,51,1.000)" text-anchor="middle" dominant-baseline="hanging">8.0</text>
<text x="239.15" y="340.00" text-anchor="middle" font-size="15" font-family="Inter, -apple-system, BlinkMacSystemFont, 'Segoe UI', Roboto, Helvetica, Arial, 'PingFang SC', 'Microsoft YaHei', Ubuntu, Cantarell, 'Noto Sans', sans-serif" fill="rgba(51,51,51,1.000)" font-weight="bold" dominant-baseline="hanging">sepal_length</text>
<line x1="88.30" y1="40.00" x2="88.30" y2="311.00" stroke="rgba(51,51,51,1.000)" stroke-width="1" stroke-linecap="square"/>
<line x1="88.30" y1="298.68" x2="82.30" y2="298.68" stroke="rgba(51,51,51,1.000)" stroke-width="1.0"/>
<text x="78.30" y="298.68" font-size="13" font-family="Inter, -apple-system, BlinkMacSystemFont, 'Segoe UI', Roboto, Helvetica, Arial, 'PingFang SC', 'Microsoft YaHei', Ubuntu, Cantarell, 'Noto Sans', sans-serif" fill="rgba(51,51,51,1.000)" text-anchor="end" dominant-baseline="central">0</text>
<line x1="88.30" y1="249.41" x2="82.30" y2="249.41" stroke="rgba(51,51,51,1.000)" stroke-width="1.0"/>
<text x="78.30" y="249.41" font-size="13" font-family="Inter, -apple-system, BlinkMacSystemFont, 'Segoe UI', Roboto, Helvetica, Arial, 'PingFang SC', 'Microsoft YaHei', Ubuntu, Cantarell, 'Noto Sans', sans-serif" fill="rgba(51,51,51,1.000)" text-anchor="end" dominant-baseline="central">10</text>
<line x1="88.30" y1="200.14" x2="82.30" y2="200.14" stroke="rgba(51,51,51,1.000)" stroke-width="1.0"/>
<text x="78.30" y="200.14" font-size="13" font-family="Inter, -apple-system, BlinkMacSystemFont, 'Segoe UI', Roboto, Helvetica, Arial, 'PingFang SC', 'Microsoft YaHei', Ubuntu, Cantarell, 'Noto Sans', sans-serif" fill="rgba(51,51,51,1.000)" text-anchor="end" dominant-baseline="central">20</text>
<line x1="88.30" y1="150.86" x2="82.30" y2="150.86" stroke="rgba(51,51,51,1.000)" stroke-width="1.0"/>
<text x="78.30" y="150.86" font-size="13" font-family="Inter, -apple-system, BlinkMacSystemFont, 'Segoe UI', Roboto, Helvetica, Arial, 'PingFang SC', 'Microsoft YaHei', Ubuntu, Cantarell, 'Noto Sans', sans-serif" fill="rgba(51,51,51,1.000)" text-anchor="end" dominant-baseline="central">30</text>
<line x1="88.30" y1="101.59" x2="82.30" y2="101.59" stroke="rgba(51,51,51,1.000)" stroke-width="1.0"/>
<text x="78.30" y="101.59" font-size="13" font-family="Inter, -apple-system, BlinkMacSystemFont, 'Segoe UI', Roboto, Helvetica, Arial, 'PingFang SC', 'Microsoft YaHei', Ubuntu, Cantarell, 'Noto Sans', sans-serif" fill="rgba(51,51,51,1.000)" text-anchor="end" dominant-baseline="central">40</text>
<line x1="88.30" y1="52.32" x2="82.30" y2="52.32" stroke="rgba(51,51,51,1.000)" stroke-width="1.0"/>
<text x="78.30" y="52.32" font-size="13" font-family="Inter, -apple-system, BlinkMacSystemFont, 'Segoe UI', Roboto, Helvetica, Arial, 'PingFang SC', 'Microsoft YaHei', Ubuntu, Cantarell, 'Noto Sans', sans-serif" fill="rgba(51,51,51,1.000)" text-anchor="end" dominant-baseline="central">50</text>
<text x="47.50" y="175.50" text-anchor="middle" font-size="15" font-family="Inter, -apple-system, BlinkMacSystemFont, 'Segoe UI', Roboto, Helvetica, Arial, 'PingFang SC', 'Microsoft YaHei', Ubuntu, Cantarell, 'Noto Sans', sans-serif" fill="rgba(51,51,51,1.000)" font-weight="bold" transform="rotate(-90, 47.50, 175.50)" dominant-baseline="middle">ecdf</text>
<defs><clipPath id="plot-clip-area"><rect x="88.300" y="40.000" width="301.700" height="271.000" /></clipPath></defs>
<path d="M 102.014 298.682 L 102.014 298.682 L 102.014 293.755 L 109.632 293.755 L 109.632 288.827 L 109.632 288.827 L 109.632 283.900 L 109.632 283.900 L 109.632 278.973 L 117.251 278.973 L 117.251 274.045 L 124.870 274.045 L 124.870 269.118 L 124.870 269.118 L 124.870 264.191 L 124.870 264.191 L 124.870 259.264 L 124.870 259.264 L 124.870 254.336 L 132.488 254.336 L 132.488 249.409 L 132.488 249.409 L 132.488 244.482 L 140.107 244.482 L 140.107 239.555 L 140.107 239.555 L 140.107 234.627 L 140.107 234.627 L 140.107 229.700 L 140.107 229.700 L 140.107 224.773 L 140.107 224.773 L 140.107 219.845 L 147.726 219.845 L 147.726 214.918 L 147.726 214.918 L 147.726 209.991 L 147.726 209.991 L 147.726 205.064 L 147.726 205.064 L 147.726 200.136 L 155.344 200.136 L 155.344 195.209 L 155.344 195.209 L 155.344 190.282 L 155.344 190.282 L 155.344 185.355 L 155.344 185.355 L 155.344 180.427 L 155.344 180.427 L 155.344 175.500 L 155.344 175.500 L 155.344 170.573 L 155.344 170.573 L 155.344 165.645 L 155.344 165.645 L 155.344 160.718 L 162.963 160.718 L 162.963 155.791 L 162.963 155.791 L 162.963 150.864 L 162.963 150.864 L 162.963 145.936 L 162.963 145.936 L 162.963 141.009 L 162.963 141.009 L 162.963 136.082 L 162.963 136.082 L 162.963 131.155 L 162.963 131.155 L 162.963 126.227 L 162.963 126.227 L 162.963 121.300 L 170.582 121.300 L 170.582 116.373 L 170.582 116.373 L 170.582 111.445 L 170.582 111.445 L 170.582 106.518 L 178.201 106.518 L 178.201 101.591 L 185.819 101.591 L 185.819 96.664 L 185.819 96.664 L 185.819 91.736 L 185.819 91.736 L 185.819 86.809 L 185.819 86.809 L 185.819 81.882 L 185.819 81.882 L 185.819 76.955 L 193.438 76.955 L 193.438 72.027 L 193.438 72.027 L 193.438 67.100 L 208.675 67.100 L 208.675 62.173 L 208.675 62.173 L 208.675 57.245 L 216.294 57.245 L 216.294 52.318 L 376.286 52.318 L 376.286 52.318" stroke="rgba(31,119,180,1.000)" stroke-width="1.000" stroke-opacity="1.000" fill="none" stroke-linejoin="round" stroke-linecap="round" clip-path="url(#plot-clip-area)" />
<path d="M 102.014 298.682 L 147.726 298.682 L 147.726 293.755 L 155.344 293.755 L 155.344 288.827 L 155.344 288.827 L 155.344 283.900 L 162.963 283.900 L 162.963 278.973 L 170.582 278.973 L 170.582 274.045 L 185.819 274.045 L 185.819 269.118 L 193.438 269.118 L 193.438 264.191 L 193.438 264.191 L 193.438 259.264 L 193.438 259.264 L 193.438 254.336 L 193.438 254.336 L 193.438 249.409 L 193.438 249.409 L 193.438 244.482 L 201.057 244.482 L 201.057 239.555 L 201.057 239.555 L 201.057 234.627 L 201.057 234.627 L 201.057 229.700 L 201.057 229.700 L 201.057 224.773 L 201.057 224.773 L 201.057 219.845 L 208.675 219.845 L 208.675 214.918 L 208.675 214.918 L 208.675 209.991 L 208.675 209.991 L 208.675 205.064 L 208.675 205.064 L 208.675 200.136 L 208.675 200.136 L 208.675 195.209 L 216.294 195.209 L 216.294 190.282 L 216.294 190.282 L 216.294 185.355 L 216.294 185.355 L 216.294 180.427 L 223.913 180.427 L 223.913 175.500 L 223.913 175.500 L 223.913 170.573 L 231.531 170.573 L 231.531 165.645 L 231.531 165.645 L 231.531 160.718 L 231.531 160.718 L 231.531 155.791 L 231.531 155.791 L 231.531 150.864 L 239.150 150.864 L 239.150 145.936 L 239.150 145.936 L 239.150 141.009 L 239.150 141.009 L 239.150 136.082 L 239.150 136.082 L 239.150 131.155 L 246.769 131.155 L 246.769 126.227 L 246.769 126.227 L 246.769 121.300 L 254.387 121.300 L 254.387 116.373 L 254.387 116.373 L 254.387 111.445 L 254.387 111.445 L 254.387 106.518 L 262.006 106.518 L 262.006 101.591 L 262.006 101.591 L 262.006 96.664 L 269.625 96.664 L 269.625 91.736 L 277.243 91.736 L 277.243 86.809 L 277.243 86.809 L 277.243 81.882 L 284.862 81.882 L 284.862 76.955 L 284.862 76.955 L 284.862 72.027 L 284.862 72.027 L 284.862 67.100 L 292.481 67.100 L 292.481 62.173 L 300.099 62.173 L 300.099 57.245 L 307.718 57.245 L 307.718 52.318 L 376.286 52.318 L 376.286 52.318" stroke="rgba(255,127,14,1.000)" stroke-width="1.000" stroke-opacity="1.000" fill="none" stroke-linejoin="round" stroke-linecap="round" clip-path="url(#plot-clip-area)" />
<path d="M 102.014 298.682 L 147.726 298.682 L 147.726 293.755 L 201.057 293.755 L 201.057 288.827 L 208.675 288.827 L 208.675 283.900 L 216.294 283.900 L 216.294 278.973 L 216.294 278.973 L 216.294 274.045 L 216.294 274.045 L 216.294 269.118 L 223.913 269.118 L 223.913 264.191 L 231.531 264.191 L 231.531 259.264 L 231.531 259.264 L 231.531 254.336 L 239.150 254.336 L 239.150 249.409 L 239.150 249.409 L 239.150 244.482 L 246.769 244.482 L 246.769 239.555 L 246.769 239.555 L 246.769 234.627 L 254.387 234.627 L 254.387 229.700 L 254.387 229.700 L 254.387 224.773 L 254.387 224.773 L 254.387 219.845 L 254.387 219.845 L 254.387 214.918 L 254.387 214.918 L 254.387 209.991 L 254.387 209.991 L 254.387 205.064 L 262.006 205.064 L 262.006 200.136 L 262.006 200.136 L 262.006 195.209 L 262.006 195.209 L 262.006 190.282 L 262.006 190.282 L 262.006 185.355 L 262.006 185.355 L 262.006 180.427 L 269.625 180.427 L 269.625 175.500 L 269.625 175.500 L 269.625 170.573 L 269.625 170.573 L 269.625 165.645 L 269.625 165.645 L 269.625 160.718 L 284.862 160.718 L 284.862 155.791 L 284.862 155.791 L 284.862 150.864 L 284.862 150.864 L 284.862 145.936 L 284.862 145.936 L 284.862 141.009 L 284.862 141.009 L 284.862 136.082 L 292.481 136.082 L 292.481 131.155 L 292.481 131.155 L 292.481 126.227 L 300.099 126.227 L 300.099 121.300 L 300.099 121.300 L 300.099 116.373 L 300.099 116.373 L 300.099 111.445 L 315.337 111.445 L 315.337 106.518 L 322.956 106.518 L 322.956 101.591 L 322.956 101.591 L 322.956 96.664 L 322.956 96.664 L 322.956 91.736 L 330.574 91.736 L 330.574 86.809 L 338.193 86.809 L 338.193 81.882 L 353.430 81.882 L 353.430 76.955 L 361.049 76.955 L 361.049 72.027 L 361.049 72.027 L 361.049 67.100 L 361.049 67.100 L 361.049 62.173 L 361.049 62.173 L 361.049 57.245 L 376.286 57.245 L 376.286 52.318 L 376.286 52.318 L 376.286 52.318" stroke="rgba(44,160,44,1.000)" stroke-width="1.000" stroke-opacity="1.000" fill="none" stroke-linejoin="round" stroke-linecap="round" clip-path="url(#plot-clip-area)" />
<text x="405.000" y="49.600" font-size="13.2" font-family="Inter, -apple-system, BlinkMacSystemFont, 'Segoe UI', Roboto, Helvetica, Arial, 'PingFang SC', 'Microsoft YaHei', Ubuntu, Cantarell, 'Noto Sans', sans-serif" fill="rgba(51,51,51,1.000)" fill-opacity="1.000" text-anchor="start" font-weight="bold">species</text>
<circle cx="414.000" cy="69.200" r="5.000" fill="rgba(31,119,180,1.000)" stroke="none" stroke-width="0.000" fill-opacity="1.000" stroke-opacity="1.000" />
<text x="431.000" y="73.700" font-size="12.0" font-family="Inter, -apple-system, BlinkMacSystemFont, 'Segoe UI', Roboto, Helvetica, Arial, 'PingFang SC', 'Microsoft YaHei', Ubuntu, Cantarell, 'Noto Sans', sans-serif" fill="rgba(51,51,51,1.000)" fill-opacity="1.000" text-anchor="start" font-weight="normal">setosa</text>
<circle cx="414.000" cy="90.200" r="5.000" fill="rgba(255,127,14,1.000)" stroke="none" stroke-width="0.000" fill-opacity="1.000" stroke-opacity="1.000" />
<text x="431.000" y="94.700" font-size="12.0" font-family="Inter, -apple-system, BlinkMacSystemFont, 'Segoe UI', Roboto, Helvetica, Arial, 'PingFang SC', 'Microsoft YaHei', Ubuntu, Cantarell, 'Noto Sans', sans-serif" fill="rgba(51,51,51,1.000)" fill-opacity="1.000" text-anchor="start" font-weight="normal">versicolor</text>
<circle cx="414.000" cy="111.200" r="5.000" fill="rgba(44,160,44,1.000)" stroke="none" stroke-width="0.000" fill-opacity="1.000" stroke-opacity="1.000" />
<text x="431.000" y="115.700" font-size="12.0" font-family="Inter, -apple-system, BlinkMacSystemFont, 'Segoe UI', Roboto, Helvetica, Arial, 'PingFang SC', 'Microsoft YaHei', Ubuntu, Cantarell, 'Noto Sans', sans-serif" fill="rgba(51,51,51,1.000)" fill-opacity="1.000" text-anchor="start" font-weight="normal">virginica</text>
</svg>