<svg width="500" height="400" viewBox="0 0 500 400" xmlns="http://www.w3.org/2000/svg"><rect x="0.000" y="0.000" width="500.000" height="400.000" fill="rgba(255,255,255,1.000)" stroke="none" stroke-width="0.000" fill-opacity="1.000" stroke-opacity="1.000" />
<defs><clipPath id="plot-clip-area"><rect x="92.200" y="40.000" width="297.800" height="271.000" /></clipPath></defs>
<g clip-path="url(#plot-clip-area)">
<path d="M 92.200 311.000 L 390.000 311.000" fill="none" stroke="rgba(136,136,136,1.000)" stroke-width="1.000" stroke-opacity="0.500" stroke-linejoin="round" stroke-linecap="round" stroke-dasharray="4,4" />
<path d="M 105.736 311.000 L 107.097 311.000 L 108.457 311.000 L 109.818 311.000 L 111.178 311.000 L 112.539 311.000 L 113.899 311.000 L 115.259 311.000 L 116.620 311.000 L 117.980 311.000 L 119.341 311.000 L 120.701 310.999 L 122.062 310.999 L 123.422 310.997 L 124.783 310.995 L 126.143 310.989 L 127.503 310.980 L 128.864 310.962 L 130.224 310.931 L 131.585 310.879 L 132.945 310.791 L 134.306 310.649 L 135.666 310.426 L 137.026 310.085 L 138.387 309.578 L 139.747 308.843 L 141.108 307.810 L 142.468 306.395 L 143.829 304.511 L 145.189 302.071 L 146.550 298.997 L 147.910 295.229 L 149.270 290.733 L 150.631 285.510 L 151.991 279.599 L 153.352 273.076 L 154.712 266.051 L 156.073 258.652 L 157.433 251.017 L 158.793 243.276 L 160.154 235.538 L 161.514 227.881 L 162.875 220.341 L 164.235 212.916 L 165.596 205.567 L 166.956 198.222 L 168.317 190.788 L 169.677 183.159 L 171.037 175.224 L 172.398 166.879 L 173.758 158.038 L 175.119 148.643 L 176.479 138.678 L 177.840 128.184 L 179.200 117.271 L 180.560 106.131 L 181.921 95.043 L 183.281 84.368 L 184.642 74.538 L 186.002 66.026 L 187.363 59.309 L 188.723 54.821 L 190.084 52.905 L 191.444 53.760 L 192.804 57.417 L 194.165 63.718 L 195.525 72.331 L 196.886 82.783 L 198.246 94.513 L 199.607 106.942 L 200.967 119.532 L 202.328 131.848 L 203.688 143.588 L 205.048 154.596 L 206.409 164.845 L 207.769 174.406 L 209.130 183.401 L 210.490 191.962 L 211.851 200.194 L 213.211 208.154 L 214.571 215.852 L 215.932 223.259 L 217.292 230.330 L 218.653 237.023 L 220.013 243.322 L 221.374 249.239 L 222.734 254.815 L 224.095 260.111 L 225.455 265.191 L 226.815 270.104 L 228.176 274.877 L 229.536 279.504 L 230.897 283.954 L 232.257 288.171 L 233.618 292.092 L 234.978 295.656 L 236.338 298.814 L 237.699 301.539 L 239.059 303.824 L 240.420 305.686 L 241.780 307.160 L 243.141 308.294 L 244.501 309.140 L 245.862 309.754 L 247.222 310.187 L 248.582 310.483 L 249.943 310.680 L 251.303 310.807 L 252.664 310.886 L 254.024 310.935 L 255.385 310.964 L 256.745 310.980 L 258.105 310.990 L 259.466 310.995 L 260.826 310.997 L 262.187 310.999 L 263.547 310.999 L 264.908 311.000 L 266.268 311.000 L 267.629 311.000 L 268.989 311.000 L 270.349 311.000 L 271.710 311.000 L 273.070 311.000 L 274.431 311.000 L 275.791 311.000 L 277.152 311.000 L 278.512 311.000 L 279.873 311.000 L 281.233 311.000 L 282.593 311.000 L 283.954 311.000 L 285.314 311.000 L 286.675 311.000 L 288.035 311.000 L 289.396 311.000 L 290.756 311.000 L 292.116 311.000 L 293.477 311.000 L 294.837 311.000 L 296.198 311.000 L 297.558 311.000 L 298.919 311.000 L 300.279 311.000 L 301.640 311.000 L 303.000 311.000 L 304.360 311.000 L 305.721 311.000 L 307.081 311.000 L 308.442 311.000 L 309.802 311.000 L 311.163 311.000 L 312.523 311.000 L 313.883 311.000 L 315.244 311.000 L 316.604 311.000 L 317.965 311.000 L 319.325 311.000 L 320.686 311.000 L 322.046 311.000 L 323.407 311.000 L 324.767 311.000 L 326.127 311.000 L 327.488 311.000 L 328.848 311.000 L 330.209 311.000 L 331.569 311.000 L 332.930 311.000 L 334.290 311.000 L 335.651 311.000 L 337.011 311.000 L 338.371 311.000 L 339.732 311.000 L 341.092 311.000 L 342.453 311.000 L 343.813 311.000 L 345.174 311.000 L 346.534 311.000 L 347.894 311.000 L 349.255 311.000 L 350.615 311.000 L 351.976 311.000 L 353.336 311.000 L 354.697 311.000 L 356.057 311.000 L 357.418 311.000 L 358.778 311.000 L 360.138 311.000 L 361.499 311.000 L 362.859 311.000 L 364.220 311.000 L 365.580 311.000 L 366.941 311.000 L 368.301 311.000 L 369.661 311.000 L 371.022 311.000 L 372.382 311.000 L 373.743 311.000 L 375.103 311.000 L 376.464 311.000 L 376.464 311.000 L 375.103 311.000 L 373.743 311.000 L 372.382 311.000 L 371.022 311.000 L 369.661 311.000 L 368.301 311.000 L 366.941 311.000 L 365.580 311.000 L 364.220 311.000 L 362.859 311.000 L 361.499 311.000 L 360.138 311.000 L 358.778 311.000 L 357.418 311.000 L 356.057 311.000 L 354.697 311.000 L 353.336 311.000 L 351.976 311.000 L 350.615 311.000 L 349.255 311.000 L 347.894 311.000 L 346.534 311.000 L 345.174 311.000 L 343.813 311.000 L 342.453 311.000 L 341.092 311.000 L 339.732 311.000 L 338.371 311.000 L 337.011 311.000 L 335.651 311.000 L 334.290 311.000 L 332.930 311.000 L 331.569 311.000 L 330.209 311.000 L 328.848 311.000 L 327.488 311.000 L 326.127 311.000 L 324.767 311.000 L 323.407 311.000 L 322.046 311.000 L 320.686 311.000 L 319.325 311.000 L 317.965 311.000 L 316.604 311.000 L 315.244 311.000 L 313.883 311.000 L 312.523 311.000 L 311.163 311.000 L 309.802 311.000 L 308.442 311.000 L 307.081 311.000 L 305.721 311.000 L 304.360 311.000 L 303.000 311.000 L 301.640 311.000 L 300.279 311.000 L 298.919 311.000 L 297.558 311.000 L 296.198 311.000 L 294.837 311.000 L 293.477 311.000 L 292.116 311.000 L 290.756 311.000 L 289.396 311.000 L 288.035 311.000 L 286.675 311.000 L 285.314 311.000 L 283.954 311.000 L 282.593 311.000 L 281.233 311.000 L 279.873 311.000 L 278.512 311.000 L 277.152 311.000 L 275.791 311.000 L 274.431 311.000 L 273.070 311.000 L 271.710 311.000 L 270.349 311.000 L 268.989 311.000 L 267.629 311.000 L 266.268 311.000 L 264.908 311.000 L 263.547 311.000 L 262.187 311.000 L 260.826 311.000 L 259.466 311.000 L 258.105 311.000 L 256.745 311.000 L 255.385 311.000 L 254.024 311.000 L 252.664 311.000 L 251.303 311.000 L 249.943 311.000 L 248.582 311.000 L 247.222 311.000 L 245.862 311.000 L 244.501 311.000 L 243.141 311.000 L 241.780 311.000 L 240.420 311.000 L 239.059 311.000 L 237.699 311.000 L 236.338 311.000 L 234.978 311.000 L 233.618 311.000 L 232.257 311.000 L 230.897 311.000 L 229.536 311.000 L 228.176 311.000 L 226.815 311.000 L 225.455 311.000 L 224.095 311.000 L 222.734 311.000 L 221.374 311.000 L 220.013 311.000 L 218.653 311.000 L 217.292 311.000 L 215.932 311.000 L 214.571 311.000 L 213.211 311.000 L 211.851 311.000 L 210.490 311.000 L 209.130 311.000 L 207.769 311.000 L 206.409 311.000 L 205.048 311.000 L 203.688 311.000 L 202.328 311.000 L 200.967 311.000 L 199.607 311.000 L 198.246 311.000 L 196.886 311.000 L 195.525 311.000 L 194.165 311.000 L 192.804 311.000 L 191.444 311.000 L 190.084 311.000 L 188.723 311.000 L 187.363 311.000 L 186.002 311.000 L 184.642 311.000 L 183.281 311.000 L 181.921 311.000 L 180.560 311.000 L 179.200 311.000 L 177.840 311.000 L 176.479 311.000 L 175.119 311.000 L 173.758 311.000 L 172.398 311.000 L 171.037 311.000 L 169.677 311.000 L 168.317 311.000 L 166.956 311.000 L 165.596 311.000 L 164.235 311.000 L 162.875 311.000 L 161.514 311.000 L 160.154 311.000 L 158.793 311.000 L 157.433 311.000 L 156.073 311.000 L 154.712 311.000 L 153.352 311.000 L 151.991 311.000 L 150.631 311.000 L 149.270 311.000 L 147.910 311.000 L 146.550 311.000 L 145.189 311.000 L 143.829 311.000 L 142.468 311.000 L 141.108 311.000 L 139.747 311.000 L 138.387 311.000 L 137.026 311.000 L 135.666 311.000 L 134.306 311.000 L 132.945 311.000 L 131.585 311.000 L 130.224 311.000 L 128.864 311.000 L 127.503 311.000 L 126.143 311.000 L 124.783 311.000 L 123.422 311.000 L 122.062 311.000 L 120.701 311.000 L 119.341 311.000 L 117.980 311.000 L 116.620 311.000 L 115.259 311.000 L 113.899 311.000 L 112.539 311.000 L 111.178 311.000 L 109.818 311.000 L 108.457 311.000 L 107.097 311.000 L 105.736 311.000 Z" fill="rgba(31,119,180,1.000)" fill-opacity="0.500" stroke="none" />
<path d="M 105.736 311.000 L 107.097 311.000 L 108.457 311.000 L 109.818 311.000 L 111.178 311.000 L 112.539 311.000 L 113.899 311.000 L 115.259 311.000 L 116.620 311.000 L 117.980 311.000 L 119.341 311.000 L 120.701 310.999 L 122.062 310.999 L 123.422 310.997 L 124.783 310.995 L 126.143 310.989 L 127.503 310.980 L 128.864 310.962 L 130.224 310.931 L 131.585 310.879 L 132.945 310.791 L 134.306 310.649 L 135.666 310.426 L 137.026 310.085 L 138.387 309.578 L 139.747 308.843 L 141.108 307.810 L 142.468 306.395 L 143.829 304.511 L 145.189 302.071 L 146.550 298.997 L 147.910 295.229 L 149.270 290.733 L 150.631 285.510 L 151.991 279.599 L 153.352 273.076 L 154.712 266.051 L 156.073 258.652 L 157.433 251.017 L 158.793 243.276 L 160.154 235.538 L 161.514 227.881 L 162.875 220.341 L 164.235 212.916 L 165.596 205.567 L 166.956 198.222 L 168.317 190.788 L 169.677 183.159 L 171.037 175.224 L 172.398 166.879 L 173.758 158.038 L 175.119 148.643 L 176.479 138.678 L 177.840 128.184 L 179.200 117.271 L 180.560 106.131 L 181.921 95.043 L 183.281 84.368 L 184.642 74.538 L 186.002 66.026 L 187.363 59.309 L 188.723 54.821 L 190.084 52.905 L 191.444 53.760 L 192.804 57.417 L 194.165 63.718 L 195.525 72.331 L 196.886 82.783 L 198.246 94.513 L 199.607 106.942 L 200.967 119.532 L 202.328 131.848 L 203.688 143.588 L 205.048 154.596 L 206.409 164.845 L 207.769 174.406 L 209.130 183.401 L 210.490 191.962 L 211.851 200.194 L 213.211 208.154 L 214.571 215.852 L 215.932 223.259 L 217.292 230.330 L 218.653 237.023 L 220.013 243.322 L 221.374 249.239 L 222.734 254.815 L 224.095 260.111 L 225.455 265.191 L 226.815 270.104 L 228.176 274.877 L 229.536 279.504 L 230.897 283.954 L 232.257 288.171 L 233.618 292.092 L 234.978 295.656 L 236.338 298.814 L 237.699 301.539 L 239.059 303.824 L 240.420 305.686 L 241.780 307.160 L 243.141 308.294 L 244.501 309.140 L 245.862 309.754 L 247.222 310.187 L 248.582 310.483 L 249.943 310.680 L 251.303 310.807 L 252.664 310.886 L 254.024 310.935 L 255.385 310.964 L 256.745 310.980 L 258.105 310.990 L 259.466 310.995 L 260.826 310.997 L 262.187 310.999 L 263.547 310.999 L 264.908 311.000 L 266.268 311.000 L 267.629 311.000 L 268.989 311.000 L 270.349 311.000 L 271.710 311.000 L 273.070 311.000 L 274.431 311.000 L 275.791 311.000 L 277.152 311.000 L 278.512 311.000 L 279.873 311.000 L 281.233 311.000 L 282.593 311.000 L 283.954 311.000 L 285.314 311.000 L 286.675 311.000 L 288.035 311.000 L 289.396 311.000 L 290.756 311.000 L 292.116 311.000 L 293.477 311.000 L 294.837 311.000 L 296.198 311.000 L 297.558 311.000 L 298.919 311.000 L 300.279 311.000 L 301.640 311.000 L 303.000 311.000 L 304.360 311.000 L 305.721 311.000 L 307.081 311.000 L 308.442 311.000 L 309.802 311.000 L 311.163 311.000 L 312.523 311.000 L 313.883 311.000 L 315.244 311.000 L 316.604 311.000 L 317.965 311.000 L 319.325 311.000 L 320.686 311.000 L 322.046 311.000 L 323.407 311.000 L 324.767 311.000 L 326.127 311.000 L 327.488 311.000 L 328.848 311.000 L 330.209 311.000 L 331.569 311.000 L 332.930 311.000 L 334.290 311.000 L 335.651 311.000 L 337.011 311.000 L 338.371 311.000 L 339.732 311.000 L 341.092 311.000 L 342.453 311.000 L 343.813 311.000 L 345.174 311.000 L 346.534 311.000 L 347.894 311.000 L 349.255 311.000 L 350.615 311.000 L 351.976 311.000 L 353.336 311.000 L 354.697 311.000 L 356.057 311.000 L 357.418 311.000 L 358.778 311.000 L 360.138 311.000 L 361.499 311.000 L 362.859 311.000 L 364.220 311.000 L 365.580 311.000 L 366.941 311.000 L 368.301 311.000 L 369.661 311.000 L 371.022 311.000 L 372.382 311.000 L 373.743 311.000 L 375.103 311.000 L 376.464 311.000" fill="none" stroke="rgba(31,119,180,1.000)" stroke-width="1.000" stroke-opacity="1.000" stroke-linejoin="round" stroke-linecap="round" />
<path d="M 105.736 311.000 L 107.097 311.000 L 108.457 311.000 L 109.818 311.000 L 111.178 311.000 L 112.539 311.000 L 113.899 311.000 L 115.259 311.000 L 116.620 311.000 L 117.980 311.000 L 119.341 311.000 L 120.701 311.000 L 122.062 311.000 L 123.422 311.000 L 124.783 311.000 L 126.143 311.000 L 127.503 311.000 L 128.864 311.000 L 130.224 311.000 L 131.585 311.000 L 132.945 310.999 L 134.306 310.999 L 135.666 310.998 L 137.026 310.997 L 138.387 310.996 L 139.747 310.993 L 141.108 310.989 L 142.468 310.983 L 143.829 310.974 L 145.189 310.961 L 146.550 310.942 L 147.910 310.915 L 149.270 310.876 L 150.631 310.822 L 151.991 310.747 L 153.352 310.645 L 154.712 310.509 L 156.073 310.328 L 157.433 310.091 L 158.793 309.787 L 160.154 309.399 L 161.514 308.914 L 162.875 308.314 L 164.235 307.582 L 165.596 306.702 L 166.956 305.659 L 168.317 304.439 L 169.677 303.034 L 171.037 301.437 L 172.398 299.647 L 173.758 297.671 L 175.119 295.517 L 176.479 293.203 L 177.840 290.749 L 179.200 288.179 L 180.560 285.519 L 181.921 282.793 L 183.281 280.025 L 184.642 277.229 L 186.002 274.414 L 187.363 271.578 L 188.723 268.707 L 190.084 265.775 L 191.444 262.744 L 192.804 259.566 L 194.165 256.185 L 195.525 252.544 L 196.886 248.585 L 198.246 244.257 L 199.607 239.521 L 200.967 234.353 L 202.328 228.753 L 203.688 222.740 L 205.048 216.362 L 206.409 209.691 L 207.769 202.820 L 209.130 195.862 L 210.490 188.944 L 211.851 182.198 L 213.211 175.759 L 214.571 169.752 L 215.932 164.290 L 217.292 159.465 L 218.653 155.347 L 220.013 151.979 L 221.374 149.376 L 222.734 147.531 L 224.095 146.410 L 225.455 145.964 L 226.815 146.129 L 228.176 146.832 L 229.536 148.001 L 230.897 149.561 L 232.257 151.447 L 233.618 153.601 L 234.978 155.973 L 236.338 158.527 L 237.699 161.234 L 239.059 164.073 L 240.420 167.029 L 241.780 170.090 L 243.141 173.243 L 244.501 176.478 L 245.862 179.779 L 247.222 183.130 L 248.582 186.509 L 249.943 189.895 L 251.303 193.264 L 252.664 196.594 L 254.024 199.865 L 255.385 203.063 L 256.745 206.177 L 258.105 209.207 L 259.466 212.157 L 260.826 215.040 L 262.187 217.875 L 263.547 220.689 L 264.908 223.508 L 266.268 226.364 L 267.629 229.286 L 268.989 232.300 L 270.349 235.428 L 271.710 238.686 L 273.070 242.080 L 274.431 245.610 L 275.791 249.266 L 277.152 253.030 L 278.512 256.879 L 279.873 260.782 L 281.233 264.705 L 282.593 268.610 L 283.954 272.458 L 285.314 276.214 L 286.675 279.841 L 288.035 283.308 L 289.396 286.587 L 290.756 289.655 L 292.116 292.496 L 293.477 295.098 L 294.837 297.457 L 296.198 299.571 L 297.558 301.445 L 298.919 303.088 L 300.279 304.513 L 301.640 305.734 L 303.000 306.768 L 304.360 307.635 L 305.721 308.352 L 307.081 308.939 L 308.442 309.413 L 309.802 309.791 L 311.163 310.090 L 312.523 310.323 L 313.883 310.501 L 315.244 310.637 L 316.604 310.739 L 317.965 310.815 L 319.325 310.870 L 320.686 310.910 L 322.046 310.938 L 323.407 310.958 L 324.767 310.972 L 326.127 310.982 L 327.488 310.988 L 328.848 310.992 L 330.209 310.995 L 331.569 310.997 L 332.930 310.998 L 334.290 310.999 L 335.651 310.999 L 337.011 311.000 L 338.371 311.000 L 339.732 311.000 L 341.092 311.000 L 342.453 311.000 L 343.813 311.000 L 345.174 311.000 L 346.534 311.000 L 347.894 311.000 L 349.255 311.000 L 350.615 311.000 L 351.976 311.000 L 353.336 311.000 L 354.697 311.000 L 356.057 311.000 L 357.418 311.000 L 358.778 311.000 L 360.138 311.000 L 361.499 311.000 L 362.859 311.000 L 364.220 311.000 L 365.580 311.000 L 366.941 311.000 L 368.301 311.000 L 369.661 311.000 L 371.022 311.000 L 372.382 311.000 L 373.743 311.000 L 375.103 311.000 L 376.464 311.000 L 376.464 311.000 L 375.103 311.000 L 373.743 311.000 L 372.382 311.000 L 371.022 311.000 L 369.661 311.000 L 368.301 311.000 L 366.941 311.000 L 365.580 311.000 L 364.220 311.000 L 362.859 311.000 L 361.499 311.000 L 360.138 311.000 L 358.778 311.000 L 357.418 311.000 L 356.057 311.000 L 354.697 311.000 L 353.336 311.000 L 351.976 311.000 L 350.615 311.000 L 349.255 311.000 L 347.894 311.000 L 346.534 311.000 L 345.174 311.000 L 343.813 311.000 L 342.453 311.000 L 341.092 311.000 L 339.732 311.000 L 338.371 311.000 L 337.011 311.000 L 335.651 311.000 L 334.290 311.000 L 332.930 311.000 L 331.569 311.000 L 330.209 311.000 L 328.848 311.000 L 327.488 311.000 L 326.127 311.000 L 324.767 311.000 L 323.407 311.000 L 322.046 311.000 L 320.686 311.000 L 319.325 311.000 L 317.965 311.000 L 316.604 311.000 L 315.244 311.000 L 313.883 311.000 L 312.523 311.000 L 311.163 311.000 L 309.802 311.000 L 308.442 311.000 L 307.081 311.000 L 305.721 311.000 L 304.360 311.000 L 303.000 311.000 L 301.640 311.000 L 300.279 311.000 L 298.919 311.000 L 297.558 311.000 L 296.198 311.000 L 294.837 311.000 L 293.477 311.000 L 292.116 311.000 L 290.756 311.000 L 289.396 311.000 L 288.035 311.000 L 286.675 311.000 L 285.314 311.000 L 283.954 311.000 L 282.593 311.000 L 281.233 311.000 L 279.873 311.000 L 278.512 311.000 L 277.152 311.000 L 275.791 311.000 L 274.431 311.000 L 273.070 311.000 L 271.710 311.000 L 270.349 311.000 L 268.989 311.000 L 267.629 311.000 L 266.268 311.000 L 264.908 311.000 L 263.547 311.000 L 262.187 311.000 L 260.826 311.000 L 259.466 311.000 L 258.105 311.000 L 256.745 311.000 L 255.385 311.000 L 254.024 311.000 L 252.664 311.000 L 251.303 311.000 L 249.943 311.000 L 248.582 311.000 L 247.222 311.000 L 245.862 311.000 L 244.501 311.000 L 243.141 311.000 L 241.780 311.000 L 240.420 311.000 L 239.059 311.000 L 237.699 311.000 L 236.338 311.000 L 234.978 311.000 L 233.618 311.000 L 232.257 311.000 L 230.897 311.000 L 229.536 311.000 L 228.176 311.000 L 226.815 311.000 L 225.455 311.000 L 224.095 311.000 L 222.734 311.000 L 221.374 311.000 L 220.013 311.000 L 218.653 311.000 L 217.292 311.000 L 215.932 311.000 L 214.571 311.000 L 213.211 311.000 L 211.851 311.000 L 210.490 311.000 L 209.130 311.000 L 207.769 311.000 L 206.409 311.000 L 205.048 311.000 L 203.688 311.000 L 202.328 311.000 L 200.967 311.000 L 199.607 311.000 L 198.246 311.000 L 196.886 311.000 L 195.525 311.000 L 194.165 311.000 L 192.804 311.000 L 191.444 311.000 L 190.084 311.000 L 188.723 311.000 L 187.363 311.000 L 186.002 311.000 L 184.642 311.000 L 183.281 311.000 L 181.921 311.000 L 180.560 311.000 L 179.200 311.000 L 177.840 311.000 L 176.479 311.000 L 175.119 311.000 L 173.758 311.000 L 172.398 311.000 L 171.037 311.000 L 169.677 311.000 L 168.317 311.000 L 166.956 311.000 L 165.596 311.000 L 164.235 311.000 L 162.875 311.000 L 161.514 311.000 L 160.154 311.000 L 158.793 311.000 L 157.433 311.000 L 156.073 311.000 L 154.712 311.000 L 153.352 311.000 L 151.991 311.000 L 150.631 311.000 L 149.270 311.000 L 147.910 311.000 L 146.550 311.000 L 145.189 311.000 L 143.829 311.000 L 142.468 311.000 L 141.108 311.000 L 139.747 311.000 L 138.387 311.000 L 137.026 311.000 L 135.666 311.000 L 134.306 311.000 L 132.945 311.000 L 131.585 311.000 L 130.224 311.000 L 128.864 311.000 L 127.503 311.000 L 126.143 311.000 L 124.783 311.000 L 123.422 311.000 L 122.062 311.000 L 120.701 311.000 L 119.341 311.000 L 117.980 311.000 L 116.620 311.000 L 115.259 311.000 L 113.899 311.000 L 112.539 311.000 L 111.178 311.000 L 109.818 311.000 L 108.457 311.000 L 107.097 311.000 L 105.736 311.000 Z" fill="rgba(255,127,14,1.000)" fill-opacity="0.500" stroke="none" />
<path d="M 105.736 311.000 L 107.097 311.000 L 108.457 311.000 L 109.818 311.000 L 111.178 311.000 L 112.539 311.000 L 113.899 311.000 L 115.259 311.000 L 116.620 311.000 L 117.980 311.000 L 119.341 311.000 L 120.701 311.000 L 122.062 311.000 L 123.422 311.000 L 124.783 311.000 L 126.143 311.000 L 127.503 311.000 L 128.864 311.000 L 130.224 311.000 L 131.585 311.000 L 132.945 310.999 L 134.306 310.999 L 135.666 310.998 L 137.026 310.997 L 138.387 310.996 L 139.747 310.993 L 141.108 310.989 L 142.468 310.983 L 143.829 310.974 L 145.189 310.961 L 146.550 310.942 L 147.910 310.915 L 149.270 310.876 L 150.631 310.822 L 151.991 310.747 L 153.352 310.645 L 154.712 310.509 L 156.073 310.328 L 157.433 310.091 L 158.793 309.787 L 160.154 309.399 L 161.514 308.914 L 162.875 308.314 L 164.235 307.582 L 165.596 306.702 L 166.956 305.659 L 168.317 304.439 L 169.677 303.034 L 171.037 301.437 L 172.398 299.647 L 173.758 297.671 L 175.119 295.517 L 176.479 293.203 L 177.840 290.749 L 179.200 288.179 L 180.560 285.519 L 181.921 282.793 L 183.281 280.025 L 184.642 277.229 L 186.002 274.414 L 187.363 271.578 L 188.723 268.707 L 190.084 265.775 L 191.444 262.744 L 192.804 259.566 L 194.165 256.185 L 195.525 252.544 L 196.886 248.585 L 198.246 244.257 L 199.607 239.521 L 200.967 234.353 L 202.328 228.753 L 203.688 222.740 L 205.048 216.362 L 206.409 209.691 L 207.769 202.820 L 209.130 195.862 L 210.490 188.944 L 211.851 182.198 L 213.211 175.759 L 214.571 169.752 L 215.932 164.290 L 217.292 159.465 L 218.653 155.347 L 220.013 151.979 L 221.374 149.376 L 222.734 147.531 L 224.095 146.410 L 225.455 145.964 L 226.815 146.129 L 228.176 146.832 L 229.536 148.001 L 230.897 149.561 L 232.257 151.447 L 233.618 153.601 L 234.978 155.973 L 236.338 158.527 L 237.699 161.234 L 239.059 164.073 L 240.420 167.029 L 241.780 170.090 L 243.141 173.243 L 244.501 176.478 L 245.862 179.779 L 247.222 183.130 L 248.582 186.509 L 249.943 189.895 L 251.303 193.264 L 252.664 196.594 L 254.024 199.865 L 255.385 203.063 L 256.745 206.177 L 258.105 209.207 L 259.466 212.157 L 260.826 215.040 L 262.187 217.875 L 263.547 220.689 L 264.908 223.508 L 266.268 226.364 L 267.629 229.286 L 268.989 232.300 L 270.349 235.428 L 271.710 238.686 L 273.070 242.080 L 274.431 245.610 L 275.791 249.266 L 277.152 253.030 L 278.512 256.879 L 279.873 260.782 L 281.233 264.705 L 282.593 268.610 L 283.954 272.458 L 285.314 276.214 L 286.675 279.841 L 288.035 283.308 L 289.396 286.587 L 290.756 289.655 L 292.116 292.496 L 293.477 295.098 L 294.837 297.457 L 296.198 299.571 L 297.558 301.445 L 298.919 303.088 L 300.279 304.513 L 301.640 305.734 L 303.000 306.768 L 304.360 307.635 L 305.721 308.352 L 307.081 308.939 L 308.442 309.413 L 309.802 309.791 L 311.163 310.090 L 312.523 310.323 L 313.883 310.501 L 315.244 310.637 L 316.604 310.739 L 317.965 310.815 L 319.325 310.870 L 320.686 310.910 L 322.046 310.938 L 323.407 310.958 L 324.767 310.972 L 326.127 310.982 L 327.488 310.988 L 328.848 310.992 L 330.209 310.995 L 331.569 310.997 L 332.930 310.998 L 334.290 310.999 L 335.651 310.999 L 337.011 311.000 L 338.371 311.000 L 339.732 311.000 L 341.092 311.000 L 342.453 311.000 L 343.813 311.000 L 345.174 311.000 L 346.534 311.000 L 347.894 311.000 L 349.255 311.000 L 350.615 311.000 L 351.976 311.000 L 353.336 311.000 L 354.697 311.000 L 356.057 311.000 L 357.418 311.000 L 358.778 311.000 L 360.138 311.000 L 361.499 311.000 L 362.859 311.000 L 364.220 311.000 L 365.580 311.000 L 366.941 311.000 L 368.301 311.000 L 369.661 311.000 L 371.022 311.000 L 372.382 311.000 L 373.743 311.000 L 375.103 311.000 L 376.464 311.000" fill="none" stroke="rgba(255,127,14,1.000)" stroke-width="1.000" stroke-opacity="1.000" stroke-linejoin="round" stroke-linecap="round" />
<path d="M 105.736 311.000 L 107.097 311.000 L 108.457 311.000 L 109.818 311.000 L 111.178 311.000 L 112.539 311.000 L 113.899 311.000 L 115.259 311.000 L 116.620 311.000 L 117.980 311.000 L 119.341 311.000 L 120.701 311.000 L 122.062 310.999 L 123.422 310.999 L 124.783 310.999 L 126.143 310.998 L 127.503 310.998 L 128.864 310.996 L 130.224 310.995 L 131.585 310.993 L 132.945 310.990 L 134.306 310.986 L 135.666 310.981 L 137.026 310.974 L 138.387 310.964 L 139.747 310.952 L 141.108 310.936 L 142.468 310.916 L 143.829 310.890 L 145.189 310.857 L 146.550 310.816 L 147.910 310.766 L 149.270 310.704 L 150.631 310.629 L 151.991 310.539 L 153.352 310.432 L 154.712 310.307 L 156.073 310.161 L 157.433 309.994 L 158.793 309.803 L 160.154 309.589 L 161.514 309.350 L 162.875 309.088 L 164.235 308.802 L 165.596 308.495 L 166.956 308.170 L 168.317 307.828 L 169.677 307.475 L 171.037 307.114 L 172.398 306.751 L 173.758 306.389 L 175.119 306.034 L 176.479 305.690 L 177.840 305.361 L 179.200 305.049 L 180.560 304.757 L 181.921 304.483 L 183.281 304.225 L 184.642 303.980 L 186.002 303.740 L 187.363 303.497 L 188.723 303.239 L 190.084 302.953 L 191.444 302.623 L 192.804 302.232 L 194.165 301.763 L 195.525 301.195 L 196.886 300.510 L 198.246 299.689 L 199.607 298.712 L 200.967 297.564 L 202.328 296.230 L 203.688 294.696 L 205.048 292.953 L 206.409 290.995 L 207.769 288.818 L 209.130 286.420 L 210.490 283.806 L 211.851 280.980 L 213.211 277.950 L 214.571 274.726 L 215.932 271.321 L 217.292 267.747 L 218.653 264.017 L 220.013 260.145 L 221.374 256.144 L 222.734 252.027 L 224.095 247.805 L 225.455 243.492 L 226.815 239.096 L 228.176 234.630 L 229.536 230.105 L 230.897 225.533 L 232.257 220.928 L 233.618 216.306 L 234.978 211.688 L 236.338 207.094 L 237.699 202.551 L 239.059 198.091 L 240.420 193.745 L 241.780 189.551 L 243.141 185.548 L 244.501 181.777 L 245.862 178.280 L 247.222 175.096 L 248.582 172.265 L 249.943 169.821 L 251.303 167.794 L 252.664 166.210 L 254.024 165.086 L 255.385 164.432 L 256.745 164.251 L 258.105 164.540 L 259.466 165.285 L 260.826 166.468 L 262.187 168.063 L 263.547 170.039 L 264.908 172.362 L 266.268 174.992 L 267.629 177.891 L 268.989 181.015 L 270.349 184.322 L 271.710 187.772 L 273.070 191.324 L 274.431 194.939 L 275.791 198.583 L 277.152 202.222 L 278.512 205.825 L 279.873 209.367 L 281.233 212.823 L 282.593 216.173 L 283.954 219.399 L 285.314 222.489 L 286.675 225.430 L 288.035 228.215 L 289.396 230.839 L 290.756 233.299 L 292.116 235.594 L 293.477 237.729 L 294.837 239.706 L 296.198 241.535 L 297.558 243.224 L 298.919 244.784 L 300.279 246.231 L 301.640 247.579 L 303.000 248.848 L 304.360 250.055 L 305.721 251.223 L 307.081 252.372 L 308.442 253.525 L 309.802 254.704 L 311.163 255.930 L 312.523 257.222 L 313.883 258.599 L 315.244 260.074 L 316.604 261.658 L 317.965 263.359 L 319.325 265.178 L 320.686 267.115 L 322.046 269.162 L 323.407 271.310 L 324.767 273.543 L 326.127 275.843 L 327.488 278.191 L 328.848 280.564 L 330.209 282.938 L 331.569 285.289 L 332.930 287.596 L 334.290 289.836 L 335.651 291.990 L 337.011 294.042 L 338.371 295.976 L 339.732 297.783 L 341.092 299.455 L 342.453 300.987 L 343.813 302.378 L 345.174 303.630 L 346.534 304.746 L 347.894 305.731 L 349.255 306.594 L 350.615 307.343 L 351.976 307.987 L 353.336 308.536 L 354.697 309.000 L 356.057 309.389 L 357.418 309.712 L 358.778 309.978 L 360.138 310.195 L 361.499 310.371 L 362.859 310.512 L 364.220 310.625 L 365.580 310.713 L 366.941 310.783 L 368.301 310.837 L 369.661 310.878 L 371.022 310.910 L 372.382 310.934 L 373.743 310.952 L 375.103 310.965 L 376.464 310.975 L 376.464 311.000 L 375.103 311.000 L 373.743 311.000 L 372.382 311.000 L 371.022 311.000 L 369.661 311.000 L 368.301 311.000 L 366.941 311.000 L 365.580 311.000 L 364.220 311.000 L 362.859 311.000 L 361.499 311.000 L 360.138 311.000 L 358.778 311.000 L 357.418 311.000 L 356.057 311.000 L 354.697 311.000 L 353.336 311.000 L 351.976 311.000 L 350.615 311.000 L 349.255 311.000 L 347.894 311.000 L 346.534 311.000 L 345.174 311.000 L 343.813 311.000 L 342.453 311.000 L 341.092 311.000 L 339.732 311.000 L 338.371 311.000 L 337.011 311.000 L 335.651 311.000 L 334.290 311.000 L 332.930 311.000 L 331.569 311.000 L 330.209 311.000 L 328.848 311.000 L 327.488 311.000 L 326.127 311.000 L 324.767 311.000 L 323.407 311.000 L 322.046 311.000 L 320.686 311.000 L 319.325 311.000 L 317.965 311.000 L 316.604 311.000 L 315.244 311.000 L 313.883 311.000 L 312.523 311.000 L 311.163 311.000 L 309.802 311.000 L 308.442 311.000 L 307.081 311.000 L 305.721 311.000 L 304.360 311.000 L 303.000 311.000 L 301.640 311.000 L 300.279 311.000 L 298.919 311.000 L 297.558 311.000 L 296.198 311.000 L 294.837 311.000 L 293.477 311.000 L 292.116 311.000 L 290.756 311.000 L 289.396 311.000 L 288.035 311.000 L 286.675 311.000 L 285.314 311.000 L 283.954 311.000 L 282.593 311.000 L 281.233 311.000 L 279.873 311.000 L 278.512 311.000 L 277.152 311.000 L 275.791 311.000 L 274.431 311.000 L 273.070 311.000 L 271.710 311.000 L 270.349 311.000 L 268.989 311.000 L 267.629 311.000 L 266.268 311.000 L 264.908 311.000 L 263.547 311.000 L 262.187 311.000 L 260.826 311.000 L 259.466 311.000 L 258.105 311.000 L 256.745 311.000 L 255.385 311.000 L 254.024 311.000 L 252.664 311.000 L 251.303 311.000 L 249.943 311.000 L 248.582 311.000 L 247.222 311.000 L 245.862 311.000 L 244.501 311.000 L 243.141 311.000 L 241.780 311.000 L 240.420 311.000 L 239.059 311.000 L 237.699 311.000 L 236.338 311.000 L 234.978 311.000 L 233.618 311.000 L 232.257 311.000 L 230.897 311.000 L 229.536 311.000 L 228.176 311.000 L 226.815 311.000 L 225.455 311.000 L 224.095 311.000 L 222.734 311.000 L 221.374 311.000 L 220.013 311.000 L 218.653 311.000 L 217.292 311.000 L 215.932 311.000 L 214.571 311.000 L 213.211 311.000 L 211.851 311.000 L 210.490 311.000 L 209.130 311.000 L 207.769 311.000 L 206.409 311.000 L 205.048 311.000 L 203.688 311.000 L 202.328 311.000 L 200.967 311.000 L 199.607 311.000 L 198.246 311.000 L 196.886 311.000 L 195.525 311.000 L 194.165 311.000 L 192.804 311.000 L 191.444 311.000 L 190.084 311.000 L 188.723 311.000 L 187.363 311.000 L 186.002 311.000 L 184.642 311.000 L 183.281 311.000 L 181.921 311.000 L 180.560 311.000 L 179.200 311.000 L 177.840 311.000 L 176.479 311.000 L 175.119 311.000 L 173.758 311.000 L 172.398 311.000 L 171.037 311.000 L 169.677 311.000 L 168.317 311.000 L 166.956 311.000 L 165.596 311.000 L 164.235 311.000 L 162.875 311.000 L 161.514 311.000 L 160.154 311.000 L 158.793 311.000 L 157.433 311.000 L 156.073 311.000 L 154.712 311.000 L 153.352 311.000 L 151.991 311.000 L 150.631 311.000 L 149.270 311.000 L 147.910 311.000 L 146.550 311.000 L 145.189 311.000 L 143.829 311.000 L 142.468 311.000 L 141.108 311.000 L 139.747 311.000 L 138.387 311.000 L 137.026 311.000 L 135.666 311.000 L 134.306 311.000 L 132.945 311.000 L 131.585 311.000 L 130.224 311.000 L 128.864 311.000 L 127.503 311.000 L 126.143 311.000 L 124.783 311.000 L 123.422 311.000 L 122.062 311.000 L 120.701 311.000 L 119.341 311.000 L 117.980 311.000 L 116.620 311.000 L 115.259 311.000 L 113.899 311.000 L 112.539 311.000 L 111.178 311.000 L 109.818 311.000 L 108.457 311.000 L 107.097 311.000 L 105.736 311.000 Z" fill="rgba(44,160,44,1.000)" fill-opacity="0.500" stroke="none" />
<path d="M 105.736 311.000 L 107.097 311.000 L 108.457 311.000 L 109.818 311.000 L 111.178 311.000 L 112.539 311.000 L 113.899 311.000 L 115.259 311.000 L 116.620 311.000 L 117.980 311.000 L 119.341 311.000 L 120.701 311.000 L 122.062 310.999 L 123.422 310.999 L 124.783 310.999 L 126.143 310.998 L 127.503 310.998 L 128.864 310.996 L 130.224 310.995 L 131.585 310.993 L 132.945 310.990 L 134.306 310.986 L 135.666 310.981 L 137.026 310.974 L 138.387 310.964 L 139.747 310.952 L 141.108 310.936 L 142.468 310.916 L 143.829 310.890 L 145.189 310.857 L 146.550 310.816 L 147.910 310.766 L 149.270 310.704 L 150.631 310.629 L 151.991 310.539 L 153.352 310.432 L 154.712 310.307 L 156.073 310.161 L 157.433 309.994 L 158.793 309.803 L 160.154 309.589 L 161.514 309.350 L 162.875 309.088 L 164.235 308.802 L 165.596 308.495 L 166.956 308.170 L 168.317 307.828 L 169.677 307.475 L 171.037 307.114 L 172.398 306.751 L 173.758 306.389 L 175.119 306.034 L 176.479 305.690 L 177.840 305.361 L 179.200 305.049 L 180.560 304.757 L 181.921 304.483 L 183.281 304.225 L 184.642 303.980 L 186.002 303.740 L 187.363 303.497 L 188.723 303.239 L 190.084 302.953 L 191.444 302.623 L 192.804 302.232 L 194.165 301.763 L 195.525 301.195 L 196.886 300.510 L 198.246 299.689 L 199.607 298.712 L 200.967 297.564 L 202.328 296.230 L 203.688 294.696 L 205.048 292.953 L 206.409 290.995 L 207.769 288.818 L 209.130 286.420 L 210.490 283.806 L 211.851 280.980 L 213.211 277.950 L 214.571 274.726 L 215.932 271.321 L 217.292 267.747 L 218.653 264.017 L 220.013 260.145 L 221.374 256.144 L 222.734 252.027 L 224.095 247.805 L 225.455 243.492 L 226.815 239.096 L 228.176 234.630 L 229.536 230.105 L 230.897 225.533 L 232.257 220.928 L 233.618 216.306 L 234.978 211.688 L 236.338 207.094 L 237.699 202.551 L 239.059 198.091 L 240.420 193.745 L 241.780 189.551 L 243.141 185.548 L 244.501 181.777 L 245.862 178.280 L 247.222 175.096 L 248.582 172.265 L 249.943 169.821 L 251.303 167.794 L 252.664 166.210 L 254.024 165.086 L 255.385 164.432 L 256.745 164.251 L 258.105 164.540 L 259.466 165.285 L 260.826 166.468 L 262.187 168.063 L 263.547 170.039 L 264.908 172.362 L 266.268 174.992 L 267.629 177.891 L 268.989 181.015 L 270.349 184.322 L 271.710 187.772 L 273.070 191.324 L 274.431 194.939 L 275.791 198.583 L 277.152 202.222 L 278.512 205.825 L 279.873 209.367 L 281.233 212.823 L 282.593 216.173 L 283.954 219.399 L 285.314 222.489 L 286.675 225.430 L 288.035 228.215 L 289.396 230.839 L 290.756 233.299 L 292.116 235.594 L 293.477 237.729 L 294.837 239.706 L 296.198 241.535 L 297.558 243.224 L 298.919 244.784 L 300.279 246.231 L 301.640 247.579 L 303.000 248.848 L 304.360 250.055 L 305.721 251.223 L 307.081 252.372 L 308.442 253.525 L 309.802 254.704 L 311.163 255.930 L 312.523 257.222 L 313.883 258.599 L 315.244 260.074 L 316.604 261.658 L 317.965 263.359 L 319.325 265.178 L 320.686 267.115 L 322.046 269.162 L 323.407 271.310 L 324.767 273.543 L 326.127 275.843 L 327.488 278.191 L 328.848 280.564 L 330.209 282.938 L 331.569 285.289 L 332.930 287.596 L 334.290 289.836 L 335.651 291.990 L 337.011 294.042 L 338.371 295.976 L 339.732 297.783 L 341.092 299.455 L 342.453 300.987 L 343.813 302.378 L 345.174 303.630 L 346.534 304.746 L 347.894 305.731 L 349.255 306.594 L 350.615 307.343 L 351.976 307.987 L 353.336 308.536 L 354.697 309.000 L 356.057 309.389 L 357.418 309.712 L 358.778 309.978 L 360.138 310.195 L 361.499 310.371 L 362.859 310.512 L 364.220 310.625 L 365.580 310.713 L 366.941 310.783 L 368.301 310.837 L 369.661 310.878 L 371.022 310.910 L 372.382 310.934 L 373.743 310.952 L 375.103 310.965 L 376.464 310.975" fill="none" stroke="rgba(44,160,44,1.000)" stroke-width="1.000" stroke-opacity="1.000" stroke-linejoin="round" stroke-linecap="round" />
</g>
<path d="M 92.200 311.000 L 390.000 311.000" fill="none" stroke="rgba(51,51,51,1.000)" stroke-width="1.000" stroke-opacity="1.000" stroke-linejoin="round" stroke-linecap="round" />
<path d="M 95.344 311.000 L 95.344 317.000" fill="none" stroke="rgba(51,51,51,1.000)" stroke-width="1.000" stroke-opacity="1.000" stroke-linejoin="round" stroke-linecap="round" />
<text x="95.344" y="320.000" font-size="13.0" font-family="Inter, -apple-system, BlinkMacSystemFont, 'Segoe UI', Roboto, Helvetica, Arial, 'PingFang SC', 'Microsoft YaHei', Ubuntu, Cantarell, 'Noto Sans', sans-serif" fill="rgba(51,51,51,1.000)" fill-opacity="1.000" text-anchor="middle" font-weight="normal" dominant-baseline="hanging" transform="rotate(0 95.344 320.000)">3</text>
<path d="M 142.582 311.000 L 142.582 317.000" fill="none" stroke="rgba(51,51,51,1.000)" stroke-width="1.000" stroke-opacity="1.000" stroke-linejoin="round" stroke-linecap="round" />
<text x="142.582" y="320.000" font-size="13.0" font-family="Inter, -apple-system, BlinkMacSystemFont, 'Segoe UI', Roboto, Helvetica, Arial, 'PingFang SC', 'Microsoft YaHei', Ubuntu, Cantarell, 'Noto Sans', sans-serif" fill="rgba(51,51,51,1.000)" fill-opacity="1.000" text-anchor="middle" font-weight="normal" dominant-baseline="hanging" transform="rotate(0 142.582 320.000)">4</text>
<path d="M 189.819 311.000 L 189.819 317.000" fill="none" stroke="rgba(51,51,51,1.000)" stroke-width="1.000" stroke-opacity="1.000" stroke-linejoin="round" stroke-linecap="round" />
<text x="189.819" y="320.000" font-size="13.0" font-family="Inter, -apple-system, BlinkMacSystemFont, 'Segoe UI', Roboto, Helvetica, Arial, 'PingFang SC', 'Microsoft YaHei', Ubuntu, Cantarell, 'Noto Sans', sans-serif" fill="rgba(51,51,51,1.000)" fill-opacity="1.000" text-anchor="middle" font-weight="normal" dominant-baseline="hanging" transform="rotate(0 189.819 320.000)">5</text>
<path d="M 237.056 311.000 L 237.056 317.000" fill="none" stroke="rgba(51,51,51,1.000)" stroke-width="1.000" stroke-opacity="1.000" stroke-linejoin="round" stroke-linecap="round" />
<text x="237.056" y="320.000" font-size="13.0" font-family="Inter, -apple-system, BlinkMacSystemFont, 'Segoe UI', Roboto, Helvetica, Arial, 'PingFang SC', 'Microsoft YaHei', Ubuntu, Cantarell, 'Noto Sans', sans-serif" fill="rgba(51,51,51,1.000)" fill-opacity="1.000" text-anchor="middle" font-weight="normal" dominant-baseline="hanging" transform="rotate(0 237.056 320.000)">6</text>
<path d="M 284.294 311.000 L 284.294 317.000" fill="none" stroke="rgba(51,51,51,1.000)" stroke-width="1.000" stroke-opacity="1.000" stroke-linejoin="round" stroke-linecap="round" />
<text x="284.294" y="320.000" font-size="13.0" font-family="Inter, -apple-system, BlinkMacSystemFont, 'Segoe UI', Roboto, Helvetica, Arial, 'PingFang SC', 'Microsoft YaHei', Ubuntu, Cantarell, 'Noto Sans', sans-serif" fill="rgba(51,51,51,1.000)" fill-opacity="1.000" text-anchor="middle" font-weight="normal" dominant-baseline="hanging" transform="rotate(0 284.294 320.000)">7</text>
<path d="M 331.531 311.000 L 331.531 317.000" fill="none" stroke="rgba(51,51,51,1.000)" stroke-width="1.000" stroke-opacity="1.000" stroke-linejoin="round" stroke-linecap="round" />
<text x="331.531" y="320.000" font-size="13.0" font-family="Inter, -apple-system, BlinkMacSystemFont, 'Segoe UI', Roboto, Helvetica, Arial, 'PingFang SC', 'Microsoft YaHei', Ubuntu, Cantarell, 'Noto Sans', sans-serif" fill="rgba(51,51,51,1.000)" fill-opacity="1.000" text-anchor="middle" font-weight="normal" dominant-baseline="hanging" transform="rotate(0 331.531 320.000)">8</text>
<path d="M 378.769 311.000 L 378.769 317.000" fill="none" stroke="rgba(51,51,51,1.000)" stroke-width="1.000" stroke-opacity="1.000" stroke-linejoin="round" stroke-linecap="round" />
<text x="378.769" y="320.000" font-size="13.0" font-family="Inter, -apple-system, BlinkMacSystemFont, 'Segoe UI', Roboto, Helvetica, Arial, 'PingFang SC', 'Microsoft YaHei', Ubuntu, Cantarell, 'Noto Sans', sans-serif" fill="rgba(51,51,51,1.000)" fill-opacity="1.000" text-anchor="middle" font-weight="normal" dominant-baseline="hanging" transform="rotate(0 378.769 320.000)">9</text>
<text x="241.100" y="340.000" font-size="15.0" font-family="Inter, -apple-system, BlinkMacSystemFont, 'Segoe UI', Roboto, Helvetica, Arial, 'PingFang SC', 'Microsoft YaHei', Ubuntu, Cantarell, 'Noto Sans', sans-serif" fill="rgba(51,51,51,1.000)" fill-opacity="1.000" text-anchor="middle" font-weight="bold" dominant-baseline="hanging" transform="rotate(0 241.100 340.000)">sepal_length</text>
<path d="M 92.200 40.000 L 92.200 311.000" fill="none" stroke="rgba(51,51,51,1.000)" stroke-width="1.000" stroke-opacity="1.000" stroke-linejoin="round" stroke-linecap="round" />
<path d="M 92.200 311.000 L 86.200 311.000" fill="none" stroke="rgba(51,51,51,1.000)" stroke-width="1.000" stroke-opacity="1.000" stroke-linejoin="round" stroke-linecap="round" />
<text x="82.200" y="311.000" font-size="13.0" font-family="Inter, -apple-system, BlinkMacSystemFont, 'Segoe UI', Roboto, Helvetica, Arial, 'PingFang SC', 'Microsoft YaHei', Ubuntu, Cantarell, 'Noto Sans', sans-serif" fill="rgba(51,51,51,1.000)" fill-opacity="1.000" text-anchor="end" font-weight="normal" dominant-baseline="central" transform="rotate(0 82.200 311.000)">0.0</text>
<path d="M 92.200 263.820 L 86.200 263.820" fill="none" stroke="rgba(51,51,51,1.000)" stroke-width="1.000" stroke-opacity="1.000" stroke-linejoin="round" stroke-linecap="round" />
<text x="82.200" y="263.820" font-size="13.0" font-family="Inter, -apple-system, BlinkMacSystemFont, 'Segoe UI', Roboto, Helvetica, Arial, 'PingFang SC', 'Microsoft YaHei', Ubuntu, Cantarell, 'Noto Sans', sans-serif" fill="rgba(51,51,51,1.000)" fill-opacity="1.000" text-anchor="end" font-weight="normal" dominant-baseline="central" transform="rotate(0 82.200 263.820)">0.2</text>
<path d="M 92.200 216.641 L 86.200 216.641" fill="none" stroke="rgba(51,51,51,1.000)" stroke-width="1.000" stroke-opacity="1.000" stroke-linejoin="round" stroke-linecap="round" />
<text x="82.200" y="216.641" font-size="13.0" font-family="Inter, -apple-system, BlinkMacSystemFont, 'Segoe UI', Roboto, Helvetica, Arial, 'PingFang SC', 'Microsoft YaHei', Ubuntu, Cantarell, 'Noto Sans', sans-serif" fill="rgba(51,51,51,1.000)" fill-opacity="1.000" text-anchor="end" font-weight="normal" dominant-baseline="central" transform="rotate(0 82.200 216.641)">0.4</text>
<path d="M 92.200 169.461 L 86.200 169.461" fill="none" stroke="rgba(51,51,51,1.000)" stroke-width="1.000" stroke-opacity="1.000" stroke-linejoin="round" stroke-linecap="round" />
<text x="82.200" y="169.461" font-size="13.0" font-family="Inter, -apple-system, BlinkMacSystemFont, 'Segoe UI', Roboto, Helvetica, Arial, 'PingFang SC', 'Microsoft YaHei', Ubuntu, Cantarell, 'Noto Sans', sans-serif" fill="rgba(51,51,51,1.000)" fill-opacity="1.000" text-anchor="end" font-weight="normal" dominant-baseline="central" transform="rotate(0 82.200 169.461)">0.6</text>
<path d="M 92.200 122.282 L 86.200 122.282" fill="none" stroke="rgba(51,51,51,1.000)" stroke-width="1.000" stroke-opacity="1.000" stroke-linejoin="round" stroke-linecap="round" />
<text x="82.200" y="122.282" font-size="13.0" font-family="Inter, -apple-system, BlinkMacSystemFont, 'Segoe UI', Roboto, Helvetica, Arial, 'PingFang SC', 'Microsoft YaHei', Ubuntu, Cantarell, 'Noto Sans', sans-serif" fill="rgba(51,51,51,1.000)" fill-opacity="1.000" text-anchor="end" font-weight="normal" dominant-baseline="central" transform="rotate(0 82.200 122.282)">0.8</text>
<path d="M 92.200 75.102 L 86.200 75.102" fill="none" stroke="rgba(51,51,51,1.000)" stroke-width="1.000" stroke-opacity="1.000" stroke-linejoin="round" stroke-linecap="round" />
<text x="82.200" y="75.102" font-size="13.0" font-family="Inter, -apple-system, BlinkMacSystemFont, 'Segoe UI', Roboto, Helvetica, Arial, 'PingFang SC', 'Microsoft YaHei', Ubuntu, Cantarell, 'Noto Sans', sans-serif" fill="rgba(51,51,51,1.000)" fill-opacity="1.000" text-anchor="end" font-weight="normal" dominant-baseline="central" transform="rotate(0 82.200 75.102)">1.0</text>
<text x="47.500" y="175.500" font-size="15.0" font-family="Inter, -apple-system, BlinkMacSystemFont, 'Segoe UI', Roboto, Helvetica, Arial, 'PingFang SC', 'Microsoft YaHei', Ubuntu, Cantarell, 'Noto Sans', sans-serif" fill="rgba(51,51,51,1.000)" fill-opacity="1.000" text-anchor="middle" font-weight="bold" dominant-baseline="middle" transform="rotate(-90 47.500 175.500)">density</text>
<text x="405.000" y="46.000" font-size="13.2" font-family="Inter, -apple-system, BlinkMacSystemFont, 'Segoe UI', Roboto, Helvetica, Arial, 'PingFang SC', 'Microsoft YaHei', Ubuntu, Cantarell, 'Noto Sans', sans-serif" fill="rgba(51,51,51,1.000)" fill-opacity="1.000" text-anchor="start" font-weight="bold" dominant-baseline="central" transform="rotate(0 405.000 46.000)">species</text>
<circle cx="414.000" cy="69.200" r="5.000" fill="rgba(31,119,180,1.000)" stroke="none" stroke-width="0.000" fill-opacity="1.000" stroke-opacity="1.000" />
<text x="431.000" y="69.200" font-size="12.0" font-family="Inter, -apple-system, BlinkMacSystemFont, 'Segoe UI', Roboto, Helvetica, Arial, 'PingFang SC', 'Microsoft YaHei', Ubuntu, Cantarell, 'Noto Sans', sans-serif" fill="rgba(51,51,51,1.000)" fill-opacity="1.000" text-anchor="start" font-weight="normal" dominant-baseline="central" transform="rotate(0 431.000 69.200)">setosa</text>
<circle cx="414.000" cy="90.200" r="5.000" fill="rgba(255,127,14,1.000)" stroke="none" stroke-width="0.000" fill-opacity="1.000" stroke-opacity="1.000" />
<text x="431.000" y="90.200" font-size="12.0" font-family="Inter, -apple-system, BlinkMacSystemFont, 'Segoe UI', Roboto, Helvetica, Arial, 'PingFang SC', 'Microsoft YaHei', Ubuntu, Cantarell, 'Noto Sans', sans-serif" fill="rgba(51,51,51,1.000)" fill-opacity="1.000" text-anchor="start" font-weight="normal" dominant-baseline="central" transform="rotate(0 431.000 90.200)">versicolor</text>
<circle cx="414.000" cy="111.200" r="5.000" fill="rgba(44,160,44,1.000)" stroke="none" stroke-width="0.000" fill-opacity="1.000" stroke-opacity="1.000" />
<text x="431.000" y="111.200" font-size="12.0" font-family="Inter, -apple-system, BlinkMacSystemFont, 'Segoe UI', Roboto, Helvetica, Arial, 'PingFang SC', 'Microsoft YaHei', Ubuntu, Cantarell, 'Noto Sans', sans-serif" fill="rgba(51,51,51,1.000)" fill-opacity="1.000" text-anchor="start" font-weight="normal" dominant-baseline="central" transform="rotate(0 431.000 111.200)">virginica</text>
</svg>