<svg width="500" height="400" viewBox="0 0 500 400" xmlns="http://www.w3.org/2000/svg"><rect width="100%" height="100%" fill="rgba(255,255,255,1.000)" /><line x1="92.20" y1="311.00" x2="390.00" y2="311.00" stroke="rgba(51,51,51,1.000)" stroke-width="1" stroke-linecap="square"/>
<line x1="95.34" y1="311.00" x2="95.34" y2="317.00" stroke="rgba(51,51,51,1.000)" stroke-width="1.0"/>
<text x="95.34" y="320.00" font-size="13" font-family="Inter, -apple-system, BlinkMacSystemFont, 'Segoe UI', Roboto, Helvetica, Arial, 'PingFang SC', 'Microsoft YaHei', Ubuntu, Cantarell, 'Noto Sans', sans-serif" fill="rgba(51,51,51,1.000)" text-anchor="middle" dominant-baseline="hanging">3</text>
<line x1="142.58" y1="311.00" x2="142.58" y2="317.00" stroke="rgba(51,51,51,1.000)" stroke-width="1.0"/>
<text x="142.58" y="320.00" font-size="13" font-family="Inter, -apple-system, BlinkMacSystemFont, 'Segoe UI', Roboto, Helvetica, Arial, 'PingFang SC', 'Microsoft YaHei', Ubuntu, Cantarell, 'Noto Sans', sans-serif" fill="rgba(51,51,51,1.000)" text-anchor="middle" dominant-baseline="hanging">4</text>
<line x1="189.82" y1="311.00" x2="189.82" y2="317.00" stroke="rgba(51,51,51,1.000)" stroke-width="1.0"/>
<text x="189.82" y="320.00" font-size="13" font-family="Inter, -apple-system, BlinkMacSystemFont, 'Segoe UI', Roboto, Helvetica, Arial, 'PingFang SC', 'Microsoft YaHei', Ubuntu, Cantarell, 'Noto Sans', sans-serif" fill="rgba(51,51,51,1.000)" text-anchor="middle" dominant-baseline="hanging">5</text>
<line x1="237.06" y1="311.00" x2="237.06" y2="317.00" stroke="rgba(51,51,51,1.000)" stroke-width="1.0"/>
<text x="237.06" y="320.00" font-size="13" font-family="Inter, -apple-system, BlinkMacSystemFont, 'Segoe UI', Roboto, Helvetica, Arial, 'PingFang SC', 'Microsoft YaHei', Ubuntu, Cantarell, 'Noto Sans', sans-serif" fill="rgba(51,51,51,1.000)" text-anchor="middle" dominant-baseline="hanging">6</text>
<line x1="284.29" y1="311.00" x2="284.29" y2="317.00" stroke="rgba(51,51,51,1.000)" stroke-width="1.0"/>
<text x="284.29" y="320.00" font-size="13" font-family="Inter, -apple-system, BlinkMacSystemFont, 'Segoe UI', Roboto, Helvetica, Arial, 'PingFang SC', 'Microsoft YaHei', Ubuntu, Cantarell, 'Noto Sans', sans-serif" fill="rgba(51,51,51,1.000)" text-anchor="middle" dominant-baseline="hanging">7</text>
<line x1="331.53" y1="311.00" x2="331.53" y2="317.00" stroke="rgba(51,51,51,1.000)" stroke-width="1.0"/>
<text x="331.53" y="320.00" font-size="13" font-family="Inter, -apple-system, BlinkMacSystemFont, 'Segoe UI', Roboto, Helvetica, Arial, 'PingFang SC', 'Microsoft YaHei', Ubuntu, Cantarell, 'Noto Sans', sans-serif" fill="rgba(51,51,51,1.000)" text-anchor="middle" dominant-baseline="hanging">8</text>
<line x1="378.77" y1="311.00" x2="378.77" y2="317.00" stroke="rgba(51,51,51,1.000)" stroke-width="1.0"/>
<text x="378.77" y="320.00" font-size="13" font-family="Inter, -apple-system, BlinkMacSystemFont, 'Segoe UI', Roboto, Helvetica, Arial, 'PingFang SC', 'Microsoft YaHei', Ubuntu, Cantarell, 'Noto Sans', sans-serif" fill="rgba(51,51,51,1.000)" text-anchor="middle" dominant-baseline="hanging">9</text>
<text x="241.10" y="340.00" text-anchor="middle" font-size="15" font-family="Inter, -apple-system, BlinkMacSystemFont, 'Segoe UI', Roboto, Helvetica, Arial, 'PingFang SC', 'Microsoft YaHei', Ubuntu, Cantarell, 'Noto Sans', sans-serif" fill="rgba(51,51,51,1.000)" font-weight="bold" dominant-baseline="hanging">sepal_length</text>
<line x1="92.20" y1="40.00" x2="92.20" y2="311.00" stroke="rgba(51,51,51,1.000)" stroke-width="1" stroke-linecap="square"/>
<line x1="92.20" y1="311.00" x2="86.20" y2="311.00" stroke="rgba(51,51,51,1.000)" stroke-width="1.0"/>
<text x="82.20" y="311.00" font-size="13" font-family="Inter, -apple-system, BlinkMacSystemFont, 'Segoe UI', Roboto, Helvetica, Arial, 'PingFang SC', 'Microsoft YaHei', Ubuntu, Cantarell, 'Noto Sans', sans-serif" fill="rgba(51,51,51,1.000)" text-anchor="end" dominant-baseline="central">0.0</text>
<line x1="92.20" y1="263.82" x2="86.20" y2="263.82" stroke="rgba(51,51,51,1.000)" stroke-width="1.0"/>
<text x="82.20" y="263.82" font-size="13" font-family="Inter, -apple-system, BlinkMacSystemFont, 'Segoe UI', Roboto, Helvetica, Arial, 'PingFang SC', 'Microsoft YaHei', Ubuntu, Cantarell, 'Noto Sans', sans-serif" fill="rgba(51,51,51,1.000)" text-anchor="end" dominant-baseline="central">0.2</text>
<line x1="92.20" y1="216.64" x2="86.20" y2="216.64" stroke="rgba(51,51,51,1.000)" stroke-width="1.0"/>
<text x="82.20" y="216.64" font-size="13" font-family="Inter, -apple-system, BlinkMacSystemFont, 'Segoe UI', Roboto, Helvetica, Arial, 'PingFang SC', 'Microsoft YaHei', Ubuntu, Cantarell, 'Noto Sans', sans-serif" fill="rgba(51,51,51,1.000)" text-anchor="end" dominant-baseline="central">0.4</text>
<line x1="92.20" y1="169.46" x2="86.20" y2="169.46" stroke="rgba(51,51,51,1.000)" stroke-width="1.0"/>
<text x="82.20" y="169.46" font-size="13" font-family="Inter, -apple-system, BlinkMacSystemFont, 'Segoe UI', Roboto, Helvetica, Arial, 'PingFang SC', 'Microsoft YaHei', Ubuntu, Cantarell, 'Noto Sans', sans-serif" fill="rgba(51,51,51,1.000)" text-anchor="end" dominant-baseline="central">0.6</text>
<line x1="92.20" y1="122.28" x2="86.20" y2="122.28" stroke="rgba(51,51,51,1.000)" stroke-width="1.0"/>
<text x="82.20" y="122.28" font-size="13" font-family="Inter, -apple-system, BlinkMacSystemFont, 'Segoe UI', Roboto, Helvetica, Arial, 'PingFang SC', 'Microsoft YaHei', Ubuntu, Cantarell, 'Noto Sans', sans-serif" fill="rgba(51,51,51,1.000)" text-anchor="end" dominant-baseline="central">0.8</text>
<line x1="92.20" y1="75.10" x2="86.20" y2="75.10" stroke="rgba(51,51,51,1.000)" stroke-width="1.0"/>
<text x="82.20" y="75.10" font-size="13" font-family="Inter, -apple-system, BlinkMacSystemFont, 'Segoe UI', Roboto, Helvetica, Arial, 'PingFang SC', 'Microsoft YaHei', Ubuntu, Cantarell, 'Noto Sans', sans-serif" fill="rgba(51,51,51,1.000)" text-anchor="end" dominant-baseline="central">1.0</text>
<text x="47.50" y="175.50" text-anchor="middle" font-size="15" font-family="Inter, -apple-system, BlinkMacSystemFont, 'Segoe UI', Roboto, Helvetica, Arial, 'PingFang SC', 'Microsoft YaHei', Ubuntu, Cantarell, 'Noto Sans', sans-serif" fill="rgba(51,51,51,1.000)" font-weight="bold" transform="rotate(-90, 47.50, 175.50)" dominant-baseline="middle">density</text>
<defs><clipPath id="plot-clip-area"><rect x="92.200" y="40.000" width="297.800" height="271.000" /></clipPath></defs>
<path d="M 92.200 311.000 L 390.000 311.000" stroke="rgba(136,136,136,1.000)" stroke-width="1.000" stroke-opacity="0.500" fill="none" stroke-linejoin="round" stroke-linecap="round" stroke-dasharray="4,4" clip-path="url(#plot-clip-area)" />
<polygon points="105.736,311.000 107.097,311.000 108.457,311.000 109.818,311.000 111.178,311.000 112.539,311.000 113.899,311.000 115.259,311.000 116.620,311.000 117.980,311.000 119.341,311.000 120.701,310.999 122.062,310.999 123.422,310.997 124.783,310.995 126.143,310.989 127.503,310.980 128.864,310.962 130.224,310.931 131.585,310.879 132.945,310.791 134.306,310.649 135.666,310.426 137.026,310.085 138.387,309.578 139.747,308.843 141.108,307.810 142.468,306.395 143.829,304.511 145.189,302.071 146.550,298.997 147.910,295.229 149.270,290.733 150.631,285.510 151.991,279.599 153.352,273.076 154.712,266.051 156.073,258.652 157.433,251.017 158.793,243.276 160.154,235.538 161.514,227.881 162.875,220.341 164.235,212.916 165.596,205.567 166.956,198.222 168.317,190.788 169.677,183.159 171.037,175.224 172.398,166.879 173.758,158.038 175.119,148.643 176.479,138.678 177.840,128.184 179.200,117.271 180.560,106.131 181.921,95.043 183.281,84.368 184.642,74.538 186.002,66.026 187.363,59.309 188.723,54.821 190.084,52.905 191.444,53.760 192.804,57.417 194.165,63.718 195.525,72.331 196.886,82.783 198.246,94.513 199.607,106.942 200.967,119.532 202.328,131.848 203.688,143.588 205.048,154.596 206.409,164.845 207.769,174.406 209.130,183.401 210.490,191.962 211.851,200.194 213.211,208.154 214.571,215.852 215.932,223.259 217.292,230.330 218.653,237.023 220.013,243.322 221.374,249.239 222.734,254.815 224.095,260.111 225.455,265.191 226.815,270.104 228.176,274.877 229.536,279.504 230.897,283.954 232.257,288.171 233.618,292.092 234.978,295.656 236.338,298.814 237.699,301.539 239.059,303.824 240.420,305.686 241.780,307.160 243.141,308.294 244.501,309.140 245.862,309.754 247.222,310.187 248.582,310.483 249.943,310.680 251.303,310.807 252.664,310.886 254.024,310.935 255.385,310.964 256.745,310.980 258.105,310.990 259.466,310.995 260.826,310.997 262.187,310.999 263.547,310.999 264.908,311.000 266.268,311.000 267.629,311.000 268.989,311.000 270.349,311.000 271.710,311.000 273.070,311.000 274.431,311.000 275.791,311.000 277.152,311.000 278.512,311.000 279.873,311.000 281.233,311.000 282.593,311.000 283.954,311.000 285.314,311.000 286.675,311.000 288.035,311.000 289.396,311.000 290.756,311.000 292.116,311.000 293.477,311.000 294.837,311.000 296.198,311.000 297.558,311.000 298.919,311.000 300.279,311.000 301.640,311.000 303.000,311.000 304.360,311.000 305.721,311.000 307.081,311.000 308.442,311.000 309.802,311.000 311.163,311.000 312.523,311.000 313.883,311.000 315.244,311.000 316.604,311.000 317.965,311.000 319.325,311.000 320.686,311.000 322.046,311.000 323.407,311.000 324.767,311.000 326.127,311.000 327.488,311.000 328.848,311.000 330.209,311.000 331.569,311.000 332.930,311.000 334.290,311.000 335.651,311.000 337.011,311.000 338.371,311.000 339.732,311.000 341.092,311.000 342.453,311.000 343.813,311.000 345.174,311.000 346.534,311.000 347.894,311.000 349.255,311.000 350.615,311.000 351.976,311.000 353.336,311.000 354.697,311.000 356.057,311.000 357.418,311.000 358.778,311.000 360.138,311.000 361.499,311.000 362.859,311.000 364.220,311.000 365.580,311.000 366.941,311.000 368.301,311.000 369.661,311.000 371.022,311.000 372.382,311.000 373.743,311.000 375.103,311.000 376.464,311.000 376.464,311.000 375.103,311.000 373.743,311.000 372.382,311.000 371.022,311.000 369.661,311.000 368.301,311.000 366.941,311.000 365.580,311.000 364.220,311.000 362.859,311.000 361.499,311.000 360.138,311.000 358.778,311.000 357.418,311.000 356.057,311.000 354.697,311.000 353.336,311.000 351.976,311.000 350.615,311.000 349.255,311.000 347.894,311.000 346.534,311.000 345.174,311.000 343.813,311.000 342.453,311.000 341.092,311.000 339.732,311.000 338.371,311.000 337.011,311.000 335.651,311.000 334.290,311.000 332.930,311.000 331.569,311.000 330.209,311.000 328.848,311.000 327.488,311.000 326.127,311.000 324.767,311.000 323.407,311.000 322.046,311.000 320.686,311.000 319.325,311.000 317.965,311.000 316.604,311.000 315.244,311.000 313.883,311.000 312.523,311.000 311.163,311.000 309.802,311.000 308.442,311.000 307.081,311.000 305.721,311.000 304.360,311.000 303.000,311.000 301.640,311.000 300.279,311.000 298.919,311.000 297.558,311.000 296.198,311.000 294.837,311.000 293.477,311.000 292.116,311.000 290.756,311.000 289.396,311.000 288.035,311.000 286.675,311.000 285.314,311.000 283.954,311.000 282.593,311.000 281.233,311.000 279.873,311.000 278.512,311.000 277.152,311.000 275.791,311.000 274.431,311.000 273.070,311.000 271.710,311.000 270.349,311.000 268.989,311.000 267.629,311.000 266.268,311.000 264.908,311.000 263.547,311.000 262.187,311.000 260.826,311.000 259.466,311.000 258.105,311.000 256.745,311.000 255.385,311.000 254.024,311.000 252.664,311.000 251.303,311.000 249.943,311.000 248.582,311.000 247.222,311.000 245.862,311.000 244.501,311.000 243.141,311.000 241.780,311.000 240.420,311.000 239.059,311.000 237.699,311.000 236.338,311.000 234.978,311.000 233.618,311.000 232.257,311.000 230.897,311.000 229.536,311.000 228.176,311.000 226.815,311.000 225.455,311.000 224.095,311.000 222.734,311.000 221.374,311.000 220.013,311.000 218.653,311.000 217.292,311.000 215.932,311.000 214.571,311.000 213.211,311.000 211.851,311.000 210.490,311.000 209.130,311.000 207.769,311.000 206.409,311.000 205.048,311.000 203.688,311.000 202.328,311.000 200.967,311.000 199.607,311.000 198.246,311.000 196.886,311.000 195.525,311.000 194.165,311.000 192.804,311.000 191.444,311.000 190.084,311.000 188.723,311.000 187.363,311.000 186.002,311.000 184.642,311.000 183.281,311.000 181.921,311.000 180.560,311.000 179.200,311.000 177.840,311.000 176.479,311.000 175.119,311.000 173.758,311.000 172.398,311.000 171.037,311.000 169.677,311.000 168.317,311.000 166.956,311.000 165.596,311.000 164.235,311.000 162.875,311.000 161.514,311.000 160.154,311.000 158.793,311.000 157.433,311.000 156.073,311.000 154.712,311.000 153.352,311.000 151.991,311.000 150.631,311.000 149.270,311.000 147.910,311.000 146.550,311.000 145.189,311.000 143.829,311.000 142.468,311.000 141.108,311.000 139.747,311.000 138.387,311.000 137.026,311.000 135.666,311.000 134.306,311.000 132.945,311.000 131.585,311.000 130.224,311.000 128.864,311.000 127.503,311.000 126.143,311.000 124.783,311.000 123.422,311.000 122.062,311.000 120.701,311.000 119.341,311.000 117.980,311.000 116.620,311.000 115.259,311.000 113.899,311.000 112.539,311.000 111.178,311.000 109.818,311.000 108.457,311.000 107.097,311.000 105.736,311.000" fill="rgba(31,119,180,1.000)" stroke="none" stroke-width="0.000" fill-opacity="0.500" stroke-opacity="0.000" clip-path="url(#plot-clip-area)" />
<path d="M 105.736 311.000 L 107.097 311.000 L 108.457 311.000 L 109.818 311.000 L 111.178 311.000 L 112.539 311.000 L 113.899 311.000 L 115.259 311.000 L 116.620 311.000 L 117.980 311.000 L 119.341 311.000 L 120.701 310.999 L 122.062 310.999 L 123.422 310.997 L 124.783 310.995 L 126.143 310.989 L 127.503 310.980 L 128.864 310.962 L 130.224 310.931 L 131.585 310.879 L 132.945 310.791 L 134.306 310.649 L 135.666 310.426 L 137.026 310.085 L 138.387 309.578 L 139.747 308.843 L 141.108 307.810 L 142.468 306.395 L 143.829 304.511 L 145.189 302.071 L 146.550 298.997 L 147.910 295.229 L 149.270 290.733 L 150.631 285.510 L 151.991 279.599 L 153.352 273.076 L 154.712 266.051 L 156.073 258.652 L 157.433 251.017 L 158.793 243.276 L 160.154 235.538 L 161.514 227.881 L 162.875 220.341 L 164.235 212.916 L 165.596 205.567 L 166.956 198.222 L 168.317 190.788 L 169.677 183.159 L 171.037 175.224 L 172.398 166.879 L 173.758 158.038 L 175.119 148.643 L 176.479 138.678 L 177.840 128.184 L 179.200 117.271 L 180.560 106.131 L 181.921 95.043 L 183.281 84.368 L 184.642 74.538 L 186.002 66.026 L 187.363 59.309 L 188.723 54.821 L 190.084 52.905 L 191.444 53.760 L 192.804 57.417 L 194.165 63.718 L 195.525 72.331 L 196.886 82.783 L 198.246 94.513 L 199.607 106.942 L 200.967 119.532 L 202.328 131.848 L 203.688 143.588 L 205.048 154.596 L 206.409 164.845 L 207.769 174.406 L 209.130 183.401 L 210.490 191.962 L 211.851 200.194 L 213.211 208.154 L 214.571 215.852 L 215.932 223.259 L 217.292 230.330 L 218.653 237.023 L 220.013 243.322 L 221.374 249.239 L 222.734 254.815 L 224.095 260.111 L 225.455 265.191 L 226.815 270.104 L 228.176 274.877 L 229.536 279.504 L 230.897 283.954 L 232.257 288.171 L 233.618 292.092 L 234.978 295.656 L 236.338 298.814 L 237.699 301.539 L 239.059 303.824 L 240.420 305.686 L 241.780 307.160 L 243.141 308.294 L 244.501 309.140 L 245.862 309.754 L 247.222 310.187 L 248.582 310.483 L 249.943 310.680 L 251.303 310.807 L 252.664 310.886 L 254.024 310.935 L 255.385 310.964 L 256.745 310.980 L 258.105 310.990 L 259.466 310.995 L 260.826 310.997 L 262.187 310.999 L 263.547 310.999 L 264.908 311.000 L 266.268 311.000 L 267.629 311.000 L 268.989 311.000 L 270.349 311.000 L 271.710 311.000 L 273.070 311.000 L 274.431 311.000 L 275.791 311.000 L 277.152 311.000 L 278.512 311.000 L 279.873 311.000 L 281.233 311.000 L 282.593 311.000 L 283.954 311.000 L 285.314 311.000 L 286.675 311.000 L 288.035 311.000 L 289.396 311.000 L 290.756 311.000 L 292.116 311.000 L 293.477 311.000 L 294.837 311.000 L 296.198 311.000 L 297.558 311.000 L 298.919 311.000 L 300.279 311.000 L 301.640 311.000 L 303.000 311.000 L 304.360 311.000 L 305.721 311.000 L 307.081 311.000 L 308.442 311.000 L 309.802 311.000 L 311.163 311.000 L 312.523 311.000 L 313.883 311.000 L 315.244 311.000 L 316.604 311.000 L 317.965 311.000 L 319.325 311.000 L 320.686 311.000 L 322.046 311.000 L 323.407 311.000 L 324.767 311.000 L 326.127 311.000 L 327.488 311.000 L 328.848 311.000 L 330.209 311.000 L 331.569 311.000 L 332.930 311.000 L 334.290 311.000 L 335.651 311.000 L 337.011 311.000 L 338.371 311.000 L 339.732 311.000 L 341.092 311.000 L 342.453 311.000 L 343.813 311.000 L 345.174 311.000 L 346.534 311.000 L 347.894 311.000 L 349.255 311.000 L 350.615 311.000 L 351.976 311.000 L 353.336 311.000 L 354.697 311.000 L 356.057 311.000 L 357.418 311.000 L 358.778 311.000 L 360.138 311.000 L 361.499 311.000 L 362.859 311.000 L 364.220 311.000 L 365.580 311.000 L 366.941 311.000 L 368.301 311.000 L 369.661 311.000 L 371.022 311.000 L 372.382 311.000 L 373.743 311.000 L 375.103 311.000 L 376.464 311.000" stroke="rgba(31,119,180,1.000)" stroke-width="1.000" stroke-opacity="1.000" fill="none" stroke-linejoin="round" stroke-linecap="round" clip-path="url(#plot-clip-area)" />
<polygon points="105.736,311.000 107.097,311.000 108.457,311.000 109.818,311.000 111.178,311.000 112.539,311.000 113.899,311.000 115.259,311.000 116.620,311.000 117.980,311.000 119.341,311.000 120.701,311.000 122.062,311.000 123.422,311.000 124.783,311.000 126.143,311.000 127.503,311.000 128.864,311.000 130.224,311.000 131.585,311.000 132.945,310.999 134.306,310.999 135.666,310.998 137.026,310.997 138.387,310.996 139.747,310.993 141.108,310.989 142.468,310.983 143.829,310.974 145.189,310.961 146.550,310.942 147.910,310.915 149.270,310.876 150.631,310.822 151.991,310.747 153.352,310.645 154.712,310.509 156.073,310.328 157.433,310.091 158.793,309.787 160.154,309.399 161.514,308.914 162.875,308.314 164.235,307.582 165.596,306.702 166.956,305.659 168.317,304.439 169.677,303.034 171.037,301.437 172.398,299.647 173.758,297.671 175.119,295.517 176.479,293.203 177.840,290.749 179.200,288.179 180.560,285.519 181.921,282.793 183.281,280.025 184.642,277.229 186.002,274.414 187.363,271.578 188.723,268.707 190.084,265.775 191.444,262.744 192.804,259.566 194.165,256.185 195.525,252.544 196.886,248.585 198.246,244.257 199.607,239.521 200.967,234.353 202.328,228.753 203.688,222.740 205.048,216.362 206.409,209.691 207.769,202.820 209.130,195.862 210.490,188.944 211.851,182.198 213.211,175.759 214.571,169.752 215.932,164.290 217.292,159.465 218.653,155.347 220.013,151.979 221.374,149.376 222.734,147.531 224.095,146.410 225.455,145.964 226.815,146.129 228.176,146.832 229.536,148.001 230.897,149.561 232.257,151.447 233.618,153.601 234.978,155.973 236.338,158.527 237.699,161.234 239.059,164.073 240.420,167.029 241.780,170.090 243.141,173.243 244.501,176.478 245.862,179.779 247.222,183.130 248.582,186.509 249.943,189.895 251.303,193.264 252.664,196.594 254.024,199.865 255.385,203.063 256.745,206.177 258.105,209.207 259.466,212.157 260.826,215.040 262.187,217.875 263.547,220.689 264.908,223.508 266.268,226.364 267.629,229.286 268.989,232.300 270.349,235.428 271.710,238.686 273.070,242.080 274.431,245.610 275.791,249.266 277.152,253.030 278.512,256.879 279.873,260.782 281.233,264.705 282.593,268.610 283.954,272.458 285.314,276.214 286.675,279.841 288.035,283.308 289.396,286.587 290.756,289.655 292.116,292.496 293.477,295.098 294.837,297.457 296.198,299.571 297.558,301.445 298.919,303.088 300.279,304.513 301.640,305.734 303.000,306.768 304.360,307.635 305.721,308.352 307.081,308.939 308.442,309.413 309.802,309.791 311.163,310.090 312.523,310.323 313.883,310.501 315.244,310.637 316.604,310.739 317.965,310.815 319.325,310.870 320.686,310.910 322.046,310.938 323.407,310.958 324.767,310.972 326.127,310.982 327.488,310.988 328.848,310.992 330.209,310.995 331.569,310.997 332.930,310.998 334.290,310.999 335.651,310.999 337.011,311.000 338.371,311.000 339.732,311.000 341.092,311.000 342.453,311.000 343.813,311.000 345.174,311.000 346.534,311.000 347.894,311.000 349.255,311.000 350.615,311.000 351.976,311.000 353.336,311.000 354.697,311.000 356.057,311.000 357.418,311.000 358.778,311.000 360.138,311.000 361.499,311.000 362.859,311.000 364.220,311.000 365.580,311.000 366.941,311.000 368.301,311.000 369.661,311.000 371.022,311.000 372.382,311.000 373.743,311.000 375.103,311.000 376.464,311.000 376.464,311.000 375.103,311.000 373.743,311.000 372.382,311.000 371.022,311.000 369.661,311.000 368.301,311.000 366.941,311.000 365.580,311.000 364.220,311.000 362.859,311.000 361.499,311.000 360.138,311.000 358.778,311.000 357.418,311.000 356.057,311.000 354.697,311.000 353.336,311.000 351.976,311.000 350.615,311.000 349.255,311.000 347.894,311.000 346.534,311.000 345.174,311.000 343.813,311.000 342.453,311.000 341.092,311.000 339.732,311.000 338.371,311.000 337.011,311.000 335.651,311.000 334.290,311.000 332.930,311.000 331.569,311.000 330.209,311.000 328.848,311.000 327.488,311.000 326.127,311.000 324.767,311.000 323.407,311.000 322.046,311.000 320.686,311.000 319.325,311.000 317.965,311.000 316.604,311.000 315.244,311.000 313.883,311.000 312.523,311.000 311.163,311.000 309.802,311.000 308.442,311.000 307.081,311.000 305.721,311.000 304.360,311.000 303.000,311.000 301.640,311.000 300.279,311.000 298.919,311.000 297.558,311.000 296.198,311.000 294.837,311.000 293.477,311.000 292.116,311.000 290.756,311.000 289.396,311.000 288.035,311.000 286.675,311.000 285.314,311.000 283.954,311.000 282.593,311.000 281.233,311.000 279.873,311.000 278.512,311.000 277.152,311.000 275.791,311.000 274.431,311.000 273.070,311.000 271.710,311.000 270.349,311.000 268.989,311.000 267.629,311.000 266.268,311.000 264.908,311.000 263.547,311.000 262.187,311.000 260.826,311.000 259.466,311.000 258.105,311.000 256.745,311.000 255.385,311.000 254.024,311.000 252.664,311.000 251.303,311.000 249.943,311.000 248.582,311.000 247.222,311.000 245.862,311.000 244.501,311.000 243.141,311.000 241.780,311.000 240.420,311.000 239.059,311.000 237.699,311.000 236.338,311.000 234.978,311.000 233.618,311.000 232.257,311.000 230.897,311.000 229.536,311.000 228.176,311.000 226.815,311.000 225.455,311.000 224.095,311.000 222.734,311.000 221.374,311.000 220.013,311.000 218.653,311.000 217.292,311.000 215.932,311.000 214.571,311.000 213.211,311.000 211.851,311.000 210.490,311.000 209.130,311.000 207.769,311.000 206.409,311.000 205.048,311.000 203.688,311.000 202.328,311.000 200.967,311.000 199.607,311.000 198.246,311.000 196.886,311.000 195.525,311.000 194.165,311.000 192.804,311.000 191.444,311.000 190.084,311.000 188.723,311.000 187.363,311.000 186.002,311.000 184.642,311.000 183.281,311.000 181.921,311.000 180.560,311.000 179.200,311.000 177.840,311.000 176.479,311.000 175.119,311.000 173.758,311.000 172.398,311.000 171.037,311.000 169.677,311.000 168.317,311.000 166.956,311.000 165.596,311.000 164.235,311.000 162.875,311.000 161.514,311.000 160.154,311.000 158.793,311.000 157.433,311.000 156.073,311.000 154.712,311.000 153.352,311.000 151.991,311.000 150.631,311.000 149.270,311.000 147.910,311.000 146.550,311.000 145.189,311.000 143.829,311.000 142.468,311.000 141.108,311.000 139.747,311.000 138.387,311.000 137.026,311.000 135.666,311.000 134.306,311.000 132.945,311.000 131.585,311.000 130.224,311.000 128.864,311.000 127.503,311.000 126.143,311.000 124.783,311.000 123.422,311.000 122.062,311.000 120.701,311.000 119.341,311.000 117.980,311.000 116.620,311.000 115.259,311.000 113.899,311.000 112.539,311.000 111.178,311.000 109.818,311.000 108.457,311.000 107.097,311.000 105.736,311.000" fill="rgba(255,127,14,1.000)" stroke="none" stroke-width="0.000" fill-opacity="0.500" stroke-opacity="0.000" clip-path="url(#plot-clip-area)" />
<path d="M 105.736 311.000 L 107.097 311.000 L 108.457 311.000 L 109.818 311.000 L 111.178 311.000 L 112.539 311.000 L 113.899 311.000 L 115.259 311.000 L 116.620 311.000 L 117.980 311.000 L 119.341 311.000 L 120.701 311.000 L 122.062 311.000 L 123.422 311.000 L 124.783 311.000 L 126.143 311.000 L 127.503 311.000 L 128.864 311.000 L 130.224 311.000 L 131.585 311.000 L 132.945 310.999 L 134.306 310.999 L 135.666 310.998 L 137.026 310.997 L 138.387 310.996 L 139.747 310.993 L 141.108 310.989 L 142.468 310.983 L 143.829 310.974 L 145.189 310.961 L 146.550 310.942 L 147.910 310.915 L 149.270 310.876 L 150.631 310.822 L 151.991 310.747 L 153.352 310.645 L 154.712 310.509 L 156.073 310.328 L 157.433 310.091 L 158.793 309.787 L 160.154 309.399 L 161.514 308.914 L 162.875 308.314 L 164.235 307.582 L 165.596 306.702 L 166.956 305.659 L 168.317 304.439 L 169.677 303.034 L 171.037 301.437 L 172.398 299.647 L 173.758 297.671 L 175.119 295.517 L 176.479 293.203 L 177.840 290.749 L 179.200 288.179 L 180.560 285.519 L 181.921 282.793 L 183.281 280.025 L 184.642 277.229 L 186.002 274.414 L 187.363 271.578 L 188.723 268.707 L 190.084 265.775 L 191.444 262.744 L 192.804 259.566 L 194.165 256.185 L 195.525 252.544 L 196.886 248.585 L 198.246 244.257 L 199.607 239.521 L 200.967 234.353 L 202.328 228.753 L 203.688 222.740 L 205.048 216.362 L 206.409 209.691 L 207.769 202.820 L 209.130 195.862 L 210.490 188.944 L 211.851 182.198 L 213.211 175.759 L 214.571 169.752 L 215.932 164.290 L 217.292 159.465 L 218.653 155.347 L 220.013 151.979 L 221.374 149.376 L 222.734 147.531 L 224.095 146.410 L 225.455 145.964 L 226.815 146.129 L 228.176 146.832 L 229.536 148.001 L 230.897 149.561 L 232.257 151.447 L 233.618 153.601 L 234.978 155.973 L 236.338 158.527 L 237.699 161.234 L 239.059 164.073 L 240.420 167.029 L 241.780 170.090 L 243.141 173.243 L 244.501 176.478 L 245.862 179.779 L 247.222 183.130 L 248.582 186.509 L 249.943 189.895 L 251.303 193.264 L 252.664 196.594 L 254.024 199.865 L 255.385 203.063 L 256.745 206.177 L 258.105 209.207 L 259.466 212.157 L 260.826 215.040 L 262.187 217.875 L 263.547 220.689 L 264.908 223.508 L 266.268 226.364 L 267.629 229.286 L 268.989 232.300 L 270.349 235.428 L 271.710 238.686 L 273.070 242.080 L 274.431 245.610 L 275.791 249.266 L 277.152 253.030 L 278.512 256.879 L 279.873 260.782 L 281.233 264.705 L 282.593 268.610 L 283.954 272.458 L 285.314 276.214 L 286.675 279.841 L 288.035 283.308 L 289.396 286.587 L 290.756 289.655 L 292.116 292.496 L 293.477 295.098 L 294.837 297.457 L 296.198 299.571 L 297.558 301.445 L 298.919 303.088 L 300.279 304.513 L 301.640 305.734 L 303.000 306.768 L 304.360 307.635 L 305.721 308.352 L 307.081 308.939 L 308.442 309.413 L 309.802 309.791 L 311.163 310.090 L 312.523 310.323 L 313.883 310.501 L 315.244 310.637 L 316.604 310.739 L 317.965 310.815 L 319.325 310.870 L 320.686 310.910 L 322.046 310.938 L 323.407 310.958 L 324.767 310.972 L 326.127 310.982 L 327.488 310.988 L 328.848 310.992 L 330.209 310.995 L 331.569 310.997 L 332.930 310.998 L 334.290 310.999 L 335.651 310.999 L 337.011 311.000 L 338.371 311.000 L 339.732 311.000 L 341.092 311.000 L 342.453 311.000 L 343.813 311.000 L 345.174 311.000 L 346.534 311.000 L 347.894 311.000 L 349.255 311.000 L 350.615 311.000 L 351.976 311.000 L 353.336 311.000 L 354.697 311.000 L 356.057 311.000 L 357.418 311.000 L 358.778 311.000 L 360.138 311.000 L 361.499 311.000 L 362.859 311.000 L 364.220 311.000 L 365.580 311.000 L 366.941 311.000 L 368.301 311.000 L 369.661 311.000 L 371.022 311.000 L 372.382 311.000 L 373.743 311.000 L 375.103 311.000 L 376.464 311.000" stroke="rgba(255,127,14,1.000)" stroke-width="1.000" stroke-opacity="1.000" fill="none" stroke-linejoin="round" stroke-linecap="round" clip-path="url(#plot-clip-area)" />
<polygon points="105.736,311.000 107.097,311.000 108.457,311.000 109.818,311.000 111.178,311.000 112.539,311.000 113.899,311.000 115.259,311.000 116.620,311.000 117.980,311.000 119.341,311.000 120.701,311.000 122.062,310.999 123.422,310.999 124.783,310.999 126.143,310.998 127.503,310.998 128.864,310.996 130.224,310.995 131.585,310.993 132.945,310.990 134.306,310.986 135.666,310.981 137.026,310.974 138.387,310.964 139.747,310.952 141.108,310.936 142.468,310.916 143.829,310.890 145.189,310.857 146.550,310.816 147.910,310.766 149.270,310.704 150.631,310.629 151.991,310.539 153.352,310.432 154.712,310.307 156.073,310.161 157.433,309.994 158.793,309.803 160.154,309.589 161.514,309.350 162.875,309.088 164.235,308.802 165.596,308.495 166.956,308.170 168.317,307.828 169.677,307.475 171.037,307.114 172.398,306.751 173.758,306.389 175.119,306.034 176.479,305.690 177.840,305.361 179.200,305.049 180.560,304.757 181.921,304.483 183.281,304.225 184.642,303.980 186.002,303.740 187.363,303.497 188.723,303.239 190.084,302.953 191.444,302.623 192.804,302.232 194.165,301.763 195.525,301.195 196.886,300.510 198.246,299.689 199.607,298.712 200.967,297.564 202.328,296.230 203.688,294.696 205.048,292.953 206.409,290.995 207.769,288.818 209.130,286.420 210.490,283.806 211.851,280.980 213.211,277.950 214.571,274.726 215.932,271.321 217.292,267.747 218.653,264.017 220.013,260.145 221.374,256.144 222.734,252.027 224.095,247.805 225.455,243.492 226.815,239.096 228.176,234.630 229.536,230.105 230.897,225.533 232.257,220.928 233.618,216.306 234.978,211.688 236.338,207.094 237.699,202.551 239.059,198.091 240.420,193.745 241.780,189.551 243.141,185.548 244.501,181.777 245.862,178.280 247.222,175.096 248.582,172.265 249.943,169.821 251.303,167.794 252.664,166.210 254.024,165.086 255.385,164.432 256.745,164.251 258.105,164.540 259.466,165.285 260.826,166.468 262.187,168.063 263.547,170.039 264.908,172.362 266.268,174.992 267.629,177.891 268.989,181.015 270.349,184.322 271.710,187.772 273.070,191.324 274.431,194.939 275.791,198.583 277.152,202.222 278.512,205.825 279.873,209.367 281.233,212.823 282.593,216.173 283.954,219.399 285.314,222.489 286.675,225.430 288.035,228.215 289.396,230.839 290.756,233.299 292.116,235.594 293.477,237.729 294.837,239.706 296.198,241.535 297.558,243.224 298.919,244.784 300.279,246.231 301.640,247.579 303.000,248.848 304.360,250.055 305.721,251.223 307.081,252.372 308.442,253.525 309.802,254.704 311.163,255.930 312.523,257.222 313.883,258.599 315.244,260.074 316.604,261.658 317.965,263.359 319.325,265.178 320.686,267.115 322.046,269.162 323.407,271.310 324.767,273.543 326.127,275.843 327.488,278.191 328.848,280.564 330.209,282.938 331.569,285.289 332.930,287.596 334.290,289.836 335.651,291.990 337.011,294.042 338.371,295.976 339.732,297.783 341.092,299.455 342.453,300.987 343.813,302.378 345.174,303.630 346.534,304.746 347.894,305.731 349.255,306.594 350.615,307.343 351.976,307.987 353.336,308.536 354.697,309.000 356.057,309.389 357.418,309.712 358.778,309.978 360.138,310.195 361.499,310.371 362.859,310.512 364.220,310.625 365.580,310.713 366.941,310.783 368.301,310.837 369.661,310.878 371.022,310.910 372.382,310.934 373.743,310.952 375.103,310.965 376.464,310.975 376.464,311.000 375.103,311.000 373.743,311.000 372.382,311.000 371.022,311.000 369.661,311.000 368.301,311.000 366.941,311.000 365.580,311.000 364.220,311.000 362.859,311.000 361.499,311.000 360.138,311.000 358.778,311.000 357.418,311.000 356.057,311.000 354.697,311.000 353.336,311.000 351.976,311.000 350.615,311.000 349.255,311.000 347.894,311.000 346.534,311.000 345.174,311.000 343.813,311.000 342.453,311.000 341.092,311.000 339.732,311.000 338.371,311.000 337.011,311.000 335.651,311.000 334.290,311.000 332.930,311.000 331.569,311.000 330.209,311.000 328.848,311.000 327.488,311.000 326.127,311.000 324.767,311.000 323.407,311.000 322.046,311.000 320.686,311.000 319.325,311.000 317.965,311.000 316.604,311.000 315.244,311.000 313.883,311.000 312.523,311.000 311.163,311.000 309.802,311.000 308.442,311.000 307.081,311.000 305.721,311.000 304.360,311.000 303.000,311.000 301.640,311.000 300.279,311.000 298.919,311.000 297.558,311.000 296.198,311.000 294.837,311.000 293.477,311.000 292.116,311.000 290.756,311.000 289.396,311.000 288.035,311.000 286.675,311.000 285.314,311.000 283.954,311.000 282.593,311.000 281.233,311.000 279.873,311.000 278.512,311.000 277.152,311.000 275.791,311.000 274.431,311.000 273.070,311.000 271.710,311.000 270.349,311.000 268.989,311.000 267.629,311.000 266.268,311.000 264.908,311.000 263.547,311.000 262.187,311.000 260.826,311.000 259.466,311.000 258.105,311.000 256.745,311.000 255.385,311.000 254.024,311.000 252.664,311.000 251.303,311.000 249.943,311.000 248.582,311.000 247.222,311.000 245.862,311.000 244.501,311.000 243.141,311.000 241.780,311.000 240.420,311.000 239.059,311.000 237.699,311.000 236.338,311.000 234.978,311.000 233.618,311.000 232.257,311.000 230.897,311.000 229.536,311.000 228.176,311.000 226.815,311.000 225.455,311.000 224.095,311.000 222.734,311.000 221.374,311.000 220.013,311.000 218.653,311.000 217.292,311.000 215.932,311.000 214.571,311.000 213.211,311.000 211.851,311.000 210.490,311.000 209.130,311.000 207.769,311.000 206.409,311.000 205.048,311.000 203.688,311.000 202.328,311.000 200.967,311.000 199.607,311.000 198.246,311.000 196.886,311.000 195.525,311.000 194.165,311.000 192.804,311.000 191.444,311.000 190.084,311.000 188.723,311.000 187.363,311.000 186.002,311.000 184.642,311.000 183.281,311.000 181.921,311.000 180.560,311.000 179.200,311.000 177.840,311.000 176.479,311.000 175.119,311.000 173.758,311.000 172.398,311.000 171.037,311.000 169.677,311.000 168.317,311.000 166.956,311.000 165.596,311.000 164.235,311.000 162.875,311.000 161.514,311.000 160.154,311.000 158.793,311.000 157.433,311.000 156.073,311.000 154.712,311.000 153.352,311.000 151.991,311.000 150.631,311.000 149.270,311.000 147.910,311.000 146.550,311.000 145.189,311.000 143.829,311.000 142.468,311.000 141.108,311.000 139.747,311.000 138.387,311.000 137.026,311.000 135.666,311.000 134.306,311.000 132.945,311.000 131.585,311.000 130.224,311.000 128.864,311.000 127.503,311.000 126.143,311.000 124.783,311.000 123.422,311.000 122.062,311.000 120.701,311.000 119.341,311.000 117.980,311.000 116.620,311.000 115.259,311.000 113.899,311.000 112.539,311.000 111.178,311.000 109.818,311.000 108.457,311.000 107.097,311.000 105.736,311.000" fill="rgba(44,160,44,1.000)" stroke="none" stroke-width="0.000" fill-opacity="0.500" stroke-opacity="0.000" clip-path="url(#plot-clip-area)" />
<path d="M 105.736 311.000 L 107.097 311.000 L 108.457 311.000 L 109.818 311.000 L 111.178 311.000 L 112.539 311.000 L 113.899 311.000 L 115.259 311.000 L 116.620 311.000 L 117.980 311.000 L 119.341 311.000 L 120.701 311.000 L 122.062 310.999 L 123.422 310.999 L 124.783 310.999 L 126.143 310.998 L 127.503 310.998 L 128.864 310.996 L 130.224 310.995 L 131.585 310.993 L 132.945 310.990 L 134.306 310.986 L 135.666 310.981 L 137.026 310.974 L 138.387 310.964 L 139.747 310.952 L 141.108 310.936 L 142.468 310.916 L 143.829 310.890 L 145.189 310.857 L 146.550 310.816 L 147.910 310.766 L 149.270 310.704 L 150.631 310.629 L 151.991 310.539 L 153.352 310.432 L 154.712 310.307 L 156.073 310.161 L 157.433 309.994 L 158.793 309.803 L 160.154 309.589 L 161.514 309.350 L 162.875 309.088 L 164.235 308.802 L 165.596 308.495 L 166.956 308.170 L 168.317 307.828 L 169.677 307.475 L 171.037 307.114 L 172.398 306.751 L 173.758 306.389 L 175.119 306.034 L 176.479 305.690 L 177.840 305.361 L 179.200 305.049 L 180.560 304.757 L 181.921 304.483 L 183.281 304.225 L 184.642 303.980 L 186.002 303.740 L 187.363 303.497 L 188.723 303.239 L 190.084 302.953 L 191.444 302.623 L 192.804 302.232 L 194.165 301.763 L 195.525 301.195 L 196.886 300.510 L 198.246 299.689 L 199.607 298.712 L 200.967 297.564 L 202.328 296.230 L 203.688 294.696 L 205.048 292.953 L 206.409 290.995 L 207.769 288.818 L 209.130 286.420 L 210.490 283.806 L 211.851 280.980 L 213.211 277.950 L 214.571 274.726 L 215.932 271.321 L 217.292 267.747 L 218.653 264.017 L 220.013 260.145 L 221.374 256.144 L 222.734 252.027 L 224.095 247.805 L 225.455 243.492 L 226.815 239.096 L 228.176 234.630 L 229.536 230.105 L 230.897 225.533 L 232.257 220.928 L 233.618 216.306 L 234.978 211.688 L 236.338 207.094 L 237.699 202.551 L 239.059 198.091 L 240.420 193.745 L 241.780 189.551 L 243.141 185.548 L 244.501 181.777 L 245.862 178.280 L 247.222 175.096 L 248.582 172.265 L 249.943 169.821 L 251.303 167.794 L 252.664 166.210 L 254.024 165.086 L 255.385 164.432 L 256.745 164.251 L 258.105 164.540 L 259.466 165.285 L 260.826 166.468 L 262.187 168.063 L 263.547 170.039 L 264.908 172.362 L 266.268 174.992 L 267.629 177.891 L 268.989 181.015 L 270.349 184.322 L 271.710 187.772 L 273.070 191.324 L 274.431 194.939 L 275.791 198.583 L 277.152 202.222 L 278.512 205.825 L 279.873 209.367 L 281.233 212.823 L 282.593 216.173 L 283.954 219.399 L 285.314 222.489 L 286.675 225.430 L 288.035 228.215 L 289.396 230.839 L 290.756 233.299 L 292.116 235.594 L 293.477 237.729 L 294.837 239.706 L 296.198 241.535 L 297.558 243.224 L 298.919 244.784 L 300.279 246.231 L 301.640 247.579 L 303.000 248.848 L 304.360 250.055 L 305.721 251.223 L 307.081 252.372 L 308.442 253.525 L 309.802 254.704 L 311.163 255.930 L 312.523 257.222 L 313.883 258.599 L 315.244 260.074 L 316.604 261.658 L 317.965 263.359 L 319.325 265.178 L 320.686 267.115 L 322.046 269.162 L 323.407 271.310 L 324.767 273.543 L 326.127 275.843 L 327.488 278.191 L 328.848 280.564 L 330.209 282.938 L 331.569 285.289 L 332.930 287.596 L 334.290 289.836 L 335.651 291.990 L 337.011 294.042 L 338.371 295.976 L 339.732 297.783 L 341.092 299.455 L 342.453 300.987 L 343.813 302.378 L 345.174 303.630 L 346.534 304.746 L 347.894 305.731 L 349.255 306.594 L 350.615 307.343 L 351.976 307.987 L 353.336 308.536 L 354.697 309.000 L 356.057 309.389 L 357.418 309.712 L 358.778 309.978 L 360.138 310.195 L 361.499 310.371 L 362.859 310.512 L 364.220 310.625 L 365.580 310.713 L 366.941 310.783 L 368.301 310.837 L 369.661 310.878 L 371.022 310.910 L 372.382 310.934 L 373.743 310.952 L 375.103 310.965 L 376.464 310.975" stroke="rgba(44,160,44,1.000)" stroke-width="1.000" stroke-opacity="1.000" fill="none" stroke-linejoin="round" stroke-linecap="round" clip-path="url(#plot-clip-area)" />
<text x="405.000" y="49.600" font-size="13.2" font-family="Inter, -apple-system, BlinkMacSystemFont, 'Segoe UI', Roboto, Helvetica, Arial, 'PingFang SC', 'Microsoft YaHei', Ubuntu, Cantarell, 'Noto Sans', sans-serif" fill="rgba(51,51,51,1.000)" fill-opacity="1.000" text-anchor="start" font-weight="bold">species</text>
<circle cx="414.000" cy="69.200" r="5.000" fill="rgba(31,119,180,1.000)" stroke="none" stroke-width="0.000" fill-opacity="1.000" stroke-opacity="1.000" />
<text x="431.000" y="73.700" font-size="12.0" font-family="Inter, -apple-system, BlinkMacSystemFont, 'Segoe UI', Roboto, Helvetica, Arial, 'PingFang SC', 'Microsoft YaHei', Ubuntu, Cantarell, 'Noto Sans', sans-serif" fill="rgba(51,51,51,1.000)" fill-opacity="1.000" text-anchor="start" font-weight="normal">setosa</text>
<circle cx="414.000" cy="90.200" r="5.000" fill="rgba(255,127,14,1.000)" stroke="none" stroke-width="0.000" fill-opacity="1.000" stroke-opacity="1.000" />
<text x="431.000" y="94.700" font-size="12.0" font-family="Inter, -apple-system, BlinkMacSystemFont, 'Segoe UI', Roboto, Helvetica, Arial, 'PingFang SC', 'Microsoft YaHei', Ubuntu, Cantarell, 'Noto Sans', sans-serif" fill="rgba(51,51,51,1.000)" fill-opacity="1.000" text-anchor="start" font-weight="normal">versicolor</text>
<circle cx="414.000" cy="111.200" r="5.000" fill="rgba(44,160,44,1.000)" stroke="none" stroke-width="0.000" fill-opacity="1.000" stroke-opacity="1.000" />
<text x="431.000" y="115.700" font-size="12.0" font-family="Inter, -apple-system, BlinkMacSystemFont, 'Segoe UI', Roboto, Helvetica, Arial, 'PingFang SC', 'Microsoft YaHei', Ubuntu, Cantarell, 'Noto Sans', sans-serif" fill="rgba(51,51,51,1.000)" fill-opacity="1.000" text-anchor="start" font-weight="normal">virginica</text>
</svg>