<svg width="500" height="400" viewBox="0 0 500 400" xmlns="http://www.w3.org/2000/svg"><rect width="100%" height="100%" fill="rgba(255,255,255,1.000)" /><text x="250.00" y="10.00" text-anchor="middle" dominant-baseline="middle" font-family="Inter, -apple-system, BlinkMacSystemFont, 'Segoe UI', Roboto, Helvetica, Arial, 'PingFang SC', 'Microsoft YaHei', Ubuntu, Cantarell, 'Noto Sans', sans-serif" font-size="18" fill="rgba(51,51,51,1.000)" font-weight="bold">Cumulative Density Estimation</text>
<line x1="92.20" y1="311.00" x2="485.00" y2="311.00" stroke="rgba(51,51,51,1.000)" stroke-width="1" stroke-linecap="square"/>
<line x1="130.12" y1="311.00" x2="130.12" y2="317.00" stroke="rgba(51,51,51,1.000)" stroke-width="1.0"/>
<text x="130.12" y="320.00" font-size="13" font-family="Inter, -apple-system, BlinkMacSystemFont, 'Segoe UI', Roboto, Helvetica, Arial, 'PingFang SC', 'Microsoft YaHei', Ubuntu, Cantarell, 'Noto Sans', sans-serif" fill="rgba(51,51,51,1.000)" text-anchor="middle" dominant-baseline="hanging">6.0</text>
<line x1="189.15" y1="311.00" x2="189.15" y2="317.00" stroke="rgba(51,51,51,1.000)" stroke-width="1.0"/>
<text x="189.15" y="320.00" font-size="13" font-family="Inter, -apple-system, BlinkMacSystemFont, 'Segoe UI', Roboto, Helvetica, Arial, 'PingFang SC', 'Microsoft YaHei', Ubuntu, Cantarell, 'Noto Sans', sans-serif" fill="rgba(51,51,51,1.000)" text-anchor="middle" dominant-baseline="hanging">6.5</text>
<line x1="248.18" y1="311.00" x2="248.18" y2="317.00" stroke="rgba(51,51,51,1.000)" stroke-width="1.0"/>
<text x="248.18" y="320.00" font-size="13" font-family="Inter, -apple-system, BlinkMacSystemFont, 'Segoe UI', Roboto, Helvetica, Arial, 'PingFang SC', 'Microsoft YaHei', Ubuntu, Cantarell, 'Noto Sans', sans-serif" fill="rgba(51,51,51,1.000)" text-anchor="middle" dominant-baseline="hanging">7.0</text>
<line x1="307.21" y1="311.00" x2="307.21" y2="317.00" stroke="rgba(51,51,51,1.000)" stroke-width="1.0"/>
<text x="307.21" y="320.00" font-size="13" font-family="Inter, -apple-system, BlinkMacSystemFont, 'Segoe UI', Roboto, Helvetica, Arial, 'PingFang SC', 'Microsoft YaHei', Ubuntu, Cantarell, 'Noto Sans', sans-serif" fill="rgba(51,51,51,1.000)" text-anchor="middle" dominant-baseline="hanging">7.5</text>
<line x1="366.23" y1="311.00" x2="366.23" y2="317.00" stroke="rgba(51,51,51,1.000)" stroke-width="1.0"/>
<text x="366.23" y="320.00" font-size="13" font-family="Inter, -apple-system, BlinkMacSystemFont, 'Segoe UI', Roboto, Helvetica, Arial, 'PingFang SC', 'Microsoft YaHei', Ubuntu, Cantarell, 'Noto Sans', sans-serif" fill="rgba(51,51,51,1.000)" text-anchor="middle" dominant-baseline="hanging">8.0</text>
<line x1="425.26" y1="311.00" x2="425.26" y2="317.00" stroke="rgba(51,51,51,1.000)" stroke-width="1.0"/>
<text x="425.26" y="320.00" font-size="13" font-family="Inter, -apple-system, BlinkMacSystemFont, 'Segoe UI', Roboto, Helvetica, Arial, 'PingFang SC', 'Microsoft YaHei', Ubuntu, Cantarell, 'Noto Sans', sans-serif" fill="rgba(51,51,51,1.000)" text-anchor="middle" dominant-baseline="hanging">8.5</text>
<line x1="484.29" y1="311.00" x2="484.29" y2="317.00" stroke="rgba(51,51,51,1.000)" stroke-width="1.0"/>
<text x="484.29" y="320.00" font-size="13" font-family="Inter, -apple-system, BlinkMacSystemFont, 'Segoe UI', Roboto, Helvetica, Arial, 'PingFang SC', 'Microsoft YaHei', Ubuntu, Cantarell, 'Noto Sans', sans-serif" fill="rgba(51,51,51,1.000)" text-anchor="middle" dominant-baseline="hanging">9.0</text>
<text x="288.60" y="340.00" text-anchor="middle" font-size="15" font-family="Inter, -apple-system, BlinkMacSystemFont, 'Segoe UI', Roboto, Helvetica, Arial, 'PingFang SC', 'Microsoft YaHei', Ubuntu, Cantarell, 'Noto Sans', sans-serif" fill="rgba(51,51,51,1.000)" font-weight="bold" dominant-baseline="hanging">IMDB Rating</text>
<line x1="92.20" y1="40.00" x2="92.20" y2="311.00" stroke="rgba(51,51,51,1.000)" stroke-width="1" stroke-linecap="square"/>
<line x1="92.20" y1="311.00" x2="86.20" y2="311.00" stroke="rgba(51,51,51,1.000)" stroke-width="1.0"/>
<text x="82.20" y="311.00" font-size="13" font-family="Inter, -apple-system, BlinkMacSystemFont, 'Segoe UI', Roboto, Helvetica, Arial, 'PingFang SC', 'Microsoft YaHei', Ubuntu, Cantarell, 'Noto Sans', sans-serif" fill="rgba(51,51,51,1.000)" text-anchor="end" dominant-baseline="central">0.0</text>
<line x1="92.20" y1="259.38" x2="86.20" y2="259.38" stroke="rgba(51,51,51,1.000)" stroke-width="1.0"/>
<text x="82.20" y="259.38" font-size="13" font-family="Inter, -apple-system, BlinkMacSystemFont, 'Segoe UI', Roboto, Helvetica, Arial, 'PingFang SC', 'Microsoft YaHei', Ubuntu, Cantarell, 'Noto Sans', sans-serif" fill="rgba(51,51,51,1.000)" text-anchor="end" dominant-baseline="central">0.2</text>
<line x1="92.20" y1="207.76" x2="86.20" y2="207.76" stroke="rgba(51,51,51,1.000)" stroke-width="1.0"/>
<text x="82.20" y="207.76" font-size="13" font-family="Inter, -apple-system, BlinkMacSystemFont, 'Segoe UI', Roboto, Helvetica, Arial, 'PingFang SC', 'Microsoft YaHei', Ubuntu, Cantarell, 'Noto Sans', sans-serif" fill="rgba(51,51,51,1.000)" text-anchor="end" dominant-baseline="central">0.4</text>
<line x1="92.20" y1="156.14" x2="86.20" y2="156.14" stroke="rgba(51,51,51,1.000)" stroke-width="1.0"/>
<text x="82.20" y="156.14" font-size="13" font-family="Inter, -apple-system, BlinkMacSystemFont, 'Segoe UI', Roboto, Helvetica, Arial, 'PingFang SC', 'Microsoft YaHei', Ubuntu, Cantarell, 'Noto Sans', sans-serif" fill="rgba(51,51,51,1.000)" text-anchor="end" dominant-baseline="central">0.6</text>
<line x1="92.20" y1="104.52" x2="86.20" y2="104.52" stroke="rgba(51,51,51,1.000)" stroke-width="1.0"/>
<text x="82.20" y="104.52" font-size="13" font-family="Inter, -apple-system, BlinkMacSystemFont, 'Segoe UI', Roboto, Helvetica, Arial, 'PingFang SC', 'Microsoft YaHei', Ubuntu, Cantarell, 'Noto Sans', sans-serif" fill="rgba(51,51,51,1.000)" text-anchor="end" dominant-baseline="central">0.8</text>
<line x1="92.20" y1="52.90" x2="86.20" y2="52.90" stroke="rgba(51,51,51,1.000)" stroke-width="1.0"/>
<text x="82.20" y="52.90" font-size="13" font-family="Inter, -apple-system, BlinkMacSystemFont, 'Segoe UI', Roboto, Helvetica, Arial, 'PingFang SC', 'Microsoft YaHei', Ubuntu, Cantarell, 'Noto Sans', sans-serif" fill="rgba(51,51,51,1.000)" text-anchor="end" dominant-baseline="central">1.0</text>
<text x="47.50" y="175.50" text-anchor="middle" font-size="15" font-family="Inter, -apple-system, BlinkMacSystemFont, 'Segoe UI', Roboto, Helvetica, Arial, 'PingFang SC', 'Microsoft YaHei', Ubuntu, Cantarell, 'Noto Sans', sans-serif" fill="rgba(51,51,51,1.000)" font-weight="bold" transform="rotate(-90, 47.50, 175.50)" dominant-baseline="middle">Cumulative Density</text>
<defs><clipPath id="plot-clip-area"><rect x="92.200" y="40.000" width="392.800" height="271.000" /></clipPath></defs>
<path d="M 92.200 311.000 L 485.000 311.000" stroke="rgba(136,136,136,1.000)" stroke-width="1.000" stroke-opacity="0.500" fill="none" stroke-linejoin="round" stroke-linecap="round" stroke-dasharray="4,4" clip-path="url(#plot-clip-area)" />
<polygon points="110.055,310.973 111.849,310.942 113.643,310.906 115.438,310.865 117.232,310.819 119.027,310.766 120.821,310.707 122.616,310.639 124.410,310.564 126.204,310.478 127.999,310.383 129.793,310.276 131.588,310.157 133.382,310.024 135.177,309.877 136.971,309.715 138.765,309.535 140.560,309.338 142.354,309.121 144.149,308.884 145.943,308.624 147.738,308.341 149.532,308.034 151.326,307.700 153.121,307.339 154.915,306.948 156.710,306.528 158.504,306.076 160.298,305.591 162.093,305.072 163.887,304.518 165.682,303.928 167.476,303.300 169.271,302.634 171.065,301.928 172.859,301.182 174.654,300.395 176.448,299.567 178.243,298.696 180.037,297.783 181.832,296.828 183.626,295.829 185.420,294.787 187.215,293.702 189.009,292.575 190.804,291.404 192.598,290.191 194.393,288.936 196.187,287.639 197.981,286.301 199.776,284.923 201.570,283.506 203.365,282.050 205.159,280.556 206.954,279.025 208.748,277.459 210.542,275.858 212.337,274.222 214.131,272.555 215.926,270.855 217.720,269.126 219.515,267.366 221.309,265.579 223.103,263.765 224.898,261.925 226.692,260.060 228.487,258.172 230.281,256.261 232.076,254.328 233.870,252.375 235.664,250.403 237.459,248.412 239.253,246.404 241.048,244.379 242.842,242.339 244.637,240.284 246.431,238.215 248.225,236.133 250.020,234.038 251.814,231.932 253.609,229.815 255.403,227.687 257.198,225.549 258.992,223.402 260.786,221.246 262.581,219.082 264.375,216.910 266.170,214.731 267.964,212.544 269.758,210.350 271.553,208.149 273.347,205.942 275.142,203.728 276.936,201.509 278.731,199.283 280.525,197.052 282.319,194.814 284.114,192.571 285.908,190.322 287.703,188.068 289.497,185.808 291.292,183.543 293.086,181.273 294.880,178.998 296.675,176.718 298.469,174.433 300.264,172.143 302.058,169.850 303.853,167.552 305.647,165.251 307.441,162.947 309.236,160.641 311.030,158.333 312.825,156.023 314.619,153.713 316.414,151.403 318.208,149.094 320.002,146.787 321.797,144.483 323.591,142.182 325.386,139.887 327.180,137.597 328.975,135.315 330.769,133.042 332.563,130.778 334.358,128.526 336.152,126.286 337.947,124.060 339.741,121.850 341.536,119.657 343.330,117.482 345.124,115.327 346.919,113.193 348.713,111.083 350.508,108.997 352.302,106.937 354.097,104.905 355.891,102.902 357.685,100.930 359.480,98.989 361.274,97.082 363.069,95.209 364.863,93.372 366.658,91.573 368.452,89.812 370.246,88.090 372.041,86.409 373.835,84.770 375.630,83.173 377.424,81.619 379.218,80.110 381.013,78.646 382.807,77.226 384.602,75.853 386.396,74.526 388.191,73.246 389.985,72.012 391.780,70.825 393.574,69.685 395.368,68.592 397.163,67.546 398.957,66.545 400.752,65.591 402.546,64.682 404.340,63.818 406.135,62.998 407.929,62.221 409.724,61.487 411.518,60.794 413.313,60.142 415.107,59.528 416.902,58.954 418.696,58.416 420.490,57.913 422.285,57.445 424.079,57.010 425.874,56.606 427.668,56.233 429.462,55.888 431.257,55.570 433.051,55.278 434.846,55.011 436.640,54.766 438.435,54.543 440.229,54.340 442.023,54.156 443.818,53.989 445.612,53.838 447.407,53.703 449.201,53.581 450.996,53.472 452.790,53.374 454.584,53.288 456.379,53.210 458.173,53.142 459.968,53.082 461.762,53.028 463.557,52.982 465.351,52.941 467.145,52.905 467.145,311.000 465.351,311.000 463.557,311.000 461.762,311.000 459.968,311.000 458.173,311.000 456.379,311.000 454.584,311.000 452.790,311.000 450.996,311.000 449.201,311.000 447.407,311.000 445.612,311.000 443.818,311.000 442.023,311.000 440.229,311.000 438.435,311.000 436.640,311.000 434.846,311.000 433.051,311.000 431.257,311.000 429.462,311.000 427.668,311.000 425.874,311.000 424.079,311.000 422.285,311.000 420.490,311.000 418.696,311.000 416.902,311.000 415.107,311.000 413.313,311.000 411.518,311.000 409.724,311.000 407.929,311.000 406.135,311.000 404.340,311.000 402.546,311.000 400.752,311.000 398.957,311.000 397.163,311.000 395.368,311.000 393.574,311.000 391.780,311.000 389.985,311.000 388.191,311.000 386.396,311.000 384.602,311.000 382.807,311.000 381.013,311.000 379.218,311.000 377.424,311.000 375.630,311.000 373.835,311.000 372.041,311.000 370.246,311.000 368.452,311.000 366.658,311.000 364.863,311.000 363.069,311.000 361.274,311.000 359.480,311.000 357.685,311.000 355.891,311.000 354.097,311.000 352.302,311.000 350.508,311.000 348.713,311.000 346.919,311.000 345.124,311.000 343.330,311.000 341.536,311.000 339.741,311.000 337.947,311.000 336.152,311.000 334.358,311.000 332.563,311.000 330.769,311.000 328.975,311.000 327.180,311.000 325.386,311.000 323.591,311.000 321.797,311.000 320.002,311.000 318.208,311.000 316.414,311.000 314.619,311.000 312.825,311.000 311.030,311.000 309.236,311.000 307.441,311.000 305.647,311.000 303.853,311.000 302.058,311.000 300.264,311.000 298.469,311.000 296.675,311.000 294.880,311.000 293.086,311.000 291.292,311.000 289.497,311.000 287.703,311.000 285.908,311.000 284.114,311.000 282.319,311.000 280.525,311.000 278.731,311.000 276.936,311.000 275.142,311.000 273.347,311.000 271.553,311.000 269.758,311.000 267.964,311.000 266.170,311.000 264.375,311.000 262.581,311.000 260.786,311.000 258.992,311.000 257.198,311.000 255.403,311.000 253.609,311.000 251.814,311.000 250.020,311.000 248.225,311.000 246.431,311.000 244.637,311.000 242.842,311.000 241.048,311.000 239.253,311.000 237.459,311.000 235.664,311.000 233.870,311.000 232.076,311.000 230.281,311.000 228.487,311.000 226.692,311.000 224.898,311.000 223.103,311.000 221.309,311.000 219.515,311.000 217.720,311.000 215.926,311.000 214.131,311.000 212.337,311.000 210.542,311.000 208.748,311.000 206.954,311.000 205.159,311.000 203.365,311.000 201.570,311.000 199.776,311.000 197.981,311.000 196.187,311.000 194.393,311.000 192.598,311.000 190.804,311.000 189.009,311.000 187.215,311.000 185.420,311.000 183.626,311.000 181.832,311.000 180.037,311.000 178.243,311.000 176.448,311.000 174.654,311.000 172.859,311.000 171.065,311.000 169.271,311.000 167.476,311.000 165.682,311.000 163.887,311.000 162.093,311.000 160.298,311.000 158.504,311.000 156.710,311.000 154.915,311.000 153.121,311.000 151.326,311.000 149.532,311.000 147.738,311.000 145.943,311.000 144.149,311.000 142.354,311.000 140.560,311.000 138.765,311.000 136.971,311.000 135.177,311.000 133.382,311.000 131.588,311.000 129.793,311.000 127.999,311.000 126.204,311.000 124.410,311.000 122.616,311.000 120.821,311.000 119.027,311.000 117.232,311.000 115.438,311.000 113.643,311.000 111.849,311.000 110.055,311.000" fill="rgba(128,0,128,1.000)" stroke="none" stroke-width="0.000" fill-opacity="0.300" stroke-opacity="0.000" clip-path="url(#plot-clip-area)" />
<path d="M 110.055 310.973 L 111.849 310.942 L 113.643 310.906 L 115.438 310.865 L 117.232 310.819 L 119.027 310.766 L 120.821 310.707 L 122.616 310.639 L 124.410 310.564 L 126.204 310.478 L 127.999 310.383 L 129.793 310.276 L 131.588 310.157 L 133.382 310.024 L 135.177 309.877 L 136.971 309.715 L 138.765 309.535 L 140.560 309.338 L 142.354 309.121 L 144.149 308.884 L 145.943 308.624 L 147.738 308.341 L 149.532 308.034 L 151.326 307.700 L 153.121 307.339 L 154.915 306.948 L 156.710 306.528 L 158.504 306.076 L 160.298 305.591 L 162.093 305.072 L 163.887 304.518 L 165.682 303.928 L 167.476 303.300 L 169.271 302.634 L 171.065 301.928 L 172.859 301.182 L 174.654 300.395 L 176.448 299.567 L 178.243 298.696 L 180.037 297.783 L 181.832 296.828 L 183.626 295.829 L 185.420 294.787 L 187.215 293.702 L 189.009 292.575 L 190.804 291.404 L 192.598 290.191 L 194.393 288.936 L 196.187 287.639 L 197.981 286.301 L 199.776 284.923 L 201.570 283.506 L 203.365 282.050 L 205.159 280.556 L 206.954 279.025 L 208.748 277.459 L 210.542 275.858 L 212.337 274.222 L 214.131 272.555 L 215.926 270.855 L 217.720 269.126 L 219.515 267.366 L 221.309 265.579 L 223.103 263.765 L 224.898 261.925 L 226.692 260.060 L 228.487 258.172 L 230.281 256.261 L 232.076 254.328 L 233.870 252.375 L 235.664 250.403 L 237.459 248.412 L 239.253 246.404 L 241.048 244.379 L 242.842 242.339 L 244.637 240.284 L 246.431 238.215 L 248.225 236.133 L 250.020 234.038 L 251.814 231.932 L 253.609 229.815 L 255.403 227.687 L 257.198 225.549 L 258.992 223.402 L 260.786 221.246 L 262.581 219.082 L 264.375 216.910 L 266.170 214.731 L 267.964 212.544 L 269.758 210.350 L 271.553 208.149 L 273.347 205.942 L 275.142 203.728 L 276.936 201.509 L 278.731 199.283 L 280.525 197.052 L 282.319 194.814 L 284.114 192.571 L 285.908 190.322 L 287.703 188.068 L 289.497 185.808 L 291.292 183.543 L 293.086 181.273 L 294.880 178.998 L 296.675 176.718 L 298.469 174.433 L 300.264 172.143 L 302.058 169.850 L 303.853 167.552 L 305.647 165.251 L 307.441 162.947 L 309.236 160.641 L 311.030 158.333 L 312.825 156.023 L 314.619 153.713 L 316.414 151.403 L 318.208 149.094 L 320.002 146.787 L 321.797 144.483 L 323.591 142.182 L 325.386 139.887 L 327.180 137.597 L 328.975 135.315 L 330.769 133.042 L 332.563 130.778 L 334.358 128.526 L 336.152 126.286 L 337.947 124.060 L 339.741 121.850 L 341.536 119.657 L 343.330 117.482 L 345.124 115.327 L 346.919 113.193 L 348.713 111.083 L 350.508 108.997 L 352.302 106.937 L 354.097 104.905 L 355.891 102.902 L 357.685 100.930 L 359.480 98.989 L 361.274 97.082 L 363.069 95.209 L 364.863 93.372 L 366.658 91.573 L 368.452 89.812 L 370.246 88.090 L 372.041 86.409 L 373.835 84.770 L 375.630 83.173 L 377.424 81.619 L 379.218 80.110 L 381.013 78.646 L 382.807 77.226 L 384.602 75.853 L 386.396 74.526 L 388.191 73.246 L 389.985 72.012 L 391.780 70.825 L 393.574 69.685 L 395.368 68.592 L 397.163 67.546 L 398.957 66.545 L 400.752 65.591 L 402.546 64.682 L 404.340 63.818 L 406.135 62.998 L 407.929 62.221 L 409.724 61.487 L 411.518 60.794 L 413.313 60.142 L 415.107 59.528 L 416.902 58.954 L 418.696 58.416 L 420.490 57.913 L 422.285 57.445 L 424.079 57.010 L 425.874 56.606 L 427.668 56.233 L 429.462 55.888 L 431.257 55.570 L 433.051 55.278 L 434.846 55.011 L 436.640 54.766 L 438.435 54.543 L 440.229 54.340 L 442.023 54.156 L 443.818 53.989 L 445.612 53.838 L 447.407 53.703 L 449.201 53.581 L 450.996 53.472 L 452.790 53.374 L 454.584 53.288 L 456.379 53.210 L 458.173 53.142 L 459.968 53.082 L 461.762 53.028 L 463.557 52.982 L 465.351 52.941 L 467.145 52.905" stroke="rgba(128,0,128,1.000)" stroke-width="1.000" stroke-opacity="1.000" fill="none" stroke-linejoin="round" stroke-linecap="round" clip-path="url(#plot-clip-area)" />
</svg>