<svg width="500" height="400" viewBox="0 0 500 400" xmlns="http://www.w3.org/2000/svg"><rect width="100%" height="100%" fill="rgba(255,255,255,1.000)" /><text x="250.00" y="10.00" text-anchor="middle" dominant-baseline="middle" font-family="Inter, -apple-system, BlinkMacSystemFont, 'Segoe UI', Roboto, Helvetica, Arial, 'PingFang SC', 'Microsoft YaHei', Ubuntu, Cantarell, 'Noto Sans', sans-serif" font-size="18" fill="rgba(51,51,51,1.000)" font-weight="bold">Cumulative Density Estimation</text>
<line x1="87.20" y1="316.00" x2="485.00" y2="316.00" stroke="rgba(51,51,51,1.000)" stroke-width="1" stroke-linecap="square"/>
<line x1="125.61" y1="316.00" x2="125.61" y2="322.00" stroke="rgba(51,51,51,1.000)" stroke-width="1.0"/>
<text x="125.61" y="325.00" font-size="13" font-family="Inter, -apple-system, BlinkMacSystemFont, 'Segoe UI', Roboto, Helvetica, Arial, 'PingFang SC', 'Microsoft YaHei', Ubuntu, Cantarell, 'Noto Sans', sans-serif" fill="rgba(51,51,51,1.000)" text-anchor="middle" dominant-baseline="hanging">6.0</text>
<line x1="185.39" y1="316.00" x2="185.39" y2="322.00" stroke="rgba(51,51,51,1.000)" stroke-width="1.0"/>
<text x="185.39" y="325.00" font-size="13" font-family="Inter, -apple-system, BlinkMacSystemFont, 'Segoe UI', Roboto, Helvetica, Arial, 'PingFang SC', 'Microsoft YaHei', Ubuntu, Cantarell, 'Noto Sans', sans-serif" fill="rgba(51,51,51,1.000)" text-anchor="middle" dominant-baseline="hanging">6.5</text>
<line x1="245.16" y1="316.00" x2="245.16" y2="322.00" stroke="rgba(51,51,51,1.000)" stroke-width="1.0"/>
<text x="245.16" y="325.00" font-size="13" font-family="Inter, -apple-system, BlinkMacSystemFont, 'Segoe UI', Roboto, Helvetica, Arial, 'PingFang SC', 'Microsoft YaHei', Ubuntu, Cantarell, 'Noto Sans', sans-serif" fill="rgba(51,51,51,1.000)" text-anchor="middle" dominant-baseline="hanging">7.0</text>
<line x1="304.94" y1="316.00" x2="304.94" y2="322.00" stroke="rgba(51,51,51,1.000)" stroke-width="1.0"/>
<text x="304.94" y="325.00" font-size="13" font-family="Inter, -apple-system, BlinkMacSystemFont, 'Segoe UI', Roboto, Helvetica, Arial, 'PingFang SC', 'Microsoft YaHei', Ubuntu, Cantarell, 'Noto Sans', sans-serif" fill="rgba(51,51,51,1.000)" text-anchor="middle" dominant-baseline="hanging">7.5</text>
<line x1="364.72" y1="316.00" x2="364.72" y2="322.00" stroke="rgba(51,51,51,1.000)" stroke-width="1.0"/>
<text x="364.72" y="325.00" font-size="13" font-family="Inter, -apple-system, BlinkMacSystemFont, 'Segoe UI', Roboto, Helvetica, Arial, 'PingFang SC', 'Microsoft YaHei', Ubuntu, Cantarell, 'Noto Sans', sans-serif" fill="rgba(51,51,51,1.000)" text-anchor="middle" dominant-baseline="hanging">8.0</text>
<line x1="424.50" y1="316.00" x2="424.50" y2="322.00" stroke="rgba(51,51,51,1.000)" stroke-width="1.0"/>
<text x="424.50" y="325.00" font-size="13" font-family="Inter, -apple-system, BlinkMacSystemFont, 'Segoe UI', Roboto, Helvetica, Arial, 'PingFang SC', 'Microsoft YaHei', Ubuntu, Cantarell, 'Noto Sans', sans-serif" fill="rgba(51,51,51,1.000)" text-anchor="middle" dominant-baseline="hanging">8.5</text>
<line x1="484.28" y1="316.00" x2="484.28" y2="322.00" stroke="rgba(51,51,51,1.000)" stroke-width="1.0"/>
<text x="484.28" y="325.00" font-size="13" font-family="Inter, -apple-system, BlinkMacSystemFont, 'Segoe UI', Roboto, Helvetica, Arial, 'PingFang SC', 'Microsoft YaHei', Ubuntu, Cantarell, 'Noto Sans', sans-serif" fill="rgba(51,51,51,1.000)" text-anchor="middle" dominant-baseline="hanging">9.0</text>
<text x="286.10" y="340.00" text-anchor="middle" font-size="15" font-family="Inter, -apple-system, BlinkMacSystemFont, 'Segoe UI', Roboto, Helvetica, Arial, 'PingFang SC', 'Microsoft YaHei', Ubuntu, Cantarell, 'Noto Sans', sans-serif" fill="rgba(51,51,51,1.000)" font-weight="bold" dominant-baseline="hanging">IMDB Rating</text>
<line x1="87.20" y1="40.00" x2="87.20" y2="316.00" stroke="rgba(51,51,51,1.000)" stroke-width="1" stroke-linecap="square"/>
<line x1="87.20" y1="316.00" x2="81.20" y2="316.00" stroke="rgba(51,51,51,1.000)" stroke-width="1.0"/>
<text x="77.20" y="316.00" font-size="13" font-family="Inter, -apple-system, BlinkMacSystemFont, 'Segoe UI', Roboto, Helvetica, Arial, 'PingFang SC', 'Microsoft YaHei', Ubuntu, Cantarell, 'Noto Sans', sans-serif" fill="rgba(51,51,51,1.000)" text-anchor="end" dominant-baseline="central">0.0</text>
<line x1="87.20" y1="263.43" x2="81.20" y2="263.43" stroke="rgba(51,51,51,1.000)" stroke-width="1.0"/>
<text x="77.20" y="263.43" font-size="13" font-family="Inter, -apple-system, BlinkMacSystemFont, 'Segoe UI', Roboto, Helvetica, Arial, 'PingFang SC', 'Microsoft YaHei', Ubuntu, Cantarell, 'Noto Sans', sans-serif" fill="rgba(51,51,51,1.000)" text-anchor="end" dominant-baseline="central">0.2</text>
<line x1="87.20" y1="210.86" x2="81.20" y2="210.86" stroke="rgba(51,51,51,1.000)" stroke-width="1.0"/>
<text x="77.20" y="210.86" font-size="13" font-family="Inter, -apple-system, BlinkMacSystemFont, 'Segoe UI', Roboto, Helvetica, Arial, 'PingFang SC', 'Microsoft YaHei', Ubuntu, Cantarell, 'Noto Sans', sans-serif" fill="rgba(51,51,51,1.000)" text-anchor="end" dominant-baseline="central">0.4</text>
<line x1="87.20" y1="158.29" x2="81.20" y2="158.29" stroke="rgba(51,51,51,1.000)" stroke-width="1.0"/>
<text x="77.20" y="158.29" font-size="13" font-family="Inter, -apple-system, BlinkMacSystemFont, 'Segoe UI', Roboto, Helvetica, Arial, 'PingFang SC', 'Microsoft YaHei', Ubuntu, Cantarell, 'Noto Sans', sans-serif" fill="rgba(51,51,51,1.000)" text-anchor="end" dominant-baseline="central">0.6</text>
<line x1="87.20" y1="105.71" x2="81.20" y2="105.71" stroke="rgba(51,51,51,1.000)" stroke-width="1.0"/>
<text x="77.20" y="105.71" font-size="13" font-family="Inter, -apple-system, BlinkMacSystemFont, 'Segoe UI', Roboto, Helvetica, Arial, 'PingFang SC', 'Microsoft YaHei', Ubuntu, Cantarell, 'Noto Sans', sans-serif" fill="rgba(51,51,51,1.000)" text-anchor="end" dominant-baseline="central">0.8</text>
<line x1="87.20" y1="53.14" x2="81.20" y2="53.14" stroke="rgba(51,51,51,1.000)" stroke-width="1.0"/>
<text x="77.20" y="53.14" font-size="13" font-family="Inter, -apple-system, BlinkMacSystemFont, 'Segoe UI', Roboto, Helvetica, Arial, 'PingFang SC', 'Microsoft YaHei', Ubuntu, Cantarell, 'Noto Sans', sans-serif" fill="rgba(51,51,51,1.000)" text-anchor="end" dominant-baseline="central">1.0</text>
<text x="47.50" y="178.00" text-anchor="middle" font-size="15" font-family="Inter, -apple-system, BlinkMacSystemFont, 'Segoe UI', Roboto, Helvetica, Arial, 'PingFang SC', 'Microsoft YaHei', Ubuntu, Cantarell, 'Noto Sans', sans-serif" fill="rgba(51,51,51,1.000)" font-weight="bold" transform="rotate(-90, 47.50, 178.00)" dominant-baseline="middle">Cumulative Density</text>
<defs><clipPath id="plot-clip-area"><rect x="87.200" y="40.000" width="397.800" height="276.000" /></clipPath></defs>
<line x1="87.200" y1="316.000" x2="485.000" y2="316.000" stroke="rgba(136,136,136,1.000)" stroke-width="1.000" stroke-opacity="0.500" stroke-dasharray="4.0,4.0" />
<polygon points="105.282,315.972 107.099,315.941 108.916,315.904 110.734,315.863 112.551,315.816 114.368,315.762 116.185,315.701 118.003,315.633 119.820,315.556 121.637,315.469 123.454,315.371 125.272,315.263 127.089,315.141 128.906,315.006 130.724,314.857 132.541,314.691 134.358,314.508 136.175,314.307 137.993,314.087 139.810,313.845 141.627,313.580 143.444,313.292 145.262,312.979 147.079,312.639 148.896,312.271 150.714,311.874 152.531,311.445 154.348,310.985 156.165,310.491 157.983,309.963 159.800,309.399 161.617,308.797 163.434,308.158 165.252,307.479 167.069,306.760 168.886,306.001 170.703,305.199 172.521,304.356 174.338,303.469 176.155,302.540 177.973,301.566 179.790,300.549 181.607,299.488 183.424,298.383 185.242,297.235 187.059,296.042 188.876,294.807 190.693,293.528 192.511,292.208 194.328,290.846 196.145,289.442 197.962,287.999 199.780,286.516 201.597,284.994 203.414,283.436 205.232,281.840 207.049,280.209 208.866,278.544 210.683,276.845 212.501,275.115 214.318,273.353 216.135,271.561 217.952,269.741 219.770,267.894 221.587,266.020 223.404,264.120 225.222,262.197 227.039,260.251 228.856,258.283 230.673,256.294 232.491,254.285 234.308,252.258 236.125,250.212 237.942,248.150 239.760,246.072 241.577,243.979 243.394,241.872 245.211,239.752 247.029,237.618 248.846,235.473 250.663,233.317 252.481,231.150 254.298,228.973 256.115,226.786 257.932,224.590 259.750,222.386 261.567,220.174 263.384,217.954 265.201,215.727 267.019,213.493 268.836,211.251 270.653,209.004 272.471,206.749 274.288,204.489 276.105,202.222 277.922,199.949 279.740,197.671 281.557,195.386 283.374,193.096 285.191,190.800 287.009,188.499 288.826,186.192 290.643,183.880 292.460,181.562 294.278,179.240 296.095,176.913 297.912,174.581 299.729,172.245 301.547,169.906 303.364,167.562 305.181,165.216 306.999,162.867 308.816,160.516 310.633,158.164 312.450,155.811 314.268,153.458 316.085,151.107 317.902,148.757 319.719,146.410 321.537,144.068 323.354,141.730 325.171,139.398 326.989,137.074 328.806,134.759 330.623,132.453 332.440,130.159 334.258,127.878 336.075,125.611 337.892,123.360 339.709,121.126 341.527,118.911 343.344,116.717 345.161,114.544 346.978,112.395 348.796,110.270 350.613,108.172 352.430,106.103 354.247,104.063 356.065,102.054 357.882,100.077 359.699,98.135 361.517,96.227 363.334,94.357 365.151,92.524 366.968,90.731 368.786,88.977 370.603,87.265 372.420,85.596 374.238,83.969 376.055,82.387 377.872,80.850 379.689,79.359 381.507,77.913 383.324,76.515 385.141,75.163 386.958,73.859 388.776,72.602 390.593,71.394 392.410,70.233 394.227,69.120 396.045,68.054 397.862,67.035 399.679,66.063 401.497,65.138 403.314,64.257 405.131,63.422 406.948,62.631 408.766,61.883 410.583,61.178 412.400,60.513 414.217,59.889 416.035,59.303 417.852,58.755 419.669,58.244 421.486,57.767 423.304,57.324 425.121,56.913 426.938,56.532 428.755,56.181 430.573,55.858 432.390,55.560 434.207,55.288 436.025,55.039 437.842,54.811 439.659,54.605 441.476,54.417 443.294,54.247 445.111,54.094 446.928,53.956 448.745,53.831 450.563,53.720 452.380,53.621 454.197,53.533 456.015,53.454 457.832,53.384 459.649,53.323 461.466,53.269 463.284,53.221 465.101,53.179 466.918,53.143 466.918,316.000 465.101,316.000 463.284,316.000 461.466,316.000 459.649,316.000 457.832,316.000 456.015,316.000 454.197,316.000 452.380,316.000 450.563,316.000 448.745,316.000 446.928,316.000 445.111,316.000 443.294,316.000 441.476,316.000 439.659,316.000 437.842,316.000 436.025,316.000 434.207,316.000 432.390,316.000 430.573,316.000 428.755,316.000 426.938,316.000 425.121,316.000 423.304,316.000 421.486,316.000 419.669,316.000 417.852,316.000 416.035,316.000 414.217,316.000 412.400,316.000 410.583,316.000 408.766,316.000 406.948,316.000 405.131,316.000 403.314,316.000 401.497,316.000 399.679,316.000 397.862,316.000 396.045,316.000 394.227,316.000 392.410,316.000 390.593,316.000 388.776,316.000 386.958,316.000 385.141,316.000 383.324,316.000 381.507,316.000 379.689,316.000 377.872,316.000 376.055,316.000 374.238,316.000 372.420,316.000 370.603,316.000 368.786,316.000 366.968,316.000 365.151,316.000 363.334,316.000 361.517,316.000 359.699,316.000 357.882,316.000 356.065,316.000 354.247,316.000 352.430,316.000 350.613,316.000 348.796,316.000 346.978,316.000 345.161,316.000 343.344,316.000 341.527,316.000 339.709,316.000 337.892,316.000 336.075,316.000 334.258,316.000 332.440,316.000 330.623,316.000 328.806,316.000 326.989,316.000 325.171,316.000 323.354,316.000 321.537,316.000 319.719,316.000 317.902,316.000 316.085,316.000 314.268,316.000 312.450,316.000 310.633,316.000 308.816,316.000 306.999,316.000 305.181,316.000 303.364,316.000 301.547,316.000 299.729,316.000 297.912,316.000 296.095,316.000 294.278,316.000 292.460,316.000 290.643,316.000 288.826,316.000 287.009,316.000 285.191,316.000 283.374,316.000 281.557,316.000 279.740,316.000 277.922,316.000 276.105,316.000 274.288,316.000 272.471,316.000 270.653,316.000 268.836,316.000 267.019,316.000 265.201,316.000 263.384,316.000 261.567,316.000 259.750,316.000 257.932,316.000 256.115,316.000 254.298,316.000 252.481,316.000 250.663,316.000 248.846,316.000 247.029,316.000 245.211,316.000 243.394,316.000 241.577,316.000 239.760,316.000 237.942,316.000 236.125,316.000 234.308,316.000 232.491,316.000 230.673,316.000 228.856,316.000 227.039,316.000 225.222,316.000 223.404,316.000 221.587,316.000 219.770,316.000 217.952,316.000 216.135,316.000 214.318,316.000 212.501,316.000 210.683,316.000 208.866,316.000 207.049,316.000 205.232,316.000 203.414,316.000 201.597,316.000 199.780,316.000 197.962,316.000 196.145,316.000 194.328,316.000 192.511,316.000 190.693,316.000 188.876,316.000 187.059,316.000 185.242,316.000 183.424,316.000 181.607,316.000 179.790,316.000 177.973,316.000 176.155,316.000 174.338,316.000 172.521,316.000 170.703,316.000 168.886,316.000 167.069,316.000 165.252,316.000 163.434,316.000 161.617,316.000 159.800,316.000 157.983,316.000 156.165,316.000 154.348,316.000 152.531,316.000 150.714,316.000 148.896,316.000 147.079,316.000 145.262,316.000 143.444,316.000 141.627,316.000 139.810,316.000 137.993,316.000 136.175,316.000 134.358,316.000 132.541,316.000 130.724,316.000 128.906,316.000 127.089,316.000 125.272,316.000 123.454,316.000 121.637,316.000 119.820,316.000 118.003,316.000 116.185,316.000 114.368,316.000 112.551,316.000 110.734,316.000 108.916,316.000 107.099,316.000 105.282,316.000" fill="rgba(128,0,128,1.000)" stroke="none" stroke-width="0.000" fill-opacity="0.300" stroke-opacity="0.000" clip-path="url(#plot-clip-area)" />
<path d="M 105.282 315.972 L 107.099 315.941 L 108.916 315.904 L 110.734 315.863 L 112.551 315.816 L 114.368 315.762 L 116.185 315.701 L 118.003 315.633 L 119.820 315.556 L 121.637 315.469 L 123.454 315.371 L 125.272 315.263 L 127.089 315.141 L 128.906 315.006 L 130.724 314.857 L 132.541 314.691 L 134.358 314.508 L 136.175 314.307 L 137.993 314.087 L 139.810 313.845 L 141.627 313.580 L 143.444 313.292 L 145.262 312.979 L 147.079 312.639 L 148.896 312.271 L 150.714 311.874 L 152.531 311.445 L 154.348 310.985 L 156.165 310.491 L 157.983 309.963 L 159.800 309.399 L 161.617 308.797 L 163.434 308.158 L 165.252 307.479 L 167.069 306.760 L 168.886 306.001 L 170.703 305.199 L 172.521 304.356 L 174.338 303.469 L 176.155 302.540 L 177.973 301.566 L 179.790 300.549 L 181.607 299.488 L 183.424 298.383 L 185.242 297.235 L 187.059 296.042 L 188.876 294.807 L 190.693 293.528 L 192.511 292.208 L 194.328 290.846 L 196.145 289.442 L 197.962 287.999 L 199.780 286.516 L 201.597 284.994 L 203.414 283.436 L 205.232 281.840 L 207.049 280.209 L 208.866 278.544 L 210.683 276.845 L 212.501 275.115 L 214.318 273.353 L 216.135 271.561 L 217.952 269.741 L 219.770 267.894 L 221.587 266.020 L 223.404 264.120 L 225.222 262.197 L 227.039 260.251 L 228.856 258.283 L 230.673 256.294 L 232.491 254.285 L 234.308 252.258 L 236.125 250.212 L 237.942 248.150 L 239.760 246.072 L 241.577 243.979 L 243.394 241.872 L 245.211 239.752 L 247.029 237.618 L 248.846 235.473 L 250.663 233.317 L 252.481 231.150 L 254.298 228.973 L 256.115 226.786 L 257.932 224.590 L 259.750 222.386 L 261.567 220.174 L 263.384 217.954 L 265.201 215.727 L 267.019 213.493 L 268.836 211.251 L 270.653 209.004 L 272.471 206.749 L 274.288 204.489 L 276.105 202.222 L 277.922 199.949 L 279.740 197.671 L 281.557 195.386 L 283.374 193.096 L 285.191 190.800 L 287.009 188.499 L 288.826 186.192 L 290.643 183.880 L 292.460 181.562 L 294.278 179.240 L 296.095 176.913 L 297.912 174.581 L 299.729 172.245 L 301.547 169.906 L 303.364 167.562 L 305.181 165.216 L 306.999 162.867 L 308.816 160.516 L 310.633 158.164 L 312.450 155.811 L 314.268 153.458 L 316.085 151.107 L 317.902 148.757 L 319.719 146.410 L 321.537 144.068 L 323.354 141.730 L 325.171 139.398 L 326.989 137.074 L 328.806 134.759 L 330.623 132.453 L 332.440 130.159 L 334.258 127.878 L 336.075 125.611 L 337.892 123.360 L 339.709 121.126 L 341.527 118.911 L 343.344 116.717 L 345.161 114.544 L 346.978 112.395 L 348.796 110.270 L 350.613 108.172 L 352.430 106.103 L 354.247 104.063 L 356.065 102.054 L 357.882 100.077 L 359.699 98.135 L 361.517 96.227 L 363.334 94.357 L 365.151 92.524 L 366.968 90.731 L 368.786 88.977 L 370.603 87.265 L 372.420 85.596 L 374.238 83.969 L 376.055 82.387 L 377.872 80.850 L 379.689 79.359 L 381.507 77.913 L 383.324 76.515 L 385.141 75.163 L 386.958 73.859 L 388.776 72.602 L 390.593 71.394 L 392.410 70.233 L 394.227 69.120 L 396.045 68.054 L 397.862 67.035 L 399.679 66.063 L 401.497 65.138 L 403.314 64.257 L 405.131 63.422 L 406.948 62.631 L 408.766 61.883 L 410.583 61.178 L 412.400 60.513 L 414.217 59.889 L 416.035 59.303 L 417.852 58.755 L 419.669 58.244 L 421.486 57.767 L 423.304 57.324 L 425.121 56.913 L 426.938 56.532 L 428.755 56.181 L 430.573 55.858 L 432.390 55.560 L 434.207 55.288 L 436.025 55.039 L 437.842 54.811 L 439.659 54.605 L 441.476 54.417 L 443.294 54.247 L 445.111 54.094 L 446.928 53.956 L 448.745 53.831 L 450.563 53.720 L 452.380 53.621 L 454.197 53.533 L 456.015 53.454 L 457.832 53.384 L 459.649 53.323 L 461.466 53.269 L 463.284 53.221 L 465.101 53.179 L 466.918 53.143" stroke="rgba(128,0,128,1.000)" stroke-width="1.000" stroke-opacity="1.000" fill="none" stroke-linejoin="round" stroke-linecap="round" clip-path="url(#plot-clip-area)" />
</svg>