<svg width="500" height="400" viewBox="0 0 500 400" xmlns="http://www.w3.org/2000/svg"><rect width="100%" height="100%" fill="rgba(255,255,255,1.000)" /><circle cx="255.36" cy="188.00" r="148.00" fill="none" stroke="rgba(189,189,189,1.000)" stroke-width="1.00" opacity="0.5"/>
<line x1="255.36" y1="262.00" x2="255.36" y2="336.00" stroke="rgba(189,189,189,1.000)" stroke-width="1.00" opacity="0.5"/>
<text x="255.36" y="341.00" font-size="13" font-family="Inter, -apple-system, BlinkMacSystemFont, 'Segoe UI', Roboto, Helvetica, Arial, 'PingFang SC', 'Microsoft YaHei', Ubuntu, Cantarell, 'Noto Sans', sans-serif" fill="rgba(51,51,51,1.000)" text-anchor="middle" dominant-baseline="hanging">all</text>
<defs><clipPath id="plot-clip-area"><rect x="92.200" y="40.000" width="326.320" height="296.000" /></clipPath></defs>
<polygon points="255.360,114.000 255.360,40.000 264.296,40.270 273.199,41.079 282.038,42.424 290.779,44.301 299.390,46.701 307.842,49.618 316.101,53.039 324.139,56.953 331.926,61.344 339.434,66.198 346.634,71.497 353.502,77.220 360.012,83.348 366.140,89.858 371.863,96.726 377.162,103.926 382.016,111.434 386.408,119.221 390.321,127.259 393.742,135.518 324.551,161.759 322.841,157.629 320.884,153.610 318.688,149.717 316.261,145.963 313.612,142.363 310.750,138.929 307.686,135.674 304.431,132.610 300.997,129.748 297.397,127.099 293.643,124.672 289.750,122.476 285.731,120.519 281.601,118.809 277.375,117.351 273.069,116.150 268.699,115.212 264.280,114.540 259.828,114.135" fill="rgba(31,119,180,1.000)" stroke="rgba(224,224,224,1.000)" stroke-width="0.500" fill-opacity="1.000" stroke-opacity="1.000" clip-path="url(#plot-clip-area)" />
<text x="318.415" y="96.649" font-size="12.0" font-family="Inter, -apple-system, BlinkMacSystemFont, 'Segoe UI', Roboto, Helvetica, Arial, 'PingFang SC', 'Microsoft YaHei', Ubuntu, Cantarell, 'Noto Sans', sans-serif" fill="rgba(255,255,255,1.000)" fill-opacity="1.000" text-anchor="middle" font-weight="bold">19.2%</text>
<polygon points="324.551,161.759 393.742,135.518 396.659,143.970 399.059,152.581 400.936,161.322 402.281,170.161 403.090,179.064 403.360,188.000 403.090,196.936 402.281,205.839 400.936,214.678 399.059,223.419 396.659,232.030 393.742,240.482 390.321,248.741 386.408,256.779 382.016,264.566 377.162,272.074 371.863,279.274 366.140,286.142 360.012,292.652 353.502,298.780 346.634,304.503 339.434,309.802 331.926,314.656 324.139,319.047 289.750,253.524 293.643,251.328 297.397,248.901 300.997,246.252 304.431,243.390 307.686,240.326 310.750,237.071 313.612,233.637 316.261,230.037 318.688,226.283 320.884,222.390 322.841,218.371 324.551,214.241 326.009,210.015 327.210,205.709 328.148,201.339 328.820,196.920 329.225,192.468 329.360,188.000 329.225,183.532 328.820,179.080 328.148,174.661 327.210,170.291 326.009,165.985" fill="rgba(255,127,14,1.000)" stroke="rgba(224,224,224,1.000)" stroke-width="0.500" fill-opacity="1.000" stroke-opacity="1.000" clip-path="url(#plot-clip-area)" />
<text x="359.147" y="227.361" font-size="12.0" font-family="Inter, -apple-system, BlinkMacSystemFont, 'Segoe UI', Roboto, Helvetica, Arial, 'PingFang SC', 'Microsoft YaHei', Ubuntu, Cantarell, 'Noto Sans', sans-serif" fill="rgba(255,255,255,1.000)" fill-opacity="1.000" text-anchor="middle" font-weight="bold">23.1%</text>
<polygon points="289.750,253.524 324.139,319.047 316.101,322.961 307.842,326.382 299.390,329.299 290.779,331.699 282.038,333.576 273.199,334.921 264.296,335.730 255.360,336.000 246.424,335.730 237.521,334.921 228.682,333.576 219.941,331.699 237.651,259.850 242.021,260.788 246.440,261.460 250.892,261.865 255.360,262.000 259.828,261.865 264.280,261.460 268.699,260.788 273.069,259.850 277.375,258.649 281.601,257.191 285.731,255.481" fill="rgba(44,160,44,1.000)" stroke="rgba(224,224,224,1.000)" stroke-width="0.500" fill-opacity="1.000" stroke-opacity="1.000" clip-path="url(#plot-clip-area)" />
<text x="268.740" y="298.191" font-size="12.0" font-family="Inter, -apple-system, BlinkMacSystemFont, 'Segoe UI', Roboto, Helvetica, Arial, 'PingFang SC', 'Microsoft YaHei', Ubuntu, Cantarell, 'Noto Sans', sans-serif" fill="rgba(255,255,255,1.000)" fill-opacity="1.000" text-anchor="middle" font-weight="bold">11.5%</text>
<polygon points="237.651,259.850 219.941,331.699 211.054,329.213 202.339,326.177 193.831,322.604 185.561,318.507 177.563,313.904 169.868,308.810 162.505,303.247 155.503,297.236 148.889,290.800 142.689,283.965 136.927,276.756 131.626,269.202 126.805,261.333 122.485,253.178 118.681,244.770 115.409,236.142 112.680,227.326 110.507,218.357 108.896,209.270 107.856,200.101 107.388,190.884 107.496,181.656 108.179,172.453 109.434,163.311 111.256,154.264 113.639,145.348 116.573,136.599 120.046,128.049 124.045,119.732 128.555,111.681 133.558,103.926 194.459,145.963 191.958,149.840 189.703,153.866 187.703,158.025 185.966,162.299 184.499,166.674 183.308,171.132 182.397,175.655 181.769,180.227 181.428,184.828 181.374,189.442 181.608,194.050 182.128,198.635 182.933,203.179 184.020,207.663 185.384,212.071 187.021,216.385 188.922,220.589 191.083,224.666 193.493,228.601 196.144,232.378 199.024,235.982 202.124,239.400 205.431,242.618 208.932,245.624 212.614,248.405 216.462,250.952 220.461,253.254 224.595,255.302 228.850,257.088 233.207,258.606" fill="rgba(214,39,40,1.000)" stroke="rgba(224,224,224,1.000)" stroke-width="0.500" fill-opacity="1.000" stroke-opacity="1.000" clip-path="url(#plot-clip-area)" />
<text x="151.573" y="227.361" font-size="12.0" font-family="Inter, -apple-system, BlinkMacSystemFont, 'Segoe UI', Roboto, Helvetica, Arial, 'PingFang SC', 'Microsoft YaHei', Ubuntu, Cantarell, 'Noto Sans', sans-serif" fill="rgba(255,255,255,1.000)" fill-opacity="1.000" text-anchor="middle" font-weight="bold">30.8%</text>
<polygon points="194.459,145.963 133.558,103.926 138.857,96.726 144.580,89.858 150.708,83.348 157.218,77.220 164.086,71.497 171.286,66.198 178.794,61.344 186.581,56.953 194.619,53.039 202.878,49.618 211.330,46.701 219.941,44.301 228.682,42.424 237.521,41.079 246.424,40.270 255.360,40.000 255.360,114.000 250.892,114.135 246.440,114.540 242.021,115.212 237.651,116.150 233.345,117.351 229.119,118.809 224.989,120.519 220.970,122.476 217.077,124.672 213.323,127.099 209.723,129.748 206.289,132.610 203.034,135.674 199.970,138.929 197.108,142.363" fill="rgba(148,103,189,1.000)" stroke="rgba(224,224,224,1.000)" stroke-width="0.500" fill-opacity="1.000" stroke-opacity="1.000" clip-path="url(#plot-clip-area)" />
<text x="203.776" y="89.714" font-size="12.0" font-family="Inter, -apple-system, BlinkMacSystemFont, 'Segoe UI', Roboto, Helvetica, Arial, 'PingFang SC', 'Microsoft YaHei', Ubuntu, Cantarell, 'Noto Sans', sans-serif" fill="rgba(255,255,255,1.000)" fill-opacity="1.000" text-anchor="middle" font-weight="bold">15.4%</text>
<text x="433.520" y="49.600" font-size="13.2" font-family="Inter, -apple-system, BlinkMacSystemFont, 'Segoe UI', Roboto, Helvetica, Arial, 'PingFang SC', 'Microsoft YaHei', Ubuntu, Cantarell, 'Noto Sans', sans-serif" fill="rgba(51,51,51,1.000)" fill-opacity="1.000" text-anchor="start" font-weight="bold">category</text>
<circle cx="442.520" cy="69.200" r="5.000" fill="rgba(31,119,180,1.000)" stroke="none" stroke-width="0.000" fill-opacity="1.000" stroke-opacity="1.000" />
<text x="459.520" y="73.700" font-size="12.0" font-family="Inter, -apple-system, BlinkMacSystemFont, 'Segoe UI', Roboto, Helvetica, Arial, 'PingFang SC', 'Microsoft YaHei', Ubuntu, Cantarell, 'Noto Sans', sans-serif" fill="rgba(51,51,51,1.000)" fill-opacity="1.000" text-anchor="start" font-weight="normal">A</text>
<circle cx="442.520" cy="90.200" r="5.000" fill="rgba(255,127,14,1.000)" stroke="none" stroke-width="0.000" fill-opacity="1.000" stroke-opacity="1.000" />
<text x="459.520" y="94.700" font-size="12.0" font-family="Inter, -apple-system, BlinkMacSystemFont, 'Segoe UI', Roboto, Helvetica, Arial, 'PingFang SC', 'Microsoft YaHei', Ubuntu, Cantarell, 'Noto Sans', sans-serif" fill="rgba(51,51,51,1.000)" fill-opacity="1.000" text-anchor="start" font-weight="normal">B</text>
<circle cx="442.520" cy="111.200" r="5.000" fill="rgba(44,160,44,1.000)" stroke="none" stroke-width="0.000" fill-opacity="1.000" stroke-opacity="1.000" />
<text x="459.520" y="115.700" font-size="12.0" font-family="Inter, -apple-system, BlinkMacSystemFont, 'Segoe UI', Roboto, Helvetica, Arial, 'PingFang SC', 'Microsoft YaHei', Ubuntu, Cantarell, 'Noto Sans', sans-serif" fill="rgba(51,51,51,1.000)" fill-opacity="1.000" text-anchor="start" font-weight="normal">C</text>
<circle cx="442.520" cy="132.200" r="5.000" fill="rgba(214,39,40,1.000)" stroke="none" stroke-width="0.000" fill-opacity="1.000" stroke-opacity="1.000" />
<text x="459.520" y="136.700" font-size="12.0" font-family="Inter, -apple-system, BlinkMacSystemFont, 'Segoe UI', Roboto, Helvetica, Arial, 'PingFang SC', 'Microsoft YaHei', Ubuntu, Cantarell, 'Noto Sans', sans-serif" fill="rgba(51,51,51,1.000)" fill-opacity="1.000" text-anchor="start" font-weight="normal">E</text>
<circle cx="442.520" cy="153.200" r="5.000" fill="rgba(148,103,189,1.000)" stroke="none" stroke-width="0.000" fill-opacity="1.000" stroke-opacity="1.000" />
<text x="459.520" y="157.700" font-size="12.0" font-family="Inter, -apple-system, BlinkMacSystemFont, 'Segoe UI', Roboto, Helvetica, Arial, 'PingFang SC', 'Microsoft YaHei', Ubuntu, Cantarell, 'Noto Sans', sans-serif" fill="rgba(51,51,51,1.000)" fill-opacity="1.000" text-anchor="start" font-weight="normal">D</text>
</svg>