<svg width="500" height="400" viewBox="0 0 500 400" xmlns="http://www.w3.org/2000/svg"><rect x="0.000" y="0.000" width="500.000" height="400.000" fill="rgba(255,255,255,1.000)" stroke="none" stroke-width="0.000" fill-opacity="1.000" stroke-opacity="1.000" />
<line x1="89.362" y1="40.000" x2="89.362" y2="311.000" stroke="rgba(189,189,189,1.000)" stroke-width="1.000" stroke-opacity="1.000" />
<line x1="132.710" y1="40.000" x2="132.710" y2="311.000" stroke="rgba(189,189,189,1.000)" stroke-width="1.000" stroke-opacity="1.000" />
<line x1="176.059" y1="40.000" x2="176.059" y2="311.000" stroke="rgba(189,189,189,1.000)" stroke-width="1.000" stroke-opacity="1.000" />
<line x1="219.407" y1="40.000" x2="219.407" y2="311.000" stroke="rgba(189,189,189,1.000)" stroke-width="1.000" stroke-opacity="1.000" />
<line x1="262.755" y1="40.000" x2="262.755" y2="311.000" stroke="rgba(189,189,189,1.000)" stroke-width="1.000" stroke-opacity="1.000" />
<line x1="306.103" y1="40.000" x2="306.103" y2="311.000" stroke="rgba(189,189,189,1.000)" stroke-width="1.000" stroke-opacity="1.000" />
<line x1="349.452" y1="40.000" x2="349.452" y2="311.000" stroke="rgba(189,189,189,1.000)" stroke-width="1.000" stroke-opacity="1.000" />
<line x1="392.800" y1="40.000" x2="392.800" y2="311.000" stroke="rgba(189,189,189,1.000)" stroke-width="1.000" stroke-opacity="1.000" />
<line x1="88.300" y1="298.682" x2="407.300" y2="298.682" stroke="rgba(189,189,189,1.000)" stroke-width="1.000" stroke-opacity="1.000" />
<line x1="88.300" y1="264.933" x2="407.300" y2="264.933" stroke="rgba(189,189,189,1.000)" stroke-width="1.000" stroke-opacity="1.000" />
<line x1="88.300" y1="231.185" x2="407.300" y2="231.185" stroke="rgba(189,189,189,1.000)" stroke-width="1.000" stroke-opacity="1.000" />
<line x1="88.300" y1="197.436" x2="407.300" y2="197.436" stroke="rgba(189,189,189,1.000)" stroke-width="1.000" stroke-opacity="1.000" />
<line x1="88.300" y1="163.688" x2="407.300" y2="163.688" stroke="rgba(189,189,189,1.000)" stroke-width="1.000" stroke-opacity="1.000" />
<line x1="88.300" y1="129.940" x2="407.300" y2="129.940" stroke="rgba(189,189,189,1.000)" stroke-width="1.000" stroke-opacity="1.000" />
<line x1="88.300" y1="96.191" x2="407.300" y2="96.191" stroke="rgba(189,189,189,1.000)" stroke-width="1.000" stroke-opacity="1.000" />
<line x1="88.300" y1="62.443" x2="407.300" y2="62.443" stroke="rgba(189,189,189,1.000)" stroke-width="1.000" stroke-opacity="1.000" />
<text x="250.000" y="13.333" font-size="18.0" font-family="Inter, -apple-system, BlinkMacSystemFont, 'Segoe UI', Roboto, Helvetica, Arial, 'PingFang SC', 'Microsoft YaHei', Ubuntu, Cantarell, 'Noto Sans', sans-serif" fill="rgba(51,51,51,1.000)" fill-opacity="1.000" text-anchor="middle" font-weight="bold" dominant-baseline="middle" transform="rotate(0 250.000 13.333)">Hainan &amp; Taiwan — Equal Earth Projection</text>
<defs><clipPath id="plot-clip-area"><rect x="88.300" y="40.000" width="319.000" height="271.000" /></clipPath></defs>
<g clip-path="url(#plot-clip-area)">
<path d="M 118.710 70.462 L 119.486 71.661 L 120.262 72.860 L 121.038 74.059 L 121.813 75.258 L 122.588 76.458 L 123.363 77.658 L 124.137 78.858 L 124.911 80.058 L 125.685 81.259 L 126.459 82.459 L 127.232 83.660 L 128.006 84.861 L 128.779 86.062 L 129.551 87.264 L 130.324 88.465 L 131.707 89.667 L 133.090 90.869 L 134.472 92.071 L 135.855 93.274 L 137.238 94.476 L 138.620 95.679 L 140.003 96.882 L 141.385 98.085 L 142.768 99.289 L 144.150 100.492 L 145.049 101.696 L 145.948 102.900 L 146.847 104.104 L 147.746 105.308 L 148.644 106.513 L 149.542 107.718 L 150.440 108.923 L 151.337 110.128 L 152.235 111.333 L 153.132 112.539 L 154.029 113.744 L 154.926 114.950 L 155.822 116.156 L 156.718 117.363 L 157.614 118.569 L 158.898 119.575 L 160.183 120.580 L 161.467 121.586 L 162.751 122.592 L 164.035 123.598 L 165.319 124.605 L 165.177 123.397 L 165.034 122.190 L 164.891 120.983 L 164.748 119.776 L 164.604 118.569 L 164.460 117.363 L 164.315 116.156 L 164.170 114.950 L 164.024 113.744 L 163.878 112.539 L 163.731 111.333 L 163.584 110.128 L 163.437 108.923 L 163.289 107.718 L 163.140 106.513 L 162.992 105.308 L 162.842 104.104 L 162.693 102.900 L 162.542 101.696 L 162.392 100.492 L 162.241 99.289 L 162.089 98.085 L 161.937 96.882 L 161.785 95.679 L 161.632 94.476 L 161.479 93.274 L 161.325 92.071 L 161.171 90.869 L 161.016 89.667 L 160.861 88.465 L 160.170 87.264 L 159.478 86.062 L 158.786 84.861 L 158.094 83.660 L 157.402 82.459 L 156.709 81.259 L 156.016 80.058 L 155.323 78.858 L 154.629 77.658 L 153.936 76.458 L 153.242 75.258 L 152.547 74.059 L 151.852 72.860 L 151.157 71.661 L 150.462 70.462 L 149.170 69.463 L 147.878 68.464 L 146.585 67.466 L 145.293 66.467 L 144.001 65.469 L 142.708 64.471 L 141.715 64.803 L 140.721 65.136 L 139.727 65.469 L 138.733 65.802 L 137.739 66.134 L 136.745 66.467 L 135.750 66.800 L 134.756 67.133 L 133.761 67.466 L 132.766 67.799 L 131.772 68.131 L 130.777 68.464 L 129.781 68.797 L 128.786 69.130 L 127.791 69.463 L 126.795 69.796 L 125.800 70.129 L 124.804 70.462 L 123.788 70.462 L 122.773 70.462 L 121.757 70.462 L 120.742 70.462 L 119.726 70.462 L 118.710 70.462 Z" fill="rgba(68,1,84,1.000)" fill-opacity="1.000" stroke="rgba(51,51,51,1.000)" stroke-width="0.500" stroke-opacity="1.000" stroke-linejoin="round" stroke-linecap="round" />
<path d="M 118.710 70.462 L 119.486 71.661 L 120.262 72.860 L 121.038 74.059 L 121.813 75.258 L 122.588 76.458 L 123.363 77.658 L 124.137 78.858 L 124.911 80.058 L 125.685 81.259 L 126.459 82.459 L 127.232 83.660 L 128.006 84.861 L 128.779 86.062 L 129.551 87.264 L 130.324 88.465 L 131.707 89.667 L 133.090 90.869 L 134.472 92.071 L 135.855 93.274 L 137.238 94.476 L 138.620 95.679 L 140.003 96.882 L 141.385 98.085 L 142.768 99.289 L 144.150 100.492 L 145.049 101.696 L 145.948 102.900 L 146.847 104.104 L 147.746 105.308 L 148.644 106.513 L 149.542 107.718 L 150.440 108.923 L 151.337 110.128 L 152.235 111.333 L 153.132 112.539 L 154.029 113.744 L 154.926 114.950 L 155.822 116.156 L 156.718 117.363 L 157.614 118.569 L 158.898 119.575 L 160.183 120.580 L 161.467 121.586 L 162.751 122.592 L 164.035 123.598 L 165.319 124.605 L 165.177 123.397 L 165.034 122.190 L 164.891 120.983 L 164.748 119.776 L 164.604 118.569 L 164.460 117.363 L 164.315 116.156 L 164.170 114.950 L 164.024 113.744 L 163.878 112.539 L 163.731 111.333 L 163.584 110.128 L 163.437 108.923 L 163.289 107.718 L 163.140 106.513 L 162.992 105.308 L 162.842 104.104 L 162.693 102.900 L 162.542 101.696 L 162.392 100.492 L 162.241 99.289 L 162.089 98.085 L 161.937 96.882 L 161.785 95.679 L 161.632 94.476 L 161.479 93.274 L 161.325 92.071 L 161.171 90.869 L 161.016 89.667 L 160.861 88.465 L 160.170 87.264 L 159.478 86.062 L 158.786 84.861 L 158.094 83.660 L 157.402 82.459 L 156.709 81.259 L 156.016 80.058 L 155.323 78.858 L 154.629 77.658 L 153.936 76.458 L 153.242 75.258 L 152.547 74.059 L 151.852 72.860 L 151.157 71.661 L 150.462 70.462 L 149.170 69.463 L 147.878 68.464 L 146.585 67.466 L 145.293 66.467 L 144.001 65.469 L 142.708 64.471 L 141.715 64.803 L 140.721 65.136 L 139.727 65.469 L 138.733 65.802 L 137.739 66.134 L 136.745 66.467 L 135.750 66.800 L 134.756 67.133 L 133.761 67.466 L 132.766 67.799 L 131.772 68.131 L 130.777 68.464 L 129.781 68.797 L 128.786 69.130 L 127.791 69.463 L 126.795 69.796 L 125.800 70.129 L 124.804 70.462 L 123.788 70.462 L 122.773 70.462 L 121.757 70.462 L 120.742 70.462 L 119.726 70.462 L 118.710 70.462" fill="none" stroke="rgba(51,51,51,1.000)" stroke-width="0.500" stroke-opacity="1.000" stroke-linejoin="round" stroke-linecap="round" />
<path d="M 362.031 286.208 L 363.052 285.329 L 364.072 284.450 L 365.092 283.570 L 366.111 282.691 L 367.130 281.812 L 368.148 280.933 L 369.167 280.054 L 369.248 278.846 L 369.330 277.638 L 369.410 276.430 L 369.490 275.222 L 369.570 274.014 L 369.649 272.807 L 369.728 271.600 L 369.806 270.392 L 369.884 269.185 L 369.961 267.978 L 370.037 266.772 L 370.114 265.565 L 370.189 264.359 L 370.264 263.153 L 370.339 261.947 L 370.413 260.741 L 370.486 259.535 L 370.559 258.329 L 370.632 257.124 L 370.704 255.919 L 370.775 254.714 L 370.846 253.509 L 370.917 252.304 L 370.987 251.100 L 371.056 249.895 L 371.125 248.691 L 371.193 247.487 L 371.261 246.283 L 370.967 245.057 L 370.673 243.832 L 370.378 242.607 L 370.083 241.382 L 369.787 240.157 L 369.491 238.932 L 369.194 237.707 L 368.897 236.483 L 368.599 235.259 L 368.301 234.035 L 368.003 232.811 L 367.704 231.587 L 367.404 230.363 L 367.104 229.140 L 366.804 227.917 L 366.503 226.694 L 366.202 225.471 L 365.901 224.248 L 365.599 223.026 L 365.296 221.804 L 364.993 220.581 L 364.690 219.360 L 364.386 218.138 L 364.081 216.916 L 363.777 215.695 L 363.471 214.473 L 363.166 213.252 L 362.859 212.031 L 362.553 210.811 L 362.246 209.590 L 361.938 208.370 L 361.630 207.150 L 361.322 205.930 L 361.013 204.710 L 360.704 203.490 L 360.394 202.271 L 360.084 201.051 L 359.774 199.832 L 359.463 198.613 L 359.151 197.395 L 358.839 196.176 L 358.527 194.958 L 358.214 193.739 L 357.901 192.521 L 357.587 191.303 L 357.273 190.086 L 356.958 188.868 L 356.643 187.651 L 356.327 186.434 L 356.011 185.217 L 354.716 184.664 L 353.420 184.111 L 352.124 183.558 L 350.828 183.005 L 349.532 182.452 L 348.237 181.899 L 346.941 181.346 L 345.645 180.793 L 344.350 180.240 L 343.054 179.688 L 341.759 179.135 L 340.689 179.569 L 339.618 180.003 L 338.548 180.438 L 337.477 180.872 L 336.407 181.306 L 335.336 181.741 L 334.265 182.175 L 334.081 183.392 L 333.896 184.608 L 333.712 185.825 L 333.526 187.042 L 333.340 188.260 L 333.153 189.477 L 332.966 190.695 L 332.778 191.912 L 332.590 193.130 L 332.401 194.348 L 332.212 195.567 L 332.022 196.785 L 331.831 198.004 L 331.640 199.223 L 331.448 200.442 L 331.755 201.661 L 332.061 202.880 L 332.367 204.100 L 332.673 205.320 L 332.978 206.540 L 333.283 207.760 L 333.587 208.980 L 333.891 210.200 L 334.194 211.421 L 334.497 212.642 L 334.799 213.863 L 335.101 215.084 L 335.403 216.305 L 335.704 217.527 L 336.005 218.749 L 336.305 219.970 L 336.605 221.193 L 336.904 222.415 L 337.203 223.637 L 337.501 224.860 L 337.799 226.082 L 338.097 227.305 L 338.394 228.529 L 338.691 229.752 L 338.987 230.975 L 339.412 232.180 L 339.837 233.386 L 340.261 234.591 L 340.684 235.797 L 341.108 237.002 L 341.531 238.208 L 341.953 239.414 L 342.375 240.621 L 342.797 241.827 L 343.218 243.034 L 343.639 244.240 L 344.060 245.447 L 344.480 246.654 L 344.900 247.862 L 345.319 249.069 L 345.738 250.277 L 346.156 251.485 L 346.574 252.692 L 346.992 253.901 L 347.409 255.109 L 347.826 256.317 L 348.243 257.526 L 348.659 258.735 L 349.075 259.944 L 349.490 261.153 L 349.905 262.362 L 350.319 263.571 L 350.733 264.781 L 351.147 265.991 L 351.560 267.201 L 351.973 268.411 L 352.386 269.621 L 352.798 270.831 L 353.510 272.013 L 354.222 273.195 L 354.933 274.378 L 355.644 275.560 L 356.355 276.742 L 357.066 277.925 L 357.776 279.108 L 358.486 280.291 L 359.196 281.474 L 359.905 282.657 L 360.614 283.841 L 361.323 285.025 L 362.031 286.208 Z" fill="rgba(253,231,37,1.000)" fill-opacity="1.000" stroke="rgba(51,51,51,1.000)" stroke-width="0.500" stroke-opacity="1.000" stroke-linejoin="round" stroke-linecap="round" />
<path d="M 362.031 286.208 L 363.052 285.329 L 364.072 284.450 L 365.092 283.570 L 366.111 282.691 L 367.130 281.812 L 368.148 280.933 L 369.167 280.054 L 369.248 278.846 L 369.330 277.638 L 369.410 276.430 L 369.490 275.222 L 369.570 274.014 L 369.649 272.807 L 369.728 271.600 L 369.806 270.392 L 369.884 269.185 L 369.961 267.978 L 370.037 266.772 L 370.114 265.565 L 370.189 264.359 L 370.264 263.153 L 370.339 261.947 L 370.413 260.741 L 370.486 259.535 L 370.559 258.329 L 370.632 257.124 L 370.704 255.919 L 370.775 254.714 L 370.846 253.509 L 370.917 252.304 L 370.987 251.100 L 371.056 249.895 L 371.125 248.691 L 371.193 247.487 L 371.261 246.283 L 370.967 245.057 L 370.673 243.832 L 370.378 242.607 L 370.083 241.382 L 369.787 240.157 L 369.491 238.932 L 369.194 237.707 L 368.897 236.483 L 368.599 235.259 L 368.301 234.035 L 368.003 232.811 L 367.704 231.587 L 367.404 230.363 L 367.104 229.140 L 366.804 227.917 L 366.503 226.694 L 366.202 225.471 L 365.901 224.248 L 365.599 223.026 L 365.296 221.804 L 364.993 220.581 L 364.690 219.360 L 364.386 218.138 L 364.081 216.916 L 363.777 215.695 L 363.471 214.473 L 363.166 213.252 L 362.859 212.031 L 362.553 210.811 L 362.246 209.590 L 361.938 208.370 L 361.630 207.150 L 361.322 205.930 L 361.013 204.710 L 360.704 203.490 L 360.394 202.271 L 360.084 201.051 L 359.774 199.832 L 359.463 198.613 L 359.151 197.395 L 358.839 196.176 L 358.527 194.958 L 358.214 193.739 L 357.901 192.521 L 357.587 191.303 L 357.273 190.086 L 356.958 188.868 L 356.643 187.651 L 356.327 186.434 L 356.011 185.217 L 354.716 184.664 L 353.420 184.111 L 352.124 183.558 L 350.828 183.005 L 349.532 182.452 L 348.237 181.899 L 346.941 181.346 L 345.645 180.793 L 344.350 180.240 L 343.054 179.688 L 341.759 179.135 L 340.689 179.569 L 339.618 180.003 L 338.548 180.438 L 337.477 180.872 L 336.407 181.306 L 335.336 181.741 L 334.265 182.175 L 334.081 183.392 L 333.896 184.608 L 333.712 185.825 L 333.526 187.042 L 333.340 188.260 L 333.153 189.477 L 332.966 190.695 L 332.778 191.912 L 332.590 193.130 L 332.401 194.348 L 332.212 195.567 L 332.022 196.785 L 331.831 198.004 L 331.640 199.223 L 331.448 200.442 L 331.755 201.661 L 332.061 202.880 L 332.367 204.100 L 332.673 205.320 L 332.978 206.540 L 333.283 207.760 L 333.587 208.980 L 333.891 210.200 L 334.194 211.421 L 334.497 212.642 L 334.799 213.863 L 335.101 215.084 L 335.403 216.305 L 335.704 217.527 L 336.005 218.749 L 336.305 219.970 L 336.605 221.193 L 336.904 222.415 L 337.203 223.637 L 337.501 224.860 L 337.799 226.082 L 338.097 227.305 L 338.394 228.529 L 338.691 229.752 L 338.987 230.975 L 339.412 232.180 L 339.837 233.386 L 340.261 234.591 L 340.684 235.797 L 341.108 237.002 L 341.531 238.208 L 341.953 239.414 L 342.375 240.621 L 342.797 241.827 L 343.218 243.034 L 343.639 244.240 L 344.060 245.447 L 344.480 246.654 L 344.900 247.862 L 345.319 249.069 L 345.738 250.277 L 346.156 251.485 L 346.574 252.692 L 346.992 253.901 L 347.409 255.109 L 347.826 256.317 L 348.243 257.526 L 348.659 258.735 L 349.075 259.944 L 349.490 261.153 L 349.905 262.362 L 350.319 263.571 L 350.733 264.781 L 351.147 265.991 L 351.560 267.201 L 351.973 268.411 L 352.386 269.621 L 352.798 270.831 L 353.510 272.013 L 354.222 273.195 L 354.933 274.378 L 355.644 275.560 L 356.355 276.742 L 357.066 277.925 L 357.776 279.108 L 358.486 280.291 L 359.196 281.474 L 359.905 282.657 L 360.614 283.841 L 361.323 285.025 L 362.031 286.208" fill="none" stroke="rgba(51,51,51,1.000)" stroke-width="0.500" stroke-opacity="1.000" stroke-linejoin="round" stroke-linecap="round" />
<circle cx="158.179" cy="125.208" r="6.000" fill="rgba(0,0,0,1.000)" stroke="none" stroke-width="0.000" fill-opacity="1.000" stroke-opacity="1.000" />
<circle cx="369.938" cy="277.901" r="6.000" fill="rgba(0,0,0,1.000)" stroke="none" stroke-width="0.000" fill-opacity="1.000" stroke-opacity="1.000" />
<text x="158.179" y="125.208" font-size="11.0" font-family="Inter, -apple-system, BlinkMacSystemFont, 'Segoe UI', Roboto, Helvetica, Arial, 'PingFang SC', 'Microsoft YaHei', Ubuntu, Cantarell, 'Noto Sans', sans-serif" fill="rgba(0,0,0,1.000)" fill-opacity="1.000" text-anchor="middle" font-weight="normal" dominant-baseline="middle" transform="rotate(0 158.179 125.208)">Haikou</text>
<text x="369.938" y="277.901" font-size="11.0" font-family="Inter, -apple-system, BlinkMacSystemFont, 'Segoe UI', Roboto, Helvetica, Arial, 'PingFang SC', 'Microsoft YaHei', Ubuntu, Cantarell, 'Noto Sans', sans-serif" fill="rgba(0,0,0,1.000)" fill-opacity="1.000" text-anchor="middle" font-weight="normal" dominant-baseline="middle" transform="rotate(0 369.938 277.901)">Taipei</text>
</g>
<line x1="88.300" y1="311.000" x2="407.300" y2="311.000" stroke="rgba(51,51,51,1.000)" stroke-width="1.000" stroke-opacity="1.000" />
<line x1="89.362" y1="311.000" x2="89.362" y2="316.000" stroke="rgba(51,51,51,1.000)" stroke-width="1.000" stroke-opacity="1.000" />
<text x="89.362" y="329.000" font-size="13.0" font-family="Inter, -apple-system, BlinkMacSystemFont, 'Segoe UI', Roboto, Helvetica, Arial, 'PingFang SC', 'Microsoft YaHei', Ubuntu, Cantarell, 'Noto Sans', sans-serif" fill="rgba(51,51,51,1.000)" fill-opacity="1.000" text-anchor="middle" font-weight="normal" dominant-baseline="hanging" transform="rotate(0 89.362 329.000)">108</text>
<line x1="132.710" y1="311.000" x2="132.710" y2="316.000" stroke="rgba(51,51,51,1.000)" stroke-width="1.000" stroke-opacity="1.000" />
<text x="132.710" y="329.000" font-size="13.0" font-family="Inter, -apple-system, BlinkMacSystemFont, 'Segoe UI', Roboto, Helvetica, Arial, 'PingFang SC', 'Microsoft YaHei', Ubuntu, Cantarell, 'Noto Sans', sans-serif" fill="rgba(51,51,51,1.000)" fill-opacity="1.000" text-anchor="middle" font-weight="normal" dominant-baseline="hanging" transform="rotate(0 132.710 329.000)">110</text>
<line x1="176.059" y1="311.000" x2="176.059" y2="316.000" stroke="rgba(51,51,51,1.000)" stroke-width="1.000" stroke-opacity="1.000" />
<text x="176.059" y="329.000" font-size="13.0" font-family="Inter, -apple-system, BlinkMacSystemFont, 'Segoe UI', Roboto, Helvetica, Arial, 'PingFang SC', 'Microsoft YaHei', Ubuntu, Cantarell, 'Noto Sans', sans-serif" fill="rgba(51,51,51,1.000)" fill-opacity="1.000" text-anchor="middle" font-weight="normal" dominant-baseline="hanging" transform="rotate(0 176.059 329.000)">112</text>
<line x1="219.407" y1="311.000" x2="219.407" y2="316.000" stroke="rgba(51,51,51,1.000)" stroke-width="1.000" stroke-opacity="1.000" />
<text x="219.407" y="329.000" font-size="13.0" font-family="Inter, -apple-system, BlinkMacSystemFont, 'Segoe UI', Roboto, Helvetica, Arial, 'PingFang SC', 'Microsoft YaHei', Ubuntu, Cantarell, 'Noto Sans', sans-serif" fill="rgba(51,51,51,1.000)" fill-opacity="1.000" text-anchor="middle" font-weight="normal" dominant-baseline="hanging" transform="rotate(0 219.407 329.000)">114</text>
<line x1="262.755" y1="311.000" x2="262.755" y2="316.000" stroke="rgba(51,51,51,1.000)" stroke-width="1.000" stroke-opacity="1.000" />
<text x="262.755" y="329.000" font-size="13.0" font-family="Inter, -apple-system, BlinkMacSystemFont, 'Segoe UI', Roboto, Helvetica, Arial, 'PingFang SC', 'Microsoft YaHei', Ubuntu, Cantarell, 'Noto Sans', sans-serif" fill="rgba(51,51,51,1.000)" fill-opacity="1.000" text-anchor="middle" font-weight="normal" dominant-baseline="hanging" transform="rotate(0 262.755 329.000)">116</text>
<line x1="306.103" y1="311.000" x2="306.103" y2="316.000" stroke="rgba(51,51,51,1.000)" stroke-width="1.000" stroke-opacity="1.000" />
<text x="306.103" y="329.000" font-size="13.0" font-family="Inter, -apple-system, BlinkMacSystemFont, 'Segoe UI', Roboto, Helvetica, Arial, 'PingFang SC', 'Microsoft YaHei', Ubuntu, Cantarell, 'Noto Sans', sans-serif" fill="rgba(51,51,51,1.000)" fill-opacity="1.000" text-anchor="middle" font-weight="normal" dominant-baseline="hanging" transform="rotate(0 306.103 329.000)">118</text>
<line x1="349.452" y1="311.000" x2="349.452" y2="316.000" stroke="rgba(51,51,51,1.000)" stroke-width="1.000" stroke-opacity="1.000" />
<text x="349.452" y="329.000" font-size="13.0" font-family="Inter, -apple-system, BlinkMacSystemFont, 'Segoe UI', Roboto, Helvetica, Arial, 'PingFang SC', 'Microsoft YaHei', Ubuntu, Cantarell, 'Noto Sans', sans-serif" fill="rgba(51,51,51,1.000)" fill-opacity="1.000" text-anchor="middle" font-weight="normal" dominant-baseline="hanging" transform="rotate(0 349.452 329.000)">120</text>
<line x1="392.800" y1="311.000" x2="392.800" y2="316.000" stroke="rgba(51,51,51,1.000)" stroke-width="1.000" stroke-opacity="1.000" />
<text x="392.800" y="329.000" font-size="13.0" font-family="Inter, -apple-system, BlinkMacSystemFont, 'Segoe UI', Roboto, Helvetica, Arial, 'PingFang SC', 'Microsoft YaHei', Ubuntu, Cantarell, 'Noto Sans', sans-serif" fill="rgba(51,51,51,1.000)" fill-opacity="1.000" text-anchor="middle" font-weight="normal" dominant-baseline="hanging" transform="rotate(0 392.800 329.000)">122</text>
<text x="247.800" y="348.500" font-size="15.0" font-family="Inter, -apple-system, BlinkMacSystemFont, 'Segoe UI', Roboto, Helvetica, Arial, 'PingFang SC', 'Microsoft YaHei', Ubuntu, Cantarell, 'Noto Sans', sans-serif" fill="rgba(51,51,51,1.000)" fill-opacity="1.000" text-anchor="middle" font-weight="normal" dominant-baseline="hanging" transform="rotate(0 247.800 348.500)">Longitude</text>
<line x1="88.300" y1="40.000" x2="88.300" y2="311.000" stroke="rgba(51,51,51,1.000)" stroke-width="1.000" stroke-opacity="1.000" />
<line x1="88.300" y1="298.682" x2="83.300" y2="298.682" stroke="rgba(51,51,51,1.000)" stroke-width="1.000" stroke-opacity="1.000" />
<text x="80.300" y="298.682" font-size="13.0" font-family="Inter, -apple-system, BlinkMacSystemFont, 'Segoe UI', Roboto, Helvetica, Arial, 'PingFang SC', 'Microsoft YaHei', Ubuntu, Cantarell, 'Noto Sans', sans-serif" fill="rgba(51,51,51,1.000)" fill-opacity="1.000" text-anchor="end" font-weight="normal" dominant-baseline="central" transform="rotate(0 80.300 298.682)">18</text>
<line x1="88.300" y1="264.933" x2="83.300" y2="264.933" stroke="rgba(51,51,51,1.000)" stroke-width="1.000" stroke-opacity="1.000" />
<text x="80.300" y="264.933" font-size="13.0" font-family="Inter, -apple-system, BlinkMacSystemFont, 'Segoe UI', Roboto, Helvetica, Arial, 'PingFang SC', 'Microsoft YaHei', Ubuntu, Cantarell, 'Noto Sans', sans-serif" fill="rgba(51,51,51,1.000)" fill-opacity="1.000" text-anchor="end" font-weight="normal" dominant-baseline="central" transform="rotate(0 80.300 264.933)">19</text>
<line x1="88.300" y1="231.185" x2="83.300" y2="231.185" stroke="rgba(51,51,51,1.000)" stroke-width="1.000" stroke-opacity="1.000" />
<text x="80.300" y="231.185" font-size="13.0" font-family="Inter, -apple-system, BlinkMacSystemFont, 'Segoe UI', Roboto, Helvetica, Arial, 'PingFang SC', 'Microsoft YaHei', Ubuntu, Cantarell, 'Noto Sans', sans-serif" fill="rgba(51,51,51,1.000)" fill-opacity="1.000" text-anchor="end" font-weight="normal" dominant-baseline="central" transform="rotate(0 80.300 231.185)">20</text>
<line x1="88.300" y1="197.436" x2="83.300" y2="197.436" stroke="rgba(51,51,51,1.000)" stroke-width="1.000" stroke-opacity="1.000" />
<text x="80.300" y="197.436" font-size="13.0" font-family="Inter, -apple-system, BlinkMacSystemFont, 'Segoe UI', Roboto, Helvetica, Arial, 'PingFang SC', 'Microsoft YaHei', Ubuntu, Cantarell, 'Noto Sans', sans-serif" fill="rgba(51,51,51,1.000)" fill-opacity="1.000" text-anchor="end" font-weight="normal" dominant-baseline="central" transform="rotate(0 80.300 197.436)">21</text>
<line x1="88.300" y1="163.688" x2="83.300" y2="163.688" stroke="rgba(51,51,51,1.000)" stroke-width="1.000" stroke-opacity="1.000" />
<text x="80.300" y="163.688" font-size="13.0" font-family="Inter, -apple-system, BlinkMacSystemFont, 'Segoe UI', Roboto, Helvetica, Arial, 'PingFang SC', 'Microsoft YaHei', Ubuntu, Cantarell, 'Noto Sans', sans-serif" fill="rgba(51,51,51,1.000)" fill-opacity="1.000" text-anchor="end" font-weight="normal" dominant-baseline="central" transform="rotate(0 80.300 163.688)">22</text>
<line x1="88.300" y1="129.940" x2="83.300" y2="129.940" stroke="rgba(51,51,51,1.000)" stroke-width="1.000" stroke-opacity="1.000" />
<text x="80.300" y="129.940" font-size="13.0" font-family="Inter, -apple-system, BlinkMacSystemFont, 'Segoe UI', Roboto, Helvetica, Arial, 'PingFang SC', 'Microsoft YaHei', Ubuntu, Cantarell, 'Noto Sans', sans-serif" fill="rgba(51,51,51,1.000)" fill-opacity="1.000" text-anchor="end" font-weight="normal" dominant-baseline="central" transform="rotate(0 80.300 129.940)">23</text>
<line x1="88.300" y1="96.191" x2="83.300" y2="96.191" stroke="rgba(51,51,51,1.000)" stroke-width="1.000" stroke-opacity="1.000" />
<text x="80.300" y="96.191" font-size="13.0" font-family="Inter, -apple-system, BlinkMacSystemFont, 'Segoe UI', Roboto, Helvetica, Arial, 'PingFang SC', 'Microsoft YaHei', Ubuntu, Cantarell, 'Noto Sans', sans-serif" fill="rgba(51,51,51,1.000)" fill-opacity="1.000" text-anchor="end" font-weight="normal" dominant-baseline="central" transform="rotate(0 80.300 96.191)">24</text>
<line x1="88.300" y1="62.443" x2="83.300" y2="62.443" stroke="rgba(51,51,51,1.000)" stroke-width="1.000" stroke-opacity="1.000" />
<text x="80.300" y="62.443" font-size="13.0" font-family="Inter, -apple-system, BlinkMacSystemFont, 'Segoe UI', Roboto, Helvetica, Arial, 'PingFang SC', 'Microsoft YaHei', Ubuntu, Cantarell, 'Noto Sans', sans-serif" fill="rgba(51,51,51,1.000)" fill-opacity="1.000" text-anchor="end" font-weight="normal" dominant-baseline="central" transform="rotate(0 80.300 62.443)">25</text>
<text x="57.800" y="175.500" font-size="15.0" font-family="Inter, -apple-system, BlinkMacSystemFont, 'Segoe UI', Roboto, Helvetica, Arial, 'PingFang SC', 'Microsoft YaHei', Ubuntu, Cantarell, 'Noto Sans', sans-serif" fill="rgba(51,51,51,1.000)" fill-opacity="1.000" text-anchor="middle" font-weight="normal" dominant-baseline="central" transform="rotate(-90 57.800 175.500)">Latitude</text>
<text x="422.300" y="46.000" font-size="13.2" font-family="Inter, -apple-system, BlinkMacSystemFont, 'Segoe UI', Roboto, Helvetica, Arial, 'PingFang SC', 'Microsoft YaHei', Ubuntu, Cantarell, 'Noto Sans', sans-serif" fill="rgba(51,51,51,1.000)" fill-opacity="1.000" text-anchor="start" font-weight="bold" dominant-baseline="central" transform="rotate(0 422.300 46.000)">population</text>
<defs><linearGradient id="grad_population" x1="0%" y1="0%" x2="0%" y2="100%"><stop offset="0.0%" stop-color="rgba(253,231,37,1.000)" /><stop offset="6.7%" stop-color="rgba(210,226,27,1.000)" /><stop offset="13.3%" stop-color="rgba(165,219,54,1.000)" /><stop offset="20.0%" stop-color="rgba(122,209,81,1.000)" /><stop offset="26.7%" stop-color="rgba(84,197,104,1.000)" /><stop offset="33.3%" stop-color="rgba(53,183,121,1.000)" /><stop offset="40.0%" stop-color="rgba(34,168,132,1.000)" /><stop offset="46.7%" stop-color="rgba(31,152,139,1.000)" /><stop offset="53.3%" stop-color="rgba(35,136,142,1.000)" /><stop offset="60.0%" stop-color="rgba(42,120,142,1.000)" /><stop offset="66.7%" stop-color="rgba(49,104,142,1.000)" /><stop offset="73.3%" stop-color="rgba(57,86,140,1.000)" /><stop offset="80.0%" stop-color="rgba(65,68,135,1.000)" /><stop offset="86.7%" stop-color="rgba(71,47,125,1.000)" /><stop offset="93.3%" stop-color="rgba(72,26,108,1.000)" /><stop offset="100.0%" stop-color="rgba(68,1,84,1.000)" /></linearGradient></defs><rect x="422.300" y="60.200" width="15.000" height="150.000" fill="url(#grad_population)" />
<rect x="422.300" y="60.200" width="15.000" height="150.000" fill="none" stroke="rgba(51,51,51,1.000)" stroke-width="1.000" fill-opacity="1.000" stroke-opacity="1.000" />
<line x1="422.300" y1="188.851" x2="425.300" y2="188.851" stroke="rgba(255,255,255,1.000)" stroke-width="1.000" stroke-opacity="1.000" />
<line x1="434.300" y1="188.851" x2="437.300" y2="188.851" stroke="rgba(255,255,255,1.000)" stroke-width="1.000" stroke-opacity="1.000" />
<text x="445.300" y="188.851" font-size="12.0" font-family="Inter, -apple-system, BlinkMacSystemFont, 'Segoe UI', Roboto, Helvetica, Arial, 'PingFang SC', 'Microsoft YaHei', Ubuntu, Cantarell, 'Noto Sans', sans-serif" fill="rgba(51,51,51,1.000)" fill-opacity="1.000" text-anchor="start" font-weight="normal" dominant-baseline="central" transform="rotate(0 445.300 188.851)">12</text>
<line x1="422.300" y1="166.612" x2="425.300" y2="166.612" stroke="rgba(255,255,255,1.000)" stroke-width="1.000" stroke-opacity="1.000" />
<line x1="434.300" y1="166.612" x2="437.300" y2="166.612" stroke="rgba(255,255,255,1.000)" stroke-width="1.000" stroke-opacity="1.000" />
<text x="445.300" y="166.612" font-size="12.0" font-family="Inter, -apple-system, BlinkMacSystemFont, 'Segoe UI', Roboto, Helvetica, Arial, 'PingFang SC', 'Microsoft YaHei', Ubuntu, Cantarell, 'Noto Sans', sans-serif" fill="rgba(51,51,51,1.000)" fill-opacity="1.000" text-anchor="start" font-weight="normal" dominant-baseline="central" transform="rotate(0 445.300 166.612)">14</text>
<line x1="422.300" y1="144.373" x2="425.300" y2="144.373" stroke="rgba(255,255,255,1.000)" stroke-width="1.000" stroke-opacity="1.000" />
<line x1="434.300" y1="144.373" x2="437.300" y2="144.373" stroke="rgba(255,255,255,1.000)" stroke-width="1.000" stroke-opacity="1.000" />
<text x="445.300" y="144.373" font-size="12.0" font-family="Inter, -apple-system, BlinkMacSystemFont, 'Segoe UI', Roboto, Helvetica, Arial, 'PingFang SC', 'Microsoft YaHei', Ubuntu, Cantarell, 'Noto Sans', sans-serif" fill="rgba(51,51,51,1.000)" fill-opacity="1.000" text-anchor="start" font-weight="normal" dominant-baseline="central" transform="rotate(0 445.300 144.373)">16</text>
<line x1="422.300" y1="122.135" x2="425.300" y2="122.135" stroke="rgba(255,255,255,1.000)" stroke-width="1.000" stroke-opacity="1.000" />
<line x1="434.300" y1="122.135" x2="437.300" y2="122.135" stroke="rgba(255,255,255,1.000)" stroke-width="1.000" stroke-opacity="1.000" />
<text x="445.300" y="122.135" font-size="12.0" font-family="Inter, -apple-system, BlinkMacSystemFont, 'Segoe UI', Roboto, Helvetica, Arial, 'PingFang SC', 'Microsoft YaHei', Ubuntu, Cantarell, 'Noto Sans', sans-serif" fill="rgba(51,51,51,1.000)" fill-opacity="1.000" text-anchor="start" font-weight="normal" dominant-baseline="central" transform="rotate(0 445.300 122.135)">18</text>
<line x1="422.300" y1="99.896" x2="425.300" y2="99.896" stroke="rgba(255,255,255,1.000)" stroke-width="1.000" stroke-opacity="1.000" />
<line x1="434.300" y1="99.896" x2="437.300" y2="99.896" stroke="rgba(255,255,255,1.000)" stroke-width="1.000" stroke-opacity="1.000" />
<text x="445.300" y="99.896" font-size="12.0" font-family="Inter, -apple-system, BlinkMacSystemFont, 'Segoe UI', Roboto, Helvetica, Arial, 'PingFang SC', 'Microsoft YaHei', Ubuntu, Cantarell, 'Noto Sans', sans-serif" fill="rgba(51,51,51,1.000)" fill-opacity="1.000" text-anchor="start" font-weight="normal" dominant-baseline="central" transform="rotate(0 445.300 99.896)">20</text>
<line x1="422.300" y1="77.657" x2="425.300" y2="77.657" stroke="rgba(255,255,255,1.000)" stroke-width="1.000" stroke-opacity="1.000" />
<line x1="434.300" y1="77.657" x2="437.300" y2="77.657" stroke="rgba(255,255,255,1.000)" stroke-width="1.000" stroke-opacity="1.000" />
<text x="445.300" y="77.657" font-size="12.0" font-family="Inter, -apple-system, BlinkMacSystemFont, 'Segoe UI', Roboto, Helvetica, Arial, 'PingFang SC', 'Microsoft YaHei', Ubuntu, Cantarell, 'Noto Sans', sans-serif" fill="rgba(51,51,51,1.000)" fill-opacity="1.000" text-anchor="start" font-weight="normal" dominant-baseline="central" transform="rotate(0 445.300 77.657)">22</text>
</svg>