<svg width="500" height="400" viewBox="0 0 500 400" xmlns="http://www.w3.org/2000/svg"><rect x="0.000" y="0.000" width="500.000" height="400.000" fill="rgba(255,255,255,1.000)" stroke="none" stroke-width="0.000" fill-opacity="1.000" stroke-opacity="1.000" />
<line x1="89.362" y1="40.000" x2="89.362" y2="311.000" stroke="rgba(189,189,189,1.000)" stroke-width="1.000" stroke-opacity="1.000" />
<line x1="132.710" y1="40.000" x2="132.710" y2="311.000" stroke="rgba(189,189,189,1.000)" stroke-width="1.000" stroke-opacity="1.000" />
<line x1="176.059" y1="40.000" x2="176.059" y2="311.000" stroke="rgba(189,189,189,1.000)" stroke-width="1.000" stroke-opacity="1.000" />
<line x1="219.407" y1="40.000" x2="219.407" y2="311.000" stroke="rgba(189,189,189,1.000)" stroke-width="1.000" stroke-opacity="1.000" />
<line x1="262.755" y1="40.000" x2="262.755" y2="311.000" stroke="rgba(189,189,189,1.000)" stroke-width="1.000" stroke-opacity="1.000" />
<line x1="306.103" y1="40.000" x2="306.103" y2="311.000" stroke="rgba(189,189,189,1.000)" stroke-width="1.000" stroke-opacity="1.000" />
<line x1="349.452" y1="40.000" x2="349.452" y2="311.000" stroke="rgba(189,189,189,1.000)" stroke-width="1.000" stroke-opacity="1.000" />
<line x1="392.800" y1="40.000" x2="392.800" y2="311.000" stroke="rgba(189,189,189,1.000)" stroke-width="1.000" stroke-opacity="1.000" />
<line x1="88.300" y1="298.682" x2="407.300" y2="298.682" stroke="rgba(189,189,189,1.000)" stroke-width="1.000" stroke-opacity="1.000" />
<line x1="88.300" y1="264.933" x2="407.300" y2="264.933" stroke="rgba(189,189,189,1.000)" stroke-width="1.000" stroke-opacity="1.000" />
<line x1="88.300" y1="231.185" x2="407.300" y2="231.185" stroke="rgba(189,189,189,1.000)" stroke-width="1.000" stroke-opacity="1.000" />
<line x1="88.300" y1="197.436" x2="407.300" y2="197.436" stroke="rgba(189,189,189,1.000)" stroke-width="1.000" stroke-opacity="1.000" />
<line x1="88.300" y1="163.688" x2="407.300" y2="163.688" stroke="rgba(189,189,189,1.000)" stroke-width="1.000" stroke-opacity="1.000" />
<line x1="88.300" y1="129.940" x2="407.300" y2="129.940" stroke="rgba(189,189,189,1.000)" stroke-width="1.000" stroke-opacity="1.000" />
<line x1="88.300" y1="96.191" x2="407.300" y2="96.191" stroke="rgba(189,189,189,1.000)" stroke-width="1.000" stroke-opacity="1.000" />
<line x1="88.300" y1="62.443" x2="407.300" y2="62.443" stroke="rgba(189,189,189,1.000)" stroke-width="1.000" stroke-opacity="1.000" />
<text x="250.000" y="13.333" font-size="18.0" font-family="Inter, -apple-system, BlinkMacSystemFont, 'Segoe UI', Roboto, Helvetica, Arial, 'PingFang SC', 'Microsoft YaHei', Ubuntu, Cantarell, 'Noto Sans', sans-serif" fill="rgba(51,51,51,1.000)" fill-opacity="1.000" text-anchor="middle" font-weight="bold" dominant-baseline="middle" transform="rotate(0 250.000 13.333)">Hainan &amp; Taiwan — Equal Earth Projection</text>
<defs><clipPath id="plot-clip-area"><rect x="88.300" y="40.000" width="319.000" height="271.000" /></clipPath></defs>
<g clip-path="url(#plot-clip-area)">
<path d="M 157.964 280.054 L 158.297 278.824 L 158.629 277.594 L 158.960 276.364 L 159.291 275.134 L 159.622 273.905 L 159.952 272.675 L 160.281 271.446 L 160.610 270.217 L 160.938 268.988 L 161.266 267.759 L 161.593 266.530 L 161.920 265.302 L 162.246 264.074 L 162.572 262.846 L 162.897 261.618 L 163.843 260.390 L 164.789 259.162 L 165.735 257.935 L 166.679 256.708 L 167.623 255.481 L 168.566 254.254 L 169.509 253.027 L 170.451 251.800 L 171.392 250.574 L 172.332 249.348 L 172.782 248.122 L 173.230 246.896 L 173.679 245.670 L 174.126 244.445 L 174.573 243.219 L 175.020 241.994 L 175.466 240.769 L 175.911 239.544 L 176.356 238.320 L 176.800 237.095 L 177.244 235.871 L 177.687 234.647 L 178.129 233.423 L 178.571 232.199 L 179.012 230.975 L 179.924 229.956 L 180.835 228.936 L 181.745 227.917 L 182.655 226.898 L 183.564 225.879 L 184.473 224.860 L 184.797 226.082 L 185.119 227.305 L 185.442 228.529 L 185.764 229.752 L 186.086 230.975 L 186.407 232.199 L 186.728 233.423 L 187.049 234.647 L 187.369 235.871 L 187.689 237.095 L 188.008 238.320 L 188.327 239.544 L 188.646 240.769 L 188.964 241.994 L 189.282 243.219 L 189.599 244.445 L 189.916 245.670 L 190.233 246.896 L 190.549 248.122 L 190.865 249.348 L 191.180 250.574 L 191.496 251.800 L 191.810 253.027 L 192.124 254.254 L 192.438 255.481 L 192.752 256.708 L 193.065 257.935 L 193.377 259.162 L 193.689 260.390 L 194.001 261.618 L 193.767 262.846 L 193.532 264.074 L 193.297 265.302 L 193.061 266.530 L 192.824 267.759 L 192.588 268.988 L 192.350 270.217 L 192.112 271.446 L 191.874 272.675 L 191.635 273.905 L 191.395 275.134 L 191.155 276.364 L 190.914 277.594 L 190.673 278.824 L 190.432 280.054 L 189.501 281.080 L 188.570 282.105 L 187.639 283.131 L 186.706 284.157 L 185.774 285.182 L 184.841 286.208 L 183.694 285.866 L 182.546 285.524 L 181.399 285.182 L 180.252 284.840 L 179.105 284.499 L 177.958 284.157 L 176.811 283.815 L 175.664 283.473 L 174.517 283.131 L 173.370 282.789 L 172.223 282.447 L 171.076 282.105 L 169.929 281.763 L 168.782 281.422 L 167.636 281.080 L 166.489 280.738 L 165.342 280.396 L 164.195 280.054 L 163.157 280.054 L 162.118 280.054 L 161.080 280.054 L 160.041 280.054 L 159.003 280.054 L 157.964 280.054 Z" fill="rgba(68,1,84,1.000)" fill-opacity="1.000" stroke="rgba(51,51,51,1.000)" stroke-width="0.500" stroke-opacity="1.000" stroke-linejoin="round" stroke-linecap="round" />
<path d="M 157.964 280.054 L 158.297 278.824 L 158.629 277.594 L 158.960 276.364 L 159.291 275.134 L 159.622 273.905 L 159.952 272.675 L 160.281 271.446 L 160.610 270.217 L 160.938 268.988 L 161.266 267.759 L 161.593 266.530 L 161.920 265.302 L 162.246 264.074 L 162.572 262.846 L 162.897 261.618 L 163.843 260.390 L 164.789 259.162 L 165.735 257.935 L 166.679 256.708 L 167.623 255.481 L 168.566 254.254 L 169.509 253.027 L 170.451 251.800 L 171.392 250.574 L 172.332 249.348 L 172.782 248.122 L 173.230 246.896 L 173.679 245.670 L 174.126 244.445 L 174.573 243.219 L 175.020 241.994 L 175.466 240.769 L 175.911 239.544 L 176.356 238.320 L 176.800 237.095 L 177.244 235.871 L 177.687 234.647 L 178.129 233.423 L 178.571 232.199 L 179.012 230.975 L 179.924 229.956 L 180.835 228.936 L 181.745 227.917 L 182.655 226.898 L 183.564 225.879 L 184.473 224.860 L 184.797 226.082 L 185.119 227.305 L 185.442 228.529 L 185.764 229.752 L 186.086 230.975 L 186.407 232.199 L 186.728 233.423 L 187.049 234.647 L 187.369 235.871 L 187.689 237.095 L 188.008 238.320 L 188.327 239.544 L 188.646 240.769 L 188.964 241.994 L 189.282 243.219 L 189.599 244.445 L 189.916 245.670 L 190.233 246.896 L 190.549 248.122 L 190.865 249.348 L 191.180 250.574 L 191.496 251.800 L 191.810 253.027 L 192.124 254.254 L 192.438 255.481 L 192.752 256.708 L 193.065 257.935 L 193.377 259.162 L 193.689 260.390 L 194.001 261.618 L 193.767 262.846 L 193.532 264.074 L 193.297 265.302 L 193.061 266.530 L 192.824 267.759 L 192.588 268.988 L 192.350 270.217 L 192.112 271.446 L 191.874 272.675 L 191.635 273.905 L 191.395 275.134 L 191.155 276.364 L 190.914 277.594 L 190.673 278.824 L 190.432 280.054 L 189.501 281.080 L 188.570 282.105 L 187.639 283.131 L 186.706 284.157 L 185.774 285.182 L 184.841 286.208 L 183.694 285.866 L 182.546 285.524 L 181.399 285.182 L 180.252 284.840 L 179.105 284.499 L 177.958 284.157 L 176.811 283.815 L 175.664 283.473 L 174.517 283.131 L 173.370 282.789 L 172.223 282.447 L 171.076 282.105 L 169.929 281.763 L 168.782 281.422 L 167.636 281.080 L 166.489 280.738 L 165.342 280.396 L 164.195 280.054 L 163.157 280.054 L 162.118 280.054 L 161.080 280.054 L 160.041 280.054 L 159.003 280.054 L 157.964 280.054" fill="none" stroke="rgba(51,51,51,1.000)" stroke-width="0.500" stroke-opacity="1.000" stroke-linejoin="round" stroke-linecap="round" />
<path d="M 315.769 64.471 L 317.125 65.326 L 318.480 66.182 L 319.836 67.038 L 321.191 67.894 L 322.547 68.750 L 323.902 69.606 L 325.258 70.462 L 325.833 71.639 L 326.408 72.817 L 326.982 73.995 L 327.556 75.173 L 328.130 76.351 L 328.703 77.529 L 329.276 78.708 L 329.849 79.887 L 330.421 81.066 L 330.993 82.245 L 331.564 83.424 L 332.135 84.604 L 332.706 85.783 L 333.277 86.963 L 333.847 88.143 L 334.417 89.324 L 334.986 90.504 L 335.555 91.685 L 336.124 92.866 L 336.692 94.047 L 337.260 95.228 L 337.827 96.409 L 338.395 97.591 L 338.961 98.773 L 339.528 99.955 L 340.094 101.137 L 340.660 102.319 L 341.225 103.502 L 341.443 104.706 L 341.661 105.911 L 341.878 107.115 L 342.095 108.320 L 342.311 109.525 L 342.527 110.731 L 342.742 111.936 L 342.957 113.142 L 343.171 114.347 L 343.385 115.553 L 343.598 116.760 L 343.811 117.966 L 344.023 119.173 L 344.235 120.379 L 344.447 121.586 L 344.658 122.793 L 344.868 124.001 L 345.078 125.208 L 345.288 126.416 L 345.497 127.624 L 345.705 128.832 L 345.913 130.040 L 346.121 131.249 L 346.328 132.458 L 346.535 133.667 L 346.741 134.876 L 346.946 136.085 L 347.152 137.294 L 347.356 138.504 L 347.561 139.714 L 347.764 140.924 L 347.968 142.134 L 348.170 143.344 L 348.373 144.555 L 348.575 145.766 L 348.776 146.977 L 348.977 148.188 L 349.177 149.399 L 349.377 150.611 L 349.577 151.822 L 349.776 153.034 L 349.974 154.246 L 350.172 155.459 L 350.370 156.671 L 350.567 157.884 L 350.763 159.097 L 350.959 160.310 L 351.155 161.523 L 351.350 162.736 L 351.545 163.950 L 350.483 164.501 L 349.422 165.053 L 348.360 165.605 L 347.298 166.157 L 346.236 166.708 L 345.173 167.260 L 344.110 167.812 L 343.047 168.364 L 341.984 168.916 L 340.921 169.468 L 339.857 170.020 L 338.607 169.587 L 337.357 169.153 L 336.107 168.719 L 334.857 168.285 L 333.608 167.852 L 332.358 167.418 L 331.108 166.984 L 330.420 165.770 L 329.732 164.557 L 329.043 163.343 L 328.354 162.129 L 327.665 160.916 L 326.975 159.703 L 326.285 158.490 L 325.595 157.277 L 324.904 156.065 L 324.213 154.852 L 323.521 153.640 L 322.829 152.428 L 322.137 151.217 L 321.445 150.005 L 320.752 148.793 L 320.555 147.582 L 320.358 146.371 L 320.160 145.160 L 319.962 143.950 L 319.763 142.739 L 319.564 141.529 L 319.364 140.319 L 319.164 139.109 L 318.964 137.899 L 318.762 136.690 L 318.561 135.480 L 318.359 134.271 L 318.156 133.062 L 317.953 131.853 L 317.750 130.645 L 317.546 129.436 L 317.342 128.228 L 317.137 127.020 L 316.931 125.812 L 316.726 124.605 L 316.519 123.397 L 316.313 122.190 L 316.105 120.983 L 315.898 119.776 L 315.690 118.569 L 315.616 117.381 L 315.542 116.193 L 315.468 115.005 L 315.393 113.818 L 315.317 112.630 L 315.241 111.443 L 315.165 110.256 L 315.088 109.069 L 315.010 107.882 L 314.932 106.696 L 314.854 105.509 L 314.775 104.323 L 314.695 103.137 L 314.615 101.951 L 314.535 100.766 L 314.454 99.580 L 314.373 98.395 L 314.291 97.210 L 314.208 96.025 L 314.125 94.841 L 314.042 93.656 L 313.958 92.472 L 313.874 91.288 L 313.789 90.104 L 313.703 88.920 L 313.617 87.737 L 313.531 86.554 L 313.444 85.371 L 313.357 84.188 L 313.269 83.005 L 313.181 81.822 L 313.092 80.640 L 313.002 79.458 L 313.219 78.304 L 313.434 77.150 L 313.649 75.997 L 313.864 74.843 L 314.078 73.690 L 314.291 72.537 L 314.504 71.384 L 314.716 70.231 L 314.928 69.079 L 315.139 67.927 L 315.350 66.774 L 315.560 65.623 L 315.769 64.471 Z" fill="rgba(253,231,37,1.000)" fill-opacity="1.000" stroke="rgba(51,51,51,1.000)" stroke-width="0.500" stroke-opacity="1.000" stroke-linejoin="round" stroke-linecap="round" />
<path d="M 315.769 64.471 L 317.125 65.326 L 318.480 66.182 L 319.836 67.038 L 321.191 67.894 L 322.547 68.750 L 323.902 69.606 L 325.258 70.462 L 325.833 71.639 L 326.408 72.817 L 326.982 73.995 L 327.556 75.173 L 328.130 76.351 L 328.703 77.529 L 329.276 78.708 L 329.849 79.887 L 330.421 81.066 L 330.993 82.245 L 331.564 83.424 L 332.135 84.604 L 332.706 85.783 L 333.277 86.963 L 333.847 88.143 L 334.417 89.324 L 334.986 90.504 L 335.555 91.685 L 336.124 92.866 L 336.692 94.047 L 337.260 95.228 L 337.827 96.409 L 338.395 97.591 L 338.961 98.773 L 339.528 99.955 L 340.094 101.137 L 340.660 102.319 L 341.225 103.502 L 341.443 104.706 L 341.661 105.911 L 341.878 107.115 L 342.095 108.320 L 342.311 109.525 L 342.527 110.731 L 342.742 111.936 L 342.957 113.142 L 343.171 114.347 L 343.385 115.553 L 343.598 116.760 L 343.811 117.966 L 344.023 119.173 L 344.235 120.379 L 344.447 121.586 L 344.658 122.793 L 344.868 124.001 L 345.078 125.208 L 345.288 126.416 L 345.497 127.624 L 345.705 128.832 L 345.913 130.040 L 346.121 131.249 L 346.328 132.458 L 346.535 133.667 L 346.741 134.876 L 346.946 136.085 L 347.152 137.294 L 347.356 138.504 L 347.561 139.714 L 347.764 140.924 L 347.968 142.134 L 348.170 143.344 L 348.373 144.555 L 348.575 145.766 L 348.776 146.977 L 348.977 148.188 L 349.177 149.399 L 349.377 150.611 L 349.577 151.822 L 349.776 153.034 L 349.974 154.246 L 350.172 155.459 L 350.370 156.671 L 350.567 157.884 L 350.763 159.097 L 350.959 160.310 L 351.155 161.523 L 351.350 162.736 L 351.545 163.950 L 350.483 164.501 L 349.422 165.053 L 348.360 165.605 L 347.298 166.157 L 346.236 166.708 L 345.173 167.260 L 344.110 167.812 L 343.047 168.364 L 341.984 168.916 L 340.921 169.468 L 339.857 170.020 L 338.607 169.587 L 337.357 169.153 L 336.107 168.719 L 334.857 168.285 L 333.608 167.852 L 332.358 167.418 L 331.108 166.984 L 330.420 165.770 L 329.732 164.557 L 329.043 163.343 L 328.354 162.129 L 327.665 160.916 L 326.975 159.703 L 326.285 158.490 L 325.595 157.277 L 324.904 156.065 L 324.213 154.852 L 323.521 153.640 L 322.829 152.428 L 322.137 151.217 L 321.445 150.005 L 320.752 148.793 L 320.555 147.582 L 320.358 146.371 L 320.160 145.160 L 319.962 143.950 L 319.763 142.739 L 319.564 141.529 L 319.364 140.319 L 319.164 139.109 L 318.964 137.899 L 318.762 136.690 L 318.561 135.480 L 318.359 134.271 L 318.156 133.062 L 317.953 131.853 L 317.750 130.645 L 317.546 129.436 L 317.342 128.228 L 317.137 127.020 L 316.931 125.812 L 316.726 124.605 L 316.519 123.397 L 316.313 122.190 L 316.105 120.983 L 315.898 119.776 L 315.690 118.569 L 315.616 117.381 L 315.542 116.193 L 315.468 115.005 L 315.393 113.818 L 315.317 112.630 L 315.241 111.443 L 315.165 110.256 L 315.088 109.069 L 315.010 107.882 L 314.932 106.696 L 314.854 105.509 L 314.775 104.323 L 314.695 103.137 L 314.615 101.951 L 314.535 100.766 L 314.454 99.580 L 314.373 98.395 L 314.291 97.210 L 314.208 96.025 L 314.125 94.841 L 314.042 93.656 L 313.958 92.472 L 313.874 91.288 L 313.789 90.104 L 313.703 88.920 L 313.617 87.737 L 313.531 86.554 L 313.444 85.371 L 313.357 84.188 L 313.269 83.005 L 313.181 81.822 L 313.092 80.640 L 313.002 79.458 L 313.219 78.304 L 313.434 77.150 L 313.649 75.997 L 313.864 74.843 L 314.078 73.690 L 314.291 72.537 L 314.504 71.384 L 314.716 70.231 L 314.928 69.079 L 315.139 67.927 L 315.350 66.774 L 315.560 65.623 L 315.769 64.471" fill="none" stroke="rgba(51,51,51,1.000)" stroke-width="0.500" stroke-opacity="1.000" stroke-linejoin="round" stroke-linecap="round" />
<circle cx="177.025" cy="224.248" r="6.000" fill="rgba(0,0,0,1.000)" stroke="none" stroke-width="0.000" fill-opacity="1.000" stroke-opacity="1.000" />
<circle cx="326.895" cy="72.560" r="6.000" fill="rgba(0,0,0,1.000)" stroke="none" stroke-width="0.000" fill-opacity="1.000" stroke-opacity="1.000" />
<text x="177.025" y="224.248" font-size="11.0" font-family="Inter, -apple-system, BlinkMacSystemFont, 'Segoe UI', Roboto, Helvetica, Arial, 'PingFang SC', 'Microsoft YaHei', Ubuntu, Cantarell, 'Noto Sans', sans-serif" fill="rgba(0,0,0,1.000)" fill-opacity="1.000" text-anchor="middle" font-weight="normal" dominant-baseline="middle" transform="rotate(0 177.025 224.248)">Haikou</text>
<text x="326.895" y="72.560" font-size="11.0" font-family="Inter, -apple-system, BlinkMacSystemFont, 'Segoe UI', Roboto, Helvetica, Arial, 'PingFang SC', 'Microsoft YaHei', Ubuntu, Cantarell, 'Noto Sans', sans-serif" fill="rgba(0,0,0,1.000)" fill-opacity="1.000" text-anchor="middle" font-weight="normal" dominant-baseline="middle" transform="rotate(0 326.895 72.560)">Taipei</text>
</g>
<line x1="88.300" y1="311.000" x2="407.300" y2="311.000" stroke="rgba(51,51,51,1.000)" stroke-width="1.000" stroke-opacity="1.000" />
<line x1="89.362" y1="311.000" x2="89.362" y2="317.000" stroke="rgba(51,51,51,1.000)" stroke-width="1.000" stroke-opacity="1.000" />
<text x="89.362" y="320.000" font-size="13.0" font-family="Inter, -apple-system, BlinkMacSystemFont, 'Segoe UI', Roboto, Helvetica, Arial, 'PingFang SC', 'Microsoft YaHei', Ubuntu, Cantarell, 'Noto Sans', sans-serif" fill="rgba(51,51,51,1.000)" fill-opacity="1.000" text-anchor="middle" font-weight="normal" dominant-baseline="hanging" transform="rotate(0 89.362 320.000)">108</text>
<line x1="132.710" y1="311.000" x2="132.710" y2="317.000" stroke="rgba(51,51,51,1.000)" stroke-width="1.000" stroke-opacity="1.000" />
<text x="132.710" y="320.000" font-size="13.0" font-family="Inter, -apple-system, BlinkMacSystemFont, 'Segoe UI', Roboto, Helvetica, Arial, 'PingFang SC', 'Microsoft YaHei', Ubuntu, Cantarell, 'Noto Sans', sans-serif" fill="rgba(51,51,51,1.000)" fill-opacity="1.000" text-anchor="middle" font-weight="normal" dominant-baseline="hanging" transform="rotate(0 132.710 320.000)">110</text>
<line x1="176.059" y1="311.000" x2="176.059" y2="317.000" stroke="rgba(51,51,51,1.000)" stroke-width="1.000" stroke-opacity="1.000" />
<text x="176.059" y="320.000" font-size="13.0" font-family="Inter, -apple-system, BlinkMacSystemFont, 'Segoe UI', Roboto, Helvetica, Arial, 'PingFang SC', 'Microsoft YaHei', Ubuntu, Cantarell, 'Noto Sans', sans-serif" fill="rgba(51,51,51,1.000)" fill-opacity="1.000" text-anchor="middle" font-weight="normal" dominant-baseline="hanging" transform="rotate(0 176.059 320.000)">112</text>
<line x1="219.407" y1="311.000" x2="219.407" y2="317.000" stroke="rgba(51,51,51,1.000)" stroke-width="1.000" stroke-opacity="1.000" />
<text x="219.407" y="320.000" font-size="13.0" font-family="Inter, -apple-system, BlinkMacSystemFont, 'Segoe UI', Roboto, Helvetica, Arial, 'PingFang SC', 'Microsoft YaHei', Ubuntu, Cantarell, 'Noto Sans', sans-serif" fill="rgba(51,51,51,1.000)" fill-opacity="1.000" text-anchor="middle" font-weight="normal" dominant-baseline="hanging" transform="rotate(0 219.407 320.000)">114</text>
<line x1="262.755" y1="311.000" x2="262.755" y2="317.000" stroke="rgba(51,51,51,1.000)" stroke-width="1.000" stroke-opacity="1.000" />
<text x="262.755" y="320.000" font-size="13.0" font-family="Inter, -apple-system, BlinkMacSystemFont, 'Segoe UI', Roboto, Helvetica, Arial, 'PingFang SC', 'Microsoft YaHei', Ubuntu, Cantarell, 'Noto Sans', sans-serif" fill="rgba(51,51,51,1.000)" fill-opacity="1.000" text-anchor="middle" font-weight="normal" dominant-baseline="hanging" transform="rotate(0 262.755 320.000)">116</text>
<line x1="306.103" y1="311.000" x2="306.103" y2="317.000" stroke="rgba(51,51,51,1.000)" stroke-width="1.000" stroke-opacity="1.000" />
<text x="306.103" y="320.000" font-size="13.0" font-family="Inter, -apple-system, BlinkMacSystemFont, 'Segoe UI', Roboto, Helvetica, Arial, 'PingFang SC', 'Microsoft YaHei', Ubuntu, Cantarell, 'Noto Sans', sans-serif" fill="rgba(51,51,51,1.000)" fill-opacity="1.000" text-anchor="middle" font-weight="normal" dominant-baseline="hanging" transform="rotate(0 306.103 320.000)">118</text>
<line x1="349.452" y1="311.000" x2="349.452" y2="317.000" stroke="rgba(51,51,51,1.000)" stroke-width="1.000" stroke-opacity="1.000" />
<text x="349.452" y="320.000" font-size="13.0" font-family="Inter, -apple-system, BlinkMacSystemFont, 'Segoe UI', Roboto, Helvetica, Arial, 'PingFang SC', 'Microsoft YaHei', Ubuntu, Cantarell, 'Noto Sans', sans-serif" fill="rgba(51,51,51,1.000)" fill-opacity="1.000" text-anchor="middle" font-weight="normal" dominant-baseline="hanging" transform="rotate(0 349.452 320.000)">120</text>
<line x1="392.800" y1="311.000" x2="392.800" y2="317.000" stroke="rgba(51,51,51,1.000)" stroke-width="1.000" stroke-opacity="1.000" />
<text x="392.800" y="320.000" font-size="13.0" font-family="Inter, -apple-system, BlinkMacSystemFont, 'Segoe UI', Roboto, Helvetica, Arial, 'PingFang SC', 'Microsoft YaHei', Ubuntu, Cantarell, 'Noto Sans', sans-serif" fill="rgba(51,51,51,1.000)" fill-opacity="1.000" text-anchor="middle" font-weight="normal" dominant-baseline="hanging" transform="rotate(0 392.800 320.000)">122</text>
<text x="247.800" y="340.000" font-size="15.0" font-family="Inter, -apple-system, BlinkMacSystemFont, 'Segoe UI', Roboto, Helvetica, Arial, 'PingFang SC', 'Microsoft YaHei', Ubuntu, Cantarell, 'Noto Sans', sans-serif" fill="rgba(51,51,51,1.000)" fill-opacity="1.000" text-anchor="middle" font-weight="normal" dominant-baseline="hanging" transform="rotate(0 247.800 340.000)">Longitude</text>
<line x1="88.300" y1="40.000" x2="88.300" y2="311.000" stroke="rgba(51,51,51,1.000)" stroke-width="1.000" stroke-opacity="1.000" />
<line x1="88.300" y1="298.682" x2="82.300" y2="298.682" stroke="rgba(51,51,51,1.000)" stroke-width="1.000" stroke-opacity="1.000" />
<text x="79.300" y="298.682" font-size="13.0" font-family="Inter, -apple-system, BlinkMacSystemFont, 'Segoe UI', Roboto, Helvetica, Arial, 'PingFang SC', 'Microsoft YaHei', Ubuntu, Cantarell, 'Noto Sans', sans-serif" fill="rgba(51,51,51,1.000)" fill-opacity="1.000" text-anchor="end" font-weight="normal" dominant-baseline="central" transform="rotate(0 79.300 298.682)">18</text>
<line x1="88.300" y1="264.933" x2="82.300" y2="264.933" stroke="rgba(51,51,51,1.000)" stroke-width="1.000" stroke-opacity="1.000" />
<text x="79.300" y="264.933" font-size="13.0" font-family="Inter, -apple-system, BlinkMacSystemFont, 'Segoe UI', Roboto, Helvetica, Arial, 'PingFang SC', 'Microsoft YaHei', Ubuntu, Cantarell, 'Noto Sans', sans-serif" fill="rgba(51,51,51,1.000)" fill-opacity="1.000" text-anchor="end" font-weight="normal" dominant-baseline="central" transform="rotate(0 79.300 264.933)">19</text>
<line x1="88.300" y1="231.185" x2="82.300" y2="231.185" stroke="rgba(51,51,51,1.000)" stroke-width="1.000" stroke-opacity="1.000" />
<text x="79.300" y="231.185" font-size="13.0" font-family="Inter, -apple-system, BlinkMacSystemFont, 'Segoe UI', Roboto, Helvetica, Arial, 'PingFang SC', 'Microsoft YaHei', Ubuntu, Cantarell, 'Noto Sans', sans-serif" fill="rgba(51,51,51,1.000)" fill-opacity="1.000" text-anchor="end" font-weight="normal" dominant-baseline="central" transform="rotate(0 79.300 231.185)">20</text>
<line x1="88.300" y1="197.436" x2="82.300" y2="197.436" stroke="rgba(51,51,51,1.000)" stroke-width="1.000" stroke-opacity="1.000" />
<text x="79.300" y="197.436" font-size="13.0" font-family="Inter, -apple-system, BlinkMacSystemFont, 'Segoe UI', Roboto, Helvetica, Arial, 'PingFang SC', 'Microsoft YaHei', Ubuntu, Cantarell, 'Noto Sans', sans-serif" fill="rgba(51,51,51,1.000)" fill-opacity="1.000" text-anchor="end" font-weight="normal" dominant-baseline="central" transform="rotate(0 79.300 197.436)">21</text>
<line x1="88.300" y1="163.688" x2="82.300" y2="163.688" stroke="rgba(51,51,51,1.000)" stroke-width="1.000" stroke-opacity="1.000" />
<text x="79.300" y="163.688" font-size="13.0" font-family="Inter, -apple-system, BlinkMacSystemFont, 'Segoe UI', Roboto, Helvetica, Arial, 'PingFang SC', 'Microsoft YaHei', Ubuntu, Cantarell, 'Noto Sans', sans-serif" fill="rgba(51,51,51,1.000)" fill-opacity="1.000" text-anchor="end" font-weight="normal" dominant-baseline="central" transform="rotate(0 79.300 163.688)">22</text>
<line x1="88.300" y1="129.940" x2="82.300" y2="129.940" stroke="rgba(51,51,51,1.000)" stroke-width="1.000" stroke-opacity="1.000" />
<text x="79.300" y="129.940" font-size="13.0" font-family="Inter, -apple-system, BlinkMacSystemFont, 'Segoe UI', Roboto, Helvetica, Arial, 'PingFang SC', 'Microsoft YaHei', Ubuntu, Cantarell, 'Noto Sans', sans-serif" fill="rgba(51,51,51,1.000)" fill-opacity="1.000" text-anchor="end" font-weight="normal" dominant-baseline="central" transform="rotate(0 79.300 129.940)">23</text>
<line x1="88.300" y1="96.191" x2="82.300" y2="96.191" stroke="rgba(51,51,51,1.000)" stroke-width="1.000" stroke-opacity="1.000" />
<text x="79.300" y="96.191" font-size="13.0" font-family="Inter, -apple-system, BlinkMacSystemFont, 'Segoe UI', Roboto, Helvetica, Arial, 'PingFang SC', 'Microsoft YaHei', Ubuntu, Cantarell, 'Noto Sans', sans-serif" fill="rgba(51,51,51,1.000)" fill-opacity="1.000" text-anchor="end" font-weight="normal" dominant-baseline="central" transform="rotate(0 79.300 96.191)">24</text>
<line x1="88.300" y1="62.443" x2="82.300" y2="62.443" stroke="rgba(51,51,51,1.000)" stroke-width="1.000" stroke-opacity="1.000" />
<text x="79.300" y="62.443" font-size="13.0" font-family="Inter, -apple-system, BlinkMacSystemFont, 'Segoe UI', Roboto, Helvetica, Arial, 'PingFang SC', 'Microsoft YaHei', Ubuntu, Cantarell, 'Noto Sans', sans-serif" fill="rgba(51,51,51,1.000)" fill-opacity="1.000" text-anchor="end" font-weight="normal" dominant-baseline="central" transform="rotate(0 79.300 62.443)">25</text>
<text x="47.500" y="175.500" font-size="15.0" font-family="Inter, -apple-system, BlinkMacSystemFont, 'Segoe UI', Roboto, Helvetica, Arial, 'PingFang SC', 'Microsoft YaHei', Ubuntu, Cantarell, 'Noto Sans', sans-serif" fill="rgba(51,51,51,1.000)" fill-opacity="1.000" text-anchor="middle" font-weight="normal" dominant-baseline="middle" transform="rotate(-90 47.500 175.500)">Latitude</text>
<text x="422.300" y="46.000" font-size="13.2" font-family="Inter, -apple-system, BlinkMacSystemFont, 'Segoe UI', Roboto, Helvetica, Arial, 'PingFang SC', 'Microsoft YaHei', Ubuntu, Cantarell, 'Noto Sans', sans-serif" fill="rgba(51,51,51,1.000)" fill-opacity="1.000" text-anchor="start" font-weight="bold" dominant-baseline="central" transform="rotate(0 422.300 46.000)">population</text>
<defs><linearGradient id="grad_population" x1="0%" y1="0%" x2="0%" y2="100%"><stop offset="0.0%" stop-color="rgba(253,231,37,1.000)" /><stop offset="6.7%" stop-color="rgba(210,226,27,1.000)" /><stop offset="13.3%" stop-color="rgba(165,219,54,1.000)" /><stop offset="20.0%" stop-color="rgba(122,209,81,1.000)" /><stop offset="26.7%" stop-color="rgba(84,197,104,1.000)" /><stop offset="33.3%" stop-color="rgba(53,183,121,1.000)" /><stop offset="40.0%" stop-color="rgba(34,168,132,1.000)" /><stop offset="46.7%" stop-color="rgba(31,152,139,1.000)" /><stop offset="53.3%" stop-color="rgba(35,136,142,1.000)" /><stop offset="60.0%" stop-color="rgba(42,120,142,1.000)" /><stop offset="66.7%" stop-color="rgba(49,104,142,1.000)" /><stop offset="73.3%" stop-color="rgba(57,86,140,1.000)" /><stop offset="80.0%" stop-color="rgba(65,68,135,1.000)" /><stop offset="86.7%" stop-color="rgba(71,47,125,1.000)" /><stop offset="93.3%" stop-color="rgba(72,26,108,1.000)" /><stop offset="100.0%" stop-color="rgba(68,1,84,1.000)" /></linearGradient></defs><rect x="422.300" y="60.200" width="15.000" height="150.000" fill="url(#grad_population)" />
<rect x="422.300" y="60.200" width="15.000" height="150.000" fill="none" stroke="rgba(51,51,51,1.000)" stroke-width="1.000" fill-opacity="1.000" stroke-opacity="1.000" />
<line x1="422.300" y1="188.851" x2="425.300" y2="188.851" stroke="rgba(255,255,255,1.000)" stroke-width="1.000" stroke-opacity="1.000" />
<line x1="434.300" y1="188.851" x2="437.300" y2="188.851" stroke="rgba(255,255,255,1.000)" stroke-width="1.000" stroke-opacity="1.000" />
<text x="445.300" y="188.851" font-size="12.0" font-family="Inter, -apple-system, BlinkMacSystemFont, 'Segoe UI', Roboto, Helvetica, Arial, 'PingFang SC', 'Microsoft YaHei', Ubuntu, Cantarell, 'Noto Sans', sans-serif" fill="rgba(51,51,51,1.000)" fill-opacity="1.000" text-anchor="start" font-weight="normal" dominant-baseline="central" transform="rotate(0 445.300 188.851)">12</text>
<line x1="422.300" y1="166.612" x2="425.300" y2="166.612" stroke="rgba(255,255,255,1.000)" stroke-width="1.000" stroke-opacity="1.000" />
<line x1="434.300" y1="166.612" x2="437.300" y2="166.612" stroke="rgba(255,255,255,1.000)" stroke-width="1.000" stroke-opacity="1.000" />
<text x="445.300" y="166.612" font-size="12.0" font-family="Inter, -apple-system, BlinkMacSystemFont, 'Segoe UI', Roboto, Helvetica, Arial, 'PingFang SC', 'Microsoft YaHei', Ubuntu, Cantarell, 'Noto Sans', sans-serif" fill="rgba(51,51,51,1.000)" fill-opacity="1.000" text-anchor="start" font-weight="normal" dominant-baseline="central" transform="rotate(0 445.300 166.612)">14</text>
<line x1="422.300" y1="144.373" x2="425.300" y2="144.373" stroke="rgba(255,255,255,1.000)" stroke-width="1.000" stroke-opacity="1.000" />
<line x1="434.300" y1="144.373" x2="437.300" y2="144.373" stroke="rgba(255,255,255,1.000)" stroke-width="1.000" stroke-opacity="1.000" />
<text x="445.300" y="144.373" font-size="12.0" font-family="Inter, -apple-system, BlinkMacSystemFont, 'Segoe UI', Roboto, Helvetica, Arial, 'PingFang SC', 'Microsoft YaHei', Ubuntu, Cantarell, 'Noto Sans', sans-serif" fill="rgba(51,51,51,1.000)" fill-opacity="1.000" text-anchor="start" font-weight="normal" dominant-baseline="central" transform="rotate(0 445.300 144.373)">16</text>
<line x1="422.300" y1="122.135" x2="425.300" y2="122.135" stroke="rgba(255,255,255,1.000)" stroke-width="1.000" stroke-opacity="1.000" />
<line x1="434.300" y1="122.135" x2="437.300" y2="122.135" stroke="rgba(255,255,255,1.000)" stroke-width="1.000" stroke-opacity="1.000" />
<text x="445.300" y="122.135" font-size="12.0" font-family="Inter, -apple-system, BlinkMacSystemFont, 'Segoe UI', Roboto, Helvetica, Arial, 'PingFang SC', 'Microsoft YaHei', Ubuntu, Cantarell, 'Noto Sans', sans-serif" fill="rgba(51,51,51,1.000)" fill-opacity="1.000" text-anchor="start" font-weight="normal" dominant-baseline="central" transform="rotate(0 445.300 122.135)">18</text>
<line x1="422.300" y1="99.896" x2="425.300" y2="99.896" stroke="rgba(255,255,255,1.000)" stroke-width="1.000" stroke-opacity="1.000" />
<line x1="434.300" y1="99.896" x2="437.300" y2="99.896" stroke="rgba(255,255,255,1.000)" stroke-width="1.000" stroke-opacity="1.000" />
<text x="445.300" y="99.896" font-size="12.0" font-family="Inter, -apple-system, BlinkMacSystemFont, 'Segoe UI', Roboto, Helvetica, Arial, 'PingFang SC', 'Microsoft YaHei', Ubuntu, Cantarell, 'Noto Sans', sans-serif" fill="rgba(51,51,51,1.000)" fill-opacity="1.000" text-anchor="start" font-weight="normal" dominant-baseline="central" transform="rotate(0 445.300 99.896)">20</text>
<line x1="422.300" y1="77.657" x2="425.300" y2="77.657" stroke="rgba(255,255,255,1.000)" stroke-width="1.000" stroke-opacity="1.000" />
<line x1="434.300" y1="77.657" x2="437.300" y2="77.657" stroke="rgba(255,255,255,1.000)" stroke-width="1.000" stroke-opacity="1.000" />
<text x="445.300" y="77.657" font-size="12.0" font-family="Inter, -apple-system, BlinkMacSystemFont, 'Segoe UI', Roboto, Helvetica, Arial, 'PingFang SC', 'Microsoft YaHei', Ubuntu, Cantarell, 'Noto Sans', sans-serif" fill="rgba(51,51,51,1.000)" fill-opacity="1.000" text-anchor="start" font-weight="normal" dominant-baseline="central" transform="rotate(0 445.300 77.657)">22</text>
</svg>