<svg width="500" height="400" viewBox="0 0 500 400" xmlns="http://www.w3.org/2000/svg"><rect width="100%" height="100%" fill="rgba(255,255,255,1.000)" /><line x1="88.25" y1="311.00" x2="406.20" y2="311.00" stroke="rgba(51,51,51,1.000)" stroke-width="1" stroke-linecap="square"/>
<line x1="102.45" y1="311.00" x2="102.45" y2="317.00" stroke="rgba(51,51,51,1.000)" stroke-width="1.0"/>
<text x="102.45" y="320.00" font-size="13" font-family="Inter, -apple-system, BlinkMacSystemFont, 'Segoe UI', Roboto, Helvetica, Arial, 'PingFang SC', 'Microsoft YaHei', Ubuntu, Cantarell, 'Noto Sans', sans-serif" fill="rgba(51,51,51,1.000)" text-anchor="middle" dominant-baseline="hanging">-1.0</text>
<line x1="174.78" y1="311.00" x2="174.78" y2="317.00" stroke="rgba(51,51,51,1.000)" stroke-width="1.0"/>
<text x="174.78" y="320.00" font-size="13" font-family="Inter, -apple-system, BlinkMacSystemFont, 'Segoe UI', Roboto, Helvetica, Arial, 'PingFang SC', 'Microsoft YaHei', Ubuntu, Cantarell, 'Noto Sans', sans-serif" fill="rgba(51,51,51,1.000)" text-anchor="middle" dominant-baseline="hanging">-0.5</text>
<line x1="247.10" y1="311.00" x2="247.10" y2="317.00" stroke="rgba(51,51,51,1.000)" stroke-width="1.0"/>
<text x="247.10" y="320.00" font-size="13" font-family="Inter, -apple-system, BlinkMacSystemFont, 'Segoe UI', Roboto, Helvetica, Arial, 'PingFang SC', 'Microsoft YaHei', Ubuntu, Cantarell, 'Noto Sans', sans-serif" fill="rgba(51,51,51,1.000)" text-anchor="middle" dominant-baseline="hanging">0.0</text>
<line x1="319.42" y1="311.00" x2="319.42" y2="317.00" stroke="rgba(51,51,51,1.000)" stroke-width="1.0"/>
<text x="319.42" y="320.00" font-size="13" font-family="Inter, -apple-system, BlinkMacSystemFont, 'Segoe UI', Roboto, Helvetica, Arial, 'PingFang SC', 'Microsoft YaHei', Ubuntu, Cantarell, 'Noto Sans', sans-serif" fill="rgba(51,51,51,1.000)" text-anchor="middle" dominant-baseline="hanging">0.5</text>
<line x1="391.75" y1="311.00" x2="391.75" y2="317.00" stroke="rgba(51,51,51,1.000)" stroke-width="1.0"/>
<text x="391.75" y="320.00" font-size="13" font-family="Inter, -apple-system, BlinkMacSystemFont, 'Segoe UI', Roboto, Helvetica, Arial, 'PingFang SC', 'Microsoft YaHei', Ubuntu, Cantarell, 'Noto Sans', sans-serif" fill="rgba(51,51,51,1.000)" text-anchor="middle" dominant-baseline="hanging">1.0</text>
<text x="247.22" y="340.00" text-anchor="middle" font-size="15" font-family="Inter, -apple-system, BlinkMacSystemFont, 'Segoe UI', Roboto, Helvetica, Arial, 'PingFang SC', 'Microsoft YaHei', Ubuntu, Cantarell, 'Noto Sans', sans-serif" fill="rgba(51,51,51,1.000)" font-weight="bold" dominant-baseline="hanging">y</text>
<line x1="88.25" y1="40.00" x2="88.25" y2="311.00" stroke="rgba(51,51,51,1.000)" stroke-width="1" stroke-linecap="square"/>
<line x1="88.25" y1="298.68" x2="82.25" y2="298.68" stroke="rgba(51,51,51,1.000)" stroke-width="1.0"/>
<text x="78.25" y="298.68" font-size="13" font-family="Inter, -apple-system, BlinkMacSystemFont, 'Segoe UI', Roboto, Helvetica, Arial, 'PingFang SC', 'Microsoft YaHei', Ubuntu, Cantarell, 'Noto Sans', sans-serif" fill="rgba(51,51,51,1.000)" text-anchor="end" dominant-baseline="central" transform="rotate(-45.0, 78.25, 298.68)">0</text>
<line x1="88.25" y1="256.21" x2="82.25" y2="256.21" stroke="rgba(51,51,51,1.000)" stroke-width="1.0"/>
<text x="78.25" y="256.21" font-size="13" font-family="Inter, -apple-system, BlinkMacSystemFont, 'Segoe UI', Roboto, Helvetica, Arial, 'PingFang SC', 'Microsoft YaHei', Ubuntu, Cantarell, 'Noto Sans', sans-serif" fill="rgba(51,51,51,1.000)" text-anchor="end" dominant-baseline="central" transform="rotate(-45.0, 78.25, 256.21)">1</text>
<line x1="88.25" y1="213.73" x2="82.25" y2="213.73" stroke="rgba(51,51,51,1.000)" stroke-width="1.0"/>
<text x="78.25" y="213.73" font-size="13" font-family="Inter, -apple-system, BlinkMacSystemFont, 'Segoe UI', Roboto, Helvetica, Arial, 'PingFang SC', 'Microsoft YaHei', Ubuntu, Cantarell, 'Noto Sans', sans-serif" fill="rgba(51,51,51,1.000)" text-anchor="end" dominant-baseline="central" transform="rotate(-45.0, 78.25, 213.73)">2</text>
<line x1="88.25" y1="171.25" x2="82.25" y2="171.25" stroke="rgba(51,51,51,1.000)" stroke-width="1.0"/>
<text x="78.25" y="171.25" font-size="13" font-family="Inter, -apple-system, BlinkMacSystemFont, 'Segoe UI', Roboto, Helvetica, Arial, 'PingFang SC', 'Microsoft YaHei', Ubuntu, Cantarell, 'Noto Sans', sans-serif" fill="rgba(51,51,51,1.000)" text-anchor="end" dominant-baseline="central" transform="rotate(-45.0, 78.25, 171.25)">3</text>
<line x1="88.25" y1="128.78" x2="82.25" y2="128.78" stroke="rgba(51,51,51,1.000)" stroke-width="1.0"/>
<text x="78.25" y="128.78" font-size="13" font-family="Inter, -apple-system, BlinkMacSystemFont, 'Segoe UI', Roboto, Helvetica, Arial, 'PingFang SC', 'Microsoft YaHei', Ubuntu, Cantarell, 'Noto Sans', sans-serif" fill="rgba(51,51,51,1.000)" text-anchor="end" dominant-baseline="central" transform="rotate(-45.0, 78.25, 128.78)">4</text>
<line x1="88.25" y1="86.30" x2="82.25" y2="86.30" stroke="rgba(51,51,51,1.000)" stroke-width="1.0"/>
<text x="78.25" y="86.30" font-size="13" font-family="Inter, -apple-system, BlinkMacSystemFont, 'Segoe UI', Roboto, Helvetica, Arial, 'PingFang SC', 'Microsoft YaHei', Ubuntu, Cantarell, 'Noto Sans', sans-serif" fill="rgba(51,51,51,1.000)" text-anchor="end" dominant-baseline="central" transform="rotate(-45.0, 78.25, 86.30)">5</text>
<line x1="88.25" y1="43.82" x2="82.25" y2="43.82" stroke="rgba(51,51,51,1.000)" stroke-width="1.0"/>
<text x="78.25" y="43.82" font-size="13" font-family="Inter, -apple-system, BlinkMacSystemFont, 'Segoe UI', Roboto, Helvetica, Arial, 'PingFang SC', 'Microsoft YaHei', Ubuntu, Cantarell, 'Noto Sans', sans-serif" fill="rgba(51,51,51,1.000)" text-anchor="end" dominant-baseline="central" transform="rotate(-45.0, 78.25, 43.82)">6</text>
<text x="47.50" y="175.50" text-anchor="middle" font-size="15" font-family="Inter, -apple-system, BlinkMacSystemFont, 'Segoe UI', Roboto, Helvetica, Arial, 'PingFang SC', 'Microsoft YaHei', Ubuntu, Cantarell, 'Noto Sans', sans-serif" fill="rgba(51,51,51,1.000)" font-weight="bold" transform="rotate(-90, 47.50, 175.50)" dominant-baseline="middle">x</text>
<defs><clipPath id="plot-clip-area"><rect x="88.248" y="40.000" width="317.952" height="271.000" /></clipPath></defs>
<path d="M 247.556 298.682 L 275.272 290.187 L 302.786 281.691 L 327.842 273.196 L 349.680 264.701 L 367.428 256.205 L 380.378 247.710 L 388.016 239.215 L 390.036 230.719 L 386.357 222.224 L 377.127 213.729 L 362.712 205.234 L 343.689 196.738 L 320.815 188.243 L 295.003 179.748 L 267.280 171.252 L 238.754 162.757 L 210.559 154.262 L 183.822 145.766 L 159.608 137.271 L 138.881 128.776 L 122.469 120.281 L 111.026 111.785 L 105.007 103.290 L 104.653 94.795 L 109.979 86.299 L 120.770 77.804 L 136.599 69.309 L 157.412 60.813 L 178.694 52.318" stroke="rgba(31,119,180,1.000)" stroke-width="1.000" stroke-opacity="1.000" fill="none" stroke-linejoin="round" stroke-linecap="round" clip-path="url(#plot-clip-area)" />
<path d="M 393.469 298.682 L 386.452 290.187 L 378.809 281.691 L 365.120 273.196 L 346.727 264.701 L 324.362 256.205 L 298.916 247.710 L 271.405 239.215 L 242.925 230.719 L 214.612 222.224 L 187.594 213.729 L 162.948 205.234 L 141.657 196.738 L 124.569 188.243 L 112.367 179.748 L 105.536 171.252 L 104.349 162.757 L 108.853 154.262 L 118.868 145.766 L 133.996 137.271 L 153.632 128.776 L 176.996 120.281 L 203.153 111.785 L 231.063 103.290 L 259.613 94.795 L 287.663 86.299 L 314.097 77.804 L 337.859 69.309 L 357.411 60.813 L 376.501 52.318" stroke="rgba(255,127,14,1.000)" stroke-width="1.000" stroke-opacity="1.000" fill="none" stroke-linejoin="round" stroke-linecap="round" clip-path="url(#plot-clip-area)" />
<text x="421.200" y="49.600" font-size="13.2" font-family="Inter, -apple-system, BlinkMacSystemFont, 'Segoe UI', Roboto, Helvetica, Arial, 'PingFang SC', 'Microsoft YaHei', Ubuntu, Cantarell, 'Noto Sans', sans-serif" fill="rgba(51,51,51,1.000)" fill-opacity="1.000" text-anchor="start" font-weight="bold">category</text>
<circle cx="430.200" cy="69.200" r="5.000" fill="rgba(31,119,180,1.000)" stroke="none" stroke-width="0.000" fill-opacity="1.000" stroke-opacity="1.000" />
<text x="447.200" y="73.700" font-size="12.0" font-family="Inter, -apple-system, BlinkMacSystemFont, 'Segoe UI', Roboto, Helvetica, Arial, 'PingFang SC', 'Microsoft YaHei', Ubuntu, Cantarell, 'Noto Sans', sans-serif" fill="rgba(51,51,51,1.000)" fill-opacity="1.000" text-anchor="start" font-weight="normal">Sine</text>
<circle cx="430.200" cy="90.200" r="5.000" fill="rgba(255,127,14,1.000)" stroke="none" stroke-width="0.000" fill-opacity="1.000" stroke-opacity="1.000" />
<text x="447.200" y="94.700" font-size="12.0" font-family="Inter, -apple-system, BlinkMacSystemFont, 'Segoe UI', Roboto, Helvetica, Arial, 'PingFang SC', 'Microsoft YaHei', Ubuntu, Cantarell, 'Noto Sans', sans-serif" fill="rgba(51,51,51,1.000)" fill-opacity="1.000" text-anchor="start" font-weight="normal">Cosine</text>
</svg>