<svg width="500" height="400" viewBox="0 0 500 400" xmlns="http://www.w3.org/2000/svg"><rect x="0.000" y="0.000" width="500.000" height="400.000" fill="rgba(255,255,255,1.000)" stroke="none" stroke-width="0.000" fill-opacity="1.000" stroke-opacity="1.000" />
<circle cx="251.100" cy="175.500" r="135.500" fill="none" stroke="rgba(189,189,189,1.000)" stroke-width="1.000" fill-opacity="0.500" stroke-opacity="0.500" />
<line x1="251.100" y1="175.500" x2="286.170" y2="44.617" stroke="rgba(189,189,189,1.000)" stroke-width="1.000" stroke-opacity="0.300" />
<line x1="251.100" y1="175.500" x2="346.913" y2="79.687" stroke="rgba(189,189,189,1.000)" stroke-width="1.000" stroke-opacity="0.300" />
<line x1="251.100" y1="175.500" x2="381.983" y2="140.430" stroke="rgba(189,189,189,1.000)" stroke-width="1.000" stroke-opacity="0.300" />
<line x1="251.100" y1="175.500" x2="381.983" y2="210.570" stroke="rgba(189,189,189,1.000)" stroke-width="1.000" stroke-opacity="0.300" />
<line x1="251.100" y1="175.500" x2="346.913" y2="271.313" stroke="rgba(189,189,189,1.000)" stroke-width="1.000" stroke-opacity="0.300" />
<line x1="251.100" y1="175.500" x2="286.170" y2="306.383" stroke="rgba(189,189,189,1.000)" stroke-width="1.000" stroke-opacity="0.300" />
<line x1="251.100" y1="175.500" x2="216.030" y2="306.383" stroke="rgba(189,189,189,1.000)" stroke-width="1.000" stroke-opacity="0.300" />
<line x1="251.100" y1="175.500" x2="155.287" y2="271.313" stroke="rgba(189,189,189,1.000)" stroke-width="1.000" stroke-opacity="0.300" />
<line x1="251.100" y1="175.500" x2="120.217" y2="210.570" stroke="rgba(189,189,189,1.000)" stroke-width="1.000" stroke-opacity="0.300" />
<line x1="251.100" y1="175.500" x2="120.217" y2="140.430" stroke="rgba(189,189,189,1.000)" stroke-width="1.000" stroke-opacity="0.300" />
<line x1="251.100" y1="175.500" x2="155.287" y2="79.687" stroke="rgba(189,189,189,1.000)" stroke-width="1.000" stroke-opacity="0.300" />
<line x1="251.100" y1="175.500" x2="216.030" y2="44.617" stroke="rgba(189,189,189,1.000)" stroke-width="1.000" stroke-opacity="0.300" />
<text x="250.000" y="13.333" font-size="18.0" font-family="Inter, -apple-system, BlinkMacSystemFont, 'Segoe UI', Roboto, Helvetica, Arial, 'PingFang SC', 'Microsoft YaHei', Ubuntu, Cantarell, 'Noto Sans', sans-serif" fill="rgba(51,51,51,1.000)" fill-opacity="1.000" text-anchor="middle" font-weight="bold" dominant-baseline="middle" transform="rotate(0 250.000 13.333)">Nightingale wind rose</text>
<defs><clipPath id="plot-clip-area"><rect x="102.600" y="40.000" width="297.000" height="271.000" /></clipPath></defs>
<g clip-path="url(#plot-clip-area)">
<path d="M 251.100 175.500 L 251.100 175.500 L 251.100 175.500 L 251.100 175.500 L 251.100 175.500 L 251.100 175.500 L 251.100 175.500 L 251.100 175.500 L 251.100 175.500 L 251.100 175.500 L 251.100 175.500 L 251.100 175.500 L 251.100 175.500 L 251.100 175.500 L 251.100 175.500 L 251.100 175.500 L 251.100 175.500 L 251.100 175.500 L 251.100 175.500 L 251.100 175.500 Z" fill="rgba(31,119,180,1.000)" fill-opacity="1.000" stroke="rgba(224,224,224,1.000)" stroke-width="0.500" stroke-opacity="1.000" stroke-linejoin="round" stroke-linecap="round" />
<path d="M 251.100 175.500 L 251.100 170.247 L 251.405 170.256 L 251.710 170.282 L 252.012 170.326 L 252.312 170.388 L 252.607 170.467 L 252.897 170.563 L 253.181 170.676 L 253.458 170.805 L 253.727 170.950 L 251.100 175.500 L 251.100 175.500 L 251.100 175.500 L 251.100 175.500 L 251.100 175.500 L 251.100 175.500 L 251.100 175.500 L 251.100 175.500 L 251.100 175.500 Z" fill="rgba(255,127,14,1.000)" fill-opacity="1.000" stroke="rgba(224,224,224,1.000)" stroke-width="0.500" stroke-opacity="1.000" stroke-linejoin="round" stroke-linecap="round" />
<path d="M 251.100 170.247 L 251.100 169.745 L 251.435 169.755 L 251.768 169.784 L 252.099 169.833 L 252.427 169.900 L 252.750 169.987 L 253.068 170.092 L 253.379 170.216 L 253.683 170.357 L 253.977 170.516 L 253.727 170.950 L 253.458 170.805 L 253.181 170.676 L 252.897 170.563 L 252.607 170.467 L 252.312 170.388 L 252.012 170.326 L 251.710 170.282 L 251.405 170.256 Z" fill="rgba(44,160,44,1.000)" fill-opacity="1.000" stroke="rgba(224,224,224,1.000)" stroke-width="0.500" stroke-opacity="1.000" stroke-linejoin="round" stroke-linecap="round" />
<path d="M 251.100 175.500 L 251.100 175.500 L 251.100 175.500 L 251.100 175.500 L 251.100 175.500 L 251.100 175.500 L 251.100 175.500 L 251.100 175.500 L 251.100 175.500 L 251.100 175.500 L 251.100 175.500 L 251.100 175.500 L 251.100 175.500 L 251.100 175.500 L 251.100 175.500 L 251.100 175.500 L 251.100 175.500 L 251.100 175.500 L 251.100 175.500 L 251.100 175.500 Z" fill="rgba(31,119,180,1.000)" fill-opacity="1.000" stroke="rgba(224,224,224,1.000)" stroke-width="0.500" stroke-opacity="1.000" stroke-linejoin="round" stroke-linecap="round" />
<path d="M 251.100 175.500 L 254.624 169.396 L 254.973 169.611 L 255.309 169.847 L 255.630 170.101 L 255.937 170.373 L 256.227 170.663 L 256.499 170.970 L 256.753 171.291 L 256.989 171.627 L 257.204 171.976 L 251.100 175.500 L 251.100 175.500 L 251.100 175.500 L 251.100 175.500 L 251.100 175.500 L 251.100 175.500 L 251.100 175.500 L 251.100 175.500 L 251.100 175.500 Z" fill="rgba(255,127,14,1.000)" fill-opacity="1.000" stroke="rgba(224,224,224,1.000)" stroke-width="0.500" stroke-opacity="1.000" stroke-linejoin="round" stroke-linecap="round" />
<path d="M 254.624 169.396 L 256.483 166.176 L 257.016 166.505 L 257.529 166.864 L 258.020 167.253 L 258.488 167.669 L 258.931 168.112 L 259.347 168.580 L 259.736 169.071 L 260.095 169.584 L 260.424 170.117 L 257.204 171.976 L 256.989 171.627 L 256.753 171.291 L 256.499 170.970 L 256.227 170.663 L 255.937 170.373 L 255.630 170.101 L 255.309 169.847 L 254.973 169.611 Z" fill="rgba(44,160,44,1.000)" fill-opacity="1.000" stroke="rgba(224,224,224,1.000)" stroke-width="0.500" stroke-opacity="1.000" stroke-linejoin="round" stroke-linecap="round" />
<path d="M 251.100 175.500 L 251.100 175.500 L 251.100 175.500 L 251.100 175.500 L 251.100 175.500 L 251.100 175.500 L 251.100 175.500 L 251.100 175.500 L 251.100 175.500 L 251.100 175.500 L 251.100 175.500 L 251.100 175.500 L 251.100 175.500 L 251.100 175.500 L 251.100 175.500 L 251.100 175.500 L 251.100 175.500 L 251.100 175.500 L 251.100 175.500 L 251.100 175.500 Z" fill="rgba(31,119,180,1.000)" fill-opacity="1.000" stroke="rgba(224,224,224,1.000)" stroke-width="0.500" stroke-opacity="1.000" stroke-linejoin="round" stroke-linecap="round" />
<path d="M 251.100 175.500 L 256.084 172.623 L 256.243 172.917 L 256.384 173.221 L 256.508 173.532 L 256.613 173.850 L 256.700 174.173 L 256.767 174.501 L 256.816 174.832 L 256.845 175.165 L 256.855 175.500 L 251.100 175.500 L 251.100 175.500 L 251.100 175.500 L 251.100 175.500 L 251.100 175.500 L 251.100 175.500 L 251.100 175.500 L 251.100 175.500 L 251.100 175.500 Z" fill="rgba(255,127,14,1.000)" fill-opacity="1.000" stroke="rgba(224,224,224,1.000)" stroke-width="0.500" stroke-opacity="1.000" stroke-linejoin="round" stroke-linecap="round" />
<path d="M 256.084 172.623 L 259.489 170.657 L 259.756 171.153 L 259.995 171.663 L 260.203 172.187 L 260.380 172.722 L 260.526 173.266 L 260.640 173.818 L 260.721 174.375 L 260.770 174.937 L 260.787 175.500 L 256.855 175.500 L 256.845 175.165 L 256.816 174.832 L 256.767 174.501 L 256.700 174.173 L 256.613 173.850 L 256.508 173.532 L 256.384 173.221 L 256.243 172.917 Z" fill="rgba(44,160,44,1.000)" fill-opacity="1.000" stroke="rgba(224,224,224,1.000)" stroke-width="0.500" stroke-opacity="1.000" stroke-linejoin="round" stroke-linecap="round" />
<path d="M 251.100 175.500 L 251.100 175.500 L 251.100 175.500 L 251.100 175.500 L 251.100 175.500 L 251.100 175.500 L 251.100 175.500 L 251.100 175.500 L 251.100 175.500 L 251.100 175.500 L 251.100 175.500 L 251.100 175.500 L 251.100 175.500 L 251.100 175.500 L 251.100 175.500 L 251.100 175.500 L 251.100 175.500 L 251.100 175.500 L 251.100 175.500 L 251.100 175.500 Z" fill="rgba(31,119,180,1.000)" fill-opacity="1.000" stroke="rgba(224,224,224,1.000)" stroke-width="0.500" stroke-opacity="1.000" stroke-linejoin="round" stroke-linecap="round" />
<path d="M 251.100 175.500 L 262.367 175.500 L 262.348 176.155 L 262.291 176.808 L 262.196 177.457 L 262.063 178.098 L 261.894 178.731 L 261.688 179.354 L 261.446 179.963 L 261.169 180.557 L 260.858 181.134 L 251.100 175.500 L 251.100 175.500 L 251.100 175.500 L 251.100 175.500 L 251.100 175.500 L 251.100 175.500 L 251.100 175.500 L 251.100 175.500 L 251.100 175.500 Z" fill="rgba(255,127,14,1.000)" fill-opacity="1.000" stroke="rgba(224,224,224,1.000)" stroke-width="0.500" stroke-opacity="1.000" stroke-linejoin="round" stroke-linecap="round" />
<path d="M 262.367 175.500 L 297.018 175.500 L 296.940 178.170 L 296.708 180.831 L 296.320 183.474 L 295.780 186.089 L 295.089 188.669 L 294.249 191.205 L 293.263 193.687 L 292.134 196.108 L 290.866 198.459 L 260.858 181.134 L 261.169 180.557 L 261.446 179.963 L 261.688 179.354 L 261.894 178.731 L 262.063 178.098 L 262.196 177.457 L 262.291 176.808 L 262.348 176.155 Z" fill="rgba(44,160,44,1.000)" fill-opacity="1.000" stroke="rgba(224,224,224,1.000)" stroke-width="0.500" stroke-opacity="1.000" stroke-linejoin="round" stroke-linecap="round" />
<path d="M 251.100 175.500 L 253.135 176.675 L 253.063 176.791 L 252.984 176.903 L 252.900 177.010 L 252.809 177.112 L 252.712 177.209 L 252.610 177.300 L 252.503 177.384 L 252.391 177.463 L 252.275 177.535 L 251.100 175.500 L 251.100 175.500 L 251.100 175.500 L 251.100 175.500 L 251.100 175.500 L 251.100 175.500 L 251.100 175.500 L 251.100 175.500 L 251.100 175.500 Z" fill="rgba(31,119,180,1.000)" fill-opacity="1.000" stroke="rgba(224,224,224,1.000)" stroke-width="0.500" stroke-opacity="1.000" stroke-linejoin="round" stroke-linecap="round" />
<path d="M 253.135 176.675 L 262.428 182.040 L 262.029 182.688 L 261.592 183.311 L 261.120 183.908 L 260.615 184.477 L 260.077 185.015 L 259.508 185.520 L 258.911 185.992 L 258.288 186.429 L 257.640 186.828 L 252.275 177.535 L 252.391 177.463 L 252.503 177.384 L 252.610 177.300 L 252.712 177.209 L 252.809 177.112 L 252.900 177.010 L 252.984 176.903 L 253.063 176.791 Z" fill="rgba(255,127,14,1.000)" fill-opacity="1.000" stroke="rgba(224,224,224,1.000)" stroke-width="0.500" stroke-opacity="1.000" stroke-linejoin="round" stroke-linecap="round" />
<path d="M 262.428 182.040 L 310.732 209.929 L 308.629 213.338 L 306.332 216.619 L 303.848 219.760 L 301.185 222.753 L 298.353 225.585 L 295.360 228.248 L 292.219 230.732 L 288.938 233.029 L 285.529 235.132 L 257.640 186.828 L 258.288 186.429 L 258.911 185.992 L 259.508 185.520 L 260.077 185.015 L 260.615 184.477 L 261.120 183.908 L 261.592 183.311 L 262.029 182.688 Z" fill="rgba(44,160,44,1.000)" fill-opacity="1.000" stroke="rgba(224,224,224,1.000)" stroke-width="0.500" stroke-opacity="1.000" stroke-linejoin="round" stroke-linecap="round" />
<path d="M 251.100 175.500 L 261.672 193.812 L 260.590 194.395 L 259.475 194.915 L 258.332 195.369 L 257.164 195.756 L 255.976 196.074 L 254.772 196.323 L 253.555 196.501 L 252.329 196.609 L 251.100 196.644 L 251.100 175.500 L 251.100 175.500 L 251.100 175.500 L 251.100 175.500 L 251.100 175.500 L 251.100 175.500 L 251.100 175.500 L 251.100 175.500 L 251.100 175.500 Z" fill="rgba(31,119,180,1.000)" fill-opacity="1.000" stroke="rgba(224,224,224,1.000)" stroke-width="0.500" stroke-opacity="1.000" stroke-linejoin="round" stroke-linecap="round" />
<path d="M 261.672 193.812 L 265.535 200.502 L 264.057 201.299 L 262.535 202.009 L 260.974 202.629 L 259.380 203.157 L 257.758 203.591 L 256.113 203.931 L 254.452 204.174 L 252.779 204.321 L 251.100 204.370 L 251.100 196.644 L 252.329 196.609 L 253.555 196.501 L 254.772 196.323 L 255.976 196.074 L 257.164 195.756 L 258.332 195.369 L 259.475 194.915 L 260.590 194.395 Z" fill="rgba(255,127,14,1.000)" fill-opacity="1.000" stroke="rgba(224,224,224,1.000)" stroke-width="0.500" stroke-opacity="1.000" stroke-linejoin="round" stroke-linecap="round" />
<path d="M 265.535 200.502 L 287.096 237.847 L 283.410 239.834 L 279.615 241.604 L 275.723 243.150 L 271.748 244.468 L 267.703 245.552 L 263.601 246.398 L 259.458 247.005 L 255.286 247.370 L 251.100 247.492 L 251.100 204.370 L 252.779 204.321 L 254.452 204.174 L 256.113 203.931 L 257.758 203.591 L 259.380 203.157 L 260.974 202.629 L 262.535 202.009 L 264.057 201.299 Z" fill="rgba(44,160,44,1.000)" fill-opacity="1.000" stroke="rgba(224,224,224,1.000)" stroke-width="0.500" stroke-opacity="1.000" stroke-linejoin="round" stroke-linecap="round" />
<path d="M 251.100 175.500 L 251.100 202.492 L 249.531 202.447 L 247.966 202.310 L 246.413 202.082 L 244.875 201.765 L 243.359 201.358 L 241.868 200.864 L 240.409 200.285 L 238.986 199.621 L 237.604 198.876 L 251.100 175.500 L 251.100 175.500 L 251.100 175.500 L 251.100 175.500 L 251.100 175.500 L 251.100 175.500 L 251.100 175.500 L 251.100 175.500 L 251.100 175.500 Z" fill="rgba(31,119,180,1.000)" fill-opacity="1.000" stroke="rgba(224,224,224,1.000)" stroke-width="0.500" stroke-opacity="1.000" stroke-linejoin="round" stroke-linecap="round" />
<path d="M 251.100 202.492 L 251.100 213.383 L 248.897 213.318 L 246.702 213.126 L 244.522 212.807 L 242.364 212.361 L 240.235 211.791 L 238.143 211.098 L 236.096 210.284 L 234.098 209.353 L 232.159 208.307 L 237.604 198.876 L 238.986 199.621 L 240.409 200.285 L 241.868 200.864 L 243.359 201.358 L 244.875 201.765 L 246.413 202.082 L 247.966 202.310 L 249.531 202.447 Z" fill="rgba(255,127,14,1.000)" fill-opacity="1.000" stroke="rgba(224,224,224,1.000)" stroke-width="0.500" stroke-opacity="1.000" stroke-linejoin="round" stroke-linecap="round" />
<path d="M 251.100 213.383 L 251.100 240.395 L 247.327 240.286 L 243.566 239.957 L 239.831 239.410 L 236.134 238.646 L 232.488 237.669 L 228.904 236.482 L 225.396 235.088 L 221.975 233.493 L 218.652 231.701 L 232.159 208.307 L 234.098 209.353 L 236.096 210.284 L 238.143 211.098 L 240.235 211.791 L 242.364 212.361 L 244.522 212.807 L 246.702 213.126 L 248.897 213.318 Z" fill="rgba(44,160,44,1.000)" fill-opacity="1.000" stroke="rgba(224,224,224,1.000)" stroke-width="0.500" stroke-opacity="1.000" stroke-linejoin="round" stroke-linecap="round" />
<path d="M 251.100 175.500 L 231.200 209.969 L 229.229 208.753 L 227.333 207.425 L 225.516 205.989 L 223.787 204.450 L 222.150 202.813 L 220.611 201.084 L 219.175 199.267 L 217.847 197.371 L 216.631 195.400 L 251.100 175.500 L 251.100 175.500 L 251.100 175.500 L 251.100 175.500 L 251.100 175.500 L 251.100 175.500 L 251.100 175.500 L 251.100 175.500 L 251.100 175.500 Z" fill="rgba(31,119,180,1.000)" fill-opacity="1.000" stroke="rgba(224,224,224,1.000)" stroke-width="0.500" stroke-opacity="1.000" stroke-linejoin="round" stroke-linecap="round" />
<path d="M 231.200 209.969 L 227.813 215.835 L 225.507 214.412 L 223.288 212.859 L 221.162 211.178 L 219.139 209.377 L 217.223 207.461 L 215.422 205.438 L 213.742 203.312 L 212.188 201.093 L 210.765 198.787 L 216.631 195.400 L 217.847 197.371 L 219.175 199.267 L 220.611 201.084 L 222.150 202.813 L 223.787 204.450 L 225.516 205.989 L 227.333 207.425 L 229.229 208.753 Z" fill="rgba(255,127,14,1.000)" fill-opacity="1.000" stroke="rgba(224,224,224,1.000)" stroke-width="0.500" stroke-opacity="1.000" stroke-linejoin="round" stroke-linecap="round" />
<path d="M 227.813 215.835 L 209.785 247.060 L 205.694 244.536 L 201.757 241.779 L 197.987 238.798 L 194.396 235.603 L 190.997 232.204 L 187.802 228.613 L 184.821 224.843 L 182.064 220.906 L 179.540 216.815 L 210.765 198.787 L 212.188 201.093 L 213.742 203.312 L 215.422 205.438 L 217.223 207.461 L 219.139 209.377 L 221.162 211.178 L 223.288 212.859 L 225.507 214.412 Z" fill="rgba(44,160,44,1.000)" fill-opacity="1.000" stroke="rgba(224,224,224,1.000)" stroke-width="0.500" stroke-opacity="1.000" stroke-linejoin="round" stroke-linecap="round" />
<path d="M 251.100 175.500 L 229.376 188.042 L 228.684 186.758 L 228.067 185.435 L 227.528 184.079 L 227.069 182.694 L 226.692 181.285 L 226.397 179.856 L 226.185 178.412 L 226.058 176.959 L 226.016 175.500 L 251.100 175.500 L 251.100 175.500 L 251.100 175.500 L 251.100 175.500 L 251.100 175.500 L 251.100 175.500 L 251.100 175.500 L 251.100 175.500 L 251.100 175.500 Z" fill="rgba(31,119,180,1.000)" fill-opacity="1.000" stroke="rgba(224,224,224,1.000)" stroke-width="0.500" stroke-opacity="1.000" stroke-linejoin="round" stroke-linecap="round" />
<path d="M 229.376 188.042 L 219.253 193.887 L 218.238 192.004 L 217.334 190.065 L 216.544 188.077 L 215.871 186.047 L 215.318 183.981 L 214.885 181.886 L 214.575 179.769 L 214.389 177.638 L 214.326 175.500 L 226.016 175.500 L 226.058 176.959 L 226.185 178.412 L 226.397 179.856 L 226.692 181.285 L 227.069 182.694 L 227.528 184.079 L 228.067 185.435 L 228.684 186.758 Z" fill="rgba(255,127,14,1.000)" fill-opacity="1.000" stroke="rgba(224,224,224,1.000)" stroke-width="0.500" stroke-opacity="1.000" stroke-linejoin="round" stroke-linecap="round" />
<path d="M 219.253 193.887 L 160.794 227.638 L 157.915 222.299 L 155.352 216.802 L 153.112 211.165 L 151.204 205.407 L 149.635 199.548 L 148.408 193.607 L 147.529 187.606 L 147.000 181.563 L 146.824 175.500 L 214.326 175.500 L 214.389 177.638 L 214.575 179.769 L 214.885 181.886 L 215.318 183.981 L 215.871 186.047 L 216.544 188.077 L 217.334 190.065 L 218.238 192.004 Z" fill="rgba(44,160,44,1.000)" fill-opacity="1.000" stroke="rgba(224,224,224,1.000)" stroke-width="0.500" stroke-opacity="1.000" stroke-linejoin="round" stroke-linecap="round" />
<path d="M 251.100 175.500 L 229.696 175.500 L 229.732 174.255 L 229.841 173.015 L 230.021 171.783 L 230.273 170.564 L 230.595 169.361 L 230.987 168.179 L 231.447 167.022 L 231.973 165.894 L 232.564 164.798 L 251.100 175.500 L 251.100 175.500 L 251.100 175.500 L 251.100 175.500 L 251.100 175.500 L 251.100 175.500 L 251.100 175.500 L 251.100 175.500 L 251.100 175.500 Z" fill="rgba(31,119,180,1.000)" fill-opacity="1.000" stroke="rgba(224,224,224,1.000)" stroke-width="0.500" stroke-opacity="1.000" stroke-linejoin="round" stroke-linecap="round" />
<path d="M 229.696 175.500 L 203.703 175.500 L 203.783 172.744 L 204.024 169.998 L 204.423 167.270 L 204.981 164.570 L 205.694 161.906 L 206.562 159.289 L 207.579 156.727 L 208.745 154.228 L 210.053 151.802 L 232.564 164.798 L 231.973 165.894 L 231.447 167.022 L 230.987 168.179 L 230.595 169.361 L 230.273 170.564 L 230.021 171.783 L 229.841 173.015 L 229.732 174.255 Z" fill="rgba(255,127,14,1.000)" fill-opacity="1.000" stroke="rgba(224,224,224,1.000)" stroke-width="0.500" stroke-opacity="1.000" stroke-linejoin="round" stroke-linecap="round" />
<path d="M 203.703 175.500 L 118.866 175.500 L 119.089 167.811 L 119.760 160.149 L 120.874 152.538 L 122.430 145.005 L 124.421 137.575 L 126.840 130.273 L 129.680 123.125 L 132.931 116.153 L 136.582 109.383 L 210.053 151.802 L 208.745 154.228 L 207.579 156.727 L 206.562 159.289 L 205.694 161.906 L 204.981 164.570 L 204.423 167.270 L 204.024 169.998 L 203.783 172.744 Z" fill="rgba(44,160,44,1.000)" fill-opacity="1.000" stroke="rgba(224,224,224,1.000)" stroke-width="0.500" stroke-opacity="1.000" stroke-linejoin="round" stroke-linecap="round" />
<path d="M 251.100 175.500 L 237.914 167.887 L 238.379 167.133 L 238.887 166.408 L 239.436 165.713 L 240.025 165.051 L 240.652 164.425 L 241.313 163.836 L 242.008 163.287 L 242.733 162.779 L 243.487 162.314 L 251.100 175.500 L 251.100 175.500 L 251.100 175.500 L 251.100 175.500 L 251.100 175.500 L 251.100 175.500 L 251.100 175.500 L 251.100 175.500 L 251.100 175.500 Z" fill="rgba(31,119,180,1.000)" fill-opacity="1.000" stroke="rgba(224,224,224,1.000)" stroke-width="0.500" stroke-opacity="1.000" stroke-linejoin="round" stroke-linecap="round" />
<path d="M 237.914 167.887 L 210.255 151.918 L 211.696 149.583 L 213.269 147.336 L 214.971 145.184 L 216.795 143.135 L 218.735 141.195 L 220.784 139.371 L 222.936 137.669 L 225.183 136.096 L 227.518 134.655 L 243.487 162.314 L 242.733 162.779 L 242.008 163.287 L 241.313 163.836 L 240.652 164.425 L 240.025 165.051 L 239.436 165.713 L 238.887 166.408 L 238.379 167.133 Z" fill="rgba(255,127,14,1.000)" fill-opacity="1.000" stroke="rgba(224,224,224,1.000)" stroke-width="0.500" stroke-opacity="1.000" stroke-linejoin="round" stroke-linecap="round" />
<path d="M 210.255 151.918 L 148.902 116.496 L 152.506 110.654 L 156.443 105.031 L 160.701 99.646 L 165.264 94.518 L 170.118 89.664 L 175.246 85.101 L 180.631 80.843 L 186.254 76.906 L 192.096 73.302 L 227.518 134.655 L 225.183 136.096 L 222.936 137.669 L 220.784 139.371 L 218.735 141.195 L 216.795 143.135 L 214.971 145.184 L 213.269 147.336 L 211.696 149.583 Z" fill="rgba(44,160,44,1.000)" fill-opacity="1.000" stroke="rgba(224,224,224,1.000)" stroke-width="0.500" stroke-opacity="1.000" stroke-linejoin="round" stroke-linecap="round" />
<path d="M 251.100 175.500 L 244.455 163.990 L 245.135 163.624 L 245.836 163.297 L 246.555 163.011 L 247.288 162.768 L 248.035 162.568 L 248.792 162.412 L 249.557 162.300 L 250.327 162.232 L 251.100 162.210 L 251.100 175.500 L 251.100 175.500 L 251.100 175.500 L 251.100 175.500 L 251.100 175.500 L 251.100 175.500 L 251.100 175.500 L 251.100 175.500 L 251.100 175.500 Z" fill="rgba(31,119,180,1.000)" fill-opacity="1.000" stroke="rgba(224,224,224,1.000)" stroke-width="0.500" stroke-opacity="1.000" stroke-linejoin="round" stroke-linecap="round" />
<path d="M 244.455 163.990 L 234.322 146.440 L 236.040 145.513 L 237.809 144.689 L 239.623 143.968 L 241.476 143.354 L 243.362 142.849 L 245.273 142.454 L 247.204 142.171 L 249.149 142.001 L 251.100 141.944 L 251.100 162.210 L 250.327 162.232 L 249.557 162.300 L 248.792 162.412 L 248.035 162.568 L 247.288 162.768 L 246.555 163.011 L 245.836 163.297 L 245.135 163.624 Z" fill="rgba(255,127,14,1.000)" fill-opacity="1.000" stroke="rgba(224,224,224,1.000)" stroke-width="0.500" stroke-opacity="1.000" stroke-linejoin="round" stroke-linecap="round" />
<path d="M 234.322 146.440 L 207.006 99.127 L 211.521 96.693 L 216.171 94.525 L 220.938 92.631 L 225.808 91.017 L 230.763 89.689 L 235.786 88.652 L 240.862 87.909 L 245.972 87.462 L 251.100 87.312 L 251.100 141.944 L 249.149 142.001 L 247.204 142.171 L 245.273 142.454 L 243.362 142.849 L 241.476 143.354 L 239.623 143.968 L 237.809 144.689 L 236.040 145.513 Z" fill="rgba(44,160,44,1.000)" fill-opacity="1.000" stroke="rgba(224,224,224,1.000)" stroke-width="0.500" stroke-opacity="1.000" stroke-linejoin="round" stroke-linecap="round" />
</g>
<circle cx="251.100" cy="175.500" r="135.500" fill="none" stroke="rgba(189,189,189,1.000)" stroke-width="1.000" fill-opacity="0.500" stroke-opacity="0.500" />
<text x="287.464" y="39.787" font-size="13.0" font-family="Inter, -apple-system, BlinkMacSystemFont, 'Segoe UI', Roboto, Helvetica, Arial, 'PingFang SC', 'Microsoft YaHei', Ubuntu, Cantarell, 'Noto Sans', sans-serif" fill="rgba(51,51,51,1.000)" fill-opacity="1.000" text-anchor="start" font-weight="normal" dominant-baseline="auto" transform="rotate(0 287.464 39.787)">Apr</text>
<text x="350.449" y="76.151" font-size="13.0" font-family="Inter, -apple-system, BlinkMacSystemFont, 'Segoe UI', Roboto, Helvetica, Arial, 'PingFang SC', 'Microsoft YaHei', Ubuntu, Cantarell, 'Noto Sans', sans-serif" fill="rgba(51,51,51,1.000)" fill-opacity="1.000" text-anchor="start" font-weight="normal" dominant-baseline="auto" transform="rotate(0 350.449 76.151)">May</text>
<text x="386.813" y="139.136" font-size="13.0" font-family="Inter, -apple-system, BlinkMacSystemFont, 'Segoe UI', Roboto, Helvetica, Arial, 'PingFang SC', 'Microsoft YaHei', Ubuntu, Cantarell, 'Noto Sans', sans-serif" fill="rgba(51,51,51,1.000)" fill-opacity="1.000" text-anchor="start" font-weight="normal" dominant-baseline="middle" transform="rotate(0 386.813 139.136)">Jun</text>
<text x="386.813" y="211.864" font-size="13.0" font-family="Inter, -apple-system, BlinkMacSystemFont, 'Segoe UI', Roboto, Helvetica, Arial, 'PingFang SC', 'Microsoft YaHei', Ubuntu, Cantarell, 'Noto Sans', sans-serif" fill="rgba(51,51,51,1.000)" fill-opacity="1.000" text-anchor="start" font-weight="normal" dominant-baseline="middle" transform="rotate(0 386.813 211.864)">Jul</text>
<text x="350.449" y="274.849" font-size="13.0" font-family="Inter, -apple-system, BlinkMacSystemFont, 'Segoe UI', Roboto, Helvetica, Arial, 'PingFang SC', 'Microsoft YaHei', Ubuntu, Cantarell, 'Noto Sans', sans-serif" fill="rgba(51,51,51,1.000)" fill-opacity="1.000" text-anchor="start" font-weight="normal" dominant-baseline="hanging" transform="rotate(0 350.449 274.849)">Aug</text>
<text x="287.464" y="311.213" font-size="13.0" font-family="Inter, -apple-system, BlinkMacSystemFont, 'Segoe UI', Roboto, Helvetica, Arial, 'PingFang SC', 'Microsoft YaHei', Ubuntu, Cantarell, 'Noto Sans', sans-serif" fill="rgba(51,51,51,1.000)" fill-opacity="1.000" text-anchor="start" font-weight="normal" dominant-baseline="hanging" transform="rotate(0 287.464 311.213)">Sep</text>
<text x="214.736" y="311.213" font-size="13.0" font-family="Inter, -apple-system, BlinkMacSystemFont, 'Segoe UI', Roboto, Helvetica, Arial, 'PingFang SC', 'Microsoft YaHei', Ubuntu, Cantarell, 'Noto Sans', sans-serif" fill="rgba(51,51,51,1.000)" fill-opacity="1.000" text-anchor="end" font-weight="normal" dominant-baseline="hanging" transform="rotate(0 214.736 311.213)">Oct</text>
<text x="151.751" y="274.849" font-size="13.0" font-family="Inter, -apple-system, BlinkMacSystemFont, 'Segoe UI', Roboto, Helvetica, Arial, 'PingFang SC', 'Microsoft YaHei', Ubuntu, Cantarell, 'Noto Sans', sans-serif" fill="rgba(51,51,51,1.000)" fill-opacity="1.000" text-anchor="end" font-weight="normal" dominant-baseline="hanging" transform="rotate(0 151.751 274.849)">Nov</text>
<text x="115.387" y="211.864" font-size="13.0" font-family="Inter, -apple-system, BlinkMacSystemFont, 'Segoe UI', Roboto, Helvetica, Arial, 'PingFang SC', 'Microsoft YaHei', Ubuntu, Cantarell, 'Noto Sans', sans-serif" fill="rgba(51,51,51,1.000)" fill-opacity="1.000" text-anchor="end" font-weight="normal" dominant-baseline="middle" transform="rotate(0 115.387 211.864)">Dec</text>
<text x="115.387" y="139.136" font-size="13.0" font-family="Inter, -apple-system, BlinkMacSystemFont, 'Segoe UI', Roboto, Helvetica, Arial, 'PingFang SC', 'Microsoft YaHei', Ubuntu, Cantarell, 'Noto Sans', sans-serif" fill="rgba(51,51,51,1.000)" fill-opacity="1.000" text-anchor="end" font-weight="normal" dominant-baseline="middle" transform="rotate(0 115.387 139.136)">Jan</text>
<text x="151.751" y="76.151" font-size="13.0" font-family="Inter, -apple-system, BlinkMacSystemFont, 'Segoe UI', Roboto, Helvetica, Arial, 'PingFang SC', 'Microsoft YaHei', Ubuntu, Cantarell, 'Noto Sans', sans-serif" fill="rgba(51,51,51,1.000)" fill-opacity="1.000" text-anchor="end" font-weight="normal" dominant-baseline="auto" transform="rotate(0 151.751 76.151)">Feb</text>
<text x="214.736" y="39.787" font-size="13.0" font-family="Inter, -apple-system, BlinkMacSystemFont, 'Segoe UI', Roboto, Helvetica, Arial, 'PingFang SC', 'Microsoft YaHei', Ubuntu, Cantarell, 'Noto Sans', sans-serif" fill="rgba(51,51,51,1.000)" fill-opacity="1.000" text-anchor="end" font-weight="normal" dominant-baseline="auto" transform="rotate(0 214.736 39.787)">Mar</text>
<text x="414.600" y="46.000" font-size="13.2" font-family="Inter, -apple-system, BlinkMacSystemFont, 'Segoe UI', Roboto, Helvetica, Arial, 'PingFang SC', 'Microsoft YaHei', Ubuntu, Cantarell, 'Noto Sans', sans-serif" fill="rgba(51,51,51,1.000)" fill-opacity="1.000" text-anchor="start" font-weight="bold" dominant-baseline="central" transform="rotate(0 414.600 46.000)">Cause</text>
<circle cx="423.600" cy="69.200" r="5.000" fill="rgba(31,119,180,1.000)" stroke="none" stroke-width="0.000" fill-opacity="1.000" stroke-opacity="1.000" />
<text x="440.600" y="69.200" font-size="12.0" font-family="Inter, -apple-system, BlinkMacSystemFont, 'Segoe UI', Roboto, Helvetica, Arial, 'PingFang SC', 'Microsoft YaHei', Ubuntu, Cantarell, 'Noto Sans', sans-serif" fill="rgba(51,51,51,1.000)" fill-opacity="1.000" text-anchor="start" font-weight="normal" dominant-baseline="central" transform="rotate(0 440.600 69.200)">Wounds</text>
<circle cx="423.600" cy="90.200" r="5.000" fill="rgba(255,127,14,1.000)" stroke="none" stroke-width="0.000" fill-opacity="1.000" stroke-opacity="1.000" />
<text x="440.600" y="90.200" font-size="12.0" font-family="Inter, -apple-system, BlinkMacSystemFont, 'Segoe UI', Roboto, Helvetica, Arial, 'PingFang SC', 'Microsoft YaHei', Ubuntu, Cantarell, 'Noto Sans', sans-serif" fill="rgba(51,51,51,1.000)" fill-opacity="1.000" text-anchor="start" font-weight="normal" dominant-baseline="central" transform="rotate(0 440.600 90.200)">Other</text>
<circle cx="423.600" cy="111.200" r="5.000" fill="rgba(44,160,44,1.000)" stroke="none" stroke-width="0.000" fill-opacity="1.000" stroke-opacity="1.000" />
<text x="440.600" y="111.200" font-size="12.0" font-family="Inter, -apple-system, BlinkMacSystemFont, 'Segoe UI', Roboto, Helvetica, Arial, 'PingFang SC', 'Microsoft YaHei', Ubuntu, Cantarell, 'Noto Sans', sans-serif" fill="rgba(51,51,51,1.000)" fill-opacity="1.000" text-anchor="start" font-weight="normal" dominant-baseline="central" transform="rotate(0 440.600 111.200)">Disease</text>
</svg>