<svg width="500" height="400" viewBox="0 0 500 400" xmlns="http://www.w3.org/2000/svg"><rect width="100%" height="100%" fill="rgba(255,255,255,1.000)" /><text x="250.00" y="10.00" text-anchor="middle" dominant-baseline="middle" font-family="Inter, -apple-system, BlinkMacSystemFont, 'Segoe UI', Roboto, Helvetica, Arial, 'PingFang SC', 'Microsoft YaHei', Ubuntu, Cantarell, 'Noto Sans', sans-serif" font-size="18" fill="rgba(51,51,51,1.000)" font-weight="bold">Nightingale wind rose</text>
<circle cx="251.10" cy="175.50" r="135.50" fill="none" stroke="rgba(189,189,189,1.000)" stroke-width="1.00" opacity="0.5"/>
<text x="251.10" y="35.00" font-size="12" font-family="Inter, -apple-system, BlinkMacSystemFont, 'Segoe UI', Roboto, Helvetica, Arial, 'PingFang SC', 'Microsoft YaHei', Ubuntu, Cantarell, 'Noto Sans', sans-serif" fill="rgba(51,51,51,1.000)" text-anchor="middle" dominant-baseline="auto" opacity="0.9">3326</text>
<line x1="251.10" y1="175.50" x2="286.17" y2="44.62" stroke="rgba(189,189,189,1.000)" stroke-width="1.00" opacity="0.5"/>
<text x="287.46" y="39.79" font-size="13" font-family="Inter, -apple-system, BlinkMacSystemFont, 'Segoe UI', Roboto, Helvetica, Arial, 'PingFang SC', 'Microsoft YaHei', Ubuntu, Cantarell, 'Noto Sans', sans-serif" fill="rgba(51,51,51,1.000)" text-anchor="start" dominant-baseline="auto">Apr</text>
<line x1="251.10" y1="175.50" x2="346.91" y2="79.69" stroke="rgba(189,189,189,1.000)" stroke-width="1.00" opacity="0.5"/>
<text x="350.45" y="76.15" font-size="13" font-family="Inter, -apple-system, BlinkMacSystemFont, 'Segoe UI', Roboto, Helvetica, Arial, 'PingFang SC', 'Microsoft YaHei', Ubuntu, Cantarell, 'Noto Sans', sans-serif" fill="rgba(51,51,51,1.000)" text-anchor="start" dominant-baseline="auto">May</text>
<line x1="251.10" y1="175.50" x2="381.98" y2="140.43" stroke="rgba(189,189,189,1.000)" stroke-width="1.00" opacity="0.5"/>
<text x="386.81" y="139.14" font-size="13" font-family="Inter, -apple-system, BlinkMacSystemFont, 'Segoe UI', Roboto, Helvetica, Arial, 'PingFang SC', 'Microsoft YaHei', Ubuntu, Cantarell, 'Noto Sans', sans-serif" fill="rgba(51,51,51,1.000)" text-anchor="start" dominant-baseline="middle">Jun</text>
<line x1="251.10" y1="175.50" x2="381.98" y2="210.57" stroke="rgba(189,189,189,1.000)" stroke-width="1.00" opacity="0.5"/>
<text x="386.81" y="211.86" font-size="13" font-family="Inter, -apple-system, BlinkMacSystemFont, 'Segoe UI', Roboto, Helvetica, Arial, 'PingFang SC', 'Microsoft YaHei', Ubuntu, Cantarell, 'Noto Sans', sans-serif" fill="rgba(51,51,51,1.000)" text-anchor="start" dominant-baseline="middle">Jul</text>
<line x1="251.10" y1="175.50" x2="346.91" y2="271.31" stroke="rgba(189,189,189,1.000)" stroke-width="1.00" opacity="0.5"/>
<text x="350.45" y="274.85" font-size="13" font-family="Inter, -apple-system, BlinkMacSystemFont, 'Segoe UI', Roboto, Helvetica, Arial, 'PingFang SC', 'Microsoft YaHei', Ubuntu, Cantarell, 'Noto Sans', sans-serif" fill="rgba(51,51,51,1.000)" text-anchor="start" dominant-baseline="hanging">Aug</text>
<line x1="251.10" y1="175.50" x2="286.17" y2="306.38" stroke="rgba(189,189,189,1.000)" stroke-width="1.00" opacity="0.5"/>
<text x="287.46" y="311.21" font-size="13" font-family="Inter, -apple-system, BlinkMacSystemFont, 'Segoe UI', Roboto, Helvetica, Arial, 'PingFang SC', 'Microsoft YaHei', Ubuntu, Cantarell, 'Noto Sans', sans-serif" fill="rgba(51,51,51,1.000)" text-anchor="start" dominant-baseline="hanging">Sep</text>
<line x1="251.10" y1="175.50" x2="216.03" y2="306.38" stroke="rgba(189,189,189,1.000)" stroke-width="1.00" opacity="0.5"/>
<text x="214.74" y="311.21" font-size="13" font-family="Inter, -apple-system, BlinkMacSystemFont, 'Segoe UI', Roboto, Helvetica, Arial, 'PingFang SC', 'Microsoft YaHei', Ubuntu, Cantarell, 'Noto Sans', sans-serif" fill="rgba(51,51,51,1.000)" text-anchor="end" dominant-baseline="hanging">Oct</text>
<line x1="251.10" y1="175.50" x2="155.29" y2="271.31" stroke="rgba(189,189,189,1.000)" stroke-width="1.00" opacity="0.5"/>
<text x="151.75" y="274.85" font-size="13" font-family="Inter, -apple-system, BlinkMacSystemFont, 'Segoe UI', Roboto, Helvetica, Arial, 'PingFang SC', 'Microsoft YaHei', Ubuntu, Cantarell, 'Noto Sans', sans-serif" fill="rgba(51,51,51,1.000)" text-anchor="end" dominant-baseline="hanging">Nov</text>
<line x1="251.10" y1="175.50" x2="120.22" y2="210.57" stroke="rgba(189,189,189,1.000)" stroke-width="1.00" opacity="0.5"/>
<text x="115.39" y="211.86" font-size="13" font-family="Inter, -apple-system, BlinkMacSystemFont, 'Segoe UI', Roboto, Helvetica, Arial, 'PingFang SC', 'Microsoft YaHei', Ubuntu, Cantarell, 'Noto Sans', sans-serif" fill="rgba(51,51,51,1.000)" text-anchor="end" dominant-baseline="middle">Dec</text>
<line x1="251.10" y1="175.50" x2="120.22" y2="140.43" stroke="rgba(189,189,189,1.000)" stroke-width="1.00" opacity="0.5"/>
<text x="115.39" y="139.14" font-size="13" font-family="Inter, -apple-system, BlinkMacSystemFont, 'Segoe UI', Roboto, Helvetica, Arial, 'PingFang SC', 'Microsoft YaHei', Ubuntu, Cantarell, 'Noto Sans', sans-serif" fill="rgba(51,51,51,1.000)" text-anchor="end" dominant-baseline="middle">Jan</text>
<line x1="251.10" y1="175.50" x2="155.29" y2="79.69" stroke="rgba(189,189,189,1.000)" stroke-width="1.00" opacity="0.5"/>
<text x="151.75" y="76.15" font-size="13" font-family="Inter, -apple-system, BlinkMacSystemFont, 'Segoe UI', Roboto, Helvetica, Arial, 'PingFang SC', 'Microsoft YaHei', Ubuntu, Cantarell, 'Noto Sans', sans-serif" fill="rgba(51,51,51,1.000)" text-anchor="end" dominant-baseline="auto">Feb</text>
<line x1="251.10" y1="175.50" x2="216.03" y2="44.62" stroke="rgba(189,189,189,1.000)" stroke-width="1.00" opacity="0.5"/>
<text x="214.74" y="39.79" font-size="13" font-family="Inter, -apple-system, BlinkMacSystemFont, 'Segoe UI', Roboto, Helvetica, Arial, 'PingFang SC', 'Microsoft YaHei', Ubuntu, Cantarell, 'Noto Sans', sans-serif" fill="rgba(51,51,51,1.000)" text-anchor="end" dominant-baseline="auto">Mar</text>
<defs><clipPath id="plot-clip-area"><rect x="102.600" y="40.000" width="297.000" height="271.000" /></clipPath></defs>
<polygon points="251.100,175.500 251.100,175.500 251.100,175.500 251.100,175.500 251.100,175.500 251.100,175.500 251.100,175.500 251.100,175.500 251.100,175.500 251.100,175.500 251.100,175.500 251.100,175.500 251.100,175.500 251.100,175.500 251.100,175.500 251.100,175.500 251.100,175.500 251.100,175.500 251.100,175.500 251.100,175.500" fill="rgba(31,119,180,1.000)" stroke="rgba(224,224,224,1.000)" stroke-width="0.500" fill-opacity="1.000" stroke-opacity="1.000" clip-path="url(#plot-clip-area)" />
<polygon points="251.100,175.500 251.100,170.247 251.405,170.256 251.710,170.282 252.012,170.326 252.312,170.388 252.607,170.467 252.897,170.563 253.181,170.676 253.458,170.805 253.727,170.950 251.100,175.500 251.100,175.500 251.100,175.500 251.100,175.500 251.100,175.500 251.100,175.500 251.100,175.500 251.100,175.500 251.100,175.500" fill="rgba(255,127,14,1.000)" stroke="rgba(224,224,224,1.000)" stroke-width="0.500" fill-opacity="1.000" stroke-opacity="1.000" clip-path="url(#plot-clip-area)" />
<polygon points="251.100,170.247 251.100,169.745 251.435,169.755 251.768,169.784 252.099,169.833 252.427,169.900 252.750,169.987 253.068,170.092 253.379,170.216 253.683,170.357 253.977,170.516 253.727,170.950 253.458,170.805 253.181,170.676 252.897,170.563 252.607,170.467 252.312,170.388 252.012,170.326 251.710,170.282 251.405,170.256" fill="rgba(44,160,44,1.000)" stroke="rgba(224,224,224,1.000)" stroke-width="0.500" fill-opacity="1.000" stroke-opacity="1.000" clip-path="url(#plot-clip-area)" />
<polygon points="251.100,175.500 251.100,175.500 251.100,175.500 251.100,175.500 251.100,175.500 251.100,175.500 251.100,175.500 251.100,175.500 251.100,175.500 251.100,175.500 251.100,175.500 251.100,175.500 251.100,175.500 251.100,175.500 251.100,175.500 251.100,175.500 251.100,175.500 251.100,175.500 251.100,175.500 251.100,175.500" fill="rgba(31,119,180,1.000)" stroke="rgba(224,224,224,1.000)" stroke-width="0.500" fill-opacity="1.000" stroke-opacity="1.000" clip-path="url(#plot-clip-area)" />
<polygon points="251.100,175.500 254.624,169.396 254.973,169.611 255.309,169.847 255.630,170.101 255.937,170.373 256.227,170.663 256.499,170.970 256.753,171.291 256.989,171.627 257.204,171.976 251.100,175.500 251.100,175.500 251.100,175.500 251.100,175.500 251.100,175.500 251.100,175.500 251.100,175.500 251.100,175.500 251.100,175.500" fill="rgba(255,127,14,1.000)" stroke="rgba(224,224,224,1.000)" stroke-width="0.500" fill-opacity="1.000" stroke-opacity="1.000" clip-path="url(#plot-clip-area)" />
<polygon points="254.624,169.396 256.483,166.176 257.016,166.505 257.529,166.864 258.020,167.253 258.488,167.669 258.931,168.112 259.347,168.580 259.736,169.071 260.095,169.584 260.424,170.117 257.204,171.976 256.989,171.627 256.753,171.291 256.499,170.970 256.227,170.663 255.937,170.373 255.630,170.101 255.309,169.847 254.973,169.611" fill="rgba(44,160,44,1.000)" stroke="rgba(224,224,224,1.000)" stroke-width="0.500" fill-opacity="1.000" stroke-opacity="1.000" clip-path="url(#plot-clip-area)" />
<polygon points="251.100,175.500 251.100,175.500 251.100,175.500 251.100,175.500 251.100,175.500 251.100,175.500 251.100,175.500 251.100,175.500 251.100,175.500 251.100,175.500 251.100,175.500 251.100,175.500 251.100,175.500 251.100,175.500 251.100,175.500 251.100,175.500 251.100,175.500 251.100,175.500 251.100,175.500 251.100,175.500" fill="rgba(31,119,180,1.000)" stroke="rgba(224,224,224,1.000)" stroke-width="0.500" fill-opacity="1.000" stroke-opacity="1.000" clip-path="url(#plot-clip-area)" />
<polygon points="251.100,175.500 256.084,172.623 256.243,172.917 256.384,173.221 256.508,173.532 256.613,173.850 256.700,174.173 256.767,174.501 256.816,174.832 256.845,175.165 256.855,175.500 251.100,175.500 251.100,175.500 251.100,175.500 251.100,175.500 251.100,175.500 251.100,175.500 251.100,175.500 251.100,175.500 251.100,175.500" fill="rgba(255,127,14,1.000)" stroke="rgba(224,224,224,1.000)" stroke-width="0.500" fill-opacity="1.000" stroke-opacity="1.000" clip-path="url(#plot-clip-area)" />
<polygon points="256.084,172.623 259.489,170.657 259.756,171.153 259.995,171.663 260.203,172.187 260.380,172.722 260.526,173.266 260.640,173.818 260.721,174.375 260.770,174.937 260.787,175.500 256.855,175.500 256.845,175.165 256.816,174.832 256.767,174.501 256.700,174.173 256.613,173.850 256.508,173.532 256.384,173.221 256.243,172.917" fill="rgba(44,160,44,1.000)" stroke="rgba(224,224,224,1.000)" stroke-width="0.500" fill-opacity="1.000" stroke-opacity="1.000" clip-path="url(#plot-clip-area)" />
<polygon points="251.100,175.500 251.100,175.500 251.100,175.500 251.100,175.500 251.100,175.500 251.100,175.500 251.100,175.500 251.100,175.500 251.100,175.500 251.100,175.500 251.100,175.500 251.100,175.500 251.100,175.500 251.100,175.500 251.100,175.500 251.100,175.500 251.100,175.500 251.100,175.500 251.100,175.500 251.100,175.500" fill="rgba(31,119,180,1.000)" stroke="rgba(224,224,224,1.000)" stroke-width="0.500" fill-opacity="1.000" stroke-opacity="1.000" clip-path="url(#plot-clip-area)" />
<polygon points="251.100,175.500 262.367,175.500 262.348,176.155 262.291,176.808 262.196,177.457 262.063,178.098 261.894,178.731 261.688,179.354 261.446,179.963 261.169,180.557 260.858,181.134 251.100,175.500 251.100,175.500 251.100,175.500 251.100,175.500 251.100,175.500 251.100,175.500 251.100,175.500 251.100,175.500 251.100,175.500" fill="rgba(255,127,14,1.000)" stroke="rgba(224,224,224,1.000)" stroke-width="0.500" fill-opacity="1.000" stroke-opacity="1.000" clip-path="url(#plot-clip-area)" />
<polygon points="262.367,175.500 297.018,175.500 296.940,178.170 296.708,180.831 296.320,183.474 295.780,186.089 295.089,188.669 294.249,191.205 293.263,193.687 292.134,196.108 290.866,198.459 260.858,181.134 261.169,180.557 261.446,179.963 261.688,179.354 261.894,178.731 262.063,178.098 262.196,177.457 262.291,176.808 262.348,176.155" fill="rgba(44,160,44,1.000)" stroke="rgba(224,224,224,1.000)" stroke-width="0.500" fill-opacity="1.000" stroke-opacity="1.000" clip-path="url(#plot-clip-area)" />
<polygon points="251.100,175.500 253.135,176.675 253.063,176.791 252.984,176.903 252.900,177.010 252.809,177.112 252.712,177.209 252.610,177.300 252.503,177.384 252.391,177.463 252.275,177.535 251.100,175.500 251.100,175.500 251.100,175.500 251.100,175.500 251.100,175.500 251.100,175.500 251.100,175.500 251.100,175.500 251.100,175.500" fill="rgba(31,119,180,1.000)" stroke="rgba(224,224,224,1.000)" stroke-width="0.500" fill-opacity="1.000" stroke-opacity="1.000" clip-path="url(#plot-clip-area)" />
<polygon points="253.135,176.675 262.428,182.040 262.029,182.688 261.592,183.311 261.120,183.908 260.615,184.477 260.077,185.015 259.508,185.520 258.911,185.992 258.288,186.429 257.640,186.828 252.275,177.535 252.391,177.463 252.503,177.384 252.610,177.300 252.712,177.209 252.809,177.112 252.900,177.010 252.984,176.903 253.063,176.791" fill="rgba(255,127,14,1.000)" stroke="rgba(224,224,224,1.000)" stroke-width="0.500" fill-opacity="1.000" stroke-opacity="1.000" clip-path="url(#plot-clip-area)" />
<polygon points="262.428,182.040 310.732,209.929 308.629,213.338 306.332,216.619 303.848,219.760 301.185,222.753 298.353,225.585 295.360,228.248 292.219,230.732 288.938,233.029 285.529,235.132 257.640,186.828 258.288,186.429 258.911,185.992 259.508,185.520 260.077,185.015 260.615,184.477 261.120,183.908 261.592,183.311 262.029,182.688" fill="rgba(44,160,44,1.000)" stroke="rgba(224,224,224,1.000)" stroke-width="0.500" fill-opacity="1.000" stroke-opacity="1.000" clip-path="url(#plot-clip-area)" />
<polygon points="251.100,175.500 261.672,193.812 260.590,194.395 259.475,194.915 258.332,195.369 257.164,195.756 255.976,196.074 254.772,196.323 253.555,196.501 252.329,196.609 251.100,196.644 251.100,175.500 251.100,175.500 251.100,175.500 251.100,175.500 251.100,175.500 251.100,175.500 251.100,175.500 251.100,175.500 251.100,175.500" fill="rgba(31,119,180,1.000)" stroke="rgba(224,224,224,1.000)" stroke-width="0.500" fill-opacity="1.000" stroke-opacity="1.000" clip-path="url(#plot-clip-area)" />
<polygon points="261.672,193.812 265.535,200.502 264.057,201.299 262.535,202.009 260.974,202.629 259.380,203.157 257.758,203.591 256.113,203.931 254.452,204.174 252.779,204.321 251.100,204.370 251.100,196.644 252.329,196.609 253.555,196.501 254.772,196.323 255.976,196.074 257.164,195.756 258.332,195.369 259.475,194.915 260.590,194.395" fill="rgba(255,127,14,1.000)" stroke="rgba(224,224,224,1.000)" stroke-width="0.500" fill-opacity="1.000" stroke-opacity="1.000" clip-path="url(#plot-clip-area)" />
<polygon points="265.535,200.502 287.096,237.847 283.410,239.834 279.615,241.604 275.723,243.150 271.748,244.468 267.703,245.552 263.601,246.398 259.458,247.005 255.286,247.370 251.100,247.492 251.100,204.370 252.779,204.321 254.452,204.174 256.113,203.931 257.758,203.591 259.380,203.157 260.974,202.629 262.535,202.009 264.057,201.299" fill="rgba(44,160,44,1.000)" stroke="rgba(224,224,224,1.000)" stroke-width="0.500" fill-opacity="1.000" stroke-opacity="1.000" clip-path="url(#plot-clip-area)" />
<polygon points="251.100,175.500 251.100,202.492 249.531,202.447 247.966,202.310 246.413,202.082 244.875,201.765 243.359,201.358 241.868,200.864 240.409,200.285 238.986,199.621 237.604,198.876 251.100,175.500 251.100,175.500 251.100,175.500 251.100,175.500 251.100,175.500 251.100,175.500 251.100,175.500 251.100,175.500 251.100,175.500" fill="rgba(31,119,180,1.000)" stroke="rgba(224,224,224,1.000)" stroke-width="0.500" fill-opacity="1.000" stroke-opacity="1.000" clip-path="url(#plot-clip-area)" />
<polygon points="251.100,202.492 251.100,213.383 248.897,213.318 246.702,213.126 244.522,212.807 242.364,212.361 240.235,211.791 238.143,211.098 236.096,210.284 234.098,209.353 232.159,208.307 237.604,198.876 238.986,199.621 240.409,200.285 241.868,200.864 243.359,201.358 244.875,201.765 246.413,202.082 247.966,202.310 249.531,202.447" fill="rgba(255,127,14,1.000)" stroke="rgba(224,224,224,1.000)" stroke-width="0.500" fill-opacity="1.000" stroke-opacity="1.000" clip-path="url(#plot-clip-area)" />
<polygon points="251.100,213.383 251.100,240.395 247.327,240.286 243.566,239.957 239.831,239.410 236.134,238.646 232.488,237.669 228.904,236.482 225.396,235.088 221.975,233.493 218.652,231.701 232.159,208.307 234.098,209.353 236.096,210.284 238.143,211.098 240.235,211.791 242.364,212.361 244.522,212.807 246.702,213.126 248.897,213.318" fill="rgba(44,160,44,1.000)" stroke="rgba(224,224,224,1.000)" stroke-width="0.500" fill-opacity="1.000" stroke-opacity="1.000" clip-path="url(#plot-clip-area)" />
<polygon points="251.100,175.500 231.200,209.969 229.229,208.753 227.333,207.425 225.516,205.989 223.787,204.450 222.150,202.813 220.611,201.084 219.175,199.267 217.847,197.371 216.631,195.400 251.100,175.500 251.100,175.500 251.100,175.500 251.100,175.500 251.100,175.500 251.100,175.500 251.100,175.500 251.100,175.500 251.100,175.500" fill="rgba(31,119,180,1.000)" stroke="rgba(224,224,224,1.000)" stroke-width="0.500" fill-opacity="1.000" stroke-opacity="1.000" clip-path="url(#plot-clip-area)" />
<polygon points="231.200,209.969 227.813,215.835 225.507,214.412 223.288,212.859 221.162,211.178 219.139,209.377 217.223,207.461 215.422,205.438 213.742,203.312 212.188,201.093 210.765,198.787 216.631,195.400 217.847,197.371 219.175,199.267 220.611,201.084 222.150,202.813 223.787,204.450 225.516,205.989 227.333,207.425 229.229,208.753" fill="rgba(255,127,14,1.000)" stroke="rgba(224,224,224,1.000)" stroke-width="0.500" fill-opacity="1.000" stroke-opacity="1.000" clip-path="url(#plot-clip-area)" />
<polygon points="227.813,215.835 209.785,247.060 205.694,244.536 201.757,241.779 197.987,238.798 194.396,235.603 190.997,232.204 187.802,228.613 184.821,224.843 182.064,220.906 179.540,216.815 210.765,198.787 212.188,201.093 213.742,203.312 215.422,205.438 217.223,207.461 219.139,209.377 221.162,211.178 223.288,212.859 225.507,214.412" fill="rgba(44,160,44,1.000)" stroke="rgba(224,224,224,1.000)" stroke-width="0.500" fill-opacity="1.000" stroke-opacity="1.000" clip-path="url(#plot-clip-area)" />
<polygon points="251.100,175.500 229.376,188.042 228.684,186.758 228.067,185.435 227.528,184.079 227.069,182.694 226.692,181.285 226.397,179.856 226.185,178.412 226.058,176.959 226.016,175.500 251.100,175.500 251.100,175.500 251.100,175.500 251.100,175.500 251.100,175.500 251.100,175.500 251.100,175.500 251.100,175.500 251.100,175.500" fill="rgba(31,119,180,1.000)" stroke="rgba(224,224,224,1.000)" stroke-width="0.500" fill-opacity="1.000" stroke-opacity="1.000" clip-path="url(#plot-clip-area)" />
<polygon points="229.376,188.042 219.253,193.887 218.238,192.004 217.334,190.065 216.544,188.077 215.871,186.047 215.318,183.981 214.885,181.886 214.575,179.769 214.389,177.638 214.326,175.500 226.016,175.500 226.058,176.959 226.185,178.412 226.397,179.856 226.692,181.285 227.069,182.694 227.528,184.079 228.067,185.435 228.684,186.758" fill="rgba(255,127,14,1.000)" stroke="rgba(224,224,224,1.000)" stroke-width="0.500" fill-opacity="1.000" stroke-opacity="1.000" clip-path="url(#plot-clip-area)" />
<polygon points="219.253,193.887 160.794,227.638 157.915,222.299 155.352,216.802 153.112,211.165 151.204,205.407 149.635,199.548 148.408,193.607 147.529,187.606 147.000,181.563 146.824,175.500 214.326,175.500 214.389,177.638 214.575,179.769 214.885,181.886 215.318,183.981 215.871,186.047 216.544,188.077 217.334,190.065 218.238,192.004" fill="rgba(44,160,44,1.000)" stroke="rgba(224,224,224,1.000)" stroke-width="0.500" fill-opacity="1.000" stroke-opacity="1.000" clip-path="url(#plot-clip-area)" />
<polygon points="251.100,175.500 229.696,175.500 229.732,174.255 229.841,173.015 230.021,171.783 230.273,170.564 230.595,169.361 230.987,168.179 231.447,167.022 231.973,165.894 232.564,164.798 251.100,175.500 251.100,175.500 251.100,175.500 251.100,175.500 251.100,175.500 251.100,175.500 251.100,175.500 251.100,175.500 251.100,175.500" fill="rgba(31,119,180,1.000)" stroke="rgba(224,224,224,1.000)" stroke-width="0.500" fill-opacity="1.000" stroke-opacity="1.000" clip-path="url(#plot-clip-area)" />
<polygon points="229.696,175.500 203.703,175.500 203.783,172.744 204.024,169.998 204.423,167.270 204.981,164.570 205.694,161.906 206.562,159.289 207.579,156.727 208.745,154.228 210.053,151.802 232.564,164.798 231.973,165.894 231.447,167.022 230.987,168.179 230.595,169.361 230.273,170.564 230.021,171.783 229.841,173.015 229.732,174.255" fill="rgba(255,127,14,1.000)" stroke="rgba(224,224,224,1.000)" stroke-width="0.500" fill-opacity="1.000" stroke-opacity="1.000" clip-path="url(#plot-clip-area)" />
<polygon points="203.703,175.500 118.866,175.500 119.089,167.811 119.760,160.149 120.874,152.538 122.430,145.005 124.421,137.575 126.840,130.273 129.680,123.125 132.931,116.153 136.582,109.383 210.053,151.802 208.745,154.228 207.579,156.727 206.562,159.289 205.694,161.906 204.981,164.570 204.423,167.270 204.024,169.998 203.783,172.744" fill="rgba(44,160,44,1.000)" stroke="rgba(224,224,224,1.000)" stroke-width="0.500" fill-opacity="1.000" stroke-opacity="1.000" clip-path="url(#plot-clip-area)" />
<polygon points="251.100,175.500 237.914,167.887 238.379,167.133 238.887,166.408 239.436,165.713 240.025,165.051 240.652,164.425 241.313,163.836 242.008,163.287 242.733,162.779 243.487,162.314 251.100,175.500 251.100,175.500 251.100,175.500 251.100,175.500 251.100,175.500 251.100,175.500 251.100,175.500 251.100,175.500 251.100,175.500" fill="rgba(31,119,180,1.000)" stroke="rgba(224,224,224,1.000)" stroke-width="0.500" fill-opacity="1.000" stroke-opacity="1.000" clip-path="url(#plot-clip-area)" />
<polygon points="237.914,167.887 210.255,151.918 211.696,149.583 213.269,147.336 214.971,145.184 216.795,143.135 218.735,141.195 220.784,139.371 222.936,137.669 225.183,136.096 227.518,134.655 243.487,162.314 242.733,162.779 242.008,163.287 241.313,163.836 240.652,164.425 240.025,165.051 239.436,165.713 238.887,166.408 238.379,167.133" fill="rgba(255,127,14,1.000)" stroke="rgba(224,224,224,1.000)" stroke-width="0.500" fill-opacity="1.000" stroke-opacity="1.000" clip-path="url(#plot-clip-area)" />
<polygon points="210.255,151.918 148.902,116.496 152.506,110.654 156.443,105.031 160.701,99.646 165.264,94.518 170.118,89.664 175.246,85.101 180.631,80.843 186.254,76.906 192.096,73.302 227.518,134.655 225.183,136.096 222.936,137.669 220.784,139.371 218.735,141.195 216.795,143.135 214.971,145.184 213.269,147.336 211.696,149.583" fill="rgba(44,160,44,1.000)" stroke="rgba(224,224,224,1.000)" stroke-width="0.500" fill-opacity="1.000" stroke-opacity="1.000" clip-path="url(#plot-clip-area)" />
<polygon points="251.100,175.500 244.455,163.990 245.135,163.624 245.836,163.297 246.555,163.011 247.288,162.768 248.035,162.568 248.792,162.412 249.557,162.300 250.327,162.232 251.100,162.210 251.100,175.500 251.100,175.500 251.100,175.500 251.100,175.500 251.100,175.500 251.100,175.500 251.100,175.500 251.100,175.500 251.100,175.500" fill="rgba(31,119,180,1.000)" stroke="rgba(224,224,224,1.000)" stroke-width="0.500" fill-opacity="1.000" stroke-opacity="1.000" clip-path="url(#plot-clip-area)" />
<polygon points="244.455,163.990 234.322,146.440 236.040,145.513 237.809,144.689 239.623,143.968 241.476,143.354 243.362,142.849 245.273,142.454 247.204,142.171 249.149,142.001 251.100,141.944 251.100,162.210 250.327,162.232 249.557,162.300 248.792,162.412 248.035,162.568 247.288,162.768 246.555,163.011 245.836,163.297 245.135,163.624" fill="rgba(255,127,14,1.000)" stroke="rgba(224,224,224,1.000)" stroke-width="0.500" fill-opacity="1.000" stroke-opacity="1.000" clip-path="url(#plot-clip-area)" />
<polygon points="234.322,146.440 207.006,99.127 211.521,96.693 216.171,94.525 220.938,92.631 225.808,91.017 230.763,89.689 235.786,88.652 240.862,87.909 245.972,87.462 251.100,87.312 251.100,141.944 249.149,142.001 247.204,142.171 245.273,142.454 243.362,142.849 241.476,143.354 239.623,143.968 237.809,144.689 236.040,145.513" fill="rgba(44,160,44,1.000)" stroke="rgba(224,224,224,1.000)" stroke-width="0.500" fill-opacity="1.000" stroke-opacity="1.000" clip-path="url(#plot-clip-area)" />
<text x="414.600" y="49.600" font-size="13.2" font-family="Inter, -apple-system, BlinkMacSystemFont, 'Segoe UI', Roboto, Helvetica, Arial, 'PingFang SC', 'Microsoft YaHei', Ubuntu, Cantarell, 'Noto Sans', sans-serif" fill="rgba(51,51,51,1.000)" fill-opacity="1.000" text-anchor="start" font-weight="bold">Cause</text>
<circle cx="423.600" cy="69.200" r="5.000" fill="rgba(31,119,180,1.000)" stroke="none" stroke-width="0.000" fill-opacity="1.000" stroke-opacity="1.000" />
<text x="440.600" y="73.700" font-size="12.0" font-family="Inter, -apple-system, BlinkMacSystemFont, 'Segoe UI', Roboto, Helvetica, Arial, 'PingFang SC', 'Microsoft YaHei', Ubuntu, Cantarell, 'Noto Sans', sans-serif" fill="rgba(51,51,51,1.000)" fill-opacity="1.000" text-anchor="start" font-weight="normal">Wounds</text>
<circle cx="423.600" cy="90.200" r="5.000" fill="rgba(255,127,14,1.000)" stroke="none" stroke-width="0.000" fill-opacity="1.000" stroke-opacity="1.000" />
<text x="440.600" y="94.700" font-size="12.0" font-family="Inter, -apple-system, BlinkMacSystemFont, 'Segoe UI', Roboto, Helvetica, Arial, 'PingFang SC', 'Microsoft YaHei', Ubuntu, Cantarell, 'Noto Sans', sans-serif" fill="rgba(51,51,51,1.000)" fill-opacity="1.000" text-anchor="start" font-weight="normal">Other</text>
<circle cx="423.600" cy="111.200" r="5.000" fill="rgba(44,160,44,1.000)" stroke="none" stroke-width="0.000" fill-opacity="1.000" stroke-opacity="1.000" />
<text x="440.600" y="115.700" font-size="12.0" font-family="Inter, -apple-system, BlinkMacSystemFont, 'Segoe UI', Roboto, Helvetica, Arial, 'PingFang SC', 'Microsoft YaHei', Ubuntu, Cantarell, 'Noto Sans', sans-serif" fill="rgba(51,51,51,1.000)" fill-opacity="1.000" text-anchor="start" font-weight="normal">Disease</text>
</svg>