<svg width="500" height="400" viewBox="0 0 500 400" xmlns="http://www.w3.org/2000/svg"><rect x="0.000" y="0.000" width="500.000" height="400.000" fill="rgba(255,255,255,1.000)" stroke="none" stroke-width="0.000" fill-opacity="1.000" stroke-opacity="1.000" />
<defs><clipPath id="plot-clip-area"><rect x="92.200" y="40.000" width="285.800" height="271.000" /></clipPath></defs>
<g clip-path="url(#plot-clip-area)">
<path d="M 105.191 287.857 L 131.151 287.363 L 157.183 286.737 L 183.143 284.582 L 209.104 282.853 L 235.064 279.053 L 261.096 275.870 L 287.057 276.741 L 313.017 278.892 L 338.977 276.755 L 365.009 276.285 L 365.009 311.000 L 338.977 311.000 L 313.017 311.000 L 287.057 311.000 L 261.096 311.000 L 235.064 311.000 L 209.104 311.000 L 183.143 311.000 L 157.183 311.000 L 131.151 311.000 L 105.191 311.000 Z" fill="rgba(31,119,180,1.000)" fill-opacity="1.000" stroke="none" />
<path d="M 105.191 230.282 L 131.151 227.000 L 157.183 231.307 L 183.143 232.275 L 209.104 235.090 L 235.064 233.265 L 261.096 234.150 L 287.057 235.428 L 313.017 240.688 L 338.977 236.407 L 365.009 227.727 L 365.009 276.285 L 338.977 276.755 L 313.017 278.892 L 287.057 276.741 L 261.096 275.870 L 235.064 279.053 L 209.104 282.853 L 183.143 284.582 L 157.183 286.737 L 131.151 287.363 L 105.191 287.857 Z" fill="rgba(255,127,14,1.000)" fill-opacity="1.000" stroke="none" />
<path d="M 105.191 205.226 L 131.151 205.199 L 157.183 210.717 L 183.143 215.824 L 209.104 212.437 L 235.064 211.274 L 261.096 208.657 L 287.057 205.847 L 313.017 201.325 L 338.977 208.982 L 365.009 198.724 L 365.009 227.727 L 338.977 236.407 L 313.017 240.688 L 287.057 235.428 L 261.096 234.150 L 235.064 233.265 L 209.104 235.090 L 183.143 232.275 L 157.183 231.307 L 131.151 227.000 L 105.191 230.282 Z" fill="rgba(44,160,44,1.000)" fill-opacity="1.000" stroke="none" />
<path d="M 105.191 181.296 L 131.151 180.976 L 157.183 186.050 L 183.143 190.597 L 209.104 186.507 L 235.064 185.618 L 261.096 183.787 L 287.057 179.505 L 313.017 173.385 L 338.977 178.399 L 365.009 173.090 L 365.009 198.724 L 338.977 208.982 L 313.017 201.325 L 287.057 205.847 L 261.096 208.657 L 235.064 211.274 L 209.104 212.437 L 183.143 215.824 L 157.183 210.717 L 131.151 205.199 L 105.191 205.226 Z" fill="rgba(214,39,40,1.000)" fill-opacity="1.000" stroke="none" />
<path d="M 105.191 122.408 L 131.151 124.324 L 157.183 128.319 L 183.143 129.292 L 209.104 128.671 L 235.064 121.066 L 261.096 116.636 L 287.057 113.290 L 313.017 109.325 L 338.977 114.575 L 365.009 112.522 L 365.009 173.090 L 338.977 178.399 L 313.017 173.385 L 287.057 179.505 L 261.096 183.787 L 235.064 185.618 L 209.104 186.507 L 183.143 190.597 L 157.183 186.050 L 131.151 180.976 L 105.191 181.296 Z" fill="rgba(148,103,189,1.000)" fill-opacity="1.000" stroke="none" />
<path d="M 105.191 83.549 L 131.151 87.442 L 157.183 93.680 L 183.143 95.553 L 209.104 96.089 L 235.064 96.668 L 261.096 93.693 L 287.057 89.683 L 313.017 87.251 L 338.977 88.586 L 365.009 85.277 L 365.009 112.522 L 338.977 114.575 L 313.017 109.325 L 287.057 113.290 L 261.096 116.636 L 235.064 121.066 L 209.104 128.671 L 183.143 129.292 L 157.183 128.319 L 131.151 124.324 L 105.191 122.408 Z" fill="rgba(140,86,75,1.000)" fill-opacity="1.000" stroke="none" />
<path d="M 105.191 52.905 L 131.151 52.905 L 157.183 52.905 L 183.143 52.905 L 209.104 52.905 L 235.064 52.905 L 261.096 52.905 L 287.057 52.905 L 313.017 52.905 L 338.977 52.905 L 365.009 52.905 L 365.009 85.277 L 338.977 88.586 L 313.017 87.251 L 287.057 89.683 L 261.096 93.693 L 235.064 96.668 L 209.104 96.089 L 183.143 95.553 L 157.183 93.680 L 131.151 87.442 L 105.191 83.549 Z" fill="rgba(227,119,194,1.000)" fill-opacity="1.000" stroke="none" />
</g>
<path d="M 92.200 311.000 L 378.000 311.000" fill="none" stroke="rgba(51,51,51,1.000)" stroke-width="1.000" stroke-opacity="1.000" stroke-linejoin="round" stroke-linecap="round" />
<path d="M 131.151 311.000 L 131.151 317.000" fill="none" stroke="rgba(51,51,51,1.000)" stroke-width="1.000" stroke-opacity="1.000" stroke-linejoin="round" stroke-linecap="round" />
<text x="131.151" y="320.000" font-size="13.0" font-family="Inter, -apple-system, BlinkMacSystemFont, 'Segoe UI', Roboto, Helvetica, Arial, 'PingFang SC', 'Microsoft YaHei', Ubuntu, Cantarell, 'Noto Sans', sans-serif" fill="rgba(51,51,51,1.000)" fill-opacity="1.000" text-anchor="middle" font-weight="normal" dominant-baseline="hanging" transform="rotate(0 131.151 320.000)">2012</text>
<path d="M 183.143 311.000 L 183.143 317.000" fill="none" stroke="rgba(51,51,51,1.000)" stroke-width="1.000" stroke-opacity="1.000" stroke-linejoin="round" stroke-linecap="round" />
<text x="183.143" y="320.000" font-size="13.0" font-family="Inter, -apple-system, BlinkMacSystemFont, 'Segoe UI', Roboto, Helvetica, Arial, 'PingFang SC', 'Microsoft YaHei', Ubuntu, Cantarell, 'Noto Sans', sans-serif" fill="rgba(51,51,51,1.000)" fill-opacity="1.000" text-anchor="middle" font-weight="normal" dominant-baseline="hanging" transform="rotate(0 183.143 320.000)">2014</text>
<path d="M 235.064 311.000 L 235.064 317.000" fill="none" stroke="rgba(51,51,51,1.000)" stroke-width="1.000" stroke-opacity="1.000" stroke-linejoin="round" stroke-linecap="round" />
<text x="235.064" y="320.000" font-size="13.0" font-family="Inter, -apple-system, BlinkMacSystemFont, 'Segoe UI', Roboto, Helvetica, Arial, 'PingFang SC', 'Microsoft YaHei', Ubuntu, Cantarell, 'Noto Sans', sans-serif" fill="rgba(51,51,51,1.000)" fill-opacity="1.000" text-anchor="middle" font-weight="normal" dominant-baseline="hanging" transform="rotate(0 235.064 320.000)">2016</text>
<path d="M 287.057 311.000 L 287.057 317.000" fill="none" stroke="rgba(51,51,51,1.000)" stroke-width="1.000" stroke-opacity="1.000" stroke-linejoin="round" stroke-linecap="round" />
<text x="287.057" y="320.000" font-size="13.0" font-family="Inter, -apple-system, BlinkMacSystemFont, 'Segoe UI', Roboto, Helvetica, Arial, 'PingFang SC', 'Microsoft YaHei', Ubuntu, Cantarell, 'Noto Sans', sans-serif" fill="rgba(51,51,51,1.000)" fill-opacity="1.000" text-anchor="middle" font-weight="normal" dominant-baseline="hanging" transform="rotate(0 287.057 320.000)">2018</text>
<path d="M 338.977 311.000 L 338.977 317.000" fill="none" stroke="rgba(51,51,51,1.000)" stroke-width="1.000" stroke-opacity="1.000" stroke-linejoin="round" stroke-linecap="round" />
<text x="338.977" y="320.000" font-size="13.0" font-family="Inter, -apple-system, BlinkMacSystemFont, 'Segoe UI', Roboto, Helvetica, Arial, 'PingFang SC', 'Microsoft YaHei', Ubuntu, Cantarell, 'Noto Sans', sans-serif" fill="rgba(51,51,51,1.000)" fill-opacity="1.000" text-anchor="middle" font-weight="normal" dominant-baseline="hanging" transform="rotate(0 338.977 320.000)">2020</text>
<text x="235.100" y="340.000" font-size="15.0" font-family="Inter, -apple-system, BlinkMacSystemFont, 'Segoe UI', Roboto, Helvetica, Arial, 'PingFang SC', 'Microsoft YaHei', Ubuntu, Cantarell, 'Noto Sans', sans-serif" fill="rgba(51,51,51,1.000)" fill-opacity="1.000" text-anchor="middle" font-weight="bold" dominant-baseline="hanging" transform="rotate(0 235.100 340.000)">Year</text>
<path d="M 92.200 40.000 L 92.200 311.000" fill="none" stroke="rgba(51,51,51,1.000)" stroke-width="1.000" stroke-opacity="1.000" stroke-linejoin="round" stroke-linecap="round" />
<path d="M 92.200 311.000 L 86.200 311.000" fill="none" stroke="rgba(51,51,51,1.000)" stroke-width="1.000" stroke-opacity="1.000" stroke-linejoin="round" stroke-linecap="round" />
<text x="82.200" y="311.000" font-size="13.0" font-family="Inter, -apple-system, BlinkMacSystemFont, 'Segoe UI', Roboto, Helvetica, Arial, 'PingFang SC', 'Microsoft YaHei', Ubuntu, Cantarell, 'Noto Sans', sans-serif" fill="rgba(51,51,51,1.000)" fill-opacity="1.000" text-anchor="end" font-weight="normal" dominant-baseline="central" transform="rotate(0 82.200 311.000)">0.0</text>
<path d="M 92.200 259.381 L 86.200 259.381" fill="none" stroke="rgba(51,51,51,1.000)" stroke-width="1.000" stroke-opacity="1.000" stroke-linejoin="round" stroke-linecap="round" />
<text x="82.200" y="259.381" font-size="13.0" font-family="Inter, -apple-system, BlinkMacSystemFont, 'Segoe UI', Roboto, Helvetica, Arial, 'PingFang SC', 'Microsoft YaHei', Ubuntu, Cantarell, 'Noto Sans', sans-serif" fill="rgba(51,51,51,1.000)" fill-opacity="1.000" text-anchor="end" font-weight="normal" dominant-baseline="central" transform="rotate(0 82.200 259.381)">0.2</text>
<path d="M 92.200 207.762 L 86.200 207.762" fill="none" stroke="rgba(51,51,51,1.000)" stroke-width="1.000" stroke-opacity="1.000" stroke-linejoin="round" stroke-linecap="round" />
<text x="82.200" y="207.762" font-size="13.0" font-family="Inter, -apple-system, BlinkMacSystemFont, 'Segoe UI', Roboto, Helvetica, Arial, 'PingFang SC', 'Microsoft YaHei', Ubuntu, Cantarell, 'Noto Sans', sans-serif" fill="rgba(51,51,51,1.000)" fill-opacity="1.000" text-anchor="end" font-weight="normal" dominant-baseline="central" transform="rotate(0 82.200 207.762)">0.4</text>
<path d="M 92.200 156.143 L 86.200 156.143" fill="none" stroke="rgba(51,51,51,1.000)" stroke-width="1.000" stroke-opacity="1.000" stroke-linejoin="round" stroke-linecap="round" />
<text x="82.200" y="156.143" font-size="13.0" font-family="Inter, -apple-system, BlinkMacSystemFont, 'Segoe UI', Roboto, Helvetica, Arial, 'PingFang SC', 'Microsoft YaHei', Ubuntu, Cantarell, 'Noto Sans', sans-serif" fill="rgba(51,51,51,1.000)" fill-opacity="1.000" text-anchor="end" font-weight="normal" dominant-baseline="central" transform="rotate(0 82.200 156.143)">0.6</text>
<path d="M 92.200 104.524 L 86.200 104.524" fill="none" stroke="rgba(51,51,51,1.000)" stroke-width="1.000" stroke-opacity="1.000" stroke-linejoin="round" stroke-linecap="round" />
<text x="82.200" y="104.524" font-size="13.0" font-family="Inter, -apple-system, BlinkMacSystemFont, 'Segoe UI', Roboto, Helvetica, Arial, 'PingFang SC', 'Microsoft YaHei', Ubuntu, Cantarell, 'Noto Sans', sans-serif" fill="rgba(51,51,51,1.000)" fill-opacity="1.000" text-anchor="end" font-weight="normal" dominant-baseline="central" transform="rotate(0 82.200 104.524)">0.8</text>
<path d="M 92.200 52.905 L 86.200 52.905" fill="none" stroke="rgba(51,51,51,1.000)" stroke-width="1.000" stroke-opacity="1.000" stroke-linejoin="round" stroke-linecap="round" />
<text x="82.200" y="52.905" font-size="13.0" font-family="Inter, -apple-system, BlinkMacSystemFont, 'Segoe UI', Roboto, Helvetica, Arial, 'PingFang SC', 'Microsoft YaHei', Ubuntu, Cantarell, 'Noto Sans', sans-serif" fill="rgba(51,51,51,1.000)" fill-opacity="1.000" text-anchor="end" font-weight="normal" dominant-baseline="central" transform="rotate(0 82.200 52.905)">1.0</text>
<text x="47.500" y="175.500" font-size="15.0" font-family="Inter, -apple-system, BlinkMacSystemFont, 'Segoe UI', Roboto, Helvetica, Arial, 'PingFang SC', 'Microsoft YaHei', Ubuntu, Cantarell, 'Noto Sans', sans-serif" fill="rgba(51,51,51,1.000)" fill-opacity="1.000" text-anchor="middle" font-weight="bold" dominant-baseline="middle" transform="rotate(-90 47.500 175.500)">Unemployment rate (%)</text>
<text x="393.000" y="46.000" font-size="13.2" font-family="Inter, -apple-system, BlinkMacSystemFont, 'Segoe UI', Roboto, Helvetica, Arial, 'PingFang SC', 'Microsoft YaHei', Ubuntu, Cantarell, 'Noto Sans', sans-serif" fill="rgba(51,51,51,1.000)" fill-opacity="1.000" text-anchor="start" font-weight="bold" dominant-baseline="central" transform="rotate(0 393.000 46.000)">Country</text>
<circle cx="402.000" cy="69.200" r="5.000" fill="rgba(31,119,180,1.000)" stroke="none" stroke-width="0.000" fill-opacity="1.000" stroke-opacity="1.000" />
<text x="419.000" y="69.200" font-size="12.0" font-family="Inter, -apple-system, BlinkMacSystemFont, 'Segoe UI', Roboto, Helvetica, Arial, 'PingFang SC', 'Microsoft YaHei', Ubuntu, Cantarell, 'Noto Sans', sans-serif" fill="rgba(51,51,51,1.000)" fill-opacity="1.000" text-anchor="start" font-weight="normal" dominant-baseline="central" transform="rotate(0 419.000 69.200)">Belarus</text>
<circle cx="402.000" cy="90.200" r="5.000" fill="rgba(255,127,14,1.000)" stroke="none" stroke-width="0.000" fill-opacity="1.000" stroke-opacity="1.000" />
<text x="419.000" y="90.200" font-size="12.0" font-family="Inter, -apple-system, BlinkMacSystemFont, 'Segoe UI', Roboto, Helvetica, Arial, 'PingFang SC', 'Microsoft YaHei', Ubuntu, Cantarell, 'Noto Sans', sans-serif" fill="rgba(51,51,51,1.000)" fill-opacity="1.000" text-anchor="start" font-weight="normal" dominant-baseline="central" transform="rotate(0 419.000 90.200)">Ireland</text>
<circle cx="402.000" cy="111.200" r="5.000" fill="rgba(44,160,44,1.000)" stroke="none" stroke-width="0.000" fill-opacity="1.000" stroke-opacity="1.000" />
<text x="419.000" y="111.200" font-size="12.0" font-family="Inter, -apple-system, BlinkMacSystemFont, 'Segoe UI', Roboto, Helvetica, Arial, 'PingFang SC', 'Microsoft YaHei', Ubuntu, Cantarell, 'Noto Sans', sans-serif" fill="rgba(51,51,51,1.000)" fill-opacity="1.000" text-anchor="start" font-weight="normal" dominant-baseline="central" transform="rotate(0 419.000 111.200)">Moldova</text>
<circle cx="402.000" cy="132.200" r="5.000" fill="rgba(214,39,40,1.000)" stroke="none" stroke-width="0.000" fill-opacity="1.000" stroke-opacity="1.000" />
<text x="419.000" y="132.200" font-size="12.0" font-family="Inter, -apple-system, BlinkMacSystemFont, 'Segoe UI', Roboto, Helvetica, Arial, 'PingFang SC', 'Microsoft YaHei', Ubuntu, Cantarell, 'Noto Sans', sans-serif" fill="rgba(51,51,51,1.000)" fill-opacity="1.000" text-anchor="start" font-weight="normal" dominant-baseline="central" transform="rotate(0 419.000 132.200)">Malta</text>
<circle cx="402.000" cy="153.200" r="5.000" fill="rgba(148,103,189,1.000)" stroke="none" stroke-width="0.000" fill-opacity="1.000" stroke-opacity="1.000" />
<text x="419.000" y="153.200" font-size="12.0" font-family="Inter, -apple-system, BlinkMacSystemFont, 'Segoe UI', Roboto, Helvetica, Arial, 'PingFang SC', 'Microsoft YaHei', Ubuntu, Cantarell, 'Noto Sans', sans-serif" fill="rgba(51,51,51,1.000)" fill-opacity="1.000" text-anchor="start" font-weight="normal" dominant-baseline="central" transform="rotate(0 419.000 153.200)">Puerto Rico</text>
<circle cx="402.000" cy="174.200" r="5.000" fill="rgba(140,86,75,1.000)" stroke="none" stroke-width="0.000" fill-opacity="1.000" stroke-opacity="1.000" />
<text x="419.000" y="174.200" font-size="12.0" font-family="Inter, -apple-system, BlinkMacSystemFont, 'Segoe UI', Roboto, Helvetica, Arial, 'PingFang SC', 'Microsoft YaHei', Ubuntu, Cantarell, 'Noto Sans', sans-serif" fill="rgba(51,51,51,1.000)" fill-opacity="1.000" text-anchor="start" font-weight="normal" dominant-baseline="central" transform="rotate(0 419.000 174.200)">Senegal</text>
<circle cx="402.000" cy="195.200" r="5.000" fill="rgba(227,119,194,1.000)" stroke="none" stroke-width="0.000" fill-opacity="1.000" stroke-opacity="1.000" />
<text x="419.000" y="195.200" font-size="12.0" font-family="Inter, -apple-system, BlinkMacSystemFont, 'Segoe UI', Roboto, Helvetica, Arial, 'PingFang SC', 'Microsoft YaHei', Ubuntu, Cantarell, 'Noto Sans', sans-serif" fill="rgba(51,51,51,1.000)" fill-opacity="1.000" text-anchor="start" font-weight="normal" dominant-baseline="central" transform="rotate(0 419.000 195.200)">Slovenia</text>
</svg>