<svg width="500" height="400" viewBox="0 0 500 400" xmlns="http://www.w3.org/2000/svg"><rect width="100%" height="100%" fill="rgba(255,255,255,1.000)" /><line x1="92.20" y1="311.00" x2="379.20" y2="311.00" stroke="rgba(51,51,51,1.000)" stroke-width="1" stroke-linecap="square"/>
<line x1="105.25" y1="311.00" x2="105.25" y2="317.00" stroke="rgba(51,51,51,1.000)" stroke-width="1.0"/>
<text x="105.25" y="320.00" font-size="13" font-family="Inter, -apple-system, BlinkMacSystemFont, 'Segoe UI', Roboto, Helvetica, Arial, 'PingFang SC', 'Microsoft YaHei', Ubuntu, Cantarell, 'Noto Sans', sans-serif" fill="rgba(51,51,51,1.000)" text-anchor="middle" dominant-baseline="hanging">2014</text>
<line x1="179.79" y1="311.00" x2="179.79" y2="317.00" stroke="rgba(51,51,51,1.000)" stroke-width="1.0"/>
<text x="179.79" y="320.00" font-size="13" font-family="Inter, -apple-system, BlinkMacSystemFont, 'Segoe UI', Roboto, Helvetica, Arial, 'PingFang SC', 'Microsoft YaHei', Ubuntu, Cantarell, 'Noto Sans', sans-serif" fill="rgba(51,51,51,1.000)" text-anchor="middle" dominant-baseline="hanging">2016</text>
<line x1="254.34" y1="311.00" x2="254.34" y2="317.00" stroke="rgba(51,51,51,1.000)" stroke-width="1.0"/>
<text x="254.34" y="320.00" font-size="13" font-family="Inter, -apple-system, BlinkMacSystemFont, 'Segoe UI', Roboto, Helvetica, Arial, 'PingFang SC', 'Microsoft YaHei', Ubuntu, Cantarell, 'Noto Sans', sans-serif" fill="rgba(51,51,51,1.000)" text-anchor="middle" dominant-baseline="hanging">2018</text>
<line x1="328.88" y1="311.00" x2="328.88" y2="317.00" stroke="rgba(51,51,51,1.000)" stroke-width="1.0"/>
<text x="328.88" y="320.00" font-size="13" font-family="Inter, -apple-system, BlinkMacSystemFont, 'Segoe UI', Roboto, Helvetica, Arial, 'PingFang SC', 'Microsoft YaHei', Ubuntu, Cantarell, 'Noto Sans', sans-serif" fill="rgba(51,51,51,1.000)" text-anchor="middle" dominant-baseline="hanging">2020</text>
<text x="235.70" y="340.00" text-anchor="middle" font-size="15" font-family="Inter, -apple-system, BlinkMacSystemFont, 'Segoe UI', Roboto, Helvetica, Arial, 'PingFang SC', 'Microsoft YaHei', Ubuntu, Cantarell, 'Noto Sans', sans-serif" fill="rgba(51,51,51,1.000)" font-weight="bold" dominant-baseline="hanging">Year</text>
<line x1="92.20" y1="40.00" x2="92.20" y2="311.00" stroke="rgba(51,51,51,1.000)" stroke-width="1" stroke-linecap="square"/>
<line x1="92.20" y1="311.00" x2="86.20" y2="311.00" stroke="rgba(51,51,51,1.000)" stroke-width="1.0"/>
<text x="82.20" y="311.00" font-size="13" font-family="Inter, -apple-system, BlinkMacSystemFont, 'Segoe UI', Roboto, Helvetica, Arial, 'PingFang SC', 'Microsoft YaHei', Ubuntu, Cantarell, 'Noto Sans', sans-serif" fill="rgba(51,51,51,1.000)" text-anchor="end" dominant-baseline="central">0.0</text>
<line x1="92.20" y1="259.38" x2="86.20" y2="259.38" stroke="rgba(51,51,51,1.000)" stroke-width="1.0"/>
<text x="82.20" y="259.38" font-size="13" font-family="Inter, -apple-system, BlinkMacSystemFont, 'Segoe UI', Roboto, Helvetica, Arial, 'PingFang SC', 'Microsoft YaHei', Ubuntu, Cantarell, 'Noto Sans', sans-serif" fill="rgba(51,51,51,1.000)" text-anchor="end" dominant-baseline="central">0.2</text>
<line x1="92.20" y1="207.76" x2="86.20" y2="207.76" stroke="rgba(51,51,51,1.000)" stroke-width="1.0"/>
<text x="82.20" y="207.76" font-size="13" font-family="Inter, -apple-system, BlinkMacSystemFont, 'Segoe UI', Roboto, Helvetica, Arial, 'PingFang SC', 'Microsoft YaHei', Ubuntu, Cantarell, 'Noto Sans', sans-serif" fill="rgba(51,51,51,1.000)" text-anchor="end" dominant-baseline="central">0.4</text>
<line x1="92.20" y1="156.14" x2="86.20" y2="156.14" stroke="rgba(51,51,51,1.000)" stroke-width="1.0"/>
<text x="82.20" y="156.14" font-size="13" font-family="Inter, -apple-system, BlinkMacSystemFont, 'Segoe UI', Roboto, Helvetica, Arial, 'PingFang SC', 'Microsoft YaHei', Ubuntu, Cantarell, 'Noto Sans', sans-serif" fill="rgba(51,51,51,1.000)" text-anchor="end" dominant-baseline="central">0.6</text>
<line x1="92.20" y1="104.52" x2="86.20" y2="104.52" stroke="rgba(51,51,51,1.000)" stroke-width="1.0"/>
<text x="82.20" y="104.52" font-size="13" font-family="Inter, -apple-system, BlinkMacSystemFont, 'Segoe UI', Roboto, Helvetica, Arial, 'PingFang SC', 'Microsoft YaHei', Ubuntu, Cantarell, 'Noto Sans', sans-serif" fill="rgba(51,51,51,1.000)" text-anchor="end" dominant-baseline="central">0.8</text>
<line x1="92.20" y1="52.90" x2="86.20" y2="52.90" stroke="rgba(51,51,51,1.000)" stroke-width="1.0"/>
<text x="82.20" y="52.90" font-size="13" font-family="Inter, -apple-system, BlinkMacSystemFont, 'Segoe UI', Roboto, Helvetica, Arial, 'PingFang SC', 'Microsoft YaHei', Ubuntu, Cantarell, 'Noto Sans', sans-serif" fill="rgba(51,51,51,1.000)" text-anchor="end" dominant-baseline="central">1.0</text>
<text x="47.50" y="175.50" text-anchor="middle" font-size="15" font-family="Inter, -apple-system, BlinkMacSystemFont, 'Segoe UI', Roboto, Helvetica, Arial, 'PingFang SC', 'Microsoft YaHei', Ubuntu, Cantarell, 'Noto Sans', sans-serif" fill="rgba(51,51,51,1.000)" font-weight="bold" transform="rotate(-90, 47.50, 175.50)" dominant-baseline="middle">Unemployment rate (%)</text>
<defs><clipPath id="plot-clip-area"><rect x="92.200" y="40.000" width="287.000" height="271.000" /></clipPath></defs>
<line x1="92.200" y1="311.000" x2="379.200" y2="311.000" stroke="rgba(136,136,136,1.000)" stroke-width="1.000" stroke-opacity="0.500" stroke-dasharray="4.0,4.0" />
<polygon points="105.245,106.431 142.518,106.859 179.791,105.869 217.064,106.235 254.336,105.989 291.609,107.879 328.882,100.716 366.155,101.961 366.155,153.501 328.882,161.184 291.609,156.992 254.336,154.570 217.064,152.402 179.791,149.886 142.518,149.798 105.245,150.225" fill="rgba(148,103,189,1.000)" stroke="none" stroke-width="0.000" fill-opacity="1.000" stroke-opacity="0.000" clip-path="url(#plot-clip-area)" />
<polygon points="105.245,237.747 142.518,237.588 179.791,238.117 217.064,236.842 254.336,236.078 291.609,235.411 328.882,247.666 366.155,236.033 366.155,311.000 328.882,311.000 291.609,311.000 254.336,311.000 217.064,311.000 179.791,311.000 142.518,311.000 105.245,311.000" fill="rgba(31,119,180,1.000)" stroke="none" stroke-width="0.000" fill-opacity="1.000" stroke-opacity="0.000" clip-path="url(#plot-clip-area)" />
<polygon points="105.245,181.985 142.518,181.458 179.791,182.018 217.064,184.241 254.336,186.219 291.609,186.567 328.882,187.253 366.155,183.533 366.155,225.928 328.882,238.417 291.609,224.699 254.336,225.394 217.064,226.295 179.791,227.733 142.518,227.035 105.245,227.423" fill="rgba(44,160,44,1.000)" stroke="none" stroke-width="0.000" fill-opacity="1.000" stroke-opacity="0.000" clip-path="url(#plot-clip-area)" />
<polygon points="105.245,150.225 142.518,149.798 179.791,149.886 217.064,152.402 254.336,154.570 291.609,156.992 328.882,161.184 366.155,153.501 366.155,183.533 328.882,187.253 291.609,186.567 254.336,186.219 217.064,184.241 179.791,182.018 142.518,181.458 105.245,181.985" fill="rgba(214,39,40,1.000)" stroke="none" stroke-width="0.000" fill-opacity="1.000" stroke-opacity="0.000" clip-path="url(#plot-clip-area)" />
<polygon points="105.245,227.423 142.518,227.035 179.791,227.733 217.064,226.295 254.336,225.394 291.609,224.699 328.882,238.417 366.155,225.928 366.155,236.033 328.882,247.666 291.609,235.411 254.336,236.078 217.064,236.842 179.791,238.117 142.518,237.588 105.245,237.747" fill="rgba(255,127,14,1.000)" stroke="none" stroke-width="0.000" fill-opacity="1.000" stroke-opacity="0.000" clip-path="url(#plot-clip-area)" />
<polygon points="105.245,52.905 142.518,52.905 179.791,52.905 217.064,52.905 254.336,52.905 291.609,52.905 328.882,52.905 366.155,52.905 366.155,74.751 328.882,73.674 291.609,77.428 254.336,77.229 217.064,76.784 179.791,76.285 142.518,76.320 105.245,76.117" fill="rgba(227,119,194,1.000)" stroke="none" stroke-width="0.000" fill-opacity="1.000" stroke-opacity="0.000" clip-path="url(#plot-clip-area)" />
<polygon points="105.245,76.117 142.518,76.320 179.791,76.285 217.064,76.784 254.336,77.229 291.609,77.428 328.882,73.674 366.155,74.751 366.155,101.961 328.882,100.716 291.609,107.879 254.336,105.989 217.064,106.235 179.791,105.869 142.518,106.859 105.245,106.431" fill="rgba(140,86,75,1.000)" stroke="none" stroke-width="0.000" fill-opacity="1.000" stroke-opacity="0.000" clip-path="url(#plot-clip-area)" />
<text x="394.200" y="49.600" font-size="13.2" font-family="Inter, -apple-system, BlinkMacSystemFont, 'Segoe UI', Roboto, Helvetica, Arial, 'PingFang SC', 'Microsoft YaHei', Ubuntu, Cantarell, 'Noto Sans', sans-serif" fill="rgba(51,51,51,1.000)" fill-opacity="1.000" text-anchor="start" font-weight="bold">Country</text>
<circle cx="403.200" cy="69.200" r="5.000" fill="rgba(31,119,180,1.000)" stroke="none" stroke-width="0.000" fill-opacity="1.000" stroke-opacity="1.000" />
<text x="420.200" y="73.700" font-size="12.0" font-family="Inter, -apple-system, BlinkMacSystemFont, 'Segoe UI', Roboto, Helvetica, Arial, 'PingFang SC', 'Microsoft YaHei', Ubuntu, Cantarell, 'Noto Sans', sans-serif" fill="rgba(51,51,51,1.000)" fill-opacity="1.000" text-anchor="start" font-weight="normal">Afghanistan</text>
<circle cx="403.200" cy="90.200" r="5.000" fill="rgba(255,127,14,1.000)" stroke="none" stroke-width="0.000" fill-opacity="1.000" stroke-opacity="1.000" />
<text x="420.200" y="94.700" font-size="12.0" font-family="Inter, -apple-system, BlinkMacSystemFont, 'Segoe UI', Roboto, Helvetica, Arial, 'PingFang SC', 'Microsoft YaHei', Ubuntu, Cantarell, 'Noto Sans', sans-serif" fill="rgba(51,51,51,1.000)" fill-opacity="1.000" text-anchor="start" font-weight="normal">Burundi</text>
<circle cx="403.200" cy="111.200" r="5.000" fill="rgba(44,160,44,1.000)" stroke="none" stroke-width="0.000" fill-opacity="1.000" stroke-opacity="1.000" />
<text x="420.200" y="115.700" font-size="12.0" font-family="Inter, -apple-system, BlinkMacSystemFont, 'Segoe UI', Roboto, Helvetica, Arial, 'PingFang SC', 'Microsoft YaHei', Ubuntu, Cantarell, 'Noto Sans', sans-serif" fill="rgba(51,51,51,1.000)" fill-opacity="1.000" text-anchor="start" font-weight="normal">Canada</text>
<circle cx="403.200" cy="132.200" r="5.000" fill="rgba(214,39,40,1.000)" stroke="none" stroke-width="0.000" fill-opacity="1.000" stroke-opacity="1.000" />
<text x="420.200" y="136.700" font-size="12.0" font-family="Inter, -apple-system, BlinkMacSystemFont, 'Segoe UI', Roboto, Helvetica, Arial, 'PingFang SC', 'Microsoft YaHei', Ubuntu, Cantarell, 'Noto Sans', sans-serif" fill="rgba(51,51,51,1.000)" fill-opacity="1.000" text-anchor="start" font-weight="normal">Switzerland</text>
<circle cx="403.200" cy="153.200" r="5.000" fill="rgba(148,103,189,1.000)" stroke="none" stroke-width="0.000" fill-opacity="1.000" stroke-opacity="1.000" />
<text x="420.200" y="157.700" font-size="12.0" font-family="Inter, -apple-system, BlinkMacSystemFont, 'Segoe UI', Roboto, Helvetica, Arial, 'PingFang SC', 'Microsoft YaHei', Ubuntu, Cantarell, 'Noto Sans', sans-serif" fill="rgba(51,51,51,1.000)" fill-opacity="1.000" text-anchor="start" font-weight="normal">Chile</text>
<circle cx="403.200" cy="174.200" r="5.000" fill="rgba(140,86,75,1.000)" stroke="none" stroke-width="0.000" fill-opacity="1.000" stroke-opacity="1.000" />
<text x="420.200" y="178.700" font-size="12.0" font-family="Inter, -apple-system, BlinkMacSystemFont, 'Segoe UI', Roboto, Helvetica, Arial, 'PingFang SC', 'Microsoft YaHei', Ubuntu, Cantarell, 'Noto Sans', sans-serif" fill="rgba(51,51,51,1.000)" fill-opacity="1.000" text-anchor="start" font-weight="normal">China</text>
<circle cx="403.200" cy="195.200" r="5.000" fill="rgba(227,119,194,1.000)" stroke="none" stroke-width="0.000" fill-opacity="1.000" stroke-opacity="1.000" />
<text x="420.200" y="199.700" font-size="12.0" font-family="Inter, -apple-system, BlinkMacSystemFont, 'Segoe UI', Roboto, Helvetica, Arial, 'PingFang SC', 'Microsoft YaHei', Ubuntu, Cantarell, 'Noto Sans', sans-serif" fill="rgba(51,51,51,1.000)" fill-opacity="1.000" text-anchor="start" font-weight="normal">Cameroon</text>
</svg>