<svg width="500" height="400" viewBox="0 0 500 400" xmlns="http://www.w3.org/2000/svg"><rect width="100%" height="100%" fill="rgba(255,255,255,1.000)" /><line x1="92.20" y1="311.00" x2="378.00" y2="311.00" stroke="rgba(51,51,51,1.000)" stroke-width="1" stroke-linecap="square"/>
<line x1="131.17" y1="311.00" x2="131.17" y2="317.00" stroke="rgba(51,51,51,1.000)" stroke-width="1.0"/>
<text x="131.17" y="320.00" font-size="13" font-family="Inter, -apple-system, BlinkMacSystemFont, 'Segoe UI', Roboto, Helvetica, Arial, 'PingFang SC', 'Microsoft YaHei', Ubuntu, Cantarell, 'Noto Sans', sans-serif" fill="rgba(51,51,51,1.000)" text-anchor="middle" dominant-baseline="hanging">2012</text>
<line x1="183.14" y1="311.00" x2="183.14" y2="317.00" stroke="rgba(51,51,51,1.000)" stroke-width="1.0"/>
<text x="183.14" y="320.00" font-size="13" font-family="Inter, -apple-system, BlinkMacSystemFont, 'Segoe UI', Roboto, Helvetica, Arial, 'PingFang SC', 'Microsoft YaHei', Ubuntu, Cantarell, 'Noto Sans', sans-serif" fill="rgba(51,51,51,1.000)" text-anchor="middle" dominant-baseline="hanging">2014</text>
<line x1="235.10" y1="311.00" x2="235.10" y2="317.00" stroke="rgba(51,51,51,1.000)" stroke-width="1.0"/>
<text x="235.10" y="320.00" font-size="13" font-family="Inter, -apple-system, BlinkMacSystemFont, 'Segoe UI', Roboto, Helvetica, Arial, 'PingFang SC', 'Microsoft YaHei', Ubuntu, Cantarell, 'Noto Sans', sans-serif" fill="rgba(51,51,51,1.000)" text-anchor="middle" dominant-baseline="hanging">2016</text>
<line x1="287.06" y1="311.00" x2="287.06" y2="317.00" stroke="rgba(51,51,51,1.000)" stroke-width="1.0"/>
<text x="287.06" y="320.00" font-size="13" font-family="Inter, -apple-system, BlinkMacSystemFont, 'Segoe UI', Roboto, Helvetica, Arial, 'PingFang SC', 'Microsoft YaHei', Ubuntu, Cantarell, 'Noto Sans', sans-serif" fill="rgba(51,51,51,1.000)" text-anchor="middle" dominant-baseline="hanging">2018</text>
<line x1="339.03" y1="311.00" x2="339.03" y2="317.00" stroke="rgba(51,51,51,1.000)" stroke-width="1.0"/>
<text x="339.03" y="320.00" font-size="13" font-family="Inter, -apple-system, BlinkMacSystemFont, 'Segoe UI', Roboto, Helvetica, Arial, 'PingFang SC', 'Microsoft YaHei', Ubuntu, Cantarell, 'Noto Sans', sans-serif" fill="rgba(51,51,51,1.000)" text-anchor="middle" dominant-baseline="hanging">2020</text>
<text x="235.10" y="340.00" text-anchor="middle" font-size="15" font-family="Inter, -apple-system, BlinkMacSystemFont, 'Segoe UI', Roboto, Helvetica, Arial, 'PingFang SC', 'Microsoft YaHei', Ubuntu, Cantarell, 'Noto Sans', sans-serif" fill="rgba(51,51,51,1.000)" font-weight="bold" dominant-baseline="hanging">Year</text>
<line x1="92.20" y1="40.00" x2="92.20" y2="311.00" stroke="rgba(51,51,51,1.000)" stroke-width="1" stroke-linecap="square"/>
<line x1="92.20" y1="311.00" x2="86.20" y2="311.00" stroke="rgba(51,51,51,1.000)" stroke-width="1.0"/>
<text x="82.20" y="311.00" font-size="13" font-family="Inter, -apple-system, BlinkMacSystemFont, 'Segoe UI', Roboto, Helvetica, Arial, 'PingFang SC', 'Microsoft YaHei', Ubuntu, Cantarell, 'Noto Sans', sans-serif" fill="rgba(51,51,51,1.000)" text-anchor="end" dominant-baseline="central">0.0</text>
<line x1="92.20" y1="259.38" x2="86.20" y2="259.38" stroke="rgba(51,51,51,1.000)" stroke-width="1.0"/>
<text x="82.20" y="259.38" font-size="13" font-family="Inter, -apple-system, BlinkMacSystemFont, 'Segoe UI', Roboto, Helvetica, Arial, 'PingFang SC', 'Microsoft YaHei', Ubuntu, Cantarell, 'Noto Sans', sans-serif" fill="rgba(51,51,51,1.000)" text-anchor="end" dominant-baseline="central">0.2</text>
<line x1="92.20" y1="207.76" x2="86.20" y2="207.76" stroke="rgba(51,51,51,1.000)" stroke-width="1.0"/>
<text x="82.20" y="207.76" font-size="13" font-family="Inter, -apple-system, BlinkMacSystemFont, 'Segoe UI', Roboto, Helvetica, Arial, 'PingFang SC', 'Microsoft YaHei', Ubuntu, Cantarell, 'Noto Sans', sans-serif" fill="rgba(51,51,51,1.000)" text-anchor="end" dominant-baseline="central">0.4</text>
<line x1="92.20" y1="156.14" x2="86.20" y2="156.14" stroke="rgba(51,51,51,1.000)" stroke-width="1.0"/>
<text x="82.20" y="156.14" font-size="13" font-family="Inter, -apple-system, BlinkMacSystemFont, 'Segoe UI', Roboto, Helvetica, Arial, 'PingFang SC', 'Microsoft YaHei', Ubuntu, Cantarell, 'Noto Sans', sans-serif" fill="rgba(51,51,51,1.000)" text-anchor="end" dominant-baseline="central">0.6</text>
<line x1="92.20" y1="104.52" x2="86.20" y2="104.52" stroke="rgba(51,51,51,1.000)" stroke-width="1.0"/>
<text x="82.20" y="104.52" font-size="13" font-family="Inter, -apple-system, BlinkMacSystemFont, 'Segoe UI', Roboto, Helvetica, Arial, 'PingFang SC', 'Microsoft YaHei', Ubuntu, Cantarell, 'Noto Sans', sans-serif" fill="rgba(51,51,51,1.000)" text-anchor="end" dominant-baseline="central">0.8</text>
<line x1="92.20" y1="52.90" x2="86.20" y2="52.90" stroke="rgba(51,51,51,1.000)" stroke-width="1.0"/>
<text x="82.20" y="52.90" font-size="13" font-family="Inter, -apple-system, BlinkMacSystemFont, 'Segoe UI', Roboto, Helvetica, Arial, 'PingFang SC', 'Microsoft YaHei', Ubuntu, Cantarell, 'Noto Sans', sans-serif" fill="rgba(51,51,51,1.000)" text-anchor="end" dominant-baseline="central">1.0</text>
<text x="47.50" y="175.50" text-anchor="middle" font-size="15" font-family="Inter, -apple-system, BlinkMacSystemFont, 'Segoe UI', Roboto, Helvetica, Arial, 'PingFang SC', 'Microsoft YaHei', Ubuntu, Cantarell, 'Noto Sans', sans-serif" fill="rgba(51,51,51,1.000)" font-weight="bold" transform="rotate(-90, 47.50, 175.50)" dominant-baseline="middle">Unemployment rate (%)</text>
<defs><clipPath id="plot-clip-area"><rect x="92.200" y="40.000" width="285.800" height="271.000" /></clipPath></defs>
<line x1="92.200" y1="311.000" x2="378.000" y2="311.000" stroke="rgba(136,136,136,1.000)" stroke-width="1.000" stroke-opacity="0.500" stroke-dasharray="4.0,4.0" />
<polygon points="105.191,122.408 131.173,124.324 157.155,128.319 183.136,129.292 209.118,128.671 235.100,121.066 261.082,116.636 287.064,113.290 313.045,109.325 339.027,114.575 365.009,112.522 365.009,173.090 339.027,178.399 313.045,173.385 287.064,179.505 261.082,183.787 235.100,185.618 209.118,186.507 183.136,190.597 157.155,186.050 131.173,180.976 105.191,181.296" fill="rgba(148,103,189,1.000)" stroke="none" stroke-width="0.000" fill-opacity="1.000" stroke-opacity="0.000" clip-path="url(#plot-clip-area)" />
<polygon points="105.191,205.226 131.173,205.199 157.155,210.717 183.136,215.824 209.118,212.437 235.100,211.274 261.082,208.657 287.064,205.847 313.045,201.325 339.027,208.982 365.009,198.724 365.009,227.727 339.027,236.407 313.045,240.688 287.064,235.428 261.082,234.150 235.100,233.265 209.118,235.090 183.136,232.275 157.155,231.307 131.173,227.000 105.191,230.282" fill="rgba(44,160,44,1.000)" stroke="none" stroke-width="0.000" fill-opacity="1.000" stroke-opacity="0.000" clip-path="url(#plot-clip-area)" />
<polygon points="105.191,52.905 131.173,52.905 157.155,52.905 183.136,52.905 209.118,52.905 235.100,52.905 261.082,52.905 287.064,52.905 313.045,52.905 339.027,52.905 365.009,52.905 365.009,85.277 339.027,88.586 313.045,87.251 287.064,89.683 261.082,93.693 235.100,96.668 209.118,96.089 183.136,95.553 157.155,93.680 131.173,87.442 105.191,83.549" fill="rgba(227,119,194,1.000)" stroke="none" stroke-width="0.000" fill-opacity="1.000" stroke-opacity="0.000" clip-path="url(#plot-clip-area)" />
<polygon points="105.191,181.296 131.173,180.976 157.155,186.050 183.136,190.597 209.118,186.507 235.100,185.618 261.082,183.787 287.064,179.505 313.045,173.385 339.027,178.399 365.009,173.090 365.009,198.724 339.027,208.982 313.045,201.325 287.064,205.847 261.082,208.657 235.100,211.274 209.118,212.437 183.136,215.824 157.155,210.717 131.173,205.199 105.191,205.226" fill="rgba(214,39,40,1.000)" stroke="none" stroke-width="0.000" fill-opacity="1.000" stroke-opacity="0.000" clip-path="url(#plot-clip-area)" />
<polygon points="105.191,83.549 131.173,87.442 157.155,93.680 183.136,95.553 209.118,96.089 235.100,96.668 261.082,93.693 287.064,89.683 313.045,87.251 339.027,88.586 365.009,85.277 365.009,112.522 339.027,114.575 313.045,109.325 287.064,113.290 261.082,116.636 235.100,121.066 209.118,128.671 183.136,129.292 157.155,128.319 131.173,124.324 105.191,122.408" fill="rgba(140,86,75,1.000)" stroke="none" stroke-width="0.000" fill-opacity="1.000" stroke-opacity="0.000" clip-path="url(#plot-clip-area)" />
<polygon points="105.191,230.282 131.173,227.000 157.155,231.307 183.136,232.275 209.118,235.090 235.100,233.265 261.082,234.150 287.064,235.428 313.045,240.688 339.027,236.407 365.009,227.727 365.009,276.285 339.027,276.755 313.045,278.892 287.064,276.741 261.082,275.870 235.100,279.053 209.118,282.853 183.136,284.582 157.155,286.737 131.173,287.363 105.191,287.857" fill="rgba(255,127,14,1.000)" stroke="none" stroke-width="0.000" fill-opacity="1.000" stroke-opacity="0.000" clip-path="url(#plot-clip-area)" />
<polygon points="105.191,287.857 131.173,287.363 157.155,286.737 183.136,284.582 209.118,282.853 235.100,279.053 261.082,275.870 287.064,276.741 313.045,278.892 339.027,276.755 365.009,276.285 365.009,311.000 339.027,311.000 313.045,311.000 287.064,311.000 261.082,311.000 235.100,311.000 209.118,311.000 183.136,311.000 157.155,311.000 131.173,311.000 105.191,311.000" fill="rgba(31,119,180,1.000)" stroke="none" stroke-width="0.000" fill-opacity="1.000" stroke-opacity="0.000" clip-path="url(#plot-clip-area)" />
<text x="393.000" y="49.600" font-size="13.2" font-family="Inter, -apple-system, BlinkMacSystemFont, 'Segoe UI', Roboto, Helvetica, Arial, 'PingFang SC', 'Microsoft YaHei', Ubuntu, Cantarell, 'Noto Sans', sans-serif" fill="rgba(51,51,51,1.000)" fill-opacity="1.000" text-anchor="start" font-weight="bold">Country</text>
<circle cx="402.000" cy="69.200" r="5.000" fill="rgba(31,119,180,1.000)" stroke="none" stroke-width="0.000" fill-opacity="1.000" stroke-opacity="1.000" />
<text x="419.000" y="73.700" font-size="12.0" font-family="Inter, -apple-system, BlinkMacSystemFont, 'Segoe UI', Roboto, Helvetica, Arial, 'PingFang SC', 'Microsoft YaHei', Ubuntu, Cantarell, 'Noto Sans', sans-serif" fill="rgba(51,51,51,1.000)" fill-opacity="1.000" text-anchor="start" font-weight="normal">Belarus</text>
<circle cx="402.000" cy="90.200" r="5.000" fill="rgba(255,127,14,1.000)" stroke="none" stroke-width="0.000" fill-opacity="1.000" stroke-opacity="1.000" />
<text x="419.000" y="94.700" font-size="12.0" font-family="Inter, -apple-system, BlinkMacSystemFont, 'Segoe UI', Roboto, Helvetica, Arial, 'PingFang SC', 'Microsoft YaHei', Ubuntu, Cantarell, 'Noto Sans', sans-serif" fill="rgba(51,51,51,1.000)" fill-opacity="1.000" text-anchor="start" font-weight="normal">Ireland</text>
<circle cx="402.000" cy="111.200" r="5.000" fill="rgba(44,160,44,1.000)" stroke="none" stroke-width="0.000" fill-opacity="1.000" stroke-opacity="1.000" />
<text x="419.000" y="115.700" font-size="12.0" font-family="Inter, -apple-system, BlinkMacSystemFont, 'Segoe UI', Roboto, Helvetica, Arial, 'PingFang SC', 'Microsoft YaHei', Ubuntu, Cantarell, 'Noto Sans', sans-serif" fill="rgba(51,51,51,1.000)" fill-opacity="1.000" text-anchor="start" font-weight="normal">Moldova</text>
<circle cx="402.000" cy="132.200" r="5.000" fill="rgba(214,39,40,1.000)" stroke="none" stroke-width="0.000" fill-opacity="1.000" stroke-opacity="1.000" />
<text x="419.000" y="136.700" font-size="12.0" font-family="Inter, -apple-system, BlinkMacSystemFont, 'Segoe UI', Roboto, Helvetica, Arial, 'PingFang SC', 'Microsoft YaHei', Ubuntu, Cantarell, 'Noto Sans', sans-serif" fill="rgba(51,51,51,1.000)" fill-opacity="1.000" text-anchor="start" font-weight="normal">Malta</text>
<circle cx="402.000" cy="153.200" r="5.000" fill="rgba(148,103,189,1.000)" stroke="none" stroke-width="0.000" fill-opacity="1.000" stroke-opacity="1.000" />
<text x="419.000" y="157.700" font-size="12.0" font-family="Inter, -apple-system, BlinkMacSystemFont, 'Segoe UI', Roboto, Helvetica, Arial, 'PingFang SC', 'Microsoft YaHei', Ubuntu, Cantarell, 'Noto Sans', sans-serif" fill="rgba(51,51,51,1.000)" fill-opacity="1.000" text-anchor="start" font-weight="normal">Puerto Rico</text>
<circle cx="402.000" cy="174.200" r="5.000" fill="rgba(140,86,75,1.000)" stroke="none" stroke-width="0.000" fill-opacity="1.000" stroke-opacity="1.000" />
<text x="419.000" y="178.700" font-size="12.0" font-family="Inter, -apple-system, BlinkMacSystemFont, 'Segoe UI', Roboto, Helvetica, Arial, 'PingFang SC', 'Microsoft YaHei', Ubuntu, Cantarell, 'Noto Sans', sans-serif" fill="rgba(51,51,51,1.000)" fill-opacity="1.000" text-anchor="start" font-weight="normal">Senegal</text>
<circle cx="402.000" cy="195.200" r="5.000" fill="rgba(227,119,194,1.000)" stroke="none" stroke-width="0.000" fill-opacity="1.000" stroke-opacity="1.000" />
<text x="419.000" y="199.700" font-size="12.0" font-family="Inter, -apple-system, BlinkMacSystemFont, 'Segoe UI', Roboto, Helvetica, Arial, 'PingFang SC', 'Microsoft YaHei', Ubuntu, Cantarell, 'Noto Sans', sans-serif" fill="rgba(51,51,51,1.000)" fill-opacity="1.000" text-anchor="start" font-weight="normal">Slovenia</text>
</svg>