<svg width="500" height="400" viewBox="0 0 500 400" xmlns="http://www.w3.org/2000/svg"><rect width="100%" height="100%" fill="rgba(255,255,255,1.000)" /><circle cx="255.36" cy="188.00" r="148.00" fill="none" stroke="rgba(189,189,189,1.000)" stroke-width="1.00" opacity="0.5"/>
<line x1="255.36" y1="188.00" x2="255.36" y2="336.00" stroke="rgba(189,189,189,1.000)" stroke-width="1.00" opacity="0.5"/>
<text x="255.36" y="341.00" font-size="13" font-family="Inter, -apple-system, BlinkMacSystemFont, 'Segoe UI', Roboto, Helvetica, Arial, 'PingFang SC', 'Microsoft YaHei', Ubuntu, Cantarell, 'Noto Sans', sans-serif" fill="rgba(51,51,51,1.000)" text-anchor="middle" dominant-baseline="hanging">all</text>
<defs><clipPath id="plot-clip-area"><rect x="92.200" y="40.000" width="326.320" height="296.000" /></clipPath></defs>
<polygon points="255.360,188.000 255.360,40.000 264.296,40.270 273.199,41.079 282.038,42.424 290.779,44.301 299.390,46.701 307.842,49.618 316.101,53.039 324.139,56.953 331.926,61.344 339.434,66.198 346.634,71.497 353.502,77.220 360.012,83.348 366.140,89.858 371.863,96.726 377.162,103.926 382.016,111.434 386.408,119.221 390.321,127.259 393.742,135.518 255.360,188.000 255.360,188.000 255.360,188.000 255.360,188.000 255.360,188.000 255.360,188.000 255.360,188.000 255.360,188.000 255.360,188.000 255.360,188.000 255.360,188.000 255.360,188.000 255.360,188.000 255.360,188.000 255.360,188.000 255.360,188.000 255.360,188.000 255.360,188.000 255.360,188.000 255.360,188.000" fill="rgba(31,119,180,1.000)" stroke="rgba(224,224,224,1.000)" stroke-width="0.500" fill-opacity="1.000" stroke-opacity="1.000" clip-path="url(#plot-clip-area)" />
<text x="297.397" y="127.099" font-size="12.0" font-family="Inter, -apple-system, BlinkMacSystemFont, 'Segoe UI', Roboto, Helvetica, Arial, 'PingFang SC', 'Microsoft YaHei', Ubuntu, Cantarell, 'Noto Sans', sans-serif" fill="rgba(255,255,255,1.000)" fill-opacity="1.000" text-anchor="middle" font-weight="bold">19.2%</text>
<polygon points="255.360,188.000 393.742,135.518 396.659,143.970 399.059,152.581 400.936,161.322 402.281,170.161 403.090,179.064 403.360,188.000 403.090,196.936 402.281,205.839 400.936,214.678 399.059,223.419 396.659,232.030 393.742,240.482 390.321,248.741 386.408,256.779 382.016,264.566 377.162,272.074 371.863,279.274 366.140,286.142 360.012,292.652 353.502,298.780 346.634,304.503 339.434,309.802 331.926,314.656 324.139,319.047 255.360,188.000 255.360,188.000 255.360,188.000 255.360,188.000 255.360,188.000 255.360,188.000 255.360,188.000 255.360,188.000 255.360,188.000 255.360,188.000 255.360,188.000 255.360,188.000 255.360,188.000 255.360,188.000 255.360,188.000 255.360,188.000 255.360,188.000 255.360,188.000 255.360,188.000 255.360,188.000 255.360,188.000 255.360,188.000 255.360,188.000 255.360,188.000" fill="rgba(255,127,14,1.000)" stroke="rgba(224,224,224,1.000)" stroke-width="0.500" fill-opacity="1.000" stroke-opacity="1.000" clip-path="url(#plot-clip-area)" />
<text x="324.551" y="214.241" font-size="12.0" font-family="Inter, -apple-system, BlinkMacSystemFont, 'Segoe UI', Roboto, Helvetica, Arial, 'PingFang SC', 'Microsoft YaHei', Ubuntu, Cantarell, 'Noto Sans', sans-serif" fill="rgba(255,255,255,1.000)" fill-opacity="1.000" text-anchor="middle" font-weight="bold">23.1%</text>
<polygon points="255.360,188.000 324.139,319.047 316.101,322.961 307.842,326.382 299.390,329.299 290.779,331.699 282.038,333.576 273.199,334.921 264.296,335.730 255.360,336.000 246.424,335.730 237.521,334.921 228.682,333.576 219.941,331.699 255.360,188.000 255.360,188.000 255.360,188.000 255.360,188.000 255.360,188.000 255.360,188.000 255.360,188.000 255.360,188.000 255.360,188.000 255.360,188.000 255.360,188.000 255.360,188.000" fill="rgba(44,160,44,1.000)" stroke="rgba(224,224,224,1.000)" stroke-width="0.500" fill-opacity="1.000" stroke-opacity="1.000" clip-path="url(#plot-clip-area)" />
<text x="264.280" y="261.460" font-size="12.0" font-family="Inter, -apple-system, BlinkMacSystemFont, 'Segoe UI', Roboto, Helvetica, Arial, 'PingFang SC', 'Microsoft YaHei', Ubuntu, Cantarell, 'Noto Sans', sans-serif" fill="rgba(255,255,255,1.000)" fill-opacity="1.000" text-anchor="middle" font-weight="bold">11.5%</text>
<polygon points="255.360,188.000 219.941,331.699 211.054,329.213 202.339,326.177 193.831,322.604 185.561,318.507 177.563,313.904 169.868,308.810 162.505,303.247 155.503,297.236 148.889,290.800 142.689,283.965 136.927,276.756 131.626,269.202 126.805,261.333 122.485,253.178 118.681,244.770 115.409,236.142 112.680,227.326 110.507,218.357 108.896,209.270 107.856,200.101 107.388,190.884 107.496,181.656 108.179,172.453 109.434,163.311 111.256,154.264 113.639,145.348 116.573,136.599 120.046,128.049 124.045,119.732 128.555,111.681 133.558,103.926 255.360,188.000 255.360,188.000 255.360,188.000 255.360,188.000 255.360,188.000 255.360,188.000 255.360,188.000 255.360,188.000 255.360,188.000 255.360,188.000 255.360,188.000 255.360,188.000 255.360,188.000 255.360,188.000 255.360,188.000 255.360,188.000 255.360,188.000 255.360,188.000 255.360,188.000 255.360,188.000 255.360,188.000 255.360,188.000 255.360,188.000 255.360,188.000 255.360,188.000 255.360,188.000 255.360,188.000 255.360,188.000 255.360,188.000 255.360,188.000 255.360,188.000" fill="rgba(214,39,40,1.000)" stroke="rgba(224,224,224,1.000)" stroke-width="0.500" fill-opacity="1.000" stroke-opacity="1.000" clip-path="url(#plot-clip-area)" />
<text x="186.169" y="214.241" font-size="12.0" font-family="Inter, -apple-system, BlinkMacSystemFont, 'Segoe UI', Roboto, Helvetica, Arial, 'PingFang SC', 'Microsoft YaHei', Ubuntu, Cantarell, 'Noto Sans', sans-serif" fill="rgba(255,255,255,1.000)" fill-opacity="1.000" text-anchor="middle" font-weight="bold">30.8%</text>
<polygon points="255.360,188.000 133.558,103.926 138.857,96.726 144.580,89.858 150.708,83.348 157.218,77.220 164.086,71.497 171.286,66.198 178.794,61.344 186.581,56.953 194.619,53.039 202.878,49.618 211.330,46.701 219.941,44.301 228.682,42.424 237.521,41.079 246.424,40.270 255.360,40.000 255.360,188.000 255.360,188.000 255.360,188.000 255.360,188.000 255.360,188.000 255.360,188.000 255.360,188.000 255.360,188.000 255.360,188.000 255.360,188.000 255.360,188.000 255.360,188.000 255.360,188.000 255.360,188.000 255.360,188.000 255.360,188.000" fill="rgba(148,103,189,1.000)" stroke="rgba(224,224,224,1.000)" stroke-width="0.500" fill-opacity="1.000" stroke-opacity="1.000" clip-path="url(#plot-clip-area)" />
<text x="220.970" y="122.476" font-size="12.0" font-family="Inter, -apple-system, BlinkMacSystemFont, 'Segoe UI', Roboto, Helvetica, Arial, 'PingFang SC', 'Microsoft YaHei', Ubuntu, Cantarell, 'Noto Sans', sans-serif" fill="rgba(255,255,255,1.000)" fill-opacity="1.000" text-anchor="middle" font-weight="bold">15.4%</text>
<text x="433.520" y="49.600" font-size="13.2" font-family="Inter, -apple-system, BlinkMacSystemFont, 'Segoe UI', Roboto, Helvetica, Arial, 'PingFang SC', 'Microsoft YaHei', Ubuntu, Cantarell, 'Noto Sans', sans-serif" fill="rgba(51,51,51,1.000)" fill-opacity="1.000" text-anchor="start" font-weight="bold">category</text>
<circle cx="442.520" cy="69.200" r="5.000" fill="rgba(31,119,180,1.000)" stroke="none" stroke-width="0.000" fill-opacity="1.000" stroke-opacity="1.000" />
<text x="459.520" y="73.700" font-size="12.0" font-family="Inter, -apple-system, BlinkMacSystemFont, 'Segoe UI', Roboto, Helvetica, Arial, 'PingFang SC', 'Microsoft YaHei', Ubuntu, Cantarell, 'Noto Sans', sans-serif" fill="rgba(51,51,51,1.000)" fill-opacity="1.000" text-anchor="start" font-weight="normal">A</text>
<circle cx="442.520" cy="90.200" r="5.000" fill="rgba(255,127,14,1.000)" stroke="none" stroke-width="0.000" fill-opacity="1.000" stroke-opacity="1.000" />
<text x="459.520" y="94.700" font-size="12.0" font-family="Inter, -apple-system, BlinkMacSystemFont, 'Segoe UI', Roboto, Helvetica, Arial, 'PingFang SC', 'Microsoft YaHei', Ubuntu, Cantarell, 'Noto Sans', sans-serif" fill="rgba(51,51,51,1.000)" fill-opacity="1.000" text-anchor="start" font-weight="normal">B</text>
<circle cx="442.520" cy="111.200" r="5.000" fill="rgba(44,160,44,1.000)" stroke="none" stroke-width="0.000" fill-opacity="1.000" stroke-opacity="1.000" />
<text x="459.520" y="115.700" font-size="12.0" font-family="Inter, -apple-system, BlinkMacSystemFont, 'Segoe UI', Roboto, Helvetica, Arial, 'PingFang SC', 'Microsoft YaHei', Ubuntu, Cantarell, 'Noto Sans', sans-serif" fill="rgba(51,51,51,1.000)" fill-opacity="1.000" text-anchor="start" font-weight="normal">C</text>
<circle cx="442.520" cy="132.200" r="5.000" fill="rgba(214,39,40,1.000)" stroke="none" stroke-width="0.000" fill-opacity="1.000" stroke-opacity="1.000" />
<text x="459.520" y="136.700" font-size="12.0" font-family="Inter, -apple-system, BlinkMacSystemFont, 'Segoe UI', Roboto, Helvetica, Arial, 'PingFang SC', 'Microsoft YaHei', Ubuntu, Cantarell, 'Noto Sans', sans-serif" fill="rgba(51,51,51,1.000)" fill-opacity="1.000" text-anchor="start" font-weight="normal">E</text>
<circle cx="442.520" cy="153.200" r="5.000" fill="rgba(148,103,189,1.000)" stroke="none" stroke-width="0.000" fill-opacity="1.000" stroke-opacity="1.000" />
<text x="459.520" y="157.700" font-size="12.0" font-family="Inter, -apple-system, BlinkMacSystemFont, 'Segoe UI', Roboto, Helvetica, Arial, 'PingFang SC', 'Microsoft YaHei', Ubuntu, Cantarell, 'Noto Sans', sans-serif" fill="rgba(51,51,51,1.000)" fill-opacity="1.000" text-anchor="start" font-weight="normal">D</text>
</svg>