<svg width="500" height="400" viewBox="0 0 500 400" xmlns="http://www.w3.org/2000/svg"><rect x="0.000" y="0.000" width="500.000" height="400.000" fill="rgba(255,255,255,1.000)" stroke="none" stroke-width="0.000" fill-opacity="1.000" stroke-opacity="1.000" />
<defs><clipPath id="plot-clip-area"><rect x="92.200" y="40.000" width="326.320" height="296.000" /></clipPath></defs>
<g clip-path="url(#plot-clip-area)">
<path d="M 255.360 188.000 L 255.360 40.000 L 264.296 40.270 L 273.199 41.079 L 282.038 42.424 L 290.779 44.301 L 299.390 46.701 L 307.842 49.618 L 316.101 53.039 L 324.139 56.953 L 331.926 61.344 L 339.434 66.198 L 346.634 71.497 L 353.502 77.220 L 360.012 83.348 L 366.140 89.858 L 371.863 96.726 L 377.162 103.926 L 382.016 111.434 L 386.408 119.221 L 390.321 127.259 L 393.742 135.518 L 255.360 188.000 L 255.360 188.000 L 255.360 188.000 L 255.360 188.000 L 255.360 188.000 L 255.360 188.000 L 255.360 188.000 L 255.360 188.000 L 255.360 188.000 L 255.360 188.000 L 255.360 188.000 L 255.360 188.000 L 255.360 188.000 L 255.360 188.000 L 255.360 188.000 L 255.360 188.000 L 255.360 188.000 L 255.360 188.000 L 255.360 188.000 L 255.360 188.000 Z" fill="rgba(31,119,180,1.000)" fill-opacity="1.000" stroke="rgba(224,224,224,1.000)" stroke-width="0.500" stroke-opacity="1.000" stroke-linejoin="round" stroke-linecap="round" />
<text x="297.397" y="127.099" font-size="12.0" font-family="Inter, -apple-system, BlinkMacSystemFont, 'Segoe UI', Roboto, Helvetica, Arial, 'PingFang SC', 'Microsoft YaHei', Ubuntu, Cantarell, 'Noto Sans', sans-serif" fill="rgba(255,255,255,1.000)" fill-opacity="1.000" text-anchor="middle" font-weight="bold" dominant-baseline="middle" transform="rotate(0 297.397 127.099)">19.2%</text>
<path d="M 255.360 188.000 L 393.742 135.518 L 396.659 143.970 L 399.059 152.581 L 400.936 161.322 L 402.281 170.161 L 403.090 179.064 L 403.360 188.000 L 403.090 196.936 L 402.281 205.839 L 400.936 214.678 L 399.059 223.419 L 396.659 232.030 L 393.742 240.482 L 390.321 248.741 L 386.408 256.779 L 382.016 264.566 L 377.162 272.074 L 371.863 279.274 L 366.140 286.142 L 360.012 292.652 L 353.502 298.780 L 346.634 304.503 L 339.434 309.802 L 331.926 314.656 L 324.139 319.047 L 255.360 188.000 L 255.360 188.000 L 255.360 188.000 L 255.360 188.000 L 255.360 188.000 L 255.360 188.000 L 255.360 188.000 L 255.360 188.000 L 255.360 188.000 L 255.360 188.000 L 255.360 188.000 L 255.360 188.000 L 255.360 188.000 L 255.360 188.000 L 255.360 188.000 L 255.360 188.000 L 255.360 188.000 L 255.360 188.000 L 255.360 188.000 L 255.360 188.000 L 255.360 188.000 L 255.360 188.000 L 255.360 188.000 L 255.360 188.000 Z" fill="rgba(255,127,14,1.000)" fill-opacity="1.000" stroke="rgba(224,224,224,1.000)" stroke-width="0.500" stroke-opacity="1.000" stroke-linejoin="round" stroke-linecap="round" />
<text x="324.551" y="214.241" font-size="12.0" font-family="Inter, -apple-system, BlinkMacSystemFont, 'Segoe UI', Roboto, Helvetica, Arial, 'PingFang SC', 'Microsoft YaHei', Ubuntu, Cantarell, 'Noto Sans', sans-serif" fill="rgba(255,255,255,1.000)" fill-opacity="1.000" text-anchor="middle" font-weight="bold" dominant-baseline="middle" transform="rotate(0 324.551 214.241)">23.1%</text>
<path d="M 255.360 188.000 L 324.139 319.047 L 316.101 322.961 L 307.842 326.382 L 299.390 329.299 L 290.779 331.699 L 282.038 333.576 L 273.199 334.921 L 264.296 335.730 L 255.360 336.000 L 246.424 335.730 L 237.521 334.921 L 228.682 333.576 L 219.941 331.699 L 255.360 188.000 L 255.360 188.000 L 255.360 188.000 L 255.360 188.000 L 255.360 188.000 L 255.360 188.000 L 255.360 188.000 L 255.360 188.000 L 255.360 188.000 L 255.360 188.000 L 255.360 188.000 L 255.360 188.000 Z" fill="rgba(44,160,44,1.000)" fill-opacity="1.000" stroke="rgba(224,224,224,1.000)" stroke-width="0.500" stroke-opacity="1.000" stroke-linejoin="round" stroke-linecap="round" />
<text x="264.280" y="261.460" font-size="12.0" font-family="Inter, -apple-system, BlinkMacSystemFont, 'Segoe UI', Roboto, Helvetica, Arial, 'PingFang SC', 'Microsoft YaHei', Ubuntu, Cantarell, 'Noto Sans', sans-serif" fill="rgba(255,255,255,1.000)" fill-opacity="1.000" text-anchor="middle" font-weight="bold" dominant-baseline="middle" transform="rotate(0 264.280 261.460)">11.5%</text>
<path d="M 255.360 188.000 L 219.941 331.699 L 211.054 329.213 L 202.339 326.177 L 193.831 322.604 L 185.561 318.507 L 177.563 313.904 L 169.868 308.810 L 162.505 303.247 L 155.503 297.236 L 148.889 290.800 L 142.689 283.965 L 136.927 276.756 L 131.626 269.202 L 126.805 261.333 L 122.485 253.178 L 118.681 244.770 L 115.409 236.142 L 112.680 227.326 L 110.507 218.357 L 108.896 209.270 L 107.856 200.101 L 107.388 190.884 L 107.496 181.656 L 108.179 172.453 L 109.434 163.311 L 111.256 154.264 L 113.639 145.348 L 116.573 136.599 L 120.046 128.049 L 124.045 119.732 L 128.555 111.681 L 133.558 103.926 L 255.360 188.000 L 255.360 188.000 L 255.360 188.000 L 255.360 188.000 L 255.360 188.000 L 255.360 188.000 L 255.360 188.000 L 255.360 188.000 L 255.360 188.000 L 255.360 188.000 L 255.360 188.000 L 255.360 188.000 L 255.360 188.000 L 255.360 188.000 L 255.360 188.000 L 255.360 188.000 L 255.360 188.000 L 255.360 188.000 L 255.360 188.000 L 255.360 188.000 L 255.360 188.000 L 255.360 188.000 L 255.360 188.000 L 255.360 188.000 L 255.360 188.000 L 255.360 188.000 L 255.360 188.000 L 255.360 188.000 L 255.360 188.000 L 255.360 188.000 L 255.360 188.000 Z" fill="rgba(214,39,40,1.000)" fill-opacity="1.000" stroke="rgba(224,224,224,1.000)" stroke-width="0.500" stroke-opacity="1.000" stroke-linejoin="round" stroke-linecap="round" />
<text x="186.169" y="214.241" font-size="12.0" font-family="Inter, -apple-system, BlinkMacSystemFont, 'Segoe UI', Roboto, Helvetica, Arial, 'PingFang SC', 'Microsoft YaHei', Ubuntu, Cantarell, 'Noto Sans', sans-serif" fill="rgba(255,255,255,1.000)" fill-opacity="1.000" text-anchor="middle" font-weight="bold" dominant-baseline="middle" transform="rotate(0 186.169 214.241)">30.8%</text>
<path d="M 255.360 188.000 L 133.558 103.926 L 138.857 96.726 L 144.580 89.858 L 150.708 83.348 L 157.218 77.220 L 164.086 71.497 L 171.286 66.198 L 178.794 61.344 L 186.581 56.953 L 194.619 53.039 L 202.878 49.618 L 211.330 46.701 L 219.941 44.301 L 228.682 42.424 L 237.521 41.079 L 246.424 40.270 L 255.360 40.000 L 255.360 188.000 L 255.360 188.000 L 255.360 188.000 L 255.360 188.000 L 255.360 188.000 L 255.360 188.000 L 255.360 188.000 L 255.360 188.000 L 255.360 188.000 L 255.360 188.000 L 255.360 188.000 L 255.360 188.000 L 255.360 188.000 L 255.360 188.000 L 255.360 188.000 L 255.360 188.000 Z" fill="rgba(148,103,189,1.000)" fill-opacity="1.000" stroke="rgba(224,224,224,1.000)" stroke-width="0.500" stroke-opacity="1.000" stroke-linejoin="round" stroke-linecap="round" />
<text x="220.970" y="122.476" font-size="12.0" font-family="Inter, -apple-system, BlinkMacSystemFont, 'Segoe UI', Roboto, Helvetica, Arial, 'PingFang SC', 'Microsoft YaHei', Ubuntu, Cantarell, 'Noto Sans', sans-serif" fill="rgba(255,255,255,1.000)" fill-opacity="1.000" text-anchor="middle" font-weight="bold" dominant-baseline="middle" transform="rotate(0 220.970 122.476)">15.4%</text>
</g>
<circle cx="255.360" cy="188.000" r="148.000" fill="none" stroke="rgba(189,189,189,1.000)" stroke-width="1.000" fill-opacity="0.500" stroke-opacity="0.500" />
<text x="433.520" y="46.000" font-size="13.2" font-family="Inter, -apple-system, BlinkMacSystemFont, 'Segoe UI', Roboto, Helvetica, Arial, 'PingFang SC', 'Microsoft YaHei', Ubuntu, Cantarell, 'Noto Sans', sans-serif" fill="rgba(51,51,51,1.000)" fill-opacity="1.000" text-anchor="start" font-weight="bold" dominant-baseline="central" transform="rotate(0 433.520 46.000)">category</text>
<circle cx="442.520" cy="69.200" r="5.000" fill="rgba(31,119,180,1.000)" stroke="none" stroke-width="0.000" fill-opacity="1.000" stroke-opacity="1.000" />
<text x="459.520" y="69.200" font-size="12.0" font-family="Inter, -apple-system, BlinkMacSystemFont, 'Segoe UI', Roboto, Helvetica, Arial, 'PingFang SC', 'Microsoft YaHei', Ubuntu, Cantarell, 'Noto Sans', sans-serif" fill="rgba(51,51,51,1.000)" fill-opacity="1.000" text-anchor="start" font-weight="normal" dominant-baseline="central" transform="rotate(0 459.520 69.200)">A</text>
<circle cx="442.520" cy="90.200" r="5.000" fill="rgba(255,127,14,1.000)" stroke="none" stroke-width="0.000" fill-opacity="1.000" stroke-opacity="1.000" />
<text x="459.520" y="90.200" font-size="12.0" font-family="Inter, -apple-system, BlinkMacSystemFont, 'Segoe UI', Roboto, Helvetica, Arial, 'PingFang SC', 'Microsoft YaHei', Ubuntu, Cantarell, 'Noto Sans', sans-serif" fill="rgba(51,51,51,1.000)" fill-opacity="1.000" text-anchor="start" font-weight="normal" dominant-baseline="central" transform="rotate(0 459.520 90.200)">B</text>
<circle cx="442.520" cy="111.200" r="5.000" fill="rgba(44,160,44,1.000)" stroke="none" stroke-width="0.000" fill-opacity="1.000" stroke-opacity="1.000" />
<text x="459.520" y="111.200" font-size="12.0" font-family="Inter, -apple-system, BlinkMacSystemFont, 'Segoe UI', Roboto, Helvetica, Arial, 'PingFang SC', 'Microsoft YaHei', Ubuntu, Cantarell, 'Noto Sans', sans-serif" fill="rgba(51,51,51,1.000)" fill-opacity="1.000" text-anchor="start" font-weight="normal" dominant-baseline="central" transform="rotate(0 459.520 111.200)">C</text>
<circle cx="442.520" cy="132.200" r="5.000" fill="rgba(214,39,40,1.000)" stroke="none" stroke-width="0.000" fill-opacity="1.000" stroke-opacity="1.000" />
<text x="459.520" y="132.200" font-size="12.0" font-family="Inter, -apple-system, BlinkMacSystemFont, 'Segoe UI', Roboto, Helvetica, Arial, 'PingFang SC', 'Microsoft YaHei', Ubuntu, Cantarell, 'Noto Sans', sans-serif" fill="rgba(51,51,51,1.000)" fill-opacity="1.000" text-anchor="start" font-weight="normal" dominant-baseline="central" transform="rotate(0 459.520 132.200)">E</text>
<circle cx="442.520" cy="153.200" r="5.000" fill="rgba(148,103,189,1.000)" stroke="none" stroke-width="0.000" fill-opacity="1.000" stroke-opacity="1.000" />
<text x="459.520" y="153.200" font-size="12.0" font-family="Inter, -apple-system, BlinkMacSystemFont, 'Segoe UI', Roboto, Helvetica, Arial, 'PingFang SC', 'Microsoft YaHei', Ubuntu, Cantarell, 'Noto Sans', sans-serif" fill="rgba(51,51,51,1.000)" fill-opacity="1.000" text-anchor="start" font-weight="normal" dominant-baseline="central" transform="rotate(0 459.520 153.200)">D</text>
</svg>