<svg width="500" height="400" viewBox="0 0 500 400" xmlns="http://www.w3.org/2000/svg"><rect width="100%" height="100%" fill="rgba(255,255,255,1.000)" /><circle cx="260.62" cy="175.50" r="135.50" fill="none" stroke="rgba(189,189,189,1.000)" stroke-width="1.00" opacity="0.5"/>
<text x="260.62" y="35.00" font-size="12" font-family="Inter, -apple-system, BlinkMacSystemFont, 'Segoe UI', Roboto, Helvetica, Arial, 'PingFang SC', 'Microsoft YaHei', Ubuntu, Cantarell, 'Noto Sans', sans-serif" fill="rgba(51,51,51,1.000)" text-anchor="middle" dominant-baseline="auto" opacity="0.9">12</text>
<line x1="260.62" y1="175.50" x2="328.38" y2="58.15" stroke="rgba(189,189,189,1.000)" stroke-width="1.00" opacity="0.5"/>
<text x="330.88" y="53.82" font-size="13" font-family="Inter, -apple-system, BlinkMacSystemFont, 'Segoe UI', Roboto, Helvetica, Arial, 'PingFang SC', 'Microsoft YaHei', Ubuntu, Cantarell, 'Noto Sans', sans-serif" fill="rgba(51,51,51,1.000)" text-anchor="start" dominant-baseline="auto">A</text>
<line x1="260.62" y1="175.50" x2="396.12" y2="175.50" stroke="rgba(189,189,189,1.000)" stroke-width="1.00" opacity="0.5"/>
<text x="401.12" y="175.50" font-size="13" font-family="Inter, -apple-system, BlinkMacSystemFont, 'Segoe UI', Roboto, Helvetica, Arial, 'PingFang SC', 'Microsoft YaHei', Ubuntu, Cantarell, 'Noto Sans', sans-serif" fill="rgba(51,51,51,1.000)" text-anchor="start" dominant-baseline="middle">B</text>
<line x1="260.62" y1="175.50" x2="328.38" y2="292.85" stroke="rgba(189,189,189,1.000)" stroke-width="1.00" opacity="0.5"/>
<text x="330.88" y="297.18" font-size="13" font-family="Inter, -apple-system, BlinkMacSystemFont, 'Segoe UI', Roboto, Helvetica, Arial, 'PingFang SC', 'Microsoft YaHei', Ubuntu, Cantarell, 'Noto Sans', sans-serif" fill="rgba(51,51,51,1.000)" text-anchor="start" dominant-baseline="hanging">C</text>
<line x1="260.62" y1="175.50" x2="192.87" y2="292.85" stroke="rgba(189,189,189,1.000)" stroke-width="1.00" opacity="0.5"/>
<text x="190.37" y="297.18" font-size="13" font-family="Inter, -apple-system, BlinkMacSystemFont, 'Segoe UI', Roboto, Helvetica, Arial, 'PingFang SC', 'Microsoft YaHei', Ubuntu, Cantarell, 'Noto Sans', sans-serif" fill="rgba(51,51,51,1.000)" text-anchor="end" dominant-baseline="hanging">D</text>
<line x1="260.62" y1="175.50" x2="125.12" y2="175.50" stroke="rgba(189,189,189,1.000)" stroke-width="1.00" opacity="0.5"/>
<text x="120.12" y="175.50" font-size="13" font-family="Inter, -apple-system, BlinkMacSystemFont, 'Segoe UI', Roboto, Helvetica, Arial, 'PingFang SC', 'Microsoft YaHei', Ubuntu, Cantarell, 'Noto Sans', sans-serif" fill="rgba(51,51,51,1.000)" text-anchor="end" dominant-baseline="middle">E</text>
<line x1="260.62" y1="175.50" x2="192.87" y2="58.15" stroke="rgba(189,189,189,1.000)" stroke-width="1.00" opacity="0.5"/>
<text x="190.37" y="53.82" font-size="13" font-family="Inter, -apple-system, BlinkMacSystemFont, 'Segoe UI', Roboto, Helvetica, Arial, 'PingFang SC', 'Microsoft YaHei', Ubuntu, Cantarell, 'Noto Sans', sans-serif" fill="rgba(51,51,51,1.000)" text-anchor="end" dominant-baseline="auto">F</text>
<defs><clipPath id="plot-clip-area"><rect x="85.050" y="40.000" width="351.150" height="271.000" /></clipPath></defs>
<polygon points="260.625,175.500 260.625,107.961 264.783,108.089 268.925,108.473 273.035,109.111 277.099,110.001 281.100,111.139 285.023,112.522 288.854,114.143 292.577,115.997 296.180,118.077 299.647,120.375 302.967,122.881 306.126,125.588 309.112,128.484 311.915,131.558 314.522,134.798 316.926,138.194 319.116,141.730 260.625,175.500 260.625,175.500 260.625,175.500 260.625,175.500 260.625,175.500 260.625,175.500 260.625,175.500 260.625,175.500 260.625,175.500 260.625,175.500 260.625,175.500 260.625,175.500 260.625,175.500 260.625,175.500 260.625,175.500 260.625,175.500 260.625,175.500" fill="rgba(31,119,180,1.000)" stroke="rgba(224,224,224,1.000)" stroke-width="0.500" fill-opacity="1.000" stroke-opacity="1.000" clip-path="url(#plot-clip-area)" />
<polygon points="260.625,175.500 375.143,109.383 378.996,116.558 382.400,123.957 385.343,131.551 387.811,139.312 389.798,147.211 391.295,155.216 392.295,163.299 392.797,171.428 392.797,179.572 392.295,187.701 391.295,195.784 389.798,203.789 387.811,211.688 385.343,219.449 382.400,227.043 378.996,234.442 375.143,241.617 260.625,175.500 260.625,175.500 260.625,175.500 260.625,175.500 260.625,175.500 260.625,175.500 260.625,175.500 260.625,175.500 260.625,175.500 260.625,175.500 260.625,175.500 260.625,175.500 260.625,175.500 260.625,175.500 260.625,175.500 260.625,175.500 260.625,175.500" fill="rgba(255,127,14,1.000)" stroke="rgba(224,224,224,1.000)" stroke-width="0.500" fill-opacity="1.000" stroke-opacity="1.000" clip-path="url(#plot-clip-area)" />
<polygon points="260.625,175.500 329.832,215.457 327.241,219.641 324.397,223.659 321.312,227.493 317.996,231.131 314.462,234.557 310.725,237.759 306.797,240.725 302.694,243.444 298.432,245.905 294.026,248.099 289.493,250.017 284.851,251.653 280.117,253.000 275.309,254.053 270.445,254.808 265.545,255.262 260.625,255.414 260.625,175.500 260.625,175.500 260.625,175.500 260.625,175.500 260.625,175.500 260.625,175.500 260.625,175.500 260.625,175.500 260.625,175.500 260.625,175.500 260.625,175.500 260.625,175.500 260.625,175.500 260.625,175.500 260.625,175.500 260.625,175.500 260.625,175.500" fill="rgba(44,160,44,1.000)" stroke="rgba(224,224,224,1.000)" stroke-width="0.500" fill-opacity="1.000" stroke-opacity="1.000" clip-path="url(#plot-clip-area)" />
<polygon points="260.625,175.500 260.625,297.570 253.110,297.338 245.624,296.645 238.195,295.491 230.850,293.883 223.619,291.826 216.528,289.327 209.605,286.396 202.874,283.045 196.363,279.286 190.096,275.133 184.096,270.602 178.387,265.711 172.990,260.477 167.924,254.921 163.211,249.064 158.867,242.927 154.909,236.535 260.625,175.500 260.625,175.500 260.625,175.500 260.625,175.500 260.625,175.500 260.625,175.500 260.625,175.500 260.625,175.500 260.625,175.500 260.625,175.500 260.625,175.500 260.625,175.500 260.625,175.500 260.625,175.500 260.625,175.500 260.625,175.500 260.625,175.500" fill="rgba(214,39,40,1.000)" stroke="rgba(224,224,224,1.000)" stroke-width="0.500" fill-opacity="1.000" stroke-opacity="1.000" clip-path="url(#plot-clip-area)" />
<polygon points="260.625,175.500 207.231,206.327 205.434,202.982 203.847,199.532 202.475,195.991 201.324,192.373 200.398,188.690 199.700,184.957 199.233,181.189 199.000,177.399 199.000,173.601 199.233,169.811 199.700,166.043 200.398,162.310 201.324,158.627 202.475,155.009 203.847,151.468 205.434,148.018 207.231,144.673 260.625,175.500 260.625,175.500 260.625,175.500 260.625,175.500 260.625,175.500 260.625,175.500 260.625,175.500 260.625,175.500 260.625,175.500 260.625,175.500 260.625,175.500 260.625,175.500 260.625,175.500 260.625,175.500 260.625,175.500 260.625,175.500 260.625,175.500" fill="rgba(148,103,189,1.000)" stroke="rgba(224,224,224,1.000)" stroke-width="0.500" fill-opacity="1.000" stroke-opacity="1.000" clip-path="url(#plot-clip-area)" />
<polygon points="260.625,175.500 171.279,123.916 174.624,118.514 178.295,113.327 182.279,108.377 186.560,103.681 191.121,99.258 195.947,95.124 201.017,91.295 206.314,87.785 211.817,84.608 217.505,81.776 223.356,79.299 229.349,77.187 235.461,75.448 241.668,74.089 247.947,73.114 254.274,72.528 260.625,72.332 260.625,175.500 260.625,175.500 260.625,175.500 260.625,175.500 260.625,175.500 260.625,175.500 260.625,175.500 260.625,175.500 260.625,175.500 260.625,175.500 260.625,175.500 260.625,175.500 260.625,175.500 260.625,175.500 260.625,175.500 260.625,175.500 260.625,175.500" fill="rgba(140,86,75,1.000)" stroke="rgba(224,224,224,1.000)" stroke-width="0.500" fill-opacity="1.000" stroke-opacity="1.000" clip-path="url(#plot-clip-area)" />
<text x="451.200" y="49.600" font-size="13.2" font-family="Inter, -apple-system, BlinkMacSystemFont, 'Segoe UI', Roboto, Helvetica, Arial, 'PingFang SC', 'Microsoft YaHei', Ubuntu, Cantarell, 'Noto Sans', sans-serif" fill="rgba(51,51,51,1.000)" fill-opacity="1.000" text-anchor="start" font-weight="bold">type1</text>
<circle cx="460.200" cy="69.200" r="5.000" fill="rgba(31,119,180,1.000)" stroke="none" stroke-width="0.000" fill-opacity="1.000" stroke-opacity="1.000" />
<text x="477.200" y="73.700" font-size="12.0" font-family="Inter, -apple-system, BlinkMacSystemFont, 'Segoe UI', Roboto, Helvetica, Arial, 'PingFang SC', 'Microsoft YaHei', Ubuntu, Cantarell, 'Noto Sans', sans-serif" fill="rgba(51,51,51,1.000)" fill-opacity="1.000" text-anchor="start" font-weight="normal">A</text>
<circle cx="460.200" cy="90.200" r="5.000" fill="rgba(255,127,14,1.000)" stroke="none" stroke-width="0.000" fill-opacity="1.000" stroke-opacity="1.000" />
<text x="477.200" y="94.700" font-size="12.0" font-family="Inter, -apple-system, BlinkMacSystemFont, 'Segoe UI', Roboto, Helvetica, Arial, 'PingFang SC', 'Microsoft YaHei', Ubuntu, Cantarell, 'Noto Sans', sans-serif" fill="rgba(51,51,51,1.000)" fill-opacity="1.000" text-anchor="start" font-weight="normal">B</text>
<circle cx="460.200" cy="111.200" r="5.000" fill="rgba(44,160,44,1.000)" stroke="none" stroke-width="0.000" fill-opacity="1.000" stroke-opacity="1.000" />
<text x="477.200" y="115.700" font-size="12.0" font-family="Inter, -apple-system, BlinkMacSystemFont, 'Segoe UI', Roboto, Helvetica, Arial, 'PingFang SC', 'Microsoft YaHei', Ubuntu, Cantarell, 'Noto Sans', sans-serif" fill="rgba(51,51,51,1.000)" fill-opacity="1.000" text-anchor="start" font-weight="normal">C</text>
<circle cx="460.200" cy="132.200" r="5.000" fill="rgba(214,39,40,1.000)" stroke="none" stroke-width="0.000" fill-opacity="1.000" stroke-opacity="1.000" />
<text x="477.200" y="136.700" font-size="12.0" font-family="Inter, -apple-system, BlinkMacSystemFont, 'Segoe UI', Roboto, Helvetica, Arial, 'PingFang SC', 'Microsoft YaHei', Ubuntu, Cantarell, 'Noto Sans', sans-serif" fill="rgba(51,51,51,1.000)" fill-opacity="1.000" text-anchor="start" font-weight="normal">D</text>
<circle cx="460.200" cy="153.200" r="5.000" fill="rgba(148,103,189,1.000)" stroke="none" stroke-width="0.000" fill-opacity="1.000" stroke-opacity="1.000" />
<text x="477.200" y="157.700" font-size="12.0" font-family="Inter, -apple-system, BlinkMacSystemFont, 'Segoe UI', Roboto, Helvetica, Arial, 'PingFang SC', 'Microsoft YaHei', Ubuntu, Cantarell, 'Noto Sans', sans-serif" fill="rgba(51,51,51,1.000)" fill-opacity="1.000" text-anchor="start" font-weight="normal">E</text>
<circle cx="460.200" cy="174.200" r="5.000" fill="rgba(140,86,75,1.000)" stroke="none" stroke-width="0.000" fill-opacity="1.000" stroke-opacity="1.000" />
<text x="477.200" y="178.700" font-size="12.0" font-family="Inter, -apple-system, BlinkMacSystemFont, 'Segoe UI', Roboto, Helvetica, Arial, 'PingFang SC', 'Microsoft YaHei', Ubuntu, Cantarell, 'Noto Sans', sans-serif" fill="rgba(51,51,51,1.000)" fill-opacity="1.000" text-anchor="start" font-weight="normal">F</text>
</svg>