<svg width="500" height="400" viewBox="0 0 500 400" xmlns="http://www.w3.org/2000/svg"><rect x="0.000" y="0.000" width="500.000" height="400.000" fill="rgba(255,255,255,1.000)" stroke="none" stroke-width="0.000" fill-opacity="1.000" stroke-opacity="1.000" />
<circle cx="260.625" cy="175.500" r="135.500" fill="none" stroke="rgba(189,189,189,1.000)" stroke-width="1.000" fill-opacity="0.700" stroke-opacity="0.700" />
<line x1="260.625" y1="175.500" x2="328.375" y2="58.154" stroke="rgba(189,189,189,1.000)" stroke-width="1.000" stroke-opacity="0.500" />
<line x1="260.625" y1="175.500" x2="396.125" y2="175.500" stroke="rgba(189,189,189,1.000)" stroke-width="1.000" stroke-opacity="0.500" />
<line x1="260.625" y1="175.500" x2="328.375" y2="292.846" stroke="rgba(189,189,189,1.000)" stroke-width="1.000" stroke-opacity="0.500" />
<line x1="260.625" y1="175.500" x2="192.875" y2="292.846" stroke="rgba(189,189,189,1.000)" stroke-width="1.000" stroke-opacity="0.500" />
<line x1="260.625" y1="175.500" x2="125.125" y2="175.500" stroke="rgba(189,189,189,1.000)" stroke-width="1.000" stroke-opacity="0.500" />
<line x1="260.625" y1="175.500" x2="192.875" y2="58.154" stroke="rgba(189,189,189,1.000)" stroke-width="1.000" stroke-opacity="0.500" />
<defs><clipPath id="plot-clip-area"><rect x="85.050" y="40.000" width="351.150" height="271.000" /></clipPath></defs>
<g clip-path="url(#plot-clip-area)">
<path d="M 260.625 175.500 L 260.625 107.961 L 264.783 108.089 L 268.925 108.473 L 273.035 109.111 L 277.099 110.001 L 281.100 111.139 L 285.023 112.522 L 288.854 114.143 L 292.577 115.997 L 296.180 118.077 L 299.647 120.375 L 302.967 122.881 L 306.126 125.588 L 309.112 128.484 L 311.915 131.558 L 314.522 134.798 L 316.926 138.194 L 319.116 141.730 L 260.625 175.500 L 260.625 175.500 L 260.625 175.500 L 260.625 175.500 L 260.625 175.500 L 260.625 175.500 L 260.625 175.500 L 260.625 175.500 L 260.625 175.500 L 260.625 175.500 L 260.625 175.500 L 260.625 175.500 L 260.625 175.500 L 260.625 175.500 L 260.625 175.500 L 260.625 175.500 L 260.625 175.500 Z" fill="rgba(31,119,180,1.000)" fill-opacity="1.000" stroke="rgba(224,224,224,1.000)" stroke-width="0.500" stroke-opacity="1.000" stroke-linejoin="round" stroke-linecap="round" />
<path d="M 260.625 175.500 L 375.143 109.383 L 378.996 116.558 L 382.400 123.957 L 385.343 131.551 L 387.811 139.312 L 389.798 147.211 L 391.295 155.216 L 392.295 163.299 L 392.797 171.428 L 392.797 179.572 L 392.295 187.701 L 391.295 195.784 L 389.798 203.789 L 387.811 211.688 L 385.343 219.449 L 382.400 227.043 L 378.996 234.442 L 375.143 241.617 L 260.625 175.500 L 260.625 175.500 L 260.625 175.500 L 260.625 175.500 L 260.625 175.500 L 260.625 175.500 L 260.625 175.500 L 260.625 175.500 L 260.625 175.500 L 260.625 175.500 L 260.625 175.500 L 260.625 175.500 L 260.625 175.500 L 260.625 175.500 L 260.625 175.500 L 260.625 175.500 L 260.625 175.500 Z" fill="rgba(255,127,14,1.000)" fill-opacity="1.000" stroke="rgba(224,224,224,1.000)" stroke-width="0.500" stroke-opacity="1.000" stroke-linejoin="round" stroke-linecap="round" />
<path d="M 260.625 175.500 L 329.832 215.457 L 327.241 219.641 L 324.397 223.659 L 321.312 227.493 L 317.996 231.131 L 314.462 234.557 L 310.725 237.759 L 306.797 240.725 L 302.694 243.444 L 298.432 245.905 L 294.026 248.099 L 289.493 250.017 L 284.851 251.653 L 280.117 253.000 L 275.309 254.053 L 270.445 254.808 L 265.545 255.262 L 260.625 255.414 L 260.625 175.500 L 260.625 175.500 L 260.625 175.500 L 260.625 175.500 L 260.625 175.500 L 260.625 175.500 L 260.625 175.500 L 260.625 175.500 L 260.625 175.500 L 260.625 175.500 L 260.625 175.500 L 260.625 175.500 L 260.625 175.500 L 260.625 175.500 L 260.625 175.500 L 260.625 175.500 L 260.625 175.500 Z" fill="rgba(44,160,44,1.000)" fill-opacity="1.000" stroke="rgba(224,224,224,1.000)" stroke-width="0.500" stroke-opacity="1.000" stroke-linejoin="round" stroke-linecap="round" />
<path d="M 260.625 175.500 L 260.625 297.570 L 253.110 297.338 L 245.624 296.645 L 238.195 295.491 L 230.850 293.883 L 223.619 291.826 L 216.528 289.327 L 209.605 286.396 L 202.874 283.045 L 196.363 279.286 L 190.096 275.133 L 184.096 270.602 L 178.387 265.711 L 172.990 260.477 L 167.924 254.921 L 163.211 249.064 L 158.867 242.927 L 154.909 236.535 L 260.625 175.500 L 260.625 175.500 L 260.625 175.500 L 260.625 175.500 L 260.625 175.500 L 260.625 175.500 L 260.625 175.500 L 260.625 175.500 L 260.625 175.500 L 260.625 175.500 L 260.625 175.500 L 260.625 175.500 L 260.625 175.500 L 260.625 175.500 L 260.625 175.500 L 260.625 175.500 L 260.625 175.500 Z" fill="rgba(214,39,40,1.000)" fill-opacity="1.000" stroke="rgba(224,224,224,1.000)" stroke-width="0.500" stroke-opacity="1.000" stroke-linejoin="round" stroke-linecap="round" />
<path d="M 260.625 175.500 L 207.231 206.327 L 205.434 202.982 L 203.847 199.532 L 202.475 195.991 L 201.324 192.373 L 200.398 188.690 L 199.700 184.957 L 199.233 181.189 L 199.000 177.399 L 199.000 173.601 L 199.233 169.811 L 199.700 166.043 L 200.398 162.310 L 201.324 158.627 L 202.475 155.009 L 203.847 151.468 L 205.434 148.018 L 207.231 144.673 L 260.625 175.500 L 260.625 175.500 L 260.625 175.500 L 260.625 175.500 L 260.625 175.500 L 260.625 175.500 L 260.625 175.500 L 260.625 175.500 L 260.625 175.500 L 260.625 175.500 L 260.625 175.500 L 260.625 175.500 L 260.625 175.500 L 260.625 175.500 L 260.625 175.500 L 260.625 175.500 L 260.625 175.500 Z" fill="rgba(148,103,189,1.000)" fill-opacity="1.000" stroke="rgba(224,224,224,1.000)" stroke-width="0.500" stroke-opacity="1.000" stroke-linejoin="round" stroke-linecap="round" />
<path d="M 260.625 175.500 L 171.279 123.916 L 174.624 118.514 L 178.295 113.327 L 182.279 108.377 L 186.560 103.681 L 191.121 99.258 L 195.947 95.124 L 201.017 91.295 L 206.314 87.785 L 211.817 84.608 L 217.505 81.776 L 223.356 79.299 L 229.349 77.187 L 235.461 75.448 L 241.668 74.089 L 247.947 73.114 L 254.274 72.528 L 260.625 72.332 L 260.625 175.500 L 260.625 175.500 L 260.625 175.500 L 260.625 175.500 L 260.625 175.500 L 260.625 175.500 L 260.625 175.500 L 260.625 175.500 L 260.625 175.500 L 260.625 175.500 L 260.625 175.500 L 260.625 175.500 L 260.625 175.500 L 260.625 175.500 L 260.625 175.500 L 260.625 175.500 L 260.625 175.500 Z" fill="rgba(140,86,75,1.000)" fill-opacity="1.000" stroke="rgba(224,224,224,1.000)" stroke-width="0.500" stroke-opacity="1.000" stroke-linejoin="round" stroke-linecap="round" />
</g>
<circle cx="260.625" cy="175.500" r="135.500" fill="none" stroke="rgba(189,189,189,1.000)" stroke-width="1.000" fill-opacity="0.500" stroke-opacity="0.500" />
<text x="330.875" y="53.823" font-size="13.0" font-family="Inter, -apple-system, BlinkMacSystemFont, 'Segoe UI', Roboto, Helvetica, Arial, 'PingFang SC', 'Microsoft YaHei', Ubuntu, Cantarell, 'Noto Sans', sans-serif" fill="rgba(51,51,51,1.000)" fill-opacity="1.000" text-anchor="start" font-weight="normal" dominant-baseline="auto" transform="rotate(0 330.875 53.823)">A</text>
<text x="401.125" y="175.500" font-size="13.0" font-family="Inter, -apple-system, BlinkMacSystemFont, 'Segoe UI', Roboto, Helvetica, Arial, 'PingFang SC', 'Microsoft YaHei', Ubuntu, Cantarell, 'Noto Sans', sans-serif" fill="rgba(51,51,51,1.000)" fill-opacity="1.000" text-anchor="start" font-weight="normal" dominant-baseline="middle" transform="rotate(0 401.125 175.500)">B</text>
<text x="330.875" y="297.177" font-size="13.0" font-family="Inter, -apple-system, BlinkMacSystemFont, 'Segoe UI', Roboto, Helvetica, Arial, 'PingFang SC', 'Microsoft YaHei', Ubuntu, Cantarell, 'Noto Sans', sans-serif" fill="rgba(51,51,51,1.000)" fill-opacity="1.000" text-anchor="start" font-weight="normal" dominant-baseline="hanging" transform="rotate(0 330.875 297.177)">C</text>
<text x="190.375" y="297.177" font-size="13.0" font-family="Inter, -apple-system, BlinkMacSystemFont, 'Segoe UI', Roboto, Helvetica, Arial, 'PingFang SC', 'Microsoft YaHei', Ubuntu, Cantarell, 'Noto Sans', sans-serif" fill="rgba(51,51,51,1.000)" fill-opacity="1.000" text-anchor="end" font-weight="normal" dominant-baseline="hanging" transform="rotate(0 190.375 297.177)">D</text>
<text x="120.125" y="175.500" font-size="13.0" font-family="Inter, -apple-system, BlinkMacSystemFont, 'Segoe UI', Roboto, Helvetica, Arial, 'PingFang SC', 'Microsoft YaHei', Ubuntu, Cantarell, 'Noto Sans', sans-serif" fill="rgba(51,51,51,1.000)" fill-opacity="1.000" text-anchor="end" font-weight="normal" dominant-baseline="middle" transform="rotate(0 120.125 175.500)">E</text>
<text x="190.375" y="53.823" font-size="13.0" font-family="Inter, -apple-system, BlinkMacSystemFont, 'Segoe UI', Roboto, Helvetica, Arial, 'PingFang SC', 'Microsoft YaHei', Ubuntu, Cantarell, 'Noto Sans', sans-serif" fill="rgba(51,51,51,1.000)" fill-opacity="1.000" text-anchor="end" font-weight="normal" dominant-baseline="auto" transform="rotate(0 190.375 53.823)">F</text>
<text x="451.200" y="46.000" font-size="13.2" font-family="Inter, -apple-system, BlinkMacSystemFont, 'Segoe UI', Roboto, Helvetica, Arial, 'PingFang SC', 'Microsoft YaHei', Ubuntu, Cantarell, 'Noto Sans', sans-serif" fill="rgba(51,51,51,1.000)" fill-opacity="1.000" text-anchor="start" font-weight="bold" dominant-baseline="central" transform="rotate(0 451.200 46.000)">type1</text>
<circle cx="460.200" cy="69.200" r="5.000" fill="rgba(31,119,180,1.000)" stroke="none" stroke-width="0.000" fill-opacity="1.000" stroke-opacity="1.000" />
<text x="477.200" y="69.200" font-size="12.0" font-family="Inter, -apple-system, BlinkMacSystemFont, 'Segoe UI', Roboto, Helvetica, Arial, 'PingFang SC', 'Microsoft YaHei', Ubuntu, Cantarell, 'Noto Sans', sans-serif" fill="rgba(51,51,51,1.000)" fill-opacity="1.000" text-anchor="start" font-weight="normal" dominant-baseline="central" transform="rotate(0 477.200 69.200)">A</text>
<circle cx="460.200" cy="90.200" r="5.000" fill="rgba(255,127,14,1.000)" stroke="none" stroke-width="0.000" fill-opacity="1.000" stroke-opacity="1.000" />
<text x="477.200" y="90.200" font-size="12.0" font-family="Inter, -apple-system, BlinkMacSystemFont, 'Segoe UI', Roboto, Helvetica, Arial, 'PingFang SC', 'Microsoft YaHei', Ubuntu, Cantarell, 'Noto Sans', sans-serif" fill="rgba(51,51,51,1.000)" fill-opacity="1.000" text-anchor="start" font-weight="normal" dominant-baseline="central" transform="rotate(0 477.200 90.200)">B</text>
<circle cx="460.200" cy="111.200" r="5.000" fill="rgba(44,160,44,1.000)" stroke="none" stroke-width="0.000" fill-opacity="1.000" stroke-opacity="1.000" />
<text x="477.200" y="111.200" font-size="12.0" font-family="Inter, -apple-system, BlinkMacSystemFont, 'Segoe UI', Roboto, Helvetica, Arial, 'PingFang SC', 'Microsoft YaHei', Ubuntu, Cantarell, 'Noto Sans', sans-serif" fill="rgba(51,51,51,1.000)" fill-opacity="1.000" text-anchor="start" font-weight="normal" dominant-baseline="central" transform="rotate(0 477.200 111.200)">C</text>
<circle cx="460.200" cy="132.200" r="5.000" fill="rgba(214,39,40,1.000)" stroke="none" stroke-width="0.000" fill-opacity="1.000" stroke-opacity="1.000" />
<text x="477.200" y="132.200" font-size="12.0" font-family="Inter, -apple-system, BlinkMacSystemFont, 'Segoe UI', Roboto, Helvetica, Arial, 'PingFang SC', 'Microsoft YaHei', Ubuntu, Cantarell, 'Noto Sans', sans-serif" fill="rgba(51,51,51,1.000)" fill-opacity="1.000" text-anchor="start" font-weight="normal" dominant-baseline="central" transform="rotate(0 477.200 132.200)">D</text>
<circle cx="460.200" cy="153.200" r="5.000" fill="rgba(148,103,189,1.000)" stroke="none" stroke-width="0.000" fill-opacity="1.000" stroke-opacity="1.000" />
<text x="477.200" y="153.200" font-size="12.0" font-family="Inter, -apple-system, BlinkMacSystemFont, 'Segoe UI', Roboto, Helvetica, Arial, 'PingFang SC', 'Microsoft YaHei', Ubuntu, Cantarell, 'Noto Sans', sans-serif" fill="rgba(51,51,51,1.000)" fill-opacity="1.000" text-anchor="start" font-weight="normal" dominant-baseline="central" transform="rotate(0 477.200 153.200)">E</text>
<circle cx="460.200" cy="174.200" r="5.000" fill="rgba(140,86,75,1.000)" stroke="none" stroke-width="0.000" fill-opacity="1.000" stroke-opacity="1.000" />
<text x="477.200" y="174.200" font-size="12.0" font-family="Inter, -apple-system, BlinkMacSystemFont, 'Segoe UI', Roboto, Helvetica, Arial, 'PingFang SC', 'Microsoft YaHei', Ubuntu, Cantarell, 'Noto Sans', sans-serif" fill="rgba(51,51,51,1.000)" fill-opacity="1.000" text-anchor="start" font-weight="normal" dominant-baseline="central" transform="rotate(0 477.200 174.200)">F</text>
</svg>