<svg width="500" height="400" viewBox="0 0 500 400" xmlns="http://www.w3.org/2000/svg"><rect x="0.000" y="0.000" width="500.000" height="400.000" fill="rgba(255,255,255,1.000)" stroke="none" stroke-width="0.000" fill-opacity="1.000" stroke-opacity="1.000" />
<path d="M 88.300 311.000 L 378.000 311.000" stroke="rgba(51,51,51,1.000)" stroke-width="1.000" stroke-opacity="1.000" fill="none" stroke-linejoin="round" stroke-linecap="round" />
<path d="M 127.783 311.000 L 127.783 317.000" stroke="rgba(51,51,51,1.000)" stroke-width="1.000" stroke-opacity="1.000" fill="none" stroke-linejoin="round" stroke-linecap="round" />
<text x="127.783" y="320.000" font-size="13.0" font-family="Inter, -apple-system, BlinkMacSystemFont, 'Segoe UI', Roboto, Helvetica, Arial, 'PingFang SC', 'Microsoft YaHei', Ubuntu, Cantarell, 'Noto Sans', sans-serif" fill="rgba(51,51,51,1.000)" fill-opacity="1.000" text-anchor="middle" font-weight="normal" dominant-baseline="hanging" transform="rotate(0 127.783 320.000)">2012</text>
<path d="M 180.484 311.000 L 180.484 317.000" stroke="rgba(51,51,51,1.000)" stroke-width="1.000" stroke-opacity="1.000" fill="none" stroke-linejoin="round" stroke-linecap="round" />
<text x="180.484" y="320.000" font-size="13.0" font-family="Inter, -apple-system, BlinkMacSystemFont, 'Segoe UI', Roboto, Helvetica, Arial, 'PingFang SC', 'Microsoft YaHei', Ubuntu, Cantarell, 'Noto Sans', sans-serif" fill="rgba(51,51,51,1.000)" fill-opacity="1.000" text-anchor="middle" font-weight="normal" dominant-baseline="hanging" transform="rotate(0 180.484 320.000)">2014</text>
<path d="M 233.114 311.000 L 233.114 317.000" stroke="rgba(51,51,51,1.000)" stroke-width="1.000" stroke-opacity="1.000" fill="none" stroke-linejoin="round" stroke-linecap="round" />
<text x="233.114" y="320.000" font-size="13.0" font-family="Inter, -apple-system, BlinkMacSystemFont, 'Segoe UI', Roboto, Helvetica, Arial, 'PingFang SC', 'Microsoft YaHei', Ubuntu, Cantarell, 'Noto Sans', sans-serif" fill="rgba(51,51,51,1.000)" fill-opacity="1.000" text-anchor="middle" font-weight="normal" dominant-baseline="hanging" transform="rotate(0 233.114 320.000)">2016</text>
<path d="M 285.816 311.000 L 285.816 317.000" stroke="rgba(51,51,51,1.000)" stroke-width="1.000" stroke-opacity="1.000" fill="none" stroke-linejoin="round" stroke-linecap="round" />
<text x="285.816" y="320.000" font-size="13.0" font-family="Inter, -apple-system, BlinkMacSystemFont, 'Segoe UI', Roboto, Helvetica, Arial, 'PingFang SC', 'Microsoft YaHei', Ubuntu, Cantarell, 'Noto Sans', sans-serif" fill="rgba(51,51,51,1.000)" fill-opacity="1.000" text-anchor="middle" font-weight="normal" dominant-baseline="hanging" transform="rotate(0 285.816 320.000)">2018</text>
<path d="M 338.445 311.000 L 338.445 317.000" stroke="rgba(51,51,51,1.000)" stroke-width="1.000" stroke-opacity="1.000" fill="none" stroke-linejoin="round" stroke-linecap="round" />
<text x="338.445" y="320.000" font-size="13.0" font-family="Inter, -apple-system, BlinkMacSystemFont, 'Segoe UI', Roboto, Helvetica, Arial, 'PingFang SC', 'Microsoft YaHei', Ubuntu, Cantarell, 'Noto Sans', sans-serif" fill="rgba(51,51,51,1.000)" fill-opacity="1.000" text-anchor="middle" font-weight="normal" dominant-baseline="hanging" transform="rotate(0 338.445 320.000)">2020</text>
<text x="233.150" y="340.000" font-size="15.0" font-family="Inter, -apple-system, BlinkMacSystemFont, 'Segoe UI', Roboto, Helvetica, Arial, 'PingFang SC', 'Microsoft YaHei', Ubuntu, Cantarell, 'Noto Sans', sans-serif" fill="rgba(51,51,51,1.000)" fill-opacity="1.000" text-anchor="middle" font-weight="bold" dominant-baseline="hanging" transform="rotate(0 233.150 340.000)">Year</text>
<path d="M 88.300 40.000 L 88.300 311.000" stroke="rgba(51,51,51,1.000)" stroke-width="1.000" stroke-opacity="1.000" fill="none" stroke-linejoin="round" stroke-linecap="round" />
<path d="M 88.300 311.000 L 82.300 311.000" stroke="rgba(51,51,51,1.000)" stroke-width="1.000" stroke-opacity="1.000" fill="none" stroke-linejoin="round" stroke-linecap="round" />
<text x="78.300" y="311.000" font-size="13.0" font-family="Inter, -apple-system, BlinkMacSystemFont, 'Segoe UI', Roboto, Helvetica, Arial, 'PingFang SC', 'Microsoft YaHei', Ubuntu, Cantarell, 'Noto Sans', sans-serif" fill="rgba(51,51,51,1.000)" fill-opacity="1.000" text-anchor="end" font-weight="normal" dominant-baseline="central" transform="rotate(0 78.300 311.000)">0</text>
<path d="M 88.300 273.492 L 82.300 273.492" stroke="rgba(51,51,51,1.000)" stroke-width="1.000" stroke-opacity="1.000" fill="none" stroke-linejoin="round" stroke-linecap="round" />
<text x="78.300" y="273.492" font-size="13.0" font-family="Inter, -apple-system, BlinkMacSystemFont, 'Segoe UI', Roboto, Helvetica, Arial, 'PingFang SC', 'Microsoft YaHei', Ubuntu, Cantarell, 'Noto Sans', sans-serif" fill="rgba(51,51,51,1.000)" fill-opacity="1.000" text-anchor="end" font-weight="normal" dominant-baseline="central" transform="rotate(0 78.300 273.492)">10</text>
<path d="M 88.300 235.983 L 82.300 235.983" stroke="rgba(51,51,51,1.000)" stroke-width="1.000" stroke-opacity="1.000" fill="none" stroke-linejoin="round" stroke-linecap="round" />
<text x="78.300" y="235.983" font-size="13.0" font-family="Inter, -apple-system, BlinkMacSystemFont, 'Segoe UI', Roboto, Helvetica, Arial, 'PingFang SC', 'Microsoft YaHei', Ubuntu, Cantarell, 'Noto Sans', sans-serif" fill="rgba(51,51,51,1.000)" fill-opacity="1.000" text-anchor="end" font-weight="normal" dominant-baseline="central" transform="rotate(0 78.300 235.983)">20</text>
<path d="M 88.300 198.475 L 82.300 198.475" stroke="rgba(51,51,51,1.000)" stroke-width="1.000" stroke-opacity="1.000" fill="none" stroke-linejoin="round" stroke-linecap="round" />
<text x="78.300" y="198.475" font-size="13.0" font-family="Inter, -apple-system, BlinkMacSystemFont, 'Segoe UI', Roboto, Helvetica, Arial, 'PingFang SC', 'Microsoft YaHei', Ubuntu, Cantarell, 'Noto Sans', sans-serif" fill="rgba(51,51,51,1.000)" fill-opacity="1.000" text-anchor="end" font-weight="normal" dominant-baseline="central" transform="rotate(0 78.300 198.475)">30</text>
<path d="M 88.300 160.966 L 82.300 160.966" stroke="rgba(51,51,51,1.000)" stroke-width="1.000" stroke-opacity="1.000" fill="none" stroke-linejoin="round" stroke-linecap="round" />
<text x="78.300" y="160.966" font-size="13.0" font-family="Inter, -apple-system, BlinkMacSystemFont, 'Segoe UI', Roboto, Helvetica, Arial, 'PingFang SC', 'Microsoft YaHei', Ubuntu, Cantarell, 'Noto Sans', sans-serif" fill="rgba(51,51,51,1.000)" fill-opacity="1.000" text-anchor="end" font-weight="normal" dominant-baseline="central" transform="rotate(0 78.300 160.966)">40</text>
<path d="M 88.300 123.458 L 82.300 123.458" stroke="rgba(51,51,51,1.000)" stroke-width="1.000" stroke-opacity="1.000" fill="none" stroke-linejoin="round" stroke-linecap="round" />
<text x="78.300" y="123.458" font-size="13.0" font-family="Inter, -apple-system, BlinkMacSystemFont, 'Segoe UI', Roboto, Helvetica, Arial, 'PingFang SC', 'Microsoft YaHei', Ubuntu, Cantarell, 'Noto Sans', sans-serif" fill="rgba(51,51,51,1.000)" fill-opacity="1.000" text-anchor="end" font-weight="normal" dominant-baseline="central" transform="rotate(0 78.300 123.458)">50</text>
<path d="M 88.300 85.950 L 82.300 85.950" stroke="rgba(51,51,51,1.000)" stroke-width="1.000" stroke-opacity="1.000" fill="none" stroke-linejoin="round" stroke-linecap="round" />
<text x="78.300" y="85.950" font-size="13.0" font-family="Inter, -apple-system, BlinkMacSystemFont, 'Segoe UI', Roboto, Helvetica, Arial, 'PingFang SC', 'Microsoft YaHei', Ubuntu, Cantarell, 'Noto Sans', sans-serif" fill="rgba(51,51,51,1.000)" fill-opacity="1.000" text-anchor="end" font-weight="normal" dominant-baseline="central" transform="rotate(0 78.300 85.950)">60</text>
<path d="M 88.300 48.441 L 82.300 48.441" stroke="rgba(51,51,51,1.000)" stroke-width="1.000" stroke-opacity="1.000" fill="none" stroke-linejoin="round" stroke-linecap="round" />
<text x="78.300" y="48.441" font-size="13.0" font-family="Inter, -apple-system, BlinkMacSystemFont, 'Segoe UI', Roboto, Helvetica, Arial, 'PingFang SC', 'Microsoft YaHei', Ubuntu, Cantarell, 'Noto Sans', sans-serif" fill="rgba(51,51,51,1.000)" fill-opacity="1.000" text-anchor="end" font-weight="normal" dominant-baseline="central" transform="rotate(0 78.300 48.441)">70</text>
<text x="47.500" y="175.500" font-size="15.0" font-family="Inter, -apple-system, BlinkMacSystemFont, 'Segoe UI', Roboto, Helvetica, Arial, 'PingFang SC', 'Microsoft YaHei', Ubuntu, Cantarell, 'Noto Sans', sans-serif" fill="rgba(51,51,51,1.000)" fill-opacity="1.000" text-anchor="middle" font-weight="bold" dominant-baseline="middle" transform="rotate(-90 47.500 175.500)">Unemployment rate (%)</text>
<polygon points="101.468,287.857 127.783,288.307 154.170,288.457 180.484,288.532 206.799,289.095 233.114,289.095 259.501,289.808 285.816,293.146 312.130,295.397 338.445,293.108 364.832,293.221 364.832,311.000 338.445,311.000 312.130,311.000 285.816,311.000 259.501,311.000 233.114,311.000 206.799,311.000 180.484,311.000 154.170,311.000 127.783,311.000 101.468,311.000" fill="rgba(31,119,180,1.000)" stroke="none" stroke-width="0.000" fill-opacity="1.000" stroke-opacity="0.000" />
<polygon points="101.468,230.282 127.783,230.357 154.170,236.958 180.484,244.048 206.799,251.924 233.114,257.701 259.501,264.640 285.816,271.616 312.130,276.830 338.445,272.029 364.832,268.353 364.832,293.221 338.445,293.108 312.130,295.397 285.816,293.146 259.501,289.808 233.114,289.095 206.799,289.095 180.484,288.532 154.170,288.457 127.783,288.307 101.468,287.857" fill="rgba(255,127,14,1.000)" stroke="none" stroke-width="0.000" fill-opacity="1.000" stroke-opacity="0.000" />
<polygon points="101.468,205.226 127.783,209.427 154.170,217.829 180.484,230.057 206.799,234.295 233.114,242.622 259.501,249.261 285.816,256.200 312.130,257.701 338.445,257.701 364.832,253.500 364.832,268.353 338.445,272.029 312.130,276.830 285.816,271.616 259.501,264.640 233.114,257.701 206.799,251.924 180.484,244.048 154.170,236.958 127.783,230.357 101.468,230.282" fill="rgba(44,160,44,1.000)" stroke="none" stroke-width="0.000" fill-opacity="1.000" stroke-opacity="0.000" />
<polygon points="101.468,181.296 127.783,186.172 154.170,194.912 180.484,208.602 206.799,214.116 233.114,225.031 259.501,234.258 285.816,242.472 312.130,244.123 338.445,241.722 364.832,240.372 364.832,253.500 338.445,257.701 312.130,257.701 285.816,256.200 259.501,249.261 233.114,242.622 206.799,234.295 180.484,230.057 154.170,217.829 127.783,209.427 101.468,205.226" fill="rgba(214,39,40,1.000)" stroke="none" stroke-width="0.000" fill-opacity="1.000" stroke-opacity="0.000" />
<polygon points="101.468,122.408 127.783,131.785 154.170,141.275 180.484,156.465 206.799,169.106 233.114,180.771 259.501,193.749 285.816,207.964 312.130,212.991 338.445,208.377 364.832,209.352 364.832,240.372 338.445,241.722 312.130,244.123 285.816,242.472 259.501,234.258 233.114,225.031 206.799,214.116 180.484,208.602 154.170,194.912 127.783,186.172 101.468,181.296" fill="rgba(148,103,189,1.000)" stroke="none" stroke-width="0.000" fill-opacity="1.000" stroke-opacity="0.000" />
<polygon points="101.468,83.549 127.783,96.377 154.170,109.092 180.484,127.772 206.799,143.750 233.114,164.042 259.501,179.908 285.816,195.662 312.130,202.263 338.445,194.799 364.832,195.399 364.832,209.352 338.445,208.377 312.130,212.991 285.816,207.964 259.501,193.749 233.114,180.771 206.799,169.106 180.484,156.465 154.170,141.275 127.783,131.785 101.468,122.408" fill="rgba(140,86,75,1.000)" stroke="none" stroke-width="0.000" fill-opacity="1.000" stroke-opacity="0.000" />
<polygon points="101.468,52.905 127.783,63.220 154.170,71.209 180.484,91.501 206.799,110.143 233.114,134.035 259.501,155.303 285.816,176.495 312.130,185.572 338.445,176.157 364.832,178.820 364.832,195.399 338.445,194.799 312.130,202.263 285.816,195.662 259.501,179.908 233.114,164.042 206.799,143.750 180.484,127.772 154.170,109.092 127.783,96.377 101.468,83.549" fill="rgba(227,119,194,1.000)" stroke="none" stroke-width="0.000" fill-opacity="1.000" stroke-opacity="0.000" />
<text x="393.000" y="46.000" font-size="13.2" font-family="Inter, -apple-system, BlinkMacSystemFont, 'Segoe UI', Roboto, Helvetica, Arial, 'PingFang SC', 'Microsoft YaHei', Ubuntu, Cantarell, 'Noto Sans', sans-serif" fill="rgba(51,51,51,1.000)" fill-opacity="1.000" text-anchor="start" font-weight="bold" dominant-baseline="central" transform="rotate(0 393.000 46.000)">Country</text>
<circle cx="402.000" cy="69.200" r="5.000" fill="rgba(31,119,180,1.000)" stroke="none" stroke-width="0.000" fill-opacity="1.000" stroke-opacity="1.000" />
<text x="419.000" y="69.200" font-size="12.0" font-family="Inter, -apple-system, BlinkMacSystemFont, 'Segoe UI', Roboto, Helvetica, Arial, 'PingFang SC', 'Microsoft YaHei', Ubuntu, Cantarell, 'Noto Sans', sans-serif" fill="rgba(51,51,51,1.000)" fill-opacity="1.000" text-anchor="start" font-weight="normal" dominant-baseline="central" transform="rotate(0 419.000 69.200)">Belarus</text>
<circle cx="402.000" cy="90.200" r="5.000" fill="rgba(255,127,14,1.000)" stroke="none" stroke-width="0.000" fill-opacity="1.000" stroke-opacity="1.000" />
<text x="419.000" y="90.200" font-size="12.0" font-family="Inter, -apple-system, BlinkMacSystemFont, 'Segoe UI', Roboto, Helvetica, Arial, 'PingFang SC', 'Microsoft YaHei', Ubuntu, Cantarell, 'Noto Sans', sans-serif" fill="rgba(51,51,51,1.000)" fill-opacity="1.000" text-anchor="start" font-weight="normal" dominant-baseline="central" transform="rotate(0 419.000 90.200)">Ireland</text>
<circle cx="402.000" cy="111.200" r="5.000" fill="rgba(44,160,44,1.000)" stroke="none" stroke-width="0.000" fill-opacity="1.000" stroke-opacity="1.000" />
<text x="419.000" y="111.200" font-size="12.0" font-family="Inter, -apple-system, BlinkMacSystemFont, 'Segoe UI', Roboto, Helvetica, Arial, 'PingFang SC', 'Microsoft YaHei', Ubuntu, Cantarell, 'Noto Sans', sans-serif" fill="rgba(51,51,51,1.000)" fill-opacity="1.000" text-anchor="start" font-weight="normal" dominant-baseline="central" transform="rotate(0 419.000 111.200)">Moldova</text>
<circle cx="402.000" cy="132.200" r="5.000" fill="rgba(214,39,40,1.000)" stroke="none" stroke-width="0.000" fill-opacity="1.000" stroke-opacity="1.000" />
<text x="419.000" y="132.200" font-size="12.0" font-family="Inter, -apple-system, BlinkMacSystemFont, 'Segoe UI', Roboto, Helvetica, Arial, 'PingFang SC', 'Microsoft YaHei', Ubuntu, Cantarell, 'Noto Sans', sans-serif" fill="rgba(51,51,51,1.000)" fill-opacity="1.000" text-anchor="start" font-weight="normal" dominant-baseline="central" transform="rotate(0 419.000 132.200)">Malta</text>
<circle cx="402.000" cy="153.200" r="5.000" fill="rgba(148,103,189,1.000)" stroke="none" stroke-width="0.000" fill-opacity="1.000" stroke-opacity="1.000" />
<text x="419.000" y="153.200" font-size="12.0" font-family="Inter, -apple-system, BlinkMacSystemFont, 'Segoe UI', Roboto, Helvetica, Arial, 'PingFang SC', 'Microsoft YaHei', Ubuntu, Cantarell, 'Noto Sans', sans-serif" fill="rgba(51,51,51,1.000)" fill-opacity="1.000" text-anchor="start" font-weight="normal" dominant-baseline="central" transform="rotate(0 419.000 153.200)">Puerto Rico</text>
<circle cx="402.000" cy="174.200" r="5.000" fill="rgba(140,86,75,1.000)" stroke="none" stroke-width="0.000" fill-opacity="1.000" stroke-opacity="1.000" />
<text x="419.000" y="174.200" font-size="12.0" font-family="Inter, -apple-system, BlinkMacSystemFont, 'Segoe UI', Roboto, Helvetica, Arial, 'PingFang SC', 'Microsoft YaHei', Ubuntu, Cantarell, 'Noto Sans', sans-serif" fill="rgba(51,51,51,1.000)" fill-opacity="1.000" text-anchor="start" font-weight="normal" dominant-baseline="central" transform="rotate(0 419.000 174.200)">Senegal</text>
<circle cx="402.000" cy="195.200" r="5.000" fill="rgba(227,119,194,1.000)" stroke="none" stroke-width="0.000" fill-opacity="1.000" stroke-opacity="1.000" />
<text x="419.000" y="195.200" font-size="12.0" font-family="Inter, -apple-system, BlinkMacSystemFont, 'Segoe UI', Roboto, Helvetica, Arial, 'PingFang SC', 'Microsoft YaHei', Ubuntu, Cantarell, 'Noto Sans', sans-serif" fill="rgba(51,51,51,1.000)" fill-opacity="1.000" text-anchor="start" font-weight="normal" dominant-baseline="central" transform="rotate(0 419.000 195.200)">Slovenia</text>
</svg>