<svg width="500" height="400" viewBox="0 0 500 400" xmlns="http://www.w3.org/2000/svg"><rect width="100%" height="100%" fill="rgba(255,255,255,1.000)" /><line x1="88.30" y1="311.00" x2="378.00" y2="311.00" stroke="rgba(51,51,51,1.000)" stroke-width="1" stroke-linecap="square"/>
<line x1="127.80" y1="311.00" x2="127.80" y2="317.00" stroke="rgba(51,51,51,1.000)" stroke-width="1.0"/>
<text x="127.80" y="320.00" font-size="13" font-family="Inter, -apple-system, BlinkMacSystemFont, 'Segoe UI', Roboto, Helvetica, Arial, 'PingFang SC', 'Microsoft YaHei', Ubuntu, Cantarell, 'Noto Sans', sans-serif" fill="rgba(51,51,51,1.000)" text-anchor="middle" dominant-baseline="hanging">2012</text>
<line x1="180.48" y1="311.00" x2="180.48" y2="317.00" stroke="rgba(51,51,51,1.000)" stroke-width="1.0"/>
<text x="180.48" y="320.00" font-size="13" font-family="Inter, -apple-system, BlinkMacSystemFont, 'Segoe UI', Roboto, Helvetica, Arial, 'PingFang SC', 'Microsoft YaHei', Ubuntu, Cantarell, 'Noto Sans', sans-serif" fill="rgba(51,51,51,1.000)" text-anchor="middle" dominant-baseline="hanging">2014</text>
<line x1="233.15" y1="311.00" x2="233.15" y2="317.00" stroke="rgba(51,51,51,1.000)" stroke-width="1.0"/>
<text x="233.15" y="320.00" font-size="13" font-family="Inter, -apple-system, BlinkMacSystemFont, 'Segoe UI', Roboto, Helvetica, Arial, 'PingFang SC', 'Microsoft YaHei', Ubuntu, Cantarell, 'Noto Sans', sans-serif" fill="rgba(51,51,51,1.000)" text-anchor="middle" dominant-baseline="hanging">2016</text>
<line x1="285.82" y1="311.00" x2="285.82" y2="317.00" stroke="rgba(51,51,51,1.000)" stroke-width="1.0"/>
<text x="285.82" y="320.00" font-size="13" font-family="Inter, -apple-system, BlinkMacSystemFont, 'Segoe UI', Roboto, Helvetica, Arial, 'PingFang SC', 'Microsoft YaHei', Ubuntu, Cantarell, 'Noto Sans', sans-serif" fill="rgba(51,51,51,1.000)" text-anchor="middle" dominant-baseline="hanging">2018</text>
<line x1="338.50" y1="311.00" x2="338.50" y2="317.00" stroke="rgba(51,51,51,1.000)" stroke-width="1.0"/>
<text x="338.50" y="320.00" font-size="13" font-family="Inter, -apple-system, BlinkMacSystemFont, 'Segoe UI', Roboto, Helvetica, Arial, 'PingFang SC', 'Microsoft YaHei', Ubuntu, Cantarell, 'Noto Sans', sans-serif" fill="rgba(51,51,51,1.000)" text-anchor="middle" dominant-baseline="hanging">2020</text>
<text x="233.15" y="340.00" text-anchor="middle" font-size="15" font-family="Inter, -apple-system, BlinkMacSystemFont, 'Segoe UI', Roboto, Helvetica, Arial, 'PingFang SC', 'Microsoft YaHei', Ubuntu, Cantarell, 'Noto Sans', sans-serif" fill="rgba(51,51,51,1.000)" font-weight="bold" dominant-baseline="hanging">Year</text>
<line x1="88.30" y1="40.00" x2="88.30" y2="311.00" stroke="rgba(51,51,51,1.000)" stroke-width="1" stroke-linecap="square"/>
<line x1="88.30" y1="311.00" x2="82.30" y2="311.00" stroke="rgba(51,51,51,1.000)" stroke-width="1.0"/>
<text x="78.30" y="311.00" font-size="13" font-family="Inter, -apple-system, BlinkMacSystemFont, 'Segoe UI', Roboto, Helvetica, Arial, 'PingFang SC', 'Microsoft YaHei', Ubuntu, Cantarell, 'Noto Sans', sans-serif" fill="rgba(51,51,51,1.000)" text-anchor="end" dominant-baseline="central">0</text>
<line x1="88.30" y1="273.49" x2="82.30" y2="273.49" stroke="rgba(51,51,51,1.000)" stroke-width="1.0"/>
<text x="78.30" y="273.49" font-size="13" font-family="Inter, -apple-system, BlinkMacSystemFont, 'Segoe UI', Roboto, Helvetica, Arial, 'PingFang SC', 'Microsoft YaHei', Ubuntu, Cantarell, 'Noto Sans', sans-serif" fill="rgba(51,51,51,1.000)" text-anchor="end" dominant-baseline="central">10</text>
<line x1="88.30" y1="235.98" x2="82.30" y2="235.98" stroke="rgba(51,51,51,1.000)" stroke-width="1.0"/>
<text x="78.30" y="235.98" font-size="13" font-family="Inter, -apple-system, BlinkMacSystemFont, 'Segoe UI', Roboto, Helvetica, Arial, 'PingFang SC', 'Microsoft YaHei', Ubuntu, Cantarell, 'Noto Sans', sans-serif" fill="rgba(51,51,51,1.000)" text-anchor="end" dominant-baseline="central">20</text>
<line x1="88.30" y1="198.47" x2="82.30" y2="198.47" stroke="rgba(51,51,51,1.000)" stroke-width="1.0"/>
<text x="78.30" y="198.47" font-size="13" font-family="Inter, -apple-system, BlinkMacSystemFont, 'Segoe UI', Roboto, Helvetica, Arial, 'PingFang SC', 'Microsoft YaHei', Ubuntu, Cantarell, 'Noto Sans', sans-serif" fill="rgba(51,51,51,1.000)" text-anchor="end" dominant-baseline="central">30</text>
<line x1="88.30" y1="160.97" x2="82.30" y2="160.97" stroke="rgba(51,51,51,1.000)" stroke-width="1.0"/>
<text x="78.30" y="160.97" font-size="13" font-family="Inter, -apple-system, BlinkMacSystemFont, 'Segoe UI', Roboto, Helvetica, Arial, 'PingFang SC', 'Microsoft YaHei', Ubuntu, Cantarell, 'Noto Sans', sans-serif" fill="rgba(51,51,51,1.000)" text-anchor="end" dominant-baseline="central">40</text>
<line x1="88.30" y1="123.46" x2="82.30" y2="123.46" stroke="rgba(51,51,51,1.000)" stroke-width="1.0"/>
<text x="78.30" y="123.46" font-size="13" font-family="Inter, -apple-system, BlinkMacSystemFont, 'Segoe UI', Roboto, Helvetica, Arial, 'PingFang SC', 'Microsoft YaHei', Ubuntu, Cantarell, 'Noto Sans', sans-serif" fill="rgba(51,51,51,1.000)" text-anchor="end" dominant-baseline="central">50</text>
<line x1="88.30" y1="85.95" x2="82.30" y2="85.95" stroke="rgba(51,51,51,1.000)" stroke-width="1.0"/>
<text x="78.30" y="85.95" font-size="13" font-family="Inter, -apple-system, BlinkMacSystemFont, 'Segoe UI', Roboto, Helvetica, Arial, 'PingFang SC', 'Microsoft YaHei', Ubuntu, Cantarell, 'Noto Sans', sans-serif" fill="rgba(51,51,51,1.000)" text-anchor="end" dominant-baseline="central">60</text>
<line x1="88.30" y1="48.44" x2="82.30" y2="48.44" stroke="rgba(51,51,51,1.000)" stroke-width="1.0"/>
<text x="78.30" y="48.44" font-size="13" font-family="Inter, -apple-system, BlinkMacSystemFont, 'Segoe UI', Roboto, Helvetica, Arial, 'PingFang SC', 'Microsoft YaHei', Ubuntu, Cantarell, 'Noto Sans', sans-serif" fill="rgba(51,51,51,1.000)" text-anchor="end" dominant-baseline="central">70</text>
<text x="47.50" y="175.50" text-anchor="middle" font-size="15" font-family="Inter, -apple-system, BlinkMacSystemFont, 'Segoe UI', Roboto, Helvetica, Arial, 'PingFang SC', 'Microsoft YaHei', Ubuntu, Cantarell, 'Noto Sans', sans-serif" fill="rgba(51,51,51,1.000)" font-weight="bold" transform="rotate(-90, 47.50, 175.50)" dominant-baseline="middle">Unemployment rate (%)</text>
<defs><clipPath id="plot-clip-area"><rect x="88.300" y="40.000" width="289.700" height="271.000" /></clipPath></defs>
<line x1="88.300" y1="311.000" x2="378.000" y2="311.000" stroke="rgba(136,136,136,1.000)" stroke-width="1.000" stroke-opacity="0.500" stroke-dasharray="4.0,4.0" />
<polygon points="101.468,181.296 127.805,186.172 154.141,194.912 180.477,208.602 206.814,214.116 233.150,225.031 259.486,234.258 285.823,242.472 312.159,244.123 338.495,241.722 364.832,240.372 364.832,253.500 338.495,257.701 312.159,257.701 285.823,256.200 259.486,249.261 233.150,242.622 206.814,234.295 180.477,230.057 154.141,217.829 127.805,209.427 101.468,205.226" fill="rgba(214,39,40,1.000)" stroke="none" stroke-width="0.000" fill-opacity="1.000" stroke-opacity="0.000" clip-path="url(#plot-clip-area)" />
<polygon points="101.468,230.282 127.805,230.357 154.141,236.958 180.477,244.048 206.814,251.924 233.150,257.701 259.486,264.640 285.823,271.616 312.159,276.830 338.495,272.029 364.832,268.353 364.832,293.221 338.495,293.108 312.159,295.397 285.823,293.146 259.486,289.808 233.150,289.095 206.814,289.095 180.477,288.532 154.141,288.457 127.805,288.307 101.468,287.857" fill="rgba(255,127,14,1.000)" stroke="none" stroke-width="0.000" fill-opacity="1.000" stroke-opacity="0.000" clip-path="url(#plot-clip-area)" />
<polygon points="101.468,83.549 127.805,96.377 154.141,109.092 180.477,127.772 206.814,143.750 233.150,164.042 259.486,179.908 285.823,195.662 312.159,202.263 338.495,194.799 364.832,195.399 364.832,209.352 338.495,208.377 312.159,212.991 285.823,207.964 259.486,193.749 233.150,180.771 206.814,169.106 180.477,156.465 154.141,141.275 127.805,131.785 101.468,122.408" fill="rgba(140,86,75,1.000)" stroke="none" stroke-width="0.000" fill-opacity="1.000" stroke-opacity="0.000" clip-path="url(#plot-clip-area)" />
<polygon points="101.468,122.408 127.805,131.785 154.141,141.275 180.477,156.465 206.814,169.106 233.150,180.771 259.486,193.749 285.823,207.964 312.159,212.991 338.495,208.377 364.832,209.352 364.832,240.372 338.495,241.722 312.159,244.123 285.823,242.472 259.486,234.258 233.150,225.031 206.814,214.116 180.477,208.602 154.141,194.912 127.805,186.172 101.468,181.296" fill="rgba(148,103,189,1.000)" stroke="none" stroke-width="0.000" fill-opacity="1.000" stroke-opacity="0.000" clip-path="url(#plot-clip-area)" />
<polygon points="101.468,52.905 127.805,63.220 154.141,71.209 180.477,91.501 206.814,110.143 233.150,134.035 259.486,155.303 285.823,176.495 312.159,185.572 338.495,176.157 364.832,178.820 364.832,195.399 338.495,194.799 312.159,202.263 285.823,195.662 259.486,179.908 233.150,164.042 206.814,143.750 180.477,127.772 154.141,109.092 127.805,96.377 101.468,83.549" fill="rgba(227,119,194,1.000)" stroke="none" stroke-width="0.000" fill-opacity="1.000" stroke-opacity="0.000" clip-path="url(#plot-clip-area)" />
<polygon points="101.468,205.226 127.805,209.427 154.141,217.829 180.477,230.057 206.814,234.295 233.150,242.622 259.486,249.261 285.823,256.200 312.159,257.701 338.495,257.701 364.832,253.500 364.832,268.353 338.495,272.029 312.159,276.830 285.823,271.616 259.486,264.640 233.150,257.701 206.814,251.924 180.477,244.048 154.141,236.958 127.805,230.357 101.468,230.282" fill="rgba(44,160,44,1.000)" stroke="none" stroke-width="0.000" fill-opacity="1.000" stroke-opacity="0.000" clip-path="url(#plot-clip-area)" />
<polygon points="101.468,287.857 127.805,288.307 154.141,288.457 180.477,288.532 206.814,289.095 233.150,289.095 259.486,289.808 285.823,293.146 312.159,295.397 338.495,293.108 364.832,293.221 364.832,311.000 338.495,311.000 312.159,311.000 285.823,311.000 259.486,311.000 233.150,311.000 206.814,311.000 180.477,311.000 154.141,311.000 127.805,311.000 101.468,311.000" fill="rgba(31,119,180,1.000)" stroke="none" stroke-width="0.000" fill-opacity="1.000" stroke-opacity="0.000" clip-path="url(#plot-clip-area)" />
<text x="393.000" y="49.600" font-size="13.2" font-family="Inter, -apple-system, BlinkMacSystemFont, 'Segoe UI', Roboto, Helvetica, Arial, 'PingFang SC', 'Microsoft YaHei', Ubuntu, Cantarell, 'Noto Sans', sans-serif" fill="rgba(51,51,51,1.000)" fill-opacity="1.000" text-anchor="start" font-weight="bold">Country</text>
<circle cx="402.000" cy="69.200" r="5.000" fill="rgba(31,119,180,1.000)" stroke="none" stroke-width="0.000" fill-opacity="1.000" stroke-opacity="1.000" />
<text x="419.000" y="73.700" font-size="12.0" font-family="Inter, -apple-system, BlinkMacSystemFont, 'Segoe UI', Roboto, Helvetica, Arial, 'PingFang SC', 'Microsoft YaHei', Ubuntu, Cantarell, 'Noto Sans', sans-serif" fill="rgba(51,51,51,1.000)" fill-opacity="1.000" text-anchor="start" font-weight="normal">Belarus</text>
<circle cx="402.000" cy="90.200" r="5.000" fill="rgba(255,127,14,1.000)" stroke="none" stroke-width="0.000" fill-opacity="1.000" stroke-opacity="1.000" />
<text x="419.000" y="94.700" font-size="12.0" font-family="Inter, -apple-system, BlinkMacSystemFont, 'Segoe UI', Roboto, Helvetica, Arial, 'PingFang SC', 'Microsoft YaHei', Ubuntu, Cantarell, 'Noto Sans', sans-serif" fill="rgba(51,51,51,1.000)" fill-opacity="1.000" text-anchor="start" font-weight="normal">Ireland</text>
<circle cx="402.000" cy="111.200" r="5.000" fill="rgba(44,160,44,1.000)" stroke="none" stroke-width="0.000" fill-opacity="1.000" stroke-opacity="1.000" />
<text x="419.000" y="115.700" font-size="12.0" font-family="Inter, -apple-system, BlinkMacSystemFont, 'Segoe UI', Roboto, Helvetica, Arial, 'PingFang SC', 'Microsoft YaHei', Ubuntu, Cantarell, 'Noto Sans', sans-serif" fill="rgba(51,51,51,1.000)" fill-opacity="1.000" text-anchor="start" font-weight="normal">Moldova</text>
<circle cx="402.000" cy="132.200" r="5.000" fill="rgba(214,39,40,1.000)" stroke="none" stroke-width="0.000" fill-opacity="1.000" stroke-opacity="1.000" />
<text x="419.000" y="136.700" font-size="12.0" font-family="Inter, -apple-system, BlinkMacSystemFont, 'Segoe UI', Roboto, Helvetica, Arial, 'PingFang SC', 'Microsoft YaHei', Ubuntu, Cantarell, 'Noto Sans', sans-serif" fill="rgba(51,51,51,1.000)" fill-opacity="1.000" text-anchor="start" font-weight="normal">Malta</text>
<circle cx="402.000" cy="153.200" r="5.000" fill="rgba(148,103,189,1.000)" stroke="none" stroke-width="0.000" fill-opacity="1.000" stroke-opacity="1.000" />
<text x="419.000" y="157.700" font-size="12.0" font-family="Inter, -apple-system, BlinkMacSystemFont, 'Segoe UI', Roboto, Helvetica, Arial, 'PingFang SC', 'Microsoft YaHei', Ubuntu, Cantarell, 'Noto Sans', sans-serif" fill="rgba(51,51,51,1.000)" fill-opacity="1.000" text-anchor="start" font-weight="normal">Puerto Rico</text>
<circle cx="402.000" cy="174.200" r="5.000" fill="rgba(140,86,75,1.000)" stroke="none" stroke-width="0.000" fill-opacity="1.000" stroke-opacity="1.000" />
<text x="419.000" y="178.700" font-size="12.0" font-family="Inter, -apple-system, BlinkMacSystemFont, 'Segoe UI', Roboto, Helvetica, Arial, 'PingFang SC', 'Microsoft YaHei', Ubuntu, Cantarell, 'Noto Sans', sans-serif" fill="rgba(51,51,51,1.000)" fill-opacity="1.000" text-anchor="start" font-weight="normal">Senegal</text>
<circle cx="402.000" cy="195.200" r="5.000" fill="rgba(227,119,194,1.000)" stroke="none" stroke-width="0.000" fill-opacity="1.000" stroke-opacity="1.000" />
<text x="419.000" y="199.700" font-size="12.0" font-family="Inter, -apple-system, BlinkMacSystemFont, 'Segoe UI', Roboto, Helvetica, Arial, 'PingFang SC', 'Microsoft YaHei', Ubuntu, Cantarell, 'Noto Sans', sans-serif" fill="rgba(51,51,51,1.000)" fill-opacity="1.000" text-anchor="start" font-weight="normal">Slovenia</text>
</svg>