<svg width="500" height="400" viewBox="0 0 500 400" xmlns="http://www.w3.org/2000/svg"><rect x="0.000" y="0.000" width="500.000" height="400.000" fill="rgba(255,255,255,1.000)" stroke="none" stroke-width="0.000" fill-opacity="1.000" stroke-opacity="1.000" />
<path d="M 88.300 311.000 L 378.000 311.000" fill="none" stroke="rgba(51,51,51,1.000)" stroke-width="1.000" stroke-opacity="1.000" stroke-linejoin="round" stroke-linecap="round" />
<path d="M 127.783 311.000 L 127.783 317.000" fill="none" stroke="rgba(51,51,51,1.000)" stroke-width="1.000" stroke-opacity="1.000" stroke-linejoin="round" stroke-linecap="round" />
<text x="127.783" y="320.000" font-size="13.0" font-family="Inter, -apple-system, BlinkMacSystemFont, 'Segoe UI', Roboto, Helvetica, Arial, 'PingFang SC', 'Microsoft YaHei', Ubuntu, Cantarell, 'Noto Sans', sans-serif" fill="rgba(51,51,51,1.000)" fill-opacity="1.000" text-anchor="middle" font-weight="normal" dominant-baseline="hanging" transform="rotate(0 127.783 320.000)">2012</text>
<path d="M 180.484 311.000 L 180.484 317.000" fill="none" stroke="rgba(51,51,51,1.000)" stroke-width="1.000" stroke-opacity="1.000" stroke-linejoin="round" stroke-linecap="round" />
<text x="180.484" y="320.000" font-size="13.0" font-family="Inter, -apple-system, BlinkMacSystemFont, 'Segoe UI', Roboto, Helvetica, Arial, 'PingFang SC', 'Microsoft YaHei', Ubuntu, Cantarell, 'Noto Sans', sans-serif" fill="rgba(51,51,51,1.000)" fill-opacity="1.000" text-anchor="middle" font-weight="normal" dominant-baseline="hanging" transform="rotate(0 180.484 320.000)">2014</text>
<path d="M 233.114 311.000 L 233.114 317.000" fill="none" stroke="rgba(51,51,51,1.000)" stroke-width="1.000" stroke-opacity="1.000" stroke-linejoin="round" stroke-linecap="round" />
<text x="233.114" y="320.000" font-size="13.0" font-family="Inter, -apple-system, BlinkMacSystemFont, 'Segoe UI', Roboto, Helvetica, Arial, 'PingFang SC', 'Microsoft YaHei', Ubuntu, Cantarell, 'Noto Sans', sans-serif" fill="rgba(51,51,51,1.000)" fill-opacity="1.000" text-anchor="middle" font-weight="normal" dominant-baseline="hanging" transform="rotate(0 233.114 320.000)">2016</text>
<path d="M 285.816 311.000 L 285.816 317.000" fill="none" stroke="rgba(51,51,51,1.000)" stroke-width="1.000" stroke-opacity="1.000" stroke-linejoin="round" stroke-linecap="round" />
<text x="285.816" y="320.000" font-size="13.0" font-family="Inter, -apple-system, BlinkMacSystemFont, 'Segoe UI', Roboto, Helvetica, Arial, 'PingFang SC', 'Microsoft YaHei', Ubuntu, Cantarell, 'Noto Sans', sans-serif" fill="rgba(51,51,51,1.000)" fill-opacity="1.000" text-anchor="middle" font-weight="normal" dominant-baseline="hanging" transform="rotate(0 285.816 320.000)">2018</text>
<path d="M 338.445 311.000 L 338.445 317.000" fill="none" stroke="rgba(51,51,51,1.000)" stroke-width="1.000" stroke-opacity="1.000" stroke-linejoin="round" stroke-linecap="round" />
<text x="338.445" y="320.000" font-size="13.0" font-family="Inter, -apple-system, BlinkMacSystemFont, 'Segoe UI', Roboto, Helvetica, Arial, 'PingFang SC', 'Microsoft YaHei', Ubuntu, Cantarell, 'Noto Sans', sans-serif" fill="rgba(51,51,51,1.000)" fill-opacity="1.000" text-anchor="middle" font-weight="normal" dominant-baseline="hanging" transform="rotate(0 338.445 320.000)">2020</text>
<text x="233.150" y="340.000" font-size="15.0" font-family="Inter, -apple-system, BlinkMacSystemFont, 'Segoe UI', Roboto, Helvetica, Arial, 'PingFang SC', 'Microsoft YaHei', Ubuntu, Cantarell, 'Noto Sans', sans-serif" fill="rgba(51,51,51,1.000)" fill-opacity="1.000" text-anchor="middle" font-weight="bold" dominant-baseline="hanging" transform="rotate(0 233.150 340.000)">Year</text>
<path d="M 88.300 40.000 L 88.300 311.000" fill="none" stroke="rgba(51,51,51,1.000)" stroke-width="1.000" stroke-opacity="1.000" stroke-linejoin="round" stroke-linecap="round" />
<path d="M 88.300 311.000 L 82.300 311.000" fill="none" stroke="rgba(51,51,51,1.000)" stroke-width="1.000" stroke-opacity="1.000" stroke-linejoin="round" stroke-linecap="round" />
<text x="78.300" y="311.000" font-size="13.0" font-family="Inter, -apple-system, BlinkMacSystemFont, 'Segoe UI', Roboto, Helvetica, Arial, 'PingFang SC', 'Microsoft YaHei', Ubuntu, Cantarell, 'Noto Sans', sans-serif" fill="rgba(51,51,51,1.000)" fill-opacity="1.000" text-anchor="end" font-weight="normal" dominant-baseline="central" transform="rotate(0 78.300 311.000)">0</text>
<path d="M 88.300 273.492 L 82.300 273.492" fill="none" stroke="rgba(51,51,51,1.000)" stroke-width="1.000" stroke-opacity="1.000" stroke-linejoin="round" stroke-linecap="round" />
<text x="78.300" y="273.492" font-size="13.0" font-family="Inter, -apple-system, BlinkMacSystemFont, 'Segoe UI', Roboto, Helvetica, Arial, 'PingFang SC', 'Microsoft YaHei', Ubuntu, Cantarell, 'Noto Sans', sans-serif" fill="rgba(51,51,51,1.000)" fill-opacity="1.000" text-anchor="end" font-weight="normal" dominant-baseline="central" transform="rotate(0 78.300 273.492)">10</text>
<path d="M 88.300 235.983 L 82.300 235.983" fill="none" stroke="rgba(51,51,51,1.000)" stroke-width="1.000" stroke-opacity="1.000" stroke-linejoin="round" stroke-linecap="round" />
<text x="78.300" y="235.983" font-size="13.0" font-family="Inter, -apple-system, BlinkMacSystemFont, 'Segoe UI', Roboto, Helvetica, Arial, 'PingFang SC', 'Microsoft YaHei', Ubuntu, Cantarell, 'Noto Sans', sans-serif" fill="rgba(51,51,51,1.000)" fill-opacity="1.000" text-anchor="end" font-weight="normal" dominant-baseline="central" transform="rotate(0 78.300 235.983)">20</text>
<path d="M 88.300 198.475 L 82.300 198.475" fill="none" stroke="rgba(51,51,51,1.000)" stroke-width="1.000" stroke-opacity="1.000" stroke-linejoin="round" stroke-linecap="round" />
<text x="78.300" y="198.475" font-size="13.0" font-family="Inter, -apple-system, BlinkMacSystemFont, 'Segoe UI', Roboto, Helvetica, Arial, 'PingFang SC', 'Microsoft YaHei', Ubuntu, Cantarell, 'Noto Sans', sans-serif" fill="rgba(51,51,51,1.000)" fill-opacity="1.000" text-anchor="end" font-weight="normal" dominant-baseline="central" transform="rotate(0 78.300 198.475)">30</text>
<path d="M 88.300 160.966 L 82.300 160.966" fill="none" stroke="rgba(51,51,51,1.000)" stroke-width="1.000" stroke-opacity="1.000" stroke-linejoin="round" stroke-linecap="round" />
<text x="78.300" y="160.966" font-size="13.0" font-family="Inter, -apple-system, BlinkMacSystemFont, 'Segoe UI', Roboto, Helvetica, Arial, 'PingFang SC', 'Microsoft YaHei', Ubuntu, Cantarell, 'Noto Sans', sans-serif" fill="rgba(51,51,51,1.000)" fill-opacity="1.000" text-anchor="end" font-weight="normal" dominant-baseline="central" transform="rotate(0 78.300 160.966)">40</text>
<path d="M 88.300 123.458 L 82.300 123.458" fill="none" stroke="rgba(51,51,51,1.000)" stroke-width="1.000" stroke-opacity="1.000" stroke-linejoin="round" stroke-linecap="round" />
<text x="78.300" y="123.458" font-size="13.0" font-family="Inter, -apple-system, BlinkMacSystemFont, 'Segoe UI', Roboto, Helvetica, Arial, 'PingFang SC', 'Microsoft YaHei', Ubuntu, Cantarell, 'Noto Sans', sans-serif" fill="rgba(51,51,51,1.000)" fill-opacity="1.000" text-anchor="end" font-weight="normal" dominant-baseline="central" transform="rotate(0 78.300 123.458)">50</text>
<path d="M 88.300 85.950 L 82.300 85.950" fill="none" stroke="rgba(51,51,51,1.000)" stroke-width="1.000" stroke-opacity="1.000" stroke-linejoin="round" stroke-linecap="round" />
<text x="78.300" y="85.950" font-size="13.0" font-family="Inter, -apple-system, BlinkMacSystemFont, 'Segoe UI', Roboto, Helvetica, Arial, 'PingFang SC', 'Microsoft YaHei', Ubuntu, Cantarell, 'Noto Sans', sans-serif" fill="rgba(51,51,51,1.000)" fill-opacity="1.000" text-anchor="end" font-weight="normal" dominant-baseline="central" transform="rotate(0 78.300 85.950)">60</text>
<path d="M 88.300 48.441 L 82.300 48.441" fill="none" stroke="rgba(51,51,51,1.000)" stroke-width="1.000" stroke-opacity="1.000" stroke-linejoin="round" stroke-linecap="round" />
<text x="78.300" y="48.441" font-size="13.0" font-family="Inter, -apple-system, BlinkMacSystemFont, 'Segoe UI', Roboto, Helvetica, Arial, 'PingFang SC', 'Microsoft YaHei', Ubuntu, Cantarell, 'Noto Sans', sans-serif" fill="rgba(51,51,51,1.000)" fill-opacity="1.000" text-anchor="end" font-weight="normal" dominant-baseline="central" transform="rotate(0 78.300 48.441)">70</text>
<text x="47.500" y="175.500" font-size="15.0" font-family="Inter, -apple-system, BlinkMacSystemFont, 'Segoe UI', Roboto, Helvetica, Arial, 'PingFang SC', 'Microsoft YaHei', Ubuntu, Cantarell, 'Noto Sans', sans-serif" fill="rgba(51,51,51,1.000)" fill-opacity="1.000" text-anchor="middle" font-weight="bold" dominant-baseline="middle" transform="rotate(-90 47.500 175.500)">Unemployment rate (%)</text>
<path d="M 101.468 287.857 L 127.783 288.307 L 154.170 288.457 L 180.484 288.532 L 206.799 289.095 L 233.114 289.095 L 259.501 289.808 L 285.816 293.146 L 312.130 295.397 L 338.445 293.108 L 364.832 293.221 L 364.832 311.000 L 338.445 311.000 L 312.130 311.000 L 285.816 311.000 L 259.501 311.000 L 233.114 311.000 L 206.799 311.000 L 180.484 311.000 L 154.170 311.000 L 127.783 311.000 L 101.468 311.000 Z" fill="rgba(31,119,180,1.000)" fill-opacity="1.000" stroke="none" />
<path d="M 101.468 230.282 L 127.783 230.357 L 154.170 236.958 L 180.484 244.048 L 206.799 251.924 L 233.114 257.701 L 259.501 264.640 L 285.816 271.616 L 312.130 276.830 L 338.445 272.029 L 364.832 268.353 L 364.832 293.221 L 338.445 293.108 L 312.130 295.397 L 285.816 293.146 L 259.501 289.808 L 233.114 289.095 L 206.799 289.095 L 180.484 288.532 L 154.170 288.457 L 127.783 288.307 L 101.468 287.857 Z" fill="rgba(255,127,14,1.000)" fill-opacity="1.000" stroke="none" />
<path d="M 101.468 205.226 L 127.783 209.427 L 154.170 217.829 L 180.484 230.057 L 206.799 234.295 L 233.114 242.622 L 259.501 249.261 L 285.816 256.200 L 312.130 257.701 L 338.445 257.701 L 364.832 253.500 L 364.832 268.353 L 338.445 272.029 L 312.130 276.830 L 285.816 271.616 L 259.501 264.640 L 233.114 257.701 L 206.799 251.924 L 180.484 244.048 L 154.170 236.958 L 127.783 230.357 L 101.468 230.282 Z" fill="rgba(44,160,44,1.000)" fill-opacity="1.000" stroke="none" />
<path d="M 101.468 181.296 L 127.783 186.172 L 154.170 194.912 L 180.484 208.602 L 206.799 214.116 L 233.114 225.031 L 259.501 234.258 L 285.816 242.472 L 312.130 244.123 L 338.445 241.722 L 364.832 240.372 L 364.832 253.500 L 338.445 257.701 L 312.130 257.701 L 285.816 256.200 L 259.501 249.261 L 233.114 242.622 L 206.799 234.295 L 180.484 230.057 L 154.170 217.829 L 127.783 209.427 L 101.468 205.226 Z" fill="rgba(214,39,40,1.000)" fill-opacity="1.000" stroke="none" />
<path d="M 101.468 122.408 L 127.783 131.785 L 154.170 141.275 L 180.484 156.465 L 206.799 169.106 L 233.114 180.771 L 259.501 193.749 L 285.816 207.964 L 312.130 212.991 L 338.445 208.377 L 364.832 209.352 L 364.832 240.372 L 338.445 241.722 L 312.130 244.123 L 285.816 242.472 L 259.501 234.258 L 233.114 225.031 L 206.799 214.116 L 180.484 208.602 L 154.170 194.912 L 127.783 186.172 L 101.468 181.296 Z" fill="rgba(148,103,189,1.000)" fill-opacity="1.000" stroke="none" />
<path d="M 101.468 83.549 L 127.783 96.377 L 154.170 109.092 L 180.484 127.772 L 206.799 143.750 L 233.114 164.042 L 259.501 179.908 L 285.816 195.662 L 312.130 202.263 L 338.445 194.799 L 364.832 195.399 L 364.832 209.352 L 338.445 208.377 L 312.130 212.991 L 285.816 207.964 L 259.501 193.749 L 233.114 180.771 L 206.799 169.106 L 180.484 156.465 L 154.170 141.275 L 127.783 131.785 L 101.468 122.408 Z" fill="rgba(140,86,75,1.000)" fill-opacity="1.000" stroke="none" />
<path d="M 101.468 52.905 L 127.783 63.220 L 154.170 71.209 L 180.484 91.501 L 206.799 110.143 L 233.114 134.035 L 259.501 155.303 L 285.816 176.495 L 312.130 185.572 L 338.445 176.157 L 364.832 178.820 L 364.832 195.399 L 338.445 194.799 L 312.130 202.263 L 285.816 195.662 L 259.501 179.908 L 233.114 164.042 L 206.799 143.750 L 180.484 127.772 L 154.170 109.092 L 127.783 96.377 L 101.468 83.549 Z" fill="rgba(227,119,194,1.000)" fill-opacity="1.000" stroke="none" />
<text x="393.000" y="46.000" font-size="13.2" font-family="Inter, -apple-system, BlinkMacSystemFont, 'Segoe UI', Roboto, Helvetica, Arial, 'PingFang SC', 'Microsoft YaHei', Ubuntu, Cantarell, 'Noto Sans', sans-serif" fill="rgba(51,51,51,1.000)" fill-opacity="1.000" text-anchor="start" font-weight="bold" dominant-baseline="central" transform="rotate(0 393.000 46.000)">Country</text>
<circle cx="402.000" cy="69.200" r="5.000" fill="rgba(31,119,180,1.000)" stroke="none" stroke-width="0.000" fill-opacity="1.000" stroke-opacity="1.000" />
<text x="419.000" y="69.200" font-size="12.0" font-family="Inter, -apple-system, BlinkMacSystemFont, 'Segoe UI', Roboto, Helvetica, Arial, 'PingFang SC', 'Microsoft YaHei', Ubuntu, Cantarell, 'Noto Sans', sans-serif" fill="rgba(51,51,51,1.000)" fill-opacity="1.000" text-anchor="start" font-weight="normal" dominant-baseline="central" transform="rotate(0 419.000 69.200)">Belarus</text>
<circle cx="402.000" cy="90.200" r="5.000" fill="rgba(255,127,14,1.000)" stroke="none" stroke-width="0.000" fill-opacity="1.000" stroke-opacity="1.000" />
<text x="419.000" y="90.200" font-size="12.0" font-family="Inter, -apple-system, BlinkMacSystemFont, 'Segoe UI', Roboto, Helvetica, Arial, 'PingFang SC', 'Microsoft YaHei', Ubuntu, Cantarell, 'Noto Sans', sans-serif" fill="rgba(51,51,51,1.000)" fill-opacity="1.000" text-anchor="start" font-weight="normal" dominant-baseline="central" transform="rotate(0 419.000 90.200)">Ireland</text>
<circle cx="402.000" cy="111.200" r="5.000" fill="rgba(44,160,44,1.000)" stroke="none" stroke-width="0.000" fill-opacity="1.000" stroke-opacity="1.000" />
<text x="419.000" y="111.200" font-size="12.0" font-family="Inter, -apple-system, BlinkMacSystemFont, 'Segoe UI', Roboto, Helvetica, Arial, 'PingFang SC', 'Microsoft YaHei', Ubuntu, Cantarell, 'Noto Sans', sans-serif" fill="rgba(51,51,51,1.000)" fill-opacity="1.000" text-anchor="start" font-weight="normal" dominant-baseline="central" transform="rotate(0 419.000 111.200)">Moldova</text>
<circle cx="402.000" cy="132.200" r="5.000" fill="rgba(214,39,40,1.000)" stroke="none" stroke-width="0.000" fill-opacity="1.000" stroke-opacity="1.000" />
<text x="419.000" y="132.200" font-size="12.0" font-family="Inter, -apple-system, BlinkMacSystemFont, 'Segoe UI', Roboto, Helvetica, Arial, 'PingFang SC', 'Microsoft YaHei', Ubuntu, Cantarell, 'Noto Sans', sans-serif" fill="rgba(51,51,51,1.000)" fill-opacity="1.000" text-anchor="start" font-weight="normal" dominant-baseline="central" transform="rotate(0 419.000 132.200)">Malta</text>
<circle cx="402.000" cy="153.200" r="5.000" fill="rgba(148,103,189,1.000)" stroke="none" stroke-width="0.000" fill-opacity="1.000" stroke-opacity="1.000" />
<text x="419.000" y="153.200" font-size="12.0" font-family="Inter, -apple-system, BlinkMacSystemFont, 'Segoe UI', Roboto, Helvetica, Arial, 'PingFang SC', 'Microsoft YaHei', Ubuntu, Cantarell, 'Noto Sans', sans-serif" fill="rgba(51,51,51,1.000)" fill-opacity="1.000" text-anchor="start" font-weight="normal" dominant-baseline="central" transform="rotate(0 419.000 153.200)">Puerto Rico</text>
<circle cx="402.000" cy="174.200" r="5.000" fill="rgba(140,86,75,1.000)" stroke="none" stroke-width="0.000" fill-opacity="1.000" stroke-opacity="1.000" />
<text x="419.000" y="174.200" font-size="12.0" font-family="Inter, -apple-system, BlinkMacSystemFont, 'Segoe UI', Roboto, Helvetica, Arial, 'PingFang SC', 'Microsoft YaHei', Ubuntu, Cantarell, 'Noto Sans', sans-serif" fill="rgba(51,51,51,1.000)" fill-opacity="1.000" text-anchor="start" font-weight="normal" dominant-baseline="central" transform="rotate(0 419.000 174.200)">Senegal</text>
<circle cx="402.000" cy="195.200" r="5.000" fill="rgba(227,119,194,1.000)" stroke="none" stroke-width="0.000" fill-opacity="1.000" stroke-opacity="1.000" />
<text x="419.000" y="195.200" font-size="12.0" font-family="Inter, -apple-system, BlinkMacSystemFont, 'Segoe UI', Roboto, Helvetica, Arial, 'PingFang SC', 'Microsoft YaHei', Ubuntu, Cantarell, 'Noto Sans', sans-serif" fill="rgba(51,51,51,1.000)" fill-opacity="1.000" text-anchor="start" font-weight="normal" dominant-baseline="central" transform="rotate(0 419.000 195.200)">Slovenia</text>
</svg>