<svg width="500" height="400" viewBox="0 0 500 400" xmlns="http://www.w3.org/2000/svg"><rect x="0.000" y="0.000" width="500.000" height="400.000" fill="rgba(255,255,255,1.000)" stroke="none" stroke-width="0.000" fill-opacity="1.000" stroke-opacity="1.000" />
<path d="M 105.191 276.591 L 131.151 272.098 L 157.183 268.428 L 183.143 258.815 L 209.104 250.455 L 235.064 239.051 L 261.096 229.581 L 287.057 222.653 L 313.017 220.469 L 338.977 222.778 L 365.009 221.615 L 365.009 238.586 L 338.977 239.857 L 313.017 235.363 L 287.057 239.696 L 261.096 249.810 L 235.064 259.960 L 209.104 271.364 L 183.143 280.261 L 157.183 289.946 L 131.151 293.759 L 105.191 298.682 Z" fill="rgba(31,119,180,1.000)" fill-opacity="1.000" stroke="none" />
<path d="M 105.191 221.633 L 131.151 216.781 L 157.183 219.270 L 183.143 216.352 L 209.104 214.973 L 235.064 209.084 L 261.096 205.557 L 287.057 202.102 L 313.017 202.746 L 338.977 202.657 L 365.009 197.877 L 365.009 221.615 L 338.977 222.778 L 313.017 220.469 L 287.057 222.653 L 261.096 229.581 L 235.064 239.051 L 209.104 250.455 L 183.143 258.815 L 157.183 268.428 L 131.151 272.098 L 105.191 276.591 Z" fill="rgba(255,127,14,1.000)" fill-opacity="1.000" stroke="none" />
<path d="M 105.191 197.716 L 131.151 196.803 L 157.183 201.010 L 183.143 202.997 L 209.104 198.146 L 235.064 194.691 L 261.096 190.878 L 287.057 187.387 L 313.017 184.487 L 338.977 188.980 L 365.009 183.699 L 365.009 197.877 L 338.977 202.657 L 313.017 202.746 L 287.057 202.102 L 261.096 205.557 L 235.064 209.084 L 209.104 214.973 L 183.143 216.352 L 157.183 219.270 L 131.151 216.781 L 105.191 221.633 Z" fill="rgba(44,160,44,1.000)" fill-opacity="1.000" stroke="none" />
<path d="M 105.191 174.873 L 131.151 174.605 L 157.183 179.134 L 183.143 182.517 L 209.104 178.883 L 235.064 177.899 L 261.096 176.556 L 287.057 174.283 L 313.017 171.526 L 338.977 173.728 L 365.009 171.168 L 365.009 183.699 L 338.977 188.980 L 313.017 184.487 L 287.057 187.387 L 261.096 190.878 L 235.064 194.691 L 209.104 198.146 L 183.143 202.997 L 157.183 201.010 L 131.151 196.803 L 105.191 197.716 Z" fill="rgba(214,39,40,1.000)" fill-opacity="1.000" stroke="none" />
<path d="M 105.191 118.662 L 131.151 122.690 L 157.183 127.935 L 183.143 132.751 L 209.104 135.919 L 235.064 135.651 L 261.096 137.888 L 287.057 141.343 L 313.017 141.809 L 338.977 141.898 L 365.009 141.558 L 365.009 171.168 L 338.977 173.728 L 313.017 171.526 L 287.057 174.283 L 261.096 176.556 L 235.064 177.899 L 209.104 178.883 L 183.143 182.517 L 157.183 179.134 L 131.151 174.605 L 105.191 174.873 Z" fill="rgba(148,103,189,1.000)" fill-opacity="1.000" stroke="none" />
<path d="M 105.191 81.570 L 131.151 88.891 L 157.183 97.216 L 183.143 105.361 L 209.104 111.716 L 235.064 119.682 L 261.096 124.677 L 287.057 129.600 L 313.017 131.569 L 338.977 128.938 L 365.009 128.239 L 365.009 141.558 L 338.977 141.898 L 313.017 141.809 L 287.057 141.343 L 261.096 137.888 L 235.064 135.651 L 209.104 135.919 L 183.143 132.751 L 157.183 127.935 L 131.151 122.690 L 105.191 118.662 Z" fill="rgba(140,86,75,1.000)" fill-opacity="1.000" stroke="none" />
<path d="M 105.191 52.318 L 131.151 57.241 L 157.183 61.054 L 183.143 70.739 L 209.104 79.636 L 235.064 91.040 L 261.096 101.190 L 287.057 111.304 L 313.017 115.637 L 338.977 111.143 L 365.009 112.414 L 365.009 128.239 L 338.977 128.938 L 313.017 131.569 L 287.057 129.600 L 261.096 124.677 L 235.064 119.682 L 209.104 111.716 L 183.143 105.361 L 157.183 97.216 L 131.151 88.891 L 105.191 81.570 Z" fill="rgba(227,119,194,1.000)" fill-opacity="1.000" stroke="none" />
<path d="M 92.200 311.000 L 378.000 311.000" fill="none" stroke="rgba(51,51,51,1.000)" stroke-width="1.000" stroke-opacity="1.000" stroke-linejoin="round" stroke-linecap="round" />
<path d="M 131.151 311.000 L 131.151 317.000" fill="none" stroke="rgba(51,51,51,1.000)" stroke-width="1.000" stroke-opacity="1.000" stroke-linejoin="round" stroke-linecap="round" />
<text x="131.151" y="320.000" font-size="13.0" font-family="Inter, -apple-system, BlinkMacSystemFont, 'Segoe UI', Roboto, Helvetica, Arial, 'PingFang SC', 'Microsoft YaHei', Ubuntu, Cantarell, 'Noto Sans', sans-serif" fill="rgba(51,51,51,1.000)" fill-opacity="1.000" text-anchor="middle" font-weight="normal" dominant-baseline="hanging" transform="rotate(0 131.151 320.000)">2012</text>
<path d="M 183.143 311.000 L 183.143 317.000" fill="none" stroke="rgba(51,51,51,1.000)" stroke-width="1.000" stroke-opacity="1.000" stroke-linejoin="round" stroke-linecap="round" />
<text x="183.143" y="320.000" font-size="13.0" font-family="Inter, -apple-system, BlinkMacSystemFont, 'Segoe UI', Roboto, Helvetica, Arial, 'PingFang SC', 'Microsoft YaHei', Ubuntu, Cantarell, 'Noto Sans', sans-serif" fill="rgba(51,51,51,1.000)" fill-opacity="1.000" text-anchor="middle" font-weight="normal" dominant-baseline="hanging" transform="rotate(0 183.143 320.000)">2014</text>
<path d="M 235.064 311.000 L 235.064 317.000" fill="none" stroke="rgba(51,51,51,1.000)" stroke-width="1.000" stroke-opacity="1.000" stroke-linejoin="round" stroke-linecap="round" />
<text x="235.064" y="320.000" font-size="13.0" font-family="Inter, -apple-system, BlinkMacSystemFont, 'Segoe UI', Roboto, Helvetica, Arial, 'PingFang SC', 'Microsoft YaHei', Ubuntu, Cantarell, 'Noto Sans', sans-serif" fill="rgba(51,51,51,1.000)" fill-opacity="1.000" text-anchor="middle" font-weight="normal" dominant-baseline="hanging" transform="rotate(0 235.064 320.000)">2016</text>
<path d="M 287.057 311.000 L 287.057 317.000" fill="none" stroke="rgba(51,51,51,1.000)" stroke-width="1.000" stroke-opacity="1.000" stroke-linejoin="round" stroke-linecap="round" />
<text x="287.057" y="320.000" font-size="13.0" font-family="Inter, -apple-system, BlinkMacSystemFont, 'Segoe UI', Roboto, Helvetica, Arial, 'PingFang SC', 'Microsoft YaHei', Ubuntu, Cantarell, 'Noto Sans', sans-serif" fill="rgba(51,51,51,1.000)" fill-opacity="1.000" text-anchor="middle" font-weight="normal" dominant-baseline="hanging" transform="rotate(0 287.057 320.000)">2018</text>
<path d="M 338.977 311.000 L 338.977 317.000" fill="none" stroke="rgba(51,51,51,1.000)" stroke-width="1.000" stroke-opacity="1.000" stroke-linejoin="round" stroke-linecap="round" />
<text x="338.977" y="320.000" font-size="13.0" font-family="Inter, -apple-system, BlinkMacSystemFont, 'Segoe UI', Roboto, Helvetica, Arial, 'PingFang SC', 'Microsoft YaHei', Ubuntu, Cantarell, 'Noto Sans', sans-serif" fill="rgba(51,51,51,1.000)" fill-opacity="1.000" text-anchor="middle" font-weight="normal" dominant-baseline="hanging" transform="rotate(0 338.977 320.000)">2020</text>
<text x="235.100" y="340.000" font-size="15.0" font-family="Inter, -apple-system, BlinkMacSystemFont, 'Segoe UI', Roboto, Helvetica, Arial, 'PingFang SC', 'Microsoft YaHei', Ubuntu, Cantarell, 'Noto Sans', sans-serif" fill="rgba(51,51,51,1.000)" fill-opacity="1.000" text-anchor="middle" font-weight="bold" dominant-baseline="hanging" transform="rotate(0 235.100 340.000)">Year</text>
<path d="M 92.200 40.000 L 92.200 311.000" fill="none" stroke="rgba(51,51,51,1.000)" stroke-width="1.000" stroke-opacity="1.000" stroke-linejoin="round" stroke-linecap="round" />
<path d="M 92.200 247.107 L 86.200 247.107" fill="none" stroke="rgba(51,51,51,1.000)" stroke-width="1.000" stroke-opacity="1.000" stroke-linejoin="round" stroke-linecap="round" />
<text x="82.200" y="247.107" font-size="13.0" font-family="Inter, -apple-system, BlinkMacSystemFont, 'Segoe UI', Roboto, Helvetica, Arial, 'PingFang SC', 'Microsoft YaHei', Ubuntu, Cantarell, 'Noto Sans', sans-serif" fill="rgba(51,51,51,1.000)" fill-opacity="1.000" text-anchor="end" font-weight="normal" dominant-baseline="central" transform="rotate(0 82.200 247.107)">-20</text>
<path d="M 92.200 175.500 L 86.200 175.500" fill="none" stroke="rgba(51,51,51,1.000)" stroke-width="1.000" stroke-opacity="1.000" stroke-linejoin="round" stroke-linecap="round" />
<text x="82.200" y="175.500" font-size="13.0" font-family="Inter, -apple-system, BlinkMacSystemFont, 'Segoe UI', Roboto, Helvetica, Arial, 'PingFang SC', 'Microsoft YaHei', Ubuntu, Cantarell, 'Noto Sans', sans-serif" fill="rgba(51,51,51,1.000)" fill-opacity="1.000" text-anchor="end" font-weight="normal" dominant-baseline="central" transform="rotate(0 82.200 175.500)">0</text>
<path d="M 92.200 103.893 L 86.200 103.893" fill="none" stroke="rgba(51,51,51,1.000)" stroke-width="1.000" stroke-opacity="1.000" stroke-linejoin="round" stroke-linecap="round" />
<text x="82.200" y="103.893" font-size="13.0" font-family="Inter, -apple-system, BlinkMacSystemFont, 'Segoe UI', Roboto, Helvetica, Arial, 'PingFang SC', 'Microsoft YaHei', Ubuntu, Cantarell, 'Noto Sans', sans-serif" fill="rgba(51,51,51,1.000)" fill-opacity="1.000" text-anchor="end" font-weight="normal" dominant-baseline="central" transform="rotate(0 82.200 103.893)">20</text>
<text x="47.500" y="175.500" font-size="15.0" font-family="Inter, -apple-system, BlinkMacSystemFont, 'Segoe UI', Roboto, Helvetica, Arial, 'PingFang SC', 'Microsoft YaHei', Ubuntu, Cantarell, 'Noto Sans', sans-serif" fill="rgba(51,51,51,1.000)" fill-opacity="1.000" text-anchor="middle" font-weight="bold" dominant-baseline="middle" transform="rotate(-90 47.500 175.500)">Unemployment rate (%)</text>
<text x="393.000" y="46.000" font-size="13.2" font-family="Inter, -apple-system, BlinkMacSystemFont, 'Segoe UI', Roboto, Helvetica, Arial, 'PingFang SC', 'Microsoft YaHei', Ubuntu, Cantarell, 'Noto Sans', sans-serif" fill="rgba(51,51,51,1.000)" fill-opacity="1.000" text-anchor="start" font-weight="bold" dominant-baseline="central" transform="rotate(0 393.000 46.000)">Country</text>
<circle cx="402.000" cy="69.200" r="5.000" fill="rgba(31,119,180,1.000)" stroke="none" stroke-width="0.000" fill-opacity="1.000" stroke-opacity="1.000" />
<text x="419.000" y="69.200" font-size="12.0" font-family="Inter, -apple-system, BlinkMacSystemFont, 'Segoe UI', Roboto, Helvetica, Arial, 'PingFang SC', 'Microsoft YaHei', Ubuntu, Cantarell, 'Noto Sans', sans-serif" fill="rgba(51,51,51,1.000)" fill-opacity="1.000" text-anchor="start" font-weight="normal" dominant-baseline="central" transform="rotate(0 419.000 69.200)">Belarus</text>
<circle cx="402.000" cy="90.200" r="5.000" fill="rgba(255,127,14,1.000)" stroke="none" stroke-width="0.000" fill-opacity="1.000" stroke-opacity="1.000" />
<text x="419.000" y="90.200" font-size="12.0" font-family="Inter, -apple-system, BlinkMacSystemFont, 'Segoe UI', Roboto, Helvetica, Arial, 'PingFang SC', 'Microsoft YaHei', Ubuntu, Cantarell, 'Noto Sans', sans-serif" fill="rgba(51,51,51,1.000)" fill-opacity="1.000" text-anchor="start" font-weight="normal" dominant-baseline="central" transform="rotate(0 419.000 90.200)">Ireland</text>
<circle cx="402.000" cy="111.200" r="5.000" fill="rgba(44,160,44,1.000)" stroke="none" stroke-width="0.000" fill-opacity="1.000" stroke-opacity="1.000" />
<text x="419.000" y="111.200" font-size="12.0" font-family="Inter, -apple-system, BlinkMacSystemFont, 'Segoe UI', Roboto, Helvetica, Arial, 'PingFang SC', 'Microsoft YaHei', Ubuntu, Cantarell, 'Noto Sans', sans-serif" fill="rgba(51,51,51,1.000)" fill-opacity="1.000" text-anchor="start" font-weight="normal" dominant-baseline="central" transform="rotate(0 419.000 111.200)">Moldova</text>
<circle cx="402.000" cy="132.200" r="5.000" fill="rgba(214,39,40,1.000)" stroke="none" stroke-width="0.000" fill-opacity="1.000" stroke-opacity="1.000" />
<text x="419.000" y="132.200" font-size="12.0" font-family="Inter, -apple-system, BlinkMacSystemFont, 'Segoe UI', Roboto, Helvetica, Arial, 'PingFang SC', 'Microsoft YaHei', Ubuntu, Cantarell, 'Noto Sans', sans-serif" fill="rgba(51,51,51,1.000)" fill-opacity="1.000" text-anchor="start" font-weight="normal" dominant-baseline="central" transform="rotate(0 419.000 132.200)">Malta</text>
<circle cx="402.000" cy="153.200" r="5.000" fill="rgba(148,103,189,1.000)" stroke="none" stroke-width="0.000" fill-opacity="1.000" stroke-opacity="1.000" />
<text x="419.000" y="153.200" font-size="12.0" font-family="Inter, -apple-system, BlinkMacSystemFont, 'Segoe UI', Roboto, Helvetica, Arial, 'PingFang SC', 'Microsoft YaHei', Ubuntu, Cantarell, 'Noto Sans', sans-serif" fill="rgba(51,51,51,1.000)" fill-opacity="1.000" text-anchor="start" font-weight="normal" dominant-baseline="central" transform="rotate(0 419.000 153.200)">Puerto Rico</text>
<circle cx="402.000" cy="174.200" r="5.000" fill="rgba(140,86,75,1.000)" stroke="none" stroke-width="0.000" fill-opacity="1.000" stroke-opacity="1.000" />
<text x="419.000" y="174.200" font-size="12.0" font-family="Inter, -apple-system, BlinkMacSystemFont, 'Segoe UI', Roboto, Helvetica, Arial, 'PingFang SC', 'Microsoft YaHei', Ubuntu, Cantarell, 'Noto Sans', sans-serif" fill="rgba(51,51,51,1.000)" fill-opacity="1.000" text-anchor="start" font-weight="normal" dominant-baseline="central" transform="rotate(0 419.000 174.200)">Senegal</text>
<circle cx="402.000" cy="195.200" r="5.000" fill="rgba(227,119,194,1.000)" stroke="none" stroke-width="0.000" fill-opacity="1.000" stroke-opacity="1.000" />
<text x="419.000" y="195.200" font-size="12.0" font-family="Inter, -apple-system, BlinkMacSystemFont, 'Segoe UI', Roboto, Helvetica, Arial, 'PingFang SC', 'Microsoft YaHei', Ubuntu, Cantarell, 'Noto Sans', sans-serif" fill="rgba(51,51,51,1.000)" fill-opacity="1.000" text-anchor="start" font-weight="normal" dominant-baseline="central" transform="rotate(0 419.000 195.200)">Slovenia</text>
</svg>