<svg width="500" height="400" viewBox="0 0 500 400" xmlns="http://www.w3.org/2000/svg"><rect width="100%" height="100%" fill="rgba(255,255,255,1.000)" /><line x1="92.20" y1="311.00" x2="378.00" y2="311.00" stroke="rgba(51,51,51,1.000)" stroke-width="1" stroke-linecap="square"/>
<line x1="131.15" y1="311.00" x2="131.15" y2="317.00" stroke="rgba(51,51,51,1.000)" stroke-width="1.0"/>
<text x="131.15" y="320.00" font-size="13" font-family="Inter, -apple-system, BlinkMacSystemFont, 'Segoe UI', Roboto, Helvetica, Arial, 'PingFang SC', 'Microsoft YaHei', Ubuntu, Cantarell, 'Noto Sans', sans-serif" fill="rgba(51,51,51,1.000)" text-anchor="middle" dominant-baseline="hanging">2012</text>
<line x1="183.14" y1="311.00" x2="183.14" y2="317.00" stroke="rgba(51,51,51,1.000)" stroke-width="1.0"/>
<text x="183.14" y="320.00" font-size="13" font-family="Inter, -apple-system, BlinkMacSystemFont, 'Segoe UI', Roboto, Helvetica, Arial, 'PingFang SC', 'Microsoft YaHei', Ubuntu, Cantarell, 'Noto Sans', sans-serif" fill="rgba(51,51,51,1.000)" text-anchor="middle" dominant-baseline="hanging">2014</text>
<line x1="235.06" y1="311.00" x2="235.06" y2="317.00" stroke="rgba(51,51,51,1.000)" stroke-width="1.0"/>
<text x="235.06" y="320.00" font-size="13" font-family="Inter, -apple-system, BlinkMacSystemFont, 'Segoe UI', Roboto, Helvetica, Arial, 'PingFang SC', 'Microsoft YaHei', Ubuntu, Cantarell, 'Noto Sans', sans-serif" fill="rgba(51,51,51,1.000)" text-anchor="middle" dominant-baseline="hanging">2016</text>
<line x1="287.06" y1="311.00" x2="287.06" y2="317.00" stroke="rgba(51,51,51,1.000)" stroke-width="1.0"/>
<text x="287.06" y="320.00" font-size="13" font-family="Inter, -apple-system, BlinkMacSystemFont, 'Segoe UI', Roboto, Helvetica, Arial, 'PingFang SC', 'Microsoft YaHei', Ubuntu, Cantarell, 'Noto Sans', sans-serif" fill="rgba(51,51,51,1.000)" text-anchor="middle" dominant-baseline="hanging">2018</text>
<line x1="338.98" y1="311.00" x2="338.98" y2="317.00" stroke="rgba(51,51,51,1.000)" stroke-width="1.0"/>
<text x="338.98" y="320.00" font-size="13" font-family="Inter, -apple-system, BlinkMacSystemFont, 'Segoe UI', Roboto, Helvetica, Arial, 'PingFang SC', 'Microsoft YaHei', Ubuntu, Cantarell, 'Noto Sans', sans-serif" fill="rgba(51,51,51,1.000)" text-anchor="middle" dominant-baseline="hanging">2020</text>
<text x="235.10" y="340.00" text-anchor="middle" font-size="15" font-family="Inter, -apple-system, BlinkMacSystemFont, 'Segoe UI', Roboto, Helvetica, Arial, 'PingFang SC', 'Microsoft YaHei', Ubuntu, Cantarell, 'Noto Sans', sans-serif" fill="rgba(51,51,51,1.000)" font-weight="bold" dominant-baseline="hanging">Year</text>
<line x1="92.20" y1="40.00" x2="92.20" y2="311.00" stroke="rgba(51,51,51,1.000)" stroke-width="1" stroke-linecap="square"/>
<line x1="92.20" y1="247.11" x2="86.20" y2="247.11" stroke="rgba(51,51,51,1.000)" stroke-width="1.0"/>
<text x="82.20" y="247.11" font-size="13" font-family="Inter, -apple-system, BlinkMacSystemFont, 'Segoe UI', Roboto, Helvetica, Arial, 'PingFang SC', 'Microsoft YaHei', Ubuntu, Cantarell, 'Noto Sans', sans-serif" fill="rgba(51,51,51,1.000)" text-anchor="end" dominant-baseline="central">-20</text>
<line x1="92.20" y1="175.50" x2="86.20" y2="175.50" stroke="rgba(51,51,51,1.000)" stroke-width="1.0"/>
<text x="82.20" y="175.50" font-size="13" font-family="Inter, -apple-system, BlinkMacSystemFont, 'Segoe UI', Roboto, Helvetica, Arial, 'PingFang SC', 'Microsoft YaHei', Ubuntu, Cantarell, 'Noto Sans', sans-serif" fill="rgba(51,51,51,1.000)" text-anchor="end" dominant-baseline="central">0</text>
<line x1="92.20" y1="103.89" x2="86.20" y2="103.89" stroke="rgba(51,51,51,1.000)" stroke-width="1.0"/>
<text x="82.20" y="103.89" font-size="13" font-family="Inter, -apple-system, BlinkMacSystemFont, 'Segoe UI', Roboto, Helvetica, Arial, 'PingFang SC', 'Microsoft YaHei', Ubuntu, Cantarell, 'Noto Sans', sans-serif" fill="rgba(51,51,51,1.000)" text-anchor="end" dominant-baseline="central">20</text>
<text x="47.50" y="175.50" text-anchor="middle" font-size="15" font-family="Inter, -apple-system, BlinkMacSystemFont, 'Segoe UI', Roboto, Helvetica, Arial, 'PingFang SC', 'Microsoft YaHei', Ubuntu, Cantarell, 'Noto Sans', sans-serif" fill="rgba(51,51,51,1.000)" font-weight="bold" transform="rotate(-90, 47.50, 175.50)" dominant-baseline="middle">Unemployment rate (%)</text>
<defs><clipPath id="plot-clip-area"><rect x="92.200" y="40.000" width="285.800" height="271.000" /></clipPath></defs>
<polygon points="105.191,276.591 131.151,272.098 157.183,268.428 183.143,258.815 209.104,250.455 235.064,239.051 261.096,229.581 287.057,222.653 313.017,220.469 338.977,222.778 365.009,221.615 365.009,238.586 338.977,239.857 313.017,235.363 287.057,239.696 261.096,249.810 235.064,259.960 209.104,271.364 183.143,280.261 157.183,289.946 131.151,293.759 105.191,298.682" fill="rgba(31,119,180,1.000)" stroke="none" stroke-width="0.000" fill-opacity="1.000" stroke-opacity="0.000" clip-path="url(#plot-clip-area)" />
<polygon points="105.191,221.633 131.151,216.781 157.183,219.270 183.143,216.352 209.104,214.973 235.064,209.084 261.096,205.557 287.057,202.102 313.017,202.746 338.977,202.657 365.009,197.877 365.009,221.615 338.977,222.778 313.017,220.469 287.057,222.653 261.096,229.581 235.064,239.051 209.104,250.455 183.143,258.815 157.183,268.428 131.151,272.098 105.191,276.591" fill="rgba(255,127,14,1.000)" stroke="none" stroke-width="0.000" fill-opacity="1.000" stroke-opacity="0.000" clip-path="url(#plot-clip-area)" />
<polygon points="105.191,197.716 131.151,196.803 157.183,201.010 183.143,202.997 209.104,198.146 235.064,194.691 261.096,190.878 287.057,187.387 313.017,184.487 338.977,188.980 365.009,183.699 365.009,197.877 338.977,202.657 313.017,202.746 287.057,202.102 261.096,205.557 235.064,209.084 209.104,214.973 183.143,216.352 157.183,219.270 131.151,216.781 105.191,221.633" fill="rgba(44,160,44,1.000)" stroke="none" stroke-width="0.000" fill-opacity="1.000" stroke-opacity="0.000" clip-path="url(#plot-clip-area)" />
<polygon points="105.191,174.873 131.151,174.605 157.183,179.134 183.143,182.517 209.104,178.883 235.064,177.899 261.096,176.556 287.057,174.283 313.017,171.526 338.977,173.728 365.009,171.168 365.009,183.699 338.977,188.980 313.017,184.487 287.057,187.387 261.096,190.878 235.064,194.691 209.104,198.146 183.143,202.997 157.183,201.010 131.151,196.803 105.191,197.716" fill="rgba(214,39,40,1.000)" stroke="none" stroke-width="0.000" fill-opacity="1.000" stroke-opacity="0.000" clip-path="url(#plot-clip-area)" />
<polygon points="105.191,118.662 131.151,122.690 157.183,127.935 183.143,132.751 209.104,135.919 235.064,135.651 261.096,137.888 287.057,141.343 313.017,141.809 338.977,141.898 365.009,141.558 365.009,171.168 338.977,173.728 313.017,171.526 287.057,174.283 261.096,176.556 235.064,177.899 209.104,178.883 183.143,182.517 157.183,179.134 131.151,174.605 105.191,174.873" fill="rgba(148,103,189,1.000)" stroke="none" stroke-width="0.000" fill-opacity="1.000" stroke-opacity="0.000" clip-path="url(#plot-clip-area)" />
<polygon points="105.191,81.570 131.151,88.891 157.183,97.216 183.143,105.361 209.104,111.716 235.064,119.682 261.096,124.677 287.057,129.600 313.017,131.569 338.977,128.938 365.009,128.239 365.009,141.558 338.977,141.898 313.017,141.809 287.057,141.343 261.096,137.888 235.064,135.651 209.104,135.919 183.143,132.751 157.183,127.935 131.151,122.690 105.191,118.662" fill="rgba(140,86,75,1.000)" stroke="none" stroke-width="0.000" fill-opacity="1.000" stroke-opacity="0.000" clip-path="url(#plot-clip-area)" />
<polygon points="105.191,52.318 131.151,57.241 157.183,61.054 183.143,70.739 209.104,79.636 235.064,91.040 261.096,101.190 287.057,111.304 313.017,115.637 338.977,111.143 365.009,112.414 365.009,128.239 338.977,128.938 313.017,131.569 287.057,129.600 261.096,124.677 235.064,119.682 209.104,111.716 183.143,105.361 157.183,97.216 131.151,88.891 105.191,81.570" fill="rgba(227,119,194,1.000)" stroke="none" stroke-width="0.000" fill-opacity="1.000" stroke-opacity="0.000" clip-path="url(#plot-clip-area)" />
<text x="393.000" y="49.600" font-size="13.2" font-family="Inter, -apple-system, BlinkMacSystemFont, 'Segoe UI', Roboto, Helvetica, Arial, 'PingFang SC', 'Microsoft YaHei', Ubuntu, Cantarell, 'Noto Sans', sans-serif" fill="rgba(51,51,51,1.000)" fill-opacity="1.000" text-anchor="start" font-weight="bold">Country</text>
<circle cx="402.000" cy="69.200" r="5.000" fill="rgba(31,119,180,1.000)" stroke="none" stroke-width="0.000" fill-opacity="1.000" stroke-opacity="1.000" />
<text x="419.000" y="73.700" font-size="12.0" font-family="Inter, -apple-system, BlinkMacSystemFont, 'Segoe UI', Roboto, Helvetica, Arial, 'PingFang SC', 'Microsoft YaHei', Ubuntu, Cantarell, 'Noto Sans', sans-serif" fill="rgba(51,51,51,1.000)" fill-opacity="1.000" text-anchor="start" font-weight="normal">Belarus</text>
<circle cx="402.000" cy="90.200" r="5.000" fill="rgba(255,127,14,1.000)" stroke="none" stroke-width="0.000" fill-opacity="1.000" stroke-opacity="1.000" />
<text x="419.000" y="94.700" font-size="12.0" font-family="Inter, -apple-system, BlinkMacSystemFont, 'Segoe UI', Roboto, Helvetica, Arial, 'PingFang SC', 'Microsoft YaHei', Ubuntu, Cantarell, 'Noto Sans', sans-serif" fill="rgba(51,51,51,1.000)" fill-opacity="1.000" text-anchor="start" font-weight="normal">Ireland</text>
<circle cx="402.000" cy="111.200" r="5.000" fill="rgba(44,160,44,1.000)" stroke="none" stroke-width="0.000" fill-opacity="1.000" stroke-opacity="1.000" />
<text x="419.000" y="115.700" font-size="12.0" font-family="Inter, -apple-system, BlinkMacSystemFont, 'Segoe UI', Roboto, Helvetica, Arial, 'PingFang SC', 'Microsoft YaHei', Ubuntu, Cantarell, 'Noto Sans', sans-serif" fill="rgba(51,51,51,1.000)" fill-opacity="1.000" text-anchor="start" font-weight="normal">Moldova</text>
<circle cx="402.000" cy="132.200" r="5.000" fill="rgba(214,39,40,1.000)" stroke="none" stroke-width="0.000" fill-opacity="1.000" stroke-opacity="1.000" />
<text x="419.000" y="136.700" font-size="12.0" font-family="Inter, -apple-system, BlinkMacSystemFont, 'Segoe UI', Roboto, Helvetica, Arial, 'PingFang SC', 'Microsoft YaHei', Ubuntu, Cantarell, 'Noto Sans', sans-serif" fill="rgba(51,51,51,1.000)" fill-opacity="1.000" text-anchor="start" font-weight="normal">Malta</text>
<circle cx="402.000" cy="153.200" r="5.000" fill="rgba(148,103,189,1.000)" stroke="none" stroke-width="0.000" fill-opacity="1.000" stroke-opacity="1.000" />
<text x="419.000" y="157.700" font-size="12.0" font-family="Inter, -apple-system, BlinkMacSystemFont, 'Segoe UI', Roboto, Helvetica, Arial, 'PingFang SC', 'Microsoft YaHei', Ubuntu, Cantarell, 'Noto Sans', sans-serif" fill="rgba(51,51,51,1.000)" fill-opacity="1.000" text-anchor="start" font-weight="normal">Puerto Rico</text>
<circle cx="402.000" cy="174.200" r="5.000" fill="rgba(140,86,75,1.000)" stroke="none" stroke-width="0.000" fill-opacity="1.000" stroke-opacity="1.000" />
<text x="419.000" y="178.700" font-size="12.0" font-family="Inter, -apple-system, BlinkMacSystemFont, 'Segoe UI', Roboto, Helvetica, Arial, 'PingFang SC', 'Microsoft YaHei', Ubuntu, Cantarell, 'Noto Sans', sans-serif" fill="rgba(51,51,51,1.000)" fill-opacity="1.000" text-anchor="start" font-weight="normal">Senegal</text>
<circle cx="402.000" cy="195.200" r="5.000" fill="rgba(227,119,194,1.000)" stroke="none" stroke-width="0.000" fill-opacity="1.000" stroke-opacity="1.000" />
<text x="419.000" y="199.700" font-size="12.0" font-family="Inter, -apple-system, BlinkMacSystemFont, 'Segoe UI', Roboto, Helvetica, Arial, 'PingFang SC', 'Microsoft YaHei', Ubuntu, Cantarell, 'Noto Sans', sans-serif" fill="rgba(51,51,51,1.000)" fill-opacity="1.000" text-anchor="start" font-weight="normal">Slovenia</text>
</svg>