<svg width="500" height="400" viewBox="0 0 500 400" xmlns="http://www.w3.org/2000/svg"><rect width="100%" height="100%" fill="rgba(255,255,255,1.000)" /><line x1="92.20" y1="311.00" x2="378.00" y2="311.00" stroke="rgba(51,51,51,1.000)" stroke-width="1" stroke-linecap="square"/>
<line x1="131.15" y1="311.00" x2="131.15" y2="317.00" stroke="rgba(51,51,51,1.000)" stroke-width="1.0"/>
<text x="131.15" y="320.00" font-size="13" font-family="Inter, -apple-system, BlinkMacSystemFont, 'Segoe UI', Roboto, Helvetica, Arial, 'PingFang SC', 'Microsoft YaHei', Ubuntu, Cantarell, 'Noto Sans', sans-serif" fill="rgba(51,51,51,1.000)" text-anchor="middle" dominant-baseline="hanging">2012</text>
<line x1="183.14" y1="311.00" x2="183.14" y2="317.00" stroke="rgba(51,51,51,1.000)" stroke-width="1.0"/>
<text x="183.14" y="320.00" font-size="13" font-family="Inter, -apple-system, BlinkMacSystemFont, 'Segoe UI', Roboto, Helvetica, Arial, 'PingFang SC', 'Microsoft YaHei', Ubuntu, Cantarell, 'Noto Sans', sans-serif" fill="rgba(51,51,51,1.000)" text-anchor="middle" dominant-baseline="hanging">2014</text>
<line x1="235.06" y1="311.00" x2="235.06" y2="317.00" stroke="rgba(51,51,51,1.000)" stroke-width="1.0"/>
<text x="235.06" y="320.00" font-size="13" font-family="Inter, -apple-system, BlinkMacSystemFont, 'Segoe UI', Roboto, Helvetica, Arial, 'PingFang SC', 'Microsoft YaHei', Ubuntu, Cantarell, 'Noto Sans', sans-serif" fill="rgba(51,51,51,1.000)" text-anchor="middle" dominant-baseline="hanging">2016</text>
<line x1="287.06" y1="311.00" x2="287.06" y2="317.00" stroke="rgba(51,51,51,1.000)" stroke-width="1.0"/>
<text x="287.06" y="320.00" font-size="13" font-family="Inter, -apple-system, BlinkMacSystemFont, 'Segoe UI', Roboto, Helvetica, Arial, 'PingFang SC', 'Microsoft YaHei', Ubuntu, Cantarell, 'Noto Sans', sans-serif" fill="rgba(51,51,51,1.000)" text-anchor="middle" dominant-baseline="hanging">2018</text>
<line x1="338.98" y1="311.00" x2="338.98" y2="317.00" stroke="rgba(51,51,51,1.000)" stroke-width="1.0"/>
<text x="338.98" y="320.00" font-size="13" font-family="Inter, -apple-system, BlinkMacSystemFont, 'Segoe UI', Roboto, Helvetica, Arial, 'PingFang SC', 'Microsoft YaHei', Ubuntu, Cantarell, 'Noto Sans', sans-serif" fill="rgba(51,51,51,1.000)" text-anchor="middle" dominant-baseline="hanging">2020</text>
<text x="235.10" y="340.00" text-anchor="middle" font-size="15" font-family="Inter, -apple-system, BlinkMacSystemFont, 'Segoe UI', Roboto, Helvetica, Arial, 'PingFang SC', 'Microsoft YaHei', Ubuntu, Cantarell, 'Noto Sans', sans-serif" fill="rgba(51,51,51,1.000)" font-weight="bold" dominant-baseline="hanging">Year</text>
<line x1="92.20" y1="40.00" x2="92.20" y2="311.00" stroke="rgba(51,51,51,1.000)" stroke-width="1" stroke-linecap="square"/>
<line x1="92.20" y1="294.48" x2="86.20" y2="294.48" stroke="rgba(51,51,51,1.000)" stroke-width="1.0"/>
<text x="82.20" y="294.48" font-size="13" font-family="Inter, -apple-system, BlinkMacSystemFont, 'Segoe UI', Roboto, Helvetica, Arial, 'PingFang SC', 'Microsoft YaHei', Ubuntu, Cantarell, 'Noto Sans', sans-serif" fill="rgba(51,51,51,1.000)" text-anchor="end" dominant-baseline="central">-30</text>
<line x1="92.20" y1="256.97" x2="86.20" y2="256.97" stroke="rgba(51,51,51,1.000)" stroke-width="1.0"/>
<text x="82.20" y="256.97" font-size="13" font-family="Inter, -apple-system, BlinkMacSystemFont, 'Segoe UI', Roboto, Helvetica, Arial, 'PingFang SC', 'Microsoft YaHei', Ubuntu, Cantarell, 'Noto Sans', sans-serif" fill="rgba(51,51,51,1.000)" text-anchor="end" dominant-baseline="central">-20</text>
<line x1="92.20" y1="219.46" x2="86.20" y2="219.46" stroke="rgba(51,51,51,1.000)" stroke-width="1.0"/>
<text x="82.20" y="219.46" font-size="13" font-family="Inter, -apple-system, BlinkMacSystemFont, 'Segoe UI', Roboto, Helvetica, Arial, 'PingFang SC', 'Microsoft YaHei', Ubuntu, Cantarell, 'Noto Sans', sans-serif" fill="rgba(51,51,51,1.000)" text-anchor="end" dominant-baseline="central">-10</text>
<line x1="92.20" y1="181.95" x2="86.20" y2="181.95" stroke="rgba(51,51,51,1.000)" stroke-width="1.0"/>
<text x="82.20" y="181.95" font-size="13" font-family="Inter, -apple-system, BlinkMacSystemFont, 'Segoe UI', Roboto, Helvetica, Arial, 'PingFang SC', 'Microsoft YaHei', Ubuntu, Cantarell, 'Noto Sans', sans-serif" fill="rgba(51,51,51,1.000)" text-anchor="end" dominant-baseline="central">0</text>
<line x1="92.20" y1="144.44" x2="86.20" y2="144.44" stroke="rgba(51,51,51,1.000)" stroke-width="1.0"/>
<text x="82.20" y="144.44" font-size="13" font-family="Inter, -apple-system, BlinkMacSystemFont, 'Segoe UI', Roboto, Helvetica, Arial, 'PingFang SC', 'Microsoft YaHei', Ubuntu, Cantarell, 'Noto Sans', sans-serif" fill="rgba(51,51,51,1.000)" text-anchor="end" dominant-baseline="central">10</text>
<line x1="92.20" y1="106.94" x2="86.20" y2="106.94" stroke="rgba(51,51,51,1.000)" stroke-width="1.0"/>
<text x="82.20" y="106.94" font-size="13" font-family="Inter, -apple-system, BlinkMacSystemFont, 'Segoe UI', Roboto, Helvetica, Arial, 'PingFang SC', 'Microsoft YaHei', Ubuntu, Cantarell, 'Noto Sans', sans-serif" fill="rgba(51,51,51,1.000)" text-anchor="end" dominant-baseline="central">20</text>
<line x1="92.20" y1="69.43" x2="86.20" y2="69.43" stroke="rgba(51,51,51,1.000)" stroke-width="1.0"/>
<text x="82.20" y="69.43" font-size="13" font-family="Inter, -apple-system, BlinkMacSystemFont, 'Segoe UI', Roboto, Helvetica, Arial, 'PingFang SC', 'Microsoft YaHei', Ubuntu, Cantarell, 'Noto Sans', sans-serif" fill="rgba(51,51,51,1.000)" text-anchor="end" dominant-baseline="central">30</text>
<text x="47.50" y="175.50" text-anchor="middle" font-size="15" font-family="Inter, -apple-system, BlinkMacSystemFont, 'Segoe UI', Roboto, Helvetica, Arial, 'PingFang SC', 'Microsoft YaHei', Ubuntu, Cantarell, 'Noto Sans', sans-serif" fill="rgba(51,51,51,1.000)" font-weight="bold" transform="rotate(-90, 47.50, 175.50)" dominant-baseline="middle">Unemployment rate (%)</text>
<defs><clipPath id="plot-clip-area"><rect x="92.200" y="40.000" width="285.800" height="271.000" /></clipPath></defs>
<line x1="92.200" y1="181.952" x2="378.000" y2="181.952" stroke="rgba(136,136,136,1.000)" stroke-width="1.000" stroke-opacity="0.500" stroke-dasharray="4.0,4.0" />
<polygon points="105.191,122.408 131.151,126.628 157.183,132.122 183.143,137.167 209.104,140.487 235.064,140.206 261.096,142.550 287.057,146.169 313.017,146.657 338.977,146.751 365.009,146.394 365.009,177.414 338.977,180.096 313.017,177.789 287.057,180.677 261.096,183.059 235.064,184.465 209.104,185.497 183.143,189.304 157.183,185.759 131.151,181.015 105.191,181.296" fill="rgba(148,103,189,1.000)" stroke="none" stroke-width="0.000" fill-opacity="1.000" stroke-opacity="0.000" clip-path="url(#plot-clip-area)" />
<polygon points="105.191,287.857 131.151,283.150 157.183,279.305 183.143,269.234 209.104,260.476 235.064,248.530 261.096,238.609 287.057,231.351 313.017,229.063 338.977,231.482 365.009,230.263 365.009,248.042 338.977,249.374 313.017,244.666 287.057,249.205 261.096,259.801 235.064,270.435 209.104,282.381 183.143,291.702 157.183,301.848 131.151,305.843 105.191,311.000" fill="rgba(31,119,180,1.000)" stroke="none" stroke-width="0.000" fill-opacity="1.000" stroke-opacity="0.000" clip-path="url(#plot-clip-area)" />
<polygon points="105.191,83.549 131.151,91.220 157.183,99.940 183.143,108.473 209.104,115.131 235.064,123.477 261.096,128.709 287.057,133.867 313.017,135.930 338.977,133.173 365.009,132.441 365.009,146.394 338.977,146.751 313.017,146.657 287.057,146.169 261.096,142.550 235.064,140.206 209.104,140.487 183.143,137.167 157.183,132.122 131.151,126.628 105.191,122.408" fill="rgba(140,86,75,1.000)" stroke="none" stroke-width="0.000" fill-opacity="1.000" stroke-opacity="0.000" clip-path="url(#plot-clip-area)" />
<polygon points="105.191,205.226 131.151,204.270 157.183,208.677 183.143,210.759 209.104,205.676 235.064,202.057 261.096,198.062 287.057,194.405 313.017,191.367 338.977,196.074 365.009,190.542 365.009,205.395 338.977,210.402 313.017,210.496 287.057,209.821 261.096,213.441 235.064,217.135 209.104,223.305 183.143,224.749 157.183,227.806 131.151,225.200 105.191,230.282" fill="rgba(44,160,44,1.000)" stroke="none" stroke-width="0.000" fill-opacity="1.000" stroke-opacity="0.000" clip-path="url(#plot-clip-area)" />
<polygon points="105.191,181.296 131.151,181.015 157.183,185.759 183.143,189.304 209.104,185.497 235.064,184.465 261.096,183.059 287.057,180.677 313.017,177.789 338.977,180.096 365.009,177.414 365.009,190.542 338.977,196.074 313.017,191.367 287.057,194.405 261.096,198.062 235.064,202.057 209.104,205.676 183.143,210.759 157.183,208.677 131.151,204.270 105.191,205.226" fill="rgba(214,39,40,1.000)" stroke="none" stroke-width="0.000" fill-opacity="1.000" stroke-opacity="0.000" clip-path="url(#plot-clip-area)" />
<polygon points="105.191,52.905 131.151,58.062 157.183,62.057 183.143,72.203 209.104,81.524 235.064,93.470 261.096,104.104 287.057,114.700 313.017,119.238 338.977,114.531 365.009,115.863 365.009,132.441 338.977,133.173 313.017,135.930 287.057,133.867 261.096,128.709 235.064,123.477 209.104,115.131 183.143,108.473 157.183,99.940 131.151,91.220 105.191,83.549" fill="rgba(227,119,194,1.000)" stroke="none" stroke-width="0.000" fill-opacity="1.000" stroke-opacity="0.000" clip-path="url(#plot-clip-area)" />
<polygon points="105.191,230.282 131.151,225.200 157.183,227.806 183.143,224.749 209.104,223.305 235.064,217.135 261.096,213.441 287.057,209.821 313.017,210.496 338.977,210.402 365.009,205.395 365.009,230.263 338.977,231.482 313.017,229.063 287.057,231.351 261.096,238.609 235.064,248.530 209.104,260.476 183.143,269.234 157.183,279.305 131.151,283.150 105.191,287.857" fill="rgba(255,127,14,1.000)" stroke="none" stroke-width="0.000" fill-opacity="1.000" stroke-opacity="0.000" clip-path="url(#plot-clip-area)" />
<text x="393.000" y="49.600" font-size="13.2" font-family="Inter, -apple-system, BlinkMacSystemFont, 'Segoe UI', Roboto, Helvetica, Arial, 'PingFang SC', 'Microsoft YaHei', Ubuntu, Cantarell, 'Noto Sans', sans-serif" fill="rgba(51,51,51,1.000)" fill-opacity="1.000" text-anchor="start" font-weight="bold">Country</text>
<circle cx="402.000" cy="69.200" r="5.000" fill="rgba(31,119,180,1.000)" stroke="none" stroke-width="0.000" fill-opacity="1.000" stroke-opacity="1.000" />
<text x="419.000" y="73.700" font-size="12.0" font-family="Inter, -apple-system, BlinkMacSystemFont, 'Segoe UI', Roboto, Helvetica, Arial, 'PingFang SC', 'Microsoft YaHei', Ubuntu, Cantarell, 'Noto Sans', sans-serif" fill="rgba(51,51,51,1.000)" fill-opacity="1.000" text-anchor="start" font-weight="normal">Belarus</text>
<circle cx="402.000" cy="90.200" r="5.000" fill="rgba(255,127,14,1.000)" stroke="none" stroke-width="0.000" fill-opacity="1.000" stroke-opacity="1.000" />
<text x="419.000" y="94.700" font-size="12.0" font-family="Inter, -apple-system, BlinkMacSystemFont, 'Segoe UI', Roboto, Helvetica, Arial, 'PingFang SC', 'Microsoft YaHei', Ubuntu, Cantarell, 'Noto Sans', sans-serif" fill="rgba(51,51,51,1.000)" fill-opacity="1.000" text-anchor="start" font-weight="normal">Ireland</text>
<circle cx="402.000" cy="111.200" r="5.000" fill="rgba(44,160,44,1.000)" stroke="none" stroke-width="0.000" fill-opacity="1.000" stroke-opacity="1.000" />
<text x="419.000" y="115.700" font-size="12.0" font-family="Inter, -apple-system, BlinkMacSystemFont, 'Segoe UI', Roboto, Helvetica, Arial, 'PingFang SC', 'Microsoft YaHei', Ubuntu, Cantarell, 'Noto Sans', sans-serif" fill="rgba(51,51,51,1.000)" fill-opacity="1.000" text-anchor="start" font-weight="normal">Moldova</text>
<circle cx="402.000" cy="132.200" r="5.000" fill="rgba(214,39,40,1.000)" stroke="none" stroke-width="0.000" fill-opacity="1.000" stroke-opacity="1.000" />
<text x="419.000" y="136.700" font-size="12.0" font-family="Inter, -apple-system, BlinkMacSystemFont, 'Segoe UI', Roboto, Helvetica, Arial, 'PingFang SC', 'Microsoft YaHei', Ubuntu, Cantarell, 'Noto Sans', sans-serif" fill="rgba(51,51,51,1.000)" fill-opacity="1.000" text-anchor="start" font-weight="normal">Malta</text>
<circle cx="402.000" cy="153.200" r="5.000" fill="rgba(148,103,189,1.000)" stroke="none" stroke-width="0.000" fill-opacity="1.000" stroke-opacity="1.000" />
<text x="419.000" y="157.700" font-size="12.0" font-family="Inter, -apple-system, BlinkMacSystemFont, 'Segoe UI', Roboto, Helvetica, Arial, 'PingFang SC', 'Microsoft YaHei', Ubuntu, Cantarell, 'Noto Sans', sans-serif" fill="rgba(51,51,51,1.000)" fill-opacity="1.000" text-anchor="start" font-weight="normal">Puerto Rico</text>
<circle cx="402.000" cy="174.200" r="5.000" fill="rgba(140,86,75,1.000)" stroke="none" stroke-width="0.000" fill-opacity="1.000" stroke-opacity="1.000" />
<text x="419.000" y="178.700" font-size="12.0" font-family="Inter, -apple-system, BlinkMacSystemFont, 'Segoe UI', Roboto, Helvetica, Arial, 'PingFang SC', 'Microsoft YaHei', Ubuntu, Cantarell, 'Noto Sans', sans-serif" fill="rgba(51,51,51,1.000)" fill-opacity="1.000" text-anchor="start" font-weight="normal">Senegal</text>
<circle cx="402.000" cy="195.200" r="5.000" fill="rgba(227,119,194,1.000)" stroke="none" stroke-width="0.000" fill-opacity="1.000" stroke-opacity="1.000" />
<text x="419.000" y="199.700" font-size="12.0" font-family="Inter, -apple-system, BlinkMacSystemFont, 'Segoe UI', Roboto, Helvetica, Arial, 'PingFang SC', 'Microsoft YaHei', Ubuntu, Cantarell, 'Noto Sans', sans-serif" fill="rgba(51,51,51,1.000)" fill-opacity="1.000" text-anchor="start" font-weight="normal">Slovenia</text>
</svg>